<svg xmlns="http://www.w3.org/2000/svg" xmlns:xlink="http://www.w3.org/1999/xlink" id="Layer_1" width="670" height="520"><defs id="defs49"><linearGradient id="linearGradient3776" gradientUnits="userSpaceOnUse" x1="2629.883" y1="-1207.376" x2="2629.883" y2="-135.388" gradientTransform="matrix(1 0 0 -1 -2571 478.248)"><stop offset="0" id="stop30-6" stop-color="#11998e"/><stop offset="1" id="stop32-7" stop-color="#38ef7d"/></linearGradient><clipPath id="SVGID_2_-7"><use xlink:href="#SVGID_1_" id="use7-4" width="100%" height="100%" overflow="visible"/></clipPath><linearGradient id="linearGradient3793" gradientUnits="userSpaceOnUse" x1="2666.051" y1="-4570.364" x2="2666.051" y2="-3902.382" gradientTransform="matrix(1 0 0 -1 -2571 -1128.752)"><stop offset="0" id="stop16-3" stop-color="#11998e"/><stop offset="1" id="stop18-2" stop-color="#38ef7d"/></linearGradient><clipPath id="SVGID_2_-5"><use xlink:href="#SVGID_1_" id="use7-3" width="100%" height="100%" overflow="visible"/></clipPath><linearGradient id="linearGradient3810" gradientUnits="userSpaceOnUse" x1="5515.997" y1="-5593.338" x2="5515.997" y2="-5072.364" gradientTransform="matrix(1 0 0 -1 -3777 -1631.722)"><stop offset="0" id="stop10-6" stop-color="#11998e"/><stop offset="1" id="stop12-1" stop-color="#38ef7d"/></linearGradient><clipPath id="SVGID_2_-9"><use xlink:href="#SVGID_1_" id="use7-9" width="100%" height="100%" overflow="visible"/></clipPath></defs><style id="style2"/><g id="g44" transform="matrix(.93 0 0 .51136 0 -3441.136)"><defs id="defs5"><path id="SVGID_1_" d="M0-7.4h1920v4596H0z"/></defs><clipPath id="SVGID_2_"><use xlink:href="#SVGID_1_" id="use7" width="100%" height="100%" overflow="visible"/></clipPath><linearGradient id="SVGID_3_" gradientUnits="userSpaceOnUse" x1="5515.997" y1="-5593.338" x2="5515.997" y2="-5072.364" gradientTransform="matrix(1 0 0 -1 -3777 -1631.722)"><stop offset="0" id="stop10" stop-color="#11998e"/><stop offset="1" id="stop12" stop-color="#38ef7d"/></linearGradient><linearGradient id="SVGID_4_" gradientUnits="userSpaceOnUse" x1="2666.051" y1="-4570.364" x2="2666.051" y2="-3902.382" gradientTransform="matrix(1 0 0 -1 -2571 -1128.752)"><stop offset="0" id="stop16" stop-color="#11998e"/><stop offset="1" id="stop18" stop-color="#38ef7d"/></linearGradient><linearGradient id="SVGID_5_" gradientUnits="userSpaceOnUse" x1="5738.991" y1="-2988.4" x2="5738.991" y2="-1903.382" gradientTransform="matrix(1 0 0 -1 -3904 -217.752)"><stop offset="0" id="stop23" stop-color="#11998e"/><stop offset="1" id="stop25" stop-color="#38ef7d"/></linearGradient><linearGradient id="SVGID_6_" gradientUnits="userSpaceOnUse" x1="2629.883" y1="-1207.376" x2="2629.883" y2="-135.388" gradientTransform="matrix(1 0 0 -1 -2571 478.248)"><stop offset="0" id="stop30" stop-color="#11998e"/><stop offset="1" id="stop32" stop-color="#38ef7d"/></linearGradient><linearGradient id="SVGID_7_" gradientUnits="userSpaceOnUse" x1="4716.009" y1="391.638" x2="4716.009" y2="996.546" gradientTransform="matrix(1 0 0 -1 -3255 1004.248)"><stop offset="0" id="stop37" stop-color="#11998e"/><stop offset="1" id="stop39" stop-color="#38ef7d"/></linearGradient><path id="blob-1" d="M1272.5 3487.4c10.8 0 19.5 9.2 19.5 20.5s-8.7 20.5-19.5 20.5-19.5-9.2-19.5-20.5 8.7-20.5 19.5-20.5zm218.9 102.6c34.7 0 62.9 29.6 62.9 66.1 0 36.5-28.1 66.1-62.9 66.1s-62.8-29.6-62.8-66.1c0-36.5 28.1-66.1 62.8-66.1zm432.6-148.8c66.5-8.3 162.9 71.6 209.5 123.4 18.9 20 36.6 41.2 52.9 63.4 11.8 16.8 18.9 28.5 31.6 61.3 9.4 26.8 10.8 68.3-4.6 104.6-14.5 37.1-45.7 69-80.2 93.1-34.5 24.4-72.3 41-101.9 53.3-30.7 12-53.2 19.6-82.3 20.9-50.3 5.7-129.7-50.8-173.3-96.3-47.9-50.4-59.9-89.8-74.7-162-5.4-34.9-15.1-75.5-11.6-107.4 2.6-32.7 18.3-56.6 43-76 24.5-19.4 57.9-34.2 90.9-48.9 33.4-14 66.4-28.1 100.7-29.4z" clip-path="url(#SVGID_2_)" transform="matrix(1.07189 0 0 1.9477 -1338.117 30.503)" fill="url(#SVGID_3_)"/></g></svg>