<svg xmlns="http://www.w3.org/2000/svg" xmlns:xlink="http://www.w3.org/1999/xlink" id="Layer_1" viewBox="0 0 1225 610" width="1325" height="800"><defs id="defs49"><linearGradient id="linearGradient3776" gradientUnits="userSpaceOnUse" x1="2629.883" y1="-1207.376" x2="2629.883" y2="-135.388" gradientTransform="matrix(1 0 0 -1 -2571 478.248)"><stop offset="0" id="stop30-6" stop-color="#11998e"/><stop offset="1" id="stop32-7" stop-color="#38ef7d"/></linearGradient><clipPath id="SVGID_2_-7"><use xlink:href="#SVGID_1_" id="use7-4" width="100%" height="100%" overflow="visible"/></clipPath><linearGradient id="linearGradient3793" gradientUnits="userSpaceOnUse" x1="2666.051" y1="-4570.364" x2="2666.051" y2="-3902.382" gradientTransform="matrix(1 0 0 -1 -2571 -1128.752)"><stop offset="0" id="stop16-3" stop-color="#11998e"/><stop offset="1" id="stop18-2" stop-color="#38ef7d"/></linearGradient><clipPath id="SVGID_2_-5"><use xlink:href="#SVGID_1_" id="use7-3" width="100%" height="100%" overflow="visible"/></clipPath><linearGradient id="linearGradient3810" gradientUnits="userSpaceOnUse" x1="5515.997" y1="-5593.338" x2="5515.997" y2="-5072.364" gradientTransform="matrix(1 0 0 -1 -3777 -1631.722)"><stop offset="0" id="stop10-6" stop-color="#11998e"/><stop offset="1" id="stop12-1" stop-color="#38ef7d"/></linearGradient><clipPath id="SVGID_2_-9"><use xlink:href="#SVGID_1_" id="use7-9" width="100%" height="100%" overflow="visible"/></clipPath><linearGradient id="linearGradient3827" gradientUnits="userSpaceOnUse" x1="4716.009" y1="391.638" x2="4716.009" y2="996.546" gradientTransform="matrix(1 0 0 -1 -3255 1004.248)"><stop offset="0" id="stop37-4" stop-color="#11998e"/><stop offset="1" id="stop39-6" stop-color="#38ef7d"/></linearGradient><clipPath id="SVGID_2_-3"><use xlink:href="#SVGID_1_" id="use7-8" width="100%" height="100%" overflow="visible"/></clipPath></defs><style id="style2"/><g id="g44" transform="matrix(.93 0 0 .51136 0 -3351.136)"><defs id="defs5"><path id="SVGID_1_" d="M0-7.4h1920v4596H0z"/></defs><clipPath id="SVGID_2_"><use xlink:href="#SVGID_1_" id="use7" width="100%" height="100%" overflow="visible"/></clipPath><linearGradient id="SVGID_3_" gradientUnits="userSpaceOnUse" x1="5515.997" y1="-5593.338" x2="5515.997" y2="-5072.364" gradientTransform="matrix(1 0 0 -1 -3777 -1631.722)"><stop offset="0" id="stop10" stop-color="#11998e"/><stop offset="1" id="stop12" stop-color="#38ef7d"/></linearGradient><linearGradient id="SVGID_4_" gradientUnits="userSpaceOnUse" x1="2666.051" y1="-4570.364" x2="2666.051" y2="-3902.382" gradientTransform="matrix(1 0 0 -1 -2571 -1128.752)"><stop offset="0" id="stop16" stop-color="#11998e"/><stop offset="1" id="stop18" stop-color="#38ef7d"/></linearGradient><linearGradient id="SVGID_5_" gradientUnits="userSpaceOnUse" x1="5738.991" y1="-2988.4" x2="5738.991" y2="-1903.382" gradientTransform="matrix(1 0 0 -1 -3904 -217.752)"><stop offset="0" id="stop23" stop-color="#11998e"/><stop offset="1" id="stop25" stop-color="#38ef7d"/></linearGradient><linearGradient id="SVGID_6_" gradientUnits="userSpaceOnUse" x1="2629.883" y1="-1207.376" x2="2629.883" y2="-135.388" gradientTransform="matrix(1 0 0 -1 -2571 478.248)"><stop offset="0" id="stop30" stop-color="#11998e"/><stop offset="1" id="stop32" stop-color="#38ef7d"/></linearGradient><linearGradient id="SVGID_7_" gradientUnits="userSpaceOnUse" x1="4716.009" y1="391.638" x2="4716.009" y2="996.546" gradientTransform="matrix(1 0 0 -1 -3255 1004.248)"><stop offset="0" id="stop37" stop-color="#11998e"/><stop offset="1" id="stop39" stop-color="#38ef7d"/></linearGradient><path d="M739.9 82.4c28.4-2.6 53.4 18.3 56 46.7 2.6 28.4-18.3 53.4-46.7 56-28.3 2.6-53.4-18.3-56-46.6-2.6-28.5 18.3-53.5 46.7-56.1zm8.8 200.4c13-1.2 24.5 8.4 25.6 21.4 1.2 13-8.4 24.5-21.4 25.6-13 1.2-24.4-8.4-25.6-21.3-1.1-13 8.5-24.5 21.4-25.7zm1160.2-159c7.9-.7 15 5.1 15.7 13.1.7 7.9-5.1 15-13.1 15.7-7.9.7-15-5.1-15.7-13.1-.7-7.9 5.1-15 13.1-15.7zm-383.8-69.1c46.9-3.1 84.2-2.4 134.5 16.6 48.8 17.6 110.5 53.6 170.9 88.7 61.1 37.5 121 74.2 172 116.7 51.7 42.3 94.5 90.4 139.3 146.1 41 53.6 81.2 103 86.3 127.1 6.4 25.7-22.5 26.2-90.1 19.8-65.1-6.7-162.6-18.8-244.8-17.3-41.1.5-77.8 4.2-107.2 10.6-29.8 6.3-52.2 15.3-73.1 23.3-40.3 16.8-66.2 32.3-130 23.9-60.5-7.1-158.9-38-268.3-82.6C1206 483.3 1086.3 425.3 1001 370c-87-56.1-139.8-109.5-154.6-164.4-13.6-53 11.2-107 61.1-143.6 49.6-37.2 124.4-57 205.7-54 80.6-.2 167.9 22.4 238.6 34.2 71.9 13.4 127.4 16.1 173.3 12.5z" clip-path="url(#SVGID_2_)" id="path42" transform="matrix(1.06423 0 0 1.942 -726.516 6548.577)" fill="url(#SVGID_7_)"/></g></svg>