<svg xmlns="http://www.w3.org/2000/svg" xmlns:xlink="http://www.w3.org/1999/xlink" id="Layer_1" width="570" height="670"><defs id="defs49"><linearGradient id="linearGradient3776" gradientUnits="userSpaceOnUse" x1="2629.883" y1="-1207.376" x2="2629.883" y2="-135.388" gradientTransform="matrix(1 0 0 -1 -2571 478.248)"><stop offset="0" id="stop30-6" stop-color="#11998e"/><stop offset="1" id="stop32-7" stop-color="#38ef7d"/></linearGradient><clipPath id="SVGID_2_-7"><use xlink:href="#SVGID_1_" id="use7-4" width="100%" height="100%" overflow="visible"/></clipPath><linearGradient id="linearGradient3793" gradientUnits="userSpaceOnUse" x1="2666.051" y1="-4570.364" x2="2666.051" y2="-3902.382" gradientTransform="matrix(1 0 0 -1 -2571 -1128.752)"><stop offset="0" id="stop16-3" stop-color="#11998e"/><stop offset="1" id="stop18-2" stop-color="#38ef7d"/></linearGradient><clipPath id="SVGID_2_-5"><use xlink:href="#SVGID_1_" id="use7-3" width="100%" height="100%" overflow="visible"/></clipPath></defs><style id="style2"/><g id="g44" transform="matrix(.93 0 0 .51136 0 -3291.136)"><defs id="defs5"><path id="SVGID_1_" d="M0-7.4h1920v4596H0z"/></defs><clipPath id="SVGID_2_"><use xlink:href="#SVGID_1_" id="use7" width="100%" height="100%" overflow="visible"/></clipPath><linearGradient id="SVGID_3_" gradientUnits="userSpaceOnUse" x1="5515.997" y1="-5593.338" x2="5515.997" y2="-5072.364" gradientTransform="matrix(1 0 0 -1 -3777 -1631.722)"><stop offset="0" id="stop10" stop-color="#11998e"/><stop offset="1" id="stop12" stop-color="#38ef7d"/></linearGradient><linearGradient id="SVGID_4_" gradientUnits="userSpaceOnUse" x1="2666.051" y1="-4570.364" x2="2666.051" y2="-3902.382" gradientTransform="matrix(1 0 0 -1 -2571 -1128.752)"><stop offset="0" id="stop16" stop-color="#11998e"/><stop offset="1" id="stop18" stop-color="#38ef7d"/></linearGradient><linearGradient id="SVGID_5_" gradientUnits="userSpaceOnUse" x1="5738.991" y1="-2988.4" x2="5738.991" y2="-1903.382" gradientTransform="matrix(1 0 0 -1 -3904 -217.752)"><stop offset="0" id="stop23" stop-color="#11998e"/><stop offset="1" id="stop25" stop-color="#38ef7d"/></linearGradient><linearGradient id="SVGID_6_" gradientUnits="userSpaceOnUse" x1="2629.883" y1="-1207.376" x2="2629.883" y2="-135.388" gradientTransform="matrix(1 0 0 -1 -2571 478.248)"><stop offset="0" id="stop30" stop-color="#11998e"/><stop offset="1" id="stop32" stop-color="#38ef7d"/></linearGradient><linearGradient id="SVGID_7_" gradientUnits="userSpaceOnUse" x1="4716.009" y1="391.638" x2="4716.009" y2="996.546" gradientTransform="matrix(1 0 0 -1 -3255 1004.248)"><stop offset="0" id="stop37" stop-color="#11998e"/><stop offset="1" id="stop39" stop-color="#38ef7d"/></linearGradient><path d="M508.5 2845.1c15.1-.1 27.4 12.1 27.4 27.2.1 15.1-12.1 27.4-27.2 27.4-15.1.1-27.4-12.1-27.4-27.2v-.1c-.1-15 12.1-27.3 27.2-27.3zm55.4-6.1c5.6 0 10.2 4.5 10.2 10.1s-4.5 10.2-10.1 10.2-10.2-4.5-10.2-10.1v-.1c0-5.6 4.5-10.1 10.1-10.1zm-543-61.6c134.2 23.5 243.9 104.6 340.8 180.5 92.3 76.4 159.1 176.1 93.3 263-56.9 88.3-103.7 137.8-213 176.3-99.4 35.6-261.3 60.2-319.9 32.5-28.7-12-99.1-45-160.6-78.1-62.5-34.1-115.9-68.3-135.3-103.5-21-35.4-7.9-71.6 25.3-113.9 31.1-41.7 82.3-89.5 88-135.9C-235 2897.7-170 2897.9-145 2857c35.7-29.6 31.5-100.4 165.9-79.6z" clip-path="url(#SVGID_2_)" id="path21" transform="matrix(1.0556 0 0 1.94329 2.965 1050.224)" fill="url(#SVGID_4_)"/></g></svg>