<svg xmlns="http://www.w3.org/2000/svg" viewBox="0 0 206.15 206.14"><defs><style>.cls-2{fill:#fff}</style></defs><g id="Layer_2" data-name="Layer 2"><g id="_3" data-name="3"><path d="M45.36 0h115.43a45.54 45.54 0 0 1 45.36 45.36v115.32a45.56 45.56 0 0 1-45.36 45.46H45.36A45.56 45.56 0 0 1 0 160.68V45.36A45.54 45.54 0 0 1 45.36 0z" fill="#323232" fill-rule="evenodd"/><path class="cls-2" d="M133.29 173.23H72.85a40 40 0 0 1-39.94-39.93V72.85a40 40 0 0 1 39.94-39.94h60.44a40 40 0 0 1 39.94 39.94v60.45a40 40 0 0 1-39.94 39.93zM72.85 44.94a27.94 27.94 0 0 0-27.91 27.91v60.45a28 28 0 0 0 27.91 27.91h60.44a28 28 0 0 0 27.92-27.91V72.85a28 28 0 0 0-27.92-27.91z"/><path class="cls-2" d="M103.07 139A35.93 35.93 0 1 1 139 103.07 36 36 0 0 1 103.07 139zm0-59.83a23.9 23.9 0 1 0 23.9 23.9 23.93 23.93 0 0 0-23.9-23.9zm46.11-14.08a8.64 8.64 0 1 1-8.64-8.64 8.63 8.63 0 0 1 8.64 8.64z"/></g></g></svg>