<svg xmlns="http://www.w3.org/2000/svg" xmlns:xlink="http://www.w3.org/1999/xlink" width="1500" height="1500"><path fill-rule="evenodd" clip-rule="evenodd" fill="#E0F2F0" d="M953.675 935.448c.012-.598.033-1.195.037-1.793a30.295 30.295 0 0 1-.087-4.011c-.206-.879-.415-1.761-.565-2.65-.961-3.934-.912-7.971-.035-11.855a34.142 34.142 0 0 1-.924-8.704c-45.232-7.292-90.464-14.571-135.688-21.902-8.008-1.297-15.977-2.817-23.964-4.233h-3.009c3.056 15.583 3.805 31.087-1.81 46.324-3.536 9.587-9.709 16.942-18.621 22.052-21.961 12.599-43.877 25.277-65.81 37.923v14.039c14.663 3.056 29.349 6.015 43.987 9.185 38.252 8.289 76.486 16.673 114.723 25.042.614.133 1.161.573 1.74.871h1.149c2.317-7.268 7.565-13.239 15.967-15.598 1-.389 2.046-.726 3.15-1a37.627 37.627 0 0 1 3.289-5.616c7.523-10.595 18.856-16.176 29.588-22.734 3.632-2.22 7.426-4.128 11.084-6.301 1.193-.708 2.402-1.424 3.586-2.175 2.565-5.382 7.204-9.279 12.635-11.658.639-5.333 2.612-10.338 6.058-14.233.114-4.576 1.212-8.989 3.277-12.837.052-2.713.125-5.426.243-8.136z"/><path fill-rule="evenodd" clip-rule="evenodd" fill="#C9C7C7" d="M953.675 935.448c.012-.598.033-1.195.037-1.793-.141-1.575-.12-3.122-.021-4.656-1.532-4.55-1.693-9.3-.669-13.849-.818-3.426-1.118-6.941-.863-10.354-6.985-1.107-13.974-2.216-20.963-3.321-.078.31-.153.62-.229.93 3.215 1.016 6.369 2.366 9.662 2.962 3.662.666 5.134 2.312 4.654 6.039-.294 2.269-.056 4.604-.056 7.221-29.071-5.862-57.671-11.638-86.275-17.392-20.806-4.184-41.619-8.336-62.423-12.528-.945-.192-1.832-.659-2.746-.998h-2.006v9.399c51.52 10.713 102.427 21.3 153.381 31.897 0 7.843.424 15.21-.1 22.508-.749 10.371-5.578 18.825-14.206 24.75-20.768 14.255-41.595 28.427-62.536 42.425-1.889 1.263-4.961 1.845-7.185 1.363-41.819-9.034-83.585-18.307-125.376-27.451-10.711-2.344-21.482-4.417-32.224-6.614v15.04c52.744 11.709 105.488 23.414 158.228 35.144.773.171 1.481.632 2.222.959h.814c2.364-7.415 7.777-13.48 16.477-15.734.686-.251 1.356-.516 2.089-.714 1.078-2.658 2.448-5.248 4.174-7.677 7.522-10.595 18.855-16.175 29.587-22.734 3.631-2.22 7.427-4.127 11.085-6.3 1.193-.708 2.401-1.424 3.586-2.175 2.564-5.385 7.208-9.281 12.64-11.66.641-5.335 2.611-10.345 6.061-14.239.11-4.253 1.102-8.343 2.924-11.968.054-2.828.135-5.656.257-8.48z"/><path fill-rule="evenodd" clip-rule="evenodd" fill="#5F6060" d="M957.172 956.903c-3.722 16.385-14.364 26.685-28.233 35.551-21.31 13.627-41.568 28.898-62.258 43.492-.355.25-.514.781-.765 1.181-.669-.5-1.904-.985-1.918-1.506-.149-4.844-.088-9.691-.088-14.539 21.892-14.879 43.827-29.693 65.652-44.669 9.249-6.345 14.243-15.375 14.506-26.574.31-13.164-.019-26.341.158-39.511.04-2.975-1.088-4.066-3.767-4.688-3.521-.82-6.945-2.049-10.23-4.109 8.981 1.408 17.96 2.82 26.941 4.227.002 17.05.002 34.097.002 51.145z"/><path fill-rule="evenodd" clip-rule="evenodd" fill="#3B3B3B" d="M1219.747 972.862h-13.035c0-231.817-.006-463.635.141-695.455 0-1.292-2.477-4.639 1.863-4.511.767.278 1.516.735 2.301.811 15.291 1.436 30.598 2.695 45.873 4.276 10.437 1.077 20.962 1.942 31.202 4.082 11.077 2.318 22.017 14.963 19.464 29.598-3.031 17.369-3.816 35.127-5.612 52.714-1.775 17.419-3.588 34.837-5.398 52.252-1.864 17.914-3.758 35.822-5.607 53.738-1.813 17.583-3.564 35.171-5.383 52.754-1.854 17.911-3.785 35.816-5.637 53.728-1.816 17.583-3.542 35.176-5.368 52.759-2.188 21.061-4.476 42.114-6.652 63.18-2.161 20.9-4.197 41.813-6.36 62.712-2.183 21.063-4.497 42.113-6.674 63.178-2.157 20.898-4.192 41.81-6.33 62.711-2.224 21.729-4.431 43.457-6.826 65.165-.485 4.414-1.189 8.969-2.816 13.053-3.363 8.438-10.66 11.866-19.146 13.255z"/><path fill-rule="evenodd" clip-rule="evenodd" fill="#4D4C4D" d="M1234.1 905.245c-11.15-2.122-21.606-4.083-32.049-6.103-52.686-10.191-105.369-20.411-158.056-30.592-51.053-9.862-102.116-19.669-153.167-29.536-49.251-9.52-98.489-19.107-147.742-28.621-54.489-10.525-108.987-20.987-163.478-31.511-35.508-6.855-70.992-13.833-106.525-20.57-3.631-.688-4.504-1.836-4.14-5.52 1.767-17.766 3.187-35.569 4.729-53.357 1.885-21.78 3.781-43.56 5.649-65.341 1.469-17.128 2.894-34.26 4.36-51.39 1.894-22.114 3.819-44.224 5.712-66.34 1.451-16.963 2.858-33.928 4.31-50.89 1.891-22.116 3.827-44.226 5.702-66.342 1.82-21.456 3.556-42.915 5.382-64.368 1.828-21.451 3.737-42.896 5.586-64.345 1.159-13.469 2.525-26.929 3.336-40.419.854-14.23 10.216-23.167 24.579-22.224 13.155.861 26.284 2.152 39.409 3.396 19.443 1.841 38.867 3.865 58.308 5.709 43.908 4.166 87.819 8.277 131.729 12.4 48.903 4.594 97.809 9.148 146.707 13.773 44.549 4.216 89.083 8.548 133.634 12.742 37.396 3.519 74.809 6.879 112.209 10.366 35.741 3.332 71.488 6.592 107.204 10.179 13.559 1.363 24.725 7.071 28.211 21.454 1.237 5.094.123 10.855-.411 16.265-2.098 21.249-4.395 42.479-6.619 63.716-2.222 21.237-4.46 42.47-6.657 63.708-2.147 20.741-4.236 41.49-6.377 62.231-2.194 21.239-4.442 42.474-6.633 63.712-2.159 20.91-4.26 41.825-6.423 62.733-2.177 21.071-4.415 42.139-6.6 63.21-1.825 17.59-3.597 35.185-5.419 52.773-2.201 21.238-4.446 42.472-6.641 63.71-1.819 17.589-3.588 35.184-5.398 52.774-1.427 13.918-2.883 27.827-4.421 42.618z"/><path fill-rule="evenodd" clip-rule="evenodd" fill="#E0F2F0" d="M472.379 757.634c12.69 2.616 25.354 5.366 38.076 7.824 67.344 13.013 134.704 25.938 202.054 38.922 66.593 12.837 133.181 25.703 199.77 38.568 82.201 15.881 164.397 31.771 246.597 47.666 24.559 4.75 49.111 9.534 73.671 14.278.968.185 1.982.108 2.977.155v3.009c-.998 7.722-2.094 15.437-2.969 23.173-.844 7.457-1.305 14.957-2.218 22.403-1.054 8.606-11.048 16.789-21.767 16.609-8.082-.136-16.216-1.693-24.188-3.309-78.325-15.894-156.62-31.927-234.923-47.929-88.917-18.172-177.833-36.349-266.746-54.535-64.622-13.217-129.24-26.46-193.865-39.674-11.577-2.367-19.852-8.416-22.863-20.339-.398-1.581-.504-3.311-.363-4.939 1.2-13.965 2.487-27.923 3.748-41.882h3.009z"/><path fill-rule="evenodd" clip-rule="evenodd" fill="#FFF" d="M1212.436 872.242h-3.007c-1.677-.619-3.307-1.493-5.039-1.82a139109.62 139109.62 0 0 0-170.552-32.164c-66.865-12.566-133.735-25.095-200.604-37.632-67.263-12.613-134.529-25.197-201.788-37.831a68622.613 68622.613 0 0 1-129.623-24.482c-7.075-1.344-6.837-1.465-6.131-8.689 1.396-14.278 2.539-28.58 3.772-42.872 1.463-16.955 2.901-33.909 4.368-50.863 1.871-21.606 3.783-43.208 5.637-64.814 1.467-17.119 2.85-34.247 4.315-51.367 1.89-22.105 3.826-44.206 5.733-66.31 1.461-16.952 2.896-33.909 4.366-50.863 1.871-21.606 3.767-43.209 5.647-64.816 1.549-17.78 3.143-35.559 4.627-53.348 1.193-14.294 2.259-28.6 3.381-42.9h7.02c14.582 1.62 29.153 3.354 43.749 4.837 28.407 2.887 56.831 5.604 85.244 8.442 25.405 2.536 50.802 5.182 76.21 7.704 25.243 2.505 50.5 4.866 75.74 7.379 28.565 2.842 57.117 5.831 85.684 8.667 32.06 3.181 64.135 6.219 96.195 9.401 35.567 3.53 71.121 7.175 106.686 10.728 48.045 4.797 96.096 9.548 144.143 14.334 3.746.374 7.482.854 11.56 1.324-1.538 15.473-2.972 30.399-4.515 45.314-2.181 21.069-4.489 42.125-6.648 63.196-2.164 21.072-4.146 42.164-6.321 63.233-2.842 27.539-5.855 55.059-8.688 82.599-2.507 24.389-4.806 48.801-7.312 73.188-2.507 24.389-5.221 48.755-7.729 73.143-2.506 24.389-4.803 48.8-7.304 73.189-2.872 28.038-5.87 56.062-8.816 84.093z"/><path d="M831.702 837.134c1.077 1.967 2.152 3.936 3.228 5.9-5.995 4.188-5.995 4.188-10.412-1.998 2.063-1.303 4.122-2.604 6.18-3.902h1.004zm.403 44.158c-1.995-3.441-3.715-6.418-6.071-10.488 6.614-.905 12.635-1.732 19.66-2.693-2.247 8.012-7.132 11.092-13.589 13.181zm-27.408-22.383c5.711 3.852 10.513 7.092 15.853 10.691-2.389 1.563-3.901 2.501-5.362 3.517-1.351.941-2.646 1.962-4.146 3.083-4.99-4.15-7.316-9.213-6.345-17.291zm27.048 1.759l12.492-3.395c.532.459 1.067.917 1.6 1.375-1.016 2.332-1.424 5.9-3.167 6.759-4.8 2.371-8.555.677-10.925-4.739zm-22.12-11.389c3.972 3.397 6.99 5.976 9.979 8.534-3.938 6.18-7.444 2.49-10.527.641-4.19-2.51-.304-5.013.548-9.175zm3.817 29.839c7.916-8.23 10.868-7.563 15.016 3.271-5.194-1.133-9.577-2.088-15.016-3.271zm18.48-31.073c3.569.261 6.676-5.307 9.51.208.892 1.736 1.047 5.403-.035 6.311-3.097 2.597-5.599.826-9.475-6.519zm-19.03-.473c1.297-1.469 2.356-2.75 3.505-3.944.677-.7 1.497-1.261 2.648-2.209 1.987 1.797 3.887 3.519 5.811 5.261-6.554 6.188-6.779 6.206-11.964.892zm20.352 8.658c-1.037.949-1.806 2.17-2.362 2.081-3.134-.508-6.231-1.267-9.285-2.136-.345-.099-.679-1.949-.439-2.108 2.273-1.507 4.793-4.036 6.998-3.817 1.803.178 3.277 3.7 5.088 5.98zm-2.628 10.024c-7.049 3.674-7.292 3.622-11.925-2.446 6.327-5.423 7.815-5.156 11.925 2.446z" fill-rule="evenodd" clip-rule="evenodd" fill="#539798"/><g opacity=".7" fill-rule="evenodd" clip-rule="evenodd"><path fill="#E6E7E8" d="M1270.778 311.042v1c-.263.595-.702 1.172-.766 1.786-1.444 13.584-2.831 27.172-4.266 40.756-.889 8.405-1.838 16.806-2.808 25.668l-730.413-80.619 5.405-59.674h4.004c1.572.338 3.128.837 4.72.992 15.237 1.489 30.481 2.898 45.718 4.37 15.9 1.535 31.794 3.125 47.694 4.666 15.073 1.46 30.152 2.87 45.226 4.332 19.378 1.88 38.753 3.799 58.132 5.681 15.075 1.462 30.154 2.884 45.229 4.345 19.38 1.881 38.76 3.789 58.14 5.671 15.077 1.462 30.156 2.89 45.23 4.357 19.216 1.872 38.43 3.782 57.646 5.646 15.244 1.481 30.493 2.896 45.735 4.381 19.053 1.854 38.1 3.776 57.152 5.621 18.725 1.81 37.458 3.536 56.183 5.342 19.387 1.868 38.767 3.789 58.152 5.688 18.888 1.852 37.774 3.732 56.667 5.551 15.735 1.515 31.479 2.961 47.22 4.44z"/><path d="M594.021 248.52c8.792 1.016 17.584 2.063 26.38 3.036 5.15.571 10.315 1.021 16.417 1.618-2.546 25.093-5.062 49.879-7.653 75.439-16.088-1.716-31.868-3.401-48.186-5.144.84-8.819 1.667-17.284 2.452-25.753 1.523-16.396 3.021-32.797 4.53-49.195l6.06-.001zm-53.537 486.896c1.013-8.627 2.053-17.251 3.031-25.88.508-4.474.908-8.96 1.424-14.113 17.79 3.089 35.209 6.11 52.984 9.197-1.326 15.404-2.619 30.4-3.942 45.779-18.09-3.358-35.795-6.645-53.498-9.933l.001-5.05zm359.642-160.165c-12.154-1.716-23.599-3.313-35.039-4.953-27.093-3.88-54.184-7.777-81.275-11.676-27.091-3.898-54.179-7.822-81.27-11.708-26.925-3.862-53.856-7.694-80.787-11.534-19.117-2.725-38.245-5.376-57.329-8.317-1.106-.17-2.728-2.727-2.627-4.063.929-12.401 2.156-24.779 3.352-37.159 1.858-19.239 3.765-38.473 5.644-57.709 2.219-22.749 4.427-45.5 6.648-68.25.485-4.984 1.005-9.965 1.546-15.292 113.895 12.843 227.367 25.639 341.849 38.547-6.884 63.863-13.752 127.559-20.712 192.114zm292.378 42.011l-263.847-37.864c6.504-64.462 12.959-128.448 19.491-193.174l266.202 30.006-21.846 201.032zm-17.769 163.415l-205.867-34.212c4.194-31.857 8.328-63.248 12.567-95.466a5759683.85 5759683.85 0 0 0 203.984 31.197c-3.574 32.938-7.114 65.586-10.684 98.481zM954.675 646.89a1052624 1052624 0 0 1-9.037 95.722L752.18 710.469c2.915-31.243 5.779-61.979 8.695-93.234 64.606 9.886 128.881 19.72 193.8 29.655zm-227.721 59.388l-180.227-29.946 8.782-90.521c59.836 9.153 119.167 18.233 179.351 27.44l-7.906 93.027zM557.328 567.817c.678-7.409 1.287-14.066 1.961-21.413 210.338 30.6 420.292 61.144 630.89 91.78-.824 7.594-1.609 14.845-2.431 22.402-210.191-30.931-419.977-61.799-630.42-92.769zm143.515-294.804c-1.369 13.33-2.682 26.129-4.066 39.636l-52.009-6.046c1.71-13.026 3.364-25.599 5.12-38.964 16.841 1.778 33.573 3.541 50.955 5.374zm522.66 59.272c-.838 7.46-1.586 14.102-2.445 21.727-26.13-2.739-52.161-5.467-78.586-8.239l1.137-21.573 79.894 8.085zm-165.683 4.556l1.66-21.092c25.307 2.54 50.249 5.045 75.686 7.6-.544 7.099-1.067 13.864-1.646 21.44-25.295-2.656-50.218-5.274-75.7-7.948zm-7.684-22.07c-.405 7.147-.783 13.771-1.198 21.086l-74.968-7.88c.483-7.033.937-13.667 1.422-20.749 25.07 2.527 49.722 5.017 74.744 7.543zm-154.777-15.645c24.28 2.46 47.938 4.854 72.189 7.311-.579 6.955-1.136 13.671-1.718 20.677a778675.98 778675.98 0 0 0-72.418-7.658l1.947-20.33zm-78.627-7.916c23.392 2.359 46.373 4.679 69.771 7.041l-1.124 20.346-71.271-7.505c.885-6.717 1.726-13.075 2.624-19.882zm-9.865 19.115l-70.25-7.43 2.129-19.511 69.773 6.95c-.548 6.624-1.076 13.005-1.652 19.991zM699.815 722.448l-1.856 16.238-82.589-14.664 1.798-16.034 82.647 14.46zm439.067 113.768l1.862-20.231c9.662 1.578 19.115 3.119 29.422 4.801l-1.981 20.835c-10.073-1.857-19.545-3.604-29.303-5.405zm-37.053-6.74c.896-6.696 1.714-12.796 2.633-19.642 9.923 1.638 19.58 3.23 29.759 4.912-.713 6.724-1.396 13.134-2.148 20.204l-30.244-5.474zm-7.382-1.394c-10.07-1.819-19.543-3.526-29.736-5.366.36-6.414.709-12.678 1.091-19.471l30.856 5.185c-.729 6.487-1.442 12.826-2.211 19.652zm-35.334-25.961c-.631 6.552-1.208 12.516-1.852 19.17l-28.501-5.195 2.456-18.677 27.897 4.702zM658.93 751.278l1.371-11.334c13.777 2.232 27.091 4.388 40.754 6.599l-1.392 11.591c-13.656-2.3-27.068-4.556-40.733-6.856zm-3.619-12.185c-.51 3.958-.95 7.38-1.455 11.291-13.774-2.347-27.069-4.612-40.647-6.928.464-3.82.863-7.108 1.334-11.005 13.59 2.216 27.024 4.404 40.768 6.642zm94.796 27.716l-41.286-7.057.785-10.736c14.236 2.587 28.034 5.097 41.985 7.63-.526 3.59-.953 6.53-1.484 10.163z" fill="#D1D3D4"/></g><path fill-rule="evenodd" clip-rule="evenodd" fill="#4B5F71" d="M1057.786 1447.341c1.462-7.866 3.729-14.205 9.331-19.426 50.935-47.48 101.621-95.228 152.387-142.889 3.625-3.403 6.905-3.534 9.621-.226 2.876 3.503 2.347 6.532-1.064 9.729-51.713 48.484-103.267 97.138-155.148 145.442-3.926 3.657-10.034 4.969-15.127 7.37z"/><path fill-rule="evenodd" clip-rule="evenodd" fill="#E0F2F0" d="M1008.014 360.764h3.073c.142 2.035.19 4.082.434 6.107 2.562 21.129 5.175 42.251 7.731 63.38 2.554 21.131 5.045 42.271 7.594 63.401 2.585 21.469 5.149 42.939 7.834 64.396 1.22 9.75 2.71 19.465 4.079 29.196v6.148c-11.332 1.184-22.678 2.248-33.991 3.578-24.021 2.827-48.024 5.8-72.034 8.705-23.844 2.883-47.689 5.746-71.53 8.638-24.011 2.913-48.014 5.864-72.024 8.767-23.844 2.882-47.693 5.705-71.537 8.584-27.225 3.288-54.45 6.557-81.663 9.938-9.572 1.19-19.109 2.694-28.66 4.053h-3.074c-1.688-14.541-3.357-29.083-5.071-43.621-3.15-26.723-6.298-53.446-9.503-80.162-3.325-27.728-6.68-55.454-10.112-83.169-.809-6.531-1.981-13.021-2.983-19.527v-6.148c13.867-1.524 27.746-2.958 41.603-4.595 24.012-2.838 48.008-5.809 72.014-8.711 23.837-2.882 47.677-5.736 71.514-8.622 24.173-2.923 48.341-5.879 72.514-8.807 23.835-2.887 47.676-5.744 71.511-8.636 24.004-2.911 48.008-5.806 72.004-8.792 10.105-1.257 20.186-2.729 30.277-4.101z"/><g fill-rule="evenodd" clip-rule="evenodd"><path fill="#F8AA7A" d="M875.113 606.364c3.377-2.638 7.24-1.975 11.046-1.585 5.152.526 10.293 1.15 15.449 1.626 1.267.116 2.84.419 3.617-1.025.81-1.506 0-2.837-.766-4.194-1.332-2.365-5.857-4.687-2.582-7.298 2.349-1.872 4.585 2.361 6.348 4.289 10.14 11.091 23.076 18.125 35.958 25.263 2.776 1.54 5.626 2.948 8.441 4.417-3.364 4.915-8.065 8.845-10.578 14.385-4.667-3.064-8.341-7.197-11.899-11.392-5.371-6.334-12-9.27-20.324-8.613-8.484.669-16.554-.845-24.297-4.583-4.174-2.015-7.716-4.54-10.414-8.271l.001-3.019z"/><path fill="#4B5F71" d="M1089.334 1009.456c5.405 2.313 7.507 7.466 5.727 15.146-.898 3.881-2.42 7.619-3.709 11.407-.481 1.41-.923 3.087-3.001 2.563-2.41-.605-1.743-2.32-1.363-4 .208-.923.037-1.93.037-3.924-4.166 3.881-8.149 6.743-12.253 9.456-6.046 4.002-13.043 5.319-19.655 7.724h-16.089c-.194-1.254-1.519-1.07-2.205-1.723-2.704-2.562-2.348-4.988 1.315-5.678 14.15-2.664 23.743-11.209 31.063-23.035 1.353-2.185 2.971-4.484 5.933-4.94-.071 2.326-.169 4.652-.2 6.978-.012 1.015.088 1.882 1.543 2.005 5.709.481 12.963-6.218 12.857-11.979z"/><path fill="#F8AA7A" d="M979.888 579.608c-5.78-18.36-9.55-37.154-12.237-56.191-.407-2.881.775-5.185 1.987-7.556h7.04c2.437 3.259 3.656 7.005 4.528 10.931 3.504 15.797 8.286 31.192 14.612 46.097-5.311 2.24-10.621 4.478-15.93 6.719z"/><path fill="#549798" d="M979.888 579.608c5.309-2.241 10.619-4.479 15.93-6.719 3.985.889 4.345 4.689 6.035 7.451 13.797 22.562 31.548 40.584 57.169 49.485 1.246.434 2.603.55 3.908.814 1.694 6.886-.457 12.45-5.825 16.905-2.513.008-5.033.133-7.54-.002-3.5-.186-3.967 1.678-3.234 4.446 1.937 7.306 9.431 13.973 16.925 14.636 12.208 1.083 23.274-1.612 32.229-10.589 1.17-1.175 2.236-2.564 4.163-2.492 6.75 5.278 11.029 12.604 15.036 19.813 13.395 24.084 24.238 49.237 28.605 76.715 3.511 22.104-1.818 42.813-10.172 63.067-5.198 12.611-13.657 22.996-22.145 33.347-7.005 8.543-14.383 16.784-21.715 25.049-1.601 1.805-2.065 3.718-2.052 5.958.047 8.042.106 16.085.061 24.127-.01 1.577.739 3.378-.842 4.703-.062-9.546-.211-19.092-.123-28.638.024-2.585-.714-4.074-3.255-4.78-10.414-2.901-19.7-8.37-29.16-13.321-16.84-8.812-31.405-20.21-40.51-37.557-1.243-2.371-1.712-6.085-5.558-6.504 16.891-17.314 35.942-33.002 46.632-55.289 6.858-14.297 9.433-29.989 7.725-45.959-1.169-10.939-10.44-27.412-27.173-27.434-21.359-.029-40.52-7.748-58.663-18.303-9.847-5.727-19.023-12.486-28.168-19.26-2.521-1.866-5.249-3.69-6.125-7.044 2.512-5.534 7.213-9.464 10.578-14.378 3.441-1.51 5.782.878 8.15 2.533 13.642 9.537 28.706 15.521 45.031 18.54 3.642.673 7.273.886 10.95.837l.712.332c-.112-.238-.225-.477-.335-.714-10.103-10.987-17.759-23.678-25.282-36.448-5.087-8.638-9.375-17.657-12.392-27.253-.675-2.148-1.344-4.161.43-6.074z"/><path fill="#F8AA7A" d="M1089.334 1009.456c.106 5.761-7.148 12.46-12.858 11.979-1.455-.123-1.555-.99-1.543-2.005.031-2.326.129-4.652.2-6.978-.579-9.75-4.502-18.526-8.623-27.06-9.015-18.668-18.634-37.044-27.908-55.593-3.96-7.924-7.668-15.977-11.502-23.968-.706-1.471-.951-3.22-2.782-4.46-4.121 9.789-6.739 19.933-9.843 29.895-8.949 28.722-17.58 57.547-28.632 85.564-.303.77-.385 1.626-.567 2.445-3.146.888-5.697 3.384-9.184 3.384-3.085 0-6.958 1.407-8.938-1.086-1.7-2.14 2.324-4.233 2.578-6.84 3.3-4.81 4.378-10.469 5.684-15.941 6.559-27.503 11.377-55.264 12.624-83.6.579-13.186 2.883-26.23 4.777-39.29.164-1.127.763-2.193 1.16-3.286 2.769 2.774 5.849 5.383 9.913 5.24 5.278-.187 8.323 2.577 10.977 6.545 3.415 5.108 8.431 8.1 14.446 7.399 7.167-.834 11.966 1.58 16.33 7.153 5.267 6.725 12.128 11.032 21.352 9.16 1.88 20.142 7.25 39.599 11.637 59.248 3.151 14.135 6.561 28.207 10.702 42.095z"/><path fill="#2D7E7E" d="M1066.991 908.112c-9.223 1.872-16.085-2.435-21.352-9.16-4.364-5.573-9.163-7.987-16.33-7.153-6.015.701-11.031-2.291-14.446-7.399-2.654-3.968-5.699-6.731-10.977-6.545-4.063.143-7.144-2.465-9.913-5.24-3.47-6.24-7.637-11.709-14.794-14.144-1.373-.466-2.621-1.473-3.758-2.43-7.558-6.367-7.74-9.583-1.385-16.908 9.295-10.712 21.22-17.603 33.783-23.61 3.846.419 4.314 4.133 5.558 6.504 9.105 17.347 23.67 28.745 40.51 37.557 9.46 4.951 18.746 10.42 29.16 13.321 2.541.706 3.28 2.195 3.255 4.78-.088 9.546.061 19.092.123 28.638-2.011 1.363-4.279.979-6.288.406-4.635-1.32-8.906-.414-13.146 1.383z"/><path fill="#4B5F71" d="M969.73 1014.732c-.253 2.607-4.278 4.7-2.578 6.84 1.98 2.494 5.853 1.086 8.938 1.086 3.487 0 6.038-2.496 9.184-3.384 2.498 3.611 1.144 7.169-.591 10.401-2.545 4.75-6.792 8.215-10.217 12.306-.87 1.038-2.12 1.211-3.154.452-1.074-.786-.846-2.07-.555-3.239.379-1.533 1.965-3.32.194-4.554-1.645-1.147-3.56.059-5.133.943-8.018 4.499-16.506 6.25-25.584 4.423-7.202-1.449-12.216-5.946-15.809-12.087-1.151-1.968-2.189-4.427.117-6.404 2.208-1.89 3.644.424 5.242 1.342 6.51 3.74 13.143 4.712 19.951.916 3.35-1.868 6.842-3.625 9.796-6.014 3.116-2.517 6.379-3.427 10.199-3.027zm109.485-439.568c7.433-5.485 14.884-5.596 23.521-2.02 19.066 7.892 29.048 21.892 30.386 42.123.749 11.278-3.682 28.152-15.526 33.056-5.602 2.318-11.394 2.247-17.249 1.946-2.629-1.848-5.642-2.791-8.675-3.693-12.638-9.004-17.574-25.891-11.471-39.232 3.486.021 6.649-.853 8.836-3.75 1.477-1.954 2.267-4.104.389-6.367-1.747-2.108-3.718-2.681-6.086-1.04-1.377-3.036-2.656-6.123-4.16-9.096-2.037-4.024-2.32-7.957.035-11.927z"/><path fill="#F8AA7A" d="M1080.201 607.344c-6.103 13.341-1.167 30.228 11.471 39.232-9.634 10.254-24.5 10.669-34.567.967 5.368-4.455 7.519-10.019 5.825-16.905-.215-8.484-3.452-15.829-8.149-22.763-6.226-9.19-6.048-12.906.307-20.625 1.053.34 2.85 1.481 3.081.636 1.08-3.94 6.084-4.425 6.952-8.36 4.489-2.127 9.1-3.862 14.094-4.364-2.355 3.97-2.072 7.903-.035 11.928 1.504 2.973 2.783 6.06 4.16 9.096-.426 2.245.955 5.272-2.728 6.101-1.457.328-3.815-.9-4.104 1.569-.274 2.332 2.247 2.524 3.693 3.488z"/><path fill="#2D7E7E" d="M1057.105 647.544c10.067 9.702 24.933 9.287 34.567-.967 3.033.902 6.046 1.846 8.675 3.693-.186 1.101-1.248 2.017-.698 3.275-1.927-.074-2.993 1.315-4.163 2.49-8.956 8.977-20.021 11.672-32.229 10.589-7.494-.663-14.988-7.331-16.925-14.636-.733-2.768-.266-4.632 3.234-4.446 2.506.135 5.026.01 7.539.002z"/><path fill="#EC8170" d="M1065.121 579.528c-.868 3.935-5.872 4.419-6.952 8.36-.231.845-2.028-.296-3.081-.636-.745-.884-1.502-1.759-2.23-2.657-.958-1.179-2.064-2.449-.945-3.99 1.165-1.6 2.29-.035 3.48.25 3.375.801 6.362-1.719 9.728-1.327zm15.08 27.816c-1.446-.964-3.967-1.156-3.693-3.486.289-2.47 2.647-1.242 4.104-1.569 3.683-.828 2.302-3.856 2.728-6.101 2.369-1.641 4.339-1.068 6.086 1.04 1.878 2.262 1.088 4.413-.389 6.367-2.186 2.896-5.349 3.77-8.836 3.749z"/></g><g fill-rule="evenodd" clip-rule="evenodd"><path fill="#549798" d="M500.68 643.081c-.718 5.693 1.453 10.959 2.462 16.387 5.752 30.952 20.289 57.95 37.944 83.484 2.145 3.103 3.458 5.722.824 8.998-3.332-.177-6.046 1.502-8.832 2.954-16.484 8.586-33.567 15.601-51.725 19.816-7.32 1.699-7.742 1.512-10.426-5.338-.239-.615-.343-1.283-.591-1.894-1.856-4.582-3.732-9.153-5.602-13.73-1.399 11.875-.14 23.308 2.296 34.594 1.881 8.714 2.063 8.489-7.044 9.866-2.274.343-6.148-.631-6.223 3.819-1.687-2.843-4.158-1.201-6.233-.91-2.991.417-4.317-.374-5.194-3.523-8.261-29.676-11.5-59.781-10.01-90.616 1.101-22.747 2.524-45.396 6.433-67.842 2.441-14.024 8.192-26.901 13.971-39.759-1.055 8.647 4.579 14.219 9.507 19.924 10.287 11.912 24.224 18.111 38.443 23.77z"/><path fill="#2E7F7F" d="M453.764 802.037c.075-4.451 3.949-3.476 6.223-3.819 9.107-1.377 8.925-1.151 7.044-9.866-2.437-11.286-3.696-22.719-2.296-34.594 1.87 4.577 3.746 9.148 5.602 13.73.248.61.352 1.279.591 1.894 2.685 6.85 3.106 7.037 10.426 5.338 18.158-4.215 35.241-11.23 51.725-19.816 2.785-1.452 5.5-3.131 8.832-2.954 12.352 16.946 20.219 35.988 26.712 55.781 4.621 14.087 4.493 28.273 3.488 42.802-1.882 27.213-7.943 53.797-11.309 80.774-.223 1.793-.359 3.282-2.393 3.753-4.44 1.181-8.628.033-12.791-1.377-2.039-1.715-2.668-3.904-2.797-6.552-1.041-21.735-2.068-43.472-3.376-65.192-1.072-17.802-6.229-34.59-14.229-50.418-4.003-7.923-10.379-14.18-17.004-20.042-1.294-1.145-2.782-2.939-4.744-1.927-1.772.913-1.779 3.045-1.866 4.885-.575 11.939-.666 23.91-2.745 35.738-.667 3.793-1.536 7.566-3.182 10.967-8.917 18.408-14.329 38.215-22.865 56.762-3.672 7.986-7.518 15.891-11.144 23.896-.719 1.587-1.625 2.392-3.257 2.489-5.147-.19-9.631-2.01-13.359-5.623-1.443-5.969 1.263-11.384 2.543-16.904 3.508-15.163 7.949-30.089 11.453-45.273 4.36-18.895 4.564-37.08-5.282-54.452zm46.916-158.956c-14.218-5.659-28.155-11.858-38.442-23.77-4.928-5.705-10.562-11.277-9.507-19.924 1.054-4.727 3.416-8.684 7.025-11.902 5.19-.38 10.018-2.734 15.616-1.229 7.365 1.979 13.888 5.269 20.158 9.395 1.153.761 3.731 3.301 3.87-.163.195-4.881 2.434-9.328 2.223-14.183l2.187-5.938c.488-.094 1.035-.122.912-.862l-.037.062c8.097-2.301 14.331-8.036 21.652-11.776 2.028-1.038 3.846-1.978 5.786-.012 4.282 5.453 8.805 10.68 14.136 15.152 4.212 5.547 4.284 5.637-1.409 10.339-8.69 7.179-17.33 14.434-27.265 20.625 5.393 2.896 10.399 5.472 15.957 6.604 2.888.589 3.883 1.913 2.902 4.686-3.826 8.277-6.112 17.053-8.388 25.832-.901 3.734-2.818 4.845-6.792 3.726-6.957-1.96-13.826-4.124-20.584-6.662z"/><path fill="#F9AA7B" d="M528.057 646.016c2.276-8.779 4.563-17.555 8.388-25.832 32.38 10.358 65.595 14.875 99.553 14.295 7.719-.132 15.151-1.707 22.461-3.992 4.703-1.472 9.495-1.437 14.319-1.119 1.144.077 2.504.156 2.478 1.776-.028 1.539-1.38 1.646-2.499 1.899-1.711.385-3.64-.392-5.557 1.194 1.699 2.265 3.786 2.032 6.081 1.527 5.271-1.158 9.794-4.051 14.682-6.095 1.439-.601 3.139-2.036 4.529-.316 1.211 1.5-.501 2.726-1.164 3.95-3.323 6.162-8.627 10.901-15.458 9.915-21.392-3.084-41.418 3.013-61.854 7.229-16.704 3.446-33.758 2.179-50.673 1.432-11.963-.526-23.655-3.128-35.286-5.863zm-24.247-70.649l-2.187 5.938c-11.951 1.996-22.903-.672-33.059-7.063 3.049-4.704 6.561-9.047 10.228-13.283 3.017-3.486 5.22-7.288 3.335-12.162 2.893-1.775 5.179-4.095 6.555-7.237 2.116-.083 4.248-.023 6.337-.304 1.07-.145 2.27-.723 2.485-2.055.211-1.306-.633-2.516-1.639-2.742-4.668-1.042-4.227-4.666-4.366-8.048 1.668-5.214 4.366-9.772 8.316-13.619 2.228-2.168 3.961-4.752 5.304-7.579 2.719 1.566 4.815 3.787 6.655 6.283-.449 2.573 3.096 11.077 5.07 11.934.552.24 1.291.039 1.947.039 4.599 8.716 1.017 15.756-4.349 22.647-6.022 7.734-9.241 16.625-9.756 26.45l.037-.062-.913.863zm42.449 2.564c-5.331-4.473-9.854-9.699-14.136-15.152 18.613-16.155 33.389-35.54 46.876-55.973 5.123-7.76 9.815-15.807 14.771-23.679 1.051-1.675 2.257-3.306 3.646-4.703 1.346-1.354 2.885-3.236 5.108-1.953 2.196 1.269 3.185 3.6 2.567 6.01-.776 3.033-1.96 5.989-3.214 8.871-12.516 28.742-31.372 53.501-49.54 78.688-1.94 2.691-4.047 5.264-6.078 7.891z"/><path fill="#4C5F72" d="M505.118 507.214c-1.343 2.827-3.076 5.411-5.304 7.579-3.95 3.847-6.647 8.404-8.316 13.617-4.06-.351-6.788 1.171-7.259 5.471-.393 3.57 1.725 5.831 4.442 7.679-1.376 3.142-3.663 5.462-6.555 7.237-13.73 3.918-21.901-9.905-22.259-20.751-.458-13.973 7.357-25.087 21.407-30.027 4.406-1.55 8.579-2.868 11.427-7.201 1.895-2.883 5.112-2.806 7.635.023 4.183 4.693 6.643 9.907 4.782 16.373z"/><path fill="#549798" d="M453.452 933.453c1.644.796 2.58 2.057 2.521 3.935-.375 11.804 7.563 18.198 16.005 24.04 4.072 2.819 8.876 4.528 12.815 7.635 1.314 1.038 2.9 2.296 2.488 4.032-.474 1.984-2.505 2.372-4.394 2.613-14.428 1.854-31.14-6.573-38.193-19.346-.964-1.745-1.269-3.208-3.666-.913-1.726 1.649-6.642-2.271-6.821-6.045-.339-7.238.861-14.198 6.634-19.472.394 4.699 4.045 6.143 7.67 7.355 3.255 1.085 3.438-2.35 4.941-3.834zm104.865 8.131c1.568.697 2.955 1.71 3.618 3.283 5.529 13.127 16.461 18.43 29.593 20.67 3.172.54 7.708.42 7.639 4.7-.076 4.639-4.766 5.091-8.33 5.347-9.514.692-18.935.206-27.815-3.916-2.583-1.199-4.952-2.656-7.133-4.499-1.607-1.36-2.543-6.508-5.75-1.004-.952 1.635-7.933-1.454-8.103-3.979-.491-7.35-1.381-14.913 3.601-21.398.459 5.297 4.024 5.822 8.407 6.088 4.523.273 3.007-3.44 4.273-5.292zm-89.754-367.342c10.156 6.392 21.108 9.06 33.059 7.063.211 4.854-2.028 9.302-2.223 14.183-.139 3.463-2.717.924-3.87.163-6.27-4.126-12.793-7.416-20.158-9.395-5.598-1.505-10.426.849-15.616 1.229 1.88-5.116 5.662-8.97 8.808-13.243z"/><path fill="#F9AA7B" d="M453.452 933.453c-1.503 1.484-1.686 4.919-4.939 3.833-3.625-1.212-7.276-2.656-7.67-7.355l4.208-11.268c3.728 3.613 8.211 5.433 13.359 5.624-2.973 2.351-3.69 5.907-4.958 9.166zm104.865 8.131c-1.267 1.852.25 5.565-4.273 5.292-4.383-.266-7.948-.791-8.407-6.088l-.02-7.106c4.162 1.41 8.351 2.559 12.791 1.377-.029 2.174-.059 4.351-.091 6.525z"/><path fill="#F08270" d="M518.79 525.469c-.656 0-1.395.202-1.947-.039-1.974-.857-5.52-9.361-5.07-11.934 4.355.711 7.035 5.238 12.018 4.974 1.628-.088.898 2.018-.17 2.961-1.576 1.387-3.94 1.829-4.831 4.038zm-30.109 16.091c-2.717-1.848-4.834-4.109-4.442-7.679.471-4.3 3.199-5.822 7.259-5.471.14 3.384-.302 7.007 4.366 8.05 1.005.226 1.85 1.436 1.639 2.742-.215 1.332-1.415 1.911-2.485 2.055-2.089.28-4.221.22-6.337.303z"/></g><path fill-rule="evenodd" clip-rule="evenodd" fill="#E0F2F0" d="M597.735 559.642h-4.19c-.003-1.422.13-2.86-.032-4.262-2.438-20.948-4.821-41.905-7.409-62.833-1.537-12.423-3.406-24.802-5.125-37.2v-4.287c92.457-1.011 184.92-2 277.377-3.081 9.941-.113 19.875-.788 29.812-1.203h65.628c1.113 1.416 2.062 3.02 3.369 4.218 11.079 10.155 22.229 20.227 33.343 30.345 8.948 8.15 17.875 16.327 27.582 25.198-4.693.674-8.122 1.224-11.565 1.651-20.965 2.601-41.933 5.159-62.898 7.764-32.709 4.061-65.416 8.173-98.127 12.216-32.485 4.017-64.978 7.956-97.463 11.97-37.09 4.581-74.182 9.139-111.257 13.853-13.043 1.657-26.031 3.753-39.045 5.651z"/><path fill-rule="evenodd" clip-rule="evenodd" fill="#E0F2F0" d="M930.661 604.533l.205 1.312c1.359-.212 2.728-.469 4.076-.627 20.146-2.368 40.298-4.754 60.433-7.071 11.953-1.375 23.879-2.64 35.816-3.955l4.098-.641c-3.558-29.095-7.137-58.189-10.627-87.293-.377-3.129-.219-6.34-.308-9.513l-3.211-20.545c-1.408-.138-2.988-.194-4.197-.425-10.251-1.95-20.426-3.936-30.643-5.903-8.229-1.583-16.484-3.156-25.439-4.869-.415 1.57-.772 2.725-1.013 3.867-1.46 6.952-2.88 13.898-4.344 20.851-2.282 10.847-4.613 21.7-6.877 32.545-2.251 10.77-4.426 21.53-6.675 32.3-2.564 12.295-5.106 24.587-7.799 36.899-.949 4.33-2.317 8.71-3.495 13.068z"/><g fill-rule="evenodd" clip-rule="evenodd"><path fill="#549798" d="M979.918 572.491c-2.544 1.271-5.001 3.918-7.7.002-.399-.577-2.277-.292-3.44-.158a47389.41 47389.41 0 0 0-79.792 9.303c-15.5 1.82-30.993 3.688-46.491 5.532-2.742.327-4.236-.577-4.581-3.634-1.603-14.248-3.4-28.475-5.099-42.71-2.01-16.862-3.908-33.735-6.043-50.58-.508-3.996.655-8.596-3.804-11.661-.508-.347 1.861-4.876 3.21-8.253 3.655 3.308 9.858 3.854 4.831 9.934-.531.645-.275 2.069-.154 3.104 2.154 18.501 4.337 37 6.542 55.495.102.857.43 1.686.967 3.73l8.815-20.074c3.184 2.625 5.831 4.802 9.214 7.591 3.364-13.118 6.624-25.824 9.884-38.53.529-.28 1.061-.562 1.592-.841l19.945 30.251c2.459-4.047 5.069-7.613 6.893-11.541 2.134-4.601 4.884-5.432 9.103-2.959 1.009.593 2.293.718 3.898 1.189 2.689-7.598 5.301-14.973 8.275-23.378l14.613 15.307 6.151-15.927c4.829 1.002 6.46 8.405 12.283 4.828 3.794-2.329 7.546-4.722 11.318-7.086l1.413 2.093c-5.08 3.343-9.906 7.264-15.398 9.669-1.607.705-5.101-2.896-7.732-4.524-7.121 11.978-6.513 14.981 5.165 24.424 4.479-5.408 8.997-10.802 13.45-16.251 4.527-5.542 10.008-4.984 14.773 2.739-2.511-.355-4.303-.199-5.667-.889-2.722-1.377-4.472-.904-6.333 1.508-4.325 5.614-9.041 10.93-13.311 16.582-2.265 2.996-3.935 2.878-6.223.194-2.844-3.343-5.899-6.503-9.475-10.407l-11.723 28.224c-4.083-2.306-7.726-4.037-10.989-6.314-2.663-1.859-4.16-1.246-6.259.896-7.099 7.24-7.191 7.151-13.474-1.547-6.622 10.639-13.37 20.968-19.537 31.631-2.683 4.637-5.023 6.505-10.266 3.551-5.714-3.221-10.071 1.297-14.475 3.932-3.906 2.338-3.362 6.204-2.407 9.991.386 1.521.531 3.102.878 5.234 7.776-.854 15.462-1.655 23.137-2.553 23.057-2.705 46.109-5.429 69.16-8.182 11.264-1.344 22.532-2.646 33.756-4.269 1.919-.277 3.625-2.061 6.273-3.659l4.836 3.664c-.002 1.777-.002 3.553-.002 5.329zm-139.201-8.214c1.481-1.047 2.446-1.737 3.417-2.418 5.123-3.59 10.126-7.375 16.771-2.803.657.456 3.488-.975 4.288-2.201 5.704-8.732 10.683-17.979 16.838-26.367 3.725-5.076 3.525-8.64-.08-13.368-4.731-6.206-8.839-12.884-13.878-20.344-1.698 6.416-2.681 11.626-4.474 16.539-2.501 6.845-1.119 15.226-8.024 20.51l-7.01-6.218c-9.39 16.306-10.472 21.233-7.848 36.67zm77.163-33.411c1.941-4.774 3.581-9.017 5.381-13.192 5.932-13.769 5.958-13.76-4.577-24.317-.221-.224-.618-.269-1.349-.568-1.698 5.32-3.525 10.567-5.025 15.903-1.033 3.672-2.585 5.023-6.405 3.143-1.766-.87-5.216-1.651-5.898-.822-3.312 4.019-6.561 8.346-8.511 13.107-.772 1.882 1.879 5.168 3.134 8.206 2.516-2.406 4.659-4.048 6.279-6.103 2.481-3.143 4.754-3.537 7.978-.937 2.582 2.081 5.657 3.549 8.993 5.58z"/><path fill="#D1D3D4" d="M921.281 391.252l1.224 9.669-262.186 31.694c-.521-2.939-1.004-5.679-1.651-9.32 8.869-1.113 17.378-2.201 25.894-3.243 22.162-2.705 44.322-5.394 66.486-8.08 21.812-2.642 43.628-5.269 65.439-7.904 22.338-2.701 44.678-5.412 67.019-8.104 10.203-1.23 20.411-2.405 30.612-3.666 1.345-.167 2.644-.69 3.967-1.047l3.196.001z"/><path fill="#549798" d="M734.847 534.779l10.925 18.606 7.588-7.694c3.18-16.07 2.373-33.229 5.722-51.471 13.118 15.174 14.884 32.872 19.753 49.708 1.807-9.269 6.335-15.014 16.778-14.288-1.093 1.011-2.022 2.405-3.311 2.968-5.223 2.281-7.574 6.359-8.791 11.741-.972 4.301-2.874 8.392-5.304 12.482-7.378-16.089-6.216-34.514-16.454-50.651-1.289 16.335-2.477 31.404-3.708 47.055-1.965-.212-3.592-.388-5.568-.599l-6.314 9.581c-4.255-7.059-7.921-13.138-11.008-18.257-4.613 3.151-8.99 6.438-13.66 9.236-3.379 2.026-5.737.846-7.281-3.045-1.81-4.558-4.321-8.833-7.853-13.251l-5.705 49.107c-.878.119-1.754.238-2.633.359l-11.127-25.121c-.516.284-.916.362-1.008.575-3.633 8.24-3.607 8.221-9.481 1.44-2.529-2.92-5.18-5.735-7.707-8.525-10.045 15.312-8.901 31.59-4.998 48.495 13.003-1.488 25.968-2.933 38.921-4.465 16.525-1.957 33.041-4.02 49.568-5.97 12.659-1.494 25.348-2.756 37.976-4.466 1.828-.248 3.394-2.414 5.665-4.134 1.755 1.325 3.931 2.969 6.403 4.839l-5.512 6.88c-.128-.507-.258-1.015-.384-1.522-3.138-.319-6.34-1.208-9.405-.868-25.204 2.813-50.386 5.847-75.571 8.826-13.914 1.646-27.822 3.353-41.742 4.947-3.293.376-6.625.408-10.366.623-1.9-16.029-3.752-31.459-5.555-46.897-2.195-18.821-4.269-37.657-6.648-56.455-.221-1.749-2.256-3.267-4.214-5.935 1.324-1.605 2.843-4.138 5.054-5.695.623-.438 3.349 1.884 4.937 3.16.588.471 1.171 2.037.911 2.314-4.509 4.806-1.451 10.235-.994 15.196 1.483 16.018 3.573 31.982 5.464 47.963.1.855.534 1.672 1.076 3.299l7.577-18.612 14.07 15.523c.924-1.98 1.57-3.831 2.601-5.438.887-1.379 2.21-2.479 3.34-3.703.931 1.18 2.13 2.237 2.74 3.562 2.071 4.496 3.904 9.105 5.901 13.637.46 1.04 1.224 1.947 2.254 3.548l6.327-47.623 2.512-.284c3.006 5.855 5.926 11.76 9.067 17.542 1.173 2.158 3.468 5.933 4.218 5.696 2.961-.933 5.822-2.837 8.128-5.011 2.359-2.222 4.027-5.182 6.826-8.928z"/><path fill="#D1D3D4" d="M663.516 453.937l-1.664-9.424c87.527-10.583 174.67-21.12 262.398-31.726l1.614 9.44c-87.641 10.592-174.793 21.127-262.348 31.71z"/></g><g fill-rule="evenodd" clip-rule="evenodd"><path fill="#2E7F7F" d="M1229.916 212.736c-2.167.571-1.289 2.442-1.49 3.747-2.088 13.585-5.526 26.797-10.131 39.76-1.531 4.311-3.451 6.14-7.913 4.413-1.267-.492-2.61-.547-3.931-.092-1.871-1.55-4.182-2.016-6.433-2.616-26.336-7.021-48.861-20.915-69.245-38.582-2.279-1.976-3.855-2.696-6.953-1.428-11.17 4.58-22.808 7.041-35.009 6.904-13.675-.153-27.087-3.392-40.779-3.175-.701.01-1.414-.735-2.12-1.129-.174-1.294-.554-2.6-.48-3.88.196-3.401-.939-4.621-4.343-3.26-4.699 1.88-9.707 3.04-13.878 6.112-11.063 2.271-22.113 4.627-33.206 6.754-3.011.58-6.232 1.529-9.148-.596-1.966-3.077-2.054-6.535-2.021-10.016.737-1.683 2.054-2.404 3.851-2.755 25.795-5.061 48.98-16.344 70.583-30.817 25.016-16.755 47.927-36.131 68.465-58.22.629.531 1.267 1.05 1.889 1.587 1.923 1.659 1.734 5.793 5.896 4.855 2.786-.626 5.597-1.302 7.727-3.204 2.083-1.86 3.925-4.043 5.609-6.283 4.979-6.619 6.833-14.673 9.928-22.154 18.548 1.488 32.462 11.303 44.202 24.833 12.454 14.353 19.322 31.441 23.848 49.648 1.938 7.796 3.379 15.656 3.856 23.683.064 1.054-.44 2.453 1.226 2.861v13.05zm-168.882-4.64c10.151 0 20.304.207 30.448-.047 17.758-.443 30.108-10.449 40.587-23.565.868-1.086 1.434-2.274 1.438-3.659.018-7.6.008-15.203.008-22.806l-1.054-.692c-19.321 23.412-44.438 38.41-71.427 50.769z"/><path fill="#559899" d="M1045.913 220.538c.706.394 1.419 1.139 2.12 1.129 13.691-.217 27.104 3.022 40.779 3.175 12.201.137 23.839-2.324 35.009-6.904 3.098-1.268 4.674-.548 6.953 1.428 20.384 17.667 42.909 31.561 69.245 38.582 2.25.6 4.562 1.065 6.433 2.616-4.979 5.428-11.617 8.35-17.982 11.545-31.448 15.785-55.332 39.8-75.119 68.365-17.516 25.289-29.952 53.132-41.08 81.628-2.793 7.151-5.399 14.374-8.039 21.584-.717 1.955-1.576 3.694-3.739 4.366-3.531-.613-6.827-1.834-9.853-3.764-1.956-2.364-.565-4.822-.049-7.155 4.677-21.18 9.595-42.307 14.121-63.517 2.888-13.539 5.189-27.202 7.828-40.796 4.177-21.543 15.106-39.391 30.247-54.904 3.032-3.107 6.36-5.959 9.132-9.279 3.02-3.619 1.764-7.092-2.681-7.612-14.813-1.736-29.565-2.816-44.051 2.55-7.939 2.94-13.283 7.798-15.853 16.003-3.625 11.572-3.694 23.367-2.787 35.225 1.491 19.471 3.865 38.848 6.647 58.175.365 2.541.843 5.048-2.112 6.474-3.598 1.421-7.394 1.192-11.147 1.336-1.583-.65-2.165-2.08-2.522-3.539-8.856-36.001-19.001-71.778-19.487-109.269-.102-7.868.008-15.72 2.752-23.252 5.779-10.808 14.382-18.672 25.235-24.19z"/><path fill="#4C5F71" d="M1082.575 89.74c-5.191-1.205-7.306-4.638-7.51-9.794-.364-9.191.621-17.778 8.954-23.632 1.776-1.248 1.609-2.347.292-4.081-5.04-6.632-3.385-12.938 4.264-16.556 5.863-2.773 12.081-4.009 18.517-2.831 6.763 1.236 9.588 5.132 8.679 11.958-.412 3.108 1.544 3.186 3.51 3.633 7.194 1.638 13.956 4.205 20.561 7.653 13.169 6.874 24.525 26.824 15.303 42.015-2.522 3.757-5.957 6.365-10.363 7.268-9.937 2.034-19.181.594-27.166-6.167 1.34-9.363-1.821-12.883-9.128-10.162-4.024-2.871-8.421-2.346-12.799-1.25-4.316 1.082-8.639 1.993-13.114 1.946z"/><path fill="#F5A97A" d="M1082.575 89.74c4.475.046 8.797-.864 13.114-1.944 4.378-1.096 8.774-1.622 12.799 1.248-.175 2.018.086 3.831 1.471 5.527.994 1.217 1.989 2.725 1.029 4.517-.648 1.207-2.465 2.485-.707 3.771 1.834 1.34 3.331-.204 4.687-1.464.837-.778 1.762-1.463 2.648-2.189 7.985 6.761 17.229 8.201 27.166 6.167 4.407-.903 7.841-3.511 10.363-7.268.547.184 1.095.368 1.642.556-3.098 7.481-4.952 15.536-9.93 22.154-1.685 2.24-3.527 4.422-5.609 6.283-2.13 1.902-4.941 2.577-7.727 3.204-4.162.938-3.972-3.197-5.896-4.855-.623-.537-1.26-1.056-1.889-1.587-2.853-5.14-7.598-4.584-12.26-3.941-4.995.69-9.973 1.084-14.701-1.019-2.899-1.291-5.475-3.153-6.446-6.479.698-3.018-3.647-11.758-6.994-14.073-1.981-2.529-1.818-5.745-2.76-8.608z"/><path fill="#4C5F71" d="M1058.849 454.477c3.108 6.925-5.195 18.441-11.041 20.811-1.589.644-2.874-.437-3.96-1.505-1.215-1.197-1.622-2.479-.245-3.903.584-.603 1.027-1.341.186-2.887-8.001 3.195-16.067.979-24.019-1.369-6.555-1.934-12.998-4.339-17.917-9.473-1.389-1.45-3.147-3.083-2.095-5.185 1.354-2.705 3.565-.653 5.264-.191 13.637 3.709 27.189 5.233 40.616-.862.539-.245 1.291-.019 1.942-.012-.78 1.896-.768 3.845 1.49 4.343 3.191.705 6.452 4.176 9.779.233zm-7.419-68.135c3.479.588 4.586 3.01 4.472 6.126-.178 4.732-1.299 9.247-3.831 13.307-.973 1.555-2.014 3.009-4.33 2.751-2.905-.324-1.344-2.904-2.203-4.15-1.764-.288-2.438 1.108-3.355 1.958-9.863 9.139-21.665 11.204-34.485 9.456-1.624-.223-3.191-.945-4.752-1.527-1.503-.56-2.759-1.604-2.63-3.282.12-1.566 1.692-1.891 2.981-2.269 13.555-3.958 26.738-8.579 36.097-20.091.161-.198.623-.156.943-.225.277 2.395 1.767 3.079 3.9 2.613 2.966-.644 6.681-.213 7.193-4.667z"/><path fill="#F5A97A" d="M982.836 215.652c-.032 3.481.055 6.939 2.021 10.016-10.659 2.379-20.349 7.02-29.76 12.429-3.318 1.907-7.964 3.721-10.529.359-2.469-3.234-.553-7.745 1.875-11.129 4.294-5.987 10.766-8.199 17.604-9.334 6.221-1.033 12.522-1.58 18.789-2.341zm63.077 4.886c-10.854 5.518-19.457 13.382-25.236 24.19-3.82-2.102-3.826-5.359-2.903-9.043 1.588-6.321 6.268-10.8 9.438-16.175 4.171-3.074 9.179-4.233 13.878-6.113 3.403-1.36 4.539-.141 4.343 3.26-.074 1.281.306 2.587.48 3.881zm5.517 165.804c-.512 4.454-4.227 4.023-7.192 4.668-2.134.466-3.623-.218-3.9-2.613-.133-2.537-.268-5.073-.402-7.608 3.751-.144 7.548.085 11.146-1.336.115 2.297.232 4.595.348 6.889zm7.419 68.135c-3.327 3.943-6.588.472-9.777-.233-2.258-.498-2.271-2.446-1.49-4.343 1.021-1.869 2.038-3.739 3.056-5.609 3.028 1.927 6.324 3.148 9.855 3.761-.548 2.142-1.095 4.284-1.644 6.424z"/><path fill="#EE8270" d="M1085.334 98.348c3.347 2.314 7.692 11.055 6.994 14.073-2.723-1.043-6.071 1.174-8.117-.415-2.779-2.156 2.256-4.011 1.346-6.859-.664-2.079-.19-4.521-.223-6.799zm32.282.859c-.886.726-1.811 1.411-2.648 2.189-1.355 1.26-2.853 2.804-4.687 1.464-1.758-1.287.059-2.565.707-3.771.959-1.792-.035-3.3-1.029-4.517-1.385-1.697-1.646-3.51-1.471-5.527 7.307-2.721 10.468.799 9.128 10.162z"/></g><path fill-rule="evenodd" clip-rule="evenodd" fill="#4D4C4D" d="M43.892 1013.066c2.376-1.019 4.519-1.46 6.06-2.669 37.572-29.49 75.057-59.086 112.613-88.597 9.302-7.311 20.086-8.292 31.079-5.662 22.308 5.334 44.499 11.154 66.723 16.83 1.768.451 3.423 1.337 5.275 2.078l3.644-2.699c1.846 7.419.181 12.544-5.613 17.555-36.029 31.148-71.579 62.855-107.606 94.008-11.021 9.53-23.452 13.008-38.173 6.93-21.36-8.818-43.217-16.431-64.869-24.545-9.552-3.58-9.833-3.996-9.133-13.229z"/><path fill-rule="evenodd" clip-rule="evenodd" fill="#E0F2F0" d="M131.707 1050.609c-5.232-1.559-10.564-2.844-15.676-4.721-21.4-7.852-42.742-15.858-64.085-23.852-9.951-3.727-10.929-9.667-2.486-16.355 37.573-29.772 75.184-59.498 112.871-89.125 8.879-6.98 19.248-8.687 30.026-6.074 22.452 5.442 44.807 11.279 67.185 17.012 1.917.492 3.907 1.151 5.542 2.222 6.325 4.146 6.353 8.611.597 13.646-25.763 22.529-51.463 45.133-77.188 67.709-11.855 10.406-23.676 20.852-35.584 31.196-5.548 4.817-12.54 7.153-21.202 8.342z"/><path fill-rule="evenodd" clip-rule="evenodd" fill="#5F6060" d="M186.344 914.811c3.292.521 6.65.786 9.866 1.61a4529.84 4529.84 0 0 1 49.042 12.879c1.878.504 3.753 1.468 5.309 2.644 4.583 3.458 4.733 8.057.429 11.8-30.87 26.83-61.584 53.842-92.773 80.297-8.531 7.234-19.066 9.415-30.214 5.455a9800.269 9800.269 0 0 0-52.015-18.287c-3.4-1.185-7.616-2.315-7.303-6.402.252-3.26 2.118-7.291 4.614-9.343 17.204-14.144 34.762-27.857 52.206-41.712 12.456-9.893 24.939-19.755 37.353-29.701 7.769-6.226 13.805-8.584 23.486-9.24z"/><ellipse fill="#C9C7C7" cx="94.731" cy="1026.287" rx="7.7" ry="5.162"/><g fill-rule="evenodd" clip-rule="evenodd"><path fill="#2E7F7E" d="M183.759 792.635c14.499 4.546 26.307 12.99 35.505 24.994 2.017 2.635 3.42 2.598 6.004.923 2.578-1.673 4.585-4.482 8.05-4.64 2.236 2.719 4.251 5.644 7.204 7.689 1.477 3.817-2.029 5.341-3.772 7.395-2.324 2.74-2.025 4.116.839 6.142 13.776 9.741 18.66 9.029 28.07-4.886 2.9-4.29 5.277-8.931 7.935-13.384.895-1.5 1.325-3.652 3.869-3.156 2.806 1.335 5.617 2.668 8.429 4.001-.522 3.381.56 6.604.965 9.894-5.89 9.501-11.374 19.258-17.958 28.614 6.49-2.609 12.953-4.895 19.835-5.892 12.345-1.794 25.627 7.218 28.539 19.233 3.121 12.886.124 25.301-2.538 37.701-5.167 24.06-10.65 48.054-16.041 72.067-.253 1.125-.873 2.167-1.321 3.246-4.21.123-8.4.031-12.5-1.09-1.502-1.675-2.098-3.491-1.979-5.869 1.082-21.92 3.445-43.734 5.382-65.583.278-3.137.596-6.242-2.279-8.179-2.976-2.003-5.813-.289-8.39 1.322-7.008 4.376-12.699 10.373-19.031 15.579-1.964 1.613-1.239 3.215-.686 4.912 2.828 8.665 3.63 17.687 4.619 26.655 2.753 24.998 1.913 50.194 3.959 75.24.305 3.751 1.132 7.688-.676 11.382-4.5 3.377-9.461 3.537-14.651 2.101-2.167-1.581-3.062-3.942-3.759-6.364-2.318-8.027-4.87-16.002-6.791-24.125-3.919-16.6-7.395-33.304-11.269-49.917-.846-3.623-1.449-8.234-6.021-9.021-4.178-.719-6.428 3.056-8.726 5.851-4.907 5.967-9.783 11.993-16.076 16.539-8.162 5.896-17.412 8.381-26.316 2.791-15.548-9.764-27.902-22.45-31.621-41.466 6.735-1.291 12.449-4.868 18.007-8.535 16.33-10.78 32.212-22.297 51.718-27.087 2.593-.636 4.896-2.924 5.177-6.199 2.081 1.209 3.029-.694 4.245-1.632 4.778-3.677 9.528-7.387 14.218-11.175 3.052-2.464 6.746-4.167 9.172-7.231-9.852-3.078-18.83-7.456-27.48-12.592-1.188-.705-2.621-2.697-3.893-1.389-3.099 3.187-7.477 5.056-9.559 9.261-1.223.497-2.577.796-3.648 1.517-16.716 11.263-34.994 9.893-52.279 3.676-14.549-5.23-28.948-12.234-39.943-24.087-.711-.765-1.561-1.236-2.633-1.232a.606.606 0 0 1-.203-.662c.258-.94.101-1.749-.743-2.339-1.071-2.326-1.272-5.039-3.113-7.025v-8.053c1.526-1.052 1.378-2.912 2.077-4.364 3.143-6.528 7.141-12.119 14.733-13.925 13.094.969 23.851 7.489 33.712 15.261 6.467 5.097 13.11 9.719 20.208 13.833 7.845 4.549 15.171 1.733 22.604-.929.96-.344 1.217-1.082 1.033-1.987-1.702-8.327-1.633-16.864-3.199-25.241-1.245-6.658-5.83-11.613-7.634-17.868.239-.208.444-.439.62-.695z"/><path fill="#4C6072" d="M126.771 750.256c-4.839-4.174-6.205-9.701-6.076-15.772.25-11.869 13.047-24.787 24.913-24.75 5.806.017 11.005-.426 14.357-6.043 1.311-2.197 4.217-2.381 6.076-3.979h6.039c10.716 5.867 13.221 15.715 6.717 26.404-2.469 2.318-5.119 4.305-8.636 4.722-5.482.654-10.95 1.469-16.449 1.954-7.806.69-9.95 2.311-11.59 9.825-.919 4.219-2.609 7.594-7.293 8.495-2.262-4.269-5.006-4.009-8.058-.856zm139.025 286.69c10.057 11.036 21.155 20.504 36.013 24.547 2.473.674 5.579 1.257 5.86 4.65.267 3.18-2.848 3.603-4.736 4.987h-16.106c-1.014-2.154-3.333-2.038-5.087-2.683-6.049-2.226-11.581-5.117-15.834-10.128-1.222-1.444-2.396-3.46-4.695-.891-1.186 1.327-2.472-.236-3.463-.942-6.06-4.328-6.653-10.774-6.602-17.441 5.188 1.438 10.15 1.278 14.65-2.099zm69.348-22.182c-5.423 5.484-11.595 2.756-17.292 1.087-8.048-2.359-15.336-6.446-21.824-11.888-1.509-1.266-2.688-4.005-5.6-1.005-1.494 1.534-7.528-3.637-8.284-7.093-1.128-5.157.053-9.92 2.73-14.378 4.102 1.121 8.292 1.213 12.502 1.09 6.09 9.712 15.651 15.383 24.984 21.266 4.234 2.67 8.824 4.774 12.784 7.901v3.02z"/><path fill="#F7A97A" d="M134.83 751.112c4.684-.901 6.374-4.275 7.293-8.495 1.64-7.515 3.784-9.135 11.59-9.825 5.499-.485 10.967-1.3 16.449-1.954 3.517-.417 6.167-2.404 8.636-4.722 6.219 13.688 5.531 27.232-1.069 40.54-2.57 5.177-3.495 10.37-1.726 15.938-10.557 3.821-21.38 4.518-32.409 2.728-.201-6.886-.199-13.813-3.806-20.054 1.455-2.144 1.446-4.333-.968-5.461-3.971-1.857-4.324-5.039-3.99-8.695zm33.801 6.992c.9-.256 2.501.51 3.181-1.184.353-.873-.053-1.815-.792-2.183-3.355-1.675-3.739-4.743-4.317-7.962-.284-1.573-.284-4.407-2.644-4.264-2.928.176-1.79 3.01-2.05 4.831-.143.991-.088 2.013-.272 2.992-.963 5.116 1.22 7.717 6.894 7.77z"/><path fill="#4C6072" d="M286.857 827.606c-.405-3.29-1.487-6.512-.965-9.894 2.081-5.568 5.472-10.89 3.272-17.269.584-3.625 1.399-7.229 1.678-10.876.225-2.955 1.286-4.178 4.325-4.003 5.847.338 11.708.526 17.562.602 2.445.03 3.13 1.108 3.199 3.369.174 5.658-1.583 10.927-3.19 16.188-2.309 7.546-2.617 14.824 1.743 21.748 1.747 2.773 1.036 4.082-2.105 4.739-4.907 1.03-9.924 1.876-14.595 3.602-5.459 2.019-7.696-.827-9.584-4.968-.485-1.064-.895-2.159-1.34-3.238z"/><path fill="#2E7F7E" d="M143.593 785.321c11.029 1.79 21.852 1.094 32.409-2.728 2.813-.358 2.981 2.148 3.905 3.726 1.249 2.129 2.066 4.513 3.852 6.315a3.759 3.759 0 0 1-.616.694c-2.027-1.467-3.24-.097-4.719 1.136-3.923 3.276-8.547 4.864-13.552 6.011-9.938 2.275-19.145-.242-28.383-3.244 1.098-2.935 2.351-5.822 3.242-8.816.618-2.086 1.822-2.999 3.862-3.094z"/><path fill="#F7A97A" d="M240.523 821.601c-2.953-2.045-4.968-4.97-7.204-7.689 1.574-2.521 3.301-4.962 4.693-7.579 2.881-5.417 6.953-9.203 13.144-10.359 1.2.009 2.399.015 3.6.021 4.618-.19 7.481 2.223 9.369 6.201 1.354 2.857.565 5.159-1.606 7.19l-2.896 1.136c-5.685.751-10.427 3.215-14.324 7.485-1.321 1.446-3.168 2.409-4.776 3.594zm48.642-21.158c2.199 6.379-1.191 11.701-3.272 17.269a8347.63 8347.63 0 0 1-8.429-4.001c2.591-5.579 4.501-11.754 11.701-13.268z"/><path fill="#4C6072" d="M254.755 795.995c-1.2-.006-2.4-.012-3.6-.021-1.786-3.173-3.592-6.333-5.347-9.524-.432-.786-1.304-1.643-.026-2.517 1.259-.862 2.188-.496 2.858.73 2.054 3.77 4.08 7.554 6.115 11.332zm4.868 14.527l2.896-1.136c1.736 3.503 4.544 6.536 4.999 10.866-4.416-2.06-5.868-6.123-7.895-9.73z"/><path fill="#549798" d="M140.566 933.333c-3.303-1.143-4.532-4.255-6.132-6.842-15.006-24.252-22.872-51.333-30.803-78.376-.133-.453.018-.989.037-1.487 1.073-.004 1.922.467 2.633 1.232 10.995 11.853 25.394 18.857 39.943 24.087 17.286 6.217 35.563 7.587 52.279-3.676 1.071-.721 2.425-1.02 3.648-1.517 4.679 8.122 7.773 17.091 13.296 24.758-.281 3.275-2.584 5.563-5.177 6.199-19.506 4.79-35.388 16.307-51.718 27.087-5.557 3.668-11.271 7.245-18.006 8.535zm-4.078-136.101c9.238 3.002 18.445 5.519 28.383 3.244 5.005-1.147 9.629-2.734 13.552-6.011 1.479-1.233 2.691-2.603 4.719-1.136 1.805 6.254 6.389 11.21 7.634 17.868 1.566 8.377 1.498 16.915 3.199 25.241.184.905-.072 1.643-1.033 1.987-7.433 2.662-14.759 5.478-22.604.929-7.098-4.113-13.741-8.735-20.208-13.833-9.861-7.771-20.618-14.292-33.712-15.261 7.208-3.545 13.114-9.096 20.07-13.028zm-33.023 48.734c-.813-.6-.889-1.434-.743-2.336.843.587 1.001 1.396.743 2.336z"/><path fill="#F38673" d="M134.83 751.112c-.333 3.655.019 6.838 3.989 8.693 2.415 1.128 2.423 3.317.968 5.461-9.841-1.523-14.627-7.042-13.016-15.011 3.052-3.152 5.796-3.412 8.059.857zm33.801 6.992c-5.674-.053-7.857-2.654-6.895-7.77.184-.979.129-2.001.272-2.992.26-1.82-.878-4.654 2.05-4.831 2.359-.144 2.359 2.69 2.644 4.264.578 3.219.962 6.287 4.317 7.962.739.368 1.145 1.311.792 2.183-.679 1.694-2.28.928-3.18 1.184z"/></g><path fill-rule="evenodd" clip-rule="evenodd" fill="#C9C7C7" d="M1217.911 1466.913h-3.997c-.677-.376-1.311-.892-2.035-1.11-32.837-9.88-65.683-19.733-98.868-29.692 0-5.356.167-10.998-.067-16.625-.124-2.96 1.12-3.936 3.763-4.684a693.704 693.704 0 0 0 26.137-7.967c2.279-.744 4.582-1.968 6.381-3.535a2895.04 2895.04 0 0 0 33.933-30.081c7.007-6.308 13.848-12.803 20.764-19.215h1.997c1.618.646 3.188 1.47 4.858 1.915 15.186 4.044 30.437 7.852 45.561 12.11 5.318 1.498 10.179 1.421 15.385-.33 9.152-3.078 18.457-5.702 28.241-8.682-.37 5.547-1.043 10.354-.903 15.133.126 4.334-1.395 7.383-4.344 10.469-17.674 18.506-35.199 37.151-52.68 55.84-8.153 8.715-16.09 17.629-24.126 26.454z"/><path fill-rule="evenodd" clip-rule="evenodd" fill="#E0F2F0" d="M1200.124 1333.188h2.999c.376.293.709.748 1.132.86 21.918 5.743 43.852 11.429 65.764 17.19 9.689 2.547 19.337 5.243 29.605 8.036-1.673 1.941-2.797 3.35-4.029 4.661-17.204 18.294-34.467 36.531-51.617 54.876-8.725 9.333-17.251 18.851-25.867 28.285h-3.997c-.35-.319-.646-.811-1.055-.935a17428.339 17428.339 0 0 0-46.917-14.058c-17.493-5.214-34.99-10.408-52.861-15.72.695-.89 1.021-1.441 1.47-1.862 27.454-25.876 54.922-51.737 82.36-77.627 1.148-1.084 2.014-2.466 3.013-3.706z"/><path fill-rule="evenodd" clip-rule="evenodd" fill="#C9C7C7" d="M1120.437 1346.373c11.909 3.346 23.787 6.8 35.73 10.016 21.439 5.773 42.908 11.433 64.39 17.056 2.691.704 4.037 2.047 4.692 4.826 2.974 12.618 9.811 16.733 22.671 14.448 15.795-2.808 28.576-11.124 40.385-21.366v1.999c-.675.421-1.45.74-2.015 1.277-12.941 12.342-26.958 22.861-44.949 26.7h-4.995c-1.724-.496-3.44-1.021-5.17-1.482-31.985-8.557-63.993-17.021-95.919-25.789-3.121-.858-6.696-2.956-8.375-5.564-3.423-5.315-5.696-11.374-8.44-17.125 1.21-1.449-2.657-4.927 1.995-4.996z"/><path d="M1160.409 1384.142c14.385 4.521 28.767 9.044 43.4 13.645-1.358 3.255-3.283 4.55-7.115 3.33-13.745-4.371-27.574-8.473-41.727-12.787.931-1.594 1.687-2.891 2.443-4.188h2.999zm-28.879 26.647c1.936-3.298 4.06-3.854 7.599-2.765 26.883 8.268 53.851 16.259 80.787 24.356.283.083.486.429 1.106 1.004-1.661 2.004-2.348 4.275-6.342 3.042-27.19-8.388-54.483-16.438-81.736-24.621-.444-.134-.798-.563-1.414-1.016zm100.402 10.735c-1.864 3.189-3.871 3.941-7.514 2.819-27.017-8.326-54.129-16.342-81.393-24.508 1.582-3.2 3.558-4.651 7.14-3.563 26.592 8.086 53.215 16.082 79.821 24.13.617.187 1.147.653 1.946 1.122z" fill-rule="evenodd" clip-rule="evenodd" fill="#828080"/><g fill-rule="evenodd" clip-rule="evenodd"><path fill="#539798" d="M1442.007 1075.849v19.454c-.303.913-.727 1.803-.887 2.739-3.729 21.776-14.157 39.263-32.687 51.72-1.267.851-2.299 3.014-2.329 4.584-.2 11.005-.461 22.029-.006 33.019.461 11.165-4.453 19.255-12.922 25.675-8.244 6.247-17.598 10.232-27.601 12.593-6.562 1.548-13.239 2.614-19.861 3.896h-22.372c-8.784-1.913-17.78-3.156-26.303-5.885-14.924-4.783-28.256-12.038-34-28.16v-142.007c1.217-.057 2.436-.117 4.437-.212-2.349-8.032.825-13.803 6.348-18.785 7.957-7.178 17.19-12.079 27.399-14.919 7.575-2.105 15.386-3.358 23.091-4.991h20.426c4.906.917 9.849 1.657 14.705 2.776 16.737 3.859 32.034 10.173 42.377 25.003.73 1.045 3.056 1.333 4.65 1.363 10.326.188 19.368 3.77 25.334 12.111 4.309 6.025 6.862 13.305 10.201 20.026zm-35.794 53.065c8.84-9.4 14.656-19.217 17.476-30.753 1.99-8.149 2.812-16.328-.301-24.372-2.933-7.579-9.461-10.844-17.175-8.712v63.837z"/><path d="M1346.685 1020.041c6.881 1.617 13.714 3.484 20.651 4.795 11.113 2.1 20.068 7.672 27.853 15.68 1.261 1.298 1.839 5.793 5.626 2.848.028-.022 1.066 1.067 1.464 1.735 2.941 4.938 4.134 9.915 1.71 15.623-6.477 15.25-16.896 25.677-33.477 29.557-22.492 5.263-45.136 7.09-67.864 2.558-12.169-2.428-22.313-9.334-30.916-18.219-1.825-1.884-2.846-4.605-4.017-7.044-1.666-3.474-3.129-7.045-4.678-10.573v-1.945l2.554-.168c1.687-3.251 2.567-6.04 4.31-8.097 4.578-5.403 9.449-10.567 14.396-15.638 1.142-1.169 2.98-1.861 4.625-2.307 11.129-3.006 22.292-5.886 33.444-8.804l24.319-.001zm59.623 119.155c-.463-4.87-.364-8.448 2.984-12.323 11.4-13.193 18.025-28.389 15.443-46.309-1.492-10.366-6.229-14.214-16.905-14.855-.453-.028-.896-.188-1.558-.335v-7.636c9.764-2.723 22.315 4.273 26.511 14.689 3.576 8.875 2.373 17.877.354 26.744-3.495 15.351-11.659 27.926-23.795 37.929-.821.677-1.756 1.219-3.034 2.096z" fill="#2B7E7D"/><path fill="#4D4C4D" d="M1345.371 1091.446h-22.369c-5.015-.981-10.065-1.801-15.03-2.978-11.83-2.805-22.916-7.239-32.752-15.485 7.773-6.681 16.365-10.947 25.701-13.516 7.567-2.084 15.36-3.353 23.052-4.981h20.426c5.367.986 10.789 1.742 16.09 3.006 11.804 2.814 22.931 7.152 32.618 15.481-8.708 7.441-18.497 11.741-28.975 14.507-6.172 1.631-12.502 2.664-18.761 3.966z"/><ellipse fill="none" stroke="#D1D3D4" stroke-width="7" stroke-miterlimit="10" cx="1333.557" cy="1054.677" rx="67.545" ry="38.689"/></g><defs><path id="a" d="M1091.973 1168.605h21.423c2.126.339 4.24.872 6.378.988 15.557.84 29.638 4.648 38.916 18.625 2.478 3.734 5.164 7.331 7.757 10.99v5.102c-3.02 6.751-8.421 10.556-15.098 13.477-41.732 18.241-83.417 36.593-124.958 55.263-7.604 3.416-15.298 4.84-23.428 5.713-9.396 1.007-15.543-3.335-20.458-10.475-1.919-2.791-3.391-5.907-5.431-8.597-6.98-9.209-6.918-18.823-1.544-28.526 2.354-4.25 5.104-8.503 8.509-11.919 22.216-22.272 48.301-38.083 79.059-45.473 9.489-2.28 19.243-3.476 28.875-5.168z"/></defs><clipPath id="b"><use xlink:href="#a" overflow="visible"/></clipPath><g clip-path="url(#b)" fill-rule="evenodd" clip-rule="evenodd"><path fill="#E0F2F0" d="M1091.973 1168.605h21.423c2.126.339 4.24.872 6.378.988 15.557.84 29.638 4.648 38.916 18.625 2.478 3.734 5.164 7.331 7.757 10.99v5.102c-3.02 6.751-8.421 10.556-15.098 13.477-41.732 18.241-83.417 36.593-124.958 55.263-7.604 3.416-15.298 4.84-23.428 5.713-9.396 1.007-15.543-3.335-20.458-10.475-1.919-2.791-3.391-5.907-5.431-8.597-6.98-9.209-6.918-18.823-1.544-28.526 2.354-4.25 5.104-8.503 8.509-11.919 22.216-22.272 48.301-38.083 79.059-45.473 9.489-2.28 19.243-3.476 28.875-5.168z"/><path fill="#C9C7C7" d="M1166.447 1208.327c-2.823 4.851-7.148 7.684-12.217 9.928-45.068 19.963-90.076 40.059-135.101 60.112-2.578 1.147-5.164 2.274-7.747 3.412h-10.2l-5.926-2.221c7.671-2.878 15.655-5.233 23.051-8.804 10.354-4.998 20.625-10.344 30.31-16.519 30.007-19.139 63.099-30.089 97.506-37.592 7.85-1.713 14.891-4.264 20.324-10.357v2.041z"/></g><g fill-rule="evenodd" clip-rule="evenodd"><path fill="#5F6060" d="M942.51 1133.195v8.143c-2.813 4.693-4.983 9.95-8.539 13.988-33.358 37.898-66.914 75.62-100.5 113.313-10.717 12.029-24.255 15.858-39.608 11.621-87.42-24.135-174.779-48.502-262.176-72.723-82.597-22.889-165.215-45.702-247.837-68.508-5.06-1.396-9.471-3.37-11.155-8.889v-6.108c1.1-.938 2.613-2.902 3.239-2.651 4.556 1.825 7.361-.806 10.327-3.4 2.804-2.454 5.67-4.84 8.545-7.213 34.998-28.899 69.993-57.803 105.014-86.673 10.409-8.582 22.036-12.138 35.439-8.459 5.033 1.381 10.171 2.381 15.266 3.537 69.69 15.798 139.381 31.592 209.071 47.39 84.556 19.167 169.129 38.267 253.646 57.608 9.928 2.27 20.547 2.691 29.268 9.024z"/><path fill="#E0F2F0" d="M798.542 1272.485c-6.752-1.748-15.915-3.972-24.994-6.488a1697019.182 1697019.182 0 0 1-491.598-136.351c-3.746-1.04-8.692-2.094-8.533-6.584.129-3.547 2.375-7.965 5.12-10.32 17.869-15.343 36.119-30.246 54.271-45.259 21.545-17.819 43.076-35.657 64.697-53.38 9.672-7.931 20.661-11.298 33.141-8.46 73.99 16.829 147.972 33.695 221.965 50.495 72.414 16.438 144.842 32.813 217.264 49.21 19.76 4.474 39.528 8.918 59.288 13.393 1.317.299 2.636.659 3.895 1.14 9.558 3.641 11.472 10.975 4.73 18.644-10.292 11.708-20.703 23.31-31.061 34.959-25.225 28.373-50.549 56.657-75.616 85.171-8.082 9.197-18.118 13.223-32.569 13.83z"/><path fill="#C9C7C7" d="M793.196 1248.374c-6.557-1.698-16.189-4.081-25.76-6.692a1398353.94 1398353.94 0 0 1-386.824-105.608c-21.764-5.944-43.496-12.01-65.267-17.937-3.988-1.085-8.259-1.818-9.263-6.632-1-4.798 2.065-8.024 5.364-10.817a5999.64 5999.64 0 0 1 35.063-29.418c16.272-13.559 32.861-26.752 48.785-40.707 12.479-10.938 25.629-14.168 42.094-10.254 99.732 23.701 199.613 46.779 299.449 70.051 54.073 12.602 108.156 25.157 162.225 37.78 10.875 2.539 13.469 10.917 6.008 19.215-26.286 29.243-52.656 58.412-78.871 87.717-8.001 8.947-18.001 12.854-33.003 13.302z"/><path d="M896.75 1141.289c-5.276 5.373-10.832 10.508-15.728 16.21-2.75 3.202-5.214 3.75-9.108 2.671-8.953-2.483-18.045-4.467-27.072-6.685-1.406-.346-2.772-.854-4.644-1.438 6.093-6.58 11.725-12.869 17.654-18.861.99-1 3.405-1.278 4.948-.934 11.347 2.538 22.64 5.316 33.95 8.017v1.02zm-476.405-114.011l26.501 6.978c-6.675 5.732-12.972 11.219-19.393 16.552-.738.613-2.264.714-3.287.472-8.311-1.953-16.587-4.045-25.743-6.308 7.361-6.232 14.133-11.962 20.905-17.693l1.017-.001zm80.648 105.345c-6.971 6.313-13.876 12.715-21.015 18.847-.915.788-3.136.539-4.585.153-29.734-7.887-59.443-15.864-90.065-24.065 7.684-6.658 14.887-12.973 22.216-19.136.7-.588 2.272-.547 3.304-.279a34339.195 34339.195 0 0 1 89.158 23.353c.254.065.423.465.987 1.127zm266.318 97.78l32.646-35.147c1.846-1.986 4.008-3.767 5.474-6.004 4.221-6.438 9.361-7.716 16.709-5.167 8.742 3.037 17.921 4.813 27.754 7.352-6.855 7.597-13.248 14.712-19.677 21.798-7.401 8.16-14.729 16.393-22.352 24.343-1.342 1.399-4.212 2.57-5.96 2.143-11.303-2.761-22.488-5.996-34.594-9.318zm-110.337-29.742c7.847-7.503 14.595-14.1 21.56-20.455.99-.903 3.165-1.2 4.561-.854 10.455 2.595 20.853 5.422 32.21 8.425-1.854 2.077-3.291 3.792-4.836 5.404-4.21 4.388-8.686 8.547-12.631 13.159-2.852 3.337-5.555 4.302-9.912 2.929-9.608-3.029-19.408-5.444-30.952-8.608zm70.04 18.884c7.174-7.544 13.505-14.34 20.047-20.926.968-.976 3.096-1.613 4.417-1.294 10.494 2.542 20.923 5.352 32.292 8.32-7.299 7.815-14.121 15.16-21.023 22.431-.468.495-1.616.752-2.299.569-10.87-2.901-21.717-5.892-33.434-9.1zm-119.418-59.924c-6.394 6.826-12.588 13.547-18.954 20.102-.874.896-2.758 1.599-3.911 1.315-10.287-2.548-20.516-5.337-31.598-8.278 7.41-7.077 14.187-13.632 21.104-20.035.818-.756 2.537-1.176 3.624-.903 10.156 2.552 20.264 5.289 29.735 7.799zm68.201 17.837c-7.659 7.373-14.544 14.087-21.57 20.652-.81.758-2.526 1.197-3.6.919-9.908-2.584-19.766-5.36-29.858-8.141 7.056-7.23 13.842-14.239 20.73-21.144.562-.563 1.908-.785 2.738-.574 10.082 2.578 20.135 5.265 31.56 8.288zm86.917-36.302c-6.2 5.768-12.353 11.59-18.651 17.248-.945.849-2.711 1.557-3.854 1.291-10.828-2.521-21.601-5.267-33.988-8.345 7.271-6.996 13.638-13.192 20.124-19.258.711-.663 2.223-1.005 3.189-.773 10.792 2.589 21.552 5.32 32.319 8.013l.861 1.824zm54.665 35.475c5.886-6.356 11.174-12.219 16.689-17.863.824-.845 2.826-1.164 4.082-.868 11.245 2.661 22.445 5.513 34.529 8.529-5.814 6.389-11.172 12.365-16.673 18.208-.638.68-2.168 1.063-3.104.835-11.6-2.802-23.169-5.741-35.523-8.841zm-17.056-33.965c6.502-6.837 12.486-13.182 18.569-19.428.559-.578 1.847-.901 2.653-.717 10.674 2.434 21.322 4.979 32.637 7.654-6.267 6.75-12.037 13.1-18.014 19.244-.826.847-2.809 1.191-4.059.905-10.312-2.36-20.58-4.927-31.786-7.658zm-13.302-28.338c-6.491 6.679-12.427 12.861-18.493 18.917-.684.679-2.202 1.067-3.16.846-10.784-2.504-21.537-5.156-33.381-8.028 6.776-6.702 12.722-12.842 19.03-18.583 1.092-.994 3.806-.727 5.611-.325 9.844 2.192 19.635 4.61 30.393 7.173zm-269.461 48.748c7.34-6.893 14.048-13.306 20.932-19.527.93-.841 2.871-1.255 4.115-.947 9.141 2.264 18.225 4.761 28.392 7.468-7.562 7.172-14.431 13.841-21.545 20.234-.917.825-3.22.598-4.711.21-8.805-2.293-17.556-4.779-27.183-7.438zm236.419 28.147c5.948-6.236 11.248-11.908 16.72-17.409.894-.898 2.706-1.692 3.831-1.425 10.595 2.516 21.133 5.275 32.636 8.207-6.195 6.625-11.771 12.65-17.455 18.573-.545.565-1.86.846-2.664.642-10.742-2.72-21.456-5.551-33.068-8.588zm-84.529-49.203c6.691-6.646 12.723-12.793 18.988-18.688.966-.91 3.135-1.202 4.539-.879 9.519 2.179 18.98 4.603 29.409 7.181-5.151 5.258-10.306 9.832-14.597 15.106-3.877 4.765-7.861 5.515-13.497 3.732-7.864-2.491-15.974-4.193-24.842-6.452zm160.685 13.913c-5.813 6.298-10.89 11.929-16.161 17.374-.889.918-2.763 1.687-3.92 1.413-10.668-2.514-21.28-5.275-32.574-8.133 5.932-6.217 11.352-12.004 16.938-17.625.708-.714 2.388-.989 3.453-.743 10.489 2.414 20.942 4.982 32.264 7.714zm-135.028-38.809c6.383-6.497 12.242-12.534 18.227-18.449.714-.706 2.21-1.215 3.159-1 9.938 2.264 19.842 4.695 31.577 7.518-7.112 6.698-13.185 12.503-19.391 18.161-.808.735-2.417 1.201-3.467.963-9.831-2.239-19.619-4.66-30.105-7.193zm-211.649 36.765c7.551-6.898 14.383-13.196 21.313-19.387.752-.673 2.188-1.212 3.097-.984 8.947 2.248 17.848 4.668 27.688 7.288-7.648 7.108-14.636 13.675-21.756 20.095-.679.613-2.274.646-3.291.376-8.749-2.308-17.462-4.747-27.051-7.388zm147.116-52.455c5.559-6.089 11.194-12.325 16.935-18.457.557-.597 1.866-.951 2.683-.771 10.253 2.276 20.482 4.67 30.583 7.004-6.039 6.338-11.615 12.408-17.501 18.162-.983.962-3.417 1.054-4.991.7-9.532-2.14-19.006-4.526-27.709-6.638zm34.524 66.653c6.675-6.341 12.378-11.811 18.169-17.185.646-.601 1.893-1.108 2.68-.916 10.256 2.494 20.479 5.124 30.709 7.719l1.111 1.779c-5.942 5.459-11.859 10.945-17.861 16.334-.624.557-1.868.919-2.655.718-10.193-2.601-20.354-5.325-32.153-8.449zm-33.377-31.889c-5.354 5.787-10.667 11.625-16.126 17.324-.674.702-2.23 1.139-3.182.903-10.256-2.547-20.474-5.255-31.51-8.129 6.25-5.963 11.902-11.429 17.672-16.764.714-.661 2.183-1.064 3.119-.836 10.259 2.474 20.482 5.096 30.027 7.502zm23.923-22.865c-5.298 5.689-10.244 11.234-15.512 16.459-1.027 1.021-3.438 1.402-4.968 1.043-9.682-2.255-19.296-4.8-30.12-7.553 6.486-6.11 12.377-11.709 18.362-17.206.472-.433 1.653-.353 2.421-.164 10.071 2.47 20.129 5.001 29.817 7.421zm-11.293-32.729c-6.815 6.429-13.022 12.339-19.326 18.14-.624.574-1.939.855-2.786.654-9.341-2.207-18.652-4.54-28.854-7.056 6.828-6.379 13.028-12.252 19.37-17.97.654-.591 2.218-.517 3.258-.284 9.16 2.041 18.296 4.189 28.338 6.516zm-272.282 17.398c-7.737 6.617-14.62 12.585-21.639 18.388-.815.676-2.481.837-3.586.562-8.403-2.095-16.764-4.359-26.09-6.822 7.839-6.629 14.947-12.739 22.216-18.647.775-.63 2.56-.36 3.765-.058 8.143 2.039 16.255 4.201 25.334 6.577zm-18.842 20.752c7.433-6.373 14.137-12.286 21.075-17.911 1.19-.963 3.516-1.265 5.086-.892 7.864 1.862 15.649 4.051 24.496 6.399-3.632 3.295-7.155 5.824-9.839 9.048-8.112 9.749-17.494 12.29-29.133 6.663-3.372-1.63-7.298-2.106-11.685-3.307zm242.063 8.199c-6.401 6.109-12.045 11.583-17.83 16.905-.684.63-2.214.813-3.195.572-9.457-2.309-18.88-4.752-28.918-7.314 6.149-5.718 11.77-11.042 17.538-16.206.856-.766 2.522-1.287 3.608-1.033 9.3 2.161 18.554 4.526 28.797 7.076zm-35.564-42.775c6.607-6.06 12.373-11.521 18.378-16.703 1.185-1.023 3.443-1.619 4.967-1.292 8.395 1.797 16.715 3.941 26.02 6.2-6.842 6.335-13.192 12.252-19.616 18.084-.493.449-1.587.571-2.295.401-8.852-2.105-17.683-4.294-27.454-6.69zm59.426 20.141c-6.124 5.85-11.521 11.107-17.065 16.202-.853.783-2.52 1.375-3.587 1.121-9.299-2.216-18.544-4.646-28.773-7.257 6.29-5.847 11.89-11.14 17.628-16.278.705-.632 2.227-.808 3.229-.578 9.262 2.117 18.493 4.373 28.568 6.79zm-107.743 23.976c6.552-5.958 12.341-11.3 18.256-16.496.71-.624 2.201-.851 3.173-.613 8.816 2.162 17.602 4.467 27.161 6.927-6.26 5.779-12.012 11.161-17.885 16.407-.718.642-2.195.959-3.15.727-8.916-2.155-17.792-4.465-27.555-6.952zm64.234-63.877c-6.813 6.267-12.963 11.998-19.234 17.587-.686.609-2.166.765-3.142.541-8.524-1.955-17.018-4.042-26.615-6.356 7.102-6.394 13.486-12.228 20.025-17.886.626-.542 2.239-.158 3.329.09 8.195 1.881 16.378 3.837 25.637 6.024zm-81.374 3.862c6.789-6.01 12.692-11.318 18.716-16.477.887-.76 2.481-1.348 3.561-1.121 8.514 1.796 16.982 3.809 26.284 5.942-6.803 6.126-12.874 11.683-19.085 17.076-.836.725-2.489 1.083-3.587.832-8.331-1.893-16.615-3.985-25.889-6.252zm89.703 27.426c-6.25 5.856-11.604 10.974-17.111 15.923-.868.781-2.547 1.345-3.637 1.09-8.81-2.061-17.568-4.339-27.347-6.806 6.419-5.842 12.065-11.061 17.846-16.131.689-.604 2.185-.714 3.176-.489 8.68 1.978 17.332 4.084 27.073 6.413zm-57.766 13.842c-6.393 5.865-11.936 11.045-17.618 16.067-.841.741-2.465 1.261-3.51 1.002-8.635-2.133-17.217-4.478-26.752-7.004 6.449-5.814 12.344-11.19 18.345-16.443.617-.54 1.964-.646 2.842-.428 8.609 2.127 17.189 4.366 26.693 6.806zm-95.687-56.73c7.074-6.072 13.319-11.49 19.662-16.79.659-.551 1.978-.723 2.866-.52 8.365 1.905 16.703 3.93 25.917 6.128-6.857 5.927-13.068 11.341-19.36 16.663-.673.57-1.901.993-2.72.806-8.492-1.94-16.955-4.019-26.365-6.287zm79.978-3.709c-6.714 5.964-12.819 11.457-19.035 16.82-.772.667-2.234 1.119-3.197.895-8.297-1.922-16.554-4.022-25.667-6.278 6.93-6.08 13.213-11.647 19.59-17.103.611-.522 1.883-.658 2.729-.461 8.271 1.914 16.514 3.937 25.58 6.127zm-7.612 48.485c6.364-5.78 11.962-10.896 17.62-15.943.547-.487 1.556-.9 2.21-.748 8.928 2.075 17.829 4.258 27.555 6.611-6.166 5.702-11.569 10.765-17.078 15.717-.791.71-2.208 1.415-3.115 1.199-8.809-2.095-17.571-4.386-27.192-6.836zm-57.209 13.601c6.479-5.708 12.346-10.992 18.387-16.065.824-.69 2.616-.696 3.809-.404 8.146 1.992 16.251 4.148 25.188 6.464-6.304 5.73-12.065 11.084-18.007 16.23-.793.686-2.589.671-3.771.379-8.269-2.038-16.497-4.234-25.606-6.604zm15.067-18.202c-6.37 5.596-12.005 10.638-17.777 15.518-.901.762-2.568 1.311-3.656 1.042-8.265-2.03-16.475-4.287-25.569-6.704 6.464-5.569 12.237-10.68 18.208-15.549.946-.772 2.89-.876 4.198-.563 7.873 1.875 15.694 3.962 24.596 6.256zm-111.447-6.86c6.206-5.199 11.567-9.852 17.138-14.241 1.285-1.01 3.452-1.843 4.931-1.509 8.177 1.849 16.266 4.086 25.505 6.479-6.601 5.622-12.531 10.738-18.565 15.729-.623.518-1.924.613-2.782.396-8.472-2.149-16.917-4.404-26.227-6.854zm79.632-1.201c-6.479 5.633-12.164 10.649-17.956 15.535-.785.661-2.228 1.162-3.165.928-8.418-2.109-16.796-4.395-26.161-6.891 6.509-5.546 12.275-10.6 18.242-15.402.94-.756 2.885-.774 4.204-.46 7.973 1.903 15.901 4.001 24.836 6.29zm41.366 4.48c6.443-5.615 12.086-10.61 17.851-15.464.768-.648 2.244-.993 3.228-.765 8.438 1.947 16.835 4.058 26.014 6.307-6.226 5.571-11.834 10.66-17.55 15.624-.769.668-2.199 1.187-3.129.964-8.487-2.034-16.928-4.246-26.414-6.666zm-63.944-16.049c6.511-5.53 12.13-10.345 17.821-15.073.679-.563 1.855-1.073 2.634-.893 8.61 1.996 17.188 4.131 26.533 6.416-6.25 5.437-11.768 10.333-17.424 15.063-.901.752-2.543 1.286-3.632 1.029-8.315-1.965-16.576-4.148-25.932-6.542zm15.052-17.395c-6.27 5.397-11.575 10.117-17.086 14.586-1.123.909-3.152 1.487-4.525 1.172-8.204-1.878-16.336-4.063-25.494-6.401 6.374-5.474 12.157-10.504 18.051-15.398.611-.505 1.951-.45 2.856-.238 8.486 1.979 16.952 4.048 26.198 6.279zm17.065 25.491c6.296-5.518 11.664-10.378 17.245-14.977 1.059-.872 3.088-1.238 4.47-.932 7.996 1.775 15.93 3.824 24.819 6.006-6.267 5.539-11.993 10.675-17.846 15.664-.735.625-2.227.853-3.214.616-8.156-1.947-16.274-4.052-25.474-6.377z" fill="#FFF"/></g></svg>