<svg xmlns="http://www.w3.org/2000/svg" width="11" height="9"><defs><linearGradient id="a" x1="4672.5" y1="2579" x2="4672.5" y2="2570" gradientUnits="userSpaceOnUse"><stop offset="0" stop-color="#11998e"/><stop offset="1" stop-color="#38ef7d"/></linearGradient></defs><path d="M4671.86 2570a7.694 7.694 0 0 1 4.04 1.27 4.547 4.547 0 0 1 1.23 1.59 7.917 7.917 0 0 1 .42.94c.06.16.12.32.17.48.02.07.05.15.07.23l.06.24a2.649 2.649 0 0 1-1.58 3.36c-1.41.7-2.67.63-4.57.86a4.1 4.1 0 0 1-3.5-1.26 3.479 3.479 0 0 1-1.2-2.94c-.02-1.77.4-3.34 1.33-4.04.85-.73 2.32-.66 3.53-.73z" transform="translate(-4667 -2570)" fill-rule="evenodd" fill="url(#a)"/></svg>