<svg xmlns="http://www.w3.org/2000/svg" width="100" height="100"><path d="M49.05 52.5h-.099c-.067-.037-.133-.081-.204-.11l-12.759-5.208c-2.261-.924-4.521-1.85-6.781-2.775V19.25c.03.01.062.018.091.031 6.494 2.695 12.987 5.393 19.483 8.083.201.083.274.175.273.402-.006 8.244-.004 16.488-.004 24.734zm21.743-33.25v7.167l-6.896 2.926c-2.022.858-4.045 1.716-6.066 2.576-.073.032-.189.096-.19.146-.014.571-.009 1.143-.009 1.737.102-.038.17-.061.235-.089l12.675-5.371c.079-.034.167-.049.251-.073v7.215l-6.896 2.927c-2.022.858-4.045 1.715-6.066 2.576-.073.032-.189.095-.19.146-.014.522-.009 1.045-.009 1.591.102-.039.17-.062.235-.089 4.226-1.791 8.449-3.582 12.675-5.372.079-.033.167-.049.251-.073v7.215c-.016.003-.032.005-.047.011l-17.483 7.14c-.757.31-1.509.628-2.263.941h-.049c0-8.247 0-16.495-.005-24.741 0-.195.048-.295.241-.374a849.22 849.22 0 0 0 6.615-2.715c4.333-1.798 8.662-3.609 12.991-5.417zm-20.769-6.825c.255.095.507.199.765.284 5.646 1.857 11.294 3.711 16.94 5.566.073.025.146.055.271.103-.575.238-1.101.458-1.627.674-5.395 2.218-10.791 4.436-16.186 6.657a.515.515 0 0 1-.436.01c-5.822-2.412-11.645-4.818-17.468-7.226-.073-.03-.144-.064-.262-.118.122-.044.201-.076.281-.103 5.772-1.916 11.544-3.831 17.316-5.749.072-.024.141-.065.211-.1.066.002.13.002.195.002z" fill-rule="evenodd" clip-rule="evenodd"/><path d="M9.477 56.611h11.851v3.547h-8.007v3.253h7.564v3.549h-7.564v3.549h8.452v3.548H9.477V56.611zm14.472 13.898l8.846-10.496H24.27v-3.401h13.183v3.401L28.78 70.509h8.968v3.548H23.949v-3.548zm31.154-3.179c0 4.114-2.515 7.17-7.343 7.17-4.856 0-7.367-3.056-7.367-7.17V56.611h3.843v10.571c0 2.143 1.479 3.77 3.524 3.77 2.02 0 3.498-1.627 3.498-3.77V56.611h3.845V67.33zm3.556-10.719h6.751c3.573 0 6.579 1.231 6.579 5.297 0 2.44-1.304 4.338-3.77 4.78l4.436 7.368h-4.607l-3.646-6.974h-1.898v6.974h-3.845V56.611zm3.845 7.219h2.267c1.405 0 3.229-.048 3.229-1.946 0-1.75-1.577-2.02-2.981-2.02h-2.514v3.966zm20.608-7.662c5.446 0 9.412 3.573 9.412 9.165 0 5.594-3.966 9.167-9.412 9.167-5.444 0-9.412-3.573-9.412-9.167 0-5.592 3.968-9.165 9.412-9.165zm0 14.784c3.277 0 5.422-2.365 5.422-5.619 0-3.253-2.145-5.618-5.422-5.618-3.275 0-5.421 2.365-5.421 5.618 0 3.254 2.146 5.619 5.421 5.619z" stroke="#000" stroke-width=".5" stroke-miterlimit="10"/></svg>