<svg id="Layer_1" xmlns="http://www.w3.org/2000/svg" viewBox="0 0 768 703.1"><style>.st0{fill:#000}</style><path class="st0" d="M234.5 643h-31c-.9-.1-1.7-.4-2.6-.4-9.3-.4-18.5-1.1-27.8-2.2-6.8-.8-13.5-1.8-20.2-3.1-5.8-1.1-11.5-2.5-17.1-4.1-8.5-2.4-16.9-5.3-24.9-9-13.1-6-25-13.6-35.2-23.8-11.6-11.6-19.5-25.3-23.7-41.1-1.6-6.1-2.6-12.4-3.1-18.7-.8-9.8-.5-19.6 1.3-29.2 1-5.1 2.3-10.1 4.1-15 4.6-12.4 11.9-23.1 21.4-32.2 9-8.7 19.3-15.4 30.6-20.7 9.6-4.5 19.5-7.8 29.8-10.2.4-.1.9-.1 1.2-.6-.3-.2-.6-.3-.9-.5-5.5-2.5-10.5-5.7-15.1-9.7-6.8-5.9-12.1-12.9-16.2-20.8-4.2-8-6.5-16.5-6.6-25.6 0-2.9.2-5.7.4-8.6.3-4.6 1.3-9 2.8-13.4 2.5-7.6 6.6-14.3 11.9-20.3 5.7-6.4 12.2-12 19-17.2 4.9-3.7 10.1-7.1 15.3-10.4.3-.2.6-.4 1.1-.8-.5-.2-.7-.4-1-.5-8.7-3.9-16.9-8.8-24.3-14.8-11.5-9.3-20.8-20.5-28.2-33.3-5.5-9.5-9.6-19.7-12.3-30.3-1.4-5.5-2.5-11.1-3.2-16.7-.5-4.5-.8-9-1.1-13.6-.4-7.9-.1-15.9.6-23.8.7-7.4 1.9-14.8 3.6-22.1 1.9-7.8 4.4-15.4 7.7-22.7 5.5-12.3 13-23.2 22.4-32.8 10.4-10.6 22.3-18.9 35.7-25.3 9.6-4.6 19.6-8.1 29.9-10.7 7.7-1.9 15.5-3.4 23.4-4.5 6.8-.9 13.6-1.5 20.4-1.8 1.2-.1 2.5-.3 3.7-.4h22.4c.5.1.9.2 1.4.2l5.4.3c8 .6 16.1 1.4 24 2.8 6 1 11.9 2.3 17.7 3.8 7.6 2 15 4.5 22.2 7.7 13.3 5.8 25.4 13.4 36.1 23.3 11 10.2 19.6 22.1 25.9 35.7 5.4 11.6 8.8 23.8 10.7 36.3 1 6.6 1.6 13.2 1.9 19.8.3 8 .2 16-.6 23.9-.7 6.9-1.8 13.8-3.6 20.6-1.7 6.6-3.8 13-6.6 19.3-4.7 10.8-11 20.7-18.6 29.7-2.1 2.5-4.3 5-6.6 7.4-1.9 1.9-4 3.6-6 5.3-8.1 6.8-16.9 12.4-26.4 17.1-7.3 3.6-14.9 6.6-22.6 9.1-5.8 1.8-11.7 3.4-17.6 4.6-4 .8-8.1 1.6-12.1 2.2-4.2.6-8.5 1.2-12.7 1.6-5.1.5-10.1.8-15.2 1-9.8.5-19.7.4-29.5-.4-5.6-.4-11.2-1.1-16.7-2.2-.6-.1-1 .1-1.4.3-1.2.8-2.5 1.6-3.7 2.4-5.9 4.1-11.2 8.7-15.5 14.5-5.6 7.5-8.4 15.9-7.7 25.3.1 1.8.5 3.6 1 5.3 1.6 5 4.8 8.7 9.1 11.6 4.3 2.9 9.1 4.4 14.1 5.6 6.7 1.5 13.5 2.3 20.3 2.6 6.3.3 12.6.4 18.9.4 22 .1 44 0 66 0 10.5 0 21 .4 31.4 1.6 6.5.7 13 1.8 19.4 3.1 6.5 1.4 12.9 3.2 19.1 5.4 10.6 3.8 20.6 8.8 29.6 15.6 8.8 6.6 16.2 14.4 22.1 23.6 5.1 8 8.8 16.6 11.4 25.7 1.7 6.1 2.9 12.3 3.6 18.6.6 5.2.8 10.5.9 15.7.1 10.9-.8 21.6-3.2 32.3-1.6 7-3.7 13.8-6.4 20.4-6 14.1-14.5 26.5-25.4 37.2-8.5 8.4-18.1 15.4-28.3 21.5-9.7 5.7-19.8 10.4-30.4 14.3-7.2 2.7-14.5 5-22 6.9-4.1 1.1-8.2 2-12.4 3-3.4.8-6.9 1.5-10.4 2.1-3.6.7-7.2 1.3-10.8 1.8-3.4.5-6.9 1-10.4 1.4-4.7.6-9.4 1-14.2 1.5-4.7.4-9.5.8-14.2 1.1-4.5.3-9 .4-13.5.6-.3 0-1 .3-1.7.4zm11.1-180.9h-40.3c-2 0-4 0-6 .1-9.4.4-18.6 1.7-27.7 4.4-9.1 2.8-17.5 7-25 13-6.6 5.3-12 11.7-15.7 19.5-3 6.3-4.7 13-5.4 19.9-.6 6.3-.5 12.5.9 18.7 1.6 7.2 4.8 13.7 9.6 19.3 4.5 5.2 9.9 9.3 15.9 12.7 7.8 4.4 16.1 7.3 24.7 9.4 5.1 1.2 10.2 2.2 15.3 2.8 5.5.7 10.9 1.2 16.4 1.4 11.6.6 23.3.3 34.9-.3 7.3-.4 14.7-.9 22-1.9 5-.7 10.1-1.4 15.1-2.3 5.9-1 11.7-2.4 17.4-4.1 6.4-1.8 12.7-4 18.8-6.9 9.6-4.5 18.4-10.1 25.9-17.6 8.8-8.8 14.5-19.2 16.2-31.7 1.1-8.4.7-16.8-1.8-24.9-2-6.3-5.3-11.6-10.3-16-4.7-4.2-10.1-6.9-16-8.8-4.7-1.5-9.4-2.7-14.3-3.5-4.9-.7-9.7-1.5-14.6-2-8-.8-16-1.2-24-1.3-10.6 0-21.3.1-32 .1zM312.4 188c-.1-5.5-.5-12.6-1.6-19.6-1.1-6.7-2.7-13.3-5.1-19.7-2.7-7.1-6.5-13.7-11.4-19.5-8.3-9.7-18.9-15.8-31.2-19.1-5.6-1.5-11.3-2.3-17-2.7-8.3-.6-16.5-.3-24.8.9-6.1.9-12.1 2.4-17.8 4.7-11.6 4.6-20.8 12.1-27.8 22.5-6.5 9.8-10 20.8-11.9 32.3-.8 4.6-1.2 9.2-1.4 13.9-.5 10.4-.2 20.7 1.8 30.9 1.3 6.5 3.2 12.9 6 18.9 5.9 12.6 14.9 22.3 27.3 28.8 9.3 4.8 19.2 7.2 29.5 8.1 8.1.7 16.1.7 24.2-.3 6.2-.7 12.2-2.1 18.1-4.2 14.1-5.1 24.9-14.1 32.4-27.1 5.1-8.9 7.9-18.5 9.4-28.5.9-6.2 1.3-12.4 1.3-20.3zm196.9-66.5l-1.8-6.4h-.7c-1.5 2.3-3.5 4.1-6.2 5.4s-5.7 1.9-9.1 1.9c-5.8 0-10.2-1.6-13.2-4.7s-4.4-7.6-4.4-13.5V71.9h13.5v29c0 3.6.6 6.3 1.9 8.1 1.3 1.8 3.3 2.7 6.1 2.7 3.8 0 6.5-1.3 8.2-3.8 1.7-2.5 2.5-6.7 2.5-12.6V71.9h13.5v49.6h-10.3zm70.4 0h-13.5v-29c0-3.6-.6-6.3-1.9-8.1-1.3-1.8-3.3-2.7-6.1-2.7-3.8 0-6.5 1.3-8.2 3.8-1.7 2.5-2.5 6.7-2.5 12.6v23.4H534V71.9h10.3l1.8 6.4h.8c1.5-2.4 3.6-4.2 6.2-5.4 2.6-1.2 5.7-1.8 9-1.8 5.8 0 10.2 1.6 13.1 4.7 3 3.1 4.5 7.6 4.5 13.5v32.2zm27-27l5.9-7.5 13.9-15.1h15.3L622 93.4l20.9 28.1h-15.6L613 101.4l-5.8 4.7v15.5h-13.5V52.4h13.5v30.8l-.7 11.3h.2zm64.3 17.1c2.4 0 5.2-.5 8.5-1.6v10.1c-3.4 1.5-7.5 2.3-12.4 2.3-5.4 0-9.4-1.4-11.8-4.1-2.5-2.7-3.7-6.8-3.7-12.3V82H645v-5.7l7.5-4.5 3.9-10.5h8.7v10.6H679V82h-13.9v24c0 1.9.5 3.3 1.6 4.3 1.1.8 2.5 1.3 4.3 1.3zm53.2-4.8c0 5.1-1.8 9-5.3 11.6-3.5 2.7-8.8 4-15.9 4-3.6 0-6.7-.2-9.2-.7-2.5-.5-4.9-1.2-7.1-2.2v-11.2c2.5 1.2 5.4 2.2 8.5 3 3.2.8 5.9 1.2 8.3 1.2 4.9 0 7.4-1.4 7.4-4.3 0-1.1-.3-1.9-1-2.6-.7-.7-1.8-1.4-3.4-2.3-1.6-.8-3.7-1.8-6.4-3-3.8-1.6-6.6-3.1-8.4-4.4-1.8-1.4-3.1-2.9-3.9-4.7-.8-1.8-1.2-3.9-1.2-6.5 0-4.4 1.7-7.8 5.1-10.2 3.4-2.4 8.3-3.6 14.5-3.6 6 0 11.8 1.3 17.5 3.9l-4.1 9.8c-2.5-1.1-4.8-1.9-7-2.6-2.2-.7-4.4-1-6.6-1-4 0-6 1.1-6 3.2 0 1.2.6 2.3 1.9 3.2 1.3.9 4.1 2.2 8.5 4 3.9 1.6 6.7 3 8.5 4.4 1.8 1.4 3.1 2.9 4 4.7.8 1.7 1.3 3.8 1.3 6.3zM407 141h-13.5V71.9H407V141z"/><circle class="st0" cx="436.3" cy="96.4" r="26.5"/></svg>