<svg xmlns="http://www.w3.org/2000/svg" width="500" height="360"><g fill-rule="evenodd" clip-rule="evenodd"><path fill="#91E8E5" d="M232.534 103.566h186.057c.015 1.504-.038 3.014.058 4.512.377 5.806.799 11.609 1.212 17.412.388 5.444.76 10.891 1.176 16.333 1.255 16.395 2.529 32.787 3.791 49.18.783 10.153 1.534 20.31 2.342 30.462.755 9.476 1.594 18.946 2.339 28.423.819 10.459 1.546 20.919 2.364 31.377.796 10.213 1.665 20.418 2.475 30.629.222 2.819-1.643 4.058-4.214 2.896-1.339-.607-1.537-1.757-1.634-3.039-.696-9.049-1.418-18.096-2.138-27.145-.188-2.358-.401-4.718-.617-7.253l-20.343-.949c-.13 1.805-.251 3.449-.366 5.093-.563 8.075-1.121 16.152-1.693 24.227a8362.379 8362.379 0 0 1-1.764 24.405c-.289 3.908-.526 7.825-.952 11.721-.235 2.16-1.378 2.852-3.595 2.606-1.904-.209-2.739-1.176-2.723-3.2.01-.796.068-1.593.125-2.388.339-4.896.657-9.794 1.032-14.687.42-5.498.915-10.988 1.332-16.483.252-3.274.416-6.559.628-9.995-45.093-3.637-89.977-7.261-135.01-10.893.065.696.099 1.171.15 1.643.445 4.203.955 8.403 1.277 12.618.055.718-.501 1.842-1.107 2.186-2.027 1.141-4.676-.338-4.936-2.644-.451-4.023-.96-8.05-1.193-12.089-.105-1.808-.715-2.372-2.468-2.495-8.327-.589-16.644-1.306-24.964-1.977-2.659-.214-5.319-.425-8.095-.645-.991 10.235-1.959 20.244-2.929 30.251-.534 5.498-1.046 10.996-1.622 16.49-.245 2.352-1.674 3.357-3.952 2.623-.943-.304-1.684-1.24-2.517-1.886v-2.213c.153-.637.385-1.267.45-1.913.522-5.311.999-10.625 1.519-15.933.806-8.235 1.646-16.47 2.453-24.705 1.042-10.625 2.051-21.252 3.097-31.873 1.17-11.842 2.367-23.682 3.55-35.521 1.038-10.377 2.071-20.753 3.116-31.127 1.172-11.658 2.355-23.313 3.534-34.97 1.173-11.596 2.362-23.189 3.504-34.79.471-4.752.839-9.515 1.251-14.274"/><path fill="#6CBABA" d="M418.576 104.505c.1 2.973.101 5.953.315 8.916 1.019 13.991 2.097 27.978 3.147 41.966 1.101 14.616 2.167 29.234 3.295 43.848.743 9.595 1.597 19.185 2.348 28.781.819 10.512 1.543 21.03 2.371 31.543.999 12.653 2.075 25.302 3.1 37.955.421 5.19.827 10.385 1.188 15.578.148 2.107-.405 2.781-2.123 2.909-2.202.166-3.486-.71-3.647-2.652-.631-7.636-1.212-15.276-1.821-22.913-.314-3.962-.654-7.92-1.002-12.122-6.995-.343-13.896-.679-20.801-1.019v-.733c.284-3.293.613-6.577.85-9.872 1.201-16.834 2.394-33.671 3.561-50.508 1.166-16.776 2.284-33.555 3.444-50.332 1.419-20.449 2.866-40.897 4.302-61.345h1.473z"/><g fill="#F3816F"><path d="M376.974 99.225v-.118h1.999v.118h-1.999zm-37.752 37.988h.117v1.176h-.117v-1.176zm10.937-26.226a8.034 8.034 0 0 1 1.293-1.294c-.382.48-.812.911-1.293 1.294zm0 53.63c.48.383.911.813 1.293 1.294a8.074 8.074 0 0 1-1.293-1.294z"/><path d="M378.973 99.225c10.791.304 20.169 5.114 25.994 10.938 6.182 6.182 10.673 14.376 11.525 25.168v4.939c-.799 11.125-5.601 19.126-11.644 25.169-6.028 6.03-14.492 10.421-25.876 10.937h-1.999c-11.506-.49-19.205-4.785-25.521-10.467a8.115 8.115 0 0 0-1.293-1.294c-5.584-5.982-9.745-13.385-10.704-23.993-.075-.55.156-1.408-.116-1.764v-2.117c.272-.356.041-1.213.116-1.764.967-10.601 5.119-18.012 10.704-23.992.48-.382.911-.814 1.293-1.294 6.322-5.676 14.018-9.977 25.521-10.468.668.002 1.334.002 2 .002z"/><path d="M339.455 134.979c-.075.551.156 1.408-.116 1.764.076-.551-.153-1.409.116-1.764zm77.154.353v4.939h-.117v-4.939h.117zm-77.27 3.528c.272.356.041 1.213.116 1.764-.269-.355-.04-1.212-.116-1.764zm37.635 37.517h1.999v.119h-1.999v-.119z"/></g><g fill="#F8A879"><path d="M350.477 164.72c.519.422.992.892 1.412 1.413a9.479 9.479 0 0 1-1.412-1.413z"/><path d="M350.477 164.72c-2.275-2.551-4.503-5.149-6.003-8.475 11.347-5.995 22.491-12.19 33.897-18.125 5.686-11.617 11.287-23.316 17.066-34.839 11.677 6.252 19.93 15.929 21.539 32.249v4.944c-.881 10.94-5.428 19.081-11.417 25.07-5.986 5.985-14.379 10.294-25.424 11.064h-3.413c-11.063-.705-18.657-4.883-24.834-10.475a9.52 9.52 0 0 0-1.411-1.413zm66.617-29.19v4.944h-.117v-4.944h.117zm-40.371 41.078h3.413v.117h-3.413v-.117z"/></g><g fill="#B8DD63"><path d="M350.288 164.833c.599.5 1.147 1.049 1.647 1.647a12.943 12.943 0 0 1-1.647-1.647zm26.227 11.998h1.766c-.356.271-1.213.042-1.766.117v-.117z"/><path d="M350.288 164.833c-2.245-2.498-4.382-5.104-5.882-8.35 11.26-6.07 22.632-12.023 33.757-18.229.273 12.623.038 25.757.117 38.577h-1.766c-10.948-.695-18.43-4.858-24.579-10.351a12.943 12.943 0 0 0-1.647-1.647z"/></g><path d="M229.877 264.55L395.1 276.161l-.61 8.68-165.224-11.61zm1.068-15.19l165.222 11.61-.61 8.682-165.222-11.611zm1.045-15.167l104.822 7.377-.61 8.68-104.824-7.378z" fill="#6CBABA"/><path fill="#CCC" d="M234.753 195.078l31.882 2.24-2.24 31.883-31.882-2.24zm44.335 3.117l31.88 2.24-2.24 31.882-31.88-2.24zm44.678 2.988l31.881 2.243-2.244 31.883-31.88-2.243zm44.328 3.128l31.881 2.244-2.244 31.882-31.88-2.243z"/><path fill="#FAA979" d="M322.104 100.947c-.537-.266-.819-.823-1.253-1.178-.859-.694-1.869-1.312-2.829-1.963-.94-.638-1.985-1.535-3.298-1.571-.42 1.229-.623 2.674-1.178 3.77-.056.389 1.031.886 1.493 1.257.503.404 1.106.986 1.414 1.334 1.333 1.522 2.643 3.436 3.688 5.339 1.084 1.974 1.864 4.224 2.356 6.674.462.314 1.246-.123 1.49-.316.742-.579 1.204-1.865 1.258-2.903.196-3.921-2.117-8.119-3.141-10.443zm22.458 4.474c-.208 2.149-.998 3.716-2.279 4.79.611.475 1.599.875 2.434 1.334 2.438 1.342 4.529 2.645 6.519 4.634 1.726 1.727 3.493 4.056 5.968 5.181.663.304 2.213.953 2.982.629.827-.349.771-1.843 1.1-2.669v-1.491c-1.515-8.198-10.303-9.12-16.724-12.408z"/><path fill="#B5CCCE" d="M304.204 127.721c.049.264-.103.73.078.863-.049-.265.101-.728-.078-.863zm-18.059 15.625c.049.239-.102.674.077.785-.047-.238.1-.677-.077-.785zm.077 2.041v2.747c.132-.733.132-2.014 0-2.747zm0 4.239c-.179.161-.026.651-.077.941.178-.159.028-.651.077-.941zm-.626 8.245c-.179.108-.029.546-.081.785.179-.108.032-.546.081-.785zm-.081 1.807c-.181.73-.025 1.804-.076 2.668.182-.733.025-1.806.076-2.668zm-.862 12.954c-.18.109-.03.545-.081.786.181-.109.032-.549.081-.786zm-.081 1.491c-.178.135-.026.6-.076.865.179-.136.028-.601.076-.865zm-.076 1.571c-.179.134-.027.598-.081.862.181-.133.03-.598.081-.862z"/><path fill="#FAA979" d="M290.541 175.773c-.482 1.007-.754 2.229-1.101 3.377.551.352-.031.821.079 1.333.113.53 1.177 1.13 1.809 1.413.898.405 2.357 1.037 2.667.55.745-1.454 1.298-3.097 1.964-4.631-2.45-.038-4.018-.955-5.418-2.042z"/><path fill="#B5CCCE" d="M284.415 177.344c-.177.135-.026.599-.075.861.179-.133.025-.599.075-.861zm-.075 1.647c-.181.185-.028.707-.079 1.02.178-.183.026-.703.079-1.02zm-.079 2.042c-.183.211-.028.758-.079 1.098.181-.211.028-.755.079-1.098zm-.079 2.197c-.183.473-.026 1.283-.079 1.886.182-.471.028-1.283.079-1.886zm-.079 2.986c-.182.261-.028.86-.079 1.255.182-.264.029-.863.079-1.255zm-.08 2.432c-.181.344-.025 1.021-.078 1.493.182-.341.028-1.018.078-1.493zm5.34 1.727h-.863c.11.132.753.132.863 0zm-5.418 1.809c-.181.548-.025 1.437-.078 2.119.184-.553.028-1.441.078-2.119zm-.078 3.375c-.181.212-.026.757-.079 1.099.183-.213.029-.758.079-1.099z"/><path fill="#539798" d="M306.952 199.013c.108.132.752.132.862 0h-.862z"/><path fill="#B5CCCE" d="M283.476 202.392c-.181.105-.031.545-.078.781.177-.108.028-.545.078-.781zm-.079 1.568c-.183.264-.027.862-.08 1.256.182-.264.029-.862.08-1.256z"/><path fill="#FAA979" d="M282.455 207.021c-1.275.787-3.461 1.117-5.341.631v.705c-.051.995.075 1.812.079 2.75.564-.312.138.857.471 1.018 1.415.413 4.069.331 5.262-.233.032-1.816-.229-3.332-.471-4.871z"/><path fill="#539798" d="M305.693 216.13c-.082-.13-.699-.13-.783 0h.783zm-11.932 5.497c.368-.052.94.103 1.179-.08h-1.179v.08z"/><path fill="#B5CCCE" d="M293.761 221.627v-.08h-1.179c.237.182.811.028 1.179.08z"/><path fill="#539798" d="M308.836 74.801a9.726 9.726 0 0 0-1.18-1.178c.362.425.753.819 1.18 1.178z"/><path fill="#B5CCCE" d="M318.335 85.479a78.227 78.227 0 0 0-3.296-3.297 77.05 77.05 0 0 0 3.296 3.297z"/><path fill="#539798" d="M320.22 87.363a25.005 25.005 0 0 0-1.885-1.884c.598.662 1.224 1.29 1.885 1.884z"/><path fill="#B5CCCE" d="M243.904 38.919a16.265 16.265 0 0 0 1.49-1.492c-.529.465-1.025.962-1.49 1.492z"/><path fill="#9BC143" d="M276.564 35.386c.755 3.985 2.173 7.278 4.947 9.03.483.305 2.066 1.204 2.67 1.098.493-.086.815-1.042 1.178-1.414.591-.606 1.266-.921 1.963-1.255 5.886 11.152 12.944 21.131 20.334 30.778.361.425.753.819 1.18 1.178 2.149 2.376 3.969 5.085 6.203 7.38a76.476 76.476 0 0 0 3.296 3.297c.598.662 1.224 1.29 1.885 1.884a120.403 120.403 0 0 0 17.273 13.427c1.44.924 3.124 1.99 4.947 2.748 1.128.469 2.225.315 2.121 1.884-.208 2.149-.998 3.716-2.279 4.79-1.026.62-2.346-.07-3.61-.551-.939-.355-1.818-.774-2.514-1.098-4.974-2.314-10.003-4.826-14.055-7.616-.537-.266-.819-.823-1.253-1.178-.859-.694-1.869-1.312-2.829-1.963-.94-.638-1.985-1.535-3.298-1.571-.42 1.229-.623 2.674-1.178 3.77-.556.629-2.059-.007-2.983-.235-2.793-.689-5.15-1.083-8.164-1.492-3.865-.523-7.399-1.247-10.837-2.042-3.272-.756-6.256-2.304-9.106-3.768-1.303-.668-2.8-1.383-4.162-2.276-.784-.516-2.951-2.687-3.848-2.67-.563.012-1.512.81-2.197 1.178-2.305 1.232-5.111 2.075-7.381 2.984-9.968 3.988-20.689 6.816-34.705 6.438-1.393-.075-2.9-.03-4.083-.314-.681-2.328-.763-5.257-.941-8.087v-1.413c-.051-.839.104-1.885-.079-2.592V83.36c.18-.16.028-.653.079-.943.025-4.757.788-9.523 1.882-13.741 2.174-8.362 5.877-14.787 9.974-21.121 2.047-3.167 4.471-5.86 6.91-8.636a16.265 16.265 0 0 0 1.49-1.492c7.283-6.068 16.057-12.499 30.148-10.835.445 2.791.478 5.906 1.022 8.794zm17.588 43.812c-5.778-6.157-10.703-13.167-14.524-21.279-.897 1.836-1.263 3.945-1.964 6.124-.286.898-.662 1.918-.941 3.063-.253 1.048-.689 2.437-.549 3.455.131.967 1.104 2.343 1.569 3.22 1.123 2.111 2.141 4.09 3.534 6.046.648.913 1.336 1.977 2.04 2.669.66.646 1.698 1.209 2.59 1.805 2.588 1.727 5.669 3.227 8.952 4.161 4.575 1.305 9.41 2.655 13.819 3.69-4.187-3.507-8.347-7.043-12.326-10.756a34.556 34.556 0 0 0-2.2-2.198z"/><path fill="#2A7D7D" d="M313.546 100.004c-.556.629-2.059-.007-2.983-.235-2.793-.689-5.15-1.083-8.164-1.492-3.865-.523-7.399-1.247-10.837-2.042-3.272-.756-6.256-2.304-9.106-3.768-1.303-.668-2.8-1.383-4.162-2.276-.784-.516-2.951-2.687-3.848-2.67-.563.012-1.512.81-2.197 1.178-2.305 1.232-5.111 2.075-7.381 2.984-9.968 3.988-20.689 6.816-34.705 6.438.716 1.377 1.8 2.387 2.747 3.533a82.724 82.724 0 0 1 3.377 3.377c.232.108.317.363.549.471.321.255.61.542.866.863.18.053.21.261.391.315.322.254.609.543.864.863.231.109.316.362.55.472.399.333.766.7 1.099 1.098.257.136.372.416.628.549.74.675 1.445 1.382 2.121 2.122.241.175.451.385.627.627.504.438.978.91 1.414 1.413 5.36 6.131 9.93 13.05 13.82 20.651.302.298.455.748.628 1.178 2.34 4.968 4.373 10.169 6.438 15.625 2.027 5.35 3.323 11.274 4.632 17.43 2.213 10.424 3.821 21.737 4.789 33.762.147 1.833.012 4.682 1.177 5.103.126-.021.138.074.236.08 1.88.486 4.065.156 5.341-.631.772-.115.95-.826.862-1.805.053-.394-.103-.992.08-1.256v-.787c.047-.236-.103-.676.078-.781.017-2 .244-3.788.313-5.734.053-.342-.102-.887.079-1.099v-1.256c.053-.683-.103-1.571.078-2.119v-2.042c.053-.473-.103-1.149.078-1.493v-1.178c.051-.395-.103-.994.079-1.255v-1.1c.053-.603-.104-1.413.079-1.886v-1.1c.051-.34-.104-.887.079-1.098v-1.022c.051-.313-.102-.834.079-1.02v-.787c.049-.262-.102-.726.075-.861v-.788c.054-.264-.098-.728.081-.862v-.707c.05-.265-.102-.729.076-.865v-.706c.051-.241-.099-.677.081-.786.055-3.635.582-6.799.785-10.285.051-.865-.104-1.938.076-2.668v-1.022c.052-.239-.098-.677.081-.785.118-2.499.495-4.741.549-7.304.051-.29-.102-.78.077-.941v-5.496c-.179-.111-.028-.546-.077-.785-.999-10.747-5.001-19.266-9.656-26.852-.598-.972-1.647-2.37-1.493-3.69.253-2.183 2.672-1.59 4.865-1.257 8.582 1.304 15.786 3.63 20.888 8.244.348.282.661.596.942.942 1.476 1.691 2.45 3.883 2.514 6.988.179.135.029.599.078.863.137 4.875-.831 9.165-2.042 13.113-2.941 9.588-6.652 18.275-10.443 27.401-.34.821-.648 1.664-1.098 2.672-.67 1.497-1.806 3.05-.158 4.004 1.4 1.087 2.968 2.004 5.418 2.041 1.095.088 2.104-2.214 2.747-3.298 4.899-8.234 9.072-17.169 13.585-25.675 1.282-2.417 2.383-5.095 3.455-7.773 1.063-2.658 2.344-5.286 3.219-8.008.881-2.756 1.841-5.638 2.59-8.636.769-3.068 1.479-6.371.943-9.814-.492-2.45-1.272-4.7-2.356-6.674-1.046-1.903-2.355-3.816-3.688-5.339-.308-.348-.911-.93-1.414-1.334-.464-.37-1.551-.868-1.495-1.257z"/><path fill="#539798" d="M296.353 81.396a35.07 35.07 0 0 0-2.2-2.197 35.343 35.343 0 0 0 2.2 2.197z"/><path fill="#B5CCCE" d="M245.395 113.823c-.437-.503-.91-.974-1.414-1.413.439.504.909.974 1.414 1.413zm14.448 21.828c-.173-.43-.326-.88-.628-1.178.218.383.364.839.628 1.178zm17.271 72c-.099-.006-.11-.102-.236-.08.305.037.027.652.236.785v-.705zm24.576-86.919a6.355 6.355 0 0 0-.942-.942c.281.348.596.66.942.942zm-2.354 67.448a7.47 7.47 0 0 0-1.021-1.022c.306.372.648.713 1.021 1.022z"/><path fill="#9BC143" d="M289.44 179.15c-2.844-.309-2.864 2.21-3.296 4.318.129.365.129 1.279 0 1.648-.063 2.238.556 3.79 1.414 5.104.258.108.547.183.941.155h.863c.198-.008.304-.112.313-.313.052-.525-.103-1.257.08-1.648.079-.105.074-.292.234-.313 1.22 1.213 1.798 2.779 2.826 4.084.984 1.242 2.419 2.229 3.77 3.218 2.481 1.817 6.518 3.231 10.365 3.611h.862c1.428.024 3.477-.125 3.377-1.648-.062-.919-2.184-1.779-2.983-2.275-3.326-2.066-6.438-4.589-8.872-6.909a7.527 7.527 0 0 1-1.021-1.022c-1.653-1.504-2.154-4.141-3.612-5.81-.201.4-.358.847-.707 1.098-.31.487-1.769-.145-2.667-.55-.632-.283-1.695-.883-1.809-1.413-.109-.514.473-.983-.078-1.335z"/><path fill="#B5CCCE" d="M286.145 183.468v1.648c.128-.369.128-1.283 0-1.648zm3.612 4.945c-.183.392-.028 1.123-.08 1.648.184-.392.028-1.123.08-1.648zm14.368 27.717h-4.004c1.15.129 2.851.129 4.004 0z"/><path fill="#9BC143" d="M300.121 216.13c-5.555-.381-10.042-1.589-13.507-3.849-1.183-.77-2.25-1.734-3.61-2.196-.069.583.431 1.524-.078 1.806-1.192.564-3.847.646-5.262.233-.333-.16.094-1.329-.471-1.018-.991.24-1.162 2.746-1.1 3.845.125 2.141 1.467 5.236 2.671 6.596.485.547 1.007 1.272 1.334 1.334h.863c.799-.409 1.805-.791 1.884-1.49.082-.734-.777-1.136-.628-2.278.875-.192 1.511.476 2.197.865 2.153 1.215 4.796 1.535 8.167 1.569h2.358c3.492-.146 7.497-.913 9.971-2.512.701-.451 2.275-2.254.783-2.905h-1.568c-1.153.129-2.854.129-4.004 0z"/><g fill="#FAA979"><path d="M276.564 26.671c-.346-.021-.608-.125-1.021-.079.444 2.791.477 5.906 1.021 8.793.755 3.985 2.173 7.278 4.947 9.03.483.305 2.066 1.204 2.67 1.098.493-.086.815-1.042 1.178-1.414.591-.606 1.266-.921 1.963-1.255 1.963-2.206 5.632-.564 7.852.314 3.895 1.544 8.21 1.172 10.442-1.649 1.268.386 2.355 1.352 3.847 1.257.827-.889-.338-1.662-.393-2.592-.078-1.368 1.094-2.449 1.099-3.926.96-1.267 1.715-2.736 2.437-4.24-3.431-.41-5.681-3.137-8.873-3.926a5.412 5.412 0 0 0-1.099-.157c-.794-.019-1.764.458-2.592.314-.53-.092-.802-.712-1.336-.943-2.397-1.037-4.202 1.782-4.004 4.476-5.512 3.663-16.984 1.222-18.138-5.101z"/><path d="M277.299 20.64c-.349-.021-.607-.125-1.021-.077.442 2.791.473 5.905 1.021 8.793.753 3.985 2.172 7.278 4.945 9.029.483.306 2.067 1.206 2.67 1.099.495-.086.816-1.041 1.178-1.413.593-.606 1.266-.921 1.962-1.255 1.962-2.207 5.634-.565 7.854.313 3.893 1.542 8.21 1.174 10.44-1.648 1.271.386 2.356 1.354 3.85 1.257.827-.89-.342-1.661-.393-2.592-.081-1.368 1.093-2.448 1.097-3.925.96-1.267 1.716-2.737 2.435-4.241-3.429-.409-5.68-3.136-8.87-3.925a5.257 5.257 0 0 0-1.102-.157c-.791-.019-1.761.458-2.589.314-.532-.092-.804-.712-1.336-.942-2.398-1.038-4.203 1.781-4.005 4.476-5.51 3.658-16.987 1.217-18.136-5.106z"/></g><path fill="#485D70" d="M318.714 22.817l-.313-1.45c-.245-.404-.485-.81-.744-1.204-.572-.878-1.152-1.747-1.729-2.62-.501-.756-.561-1.562-.27-2.407.145-.425.398-.855.402-1.283.008-.825.074-1.673-.303-2.472-.458-.981-.859-2.013-1.736-2.693-.904-.706-1.827-1.446-2.858-1.914-1.84-.839-3.833-1.154-5.859-.954-.837.081-1.712.196-2.471.526-.825.358-1.547.965-2.286 1.498a3.813 3.813 0 0 0-.791.773c-.52.683-.914 1.42-.991 2.313-.065.739-.329.941-1.076 1.029-.092.009-.181.009-.271.017-.634.042-1.274.031-1.895.142-.939.171-1.809.536-2.657 1.017-.988.563-1.879 1.215-2.621 2.079-1.061 1.227-2.118 2.456-3.404 3.472-.974.771-2.032 1.304-3.235 1.568-1.859.407-3.584-.12-5.28-.789-.707-.278-1.382-.648-2.084-.94-2.015-.832-4.159-1.005-6.3-1.122-.978-.052-1.964-.016-2.938.047-.995.066-1.998.138-2.967.35-.929.204-1.825.571-2.724.902-1.228.452-2.411.99-3.416 1.858-1.063.916-2.241 1.651-3.644 1.87-.916.14-1.855.121-2.783.175-.694.041-1.397.021-2.082.144-.732.131-1.445.386-2.156.608-.852.27-1.672.61-2.377 1.177-.12.095-.256.169-.39.246-.585.345-1.204.646-1.758 1.042-.954.676-1.868 1.415-2.802 2.12-.297.224-.455.467-.323.853.081.235.378.402.608.354.611-.123 1.225-.269 1.842-.302.587-.031 1.182.114 1.772.101 1.857-.039 3.662.276 5.401.87 2.474.842 4.655 2.27 6.817 3.695 1.128.745 2.16 1.639 3.213 2.499a26.273 26.273 0 0 1 1.81 1.642c.59.58 1.105 1.237 1.721 1.789 1.007.898 2.053 1.746 3.102 2.596.551.448 1.1.918 1.717 1.256.87.479 1.783.893 2.711 1.245 1.095.414 2.205.833 3.346 1.067 1.527.314 3.09.475 4.641.664 1.102.136 2.212.241 3.307-.093.193-.057.42-.004.633-.004l.761-.165c.566-.232 1.127-.49 1.705-.699 1.507-.548 2.867-1.335 4.002-2.474.544-.547 1.082-1.119 1.519-1.75.494-.71.883-1.49 1.298-2.25.749-1.379 1.255-2.858 1.694-4.362.164-.555.296-1.12.463-1.674.159-.536.324-1.068.521-1.591a9.27 9.27 0 0 1 .533-1.196c.387-.71.93-1.328 1.084-2.168.071-.372.303-.729.509-1.065.282-.451.775-.622 1.245-.778.293-.096.621-.118.93-.106.876.029 1.592.651 2.496.666.453.011.894.281 1.349.404 1.185.319 2.255.868 3.261 1.546 1.113.746 2.192 1.547 3.323 2.259 1.188.741 2.4 1.45 3.775 1.8.979.25 1.96.405 2.879-.194.31-.202.591-.454.865-.703.266-.243.563-.477.752-.774.78-1.225 1.396-2.513 1.533-3.995.114-1.26.359-2.513-.031-3.767-.032-.096.014-.215.025-.321"/><path d="M310.471 36.723c-.656-1.428-1.792 1.041-2.199 1.57-.13.171-.457.587-.626.707-.728.507-2.959.876-2.279 2.434.493 1.122 2.693 1.034 3.77 1.885h.315c1.245-.26.043-1.608-.08-2.434-.208-1.45.97-2.774 1.1-3.848l-.001-.314zm-12.249-12.131h-.392c-1.772.478-2.51 1.992-2.904 3.847v.706c.259 1.315 1.469 3.386 2.59 3.377 1.781-.017.267-1.815.393-2.749.17-1.235 2.559-1.808 2.591-3.063.03-1.21-1.344-1.823-2.278-2.118z" fill="#FB836F"/></g><g fill-rule="evenodd" clip-rule="evenodd"><path fill="#9BC143" d="M132.349 185.313c1.725.16 3.448.37 5.176.477 16.684 1.037 33.37 2.054 50.054 3.079 2.667.164 5.332.339 8.167.518 0 2.161.046 4.272-.044 6.373-.016.362-.563.783-.956 1.03-3.915 2.46-7.833 4.914-11.79 7.304-.823.499-1.05 1.038-.933 1.951a11552.83 11552.83 0 0 1 4.516 35.441c1.402 11.147 2.767 22.299 4.168 33.44 1.486 11.82 2.997 23.635 4.494 35.451.862 6.814 1.69 13.629 2.606 20.438.169 1.24-.21 1.956-1.331 2.333-.638.214-1.291.439-1.954.522-1.874.235-2.364-.216-2.621-2.094-1.475-10.833-2.968-21.667-4.456-32.499-.611-4.449-1.226-8.899-1.843-13.347-.063-.452-.146-.896-.247-1.499-.477.254-.846.427-1.194.636-3.651 2.156-7.287 4.337-10.958 6.458-.731.423-.963.868-.91 1.711.787 12.19 1.536 24.383 2.295 36.574.462 7.45.91 14.9 1.407 22.349.054.813-.228 1.265-.942 1.361-1.118.15-2.269.32-3.38.211-1.268-.125-1.957-.785-2.06-2.32-.836-12.44-1.781-24.876-2.71-37.312-.519-6.933-1.073-13.866-1.611-20.798-.019-.249-.058-.495-.07-.604l-30.384-1.746c-.057.667-.132 1.28-.157 1.897-.437 11.149-.871 22.297-1.293 33.447-.07 1.805-.226 2.051-2.019 2.453a4.866 4.866 0 0 1-1.512.099c-1.79-.185-2.16-.6-2.119-2.379.273-11.45.535-22.902.867-34.354.038-1.29-.3-1.649-1.579-1.698-4.449-.176-8.894-.482-13.338-.749-.414-.024-.824-.125-1.372-.215-.277 2.331-.561 4.628-.825 6.928-.922 8.087-1.84 16.172-2.753 24.259a17892.73 17892.73 0 0 0-2.808 25.025c-.206 1.844-.576 2.232-2.436 2.272a5.9 5.9 0 0 1-1.625-.201c-1.18-.311-1.81-.9-1.655-2.341.73-6.874 1.349-13.758 2.004-20.64.553-5.825 1.092-11.651 1.649-17.479.816-8.524 1.644-17.048 2.458-25.575.706-7.387 1.402-14.775 2.103-22.16l2.18-22.921 2.683-28.369c.054-.58.123-1.16.198-1.874-5.005-.416-9.935-.822-14.879-1.232l-.384-2.571v-4.839c8.539-3.357 17.081-6.708 25.611-10.084 1.669-.659 3.299-1.423 4.946-2.138h3.566zm3.167 85.968l28.249 1.663c-.139-2.113-.255-4.045-.399-5.976-.73-9.638-1.47-19.272-2.197-28.909-.684-9.045-1.372-18.092-2.008-27.141-.067-.936-.373-1.197-1.266-1.262-4.907-.354-9.806-.776-14.71-1.168-1.679-.135-3.362-.233-5.192-.356l-2.477 63.149m-13.93-64.482c-2.686 23.803-5.356 47.485-8.04 71.267.245 0 .338.025.412-.002 4.826-1.844 9.657-3.674 14.461-5.57.318-.127.615-.748.628-1.147.2-6.442.345-12.885.514-19.327.206-7.885.43-15.769.631-23.65.171-6.611.332-13.225.446-19.84.004-.347-.424-.984-.702-1.015-2.729-.292-5.471-.484-8.35-.716m45.588 3.671l3.911 62.881 12.913.715c-2.988-21.772-5.948-43.313-8.892-64.746-1.35.504-2.549 1.183-3.825 1.366-1.287.184-2.646-.121-4.107-.216m-2.435 74.836c-.184-2.429-.361-4.781-.547-7.27-9.634-.52-19.181-1.032-28.921-1.556v7.276c9.744.514 19.538 1.028 29.468 1.55m-35.93-7.796l-11.879 4.971.052.271 11.828.623v-5.865zm42.965 6.934c3.253-1.804 6.332-3.509 9.41-5.218l-.074-.29c-3.179-.168-6.36-.334-9.684-.512.12 2.058.228 3.938.348 6.02"/><path fill="#B8DD63" d="M128.189 185.313h3.565c2.656.204 5.309.438 7.966.604 15.946 1.004 31.896 1.988 47.841 2.982 2.257.14 4.518.293 7.133.466-.694.457-1.065.719-1.453.954-7.112 4.278-14.229 8.555-21.34 12.839-.5.301-.961.665-1.441.996h-2.038c-.828-.113-1.653-.263-2.488-.341-10.799-.994-21.601-1.987-32.401-2.961-10.802-.975-21.607-1.928-32.409-2.896-.968-.087-1.932-.221-2.896-.332a1.62 1.62 0 0 1 .79-.6c7.679-3.034 15.365-6.055 23.039-9.107 2.062-.819 4.089-1.732 6.132-2.604"/><path fill="#597387" d="M104.531 192.127v4.395c.063.158.155.31.184.472.4 2.234 1.504 4.104 3.004 5.755 1.022 1.126 2.264 1.804 3.853 1.702.754-.05 1.513-.021 2.269-.021 20.179-.002 40.358-.002 60.538.002.494 0 .91-.025 1.3-.459 4.073-4.541 8.17-9.057 12.268-13.569.734-.811 1.509-1.585 2.267-2.376v-2.196c-1.313.023-2.625.028-3.937.081-.541.021-.708-.145-.705-.699.026-2.997-.001-5.993.031-8.989.005-.342.186-.76.423-1.011 1.141-1.2 2.337-2.348 3.491-3.536.205-.213.405-.52.428-.797.051-.625-.01-1.26-.025-1.893h-54.192c-.213.206-.397.456-.643.605a9628.35 9628.35 0 0 1-16.617 10.019c-2.917 1.755-5.792 3.589-8.772 5.227-2.028 1.114-3.44 2.668-4.307 4.757-.34.819-.574 1.687-.858 2.531"/><path fill="#CCC" d="M111.167 201.313h62.248c2.466-2.928 4.925-5.859 7.398-8.778 1.673-1.977 3.368-3.935 5.053-5.899 0-3.537.001-7.076-.007-10.614 0-.192-.091-.385-.141-.575-.155.204-.292.429-.469.615-3.717 3.845-7.444 7.68-11.146 11.54-.428.446-.855.603-1.462.604-20.015.047-40.03.112-60.043.145-.808.003-1.279.252-1.563.956-.054.135-.143.254-.192.391-.383 1.061-.76 2.124-1.14 3.187v4.36l1.464 4.068z"/><path fill="#B8DD63" d="M93.213 172.599v4.395c.064.156.155.308.185.471.399 2.232 1.503 4.104 3.003 5.754 1.022 1.125 2.263 1.803 3.854 1.702.754-.05 1.512-.022 2.268-.022 20.181 0 40.358 0 60.538.003.494 0 .911-.026 1.3-.462 4.073-4.538 8.169-9.053 12.268-13.568.735-.81 1.511-1.583 2.267-2.374v-2.197c-1.313.024-2.625.029-3.936.082-.54.022-.709-.144-.704-.698.025-2.998-.002-5.995.03-8.991.003-.343.185-.76.423-1.011 1.14-1.2 2.337-2.347 3.491-3.536.205-.211.405-.519.427-.796.052-.627-.011-1.262-.026-1.893H124.41c-.213.203-.396.455-.642.604a9383.027 9383.027 0 0 1-16.617 10.018c-2.917 1.755-5.792 3.59-8.772 5.228-2.028 1.113-3.44 2.667-4.307 4.758-.341.822-.575 1.688-.859 2.533"/><path fill="#CCC" d="M99.85 181.785h62.249c2.464-2.927 4.923-5.86 7.396-8.78 1.673-1.974 3.368-3.933 5.053-5.9 0-3.537.003-7.074-.006-10.612-.001-.192-.092-.385-.141-.577-.156.207-.292.432-.471.617-3.716 3.846-7.444 7.678-11.145 11.539-.429.447-.856.605-1.462.606-20.016.045-40.029.112-60.043.145-.807.002-1.278.253-1.563.957-.054.133-.143.254-.192.389-.384 1.062-.76 2.125-1.139 3.188v4.36l1.464 4.068z"/><path fill="#E8E8E8" d="M174.542 156.774c-.001-.192-.091-.384-.141-.576-.156.207-.292.431-.471.617-3.716 3.846-7.444 7.679-11.145 11.539a2.063 2.063 0 0 1-.444.349v13.073c2.383-2.83 4.761-5.665 7.153-8.489 1.673-1.975 3.368-3.933 5.053-5.899.001-3.54.004-7.076-.005-10.614z"/><path fill="#F8A879" d="M111.558 148.188v4.395c.064.158.155.308.185.471.399 2.234 1.503 4.104 3.004 5.753 1.022 1.127 2.263 1.805 3.854 1.703.753-.051 1.512-.021 2.268-.021 20.18-.001 40.359-.001 60.538.003.495 0 .911-.026 1.3-.461 4.073-4.54 8.17-9.054 12.268-13.57.736-.809 1.511-1.582 2.268-2.374v-2.198c-1.312.022-2.625.029-3.936.082-.54.021-.71-.144-.705-.699.027-2.997-.001-5.994.031-8.99.005-.342.186-.759.422-1.01 1.141-1.201 2.338-2.348 3.492-3.536.206-.212.405-.519.428-.797.051-.625-.01-1.261-.024-1.893h-54.192c-.214.204-.397.455-.643.604a9033.967 9033.967 0 0 1-16.616 10.019c-2.917 1.756-5.792 3.589-8.773 5.228-2.028 1.115-3.439 2.668-4.307 4.758-.344.822-.579 1.688-.862 2.533"/><path fill="#CCC" d="M118.195 157.373h62.248c2.464-2.927 4.923-5.857 7.396-8.776 1.673-1.977 3.368-3.935 5.054-5.899 0-3.539.001-7.077-.006-10.616-.001-.191-.092-.384-.142-.576-.155.206-.292.431-.469.617-3.716 3.845-7.444 7.679-11.145 11.538-.428.449-.857.605-1.464.606-20.013.045-40.028.112-60.043.146-.808.003-1.278.251-1.563.955-.054.134-.142.254-.191.389-.384 1.061-.76 2.126-1.14 3.188v4.36l1.465 4.068z"/><path fill="#E8E8E8" d="M192.887 132.227c-.001-.193-.092-.385-.142-.578-.155.208-.292.432-.469.618-3.716 3.845-7.445 7.679-11.145 11.539a2.056 2.056 0 0 1-.444.349v13.073c2.383-2.829 4.761-5.664 7.152-8.489 1.673-1.976 3.368-3.933 5.054-5.899 0-3.539.002-7.076-.006-10.613zm-7.028 43.795c0-.193-.09-.385-.141-.576-.155.206-.292.431-.469.615-3.717 3.846-7.444 7.68-11.145 11.541a2.166 2.166 0 0 1-.445.349v13.073c2.383-2.83 4.762-5.666 7.153-8.489 1.673-1.976 3.368-3.934 5.053-5.899.001-3.537.003-7.076-.006-10.614z"/></g><path fill-rule="evenodd" clip-rule="evenodd" fill="#2A7D7D" d="M443.281 332.682l-.307-1.204c-.044-.43-.106-.858-.123-1.289-.052-1.326.161-2.595.847-3.753 1.088-1.844 3.056-2.357 4.91-1.291.628.361 1.15.838 1.609 1.394.064.076.108.131.229.081.806-.321 1.612-.637 2.42-.955 1.458-.573 2.917-1.146 4.373-1.728a.711.711 0 0 0 .291-.219c.674-.913 1.339-1.832 2.005-2.75 1.105-1.525 2.205-3.056 3.308-4.582.14-.037.281-.072.423-.107.472.05.83.3 1.156.619.507.497.902 1.084 1.258 1.697.982 1.692 1.666 3.513 2.245 5.377.089.289.176.582.266.884l.254-.063c2.961-.76 5.924-1.503 8.881-2.285.631-.168 1.227-.229 1.854-.024.224.073.459.104.727.161-.388.364-.735.703-1.096 1.024a1.011 1.011 0 0 1-.408.224c-3.191.823-6.384 1.64-9.579 2.458-.075.02-.148.036-.231.057.021.091.033.155.046.22.415 1.887.729 3.786.771 5.721.021.923-.009 1.841-.245 2.738-.13.492-.323.946-.762 1.253-.14.037-.279.071-.425.107-.316-.158-.633-.32-.952-.473-.667-.321-1.338-.631-2.006-.949-1.813-.862-3.625-1.727-5.439-2.588a.209.209 0 0 0-.109-.011c-.742.095-1.484.188-2.224.281-1.681.213-3.36.432-5.041.638-.131.017-.174.063-.2.189-.143.775-.408 1.505-.847 2.165-1.074 1.616-2.926 2.083-4.628 1.163-1.257-.68-2.109-1.737-2.736-2.991-.195-.388-.346-.795-.515-1.189"/><path fill-rule="evenodd" clip-rule="evenodd" fill="#F3816F" d="M373.928 310.496l.272 1.211c.031.432.082.861.087 1.293.016 1.327-.233 2.589-.951 3.728-1.14 1.813-3.12 2.271-4.944 1.153-.618-.379-1.127-.87-1.57-1.438-.063-.078-.104-.134-.227-.087-.814.298-1.629.591-2.446.887-1.473.532-2.948 1.063-4.419 1.604a.722.722 0 0 0-.297.21c-.7.895-1.39 1.795-2.081 2.693-1.147 1.493-2.29 2.993-3.435 4.487-.141.033-.283.064-.426.096-.471-.063-.821-.322-1.139-.651-.493-.511-.872-1.108-1.209-1.731-.936-1.719-1.567-3.559-2.095-5.438-.081-.292-.159-.587-.241-.892l-.255.057c-2.981.677-5.964 1.337-8.941 2.036-.635.15-1.232.194-1.854-.028-.221-.079-.456-.115-.722-.181.398-.354.754-.682 1.123-.993.117-.098.268-.181.415-.213 3.213-.732 6.427-1.46 9.644-2.188.077-.018.149-.032.233-.05-.018-.092-.028-.156-.04-.221-.361-1.898-.622-3.806-.61-5.74.006-.924.061-1.84.322-2.73.144-.488.35-.938.796-1.231.141-.033.282-.063.429-.096.311.167.623.338.938.499.659.34 1.32.668 1.979 1.006 1.788.912 3.574 1.826 5.364 2.738a.209.209 0 0 0 .109.014l2.23-.219c1.686-.166 3.371-.337 5.057-.496.132-.014.176-.059.206-.184.164-.771.45-1.493.906-2.141 1.12-1.586 2.983-2 4.659-1.033 1.237.715 2.06 1.795 2.652 3.066.183.393.323.803.481 1.203"/><path fill-rule="evenodd" clip-rule="evenodd" fill="#539798" d="M259.139 323.059c.506.021 1.051-.074 1.513.078 8.139 2.713 16.262 5.469 24.404 8.164.712.234 1.595.336 2.285.123.607-.178 1.063-.879 1.582-1.352-.484-.486-.888-1.207-1.473-1.43-2.75-1.039-5.553-1.926-8.334-2.887-7.009-2.424-14.016-4.857-21.021-7.283-1.39-.48-2.782-.48-4.127.113-1.728.77-2.298 2.525-1.107 3.975.725.877 1.788 1.668 2.857 2.035 6.774 2.328 13.591 4.527 20.395 6.771 4.563 1.504 9.127 3.006 13.689 4.504 2.513.822 4.975.803 7.304-.59 1.045-.623 1.867-1.477 1.715-2.801-.139-1.242-1.024-1.924-2.151-2.318-7.031-2.473-14.063-4.949-21.094-7.414-4.887-1.717-9.781-3.398-14.652-5.152-.461-.168-.784-.73-1.174-1.109.522-.055 1.11-.303 1.56-.143a7527.276 7527.276 0 0 1 36.342 12.793c1.449.516 2.727 1.404 2.893 3.102.16 1.691-.894 2.807-2.231 3.604-3.231 1.922-6.57 1.779-10.047.623-10.849-3.604-21.73-7.092-32.575-10.711-1.37-.457-2.767-1.219-3.81-2.199-2.342-2.199-1.52-5.332 1.499-6.381 1.766-.609 3.525-.508 5.25.09 9.975 3.469 19.939 6.961 29.906 10.443 1.07.373 2.082.883 2.081 2.16 0 1.299-.973 2.098-2.086 2.326-1.254.258-2.704.475-3.874.102-8.211-2.619-16.372-5.393-24.543-8.133-.387-.131-.715-.43-1.076-.648.035-.153.067-.305.1-.455"/><path fill="#91E8E5" d="M88.613 232.019c-.06-1.512-.059-3.028-.185-4.534-.17-2.05-1.367-3.436-3.104-4.409a5.224 5.224 0 0 0-2.607-.662h-2.918v-.566c-.006-1.592.021-3.188-.037-4.777a4.999 4.999 0 0 0-.396-1.794c-.41-.923-1.116-1.533-2.218-1.526-.461.004-.923-.037-1.383-.071-.128-.01-.255-.064-.382-.099h-43.94c-.127.034-.253.089-.383.099-.476.032-.956.037-1.432.077-1.385.112-2.404 1.029-2.573 2.421-.109.898-.103 1.812-.117 2.72-.018 1.13-.004 2.262-.004 3.462l-.665.035c-1.129.059-2.266.062-3.388.188-2.163.242-4.349 2.447-4.542 4.62-.142 1.602-.148 3.215-.22 4.822-.015.331-.051.661-.078.99v.958c1.371.04 2.742.087 4.114.112.332.006.461.093.499.453.354 3.408.735 6.814 1.104 10.221.367 3.393.726 6.785 1.094 10.175.397 3.662.804 7.321 1.203 10.981.367 3.375.726 6.752 1.093 10.128.366 3.375.741 6.748 1.111 10.124.364 3.327.712 6.658 1.094 9.983.26 2.263.446 4.545.887 6.773.09.459.237.879.423 1.27 7.93.12 15.828.726 23.742 1.228 6.96.442 13.725.276 20.642.126.924-.98 1.431-2.206 1.592-3.678.624-5.686 1.33-11.362 1.973-17.046.577-5.1 1.11-10.203 1.667-15.306.56-5.133 1.128-10.265 1.687-15.397.526-4.832 1.042-9.666 1.565-14.498.185-1.712.383-3.421.554-5.133.031-.314.155-.397.447-.403 1.388-.029 2.775-.073 4.162-.113v-.862c-.029-.366-.066-.729-.081-1.092z"/><path fill="#F3816F" d="M78.734 283.75H27.996c-.047-.459-.09-.919-.14-1.377-.331-3.042-.665-6.084-.995-9.127-.337-3.104-.67-6.21-1.007-9.315-.334-3.09-.67-6.179-1.006-9.268l-.923-8.459c-.122-1.123-.238-2.245-.361-3.399h59.594c-.021.275-.036.527-.063.777-.273 2.503-.551 5.007-.823 7.51-.334 3.074-.663 6.148-.997 9.224-.337 3.105-.678 6.211-1.018 9.316-.334 3.058-.673 6.116-1.004 9.174-.178 1.648-.346 3.296-.519 4.944m9.956-49.876H18.04v-.67c.025-.235.061-.47.071-.706.077-1.797.09-3.602.237-5.393.177-2.165 2.381-4.379 4.542-4.612 1.154-.124 2.32-.131 3.482-.191.183-.011.365-.026.564-.041 0-.985-.013-1.911.004-2.835.021-1.113.011-2.232.122-3.339.125-1.229 1.166-2.311 2.188-2.394.651-.053 1.305-.066 1.957-.106.144-.01.285-.068.427-.104h43.749c.127.034.253.09.382.1.46.033.922.073 1.383.069 1.102-.007 1.808.604 2.218 1.528.244.55.375 1.188.396 1.792.059 1.592.03 3.186.037 4.779v.564h2.918a5.224 5.224 0 0 1 2.607.662c1.737.974 2.934 2.359 3.104 4.411.125 1.505.125 3.021.185 4.532.015.364.051.727.077 1.091v.863z"/><ellipse fill="#91E8E5" cx="53.361" cy="303.326" rx="22.941" ry="5.674"/></svg>