<svg xmlns="http://www.w3.org/2000/svg" width="500" height="360"><g fill-rule="evenodd" clip-rule="evenodd"><path fill="#2A7D7D" d="M127.526 273.139h-18.351c-.367-.062-.732-.153-1.102-.176-4.064-.259-8.134-.437-12.193-.762-13.712-1.103-27.234-3.307-40.451-7.198-8.085-2.379-15.928-5.359-23.186-9.721-4.199-2.522-8.032-5.474-11.083-9.365-1.849-2.357-2.925-5.06-3.74-7.894v-14.275c1.132 0 2.269-.069 3.394.021 1.291.101 2.296-.203 3.158-1.256.686-.836 1.575-1.517 2.424-2.202 6.244-5.039 13.409-8.37 20.872-11.108 9.44-3.462 19.176-5.794 29.088-7.455 8.787-1.472 17.622-2.48 26.519-2.942 2.104-.111 4.202-.287 6.302-.431h18.351c.48.065.958.165 1.441.193 3.576.209 7.172.247 10.729.637 6.97.759 13.942 1.552 20.868 2.622 10.83 1.672 21.407 4.392 31.616 8.428 6.656 2.628 13.01 5.817 18.573 10.404 1.231 1.018 2.295 2.469 3.705 2.974 1.437.515 3.203.115 4.826.115v14.048c-.203.721-.391 1.444-.616 2.159-1.457 4.697-4.591 8.173-8.296 11.191-6.217 5.068-13.391 8.387-20.847 11.134-9.72 3.58-19.757 5.952-29.965 7.631-8.563 1.409-17.176 2.362-25.846 2.804-2.066.108-4.127.282-6.19.424"/><path fill="#539798" d="M210.89 209.646a58.53 58.53 0 0 0-6.451-4.569c-7.259-4.43-15.159-7.379-23.281-9.771-4.372-1.286-8.782-2.367-13.221-3.302a6.928 6.928 0 0 1-2.063-.082c-1.911-.355-3.837-.881-5.775-1.306-1.879-.122-3.726-.382-5.555-.685-.687.009-1.375.057-2.063.165-1.278.204-2.523-.073-3.611-.665-2.788-.345-5.58-.596-8.373-.776-.46.047-.923.105-1.389.182-1.443.237-2.668.039-3.675-.446-8.042-.315-16.104-.192-24.173-.183a7.14 7.14 0 0 1-2.182-.321 224.8 224.8 0 0 0-13.235 1.35c-5.417.722-10.936 1.074-16.305 2.093-4.638.883-9.563.935-13.985 2.644-1.166.451-2.253.561-3.243.426-3.889 1.236-7.753 2.576-11.685 3.719-8.268 2.399-16.98 6.494-23.849 11.758a7.684 7.684 0 0 1-.656.451c-.223.235-.447.47-.688.689-.708 1.075-1.798 1.898-3.313 2.218-1.787 2.071-3.233 4.401-4.091 7.16-.222.713-.407 1.435-.609 2.152v4.079c1.135 5.43 4.239 9.643 8.491 12.957a72.305 72.305 0 0 0 9.41 6.229c8.028 4.445 16.708 7.262 25.562 9.533 11.529 2.956 23.252 4.775 35.112 5.695 3.909.301 7.828.487 11.74.735.484.032.961.128 1.442.193h18.351c2.138-.147 4.274-.322 6.413-.438a236.911 236.911 0 0 0 26.402-2.934c9.907-1.665 19.64-3.994 29.079-7.451 7.499-2.746 14.709-6.083 20.958-11.174 3.704-3.02 6.836-6.496 8.294-11.191.221-.716.408-1.438.61-2.156v-4.079c-1.126-5.385-4.242-9.509-8.393-12.899"/><path fill="#B8DD63" d="M109.257 187.203h18.351c.443.064.883.174 1.329.188 11.667.388 23.238 1.661 34.726 3.728 1.776.32 3.543.713 5.629 1.136-.652.416-.995.639-1.341.855a278445.819 278445.819 0 0 0-48.522 30.354c-.311.196-.587.443-.882.668h-1.585c-1.337-.177-2.671-.382-4.009-.525-8.964-.966-17.93-1.925-26.897-2.872-9.641-1.016-19.286-2.012-28.929-3.023-9.905-1.04-19.809-2.089-29.714-3.139-1.854-.196-3.706-.413-5.56-.622l-.156-.321c1.55-1.465 3.018-3.031 4.664-4.381 6.24-5.112 13.454-8.451 20.958-11.206 9.445-3.464 19.185-5.799 29.1-7.462 8.793-1.474 17.631-2.483 26.535-2.947 2.102-.11 4.202-.284 6.303-.431"/><path fill="#F3816F" d="M109.315 187.203h18.351c.442.064.883.174 1.327.188 11.667.386 23.24 1.661 34.725 3.728 1.779.32 3.545.714 5.575 1.125-.542.372-.811.568-1.092.744-15.087 9.439-30.178 18.874-45.262 28.315-1.462.917-2.891 1.885-4.334 2.829h-.453l-19.775-36.207c1.396-.093 2.562-.172 3.729-.247 2.402-.157 4.805-.317 7.209-.475"/></g><g fill-rule="evenodd" clip-rule="evenodd"><path fill="#9BC143" d="M302.143 331.713h16.48c.331-.055.658-.139.991-.16 3.649-.228 7.303-.391 10.949-.684 12.314-.989 24.457-2.968 36.325-6.463 7.261-2.137 14.303-4.812 20.822-8.729 3.769-2.265 7.214-4.914 9.952-8.409 1.663-2.118 2.627-4.544 3.361-7.092v-12.817c-1.018 0-2.039-.063-3.051.019-1.158.091-2.061-.182-2.835-1.128-.615-.749-1.412-1.36-2.177-1.977-5.607-4.525-12.041-7.518-18.743-9.976-8.479-3.11-17.222-5.203-26.121-6.696-7.892-1.32-15.825-2.229-23.815-2.643-1.889-.099-3.771-.256-5.659-.386h-16.48c-.431.059-.861.148-1.293.174-3.213.188-6.441.222-9.635.57-6.258.684-12.521 1.395-18.739 2.354-9.726 1.503-19.226 3.945-28.394 7.569-5.977 2.361-11.683 5.227-16.678 9.345-1.107.913-2.062 2.216-3.327 2.67-1.291.463-2.876.104-4.333.104v12.614c.181.647.35 1.3.55 1.941 1.31 4.218 4.125 7.339 7.451 10.05 5.584 4.55 12.025 7.531 18.723 9.998 8.729 3.216 17.741 5.345 26.908 6.854a208.013 208.013 0 0 0 23.211 2.518c1.854.096 3.704.251 5.557.38"/><path fill="#B8DD63" d="M227.28 274.694a52.422 52.422 0 0 1 5.792-4.103c6.519-3.98 13.613-6.626 20.908-8.775 3.926-1.156 7.888-2.126 11.873-2.967.574.066 1.19.05 1.854-.073 1.715-.317 3.444-.79 5.186-1.17 1.688-.111 3.347-.345 4.988-.615.618.007 1.233.048 1.853.147 1.148.182 2.267-.068 3.243-.599 2.504-.308 5.011-.533 7.519-.697.415.045.828.096 1.248.164 1.295.213 2.396.035 3.3-.4 7.223-.283 14.463-.173 21.706-.164.712 0 1.366-.102 1.961-.287 3.974.287 7.938.685 11.888 1.21 4.863.648 9.819.965 14.643 1.881 4.165.79 8.586.839 12.559 2.373 1.046.404 2.022.505 2.91.382 3.494 1.11 6.962 2.313 10.495 3.339 7.424 2.156 15.25 5.833 21.415 10.561.198.149.395.283.59.404.201.212.403.424.619.619.636.966 1.612 1.705 2.974 1.993 1.606 1.859 2.903 3.953 3.672 6.429.2.64.367 1.288.55 1.935v3.662c-1.021 4.875-3.807 8.657-7.627 11.636a64.815 64.815 0 0 1-8.45 5.593c-7.209 3.992-15.003 6.522-22.955 8.562-10.354 2.655-20.881 4.289-31.531 5.115-3.513.272-7.03.436-10.545.66-.433.028-.862.114-1.293.174h-16.48c-1.92-.133-3.839-.29-5.759-.392a211.824 211.824 0 0 1-23.708-2.638c-8.898-1.491-17.639-3.585-26.116-6.69-6.734-2.466-13.208-5.461-18.819-10.033-3.327-2.711-6.14-5.834-7.45-10.052-.2-.64-.368-1.29-.548-1.935v-3.662c1.01-4.839 3.808-8.543 7.535-11.587"/><path fill="#F3816F" d="M318.549 254.54H302.07c-.398.058-.793.156-1.191.169-10.479.347-20.87 1.491-31.185 3.349-1.597.288-3.182.64-5.056 1.018.584.376.894.574 1.204.767 14.524 9.087 29.051 18.172 43.574 27.262.278.177.527.398.79.601h1.423c1.201-.158 2.4-.344 3.602-.474 8.052-.865 16.104-1.728 24.154-2.577 8.659-.913 17.321-1.807 25.98-2.716 8.896-.934 17.79-1.876 26.684-2.817 1.665-.177 3.33-.373 4.995-.56.044-.096.091-.193.137-.289-1.39-1.315-2.708-2.722-4.186-3.935-5.605-4.589-12.083-7.589-18.821-10.062-8.484-3.112-17.23-5.208-26.137-6.702-7.896-1.324-15.831-2.229-23.826-2.646-1.89-.099-3.774-.256-5.662-.388"/><path fill="#539798" d="M301.839 254.54c-2.091.141-4.178.307-6.268.418a200.902 200.902 0 0 0-22.904 2.563c-2.664.454-5.318.963-8.287 1.504.584.388.902.611 1.23.816 14.525 9.087 29.051 18.172 43.574 27.263.279.176.529.397.79.6.138-.067.272-.137.408-.203-.077-.178-.183-.35-.225-.537-1.905-8.577-3.792-17.157-5.702-25.732-.5-2.239-1.065-4.461-1.599-6.691h-1.017z"/></g><g fill-rule="evenodd" clip-rule="evenodd"><path fill="#597387" d="M221.875 42.518v119.814c.356.267.751.499 1.067.809 17.855 17.578 35.701 35.162 53.545 52.75.315.314.557.703.836 1.056h.556c1.072-.541 2.109-1.163 3.222-1.599.968-.377 1.266-.922 1.263-1.965-.036-16.706-.027-33.415-.027-50.121v-1.768h1.767c16.754 0 33.507-.009 50.26.021 1.089.001 1.938-.282 2.794-.931 1.273-.97 2.646-1.814 3.976-2.711V39.452c-.456-.084-.905-.196-1.366-.251-7.904-.96-15.811-1.907-23.716-2.873-7.301-.89-14.597-1.823-21.899-2.696-8.235-.984-16.477-1.917-24.712-2.885-9.897-1.163-19.791-2.383-29.699-3.459-1.413-.153-2.994.117-4.326.633-1.792.695-3.519 1.678-5.098 2.788-4.171 2.935-7.107 6.815-8.443 11.809"/><path fill="#E6E6E6" d="M233.549 31.445c.767-.659 1.64-1.196 2.465-1.789h.277c3.064.469 6.122.971 9.193 1.398 11.251 1.564 22.504 3.106 33.756 4.653 11.806 1.62 23.612 3.227 35.415 4.854 5.832.805 11.66 1.646 17.488 2.47v119.813c-1.986 1.746-3.951 3.521-5.982 5.215-.394.33-1.088.557-1.58.47-4.066-.7-8.116-1.487-12.175-2.24-5.334-.993-10.681-1.979-16.099-2.98a7.972 7.972 0 0 0-2.712-.736c-4.026-.379-8.945 2.911-8.846 7.341.158 7.125 2.336 13.158 4.81 19.5-.033 5.546-.041 11.082.24 16.626-.334.188-.665.372-1.001.55l-6.102 3.263-.736-1.16v4.293h-.25v-1.639c0-40.299-.003-80.597.022-120.894 0-1.017-.295-1.702-1.032-2.402-17.466-16.596-34.909-33.219-52.363-49.833-.294-.281-.641-.507-.962-.761V36.9c2.057-1.821 4.091-3.665 6.174-5.455"/><path fill="#CCC" d="M227.377 37.494c.323.252.669.479.962.761 17.458 16.616 34.905 33.243 52.377 49.841.743.706 1.018 1.401 1.016 2.409-.022 40.308-.021 80.615-.02 120.922v1.516l.202.011v-4.204c.389.536.563.783.81 1.125 3.524-1.884 7.037-3.754 10.528-5.653.222-.119.355-.495.42-.776.073-.308.019-.644.019-.97 0-38.451-.002-76.9.017-115.351.001-.936-.16-1.611-.972-2.248-20.838-16.463-41.649-32.956-62.467-49.444-.253-.201-.513-.395-.802-.618l-2.09 2.121v.558zm8.638-7.802l-4.571 3.365c1.875.377 3.553.726 5.236 1.05 20.972 4.045 41.946 8.085 62.918 12.13 8.689 1.678 17.377 3.373 26.074 5.003.443.084 1.16-.223 1.457-.588 1.72-2.117 3.353-4.306 5.015-6.472v-1.113c-5.828-.825-11.655-1.667-17.488-2.47-11.803-1.628-23.609-3.235-35.415-4.856-11.251-1.544-22.505-3.088-33.755-4.652-3.069-.428-6.13-.93-9.193-1.397h-.278z"/><path fill="#485D70" d="M340.795 39.365c-1.097.914-2.208 1.811-3.273 2.756-.205.184-.28.555-.333.854-.061.315-.016.648-.016.973v115.829l3.622-2.269V39.365zm-58.794 50.338c-1.669.856-3.104 1.59-4.502 2.305v124.466c1.507-.701 2.805-1.278 4.068-1.922.221-.11.352-.495.415-.775.07-.311.019-.646.019-.97V89.703zm-56.91-46.099c.626-4.352 3.101-7.305 6.274-9.584 2.992-2.15 6.281-3.887 9.449-5.794.465-.281.979-.483 1.766-.866-2.694-.497-5.062-.929-7.432.085-5.613 2.397-9.947 6.144-12.599 11.742-.531 1.115-.488 1.852.523 2.585.666.482 1.229 1.105 2.019 1.832"/><path fill="#B3B3B3" d="M326.503 51.916c.06.056.115.115.175.171.258-.587.417-1.248.793-1.749 1.522-2.034 3.111-4.017 4.674-6.02v118.421c-1.967 1.726-3.934 3.446-6.077 5.325V52.613c.145-.231.296-.461.435-.697m-44.484 157.067a7.887 7.887 0 0 0-.315-1.021c-.002-39.035.002-78.068-.027-117.101 0-1.017.334-1.432 1.257-1.753 2.931-1.021 5.832-2.129 8.74-3.224.409-.153.783-.404 1.176-.611 1.117-.26.831.551.831 1.114.002 39.195.002 78.39.002 117.584l-10.938 5.688c-.065-.055-.133-.106-.203-.161l-.522-.825v.31z"/></g><g fill-rule="evenodd" clip-rule="evenodd"><path fill="#6CBABA" d="M452.877 239.381c-2.432-.448-5.195-.955-7.958-1.471-4.337-.809-8.674-1.623-13.01-2.437-4.335-.813-8.671-1.629-13.009-2.439-4.254-.796-8.509-1.585-12.763-2.38-4.337-.81-8.673-1.624-13.009-2.436-3.702-.69-7.404-1.377-11.104-2.068-4.335-.812-8.671-1.63-13.008-2.438-3.7-.69-7.403-1.375-11.104-2.068-4.336-.811-8.67-1.629-13.006-2.44-3.673-.688-7.346-1.365-11.019-2.051-3.784-.708-7.566-1.421-11.349-2.132-2.458-.459-4.926-.87-7.366-1.408a8.791 8.791 0 0 1-2.702-1.098c-2.047-1.276-2.207-3.296-.468-5.02 1.2-1.184 2.467-2.301 3.653-3.496 4.197-4.232 9.357-4.985 14.937-4.111 4.386.686 8.757 1.47 13.134 2.219 4.431.759 8.86 1.532 13.293 2.295 3.654.629 7.313 1.249 10.968 1.877 4.516.774 9.029 1.556 13.545 2.329 4.349.745 8.699 1.484 13.048 2.229 4.488.77 8.974 1.547 13.462 2.317 4.32.742 8.644 1.479 12.966 2.221 5.207.894 10.416 1.791 15.623 2.684 4.378.749 8.761 1.472 13.135 2.247 4.064.72 8.142 1.405 12.175 2.279 2.077.451 3.937 1.505 5.28 3.254.936 1.22 1.113 2.533.443 3.957-.705 1.497-1.436 2.991-2.034 4.531-.749 1.927-2.169 3.097-3.992 3.876-2.697 1.153-5.529 1.387-8.761 1.178"/><path fill="#91E8E5" d="M453.001 237.98c-2.431-.449-5.195-.956-7.958-1.471-4.336-.809-8.674-1.625-13.009-2.438-4.337-.812-8.672-1.629-13.01-2.438-4.256-.796-8.508-1.585-12.764-2.38-4.337-.81-8.671-1.624-13.008-2.435-3.701-.691-7.403-1.377-11.104-2.07-4.336-.81-8.672-1.626-13.008-2.438-3.7-.691-7.404-1.374-11.103-2.067-4.336-.813-8.672-1.631-13.006-2.439-3.673-.689-7.348-1.367-11.021-2.055-3.784-.706-7.566-1.419-11.349-2.129-2.458-.461-4.925-.871-7.365-1.408a8.834 8.834 0 0 1-2.703-1.099c-2.047-1.275-2.207-3.297-.467-5.018 1.199-1.187 2.467-2.302 3.652-3.498 4.197-4.233 9.356-4.986 14.937-4.112 4.388.688 8.758 1.471 13.135 2.221 4.431.759 8.861 1.531 13.292 2.293 3.656.631 7.313 1.25 10.969 1.878 4.516.775 9.03 1.556 13.544 2.329 4.349.745 8.7 1.483 13.049 2.229 4.487.771 8.975 1.547 13.463 2.317 4.32.742 8.643 1.479 12.965 2.222 5.207.893 10.415 1.791 15.623 2.683 4.378.749 8.761 1.472 13.134 2.247 4.064.72 8.141 1.406 12.176 2.28 2.077.45 3.937 1.505 5.279 3.253.937 1.22 1.115 2.534.444 3.956-.706 1.5-1.435 2.991-2.034 4.533-.75 1.927-2.168 3.096-3.991 3.876-2.698 1.155-5.53 1.386-8.762 1.178"/><path d="M461.184 227.927c-.017-.224-.122-.484-.041-.665.515-1.15 1.081-2.28 1.604-3.427.259-.564.613-.672 1.229-.29-.707 1.482-1.415 2.962-2.119 4.441a79.86 79.86 0 0 0-.673-.059m-135.58-28.599c-.021.199.037.475-.073.584a89.41 89.41 0 0 1-3.007 2.931c-.202.189-.543.229-.821.337l-.17-.264 3.735-3.617c.112.01.223.018.336.029m130.2 22.829c-.66 1.316-1.292 2.649-2.006 3.936-.126.228-.585.269-.891.397l-.211-.261c.702-1.374 1.383-2.763 2.13-4.11.1-.178.55-.16.837-.235l.141.273m-11.194 2.586c.697-1.307 1.372-2.63 2.118-3.909.128-.215.577-.237.878-.35l.186.276c-.707 1.328-1.386 2.672-2.144 3.97-.116.199-.591.191-.899.28l-.139-.267m-8.047-1.404c.744-1.31 1.464-2.633 2.255-3.914.126-.203.573-.21.872-.308.053.078.105.156.16.235-.748 1.334-1.471 2.684-2.267 3.988-.113.187-.581.16-.884.232l-.136-.233m-15.718-2.765c.802-1.28 1.551-2.531 2.367-3.738.16-.236.577-.301.878-.443l.226.27c-.387.63-.77 1.264-1.158 1.893-.37.599-.765 1.18-1.108 1.79-.283.506-.629.579-1.205.228m11.142-2.496c-.738 1.25-1.463 2.508-2.221 3.747-.287.472-.346.456-1.087.109.767-1.297 1.509-2.604 2.319-3.868.126-.196.564-.195.858-.287.043.101.088.2.131.299m-33.94-1.564c.875-1.229 1.699-2.438 2.587-3.599.18-.235.589-.295.893-.436.069.092.14.183.21.273l-1.672 2.365c-.292.414-.6.817-.876 1.241-.288.442-.626.524-1.142.156m18.623-1.189c-.846 1.304-1.674 2.621-2.558 3.896-.117.17-.541.132-.821.187a7.648 7.648 0 0 0-.126-.232c.838-1.271 1.654-2.558 2.531-3.803.135-.19.551-.179.836-.262l.138.214m-11.062 2.478c.805-1.181 1.621-2.354 2.417-3.539.271-.403.56-.62 1.143-.221-.886 1.289-1.746 2.582-2.667 3.833-.129.172-.553.127-.841.182-.016-.086-.035-.17-.052-.255m-11.254-6.278c-.893 1.216-1.767 2.448-2.701 3.631-.155.197-.566.191-.858.281l-.133-.252c.912-1.226 1.808-2.468 2.757-3.666.152-.19.551-.186.835-.271.032.094.066.188.1.277m-18.223 1.079c.961-1.199 1.903-2.412 2.897-3.582.16-.188.547-.185.829-.268l.133.24c-.969 1.215-1.92 2.446-2.928 3.631-.147.176-.552.137-.836.196l-.095-.217m7.252 1.263c.919-1.195 1.819-2.402 2.774-3.566.162-.196.556-.208.843-.303l.14.261c-.949 1.232-1.884 2.477-2.869 3.68-.136.167-.519.129-.79.185l-.098-.257m-21.387-3.804c.967-1.125 1.916-2.266 2.914-3.361.198-.217.589-.262.892-.386l.154.27c-1.013 1.181-2.009 2.375-3.055 3.526-.16.178-.544.155-.822.224-.028-.091-.057-.182-.083-.273m7.04 1.253c.962-1.158 1.907-2.328 2.896-3.461.175-.199.532-.242.804-.356l.181.24c-.245.312-.482.632-.734.937-.692.843-1.368 1.699-2.102 2.505-.209.229-.592.301-.894.443l-.151-.308m-13.992-2.269c.963-1.753 3.216-3.902 4.079-3.753-1.149 1.283-2.231 2.513-3.348 3.708-.113.117-.441.033-.731.045m-9.429-6.093c-1.164 1.237-2.222 2.388-3.318 3.5-.171.173-.519.172-.901.285.62-1.401 3.382-3.949 4.219-3.785m6.633 1.058c-1.145 1.893-3.323 3.881-4.145 3.686 1.137-1.231 2.217-2.427 3.336-3.583.133-.136.477-.068.809-.103m-24.037.256c1.556-2.213 3.352-3.739 4.226-3.583-1.513 1.223-2.457 2.891-4.226 3.583m6.385 1.227c1.731-2.317 3.51-3.848 4.344-3.701-1.164 1.205-2.27 2.372-3.412 3.501-.15.148-.484.11-.932.2m122.775 16.866c-.645 2.018-.931 2.331-1.829 2.045.353-1.678.943-2.366 1.829-2.045m-6.442-1.116c-1.02 2.396-1.146 2.493-1.887 2.023.396-1.668.98-2.321 1.887-2.023m-1.6-.28c-.712 2.015-.999 2.319-1.88 2.026.322-1.565 1.005-2.333 1.88-2.026m9.399 3.894c.256-.528.536-1.047.76-1.587.246-.592.606-.658 1.227-.281-.324.652-.593 1.325-.986 1.917-.124.188-.581.154-.885.221-.04-.089-.078-.181-.116-.27m.351-2.168c-.323.658-.565 1.294-.938 1.841-.148.221-.581.249-1.021.417.453-1.985 1.009-2.622 1.959-2.258m-17.703-3.087c-.798 1.995-1.124 2.314-1.92 1.924.559-1.725 1.065-2.253 1.92-1.924m9.232 3.934c.736-2.047.972-2.298 1.874-2.039-.385 1.649-.962 2.301-1.874 2.039m11.745-.3c-.316.666-.551 1.304-.919 1.852-.152.227-.593.258-1.013.422.275-1.798.937-2.582 1.932-2.274m-27.673-2.483c.667-1.828 1.07-2.247 1.92-2.015-.284 1.403-1.051 2.235-1.92 2.015m19.45 1.065c-.668 1.971-.928 2.255-1.803 2.021.17-1.417.956-2.324 1.803-2.021m-11.54.314c.779-2.046 1.038-2.311 1.907-1.99-.457 1.644-.997 2.227-1.907 1.99m-16.788-5.218c-1.052 2.118-1.178 2.232-2.022 1.89.619-1.699 1.172-2.235 2.022-1.89m17.155 2.959c-.808 2.009-1.018 2.229-1.87 2 .232-1.417 1.028-2.299 1.87-2m-6.718 1.16c.682-1.84 1.082-2.254 1.924-2.02-.316 1.463-1.032 2.243-1.924 2.02m-3.115-.592c.687-1.836 1.082-2.242 1.905-1.958-.307 1.459-1.083 2.254-1.905 1.958m-4.871-.867c.81-.66.673-2.078 2.123-2.025-.371 1.561-1.123 2.351-2.123 2.025m-5.536-3.222c-.816 1.891-1.172 2.221-2.001 1.914.588-1.603 1.161-2.168 2.001-1.914m21.533 6.038c.484-1.675 1.014-2.255 1.816-1.986-.304 1.529-1.003 2.293-1.816 1.986m-22.935-6.203c-.805.61-.696 2.015-2.102 1.949.346-1.47 1.209-2.352 2.102-1.949m10.205 4.009c1.037-2.19 1.157-2.309 1.956-1.959-.435 1.526-1.082 2.203-1.956 1.959m-15.562-2.815c.821-.606.726-2.055 2.184-1.939-.56 1.649-1.271 2.332-2.184 1.939m-4.446-.695c.854-1.844 1.268-2.219 2.057-1.915-.568 1.507-1.204 2.121-2.057 1.915m1.546.267c.537-1.497 1.2-2.156 1.987-1.964-.35 1.352-1.195 2.186-1.987 1.964m-4.562-.809c.978-1.885 1.224-2.116 2.021-1.933-.276 1.268-1.205 2.196-2.021 1.933m16.791 2.958c.871-1.984 1.179-2.276 2.002-1.949-.633 1.7-1.103 2.176-2.002 1.949m1.616.252c.455-1.498 1.106-2.173 1.903-1.974-.42 1.524-1.115 2.246-1.903 1.974m-19.162-5.554c-.843.608-.784 2.046-2.242 1.919.651-1.646 1.315-2.268 2.242-1.919m-6.79.893c.771-.554.776-1.946 2.193-1.882-.608 1.678-1.411 2.378-2.193 1.882m11.161-.172c-1.312 2.271-1.427 2.354-2.084 1.851.815-1.759 1.225-2.133 2.084-1.851m-9.691.73c1.026-1.979 1.371-2.285 2.288-2.004-.76.646-.784 1.978-2.288 2.004m-13.149-2.504c.768-1.562 1.357-2.078 2.11-1.843-.607 1.474-1.369 2.14-2.11 1.843m8.141-.777c-.844.652-.877 1.988-2.272 1.972.533-1.454 1.355-2.236 2.272-1.972m22.223 3.89c-.772 1.771-1.172 2.145-1.997 1.875.656-1.697 1.241-2.247 1.997-1.875m-15.587-.543c.771-1.688 1.265-2.127 2.044-1.819-.829 1.734-1.279 2.136-2.044 1.819m-14.107-4.644c-.657 1.469-1.34 2.065-2.108 1.849.635-1.456 1.359-2.091 2.108-1.849m6.512 3.299c.853-.576.866-1.961 2.259-1.903-.553 1.549-1.362 2.277-2.259 1.903m1.586.34c1.077-1.917 1.304-2.115 2.113-1.877-.523 1.419-1.262 2.099-2.113 1.877m-18.926-3.347c1.44-2.049 1.447-2.052 2.195-1.773-.806 1.549-1.414 2.061-2.195 1.773m7.264 1.298c.724-1.509 1.372-2.073 2.107-1.837-.602 1.418-1.332 2.052-2.107 1.837m-3.086-.501c.866-.688.98-1.949 2.317-2.019-.341 1.262-1.33 2.197-2.317 2.019m12.515-.08c-1.022 1.817-1.316 2.074-2.121 1.883.559-1.4 1.335-2.119 2.121-1.883m-12.82-2.253c-.909.646-.987 1.975-2.354 1.944.43-1.274 1.369-2.135 2.354-1.944m-5.908-.974c-.789 1.511-1.421 2.028-2.165 1.774.851-1.558 1.443-2.044 2.165-1.774m13.498 4.495c.826-.619.906-1.918 2.23-1.932-.354 1.341-1.348 2.262-2.23 1.932m-12.095-4.282c-.592 1.331-1.396 2.024-2.146 1.854.594-1.327 1.412-2.034 2.146-1.854m-7.039-1.188c-.854 1.516-1.482 2.024-2.17 1.754.793-1.468 1.482-2.022 2.17-1.754m2.005 2.513c1.219-1.84 1.47-2.044 2.184-1.801-.552 1.303-1.41 2.041-2.184 1.801m-6.187-3.237c-.834 1.48-1.475 1.986-2.207 1.74.929-1.56 1.504-2.014 2.207-1.74m7.114 1.245c-.798.622-.96 1.867-2.281 1.902.386-1.251 1.44-2.173 2.281-1.902m7.679 3.515c.71-1.47 1.39-2.061 2.132-1.848-.648 1.413-1.373 2.041-2.132 1.848m-28.111-4.941c1.324-1.781 1.55-1.95 2.3-1.754-.697 1.31-1.54 1.983-2.3 1.754m3.977.705c.941-.625 1.135-1.884 2.469-1.871-.604 1.313-1.531 2.091-2.469 1.871m8.352 1.5c.82-.738 1.117-1.843 2.395-2.011-.445 1.262-1.453 2.155-2.395 2.011m-19.506-5.632c-.694.678-.958 1.909-2.252 1.802.66-.721 1.056-1.764 2.252-1.802m23.404 4.098c-.799.642-1.023 1.849-2.394 1.952.71-1.486 1.535-2.17 2.394-1.952m-9.492.528c.915-.645 1.142-1.859 2.451-1.925-.53 1.294-1.494 2.106-2.451 1.925m-1.134-.253c.709-.619.9-1.906 2.175-1.746-.686.644-.903 1.89-2.175 1.746m-10.92-1.875c.69-.671.936-1.897 2.21-1.788-.665.7-1.027 1.768-2.21 1.788m9.089-.463c-.835.512-1.019 1.829-2.388 1.743.859-1.558 1.663-2.159 2.388-1.743m-10.602.377c1.005-1.588 1.663-2.1 2.472-1.879-.768.672-1.105 1.742-2.472 1.879m14.992 2.456c.873-.668 1.13-1.812 2.379-1.926-.416 1.22-1.465 2.13-2.379 1.926m-24.472-6.393c-.884.569-1.163 1.807-2.501 1.786.751-1.323 1.708-2.041 2.501-1.786m-2.763-.519c-.714.646-1.039 1.819-2.297 1.731.714-.647 1.045-1.809 2.297-1.731m20.106 3.62c-.821.512-1.033 1.798-2.39 1.732.979-1.637 1.687-2.158 2.39-1.732m-13.555-2.453c-.732.61-.969 1.896-2.258 1.714.718-.63 1.048-1.767 2.258-1.714m-7.803-1.341c-1.484 1.76-1.631 1.859-2.353 1.657.9-1.372 1.637-1.913 2.353-1.657m17.492 5.154c.897-.652 1.192-1.785 2.481-1.92-.633 1.336-1.576 2.106-2.481 1.92m-26.342-4.607c1.49-1.837 1.579-1.896 2.434-1.679-.877.586-1.232 1.732-2.434 1.679m15.687 2.719c1.535-1.836 1.62-1.897 2.317-1.697-.741 1.279-1.585 1.927-2.317 1.697m5.298.89c.807-.597 1.13-1.729 2.402-1.824-.599 1.322-1.63 2.119-2.402 1.824m-11.864-2.054c.744-.623 1.047-1.83 2.302-1.69-.741.617-1.028 1.843-2.302 1.69m-5.191-.85c1.334-1.786 1.528-1.922 2.363-1.713-.799.66-1.232 1.668-2.363 1.713m15.538.604c-.822.604-1.11 1.766-2.418 1.798.648-1.28 1.63-2.045 2.418-1.798m-14.599-2.594c-.731.638-1.07 1.812-2.307 1.742.704-.672 1.101-1.748 2.307-1.742m8.088 3.691c1.205-1.658 1.746-2.044 2.546-1.788-.854.571-1.156 1.737-2.546 1.788m-9.245-3.846c-.875.555-1.202 1.702-2.481 1.774.693-1.257 1.679-1.989 2.481-1.774" fill="#485D70"/></g><path fill-rule="evenodd" clip-rule="evenodd" fill="#F3816F" d="M190.033 305.546c.116.513.229 1.025.346 1.535.04.547.104 1.091.109 1.637.021 1.683-.295 3.282-1.204 4.724-1.444 2.297-3.954 2.877-6.265 1.462-.784-.48-1.428-1.103-1.99-1.823-.079-.099-.132-.169-.287-.11-1.032.378-2.064.749-3.1 1.124-1.866.675-3.735 1.348-5.599 2.033a.891.891 0 0 0-.376.267c-.888 1.132-1.76 2.273-2.637 3.411-1.454 1.892-2.901 3.792-4.352 5.685-.178.043-.359.082-.539.122-.597-.08-1.041-.408-1.443-.825-.624-.647-1.104-1.404-1.531-2.194-1.186-2.178-1.986-4.508-2.654-6.889-.103-.37-.202-.744-.306-1.13-.126.028-.227.052-.323.072-3.777.856-7.556 1.693-11.329 2.579-.804.19-1.561.246-2.348-.034-.279-.102-.578-.146-.915-.23.505-.447.956-.863 1.423-1.258a1.3 1.3 0 0 1 .526-.27c4.07-.929 8.143-1.85 12.218-2.772.097-.023.188-.042.295-.063l-.051-.279c-.458-2.406-.789-4.821-.773-7.273.007-1.17.076-2.331.408-3.46.182-.618.443-1.188 1.009-1.559.178-.043.357-.082.543-.122.394.212.79.429 1.188.633.835.43 1.673.846 2.508 1.273l6.796 3.471a.276.276 0 0 0 .138.016l2.827-.276c2.135-.21 4.271-.426 6.406-.628.167-.018.223-.075.261-.232.208-.979.571-1.893 1.149-2.713 1.419-2.01 3.779-2.534 5.903-1.31 1.568.906 2.609 2.274 3.36 3.886.232.494.409 1.014.609 1.52"/><path fill-rule="evenodd" clip-rule="evenodd" fill="#597387" d="M66.485 298.769c.579.024 1.203-.085 1.731.089 9.317 3.105 18.617 6.261 27.938 9.347.815.268 1.826.384 2.616.141.695-.203 1.216-1.006 1.811-1.547-.554-.558-1.016-1.382-1.686-1.637-3.148-1.19-6.356-2.205-9.541-3.306-8.023-2.774-16.045-5.561-24.065-8.337-1.591-.551-3.185-.551-4.725.129-1.978.881-2.63 2.892-1.268 4.551.83 1.004 2.047 1.909 3.271 2.329 7.755 2.666 15.559 5.184 23.348 7.753 5.223 1.722 10.449 3.44 15.672 5.155 2.876.941 5.695.919 8.361-.675 1.196-.713 2.138-1.69 1.963-3.206-.159-1.423-1.172-2.203-2.463-2.654-8.049-2.831-16.1-5.666-24.148-8.488-5.594-1.965-11.198-3.89-16.774-5.897-.528-.192-.898-.837-1.344-1.271.598-.063 1.271-.347 1.785-.163a8583.06 8583.06 0 0 1 41.604 14.646c1.659.59 3.122 1.607 3.312 3.551.184 1.936-1.023 3.213-2.555 4.125-3.699 2.2-7.521 2.037-11.501.713-12.419-4.125-24.877-8.118-37.292-12.262-1.569-.523-3.167-1.396-4.361-2.518-2.681-2.518-1.74-6.104 1.716-7.305 2.021-.697 4.036-.581 6.01.103 11.419 3.972 22.827 7.969 34.237 11.956 1.226.427 2.384 1.011 2.382 2.473 0 1.487-1.113 2.401-2.388 2.663-1.436.295-3.096.543-4.435.116-9.4-2.998-18.743-6.174-28.097-9.311-.443-.149-.818-.492-1.232-.742.044-.176.081-.35.118-.521"/><g fill-rule="evenodd" clip-rule="evenodd"><path fill="#9BC143" d="M404.656 199.065h1.75c.297-.165.575-.391.892-.486 14.388-4.329 28.778-8.646 43.317-13.01 0-2.347-.073-4.819.029-7.284.055-1.297-.49-1.724-1.648-2.052a306.933 306.933 0 0 1-11.451-3.49c-.999-.326-2.008-.862-2.797-1.55a1270.397 1270.397 0 0 1-14.866-13.179c-3.07-2.764-6.067-5.609-9.097-8.419h-.875c-.71.283-1.397.644-2.129.839-6.653 1.772-13.335 3.44-19.962 5.306-2.331.656-4.46.623-6.741-.145-4.01-1.348-8.086-2.498-12.373-3.804.162 2.43.457 4.536.396 6.63-.055 1.899.611 3.235 1.903 4.587 7.744 8.108 15.422 16.277 23.082 24.464 3.571 3.821 7.049 7.726 10.57 11.593"/><path fill="#B8DD63" d="M412.449 140.476h-1.314c-.164.128-.311.328-.496.377-9.604 2.516-19.212 5.007-28.813 7.531-4.244 1.116-8.472 2.297-12.971 3.521.733.851 1.227 1.468 1.766 2.042 7.537 8.015 15.102 16.005 22.615 24.043 3.823 4.089 7.558 8.259 11.333 12.392h1.752c.152-.139.282-.354.461-.409 6.85-2.063 13.701-4.116 20.557-6.159 7.664-2.284 15.33-4.56 23.159-6.887-.305-.391-.447-.632-.644-.817-12.028-11.336-24.063-22.667-36.084-34.01-.504-.476-.883-1.081-1.321-1.624"/><path fill="#9BC143" d="M447.362 146.252c-5.218 1.466-10.422 2.979-15.654 4.388-9.394 2.529-18.8 5.009-28.212 7.473-1.179.309-1.769.897-2.056 2.114-1.303 5.529-4.298 7.332-9.933 6.331-6.92-1.23-12.52-4.874-17.694-9.362v.876c.297.185.636.324.883.56 5.67 5.407 11.813 10.016 19.694 11.698h2.188c.755-.217 1.507-.448 2.265-.649 14.014-3.749 28.038-7.458 42.025-11.299 1.367-.376 2.935-1.295 3.67-2.438 1.5-2.329 2.496-4.983 3.698-7.503-.529-.634 1.164-2.158-.874-2.189"/><path fill="#539798" d="M429.849 162.8l-19.015 5.979c.595 1.426 1.438 1.993 3.117 1.459 6.021-1.915 12.081-3.712 18.282-5.603l-1.07-1.834h-1.314zm12.653 11.676c-.848-1.445-1.778-1.688-3.329-1.212-11.778 3.623-23.594 7.124-35.396 10.671-.123.037-.213.188-.484.44.728.878 1.028 1.873 2.778 1.332 11.914-3.675 23.871-7.202 35.813-10.786.193-.06.348-.247.618-.445m-43.989 4.703c.816 1.397 1.696 1.728 3.292 1.235 11.837-3.648 23.716-7.16 35.661-10.738-.693-1.402-1.559-2.038-3.129-1.561-11.65 3.543-23.314 7.046-34.973 10.572-.269.083-.502.287-.851.492"/></g><path fill-rule="evenodd" clip-rule="evenodd" fill="#539798" d="M163.98 66.564c.571.516 1.153 1.022 1.71 1.553.242.231.442.507.648.774.486.632.939 1.294 1.456 1.903.463.547.997 1.035 1.491 1.558.496.526.956 1.087 1.476 1.59a24.545 24.545 0 0 0 1.896 1.678 40.087 40.087 0 0 0 2.353 1.688c.726.491 1.453.988 2.223 1.401 1.339.718 2.661 1.487 4.186 1.782 1.254.242 2.492.603 3.756.755 1.399.169 2.817.195 4.229.227a15.91 15.91 0 0 0 4.652-.613 71.448 71.448 0 0 0 5.25-1.669c1.249-.456 2.453-1.044 3.641-1.649a83.378 83.378 0 0 0 4.179-2.291c1.072-.624 2.109-1.311 3.15-1.991 1.027-.669 2.066-1.324 3.037-2.067.413-.314.648-.176 1.005 0 1.155.568 1.87 1.533 2.456 2.62a.46.46 0 0 1-.02.392 36.493 36.493 0 0 1-1.313 1.942c-.397.538-.815 1.073-1.285 1.548a168.76 168.76 0 0 1-4.225 4.153 51.71 51.71 0 0 1-3.281 2.853c-.813.646-1.722 1.167-2.588 1.746-.817.547-1.623 1.109-2.451 1.641-.637.408-1.296.783-1.951 1.164-.778.451-1.542.934-2.349 1.331-1.929.951-3.944 1.665-6.069 2.046-.798.143-1.575.42-2.375.521-1.364.171-2.738.255-4.109.367-1.395.113-2.776-.007-4.147-.269-.785-.149-1.569-.287-2.342-.482-.567-.144-1.101-.418-1.67-.557-1.953-.477-3.775-1.292-5.584-2.14-.392-.184-.792-.37-1.209-.466-.385-.09-.458-.268-.438-.626.064-1.115.171-2.236.12-3.348-.071-1.531-.254-3.057-.42-4.584-.169-1.56-.716-3.027-1.189-4.51-.503-1.57-.928-3.17-1.536-4.698-.524-1.321-1.256-2.559-1.897-3.833-.181-.363-.371-.721-.549-1.084-.035-.073-.04-.163-.058-.244l.141-.112z"/><path d="M227.319 60.373c-.058.354-.075.721-.184 1.057-.379 1.169-.747 2.345-1.2 3.484-.625 1.563-1.794 2.744-2.945 3.925-.592.607-1.155 1.252-1.807 1.79-.832.688-1.722 1.314-2.623 1.91-.62.41-1.305.722-1.977 1.088-.318-.375-.637-.785-.994-1.161-.376-.397-.795-.752-1.185-1.139-.083-.085-.179-.242-.156-.339a26.701 26.701 0 0 1 1.611-4.717c.259-.582.394-1.223.674-1.794.443-.898.958-1.76 1.443-2.637.507-.921 1.217-1.657 2.064-2.269.363-.262.898-.165 1.035.259.104.324.118.725.034 1.057-.276 1.085-1.112 1.835-1.733 2.714-.256.363-.53.715-.759 1.094-.091.152-.081.366-.117.551l.115.099c.302-.204.678-.349.888-.624.655-.861 1.305-1.737 1.848-2.671.811-1.399 1.524-2.857 2.295-4.283.147-.271.37-.503.559-.752.603-.799 1.155-.568 1.734-.015a4.315 4.315 0 0 1 1.287 2.413c.018.085.06.167.092.25l.001.71zm-120.188 74.91c-.584-.21-1.2-.358-1.745-.642-1.966-1.031-3.704-2.333-4.813-4.327-.494-.891-1.06-1.749-1.479-2.673-.405-.892-.724-1.825-.893-2.809-.122-.706-.398-1.384-.594-2.077-.092-.326-.19-.657-.229-.992-.092-.774-.131-1.555-.226-2.329-.061-.5-.201-.991-.265-1.492-.041-.317-.007-.645-.007-1.025.226.098.375.167.527.229 1.32.521 2.666.691 4.058.314.084-.022.226-.01.276.044.605.668 1.279 1.294 1.776 2.037.605.904 1.011 1.94 1.592 2.864.614.976.926 2.031 1.005 3.149.045.631-.06 1.28-.158 1.911-.064.418-.476.688-.882.707-.449.021-.562-.313-.693-.63-.291-.701-.576-1.403-.871-2.103-.031-.075-.105-.132-.158-.198l-.133.029c.059.528.054 1.074.195 1.579.17.6.384 1.223.73 1.731.48.71 1.088 1.337 1.667 1.977.729.804 1.515 1.558 2.217 2.384.275.323.435.769.563 1.187.093.303-.011.625-.31.832-.15.104-.294.216-.441.324l-.709-.001zm49.614-110.006c.373.531.707.963.994 1.427.394.636.754 1.294 1.124 1.944.502.882 1.066 1.737 1.486 2.656.585 1.281 1.072 2.607 1.582 3.923.263.679.504 1.37.717 2.067.402 1.33.607 2.693.418 4.075-.15 1.095-.313 2.207-.655 3.251-.376 1.153-.783 2.337-1.611 3.271a4.98 4.98 0 0 1-1.286 1.01c-.847.469-1.752.829-2.605 1.29-.695.374-1.477.705-1.788 1.512-.151.391-.163.841-.192 1.268-.016.225-.02.349-.277.466-1.168.541-2.375.983-3.646 1.127-1.155.132-2.329.301-3.495-.019-.274-.075-.583-.016-.857-.088a83.833 83.833 0 0 1-3.083-.868c-.497-.15-.516-.231-.376-.703.34-1.144.149-2.24-.357-3.281-.447-.917-.932-1.82-1.702-2.531-.097-.09-.133-.32-.1-.462.174-.722.01-1.431-.042-2.144-.011-.156.008-.313-.001-.469-.018-.354.026-.729-.082-1.053-.296-.884-.223-1.731.146-2.56.103-.232.318-.412.454-.632.501-.818.701-1.742.908-2.664.278-1.246.585-2.507 1.41-3.506.514-.623 1.193-1.128 1.857-1.604.953-.684 2.1-.95 3.203-1.279.957-.287 1.953-.446 2.904-.746.928-.292 1.763-.795 2.525-1.408.327-.263.713-.484.961-.809.439-.574.798-1.21 1.18-1.827.094-.154.151-.331.286-.634z" fill-rule="evenodd" clip-rule="evenodd" fill="#FAA979"/><path fill-rule="evenodd" clip-rule="evenodd" fill="#485D70" d="M139.854 48.079c-.48-.214-.974-.402-1.438-.646-.877-.459-1.607-1.103-2.224-1.881-.185-.234-.454-.405-.624-.647-.368-.521-.695-1.07-1.039-1.608-.729-1.14-1.304-2.361-1.667-3.659-.266-.948-.459-1.917-.279-2.938.122-.694.035-1.423.082-2.136.046-.728.112-1.457.222-2.178.068-.447.238-.878.355-1.318a6.11 6.11 0 0 1 1.402-2.59c.568-.624 1.095-1.292 1.72-1.852.901-.811 1.86-1.563 2.822-2.303 1.307-1.006 2.769-1.758 4.255-2.45.837-.39 1.728-.66 2.589-.998a19.87 19.87 0 0 0 1.213-.538c.446-.212.62-.645.849-1.046.331-.583.621-1.23 1.088-1.688.579-.568 1.427-.71 2.198-.521.827.204 1.632.552 2.396.938.321.162.508.585.764.882.52.605 1.122 1.156 1.551 1.82.627.975 1.058 2.073 1.173 3.229.061.619-.082 1.286-.262 1.892a6.999 6.999 0 0 1-.829 1.815c-.297.457-.739.837-1.173 1.181-.541.428-1.11.841-1.719 1.16-.736.384-1.507.725-2.298.97-.999.309-2.046.463-3.049.761-.544.161-1.023.53-1.564.713-.913.312-1.57.943-2.191 1.625-.598.658-.854 1.497-1.103 2.324-.255.851-.414 1.736-.72 2.565-.231.63-.584 1.229-.962 1.788-.568.84-.501 1.752-.4 2.667.075.662.165 1.336.614 1.89.052.063.023.198.017.298-.012.196-.064.395-.046.588.056.585-.185 1.064-.574 1.448-.186.184-.5.237-.756.349-.077.033-.155.062-.233.094h-.16z"/><path d="M137.364 42.692c.024-.127.061-.253.068-.381.079-1.282 1.208-2.355 2.254-2.567.685-.138.861.117 1.374.739.335.408.375.876.267 1.438-.219 1.161.655 2.524 2.095 2.005.527-.189 1.447.538 1.314 1.071-.07.282-.375.577-.649.724-.944.507-1.962.575-3.004.359-.371-.077-.738-.175-1.111-.231-1.419-.209-2.434-1.193-2.524-2.581-.009-.141-.056-.28-.085-.419l.001-.157zm18.886-8.297c.748.565 1.092 1.378 1.463 2.206.344.768.647 1.614 1.509 2.025.599.285 1.208.47 1.883.463.252-.002.561.086.747.245.445.383.351 1.074-.207 1.382-.845.467-1.772.547-2.708.358-.468-.094-.858-.083-1.21.3-.292.315-.676.421-1.112.281-.473-.152-.678-.544-.779-.959-.073-.299.043-.64.02-.958-.039-.539-.055-1.093-.199-1.608-.2-.711-.561-1.38-.761-2.092-.174-.621.057-1.331.791-1.544.036-.011.061-.064.09-.099h.473z" fill-rule="evenodd" clip-rule="evenodd" fill="#F3816F"/><path d="M202.384 234.459c-.216 1.059-1.088 1.418-1.929 1.8a8.598 8.598 0 0 1-4.09.765c-.964-.055-1.918-.259-2.876-.404-2.235-.341-4.312-1.184-6.356-2.095-.829-.37-1.599-.896-2.347-1.42a28.273 28.273 0 0 1-2.322-1.812c-1.117-.965-2.237-1.934-2.976-3.251-.083-.148-.265-.237-.404-.354-.907.267-1.148 1.003-1.341 1.774-.115.464-.276.586-.725.426-.988-.349-1.985-.682-2.866-1.277-.297-.203-.434-.382-.343-.784.186-.813.206-1.67.439-2.466.459-1.564.772-3.196 1.737-4.567.32-.457.712-.864 1.069-1.296.282-.343.558-.687.838-1.031.133-.164.27-.151.479-.108 1.482.308 2.92.857 4.453.897.888.024 1.775-.022 2.665-.036.075-.002.152-.002.178-.002.167.748.299 1.475.496 2.183.162.585.402 1.151.607 1.729.096.27.22.535.28.813.194.881.706 1.588 1.213 2.296.25.35.564.652.86.967.38.402.738.839 1.167 1.18a51.826 51.826 0 0 0 2.8 2.062c1.373.938 2.928 1.448 4.535 1.813 1.056.242 2.125.432 3.18.683.693.164 1.239.543 1.467 1.271.013.036.075.06.111.088l.001.156zM59.265 186.732c-.382.221-.802.419-1.172.686-.33.24-.511.221-.756-.108-.757-1.018-.882-2.218-1.025-3.418-.058-.478-.136-.956-.175-1.437-.013-.158.011-.369.105-.48 1.28-1.519 2.717-2.86 4.471-3.831.892-.494 1.77-1.011 2.676-1.476.315-.16.698-.192 1.118-.301.136.678.262 1.303.386 1.929.347 1.743 1.206 3.177 2.583 4.3.2.162.383.346.596.542-1.027.894-1.184 2.128-1.446 3.288-.221.978-.302 1.987-.44 2.982-.111.805-.251 1.605-.309 2.414-.113 1.564.017 3.098.505 4.611.53 1.646 1.461 3.031 2.613 4.274.617.662 1.36 1.206 2.037 1.815.455.413.937.809 1.324 1.279.526.644.521 1.528-.3 2.029-1.243.757-2.57.728-3.889.242-1.234-.453-2.186-1.341-3.172-2.178-1.619-1.371-2.525-3.219-3.457-5.052-.521-1.024-1.057-2.052-1.475-3.121-.685-1.752-1.136-3.569-1.043-5.475.056-1.144.158-2.288.245-3.514z" fill-rule="evenodd" clip-rule="evenodd" fill="#485D70"/><path fill-rule="evenodd" clip-rule="evenodd" fill="#9BC143" d="M134.305 126.183c.371 1.114.621 2.144 1.055 3.089.482 1.051.866 2.164 1.608 3.089.447.558.8 1.195 1.27 1.731.609.695 1.236 1.397 1.956 1.968a35.978 35.978 0 0 0 3.398 2.391c1.053.653 2.189 1.175 3.289 1.754l3.489 1.829c-.388 1.078-1.151 1.938-1.902 2.785a158.087 158.087 0 0 1-4.431 4.797c-.951.984-1.984 1.892-2.993 2.821-.73.672-1.451 1.36-2.226 1.98-1.308 1.046-2.658 2.043-3.985 3.067-1.816 1.401-3.822 2.492-5.835 3.565-1.993 1.063-3.971 2.167-6.03 3.089-2.219.994-4.527 1.792-6.791 2.686-2.249.89-4.48 1.82-6.742 2.678-1.514.575-3.068 1.043-4.599 1.574-1.467.509-2.922 1.057-4.394 1.551-1.558.522-3.134.993-4.696 1.505-2.122.696-4.234 1.419-6.354 2.118-1.179.389-2.371.74-3.549 1.131-1.786.595-3.56 1.231-5.352 1.81-1.069.344-2.168.594-3.242.923a61.517 61.517 0 0 0-3.298 1.096c-1.298.475-2.575 1.015-3.868 1.503-.566.215-1.151.38-1.733.549-.09.025-.228-.029-.315-.088-1.283-.871-2.246-2.039-2.765-3.48-.359-1.001-.473-2.089-.702-3.138-.078-.357-.031-.628.31-.868.693-.492 1.336-1.053 2.022-1.556 1.1-.804 2.196-1.618 3.334-2.365 1.005-.659 2.069-1.229 3.104-1.844.461-.271.907-.571 1.376-.828a63.67 63.67 0 0 1 2.392-1.24 103.53 103.53 0 0 1 2.943-1.379c1.991-.898 3.962-1.844 5.985-2.663 2.622-1.063 5.289-2.015 7.933-3.029 1.662-.638 3.315-1.294 4.971-1.949 1.371-.543 2.771-1.027 4.098-1.662 1.348-.642 2.625-1.431 3.925-2.168 1.704-.969 3.233-2.184 4.728-3.438 1.334-1.117 2.63-2.282 3.919-3.45a111.612 111.612 0 0 0 3.229-3.039c.71-.697 1.378-1.442 2.042-2.186a311.997 311.997 0 0 0 3.795-4.335c.5-.586.921-1.239 1.407-1.837.601-.739 1.233-1.451 1.85-2.179.83-.978 1.673-1.945 2.479-2.944a107.38 107.38 0 0 0 2.567-3.318c.254-.34.387-.767.613-1.131.194-.314.441-.6.715-.965z"/><path fill-rule="evenodd" clip-rule="evenodd" fill="#B8DD63" d="M184.075 220.182c-.397-.039-.795-.121-1.189-.104-.937.043-1.801-.251-2.673-.518a30.714 30.714 0 0 1-1.848-.609c-.149-.058-.323-.25-.349-.405a56.832 56.832 0 0 1-.445-2.994c-.208-1.758-.438-3.518-.559-5.285-.104-1.519-.077-3.046-.09-4.565-.012-1.438-.012-2.876.007-4.313.006-.573.13-1.146.115-1.718-.036-1.476-.132-2.949-.188-4.425-.082-2.171-.139-4.344-.229-6.518-.062-1.504-.184-3.005-.239-4.511-.041-1.096-.015-2.194-.026-3.291-.011-1.287-.039-2.569-.041-3.854 0-1.051.03-2.099.039-3.146.006-.903.002-1.805.006-2.706.006-1.26.082-2.522.006-3.777a10.015 10.015 0 0 0-1.183-4.207c-.958-1.784-2.192-3.352-3.51-4.862-1.118-1.283-2.243-2.577-3.487-3.734-1.728-1.606-3.549-3.116-5.603-4.318-1.119-.657-2.183-1.405-3.297-2.07-.887-.529-1.821-.974-2.72-1.485-1.297-.738-2.564-1.533-3.875-2.246-1.297-.708-2.636-1.338-3.952-2.013a220.89 220.89 0 0 1-2.856-1.488c-1.076-.571-2.167-1.114-3.216-1.732a25.182 25.182 0 0 1-4.084-2.988c-.928-.833-1.673-1.838-2.382-2.866-.477-.692-.924-1.385-1.228-2.183-.284-.74-.776-1.41-.999-2.162-.288-.972-.477-1.989-.321-3.027.171-1.136.282-2.286.518-3.41.216-1.031.548-2.038.856-3.047.29-.944.595-1.885.935-2.813.317-.87.694-1.718 1.035-2.578.293-.738.564-1.483.862-2.219.189-.47.409-.927.633-1.429.333.197.586.386.871.504 1.164.492 2.325.997 3.511 1.43 1.089.399 2.2.748 3.319 1.053 1.31.355 2.63.688 3.963.936.977.181 1.982.207 2.975.309.83.084 1.657.202 2.487.26.559.04 1.122-.007 1.684-.001.402.004.805.05 1.207.044 1.42-.018 2.841-.043 4.261-.083.335-.011.668-.094 1.037-.15.171.805.314 1.588.506 2.359.302 1.222.554 2.467.982 3.647.528 1.454 1.202 2.857 1.839 4.271.504 1.115 1.003 2.236 1.588 3.309.409.753.943 1.441 1.451 2.136.439.601.881 1.206 1.391 1.744.704.74 1.489 1.403 2.208 2.128.625.629 1.193 1.313 1.812 1.947.854.877 1.735 1.729 2.599 2.596.828.83 1.555 1.743 2.237 2.697.569.795 1.224 1.532 1.803 2.323.404.554.738 1.157 1.113 1.733.368.568.78 1.11 1.11 1.698a72.745 72.745 0 0 1 1.495 2.883c.278.56.548 1.129.762 1.717.152.426.182.893.311 1.327.19.632.449 1.247.626 1.884.267.958.545 1.92.721 2.898.302 1.683.549 3.377.778 5.073.237 1.773.437 3.555.633 5.334.087.776.156 1.557.186 2.34.035.834.008 1.67.019 2.507.011.811.067 1.621.043 2.43-.058 1.91-.152 3.822-.233 5.731-.069 1.554-.126 3.108-.214 4.663-.101 1.767-.233 3.531-.339 5.3-.139 2.291-.238 4.586-.404 6.877-.154 2.155-.355 4.31-.573 6.459-.105 1.04-.317 2.065-.439 3.102-.111.938-.147 1.884-.25 2.821a85.9 85.9 0 0 1-.423 3.195c-.144.958-.285 1.919-.503 2.862-.225.977-.533 1.938-.828 2.897-.027.092-.203.171-.325.199-.391.09-.79.151-1.185.227h-.235z"/><path fill-rule="evenodd" clip-rule="evenodd" fill="#2A7D7D" d="M137.484 100.519v-.158c.04-.493.092-.984.114-1.477.031-.709-.003-1.423.069-2.128.09-.896.286-1.783.388-2.68.156-1.369.275-2.743.4-4.116.089-.988.229-1.979.23-2.967a59.44 59.44 0 0 0-.17-4.565c-.075-.976-.288-1.943-.462-2.91-.116-.644-.272-1.28-.411-1.921-.049-.229.024-.341.271-.414 2.271-.674 4.411-1.667 6.508-2.75.698-.361 1.313-.881 1.962-1.333 1.239-.861 2.14-2.027 2.859-3.325.378-.681.708-1.419.887-2.173.384-1.611.423-3.271.358-4.919-.024-.587-.203-1.179-.386-1.744-.173-.531-.448-1.03-.65-1.481.845-.254 1.713-.495 2.566-.781.604-.202 1.2-.439 1.777-.708 1.102-.511 2.187-1.058 3.28-1.583.083-.041.218-.085.277-.046.338.22.697.428.979.709.354.354.628.786.958 1.166.479.551.999 1.065 1.458 1.631.549.677 1.185 1.328 1.544 2.102.761 1.638 1.688 3.175 2.566 4.745.794 1.419 1.56 2.868 2.177 4.37.641 1.561 1.12 3.193 1.61 4.811.445 1.471.918 2.946 1.182 4.455.288 1.654.43 3.348.485 5.028.054 1.604-.031 3.217-.153 4.819-.112 1.461-.32 2.916-.552 4.364-.219 1.375-.523 2.736-.792 4.103-.146.743-.228 1.508-.458 2.225a77.436 77.436 0 0 1-1.537 4.275c-.333.859-.82 1.661-1.125 2.528-.283.804-.623 1.57-1.076 2.285-.079.123-.243.249-.383.269-.634.09-1.274.19-1.912.197-1.39.014-2.781-.023-4.172-.046-1.233-.021-2.468-.028-3.699-.082a22.85 22.85 0 0 1-2.466-.229c-.988-.152-1.962-.396-2.947-.572-.526-.093-1.067-.1-1.593-.188-.526-.089-1.04-.264-1.567-.341-1.825-.268-3.679-.417-5.304-1.425-.518-.323-1.095-.594-1.52-1.017-.333-.334-.509-.848-.685-1.309-.4-1.047-.612-2.141-.716-3.257-.042-.481-.11-.958-.169-1.437z"/><path fill-rule="evenodd" clip-rule="evenodd" fill="#539798" d="M95.769 113.81c.071-.474.162-.945.208-1.42.08-.833.133-1.667.193-2.502.018-.262.001-.528.036-.787.133-.992.283-1.982.422-2.975.067-.478.097-.963.19-1.435.164-.837.371-1.667.549-2.501.158-.737.301-1.476.45-2.214.007-.038.015-.076.026-.113.278-.904.529-1.82.842-2.714a73.85 73.85 0 0 1 1.394-3.7c.291-.711.695-1.375 1.032-2.068.227-.466.406-.957.641-1.419.2-.394.45-.762.677-1.143.556-.932 1.084-1.883 1.674-2.794a59.125 59.125 0 0 1 2.112-3.068 40.762 40.762 0 0 1 2.219-2.784c1.34-1.52 2.698-3.026 4.113-4.476.857-.878 1.81-1.669 2.766-2.443 1.123-.907 2.293-1.756 3.449-2.622 1.581-1.185 3.146-2.392 4.758-3.534 1.182-.837 2.439-1.566 3.643-2.373 1.572-1.055 3.109-2.162 4.691-3.198.851-.557 1.762-1.021 2.656-1.511.747-.411 1.501-.81 2.262-1.192 1.084-.542 2.181-1.062 3.27-1.594a8.85 8.85 0 0 0 .65-.352c.059-.036.101-.117.127-.185.413-1.052.816-2.108 1.237-3.157.115-.287.278-.554.435-.86.305.164.569.304.831.446.046.025.086.065.135.083 1.004.354 1.985.79 3.065.884.65.057 1.297.16 1.947.194.519.025 1.05.03 1.56-.053 1.149-.187 2.313-.331 3.382-.846.542-.261 1.086-.521 1.625-.792.389-.196.701-.034.86.362.252.626.564 1.226.851 1.837.265.563.539 1.124.784 1.696.034.08-.044.243-.116.33-.587.704-1.268 1.246-2.191 1.497-.652.177-1.246.556-1.885.793a56.64 56.64 0 0 1-2.836.964c-.328.104-.261.282-.168.478.462.979.639 2.012.628 3.087-.016 1.6-.046 3.208-.434 4.762-.294 1.181-.871 2.259-1.603 3.253-.687.934-1.478 1.743-2.434 2.396-1.399.956-2.85 1.822-4.407 2.498-1.001.434-2.003.875-3.03 1.244-1.523.549-3.081 1.006-4.604 1.558-1.654.601-3.312 1.208-4.923 1.916-1.433.63-2.802 1.405-4.203 2.109-.442.224-.89.433-1.345.63-1.417.617-2.79 1.312-4.05 2.218-.828.594-1.708 1.118-2.538 1.711a9.637 9.637 0 0 0-1.243 1.078c-.92.924-1.871 1.827-2.708 2.823a43.803 43.803 0 0 0-2.647 3.533c-.697 1.024-1.313 2.108-1.907 3.197-.592 1.089-1.121 2.214-1.66 3.331-.148.304-.229.639-.35.956-.513 1.356-1.031 2.711-1.545 4.065-.428 1.124-.907 2.23-1.264 3.375-.459 1.473-.84 2.97-1.212 4.467-.216.873-.356 1.767-.511 2.653-.095.548-.518.942-1.048 1.094-1.211.347-2.402.11-3.594-.066-.254-.038-.49-.219-.727-.35-.184-.101-.347-.238-.532-.334-.402-.208-.58-.609-.568-1.062.013-.459-.064-.921-.103-1.384-.004-.496-.004-.997-.004-1.497zm43.182-7.368c.945.492 1.81 1.064 2.756 1.4.988.349 2.056.474 3.09.691.688.143 1.378.283 2.069.413.437.081.879.133 1.316.207.785.131 1.566.293 2.354.397 1.191.157 2.386.33 3.584.398 1.874.108 3.752.176 5.628.18 1.264.001 2.527-.143 3.79-.218.353-.021.705-.035 1.157-.057.031.419.108.816.078 1.202-.061.782-.183 1.557-.276 2.335-.047.39-.09.78-.13 1.17-.042.426-.323.799-.742.849-.844.101-1.692.17-2.541.223-.62.04-1.243.047-1.864.041-.953-.011-1.909-.008-2.857-.078a204.333 204.333 0 0 1-5.473-.485c-1.417-.144-2.811-.411-4.168-.871-.881-.299-1.805-.473-2.687-.772a49.835 49.835 0 0 1-3.59-1.35c-.934-.398-1.819-.908-2.719-1.381-.076-.04-.161-.197-.138-.27.381-1.274.632-2.592 1.223-3.799.045-.091.107-.174.14-.225z"/></svg>