<svg xmlns="http://www.w3.org/2000/svg" xmlns:xlink="http://www.w3.org/1999/xlink" width="500" height="360"><path fill-rule="evenodd" clip-rule="evenodd" fill="#F8A879" d="M329.206 291.279c.01-.023.019-.046.029-.064.086-.061.173-.113.25-.18 4.038-3.445 8.076-6.895 12.112-10.343l1.55-1.322c.097.1.168.161.222.234 1.084 1.487 2.182 2.978 3.244 4.482.177.248.3.237.529.106 1.844-1.044 3.697-2.073 5.537-3.124.388-.221.861-.389.975-.916.107-.514.214-1.033.306-1.547.04-.223.1-.455.065-.673-.071-.502.161-.903.469-1.208.425-.431.908-.835 1.437-1.135a3.545 3.545 0 0 1 2.979-.302c.711.238 1.405.513 1.969 1.04.323.298.703.547.984.879.578.682 1.147 1.379 1.644 2.124.342.511.617 1.083.811 1.668.209.635.396 1.298.209 1.987-.129.473-.194.972-.397 1.409-.235.493-.55.974-1.022 1.281-.617.404-1.1 1.046-2.025.848-.699-.151-1.443-.101-2.168-.089-.328.005-.703.032-.948.319-.197.227-.356.475-.534.713-.324.438-.641.884-.976 1.314-.352.444-.719.88-1.075 1.321-.145.176-.293.35-.422.532-.203.275-.385.568-.589.84-.358.469-.735.928-1.094 1.397-.04.057-.045.188-.005.245.165.271.355.53.552.817 1.38-.512 2.743-1.024 4.108-1.525.964-.357 1.937-.698 2.9-1.059.277-.104.66-.175.785-.38.318-.563.539-1.189.767-1.799.097-.256.097-.54.168-.804.074-.305.116-.66.303-.894.428-.538.994-.944 1.613-1.244.671-.323 1.385-.417 2.145-.347.829.071 1.559.419 2.192.873a7.79 7.79 0 0 1 1.733 1.73c.728.986 1.379 2.004 1.78 3.166.339.966.548 1.956.162 2.975-.041.1-.014.224-.015.341-.066.146-.129.295-.194.443-.093.104-.209.195-.271.313-.379.711-1.014 1.144-1.695 1.501-.353.188-.757.396-1.128.382-.688-.026-1.366-.255-2.055-.318-.594-.057-1.212-.248-1.698.424-.389.517-.962.896-1.446 1.34-.581.525-1.161 1.051-1.74 1.579-.426.392-.856.786-1.279 1.183-.683.637-1.358 1.284-2.047 1.918-.193.178-.311.37-.265.635.112.627.233 1.257.355 1.886.218 1.121.446 2.242.649 3.362.019.09-.099.263-.184.29a6.38 6.38 0 0 1-.91.186c-1.557.243-3.119.48-4.679.717-1.174.182-2.352.359-3.528.54-1.125.177-2.251.355-3.379.529-1.167.176-2.335.354-3.505.521-.281.041-.564.06-.85.09-.041-.021-.082-.037-.125-.059-.105-.173-.197-.356-.309-.525-.527-.798-1.066-1.589-1.583-2.393-.202-.311-.329-.664-.524-.972-.23-.364-.522-.686-.755-1.05-.745-1.156-1.473-2.321-2.209-3.489-.612-.972-1.219-1.943-1.836-2.915-.493-.784-.995-1.563-1.487-2.35-.518-.824-1.022-1.657-1.542-2.481-.267-.425-.549-.842-.815-1.272-.275-.448-.534-.902-.808-1.354l-1.417-2.347m25.412 3.772c.063.075.104.13.149.184.943 1.275 1.893 2.55 2.84 3.826a.388.388 0 0 1 .068.156c.184 1.026.357 2.051.553 3.073.004.046.195.116.219.09.637-.579 1.262-1.171 1.884-1.764.642-.598 1.279-1.199 1.922-1.795.793-.731 1.604-1.442 2.375-2.199.56-.552 1.224-.753 1.972-.701.622.044 1.237.151 1.856.227.302.034.643.146.902.051.676-.252 1.287-.648 1.651-1.315.449-.816.44-1.687.149-2.528-.637-1.847-1.659-3.415-3.272-4.587-.945-.68-1.897-.761-2.896-.313-.526.231-1.071.555-1.188 1.23-.029.172-.007.354-.062.514-.251.741-.501 1.482-.781 2.214-.161.41-.477.696-.896.852-2.452.918-4.908 1.833-7.445 2.785m-6.93-9.515c1.561 2.13 3.081 4.21 4.641 6.335.343-.449.651-.865.973-1.27.351-.438.726-.853 1.07-1.295.354-.458.671-.948 1.023-1.409.481-.617 1.037-1.187 1.463-1.839.435-.669 1.056-.88 1.757-.914.733-.042 1.473.025 2.212.047.211.003.456.078.632-.001.653-.309 1.206-.759 1.532-1.422.557-1.132.184-2.199-.289-3.243a4.557 4.557 0 0 0-.556-.905c-.44-.562-.881-1.126-1.38-1.636-.371-.377-.849-.648-1.25-.997-.455-.398-1.005-.518-1.564-.553-.977-.058-1.747.387-2.367 1.113-.088.1-.224.193-.247.305a7.336 7.336 0 0 0-.131 1.076c-.038.831-.298 1.599-.681 2.324a.967.967 0 0 1-.308.356 81.641 81.641 0 0 1-2.401 1.493c-.721.429-1.466.817-2.192 1.243-.638.375-1.258.778-1.937 1.192"/><path fill-rule="evenodd" clip-rule="evenodd" fill="#F3816F" d="M342.65 312.438l14.951-13.166c.681 3.554 1.354 7.051 2.038 10.594l-16.968 2.651a.327.327 0 0 0-.021-.079"/><path fill-rule="evenodd" clip-rule="evenodd" fill="#9BC143" d="M396.219 319.083c.402-.193.785-.48 1.203-.57a5591.72 5591.72 0 0 1 26.454-5.229c1.611-.314 3.063.192 4.185 1.383 1.449 1.54.804 3.354-1.38 3.889-2.86.695-5.734 1.326-8.599 1.984-7.593 1.74-15.187 3.475-22.774 5.236-2.275.528-4.507.681-6.664-.43-2.57-1.319-3.171-3.972-1.398-6.243 1.379-1.767 3.291-2.596 5.431-2.988 12.082-2.227 24.162-4.478 36.257-6.642 2.887-.517 5.51.319 7.671 2.354 1.121 1.05 1.792 2.354 1.368 3.908-.425 1.557-1.681 2.277-3.177 2.636-11.798 2.813-23.592 5.63-35.389 8.443-.808.192-1.605.475-2.421.534-.468.032-.962-.297-1.443-.462.366-.339.681-.87 1.104-.981 2.563-.658 5.152-1.219 7.73-1.813 9.791-2.257 19.582-4.51 29.37-6.772 1.256-.287 2.446-.753 2.775-2.158.347-1.483-.462-2.544-1.569-3.401-2.121-1.646-4.494-1.589-6.982-1.114-11.733 2.25-23.48 4.427-35.197 6.75-1.295.257-2.636 1.063-3.604 1.984-1.627 1.537-1.167 3.845.931 4.633 1.284.48 2.882.692 4.208.411 10.411-2.205 20.79-4.561 31.182-6.867.833-.187 1.753-.402 1.729-1.448-.028-1.061-.879-1.571-1.835-1.723-.596-.099-1.24-.044-1.842.076-8.527 1.724-17.051 3.48-25.582 5.196-.524.104-1.101-.035-1.654-.061-.031-.17-.056-.341-.088-.515"/><path fill-rule="evenodd" clip-rule="evenodd" fill="#539798" d="M419.307 291.347c.506.021 1.051-.074 1.513.079 8.139 2.712 16.262 5.468 24.404 8.164.712.234 1.595.335 2.285.123.607-.179 1.063-.88 1.582-1.352-.484-.487-.888-1.208-1.473-1.43-2.75-1.039-5.553-1.927-8.334-2.887-7.009-2.424-14.016-4.857-21.021-7.284-1.39-.48-2.782-.48-4.127.114-1.728.769-2.298 2.524-1.107 3.975.725.876 1.788 1.667 2.857 2.034 6.774 2.329 13.591 4.528 20.395 6.772 4.563 1.504 9.127 3.006 13.689 4.503 2.513.822 4.975.804 7.304-.589 1.045-.623 1.867-1.478 1.715-2.801-.139-1.243-1.024-1.924-2.151-2.318-7.031-2.473-14.063-4.949-21.094-7.415-4.887-1.716-9.781-3.398-14.652-5.151-.461-.169-.784-.731-1.174-1.11.522-.055 1.11-.302 1.56-.143a7749.685 7749.685 0 0 1 36.342 12.793c1.449.516 2.727 1.405 2.893 3.102.16 1.692-.894 2.807-2.231 3.604-3.231 1.921-6.57 1.779-10.047.623-10.849-3.604-21.73-7.092-32.575-10.711-1.37-.457-2.767-1.219-3.81-2.2-2.342-2.199-1.52-5.332 1.499-6.38 1.766-.609 3.525-.509 5.25.09 9.975 3.468 19.939 6.961 29.906 10.442 1.07.374 2.082.883 2.081 2.161 0 1.298-.973 2.098-2.086 2.326-1.254.257-2.704.475-3.874.101-8.211-2.619-16.372-5.392-24.543-8.132-.387-.131-.715-.431-1.076-.649.035-.151.067-.303.1-.454"/><path fill-rule="evenodd" clip-rule="evenodd" fill="#F3816F" d="M187.639 341.154l7.855 4.91c-4.968.523-9.312 1.765-14 .808-17.427-3.551-34.895-6.894-52.346-10.329-15.81-3.111-31.617-6.233-47.428-9.349-6.774-1.337-13.544-2.696-20.327-3.998-2.804-.537-4.114-1.877-3.735-4.015.411-2.309 2.147-3.256 5.025-2.696 7.489 1.464 14.975 2.952 22.463 4.422 26.105 5.131 52.212 10.255 78.318 15.382 7.007 1.374 14.017 2.74 21.029 4.094.382.073.795-.004 1.192-.014l1.954.785"/><path fill-rule="evenodd" clip-rule="evenodd" fill="#F8A879" d="M131.996 196.763v4.753l-.115.646c-.279 1.555-.413 3.15-.861 4.651-1.665 5.585-5.083 9.934-9.744 13.348-4.485 3.285-9.532 5.438-14.748 7.233a1.695 1.695 0 0 1-.485.082c-2.206.082-4.414.149-6.62.24-1.339.055-2.677.144-4.014.217h-2.985c-.181-.028-.362-.072-.542-.079-3.311-.126-6.621-.242-9.93-.376-.36-.017-.739-.064-1.072-.193-2.259-.881-4.541-1.717-6.754-2.702-3.937-1.753-7.602-3.962-10.725-6.974-3.782-3.648-6.33-7.991-7.279-13.203-.175-.956-.266-1.927-.396-2.89v-4.753c.048-.49.078-.982.147-1.47.774-5.534 1.482-11.081 2.359-16.598.805-5.064 1.792-10.099 2.706-15.146.317-1.753.651-3.503.977-5.254h63.891c.028.086.071.17.086.258 1.393 7.818 2.828 15.63 4.154 23.458.648 3.823 1.1 7.681 1.621 11.525.145 1.071.221 2.151.329 3.227"/><path fill-rule="evenodd" clip-rule="evenodd" fill="#F3816F" d="M125.917 158.746c0 3.65-14.346 6.61-32.042 6.61-17.697 0-32.043-2.96-32.043-6.61 0-3.652 14.347-6.612 32.043-6.612 17.696 0 32.042 2.96 32.042 6.612"/><defs><path id="a" d="M61.832 158.746c0 3.652 14.346 6.61 32.044 6.61 17.696 0 32.042-2.958 32.042-6.61s-14.346-6.612-32.042-6.612c-17.698 0-32.044 2.96-32.044 6.612"/></defs><clipPath id="b"><use xlink:href="#a" overflow="visible"/></clipPath><path clip-path="url(#b)" fill-rule="evenodd" clip-rule="evenodd" fill="#2A7D7D" d="M132.398 107.746c-1.457-.507-2.896-1.087-4.375-1.503-1.582-.442-2.96.047-3.61 1.582-.659 1.561-1.655 1.658-3.049 1.239-.956-.286-1.96-.399-3.012-.605-2.403 9.949-4.799 19.763-7.102 29.604-.137.581.432 1.327.672 1.995.525-.517 1.373-.955 1.529-1.572 2.214-8.791 4.333-17.607 6.478-26.418.067-.265.168-.525.285-.892 1.551.108 2.222.167 1.614 2.298-2.628 9.229-4.907 18.554-7.334 27.932 2.208.611 4.167 1.177 6.14 1.693 1.181.308 2.393.51 3.571.821 1.227.327 2.013.253 2.369-1.291 1.665-7.194 3.551-14.345 5.131-21.563.691-3.145.885-6.414 1.185-9.636.102-1.089-.17-2.215-.273-3.327-.075-.118-.145-.236-.219-.357"/><path clip-path="url(#b)" fill-rule="evenodd" clip-rule="evenodd" fill="#539798" d="M117.911 170.861c.815-2.586 1.62-5.175 2.397-7.772 1.916-6.406 3.29-12.981 4.923-19.54-3.265-.692-6.246-1.322-9.389-1.985-2.469 9.619-4.862 19.371-6.766 29.297h8.835z"/><path clip-path="url(#b)" fill-rule="evenodd" clip-rule="evenodd" fill="#9BC143" d="M72.017 170.861c-.513-1.68-1.023-3.359-1.535-5.038-3.456-11.334-6.974-22.651-10.354-34.008-.91-3.056-3.001-5.219-4.868-7.976-.159 2.308-.292 4.232-.422 6.159l.153 1.395c.128.23.303.448.38.696 1.407 4.546 2.804 9.095 4.193 13.646l7.676 25.127h4.777z"/><path clip-path="url(#b)" fill-rule="evenodd" clip-rule="evenodd" fill="#597387" d="M73.949 125.188c2.765 2.315 4.077 5.449 5.015 8.754 2.565 9.037 5.177 18.065 7.471 27.171.799 3.172 1.102 6.471 1.47 9.749h9.191c.115-7.748 1.613-15.276 3.098-22.826a9152.148 9152.148 0 0 1 3.253-16.414c.608-3.053 1.99-5.617 4.326-7.774 4.76-4.395 7.691-9.696 7.098-16.411-.396-4.482-2.337-7.953-6.771-9.75-.808-.327-1.766-1.362-1.861-2.166-.274-2.292-.14-4.635-.169-7.307l-2.837.206c.168 2.6.425 4.916.41 7.229-.004.708-.572 1.763-1.178 2.066-6.705 3.352-8.888 9.023-8.143 16.032.265 2.485 1.019 5.01 2.033 7.301 1.277 2.888 1.886 5.797 1.318 8.835-1.721 9.227-3.576 18.426-5.387 27.635-.021.108-.143.197-.425.569-.587-2.098-1.131-3.998-1.652-5.905-2.041-7.47-4.12-14.932-6.089-22.42-.701-2.662-.429-5.316.605-7.912 2.789-6.993 2.375-13.711-2.438-19.676-2.244-2.778-5.496-4.136-9.174-3.485-3.537.627-5.843 2.96-7.065 6.217-2.216 5.904-.294 11.129 3.208 15.865 1.254 1.702 3.045 3.036 4.693 4.417m26.492-22.433c2.34-2.646 6.271-3.12 8.895-.987.518.821 1.159 1.589 1.534 2.472 2.042 4.799.67 9.187-2.058 13.179-1.13 1.653-2.808 3.071-4.52 4.146-1.651 1.035-3.341.379-4.443-1.257-2.932-4.353-3.641-12.771.592-17.553m-27.497-.935c2.475-.747 5.71.469 7.301 2.737 2.869 4.096 3.354 8.593 2.197 13.343-1.281 5.246-4.717 6.933-8.965 2.534-3.4-3.162-5.107-7.114-5.06-11.708.034-3.211 1.944-6.126 4.527-6.906"/><path fill-rule="evenodd" clip-rule="evenodd" fill="#2A7D7D" d="M132.398 107.746c-1.457-.507-2.896-1.087-4.375-1.503-1.582-.442-2.96.047-3.61 1.582-.659 1.561-1.655 1.658-3.049 1.239-.956-.286-1.96-.399-3.012-.605-2.403 9.949-4.799 19.763-7.102 29.604-.137.581.432 1.327.672 1.995.525-.518 1.373-.955 1.529-1.571 2.214-8.792 4.333-17.608 6.478-26.419.067-.265.168-.525.285-.892 1.551.108 2.222.167 1.614 2.298-2.628 9.229-4.907 18.554-7.334 27.932 2.208.61 4.167 1.177 6.14 1.693 1.181.308 2.393.51 3.571.821 1.227.326 2.013.253 2.369-1.291 1.665-7.194 3.551-14.345 5.131-21.563.691-3.145.885-6.414 1.185-9.636.102-1.089-.17-2.215-.273-3.327-.075-.118-.145-.236-.219-.357"/><path fill-rule="evenodd" clip-rule="evenodd" fill="#539798" d="M121.597 158.427c1.292-4.917 2.395-9.899 3.634-14.877-3.265-.692-6.245-1.322-9.388-1.986-1.431 5.573-2.83 11.193-4.128 16.863h9.882z"/><path fill-rule="evenodd" clip-rule="evenodd" fill="#9BC143" d="M55.371 132.088c1.406 4.545 2.803 9.095 4.193 13.645l3.877 12.694h4.775c-2.717-8.864-5.443-17.726-8.089-26.611-.91-3.056-3.002-5.22-4.869-7.976-.157 2.308-.291 4.232-.421 6.158.051.464.1.93.152 1.395.13.23.304.447.382.695"/><path fill-rule="evenodd" clip-rule="evenodd" fill="#597387" d="M73.949 125.188c2.765 2.315 4.077 5.449 5.015 8.753 2.313 8.147 4.651 16.29 6.772 24.486h12.558c.549-3.474 1.219-6.932 1.899-10.392a9152.148 9152.148 0 0 1 3.253-16.414c.608-3.053 1.99-5.617 4.326-7.774 4.76-4.395 7.691-9.696 7.098-16.411-.396-4.482-2.337-7.953-6.771-9.75-.808-.327-1.766-1.362-1.861-2.166-.274-2.292-.14-4.635-.169-7.307l-2.837.206c.168 2.6.425 4.916.41 7.229-.004.708-.572 1.763-1.178 2.066-6.705 3.352-8.888 9.023-8.143 16.032.265 2.485 1.019 5.01 2.033 7.301 1.277 2.888 1.886 5.797 1.318 8.835-1.721 9.227-3.576 18.427-5.387 27.635-.021.108-.143.197-.425.569-.587-2.098-1.131-3.998-1.652-5.905-2.041-7.469-4.12-14.931-6.089-22.42-.701-2.662-.429-5.316.605-7.912 2.789-6.993 2.375-13.711-2.438-19.676-2.244-2.778-5.496-4.136-9.174-3.485-3.537.627-5.843 2.96-7.065 6.217-2.216 5.904-.294 11.129 3.208 15.865 1.255 1.703 3.046 3.037 4.694 4.418m26.492-22.433c2.34-2.646 6.271-3.12 8.895-.987.518.821 1.159 1.589 1.534 2.472 2.042 4.799.67 9.187-2.058 13.179-1.13 1.653-2.808 3.071-4.52 4.146-1.651 1.035-3.341.379-4.443-1.257-2.932-4.353-3.641-12.771.592-17.553m-27.497-.935c2.475-.747 5.71.469 7.301 2.737 2.869 4.096 3.354 8.593 2.197 13.343-1.281 5.246-4.717 6.933-8.965 2.534-3.4-3.162-5.107-7.114-5.06-11.708.034-3.211 1.944-6.126 4.527-6.906"/><path fill-rule="evenodd" clip-rule="evenodd" fill="#9BC143" d="M317.412 315.432c.131.277.26.555.389.832.09.307.193.61.266.921.219.955.238 1.907-.101 2.843-.538 1.488-1.898 2.132-3.393 1.611a4.385 4.385 0 0 1-1.361-.792c-.056-.047-.097-.08-.177-.029-.541.346-1.085.685-1.627 1.026-.982.617-1.964 1.233-2.941 1.855a.506.506 0 0 0-.182.199c-.364.756-.724 1.513-1.081 2.273-.593 1.26-1.183 2.521-1.774 3.781l-.295.139c-.348.026-.645-.106-.924-.293-.438-.293-.805-.664-1.146-1.061-.945-1.097-1.693-2.325-2.368-3.601a41.82 41.82 0 0 1-.314-.606l-.175.082c-2.049.956-4.101 1.903-6.141 2.877-.437.208-.862.335-1.344.272-.172-.023-.349-.013-.551-.019.23-.317.437-.611.656-.895a.74.74 0 0 1 .266-.218c2.207-1.036 4.416-2.066 6.625-3.099l.16-.074-.063-.153c-.562-1.313-1.05-2.65-1.345-4.052-.141-.667-.244-1.338-.195-2.023.025-.374.104-.731.379-1.014l.295-.139c.252.073.503.148.757.216.529.141 1.06.274 1.59.414l4.304 1.136c.026.006.059 0 .084-.008.525-.17 1.052-.341 1.576-.509 1.192-.386 2.384-.773 3.576-1.155.093-.029.119-.069.119-.165a4.27 4.27 0 0 1 .32-1.688c.559-1.321 1.838-1.915 3.203-1.479 1.008.321 1.771.974 2.398 1.799.192.256.357.531.535.796"/><path fill-rule="evenodd" clip-rule="evenodd" fill="#F8A879" d="M316.203 245.911l-.044-.723c.021-.251.033-.503.07-.751.115-.765.376-1.468.895-2.056.824-.937 2.007-1.016 2.951-.203.32.275.567.605.77.974.028.051.048.087.122.071.496-.096.992-.188 1.489-.282.897-.169 1.795-.337 2.691-.511a.41.41 0 0 0 .19-.094c.485-.449.967-.902 1.448-1.355.799-.752 1.596-1.508 2.394-2.261l.254-.016c.265.08.442.263.594.48.236.341.398.72.535 1.109.377 1.076.569 2.192.697 3.322.02.176.037.353.056.535l.152-.009c1.777-.111 3.555-.213 5.332-.338.38-.027.728.003 1.063.188.12.066.252.109.398.172-.262.166-.497.322-.738.467a.603.603 0 0 1-.259.083c-1.916.123-3.833.241-5.751.36l-.139.008c.002.054.002.092.002.131.032 1.125.005 2.246-.184 3.358-.089.53-.206 1.052-.439 1.54-.128.268-.288.507-.572.634l-.255.016c-.164-.125-.327-.253-.493-.375-.347-.257-.697-.507-1.045-.763-.943-.691-1.886-1.384-2.83-2.074a.12.12 0 0 0-.062-.019l-1.304-.082c-.985-.062-1.971-.12-2.955-.186-.076-.005-.106.018-.135.087a3.339 3.339 0 0 1-.722 1.146c-.791.808-1.901.873-2.775.16-.646-.526-1.018-1.225-1.239-2.011-.066-.238-.108-.488-.162-.732"/><path fill-rule="evenodd" clip-rule="evenodd" fill="#2A7D7D" d="M311.488 143.986c.059-.452.083-.91.182-1.352.161-.72.31-1.452.573-2.137.329-.856.738-1.687 1.17-2.498.446-.841.934-1.663 1.452-2.46.474-.729.91-1.526 1.547-2.087.813-.718 1.351-1.642 2.105-2.392.517-.513.914-1.143 1.4-1.689.328-.369.713-.692 1.08-1.026.592-.539 1.174-1.089 1.788-1.601 1.195-.992 2.4-1.974 3.619-2.937 1.14-.901 2.347-1.707 3.394-2.733 1.117-1.095 2.325-2.099 3.526-3.103 1.461-1.22 2.94-2.417 4.44-3.59a56.188 56.188 0 0 0 4.028-3.512c.913-.868 1.906-1.652 2.822-2.519.448-.425.8-.952 1.196-1.433l.189-.234.114.023c.033.28.111.565.087.841a18.656 18.656 0 0 1-.244 1.762c-.104.554-.213 1.113-.392 1.646-.285.845-.634 1.668-.949 2.503-.239.631-.447 1.275-.709 1.896-.48 1.141-1.007 2.264-1.485 3.406-.446 1.066-.837 2.156-1.29 3.219-.66 1.553-1.376 3.081-2.027 4.638-.567 1.357-1.083 2.737-1.609 4.112-.451 1.18-.877 2.369-1.329 3.547-.534 1.392-1.133 2.76-1.605 4.172-.228.676-.536 1.134-1.206 1.418-.364.155-.648.512-.953.795-.618.573-1.244 1.14-1.832 1.743-.755.776-1.312 1.679-1.593 2.738-.319 1.208-.604 2.417-.629 3.678-.029 1.388.201 2.742.488 4.084.141.658.419 1.286.626 1.931.042.128.078.27.067.402-.113 1.467-.267 2.931-.342 4.398-.033.645.091 1.298.139 1.946.11 1.508.19 3.018.334 4.523.1 1.031.262 2.059.438 3.082.19 1.101.443 2.192.646 3.292.236 1.28.446 2.566.67 3.848.103.587.215 1.174.314 1.762.012.071-.013.205-.048.214-.074.021-.195.01-.246-.041-.355-.347-.734-.679-1.037-1.07-1.13-1.457-2.217-2.947-3.351-4.399-1.195-1.529-2.447-3.013-3.631-4.55-.803-1.042-1.525-2.146-2.297-3.213-.308-.427-.664-.82-.973-1.248-.683-.941-1.344-1.899-2.021-2.844-.507-.706-1.072-1.374-1.529-2.11-.679-1.09-1.298-2.22-1.916-3.347a67.883 67.883 0 0 1-1.461-2.824c-.254-.52-.493-1.056-.652-1.611-.286-.994-.564-1.997-.737-3.015-.163-.955-.185-1.935-.272-2.902-.012-.131-.048-.259-.072-.389.003-.251.003-.503.003-.753z"/><g fill-rule="evenodd" clip-rule="evenodd"><path fill="#597387" d="M214.717 227.782c2.256-1.542 2.772-3.616 1.969-5.907-.637-1.821-2.702-2.559-5.673-2.292-.371-1.364-.814-2.752-1.089-4.169-.081-.417.208-1.227.521-1.345 2.197-.838 3.402-2.341 3.053-4.687-.335-2.274-1.873-3.514-4.136-3.84-.055-.01-.102-.051-.188-.092l.306-5.524c2.499.101 4.386-.742 5.156-2.999.874-2.554-.482-4.346-2.714-5.729.83-1.641 1.609-3.187 2.461-4.873 2.411 1.25 4.467.744 5.825-1.259 1.375-2.027 1.18-4.198-.764-6.061.668-.665 1.222-1.218 1.78-1.771 1.191-1.185 2.145-2.506 4.146-.826 1.412 1.185 3.19.393 4.52-.725 1.206-1.016 1.732-2.378 1.247-3.965-.362-1.185.006-1.959 1.146-2.411.896-.357 1.75-.857 2.673-1.076.425-.1 1.26.194 1.414.534.845 1.848 3.426 2.436 5.525 1.788 1.732-.535 2.746-2.404 2.594-4.482-.005-.102.046-.206.12-.519 1.762-.163 3.59-.329 5.372-.49.879 3.771 2.75 5.246 5.504 4.652 1.489-.32 2.394-1.232 2.896-2.588.336-.909.817-1.248 1.798-.897 1.324.476 2.686.845 4.008 1.252-.646 4.383 1.704 6.837 5.488 5.853.578-.149 1.275-.422 1.597-.868.863-1.202 1.667-.842 2.558-.146.931.725 1.866 1.442 2.888 2.233-1.298 1.768-1.457 3.602-.372 5.433 1.114 1.883 3.381 2.523 5.506 1.466.99-.494 1.537-.366 2.078.553.681 1.169 1.442 2.291 2.208 3.492-1.611 1.408-2.858 2.876-2.099 5.18.695 2.108 2.265 3.372 4.449 3.092 1.29-.167 1.746.307 1.946 1.431.219 1.218.499 2.426.771 3.722-.512.233-1.035.426-1.515.693-1.497.829-2.431 2.065-2.355 3.828.081 1.894 1.341 3.613 3.115 3.992 1.536.326 1.725 1.027 1.349 2.38-.318 1.126-.362 2.326-.537 3.571-2.479.022-4.513.836-5.067 3.396-.521 2.398.629 4.171 2.972 5.338-.821 1.655-1.61 3.249-2.382 4.81-3.344-.826-4.973-.395-6.259 1.572-1.098 1.68-.843 3.537.88 5.88-1.076 1.044-2.125 2.153-3.29 3.127-.283.237-1.054.196-1.422-.02-2.218-1.305-3.665-1.378-5.503-.004-1.691 1.263-1.927 2.948-1.271 4.869.104.306.03.944-.153 1.036a51.899 51.899 0 0 1-4.199 1.821c-.204.082-.703-.134-.816-.342-1.285-2.413-3.465-2.807-5.696-2.08-2.033.663-2.829 2.499-2.521 4.979l-5.655.387c-.361-2.673-1.693-4.239-3.694-4.607-2.174-.404-3.558.569-5.151 3.745-1.693-.433-3.425-.875-5.225-1.337.08-.617.199-1.056.181-1.491-.064-1.782-.524-3.385-2.304-4.231-1.776-.848-3.825-.598-5.176.768-.76.763-1.364.837-2.181.168-.964-.787-1.984-1.508-2.779-2.107.207-1.507.734-2.913.51-4.186-.531-2.984-3.188-4.31-5.909-3.029-1.203.567-1.694.241-2.254-.76-.61-1.079-1.359-2.072-2.181-3.306m36.372-31.794c-5.944-.288-11.239 4.135-11.355 9.817-.129 6.501 3.692 10.876 9.673 11.487 6.224.638 11.575-4.046 11.843-9.85.273-6.03-4.279-11.164-10.161-11.454"/><path fill="#2A7D7D" d="M189.912 143.831c.413 2.666 1.762 4.176 4.09 4.502 2.592.363 3.833-1.409 4.786-3.654 1.999.689 3.948 1.364 6.082 2.102-.983 2.43-1.162 4.511 1.178 6.037 2.114 1.378 3.964.846 5.866-.872l4.018 4.821c-2.265 2.321-2.705 4.097-1.7 6.264.711 1.54 2.603 2.271 5.439 1.963.317 1.948.64 3.911.896 5.467-1.422 1.069-2.805 1.723-3.625 2.803-1.735 2.279-1.047 4.824 1.551 6.053 1.115.53 1.245 1.13.881 2.109-.255.692-.54 1.374-.754 2.076-.422 1.381-.765 2.45-2.768 1.806-1.562-.5-3.132.326-4.164 1.716-1.001 1.356-1.02 2.835-.325 4.342.259.559.541 1.104.779 1.593l-4.306 4.561c-1.675-2.445-3.615-3.395-5.776-2.491-2.201.919-2.864 3.066-2.72 5.738-1.967.359-3.919.721-5.965 1.1-.471-2.527-1.492-4.285-4.08-4.561-2.641-.283-3.882 1.366-4.874 3.716-1.975-.784-3.893-1.542-5.979-2.366 1.375-2.402.89-4.378-1.074-5.855-2.062-1.551-4.048-.971-5.941.887-1.406-1.699-2.719-3.282-4.097-4.949 2.097-1.6 2.92-3.536 1.864-5.891-1.028-2.299-3.052-2.658-5.564-2.263l-1.017-6.189c2.8-.014 4.355-1.63 4.633-4.104.268-2.39-1.447-3.777-3.706-4.817l2.042-5.783c2.431 1.007 4.583.824 6.159-1.274 1.25-1.662.94-3.55-.377-5.333 1.333-1.591 2.63-3.143 3.983-4.756 2.021 2.139 4.041 3.262 6.383 2.001 1.972-1.06 2.504-3.083 2.231-5.588l5.951-.911m1.026 36.67c4.095.362 8.295-3.148 8.541-7.139.243-3.935-3.152-7.876-7.096-8.235-4.18-.38-8.121 3.025-8.471 7.315-.307 3.761 3.146 7.72 7.026 8.059"/><path fill="#539798" d="M246.229 150l-2.737 5.169c-1.796-.247-3.3-.801-4.671-.569-2.576.438-3.824 2.823-2.98 5.307.402 1.183.094 1.668-1.039 1.949-1.531.378-3.041.85-4.67 1.312-.8-2.332-1.693-4.55-4.613-4.448-2.182.075-3.469 1.444-4.436 3.65-1.891-1.003-3.731-1.979-5.584-2.96 1.581-2.682 1.552-4.448.052-6.145-1.555-1.76-2.967-2.013-5.852-.82l-1.914-6.128c2.887-.664 4.314-2.309 4.492-4.915.11-1.568-1.052-2.893-3.57-4.121l2.757-5.53c-1.528-.107-2.467.822-3.181 2.021-.925 1.557-.665 2.934.941 5.297-1.729 1.621-3.909 2.349-6.13 2.946-.233.063-.813-.411-.917-.736-.644-2.027-2.027-3.234-4.086-3.284-1.974-.046-3.375 1.123-4.222 2.913-.046.097-.146.166-.52.572l-5.972-4.22c2.014-1.866 3.013-3.675 1.621-6.057-1.038-1.776-2.417-2.459-5.063-2.215l.418-7.564c2.725 1.099 4.775.527 6.063-1.639 1.06-1.787.864-3.686-.884-5.583 2.391-1.103 4.589-2.116 6.936-3.2.672 2.515 1.635 4.302 4.058 4.508 2.406.205 3.939-1.116 5.048-3.611l6.063 4.475c-2.297 1.776-2.788 3.858-1.749 5.978.933 1.902 2.863 2.431 4.98 2.169 1 2.562-.138 4.844-.527 7.309l-1.85-.102c1.626 1.232 3.436 1.38 4.678.46 1.457-1.078 2.781-3.333 1.557-6.373l6.002-1.932c.576 2.608 1.808 4.219 4.292 4.452 2.411.226 3.774-1.167 4.698-3.444 1.265.578 2.448 1.075 3.589 1.655 1.313.669 2.1 1.218 1.274 3.172-1.414 3.329 1.508 6.313 5.051 5.541.438-.096.869-.218 1.515-.383.551 1.631 1.123 3.207 1.617 4.807.235.764.166 1.477-.852 1.681-1.982.396-3.03 1.695-3.264 3.629-.235 1.97.719 3.514 2.652 4.539.241.124.48.242.929.468m-11.562-5.985c.19-3.905-2.925-7.619-6.586-7.719-5.003-.137-7.744 2.948-7.941 7.439-.153 3.487 2.425 6.752 7.056 7.056 3.911.255 7.283-2.837 7.471-6.776m-34.918-21.638c-2.476-.167-4.655 1.793-4.763 4.288-.093 2.146 2.006 4.332 4.289 4.464 2.198.127 4.43-1.777 4.594-3.925.199-2.58-1.574-4.656-4.12-4.827"/><path fill="#9BC143" d="M195.308 202.295c-.387 3.285 1.018 5.079 3.419 6.255 1.442.703 3.208.033 5.755-2.282 1.364 1.453 2.771 2.883 4.081 4.396.203.233.137 1.024-.097 1.255-1.541 1.517-2.396 3.198-1.437 5.327 1.033 2.292 2.863 3.396 5.807 3.216.005 2.255.012 4.454.016 6.795-2.896-.287-4.969.441-6.021 2.938-1.023 2.438-.214 4.413 2.131 6.144-1.771 1.693-3.371 3.229-4.955 4.741-1.932-1.738-3.716-3.079-6.139-2.261-2.057.692-2.859 2.242-3.319 5.929-1.772.029-3.568.094-5.364.066-.843-.015-1.451-.293-1.445-1.422.017-2.569-.923-4.066-2.83-4.679-2.186-.707-4.139-.373-5.653 1.515-.106.132-.219.255-.515.603l-4.947-4.967c2.162-1.499 3.157-3.307 2.525-5.768-.527-2.063-2.175-3.484-4.304-3.352-1.475.087-1.938-.4-1.791-1.837.142-1.403.038-2.828.165-4.231.034-.354.56-.952.832-.937 2.523.14 4.517-.612 5.317-3.185.724-2.327-.247-4.196-2.282-5.904l4.859-4.709c2.441 2.895 5.662 3.644 8.39.568.617-.7.848-1.919.873-2.908.023-.889.238-1.325 1.063-1.333 1.891-.029 3.783.011 5.866.027m-4.175 29.122c4.753.162 8.125-3.091 8.452-7.845.286-4.125-4.284-7.933-6.731-8.092-5.542-.357-9.149 3.641-9.161 8.063-.011 4.314 3.078 7.72 7.44 7.874m-.966-137.833c-2.033 2.012-2.398 4.06-1.12 6.122 1.148 1.853 3.079 2.138 5.184 1.744 1.236 2.44.338 4.802.176 7.267-2.391-.271-4.483-.052-5.675 2.217-1.142 2.173-.206 3.913 1.627 5.766-2.05 1.117-3.895 2.168-5.796 3.108-.26.127-.97-.196-1.185-.507-2.831-4.137-5.932-3.98-8.44.463-.05.088-.172.139-.624.482a7558.917 7558.917 0 0 0-6.059-3.485c1.713-1.817 2.47-3.547 1.366-5.614-1.187-2.222-3.111-2.793-5.83-2.253-.061-2.505-.121-4.888-.187-7.502 2.791.773 4.732.081 5.835-2.11.976-1.94.594-3.828-1.259-5.614l6.319-3.874c.932 2.298 2.101 4.134 4.511 4.114 2.316-.018 3.965-1.251 4.72-4.095 2.201 1.29 4.226 2.477 6.437 3.771m-11.158 15.963c2.189.189 4.458-1.792 4.635-4.045.186-2.347-1.634-4.576-3.864-4.735-2.875-.203-4.905 1.479-5.111 4.238-.17 2.263 1.801 4.325 4.34 4.542"/><path fill="#597387" d="M265.375 167.608c2.084-4.524 4.188-9.042 6.247-13.58 3.464-7.642 6.899-15.298 10.444-23.173l5.405 2.217c-1.166 2.637-2.258 5.113-3.425 7.75 20.678 8.019 41.222 15.987 61.947 24.023.294-.646.582-1.232.83-1.835 2.263-5.452 4.554-10.891 6.739-16.373.465-1.163 1.064-1.512 2.252-1.361 1.399.178 2.822.179 4.515.273-.307.809-.544 1.47-.81 2.115-2.703 6.556-5.394 13.119-8.136 19.658-.418.993-.427 1.696.306 2.601 7.6 9.408 15.134 18.87 22.714 28.295 2.983 3.715 5.837 7.567 9.129 10.994 2.602 2.705 2.481 5.584 1.835 8.999-.591-.032-1.191-.063-1.793-.101-14.854-.945-29.707-1.887-44.564-2.838-2.768-.178-5.547-.295-8.302-.626-.905-.111-1.97-.598-2.572-1.264-16.578-18.293-33.11-36.631-49.635-54.973-.452-.502-.758-1.136-1.132-1.709l-.575.166-6.111 13.457c-1.814-.691-3.584-1.363-5.347-2.036.014-.224.025-.452.039-.679m63.615 38.561c5.096-12.331 9.946-24.073 14.832-35.898-20.897-8.103-41.523-16.099-62.207-24.118-.505 1.109-.817 2.039-1.32 2.847-.791 1.259-.547 2.123.457 3.229a11029.983 11029.983 0 0 1 38.192 42.316c3.325 3.698 6.513 7.524 10.046 11.624m48.782 5.381c-9.873-12.235-19.6-24.29-29.523-36.591-4.748 11.497-9.364 22.673-14.112 34.177 14.632.809 28.951 1.6 43.635 2.414"/><path fill="#485D70" d="M376.414 254.404c-2.058-.593-4.137-1.113-6.164-1.79-17.048-5.711-29.254-23.001-27.14-43.001 1.868-17.678 16.393-32.703 34.569-35.287 23.139-3.287 44.407 13.993 45.937 37.301.023.381.173.751.264 1.124-.186 2.835-.369 5.668-.554 8.506-.14.359-.336.703-.409 1.079-3.145 15.847-15.588 28.366-31.492 31.619-2.146.439-4.337.676-6.511 1.006-2.834-.189-5.67-.371-8.5-.557m-27.333-42.309c-1.246 18.852 13.073 35.231 31.89 36.482 18.87 1.255 35.252-13.021 36.527-31.839 1.286-18.928-13.06-35.338-31.969-36.574-18.843-1.23-35.21 13.106-36.448 31.931m31.287-78.369c-.128-1.34-1.045-1.884-2.37-1.926-6.235-.209-12.472-.52-18.71-.658-3.96-.085-7.93.018-11.891.157-.338.011-.671.19-1 .407-.13.268-.272.528-.426.78-.008.16-.01.324-.023.484.319.444.643.883 1.031 1.261.294.285.831.325 1.265.462 4.603 1.412 9.214 2.803 13.803 4.269.472.151.803.75 1.2 1.141l-.488.654c-1.918-.125-3.835-.281-5.758-.362-1.238-.054-2.103.515-2.25 1.818-.134 1.223-.169 2.456-.263 3.855 3.522.23 6.787.453 10.054.653 2.453.148 3.161-.469 3.355-2.929.137-1.749.232-3.499.353-5.318 3.411-.805 6.708-1.617 10.021-2.346 1.351-.298 2.232-.967 2.097-2.402m-50.578 89.623c-6.717-.428-11.751-6.05-11.332-12.656.422-6.622 6.121-11.575 12.82-11.152 6.712.424 11.751 6.06 11.331 12.661-.421 6.62-6.115 11.572-12.819 11.147m.013-2.74c5.037.418 9.597-3.362 10.057-8.337.459-5.011-3.454-9.571-8.594-9.996-5.08-.425-9.716 3.487-10.079 8.511-.357 4.953 3.547 9.402 8.616 9.822m-46.399-90.821l4.671 1.983c-.685 1.797-1.339 3.513-2.075 5.456-3.849-1.563-7.558-3.053-11.246-4.598-.37-.152-.747-.571-.882-.951-.359-1 1.503-5.054 2.493-5.446 3.686-1.463 7.368-2.932 11.095-4.279.825-.298 2.296-.501 2.65-.071.866 1.042 1.39 2.451 1.735 3.79.083.329-.976 1.143-1.641 1.434-2.062.905-4.19 1.669-6.8 2.682"/><path fill="#485D70" d="M383.068 223.741c-5.242-.327-9.115-4.614-8.795-9.744.324-5.144 4.681-8.935 9.907-8.608 5.239.325 9.107 4.622 8.79 9.748-.324 5.145-4.679 8.929-9.902 8.604m.977-16.26c-3.91-.228-7.445 2.839-7.665 6.646-.222 3.831 2.914 7.288 6.814 7.517 3.924.23 7.438-2.815 7.659-6.642.223-3.835-2.906-7.294-6.808-7.521m-53.797 8.726c-2.785-.176-4.819-2.488-4.629-5.271.188-2.773 2.524-4.792 5.31-4.584a4.892 4.892 0 0 1 4.548 5.18c-.155 2.791-2.449 4.845-5.229 4.675"/><path fill="#485D70" d="M383.246 219.662c-2.775-.204-4.776-2.548-4.559-5.336.222-2.766 2.581-4.746 5.375-4.507 2.687.229 4.657 2.534 4.477 5.241-.185 2.78-2.515 4.803-5.293 4.602"/></g><path d="M269.792 129.378c.088-.476.204-.948.259-1.427.109-.965.662-1.72 1.156-2.498.685-1.076 1.628-1.877 2.727-2.516.787-.456 1.538-.97 2.311-1.449.174-.108.37-.184.563-.256.87-.327 1.733-.684 2.62-.958.694-.215 1.421-.324 2.132-.487.619-.142 1.235-.295 1.897-.456.87 1.463 1.974 2.816 3.444 3.861-.096.8-.665 1.305-1.2 1.813-.644.612-1.496.813-2.331.833-.935.022-1.875-.146-2.813-.237-1.409-.139-2.798-.133-3.904.924a14.057 14.057 0 0 0-1.637 1.854c-.572.783-1.05 1.633-1.567 2.455-.219.349-.419.71-.655 1.046-.4.57-.972.794-1.642.646-.663-.146-.989-.666-1.194-1.268-.069-.203-.11-.416-.165-.625l-.001-1.255zM312.6 64.914c-.589-.626-1.148-1.25-1.526-2.042-.332-.695-.743-1.356-1.164-2.005-.428-.658-1.149-.938-1.819-1.264-1.197-.583-2.478-.466-3.754-.433-1.151.029-2.351.238-3.412-.386-.865-.508-1.589-1.204-2.052-2.117-.533-1.049-1.136-2.077-1.537-3.177-.521-1.43-.701-2.94-.582-4.474.045-.575.066-1.151.098-1.734.241-.033.45-.039.646-.091.531-.141.604-.37.321-.841-.461-.771-.533-1.576-.194-2.421.235-.587.478-1.179.637-1.789.129-.488.12-1.009.206-1.511.048-.282.131-.566.253-.825.44-.932.913-1.848 1.353-2.779.175-.369.365-.464.816-.436.9.056 1.817-.014 2.717-.126.793-.099 1.577-.296 2.354-.5 1.093-.286 2.164-.651 3.259-.924 1.646-.409 3.12-.083 4.387 1.103.675.63 1.002 1.373 1.103 2.289.157 1.417.421 2.802 1.081 4.115.39.777.526 1.701.664 2.577.23 1.47.99 2.453 2.397 2.928.309.104.626.183 1.002.291-.026.211-.038.485-.096.75-.251 1.15-.249 2.317-.191 3.479.064 1.272.564 2.387 1.484 3.399-2.886 2.892-5.198 6.303-8.451 8.944z" fill-rule="evenodd" clip-rule="evenodd" fill="#F8A879"/><path fill-rule="evenodd" clip-rule="evenodd" fill="#485D70" d="M295.913 32.358v-.67c.018-.022.048-.043.049-.065.037-1.316.442-2.55.835-3.788.275-.864.528-1.739 1.427-2.194.318-.162.637-.322.954-.482h.252c.869.25 1.481.839 2.082 1.486.828.896 1.722 1.194 3.012.721 1.077-.396 2.134-.847 3.212-1.234 1.077-.387 2.191-.591 3.344-.514.631.042 1.264.074 1.893.148.919.107 1.866.142 2.745.402 1.041.309 2.013.847 3.031 1.244.841.327 1.614.764 2.244 1.4.563.565 1.045 1.21 1.576 1.807.743.838 1.498 1.667 2.252 2.497.774.852 1.38 1.84 1.676 2.922.445 1.633.751 3.303.381 5.035-.307 1.429-.752 2.783-1.594 3.981-.387.55-.819 1.072-1.266 1.576-.3.339-.637.658-.998.931-.81.612-1.765.921-2.733 1.148-.739.174-1.496.178-2.15-.427.276-.342.557-.665.812-1.008 1.114-1.494.663-3.419-.807-4.463a.534.534 0 0 0-.354-.1c-.365.06-.746.106-1.083.248-.317.134-.589.38-.956.628-.311-.542-.712-1.068-.932-1.661-.295-.799-.535-1.639-.637-2.48-.084-.704-.181-1.367-.45-2.037-.414-1.029-2.191-2.07-3.282-1.89-1.415.233-2.797.664-4.198.985-.97.223-1.943.439-2.925.598-1.159.187-2.321.074-3.486-.039-1.583-.152-2.678-.953-3.26-2.403-.297-.736-.448-1.533-.666-2.302z"/><path d="M320.206 45.901c-.035.041-.09.075-.103.122-.458 1.707-1.668 2.825-3.001 3.851-.624.481-1.303.851-2.082.992-.921.168-1.433-.056-1.967-.805-.367-.517-.041-1.186.63-1.377.29-.083.574-.196.87-.249.813-.146.988-.752 1.081-1.431.079-.572-.196-1.044-.404-1.545-.25-.603-.532-1.218-.197-1.895.488-.986 1.285-1.36 2.408-1.364.619-.003 1.087.136 1.524.534.433.395.752.846.884 1.425.108.472.237.938.356 1.408l.001.334zm-28.21-.921c.224-.668.576-.879 1.278-.761.486.082.921-.017 1.354-.267.873-.507 1.511-1.255 2.167-1.991.248-.278.479-.573.75-.828.353-.336.904-.399 1.229-.181.286.193.354.644.174 1.143-.289.806-.575 1.612-.866 2.418-.185.512-.03.982.179 1.444.046.102.095.204.158.294.555.776-.04 1.398-.695 1.633-.862.311-1.677.015-2.375-.425-.787-.497-1.526-1.053-2.441-1.302-.442-.12-.689-.472-.91-.842-.002-.11-.002-.222-.002-.335z" fill-rule="evenodd" clip-rule="evenodd" fill="#F3816F"/><path fill-rule="evenodd" clip-rule="evenodd" fill="#2A7D7D" d="M328.764 215.254c-.239-.052-.476-.128-.717-.149-.705-.06-1.413-.076-2.115-.151-.419-.046-.832-.164-1.245-.26-.778-.178-1.561-.347-2.332-.553a4.365 4.365 0 0 1-.95-.404c-.824-.453-1.651-.907-2.447-1.406-.928-.584-1.568-1.378-1.562-2.543.006-.867.465-1.229 1.296-1.001.542.147 1.069.359 1.601.551 1.548.557 3.158.771 4.79.869.921.056 1.815-.069 2.705-.322.822-.231 1.665-.394 2.498-.591 1.253-.297 2.379-.896 3.518-1.47.862-.437 1.583-1.013 2.12-1.827.442-.672.975-1.29 1.381-1.982.251-.431.342-.957.51-1.455.819.136 1.668.241 2.497.425.922.207 1.766-.07 2.608-.331.571-.176.81-.151 1.135.371.868 1.392 1.354 2.894 1.165 4.549a35.375 35.375 0 0 1-.515 3.324c-.118.557-.418 1.081-.67 1.604a.557.557 0 0 1-.394.271c-.925.085-1.854.185-2.757-.152-.34-.127-.464-.379-.402-.728.083-.455-.096-.836-.354-1.303-.266.27-.546.467-.707.734-.459.766-1.15 1.257-1.857 1.755-1.119.788-2.396 1.175-3.677 1.577-1.453.455-2.948.471-4.441.539-.089.006-.176.04-.263.06l-.419-.001z"/><path fill-rule="evenodd" clip-rule="evenodd" fill="#539798" d="M345.91 104.961c.658.096 1.269.188 1.879.271.769.105 1.535.231 2.306.299 1.188.105 2.38.175 3.571.245.204.012.412-.05.619-.073 1.554-.168 3.063-.565 4.594-.859 1.43-.275 2.769-.775 4.098-1.319 1.296-.529 2.568-1.118 3.835-1.715a72.233 72.233 0 0 0 3.071-1.546c1.085-.574 2.198-1.114 3.213-1.796 1.077-.723 2.082-1.561 3.057-2.419.504-.444.864-1.047 1.304-1.568.251-.296.519-.58.801-.846.082-.076.259-.121.359-.086.096.034.211.189.212.293.01.967.021 1.937-.019 2.902a14.587 14.587 0 0 1-.221 1.944 21.342 21.342 0 0 1-.499 2.179 78.14 78.14 0 0 1-1.181 3.764 57.626 57.626 0 0 1-1.317 3.432 180.355 180.355 0 0 1-2.269 5.185c-.406.886-.888 1.739-1.363 2.593a287.064 287.064 0 0 1-2.418 4.252c-.505.874-1.051 1.724-1.557 2.597-.323.562-.581 1.162-.911 1.718-.578.974-1.194 1.926-1.784 2.894-.323.529-.606 1.083-.942 1.604-.377.584-.8 1.14-1.19 1.715-.419.618-.838 1.236-1.231 1.87-.771 1.246-1.507 2.515-2.293 3.751a137.222 137.222 0 0 1-2.59 3.915c-.87 1.267-1.799 2.492-2.664 3.763a115.163 115.163 0 0 0-2.461 3.788 87.06 87.06 0 0 0-2.093 3.517c-.369.658-.663 1.359-.97 2.05a26.533 26.533 0 0 0-.755 1.833 138.155 138.155 0 0 0-1.229 3.611c-.363 1.122-.727 2.246-1.037 3.382a19.451 19.451 0 0 0-.453 2.281 217.431 217.431 0 0 0-.701 5.267c-.115.95-.186 1.906-.244 2.862-.05.83-.033 1.664-.081 2.494-.139 2.394-.319 4.786-.433 7.181-.05 1.049.033 2.103.039 3.155.01 1.399.002 2.796.003 4.194.001.901-.002 1.801.007 2.702.014 1.432.014 2.865.065 4.297.031.844.166 1.684.226 2.529.058.831.088 1.663.116 2.495.013.36-.545.949-1.029 1.104-1.267.411-2.551.486-3.852.172-.566-.136-1.14-.25-1.692-.425-.148-.048-.305-.264-.342-.43-.178-.781-.313-1.573-.47-2.358-.179-.897-.361-1.793-.547-2.688-.161-.771-.319-1.546-.495-2.315a142.197 142.197 0 0 0-.771-3.236c-.386-1.521-.805-3.034-1.189-4.556a615.43 615.43 0 0 1-1.549-6.229c-.405-1.675-.812-3.349-1.166-5.036-.452-2.149-.892-4.302-1.264-6.466-.377-2.193-.764-4.392-.967-6.604-.26-2.829-.32-5.671.177-8.494.467-2.654 1.062-5.274 1.929-7.83a295.52 295.52 0 0 0 1.672-5.107c.38-1.19.701-2.4 1.1-3.585.313-.931.708-1.834 1.056-2.755.724-1.919 1.424-3.848 2.168-5.759a226.957 226.957 0 0 1 2.154-5.314c.627-1.496 1.305-2.97 1.936-4.463.437-1.033.824-2.086 1.253-3.122.237-.575.535-1.125.77-1.699a58.25 58.25 0 0 0 1.123-2.9c.467-1.349.926-2.703 1.304-4.079.178-.644.157-1.342.223-2.017.008-.11-.001-.218-.001-.406z"/><path fill-rule="evenodd" clip-rule="evenodd" fill="#9BC143" d="M286.742 123.658c-1.18-.522-2.031-1.438-2.81-2.419-.429-.542-.775-1.149-1.149-1.733-.208-.323-.177-.621.028-.968.478-.808 1.147-1.413 1.851-2.01.873-.743 1.686-1.556 2.549-2.312a275.15 275.15 0 0 1 3.719-3.188c1.602-1.352 3.235-2.667 4.813-4.045.886-.776 1.636-1.708 2.534-2.467 1.687-1.424 3.1-3.106 4.528-4.76 2.244-2.597 4.396-5.293 5.821-8.448.666-1.471 1.143-3.038 1.577-4.598.42-1.506.689-3.056.997-4.592.289-1.442.564-2.888.801-4.338.109-.667.07-1.358.175-2.026.13-.833.306-1.663.52-2.48.375-1.446.75-2.896 1.214-4.314.206-.63.586-1.22.966-1.774.595-.866 1.16-1.789 1.916-2.498.9-.844 1.969-1.519 3.004-2.208.591-.393 1.262-.663 1.893-.996a.435.435 0 0 0 .201-.194c.279-.709.535-1.427.821-2.133.305-.754.636-1.498.958-2.25l2.271.801c1.824.643 3.549 1.501 5.263 2.39 1.725.893 3.471 1.745 5.204 2.622 2.25 1.138 4.495 2.288 6.748 3.42 1.102.554 2.219 1.077 3.323 1.625.475.235.934.502 1.401.752.782.415 1.558.84 2.348 1.239 2.774 1.402 5.438 2.983 7.964 4.799 1.14.818 2.313 1.588 3.444 2.417 1.71 1.255 3.398 2.542 5.093 3.82 2.114 1.594 4.043 3.398 5.919 5.263.582.577 1.236 1.094 1.741 1.731.883 1.113 1.939 2.089 2.616 3.371.379.718.857 1.384 1.297 2.068.039.059.125.088.188.13v.084c-.044.111-.076.229-.134.333-.747 1.351-1.566 2.642-2.84 3.574-.534.391-1.032.839-1.594 1.185-1.51.928-3.007 1.889-4.579 2.699-1.967 1.013-3.99 1.916-6.014 2.811-1.423.629-2.862 1.23-4.404 1.538-1.368.273-2.725.606-4.093.876-.553.109-1.124.151-1.688.166a21.431 21.431 0 0 1-1.913-.06c-.746-.05-1.495-.096-2.233-.208a96.67 96.67 0 0 1-3.691-.66c-.654-.128-1.215-.257-1.457-1.116-.55-1.952-1.707-3.609-2.992-5.152-1.309-1.568-2.876-2.876-4.545-4.032-2.055-1.424-4.193-2.725-6.278-4.104-.786-.521-1.581-1.051-2.271-1.686-.83-.766-1.553-1.648-2.338-2.498l-1.261 2.482c-.217.427-.426.86-.652 1.282-.359.67-.707 1.348-1.106 1.994-.456.738-1.013 1.416-1.441 2.169-.726 1.273-1.501 2.514-2.479 3.6a191.243 191.243 0 0 1-4.908 5.241 99.997 99.997 0 0 1-4.008 3.915c-.948.874-1.965 1.68-2.996 2.456-1.275.959-2.606 1.844-3.898 2.782-.881.64-1.71 1.354-2.604 1.972-1.833 1.265-3.69 2.494-5.546 3.726-.924.614-1.864 1.202-2.797 1.803-.723.466-1.447.929-2.168 1.398-.884.576-1.765 1.157-2.648 1.736-.059-.003-.115-.003-.171-.003z"/><path fill-rule="evenodd" clip-rule="evenodd" fill="#B8DD63" d="M320.484 54.698c1.028.563 2.055 1.131 3.087 1.688.299.162.397.418.236.77-.253.553-.537 1.093-.772 1.653-.437 1.039-.848 2.09-1.298 3.205-1.597.166-2.841 1.283-4.17 2.23-1.206.86-2.008 2.057-2.79 3.293-.78 1.234-1.164 2.589-1.474 3.981-.068.303-.179.46-.488.517-.241.045-.469.159-.702.243h-.503c-.892-.31-1.116-.977-1.048-1.852.06-.782.058-1.57.062-2.356.004-.969-.011-1.94-.031-2.91-.002-.112-.101-.222-.153-.333v-.083c.131-.116.254-.243.395-.344.821-.589 1.721-1.085 2.283-1.98.137-.218.361-.381.545-.571.751-.773 1.6-1.475 2.229-2.337.856-1.172 1.845-2.209 2.829-3.26.481-.513.954-1.035 1.43-1.554h.333z"/><g fill-rule="evenodd" clip-rule="evenodd"><path fill="#539798" d="M290.395 273.787l-.147 6.041c-.781.626-1.599 1.215-2.341 1.889-15.483 14.073-30.973 28.139-46.425 42.246-5.523 5.042-10.949 10.19-16.418 15.286-.367-.009-.73-.018-1.098-.025-.409-.179-.803-.427-1.232-.53-8.956-2.232-17.916-4.436-26.869-6.663-42.915-10.678-85.823-21.367-128.738-32.036-13.523-3.362-27.059-6.671-40.762-10.044l.143-5.911c2.429.06 4.909-.446 6.901.317 2.405.917 4.113.059 6.014-.784 25.397-11.248 50.78-22.531 76.203-33.719 1.477-.652 3.355-1.007 4.921-.74 15.499 2.611 30.975 5.365 46.453 8.11 18.26 3.239 36.515 6.521 54.775 9.766 18.365 3.263 36.733 6.522 55.114 9.702.794.136 2.264-.308 2.509-.879 1.176-2.696 3.364-2.24 5.509-2.161 1.825.065 3.657.09 5.488.135"/><path fill="#DFF1EF" d="M290.552 272.803c-.009.368-.019.733-.025 1.1-.785.627-1.6 1.213-2.341 1.889-15.418 14.011-30.837 28.016-46.227 42.063-5.588 5.103-11.08 10.309-16.621 15.47l-1.095-.027c-5.12-1.336-10.221-2.728-15.355-4.002-55.156-13.723-110.321-27.421-165.481-41.136-5.56-1.384-11.103-2.83-17.027-4.34.67-.445.876-.625 1.114-.732a74605.97 74605.97 0 0 1 89.745-39.771c.785-.348 1.779-.522 2.617-.396 3.612.554 7.202 1.251 10.8 1.89 27.27 4.854 54.537 9.72 81.807 14.564 20.257 3.596 40.518 7.186 60.784 10.722 5.75 1.004 11.534 1.811 17.305 2.706"/><path d="M252.365 276.041c-.419.293-.87.551-1.251.889-2.391 2.116-4.75 4.271-7.167 6.357-.366.315-1.023.559-1.472.469-10.205-2.04-20.4-4.13-30.597-6.213-.143-.029-.279-.097-.56-.195.317-.261.546-.472.796-.655 2.858-2.077 5.729-4.136 8.571-6.235.621-.458 1.172-.58 1.959-.428 9.615 1.88 19.24 3.708 28.861 5.553.294.057.578.154.866.233l-.006.225m-3.686-.09c-8.464-1.628-16.612-3.204-24.769-4.741-.373-.068-.88.112-1.208.345-1.899 1.35-3.766 2.75-5.64 4.135-.645.476-1.286.957-2.086 1.553 8.641 1.758 17.026 3.47 25.417 5.156.331.066.816.041 1.047-.156 2.366-2.014 4.696-4.071 7.239-6.292m-29.352 29.338c-3.614 3.229-7.263 6.206-10.555 9.535-1.991 2.013-3.784 2.196-6.403 1.485-10.561-2.87-21.191-5.479-31.797-8.184-.362-.093-.722-.192-1.302-.346.462-.361.786-.632 1.129-.879 4.349-3.155 8.689-6.321 13.069-9.433.417-.298 1.13-.439 1.628-.324 11.224 2.607 22.437 5.263 33.651 7.91.142.036.275.111.58.236m-45.31 2.159c.393.135.59.219.795.271 9.463 2.394 18.924 4.796 28.398 7.144.435.108 1.105-.114 1.462-.419 3-2.561 5.953-5.176 8.921-7.771.407-.355.828-.698 1.306-1.098-.281-.167-.368-.248-.465-.271-9.209-2.192-18.415-4.392-27.634-6.539-.456-.105-1.11.114-1.514.403-2.809 2.012-5.578 4.081-8.358 6.133l-2.911 2.147m13.94-13.283c3.913-2.839 7.711-5.595 11.512-8.35 2.587-1.875 5.162-3.766 7.782-5.592.405-.283 1.063-.443 1.538-.345 10.369 2.115 20.726 4.278 31.085 6.436.104.021.195.098.421.216-.603.561-1.154 1.09-1.725 1.599-5.072 4.532-10.14 9.069-15.238 13.573-.333.293-.951.531-1.356.439-11.208-2.55-22.404-5.144-33.602-7.735-.101-.025-.189-.107-.417-.241m48.53-7.522c-.415-.136-.621-.225-.837-.268-8.311-1.733-16.62-3.472-24.938-5.158-.499-.101-1.192.063-1.611.363-3.18 2.275-6.315 4.611-9.462 6.933-2.471 1.823-4.939 3.649-7.5 5.542.346.126.544.224.752.271 8.921 2.055 17.84 4.116 26.771 6.127.445.1 1.112-.113 1.476-.419 2.189-1.835 4.32-3.737 6.471-5.618 2.909-2.547 5.817-5.095 8.878-7.773m-96.362-20.957c-3.586 1.792-6.961 3.482-10.631 5.318l6.829 1.502c.023-.053.047-.104.071-.155l-1.485-.87c1.086-.336 1.939-.498 2.899-.002 2.181 1.123 4.41 2.154 6.567 3.48l-13.568-.873c.991-1.528 2.354-.217 3.394-.918-2.031-.44-3.943-.881-5.871-1.247-.357-.066-.805.104-1.157.276-3.437 1.693-6.855 3.425-10.3 5.104-.434.211-1.024.33-1.482.226-8.283-1.884-16.557-3.808-24.832-5.726-.214-.05-.418-.137-.852-.283 2.303-1.023 4.417-1.97 6.537-2.904 5.768-2.543 11.563-5.027 17.289-7.666 1.283-.591 2.395-.377 3.594-.129 7.343 1.516 14.685 3.043 22.026 4.571.257.052.504.15.972.296m-46.711 5.726c7.117 1.65 13.932 3.243 20.756 4.79.497.11 1.134.012 1.598-.211 4.495-2.173 8.966-4.396 13.443-6.603l7.289-3.598c-.414-.146-.648-.262-.895-.314-6.017-1.261-12.039-2.492-18.044-3.792-1.165-.251-2.155-.117-3.231.38-3.92 1.809-7.878 3.53-11.822 5.285-2.941 1.312-5.878 2.628-9.094 4.063m40.321 10.291c2.888-1.575 5.517-3.011 8.146-4.444 4.685-2.549 9.36-5.116 14.072-7.616a3.206 3.206 0 0 1 1.979-.291c8.819 1.776 17.628 3.607 26.438 5.429.218.046.427.138.77.25-.288.228-.49.418-.719.563-6.594 4.19-13.184 8.391-19.803 12.542-.471.296-1.206.441-1.742.321-9.479-2.153-18.948-4.357-28.417-6.552-.142-.033-.278-.077-.724-.202m4.208-.262c.107.196.118.252.141.255 7.781 1.796 15.561 3.601 23.352 5.354.47.106 1.11-.06 1.533-.319 5.183-3.196 10.34-6.433 15.503-9.661.971-.608 1.939-1.223 3.045-1.923-.483-.14-.766-.241-1.057-.302-7.018-1.46-14.04-2.896-21.05-4.394-.804-.172-1.427-.068-2.115.315-4.035 2.251-8.086 4.471-12.131 6.7-2.397 1.321-4.794 2.64-7.221 3.975m37.648 20.449c-5.077-.364-10.154-.739-15.234-1.078-.771-.051-1.13-.289-.879-1.162l4.216.138.041-.202c-9.686-2.386-19.372-4.771-29.206-7.191.249-.219.399-.402.59-.514 3.145-1.843 6.253-3.753 9.47-5.455.791-.416 1.946-.143 2.933-.187l.083.449c-2.939 1.74-5.878 3.482-9.069 5.374 9.302 2.271 18.321 4.474 27.341 6.675l.065-.177c-.809-.446-1.621-.893-2.431-1.341l-.006-.322c.835-.053 1.818-.42 2.481-.107 3.282 1.544 6.479 3.268 9.707 4.929a4.544 4.544 0 0 0-.102.171m30.737-30.975l-2-.859.002-.267c.624-.04 1.32-.289 1.855-.092a137.007 137.007 0 0 1 9.043 3.67c-3.272-.208-6.545-.419-9.819-.622-1.009-.062-2.024-.068-3.027-.183-.386-.044-.746-.317-1.118-.486l.12-.328c1.051.033 2.102.069 3.151.103l.026-.159c-2.126-.425-4.252-.854-6.379-1.276-5.304-1.054-10.611-2.098-15.913-3.171-.813-.164-1.501-.129-2.238.346-1.546.996-3.218 1.804-4.726 2.852-1.168.812-2.257.772-3.588.226.286-.205.49-.378.719-.512 2.073-1.218 4.168-2.397 6.218-3.654.8-.49 1.552-.55 2.454-.369 8.14 1.634 16.288 3.229 24.433 4.833.243.048.492.067.737.102l.05-.154m-24.191 13.647l3.775.124.027-.161-8.045-1.785c.451-.831 1.093-.838 1.823-.676 2.67.596 5.342 1.176 8.09 1.576l-2.306-1.105-.013-.31c.797-.004 1.689-.244 2.373.033a103.739 103.739 0 0 1 8.898 4.103c-1.076-.034-2.156-.043-3.231-.11-3.506-.228-7.01-.481-10.517-.712-.587-.04-1.058-.137-.874-.977" fill="#539798"/><path d="M109.296 243.579c-.539 1.324-.08 2.479.58 3.646l.93-.725c-.287-.7-.696-1.378-.473-2.281.333.105.655.156.922.306 1.396.789 2.317 1.969 2.747 3.514.045.162.014.412-.086.542-.697.909-.791 1.872-.23 2.696.572.835 1.489 1.108 2.589.775.04-.012.088-.006.133-.007l.731-.572c.032-.068.052-.139.091-.204.91-1.527-.002-3.225-1.787-3.326-.059-.002-.12-.009-.21-.018-.263-1.098-.766-2.084-1.527-2.91a10.68 10.68 0 0 0-1.559-1.365 2.927 2.927 0 0 0-2.267-.53l-.584.459m-8.529 3.778c-.54 1.325-.079 2.479.58 3.647.331-.259.618-.485.93-.727-.287-.7-.695-1.378-.473-2.28.333.105.657.154.923.304 1.396.791 2.317 1.971 2.748 3.516.044.162.013.411-.088.542-.696.908-.792 1.871-.229 2.695.572.837 1.489 1.11 2.591.775.039-.012.086-.005.131-.006.243-.19.486-.382.731-.572.031-.067.052-.14.091-.205.909-1.526-.002-3.226-1.785-3.325-.063-.003-.122-.009-.211-.018-.263-1.098-.766-2.085-1.527-2.911-.467-.504-1-.959-1.559-1.363a2.918 2.918 0 0 0-2.266-.531l-.587.459m-8.528 3.648c-.54 1.325-.079 2.48.579 3.646l.93-.725c-.287-.7-.696-1.378-.473-2.281.333.106.656.155.923.306 1.395.79 2.317 1.97 2.748 3.514.043.162.012.412-.088.542-.697.909-.792 1.871-.229 2.695.572.836 1.489 1.11 2.589.776.039-.012.088-.006.132-.007.244-.188.487-.382.731-.572.031-.067.052-.139.091-.203.91-1.527-.002-3.227-1.786-3.327-.06-.002-.122-.009-.21-.017a6.45 6.45 0 0 0-1.527-2.911c-.468-.505-1-.959-1.56-1.365a2.921 2.921 0 0 0-2.266-.529c-.194.152-.387.306-.584.458m-8.53 3.713c-.54 1.324-.079 2.479.58 3.646l.929-.726c-.286-.698-.695-1.378-.472-2.28.333.106.655.154.922.305 1.396.79 2.317 1.969 2.748 3.515.044.161.013.411-.088.542-.696.908-.792 1.871-.229 2.695.572.836 1.489 1.109 2.59.776.04-.013.087-.007.132-.007.243-.188.487-.382.731-.572.032-.067.051-.141.091-.205.909-1.526-.003-3.225-1.786-3.325-.062-.002-.121-.01-.211-.018a6.45 6.45 0 0 0-1.526-2.91c-.469-.505-1-.959-1.56-1.365a2.923 2.923 0 0 0-2.267-.529c-.192.152-.387.303-.584.458m-8.528 3.778c-.54 1.325-.079 2.479.58 3.646.329-.258.618-.484.93-.726-.288-.699-.695-1.377-.473-2.28.333.105.656.153.923.305 1.395.791 2.316 1.968 2.748 3.515.043.161.012.411-.088.542-.696.907-.792 1.871-.229 2.694.572.838 1.489 1.11 2.59.776.04-.013.086-.004.132-.006l.731-.572c.031-.068.052-.141.091-.204.909-1.527-.002-3.228-1.787-3.327-.061-.001-.121-.008-.21-.017a6.455 6.455 0 0 0-1.527-2.911c-.468-.505-1-.958-1.56-1.364a2.927 2.927 0 0 0-2.267-.53l-.584.459m-8.529 3.649c-.54 1.324-.08 2.479.58 3.646.33-.259.618-.484.93-.726-.287-.699-.696-1.38-.473-2.28.333.105.656.153.923.304 1.396.79 2.317 1.969 2.747 3.516.045.161.013.411-.087.541-.697.908-.792 1.871-.23 2.695.572.837 1.489 1.11 2.59.775.039-.012.087-.005.132-.006.243-.188.486-.382.73-.571.032-.068.052-.141.092-.205.91-1.526-.002-3.227-1.787-3.326-.06-.002-.121-.009-.21-.018-.263-1.098-.766-2.085-1.527-2.91-.468-.505-1-.96-1.56-1.364a2.924 2.924 0 0 0-2.267-.531c-.192.153-.386.304-.583.46m-8.529 3.709c-.539 1.326-.079 2.48.58 3.646.33-.257.617-.483.931-.724-.288-.701-.697-1.38-.474-2.281.334.106.657.153.924.303 1.395.792 2.316 1.97 2.747 3.517.044.161.013.41-.087.54-.697.909-.792 1.872-.229 2.695.571.838 1.488 1.112 2.589.776.04-.012.087-.004.132-.005.244-.19.486-.384.731-.573.032-.068.052-.139.092-.203.909-1.528-.003-3.227-1.786-3.326-.061-.003-.12-.01-.211-.018-.262-1.098-.765-2.085-1.526-2.911-.469-.506-1-.96-1.56-1.363a2.926 2.926 0 0 0-2.266-.532c-.195.154-.39.305-.587.459m-8.529 3.778c-.539 1.325-.079 2.48.58 3.646l.929-.722c-.286-.702-.695-1.38-.472-2.282.333.106.655.153.923.303 1.395.791 2.317 1.97 2.746 3.518.045.16.014.409-.086.539-.697.909-.792 1.872-.229 2.696.571.836 1.488 1.109 2.588.776.04-.012.087-.006.132-.007l.731-.572c.032-.069.051-.139.091-.204.91-1.528-.002-3.226-1.787-3.326-.06-.002-.121-.01-.21-.017-.264-1.098-.766-2.085-1.528-2.912a10.498 10.498 0 0 0-1.559-1.363 2.922 2.922 0 0 0-2.266-.53c-.191.151-.385.304-.583.457m-8.528 3.648c-.539 1.325-.08 2.479.58 3.646.33-.256.618-.483.93-.723-.287-.701-.696-1.38-.474-2.281.335.105.657.153.924.303 1.396.791 2.317 1.969 2.748 3.517.045.16.012.409-.087.54-.697.908-.791 1.872-.229 2.695.572.837 1.489 1.111 2.59.776.039-.012.087-.004.131-.006.244-.19.486-.383.732-.572.031-.069.051-.14.091-.203.909-1.529-.002-3.228-1.786-3.327-.06-.002-.121-.009-.21-.018a6.465 6.465 0 0 0-1.527-2.911c-.468-.505-1-.959-1.561-1.363a2.932 2.932 0 0 0-2.267-.532c-.194.154-.389.305-.585.459" fill="#297D7D"/></g></svg>