<svg xmlns="http://www.w3.org/2000/svg" width="500" height="360"><path fill="#539798" d="M98.648 276.56c0 3.887-12.615 7.038-28.176 7.038-15.561 0-28.175-3.151-28.175-7.038 0-3.886 12.614-7.037 28.175-7.037 15.561-.001 28.176 3.151 28.176 7.037"/><path fill="#539798" d="M42 234h57v43H42z"/><path fill="#297D7D" d="M98.648 233.918c0 3.886-12.615 7.038-28.176 7.038-15.561 0-28.175-3.152-28.175-7.038s12.614-7.038 28.175-7.038 28.176 3.152 28.176 7.038"/><path fill-rule="evenodd" clip-rule="evenodd" fill="#B8DD63" d="M68.86 240.646l1.725-43.072c-1.385 1.683-2.386 3.107-3.595 4.328-5.859 5.903-12.666 10.037-21.137 10.836-3.743.356-7.511.459-11.251.848-1.284.134-2.549.705-3.757 1.226-.887.382-1.666 1.011-2.498 1.534-.089-1.717-.29-3.211-.199-4.685.059-.965.397-1.979.859-2.835 1.672-3.094 3.907-5.743 6.743-7.843 2.37-1.754 4.59-3.904 7.236-5.051 4.674-2.023 9.555-3.664 14.48-4.98 2.898-.779 6.046-.616 9.078-.904.523-.049 1.033-.227 1.914-.43-2.226-1.426-4.158-2.811-6.239-3.912-.65-.344-1.719.214-2.572.127-4.246-.432-8.549-.635-12.709-1.5-6.119-1.268-12.138-3.027-18.198-4.583-.4-.1-.79-.242-1.185-.365-1.246-.394-1.918-1.284-1.751-2.544.173-1.303 1.152-1.923 2.421-1.886 3.079.084 6.166.11 9.228.396 3.415.319 6.818.822 10.204 1.382 5.802.957 11.167 3.14 16.116 6.277 1.896 1.201 3.566 2.759 5.341 4.153.305.239.619.469 1.153.871 0-1.673.005-3.067-.001-4.46-.012-2.748-.228-5.513.003-8.241.302-3.545-1.657-5.684-4.45-6.759-2.59-.997-4.237-2.822-5.838-4.742-2.008-2.405-3.757-5.033-5.533-7.621-1.176-1.713-.718-2.441 1.32-2.793 5.685-.982 9.272 2.006 12.031 6.382 1.151 1.825 1.909 3.901 2.845 5.863.083-.063.239-.123.243-.188.262-5.949.54-11.896.754-17.847.081-2.231.014-4.468.014-7.032-1.146.235-2.149.4-3.13.652-.97.25-1.968.479-2.86.911-1.377.666-2.674 1.497-3.977 2.241.833-2.308-1.458-2.767-2.942-3.891a44.283 44.283 0 0 1-4.309-3.704c-1.258-1.235-1.011-2.229.579-3.037a19.495 19.495 0 0 1 1.777-.8c.593-.229 1.207-.401 2.182-.719-2.486-.957-4.715-1.643-6.793-2.644-7.979-3.85-13.964-9.736-17.738-17.798-.15-.321-.218-.681-.357-1.008-.417-.978-.85-1.949-1.445-3.305 1.235-.258 2.791-.756 4.375-.879 4.556-.356 8.963.752 12.97 2.642 5.174 2.44 10.157 5.36 14.966 8.469 2.174 1.405 3.89 3.641 5.519 5.73 1.573 2.018 1.855 4.419.889 6.911-.155.399.18.989.691 1.473.077-.236.211-.469.224-.71.16-3.508.296-7.018.458-10.527.074-1.598.042-3.223.334-4.785.31-1.647-.58-2.519-1.595-3.479-1.504-1.426-2.903-2.967-4.431-4.365-.95-.871-1.947-1.879-3.113-2.292-4.705-1.665-8.787-4.32-12.61-7.438-7.111-5.798-12.531-12.919-16.663-21.088-.352-.694-1.598-.942-2.439-1.375-.284-.145-.602-.223-.78-.286 1.307-.812 2.548-1.667 3.863-2.38 1.622-.879 3.146-.029 4.612.54 4.309 1.671 7.914 4.502 11.307 7.509 3.497 3.101 6.851 6.412 9.922 9.932 2.78 3.186 5.654 6.45 6.458 10.871.042.233.254.473.211.673-.756 3.571 2.568 4.501 4.335 7.048.477-3.518.889-6.544 1.297-9.57.039-.295 0-.613.096-.885.956-2.702.265-4.789-2.001-6.612-4.948-3.98-5.49-9.498-5.087-15.325.359-5.207 1.923-10.081 3.836-14.879.138-.345.033-.903-.162-1.246-2.737-4.809-4.6-9.909-5.702-15.349-1.301-6.429-2.819-12.817-4.371-19.19-1.033-4.237-2.283-8.421-3.455-12.623-.194-.697-.485-1.366-.782-2.186.452.056.69.012.783.108 2.946 3.02 6.439 5.693 8.661 9.177 2.534 3.974 4.354 8.545 5.722 13.085 1.985 6.582 3.287 13.371 4.883 20.086 1.893-1.994 3.765-3.872 4.175-7.285 1.014-8.437 2.249-16.906 5.287-24.924.931-2.457 2.479-4.684 3.798-6.987.242-.423.735-.702 1.223-.97-4.255 8.42-5.644 17.541-7.201 26.771 2.724-2.424 5.094-4.951 7.87-6.901 3.861-2.713 7.866-5.331 12.111-7.356 3.575-1.704 7.546-1.258 11.275.244 3.383 1.36 4.449 4.194 4.732 7.512.021.238-.031.485.011.717 1.022 5.699-2.079 9.765-5.497 13.646-5.259 5.969-11.943 9.014-19.877 9.289-1.415.048-2.841-.138-4.297-.218l2.152 8.362c2.154-1.179 4.205-2.306 6.262-3.427 4.407-2.406 8.822-4.801 13.227-7.215 3.63-1.99 7.189-4.124 10.892-5.966 3.808-1.893 7.687-1.896 11.355.527.604.399 1.083.986 1.703 1.564-5.466 1.559-7.627 6.034-10.18 10.127-.558.893-1.042 1.892-1.794 2.592-3.566 3.319-6.972 6.882-10.89 9.737-5.845 4.261-12.386 6.918-19.914 6.054-.439-.05-1.318.599-1.4 1.035-1.309 6.937-5.58 11.146-12.035 13.49-.54.196-1.15 1.034-1.199 1.619-.461 5.505-.797 11.018-1.194 16.529-.105 1.471-.29 2.937-.489 4.902 2.117-1.763 3.885-3.209 5.612-4.705.215-.184.328-.642.284-.943-.571-3.794 1.186-6.607 3.988-8.759 4.964-3.812 10.679-6.022 16.78-7.285 3.758-.778 7.482-1.834 11.276-2.294 6.765-.819 13.532-.907 19.822 2.408.766.404 1.384 1.095 1.989 1.873-1.723.078-2.396.941-2.923 2.323-.429 1.122-1.262 2.152-2.105 3.042-5.927 6.251-13.106 10.568-21.32 12.982-5.733 1.684-11.681 2.106-17.653 1.424-2.638-.301-5.253-.812-7.892-1.079-.803-.082-1.723.187-2.469.548-1.325.642-2.505 1.59-3.842 2.201-1.659.76-2.318 1.868-2.241 3.712.13 3.082.035 6.174.035 8.695 3.595 1.201 6.767 2.225 9.907 3.344.554.197 1.392.843 1.349 1.189-.071.57-.66 1.2-1.194 1.566-2.359 1.62-5.129 1.736-7.852 1.955-.877.072-1.765.011-2.922.011v9.279c2.054-1.375 4.132-2.753 6.188-4.166.144-.097.148-.426.182-.654.543-3.381 2.762-5.586 6.31-6.397 4.489-1.027 8.595.104 12.46 2.263 2.837 1.583 5.626 3.284 8.264 5.17 1.57 1.123 3.136.711 4.751.753.599.016 1.196.2 1.795.308-.269.677-.421 1.442-.841 2.006-.403.542-1.086.876-1.679 1.328l3.332 5.148-.378.299c-1.592-1.176-3.223-2.304-4.757-3.55-.821-.667-1.543-.728-2.42-.228-4.913 2.8-10.194 4.653-15.664 5.991-3.325.814-6.718 1.37-10.003 2.313-1.434.411-2.68 1.491-3.998 2.291-.352.214-.616.631-.987.752-3.105 1.019-3.065 3.464-2.972 6.087.121 3.382.029 6.772.029 10.402.39-.163.846-.301 1.248-.531 2.909-1.682 5.519-4.085 9.049-4.349 3.395-.254 6.812-.29 10.219-.274 2.612.013 5.246.087 7.83.437 3.422.464 7.009.385 10.137 2.117 1.37.757 2.555 1.884 3.729 2.95.355.319.393.987.575 1.496l-.438.427c-1.284-.729-2.631-1.368-3.838-2.207-2.29-1.59-4.812-2.136-7.548-2.169-6.438-.077-12.913.147-19.302-.48-4.849-.477-7.971 2.389-11.644 4.355-.236.128-.44.564-.437.855.035 5.906.103 11.814.167 17.723.004.231.043.464.043.472 3.217.692 6.372 1.151 9.386 2.074 5.141 1.566 9.894 4.08 13.895 7.651 3 2.676 5.515 5.925 7.006 9.74.429 1.1.166 2.487.136 3.741-.02.857-.189 1.71-.289 2.549-.119.013-.212.048-.232.022-2.785-3.445-7.012-3.232-10.755-4.271-4.624-1.28-8.843-3.272-12.312-6.741-2.72-2.723-4.99-5.696-6.371-9.311-.076-.198-.275-.353-.596-.748-1.48 12.066-.991 23.924-1.064 35.765H68.86zM99.7 148.31c-.619-.461-1.309-1.169-2.148-1.559-1.522-.707-3.1-1.587-4.714-1.734-2.217-.203-4.501.105-6.731.398-1.441.191-2.957.519-4.221 1.196-1.757.942-3.212 2.452-4.973 3.383-2.533 1.337-3.494 3.169-3.111 6.019.269 1.998.052 4.061.052 6.096.169.055.338.11.506.167 1.98-1.748 3.888-3.585 5.961-5.215 1.847-1.45 3.726-3.032 5.857-3.918 4.426-1.839 9.029-3.256 13.522-4.833"/><path fill="#B3B3B3" d="M212.16 318.564c0 3.046-9.886 5.516-22.08 5.516-12.194 0-22.08-2.47-22.08-5.516 0-3.045 9.886-5.515 22.08-5.515 12.194.001 22.08 2.471 22.08 5.515"/><path fill="#B3B3B3" d="M168 314h44v5h-44z"/><path fill="#CCC" d="M212.16 313.564c0 3.046-9.886 5.516-22.08 5.516-12.194 0-22.08-2.47-22.08-5.516 0-3.045 9.886-5.515 22.08-5.515 12.194.001 22.08 2.471 22.08 5.515"/><path fill="#B3B3B3" d="M224.16 310.564c0 3.046-9.886 5.516-22.08 5.516-12.194 0-22.08-2.47-22.08-5.516 0-3.045 9.886-5.515 22.08-5.515 12.194.001 22.08 2.471 22.08 5.515"/><path fill="#B3B3B3" d="M180 306h44v5h-44z"/><path fill="#CCC" d="M224.16 305.564c0 3.046-9.886 5.516-22.08 5.516-12.194 0-22.08-2.47-22.08-5.516 0-3.045 9.886-5.515 22.08-5.515 12.194.001 22.08 2.471 22.08 5.515"/><path fill="#B3B3B3" d="M214.16 300.564c0 3.046-9.886 5.516-22.08 5.516-12.194 0-22.08-2.47-22.08-5.516 0-3.045 9.886-5.515 22.08-5.515 12.194.001 22.08 2.471 22.08 5.515"/><path fill="#B3B3B3" d="M170 296h44v5h-44z"/><path fill="#CCC" d="M214.16 295.564c0 3.046-9.886 5.516-22.08 5.516-12.194 0-22.08-2.47-22.08-5.516 0-3.045 9.886-5.515 22.08-5.515 12.194.001 22.08 2.471 22.08 5.515"/><path fill="#B3B3B3" d="M373.16 340.564c0 3.046-9.886 5.516-22.08 5.516S329 343.61 329 340.564c0-3.045 9.886-5.515 22.08-5.515s22.08 2.471 22.08 5.515"/><path fill="#B3B3B3" d="M329 336h44v5h-44z"/><path fill="#CCC" d="M373.16 335.564c0 3.046-9.886 5.516-22.08 5.516S329 338.61 329 335.564c0-3.045 9.886-5.515 22.08-5.515s22.08 2.471 22.08 5.515"/><path fill="#B3B3B3" d="M79.16 341.564c0 3.046-9.886 5.516-22.08 5.516-12.194 0-22.08-2.47-22.08-5.516 0-3.045 9.886-5.515 22.08-5.515 12.194.001 22.08 2.471 22.08 5.515"/><path fill="#B3B3B3" d="M35 337h44v5H35z"/><path fill="#CCC" d="M79.16 336.564c0 3.046-9.886 5.516-22.08 5.516-12.194 0-22.08-2.47-22.08-5.516 0-3.045 9.886-5.515 22.08-5.515 12.194.001 22.08 2.471 22.08 5.515"/><path fill="#B3B3B3" d="M335.16 308.564c0 3.046-9.886 5.516-22.08 5.516S291 311.61 291 308.564c0-3.045 9.886-5.515 22.08-5.515s22.08 2.471 22.08 5.515"/><path fill="#B3B3B3" d="M291 304h44v5h-44z"/><path fill="#CCC" d="M335.16 303.564c0 3.046-9.886 5.516-22.08 5.516S291 306.61 291 303.564c0-3.045 9.886-5.515 22.08-5.515s22.08 2.471 22.08 5.515"/><path fill-rule="evenodd" clip-rule="evenodd" fill="#485D70" d="M209.848 108.02c2.026.879 4.031 1.818 6.083 2.629 10.493 4.153 20.999 8.273 31.5 12.404v5.95l-.472 3.164-18.301 1.513c.093.88.177 1.593.244 2.307 1.101 11.631 2.199 23.263 3.3 34.892l2.681 28.192c.861 9.084 1.717 18.171 2.586 27.256 1.002 10.487 2.02 20.972 3.023 31.457.685 7.167 1.35 14.334 2.03 21.5.805 8.464 1.565 16.93 2.464 25.384.19 1.772-.585 2.498-2.036 2.88a7.326 7.326 0 0 1-1.998.248c-2.288-.05-2.744-.528-2.996-2.797a23272.276 23272.276 0 0 0-6.84-60.618c-.323-2.826-.673-5.65-1.014-8.518-.674.107-1.178.233-1.687.265-5.467.327-10.933.705-16.406.918-1.572.063-1.988.504-1.941 2.092.409 14.083.731 28.168 1.066 42.254.052 2.186-.403 2.697-2.606 2.924a5.836 5.836 0 0 1-1.858-.122c-2.206-.495-2.397-.797-2.482-3.016-.521-13.715-1.055-27.426-1.592-41.139-.031-.759-.124-1.514-.194-2.335l-37.371 2.149c-.015.134-.062.437-.086.742-.662 8.525-1.343 17.053-1.981 25.581-1.144 15.295-2.305 30.589-3.333 45.892-.127 1.887-.975 2.7-2.534 2.854-1.367.134-2.782-.076-4.158-.261-.879-.118-1.224-.674-1.158-1.674.611-9.16 1.162-18.323 1.731-27.486.932-14.995 1.854-29.991 2.822-44.984.067-1.038-.22-1.586-1.119-2.105-4.515-2.609-8.987-5.293-13.478-7.943-.429-.256-.882-.469-1.47-.781-.122.74-.224 1.288-.302 1.845-.759 5.469-1.516 10.942-2.267 16.416-1.831 13.321-3.666 26.646-5.481 39.971-.315 2.31-.917 2.864-3.222 2.575-.816-.104-1.619-.379-2.404-.644-1.379-.463-1.845-1.342-1.637-2.87 1.126-8.372 2.144-16.754 3.205-25.135 1.842-14.534 3.7-29.066 5.528-43.603 1.723-13.707 3.401-27.422 5.126-41.13 1.828-14.535 3.681-29.065 5.553-43.593.145-1.123-.136-1.787-1.147-2.399-4.867-2.941-9.687-5.959-14.501-8.984-.483-.304-1.155-.822-1.175-1.266-.111-2.586-.055-5.18-.055-7.838 3.488-.221 6.766-.438 10.045-.638 20.522-1.262 41.043-2.513 61.565-3.788 2.125-.132 4.243-.388 6.365-.586h4.385zm-8.28 105.736l-3.045-77.67c-2.252.153-4.321.275-6.387.438-6.031.48-12.057 1.002-18.092 1.438-1.1.079-1.475.4-1.557 1.553-.782 11.128-1.629 22.255-2.469 33.38-.895 11.852-1.806 23.705-2.703 35.557-.179 2.373-.32 4.75-.491 7.351 11.675-.69 23.144-1.365 34.744-2.047m17.133-79.311c-3.542.285-6.913.522-10.271.88-.342.037-.87.82-.863 1.248.141 8.134.339 16.269.548 24.401.248 9.696.524 19.391.777 29.089.208 7.923.386 15.848.632 23.771.015.491.381 1.255.773 1.411 5.909 2.332 11.851 4.584 17.787 6.851.09.035.204.004.505.004l-9.888-87.655m-56.07 4.515c-1.797.12-3.469.492-5.054.264-1.567-.225-3.043-1.058-4.704-1.678-3.62 26.362-7.26 52.856-10.936 79.631 5.353-.294 10.562-.583 15.883-.877l4.811-77.34m2.994 92.047c12.214-.644 24.26-1.276 36.245-1.907v-8.951l-35.571 1.916-.674 8.942m44.193-2.378l14.547-.765c.021-.111.042-.223.065-.336-4.801-2.007-9.599-4.014-14.612-6.112v7.213zm-52.845 1.317c.147-2.563.279-4.874.426-7.404-4.089.218-8 .422-11.911.628l-.09.358c3.786 2.102 7.573 4.2 11.575 6.418"/><path fill-rule="evenodd" clip-rule="evenodd" fill="#597387" d="M210.58 108.02h-4.384c-3.268.249-6.53.539-9.798.744-19.613 1.232-39.229 2.444-58.843 3.666-2.777.173-5.556.363-8.773.575.854.562 1.31.885 1.787 1.173 8.748 5.264 17.501 10.522 26.247 15.792.615.37 1.183.816 1.773 1.225h2.506c1.019-.14 2.035-.324 3.059-.419 13.283-1.223 26.568-2.444 39.852-3.643 13.287-1.199 26.577-2.37 39.863-3.561 1.19-.107 2.376-.27 3.562-.407-.323-.443-.642-.608-.972-.738-9.444-3.733-18.898-7.448-28.335-11.202-2.539-1.011-5.031-2.134-7.544-3.205"/><path fill-rule="evenodd" clip-rule="evenodd" fill="#F8A879" d="M320.574 158.638h15.915c2.081.202 4.16.421 6.245.604 10.552.923 20.856 2.976 30.868 6.505 8.969 3.161 17.111 7.953 25.309 12.635 7.03 4.011 14.167 7.841 20.412 13.111 8.77 7.397 17.268 15.053 24.64 23.883 1.921 2.297 3.775 4.674 5.889 6.783 2.82 2.814 6.198 3.896 10.156 2.456 3.363-1.225 6.313-.456 9.071 1.812 1.802 1.481 3.778 2.814 5.848 3.888 3.221 1.667 6.595 2.969 10.345 1.653.315-.109.695-.073 1.044-.061 1.303.039 1.896.885 1.185 1.974-1.664 2.546-3.308 5.136-5.26 7.455-2.876 3.418-6.742 5.625-10.627 7.703-1.155.616-2.519.888-3.816 1.191-1.938.453-3.947.647-5.841 1.229-1.477.456-2.047 1.809-1.504 3.271.424 1.148 1.067 2.261 1.813 3.238 1.186 1.561 1.908 3.246 2.16 5.184.597 4.584 2.198 8.834 4.7 12.689 2.07 3.193 3.962 6.759 8.775 6.322 1.099-.1 1.652.838 1.399 1.996-.295 1.364-.584 2.733-.953 4.08-.456 1.667-1.482 2.932-2.979 3.8a32.525 32.525 0 0 1-11.962 4.108c-4.828.658-9.518-.612-14.231-1.521-7.592-1.461-14.36-4.451-19.987-9.879-1.249-1.203-2.738-2.185-4.21-3.127-4.124-2.646-8.589-4.231-13.568-4.079-2.75.084-4.439 1.715-4.351 4.451.051 1.433.186 2.95.703 4.265a172.226 172.226 0 0 0 4.705 10.834c4.298 9.018 10.045 17.032 17.132 24.072 1.878 1.868 3.916 3.581 5.735 5.505.611.648.769 1.727 1.136 2.607-.819.27-1.626.709-2.459.772-2.089.161-4.212 0-6.287.249-3.11.373-5.406-.402-6.944-3.375-1.377-2.665-3.578-4.288-6.847-3.754-1.806.296-3.125-.566-4.084-1.967-1.327-1.936-2.697-3.866-3.801-5.93-3.275-6.123-7.669-11.34-12.731-16.02a704.535 704.535 0 0 0-13.037-11.765c-1.068-.94-2.358-1.698-3.653-2.301-4.033-1.871-5.997-.894-6.818 3.467-1.213 6.427.313 12.484 2.738 18.392.891 2.161 1.88 4.297 2.552 6.527.472 1.566-.514 2.677-2.164 2.645-2.395-.045-4.79-.256-7.186-.394-1.435-.083-2.255-.812-2.601-2.228-.407-1.647-.903-3.276-1.431-4.891-.909-2.78-1.707-3.268-4.605-2.94-1.891.214-2.79-.426-3.213-2.292-.11-.486-.234-.974-.29-1.467-.704-6.261-1.374-12.523-2.1-18.781-.267-2.291.278-4.365 1.39-6.328.486-.857 1.031-1.683 1.598-2.604-26.831 10.253-54.336 12.408-82.563 7.962-.014.254-.092.6-.04.927.679 4.136 1.304 8.28 2.084 12.398 1.346 7.113 3.358 13.91 9.217 18.858 1.277 1.079 1.002 1.998-.625 2.439-2.867.777-5.744.34-8.609-.178-2.479-.449-4.339-1.785-5.537-3.958-2.429-4.402-5.258-8.644-5.858-13.831-.063-.534-.203-1.146-.529-1.543-.449-.546-1.084-1.257-1.678-1.295-1.041-.065-1.353.877-1.283 1.811.171 2.291.227 4.604.612 6.86 1.002 5.895 3.464 11.236 6.516 16.332 1.385 2.313 2.777 4.626 4.072 6.988.275.501.146 1.22.203 1.839-.576.048-1.172.207-1.728.12-1.677-.266-3.343-.605-5.004-.954-4.999-1.044-5.041-1.04-6.182-6.036-.438-1.918-1.202-3.492-2.771-4.79-1.606-1.331-3.445-2.408-4.155-4.726-1.182-3.862-2.697-7.626-4.144-11.406-2.079-5.431-3.788-10.912-4.05-16.813-.241-5.418-2.018-10.402-5.553-14.603-2.928-3.481-5.778-7.071-9.038-10.225-15.992-15.456-17.513-40.337-4.688-57.999 1.068-1.469 2.165-2.916 3.311-4.458-2.769-.417-5.362-1.113-7.187-3.065-1.735-1.854-3.813-2.585-6.15-2.994-.541-.094-1.127-.142-1.596-.392-.774-.416-1.638-.854-2.139-1.526-.352-.471-.41-1.478-.133-1.996.195-.365 1.175-.433 1.801-.418 1.197.024 2.393.204 3.639.323-.486-8.753 3.662-14.611 10.934-15.685 3.174-.468 6.179.166 8.884 1.958 3.689 2.445 5.571 5.97 5.964 10.432 2.003-1.343 3.833-2.644 5.734-3.829 20.723-12.917 43.549-19.258 67.659-21.56 2.228-.205 4.46-.412 6.687-.619m-87.037 26.435a6.007 6.007 0 0 0-5.943-6.051c-3.397-.038-6.122 2.636-6.132 6.015-.011 3.339 2.658 6.051 5.938 6.04 3.477-.011 6.131-2.609 6.137-6.004"/><path fill-rule="evenodd" clip-rule="evenodd" fill="#DFF1EF" d="M314.553 111.346h4.201c.221.041.44.092.662.123 1.402.198 2.822.321 4.21.6 14.209 2.838 25.356 14.631 27.358 28.903.133.953.256 1.909.383 2.864v4.448c-.041.2-.107.396-.123.599-.31 3.954-1.221 7.77-2.917 11.352-5.213 11.014-13.81 17.713-25.792 20.025-1.247.238-2.521.345-3.781.517h-4.201c-.2-.041-.396-.102-.6-.117-6.297-.5-12.066-2.516-17.203-6.185-8.072-5.765-12.888-13.577-14.431-23.388-.149-.97-.256-1.95-.381-2.925v-4.202c.04-.197.104-.396.118-.597.229-3.159.837-6.248 1.999-9.192 4.838-12.252 13.725-19.708 26.656-22.296 1.268-.252 2.56-.356 3.842-.529"/><path fill-rule="evenodd" clip-rule="evenodd" fill="#2A7D7D" d="M355.384 143.652v4.818c-.038.179-.095.357-.109.538-.426 5.817-2.041 11.294-5.014 16.306-6.257 10.536-15.434 16.913-27.54 18.998-1.211.212-2.439.321-3.658.479h-4.818c-.178-.037-.354-.093-.535-.106-4.053-.294-7.992-1.136-11.714-2.766-13.116-5.754-21.026-15.671-23.595-29.79-.219-1.208-.32-2.439-.478-3.658v-4.818c.037-.199.095-.398.112-.597.307-4.114 1.18-8.109 2.858-11.879 5.784-12.995 15.674-20.819 29.692-23.366 1.208-.219 2.438-.323 3.658-.48h4.818c.157.036.314.084.474.105 1.527.206 3.067.341 4.58.621 15.703 2.9 28.423 16.079 30.783 31.874.189 1.237.326 2.481.486 3.721m-72.999 2.393c-.02 18.872 15.279 34.244 34.112 34.281 19.041.033 34.394-15.227 34.42-34.218.027-18.906-15.273-34.284-34.141-34.312-19.033-.027-34.373 15.248-34.391 34.249"/><path fill-rule="evenodd" clip-rule="evenodd" fill="#9BC143" d="M316.277 148.436c-.899.016-1.794-.644-2.178-1.546-.1-.239-.278-.505-.497-.632-8.148-4.716-16.306-9.418-24.462-14.121-.782-.452-1.092-1.097-.885-1.842.172-.626.838-1.136 1.485-1.063.313.035.633.171.909.332 8.022 4.622 16.04 9.252 24.058 13.882.405.235.819.303 1.3.358 1.756.201 2.894-.989 4.202-1.725 4.956-2.793 9.863-5.672 14.796-8.508.854-.49 1.644-.265 2.118.546.421.718.169 1.558-.657 2.036-4.674 2.713-9.354 5.413-14.031 8.118-1.104.637-2.219 1.257-3.305 1.921a1.639 1.639 0 0 0-.611.702c-.421.97-1.182 1.523-2.242 1.542m-31.541-.853v-3.02c.937 0 1.825.005 2.714-.004.361-.002.51.144.498.514-.022.695.009 1.391-.029 2.084-.011.148-.226.402-.353.407-.934.037-1.869.019-2.83.019m14.481 25.126l1.638-2.821 2.57 1.484c-.556.961-1.085 1.879-1.635 2.826l-2.573-1.489m-.017-53.247l2.597-1.499c.54.938 1.06 1.835 1.605 2.786l-2.569 1.496-1.633-2.783m30.02 51.948l2.578-1.496c.537.922 1.058 1.811 1.624 2.781l-2.595 1.498-1.607-2.783m-14.664 3.055h2.907v3.185h-2.907zm30.156-29.848h3.159v2.936h-3.159zm-52.288 16.84c-.968.556-1.85 1.064-2.789 1.607l-1.485-2.596c.939-.535 1.822-1.04 2.784-1.59.492.849.964 1.667 1.49 2.579m39.358-39.197l-2.576-1.486 1.602-2.78c.854.489 1.681.96 2.578 1.475l-1.604 2.791m9.842 10.928l-1.478-2.578 2.782-1.613c.504.868.981 1.692 1.496 2.585-.945.543-1.844 1.059-2.8 1.606m2.136 27.023c-.51.892-.984 1.723-1.479 2.593a1657.6 1657.6 0 0 0-2.779-1.602l1.477-2.586c.93.535 1.813 1.042 2.781 1.595m-25.999-45.737v3.201h-2.951c0-.982-.009-1.941.013-2.899.002-.103.188-.285.289-.288.874-.025 1.747-.014 2.649-.014"/><path fill-rule="evenodd" clip-rule="evenodd" fill="#F8A879" d="M356.635 196.483c0-15.373-15.454-27.836-34.521-27.836-19.064 0-34.52 12.463-34.52 27.836 0 15.372 15.455 27.835 34.52 27.835 19.067 0 34.521-12.463 34.521-27.835"/><path fill-rule="evenodd" clip-rule="evenodd" fill="#F3816F" d="M331.489 164.682c3.455.508 6.937.879 10.359 1.55 7.129 1.396 13.851 3.875 19.903 7.997 2.283 1.556 2.997 3.645 1.809 5.572-1.222 1.987-3.633 2.47-5.908 1.094-16.687-10.094-34.369-10.428-52.502-5.105-3.538 1.038-6.755 3.169-10.114 4.806-.404.195-.766.473-1.169.669-1.964.965-4.288.264-5.331-1.595-.992-1.77-.425-3.848 1.384-5.108 6.609-4.605 14.015-7.214 21.871-8.625 2.943-.53 5.925-.843 8.89-1.256h10.808zm123.405 99.983c-.688 1.834-1.6 3.417-3.74 3.895-1.837.411-3.376-.034-4.612-1.419-1.299-1.45-2.594-2.909-3.781-4.448-.443-.571-.577-1.381-.978-2.396 1.625.26 2.831.528 4.051.632 1.792.15 3.594.257 5.392.246 3.14-.019 2.48-.507 3.669 2.291v1.199zm-94.225 41.17l10.403-3.577c1.396 3.461 3.024 7.132 4.331 10.915.712 2.056-.322 3.171-2.499 3.091-2.389-.088-4.772-.335-7.159-.487-1.181-.076-1.78-.771-2.086-1.818-.43-1.484-.771-3.001-1.303-4.447-.483-1.323-1.17-2.572-1.687-3.677m56.871 17.567c3.087-1.401 6.271-2.868 9.487-4.271.287-.125.866.036 1.116.271 2.487 2.312 4.935 4.666 7.389 7.013.216.206.479.409.589.671.296.709.882 1.593.667 2.131-.195.487-1.287.811-2.006.855-2.888.178-5.784.223-8.679.311-1.8.056-3.184-.646-4.115-2.224-1.194-2.027-2.467-3.989-4.448-4.757m-151.316-16.02c3.856 1.75 7.742 1.879 11.782.19.4.642.715 1.319 1.182 1.869 1.421 1.668 2.89 3.298 4.36 4.925 1.202 1.328 1.095 2.191-.607 2.548-4.013.839-7.968.508-11.653-1.396-.792-.41-1.443-1.254-1.943-2.035-1.205-1.883-2.284-3.847-3.413-5.776.095-.108.193-.217.292-.325m-9.295 12.088c2.931 1.09 5.539.809 7.911-1.412 2.036 3.49 4.073 6.799 5.912 10.213.831 1.544.265 2.147-1.479 1.821-2.652-.497-5.286-1.079-7.934-1.602-1.37-.271-2.206-1.061-2.57-2.403-.574-2.116-1.174-4.224-1.84-6.617"/><path fill-rule="evenodd" clip-rule="evenodd" fill="#9BC143" d="M122.342 128.833l-.031-.837c.024-.137.058-.271.07-.408.083-1.034.122-2.072.254-3.1.106-.834.208-1.701.517-2.471.627-1.566 1.809-2.776 2.906-4.024.325-.372.746-.655 1.112-.992.068-.062.083-.185.122-.279-.087-.033-.172-.09-.262-.095a13.747 13.747 0 0 0-.953-.035c-.277-.001-.455-.11-.495-.395-.11-.755-.156-1.527-.342-2.262-.218-.857.071-1.384.74-1.918.965-.771 1.951-1.479 3.165-1.742.767-.167 1.567-.179 2.352-.271.158-.018.31-.083.465-.126l.167-.006 1.82.644c-1.05 2.42-.833 4.62.925 6.583-.248.646-.706 1.117-1.176 1.6-.888.909-1.798 1.817-2.557 2.831-.711.95-1.33 1.996-1.826 3.074-.553 1.203-.954 2.479-1.357 3.744-.188.589-.223 1.228-.333 1.843-.164.935.096 1.816.55 2.582.547.923 1.27 1.74 1.903 2.614.453.624.177 1.309-.584 1.357-.546.034-1.128.017-1.648-.137-1.098-.327-2.114-.781-3.009-1.585-1.323-1.188-1.982-2.642-2.24-4.339-.095-.616-.171-1.234-.255-1.85z"/><path d="M222.832 93.582c-.024.247-.083.495-.066.738.158 2.226-.159 4.414-.613 6.578-.263 1.256-.574 2.516-1.208 3.659-.578 1.041-1.229 2.045-2.25 2.688-.655.415-1.425.652-2.143.968-.16.07-.313.169-.48.211-.361.09-.736.127-1.092.229-.382.11-.739.306-1.123.402-.687.171-1.388.279-2.078.44-.673.158-1.335.363-2.007.525-.674.165-1.353.301-2.16.479.116-.214.155-.412.271-.482.834-.498 1.472-1.194 2.076-1.938 1.081-1.33 1.912-2.816 2.761-4.295.732-1.274 1.31-2.617 1.575-4.058.232-1.266.372-2.549.221-3.852-.223-1.902-.342-3.818-.613-5.711-.149-1.034-.497-2.042-.799-3.048-.324-1.069-.731-2.114-1.05-3.186-.247-.832-.425-1.686-.616-2.535a34.335 34.335 0 0 1-.451-2.233c-.167-1.07-.288-2.146-.427-3.219a2.335 2.335 0 0 1-.011-.335c.016-.952.146-1.075 1.066-1.236 1.286-.226 2.565-.503 3.851-.73.575-.101 1.163-.129 1.743-.199.241-.03.382.035.472.283.849 2.331 1.765 4.638 2.545 6.99a84.192 84.192 0 0 1 1.783 6.225c.288 1.154.359 2.361.523 3.545.095.696.175 1.397.264 2.094l.036 1.003zm-85.042 15.967c.176-.156.28-.238.372-.333 1.312-1.334 3.035-2.035 4.583-3.005 1.957-1.226 4.089-2.065 6.181-2.998 1.243-.555 2.465-1.166 3.733-1.66 1.651-.642 3.334-1.205 5.011-1.78a209.79 209.79 0 0 1 4.734-1.57 62.72 62.72 0 0 1 3.154-.91c1.557-.41 3.122-.784 4.682-1.176.564-.142 1.125-.302 1.69-.437.133-.031.289.032.425.007.138-.025.26-.125.396-.161 1.035-.265 2.064-.564 3.11-.77.711-.139 1.455-.109 2.174-.215.929-.135 1.845-.355 2.774-.496 1.725-.262 3.453-.515 5.185-.733 1.507-.188 3.022-.321 4.511-.476.285.559.581 1.067.81 1.606.276.646.173 1.308-.103 1.931-.207.467-.436.934-.722 1.355-.63.921-1.61 1.34-2.63 1.626a29.91 29.91 0 0 1-2.992.666c-.759.133-1.54.152-2.309.242a191.12 191.12 0 0 0-3.854.471c-.943.127-1.88.299-2.823.435-.779.111-1.563.191-2.344.293-1.704.223-3.412.419-5.108.691-.955.153-1.887.443-2.832.658-.96.216-1.928.406-2.887.629-.742.172-1.472.394-2.214.562-1.097.249-2.205.45-3.299.707-1.229.288-2.447.625-3.672.926-1.107.272-2.224.509-3.328.794-.77.2-1.522.462-2.287.683-.411.12-.829.208-1.243.32-.787.212-1.566.463-2.361.64-1.45.324-2.914.586-4.365.914-.625.141-1.304.121-1.859.526-.041.034-.122.019-.293.038z" fill-rule="evenodd" clip-rule="evenodd" fill="#297D7D"/><path fill-rule="evenodd" clip-rule="evenodd" fill="#539798" d="M133.251 112.9c.029-.133.055-.267.089-.4.159-.613.288-1.236.495-1.833.103-.299.372-.478.728-.551.537-.11 1.053-.317 1.585-.457 1.178-.307 2.354-.616 3.54-.886.649-.148 1.325-.184 1.975-.332 1.409-.322 2.811-.67 4.21-1.03 1.777-.458 3.542-.966 5.323-1.405 2.398-.592 4.809-1.133 7.212-1.706 1.701-.407 3.397-.837 5.1-1.236a81.836 81.836 0 0 1 3.376-.731c1.638-.312 3.279-.605 4.927-.872.833-.134 1.679-.182 2.518-.287 1.352-.172 2.699-.376 4.051-.541 1.752-.216 3.518-.355 5.261-.627 1.595-.25 3.225-.381 4.716-1.129 1.084-.544 1.593-1.473 1.933-2.558.163-.516.047-1.013-.183-1.45-.809-1.532-1.625-3.062-2.506-4.552-.514-.868-1.146-1.667-1.747-2.481-.725-.981-1.477-1.941-2.208-2.917-.999-1.331-2.041-2.633-2.965-4.016-.97-1.449-1.859-2.956-2.723-4.475-1.212-2.132-2.376-4.299-3.167-6.631-.329-.973-.535-1.991-.745-3.001-.397-1.899-.612-3.824-.576-5.762.019-1.078.156-2.159.311-3.227.172-1.197.49-2.363.988-3.472.672-1.496 1.42-2.954 2.417-4.264.976-1.281 1.946-2.57 2.997-3.79 1.011-1.172 2.174-2.198 3.513-3.001.948-.568 1.865-1.201 2.853-1.689 1.279-.631 2.615-1.148 3.927-1.709.101-.043.213-.056.374-.098.026.702.016 1.379.083 2.049a62.15 62.15 0 0 0 .409 3.214c.163 1.049.373 2.089.564 3.134.134.721.241 1.448.419 2.157.131.519.346 1.019.544 1.519.729 1.849 1.444 3.705 2.215 5.537.314.748.757 1.442 1.147 2.158 1.276 2.339 2.668 4.602 4.281 6.729 1.05 1.386 2.164 2.712 3.42 3.91.467.447 1.014.819 1.559 1.17 1.09.704 2.198 1.379 3.309 2.049.587.354 1.194.67 1.716.962.195 1.461.347 2.909.586 4.342.401 2.4.884 4.776 1.683 7.092.59 1.709 1.033 3.48 1.417 5.25.25 1.149.235 2.353.415 3.521.262 1.72.192 3.443.087 5.16-.071 1.171-.498 2.279-1.012 3.322-.593 1.204-1.306 2.353-1.938 3.539-.567 1.064-1.335 1.977-2.136 2.854-.577.633-1.245 1.192-1.913 1.731a15.45 15.45 0 0 1-4.614 2.538c-1.688.589-3.453.965-5.193 1.393-1.2.295-2.409.569-3.628.766a86.02 86.02 0 0 1-4.877.639 292.93 292.93 0 0 1-6.685.583c-1.542.122-3.085.252-4.63.289-1.763.04-3.529-.002-5.294-.039-1.721-.035-3.442-.124-5.163-.165-3.577-.086-7.155-.156-10.731-.231-2.28-.048-4.562-.078-6.841-.148-1.246-.037-2.487-.192-3.731-.203a67.384 67.384 0 0 0-4.539.121c-1.649.096-3.298.246-4.942.418-.49.052-.961.271-1.449.383-.124.029-.331-.01-.407-.099-.825-.948-1.433-2.006-1.585-3.282-.008-.058-.068-.108-.104-.161l-.041-1.085z"/><path fill-rule="evenodd" clip-rule="evenodd" fill="#9BC143" d="M348.036 127.669c-.359-.041-.811-.102-1.258-.141-.373-.032-.536-.279-.708-.569-1.112-1.887-2.197-3.792-3.376-5.639-.865-1.354-1.826-2.65-2.8-3.932-.608-.805-1.323-1.528-1.978-2.3-.59-.7-1.145-1.428-1.743-2.121-1.084-1.26-2.188-2.505-3.285-3.754-.706-.804-1.396-1.621-2.128-2.399-.984-1.049-2.005-2.067-3.005-3.102-.804-.833-1.585-1.69-2.412-2.498-.593-.578-1.251-1.089-1.872-1.639-.644-.569-1.264-1.162-1.911-1.724-.604-.524-1.2-1.069-1.856-1.52-1.562-1.068-3.157-2.085-4.738-3.122-1.233-.805-2.47-1.601-3.693-2.418-.45-.299-.848-.674-1.295-.972-.93-.619-1.879-1.208-2.815-1.813-.171-.111-.318-.257-.489-.368-.981-.637-1.97-1.262-2.951-1.898-.197-.128-.376-.291-.578-.406-1.205-.676-2.418-1.334-3.616-2.021-.181-.106-.337-.312-.43-.508-.365-.781-.702-1.577-1.05-2.366-.101-.23-.235-.45-.301-.689-.449-1.661-1.319-3.131-2.097-4.641-.676-1.308-1.623-2.398-2.898-3.181-.188-.114-.34-.288-.491-.449-1.583-1.688-3.531-2.539-5.838-2.411-1.613.09-3.225.276-4.823.512-1.161.17-2.175.75-3.105 1.477-.612.481-1.288.881-1.9 1.364-1.033.814-1.68 1.901-2.238 3.084-.497 1.062-1.158 2.052-1.79 3.047a25.703 25.703 0 0 1-1.481 2.074c-.777.99-1.661 1.901-2.374 2.934-.816 1.18-1.515 2.445-2.226 3.692a15.86 15.86 0 0 0-.988 2.01 176.084 176.084 0 0 0-1.864 4.928c-.384 1.054-.773 2.111-1.055 3.194-.51 1.955-1.029 3.916-1.05 5.957-.017 1.75.008 3.5.021 5.25 0 .565-.055 1.141.039 1.693.217 1.292.419 2.597.786 3.85a116.497 116.497 0 0 0 2.105 6.419c.505 1.42 1.128 2.8 1.728 4.185a86.668 86.668 0 0 0 1.46 3.159 104.37 104.37 0 0 0 1.659 3.312c.683 1.28 1.412 2.538 2.107 3.81.538.976 1.033 1.975 1.601 2.932.552.927 1.178 1.81 1.765 2.717.724 1.125 1.425 2.268 2.162 3.386.625.943 1.307 1.849 1.922 2.799.499.764.94 1.565 1.409 2.348.327.546.637 1.101.99 1.627.426.634.426 1.099-.024 1.719-.703.965-1.529 1.791-2.556 2.412-.591.359-.72.352-1.476-.159-1.279-.865-2.499-1.804-3.57-2.91a81.862 81.862 0 0 1-3.367-3.679c-1.744-2.032-3.433-4.112-5.165-6.151-.466-.549-1.037-1.007-1.509-1.55-.719-.823-1.39-1.691-2.092-2.531-.465-.553-.964-1.073-1.416-1.636-.644-.801-1.255-1.628-1.884-2.439-.705-.909-1.436-1.797-2.115-2.723-.654-.893-1.264-1.817-1.882-2.734-1.183-1.758-2.377-3.506-3.528-5.282-.64-.984-1.261-1.99-1.786-3.039-.604-1.21-1.09-2.479-1.641-3.716a8.673 8.673 0 0 0-.547-.976c-.582-.947-.962-1.987-1.418-2.996-.836-1.858-1.305-3.817-1.782-5.777-.124-.505-.091-1.046-.146-1.569-.093-.854-.196-1.706-.301-2.558-.11-.895-.29-1.787-.323-2.685-.053-1.445-.006-2.893-.012-4.341-.004-.734-.055-1.468-.037-2.2.018-.681.109-1.36.151-2.042.041-.667.06-1.333.091-2 .014-.278.013-.557.051-.832.171-1.241 0-2.452-.276-3.66-.138-.606-.191-1.233-.358-1.829-.143-.5-.374-.981-.607-1.449-.496-1.002-1.125-1.918-2.01-2.615-1.089-.857-2.224-1.646-3.568-2.081-1.374-.444-2.719-.978-4.106-1.367-1.548-.432-3.112-.863-4.699-1.085-1.881-.266-3.791-.352-5.692-.427-.805-.031-1.619.173-2.43.254-1.3.128-2.606.209-3.9.376-1.043.134-2.075.357-3.109.558-.476.091-.94.273-1.418.317-.273.024-.607-.083-.838-.242a72.173 72.173 0 0 1-2.606-1.898c-.705-.531-1.393-1.086-2.092-1.625-.404-.311-.85-.575-1.222-.92-1.976-1.836-3.645-3.934-5.138-6.17-.808-1.21-1.549-2.467-2.307-3.71-1.292-2.119-2.43-4.313-3.255-6.662-.407-1.158-.899-2.289-1.298-3.451-.174-.506-.2-1.063-.312-1.595-.143-.679-.329-1.349-.451-2.032a65.63 65.63 0 0 1-.535-3.323c-.157-1.207-.224-2.426-.391-3.63-.07-.507.147-.763.514-1.003 1.485-.967 3.041-1.793 4.75-2.28 1.39-.396 2.79-.757 4.194-1.091a203.11 203.11 0 0 1 4.762-1.056c2.631-.561 5.318-.659 7.982-.939 1.036-.11 2.071-.242 3.108-.322.804-.063 1.613-.056 2.418-.093.985-.044 1.97-.125 2.955-.15 1.377-.033 2.756-.042 4.135-.039 2.029.006 4.06-.017 6.084.066 2.362.096 4.728.21 7.075.471 1.758.197 3.498.608 5.234.979 1.394.298 2.769.685 4.157 1.016.805.191 1.621.326 2.418.532 1.144.296 2.27.65 3.411.949 1.481.39 2.972.747 4.458 1.123 1.52.388 3.047.762 4.561 1.182 1.55.43 3.095.874 4.619 1.379.898.299 1.75.742 2.628 1.102.763.313 1.544.586 2.301.907 1.069.454 2.138.909 3.181 1.416.768.373 1.487.839 2.237 1.246.91.491 1.829.965 2.748 1.443.653.338 1.313.657 1.962 1.005.567.306 1.125.635 1.684.961 1.113.65 2.224 1.306 3.333 1.959 1.588.935 3.253 1.76 4.745 2.829 2.097 1.501 4.074 3.167 6.081 4.788a323.028 323.028 0 0 1 6.207 5.11c.66.56 1.199 1.263 1.79 1.904.738.801 1.476 1.602 2.204 2.411.854.944 1.687 1.904 2.542 2.846 1.135 1.246 2.288 2.479 3.424 3.725.925 1.015 1.825 2.053 2.762 3.057.678.726 1.403 1.406 2.094 2.12a354.273 354.273 0 0 1 4.655 4.905c.726.782 1.463 1.556 2.166 2.356.924 1.049 1.819 2.127 2.738 3.18.856.98 1.753 1.925 2.59 2.921 1.173 1.401 2.292 2.849 3.46 4.256.779.936 1.626 1.818 2.404 2.757.635.767 1.213 1.579 1.816 2.37.485.639.995 1.26 1.449 1.918.595.854 1.143 1.737 1.714 2.606.41.624.836 1.239 1.229 1.872.558.894 1.063 1.82 1.639 2.701 1.343 2.055 2.425 4.252 3.573 6.413.73 1.372 1.502 2.72 2.187 4.112.592 1.201 1.095 2.443 1.611 3.678.037.085-.098.317-.209.378-.512.279-1.045.526-1.571.777-.298.142-.592.309-.905.395-.505.147-1.026.228-1.65.353z"/><path fill-rule="evenodd" clip-rule="evenodd" fill="#F8A879" d="M284.46 69.417c.218.03.446.03.65.097 1.01.329 2.053.589 3.007 1.038.802.379 1.321 1.157 1.881 1.847.955 1.174 1.521 2.563 2.232 3.874.396.729.816 1.446 1.205 2.179.17.327.26.697.436 1.023.338.63.664 1.276 1.081 1.853.468.643 1.019 1.229 1.56 1.813.24.258.245.414.012.697-.736.894-1.688 1.462-2.727 1.926a1729.47 1729.47 0 0 0-7.125 3.205c-.936.424-1.899.663-2.939.577-1.398-.113-2.797-.184-4.195-.304-1.134-.097-2.187-.423-3.126-1.121-.946-.702-1.454-1.62-1.571-2.764-.075-.732-.055-1.473-.14-2.202-.164-1.405-.468-2.751-1.85-3.526a.89.89 0 0 1-.198-.146c-.06-.056-.105-.13-.231-.289.446-.216.849-.448 1.276-.609 1.555-.583 3.036-1.307 4.343-2.333.871-.683 1.554-1.502 1.743-2.685.124-.775.477-1.511.708-2.269.31-1.011 1.05-1.5 2.024-1.718.121-.027.236-.07.351-.104.531-.021 1.062-.04 1.593-.059zm9.303 99.143c-.782-.167-1.586-.266-2.341-.516a17.001 17.001 0 0 1-4.279-2.116 41.435 41.435 0 0 1-3.129-2.359c-1.272-1.062-2.355-2.297-3.124-3.79a6.493 6.493 0 0 0-.858-1.228 7.743 7.743 0 0 1-1.66-3.092c-.073-.266-.303-.566-.229-.769.072-.208.437-.301.658-.462.756-.55 1.422-1.187 1.929-1.979.044-.067.104-.124.153-.179.991.419 1.848 1.006 2.627 1.726.943.877 1.946 1.688 2.868 2.584a25.947 25.947 0 0 1 2.057 2.276c.429.53.75 1.143 1.123 1.715.206.31.194.669-.033.884-.173.163-.534.214-.794.175-.865-.127-1.466-.746-2.11-1.267-.13-.103-.257-.201-.386-.302l-.088.063c.072.146.118.315.222.437 1.146 1.328 2.362 2.591 3.962 3.366 1.306.633 2.665 1.15 3.985 1.756.744.339 1.375.807 1.395 1.75.012.645-.168.903-.809 1.11-.16.05-.315.128-.472.193l-.667.024zm57.569-42.744c.93.716 1.258 1.744 1.669 2.701.235.552.362 1.157.307 1.796-.032.382.157.779.194 1.173.058.622.113 1.247.092 1.868a28.024 28.024 0 0 1-.215 2.715c-.11.821-.279 1.637-.48 2.442-.336 1.333-.679 2.684-1.378 3.877-.712 1.22-1.493 2.417-2.688 3.244-.303.208-.656.355-1.007.482-1.254.452-2.052-.733-1.907-1.621.118-.719.363-1.422.61-2.113.367-1.045.845-2.058 1.161-3.117.328-1.098.56-2.23.768-3.359.096-.528.035-1.085-.053-1.643-.052.259-.091.523-.162.777-.358 1.292-.801 2.551-1.774 3.52a1.742 1.742 0 0 1-.935.454c-.443.062-.644-.172-.637-.619.007-.345.041-.699.13-1.032.34-1.284.753-2.552 1.049-3.845.226-.982.324-1.996.459-2.998a79.91 79.91 0 0 0 .278-2.441c.035-.331.041-.665.063-1.058 1.716.356 3.114-.383 4.456-1.203z"/><path fill-rule="evenodd" clip-rule="evenodd" fill="#485D70" d="M304.228 61.169l.018.501-.095.806c-.055.449-.089.903-.17 1.351-.189 1.046-.886 1.832-1.412 2.71-.402.67-.581 1.391-.087 2.144.338.519.645 1.067.895 1.635.511 1.165.699 2.404.613 3.667a17.435 17.435 0 0 1-.363 2.469c-.152.685-.398 1.352-.646 2.012-.3.801-.594 1.611-.984 2.367-.375.719-.891 1.36-1.314 2.055-.894 1.471-3.197 1.885-4.569.574a11.602 11.602 0 0 1-2.387-3.235c-.699-1.411-1.384-2.831-2.111-4.227-.512-.979-1.073-1.932-1.634-2.882-.154-.26-.399-.464-.574-.712-.573-.815-1.198-1.559-2.188-1.889a8.712 8.712 0 0 1-.963-.399c-1.185-.555-2.333-.501-3.427.211-1.389.904-2.28 2.15-2.526 3.817-.019.122-.048.267-.122.352-.67.737-1.286 1.544-2.044 2.172-.971.8-2.07 1.44-3.254 1.895-.79.304-1.575.741-2.392.819-1.488.144-3.001.117-4.431-.492-.979-.417-1.886-.934-2.67-1.658-.938-.86-1.866-1.73-2.838-2.551a10.191 10.191 0 0 0-1.763-1.224c-.753-.401-1.54-.848-2.359-.984-1.486-.247-3.005-.313-4.513-.393a189.338 189.338 0 0 0-5.736-.202c-1.079-.025-2.165.036-3.247.016-.7-.014-1.404-.059-2.094-.176-1.099-.189-2.104-.626-3.079-1.186-2.131-1.223-4.043-2.682-5.667-4.545-.774-.886-1.576-1.739-2.218-2.729-.476-.733-1.031-1.421-1.275-2.28-.125-.442-.185-.903-.318-1.342-.286-.938-.665-1.855-.885-2.807-.171-.739-.207-1.518-.213-2.281-.008-.872.132-1.745.121-2.618-.018-1.527-.129-3.053-.15-4.581-.023-1.563.418-3.038 1.025-4.462.426-1.002 1.163-1.787 1.857-2.597.556-.65 1.258-.895 2-.466.457.264.902.7 1.136 1.166 1.029 2.043 2.625 3.458 4.673 4.374a26.087 26.087 0 0 0 6.115 1.858c1.393.248 2.75.252 4.122-.08 1.181-.285 2.374-.527 3.562-.793 1.188-.267 2.385-.501 3.556-.822 1.094-.3 2.206-.383 3.32-.379 1.345.005 2.665.167 3.987.521 2.158.576 4.103 1.556 5.976 2.713.836.518 1.598 1.158 2.421 1.7 1.242.82 2.385 1.774 3.203 3.001 1.254 1.88 2.387 3.845 3.542 5.79.363.61.819 1.114 1.379 1.532.589.441 1.041-.001 1.441-.315 1.133-.885 2.399-1.162 3.797-1.013 1.541.164 1.996-.105 2.334-1.535.349-1.482 1.276-2.46 2.638-3.036.948-.401 1.982-.477 2.985-.378 1.008.102 2.019.316 2.99.616 1.644.508 3.209 1.219 4.543 2.335.749.627 1.466 1.311 1.815 2.268.221.608.436 1.216.654 1.822z"/><path fill-rule="evenodd" clip-rule="evenodd" fill="#F3816F" d="M278.733 72.908c.061-.263.117-.525.181-.788.235-1.02.596-1.992 1.235-2.829 1.116-1.458 3.127-1.921 4.697-.854.301.206.6.435.847.701.709.758.65 1.837-.124 2.521-.681.6-1.472.866-2.383.739-1.089-.15-1.777.555-1.686 1.673.039.468.015.946-.021 1.417-.034.461-.761.811-1.218.586-.56-.273-1.036-.632-1.173-1.306-.089-.429-.223-.851-.335-1.276l-.02-.584zm9.274 19.944c-.699-.449-1.086-1.106-1.205-1.911-.114-.767-.296-1.494-.761-2.135-.325-.447-.234-.92-.018-1.38.118-.245.759-.449 1.05-.268.853.53 1.568.053 2.186-.375.821-.569 1.676-.689 2.603-.566.107.015.255.223.266.349.046.658-.306 1.125-.815 1.486-.63.448-1.276.872-1.899 1.326-.377.274-.392.713-.428 1.127-.028.332-.041.667-.047 1-.007.56-.309.967-.678 1.339l-.254.008z"/></svg>