<svg xmlns="http://www.w3.org/2000/svg" xmlns:xlink="http://www.w3.org/1999/xlink" id="Layer_1" width="304" height="460"><defs id="defs49"><linearGradient id="linearGradient3776" gradientUnits="userSpaceOnUse" x1="2629.883" y1="-1207.376" x2="2629.883" y2="-135.388" gradientTransform="matrix(1 0 0 -1 -2571 478.248)"><stop offset="0" id="stop30-6" stop-color="#11998e"/><stop offset="1" id="stop32-7" stop-color="#38ef7d"/></linearGradient><clipPath id="SVGID_2_-7"><use xlink:href="#SVGID_1_" id="use7-4" width="100%" height="100%" overflow="visible"/></clipPath></defs><style id="style2"/><g id="g44" transform="matrix(.93 0 0 .51136 0 -3501.136)"><defs id="defs5"><path id="SVGID_1_" d="M0-7.4h1920v4596H0z"/></defs><clipPath id="SVGID_2_"><use xlink:href="#SVGID_1_" id="use7" width="100%" height="100%" overflow="visible"/></clipPath><linearGradient id="SVGID_3_" gradientUnits="userSpaceOnUse" x1="5515.997" y1="-5593.338" x2="5515.997" y2="-5072.364" gradientTransform="matrix(1 0 0 -1 -3777 -1631.722)"><stop offset="0" id="stop10" stop-color="#11998e"/><stop offset="1" id="stop12" stop-color="#38ef7d"/></linearGradient><linearGradient id="SVGID_4_" gradientUnits="userSpaceOnUse" x1="2666.051" y1="-4570.364" x2="2666.051" y2="-3902.382" gradientTransform="matrix(1 0 0 -1 -2571 -1128.752)"><stop offset="0" id="stop16" stop-color="#11998e"/><stop offset="1" id="stop18" stop-color="#38ef7d"/></linearGradient><linearGradient id="SVGID_5_" gradientUnits="userSpaceOnUse" x1="5738.991" y1="-2988.4" x2="5738.991" y2="-1903.382" gradientTransform="matrix(1 0 0 -1 -3904 -217.752)"><stop offset="0" id="stop23" stop-color="#11998e"/><stop offset="1" id="stop25" stop-color="#38ef7d"/></linearGradient><linearGradient id="SVGID_6_" gradientUnits="userSpaceOnUse" x1="2629.883" y1="-1207.376" x2="2629.883" y2="-135.388" gradientTransform="matrix(1 0 0 -1 -2571 478.248)"><stop offset="0" id="stop30" stop-color="#11998e"/><stop offset="1" id="stop32" stop-color="#38ef7d"/></linearGradient><linearGradient id="SVGID_7_" gradientUnits="userSpaceOnUse" x1="4716.009" y1="391.638" x2="4716.009" y2="996.546" gradientTransform="matrix(1 0 0 -1 -3255 1004.248)"><stop offset="0" id="stop37" stop-color="#11998e"/><stop offset="1" id="stop39" stop-color="#38ef7d"/></linearGradient><path d="M-360 613.6C-92 658 105.5 738 226.8 821.3c122.7 84.1 169.4 171.4 167.9 248.3-1.1 155.1-195.9 266.5-219.7 310.1-28.3 40.9-21.3 108.9-43.8 166.7-19.6 58.6-68.7 107.2-144.6 127-74.3 21.1-175.4 13.4-261.6-11.8-85.7-23.5-156.4-64.5-158.4-70.8-144.7-63.4 49.8-153.2 150.4-306.1 50.7-77.2 75.4-172.7 53.7-288-18.2-114.4-82.9-248.8-130.7-383.1zm916.4 390.6c39.9 18.3 57.4 65.4 39.2 105.3-18.3 39.9-65.4 57.4-105.3 39.2-39.8-18.2-57.4-65.3-39.2-105.2 18.1-39.9 65.2-57.6 105.1-39.4 0 0 .1.1.2.1z" clip-path="url(#SVGID_2_)" id="path35" transform="matrix(.53514 0 0 .9121 3.011 6208.926)" fill="url(#SVGID_6_)"/></g></svg>