<svg xmlns="http://www.w3.org/2000/svg" xmlns:xlink="http://www.w3.org/1999/xlink" id="Layer_1" viewBox="0 0 117.237 293" width="565" height="1000"><style id="style2"/><g id="g44" transform="matrix(.93 0 0 .51136 0 -3668.136)"><defs id="defs5"><path id="SVGID_1_" d="M0-7.4h1920v4596H0z"/></defs><clipPath id="SVGID_2_"><use xlink:href="#SVGID_1_" id="use7" width="100%" height="100%" overflow="visible"/></clipPath><linearGradient id="SVGID_3_" gradientUnits="userSpaceOnUse" x1="5515.997" y1="-5593.338" x2="5515.997" y2="-5072.364" gradientTransform="matrix(1 0 0 -1 -3777 -1631.722)"><stop offset="0" id="stop10" stop-color="#11998e"/><stop offset="1" id="stop12" stop-color="#38ef7d"/></linearGradient><linearGradient id="SVGID_4_" gradientUnits="userSpaceOnUse" x1="2666.051" y1="-4570.364" x2="2666.051" y2="-3902.382" gradientTransform="matrix(1 0 0 -1 -2571 -1128.752)"><stop offset="0" id="stop16" stop-color="#11998e"/><stop offset="1" id="stop18" stop-color="#38ef7d"/></linearGradient><linearGradient id="SVGID_5_" gradientUnits="userSpaceOnUse" x1="5738.991" y1="-2988.4" x2="5738.991" y2="-1903.382" gradientTransform="matrix(1 0 0 -1 -3817.83 -215.468)"><stop offset="0" id="stop23" stop-color="#11998e"/><stop offset="1" id="stop25" stop-color="#38ef7d"/></linearGradient><path d="M1872 1686.8c19.1 5.1 30.5 24.7 25.4 43.8-5.1 19.1-24.7 30.5-43.8 25.4-19.1-5.1-30.5-24.6-25.4-43.7 5.1-19.1 24.7-30.5 43.8-25.5zm23.8 58.9c9.9 2.6 15.7 12.7 13.1 22.6-2.6 9.9-12.7 15.7-22.6 13.1-9.9-2.6-15.7-12.7-13.1-22.6 2.6-9.9 12.8-15.7 22.6-13.1zm-57.5 48c4 1.1 6.4 5.2 5.3 9.2-1.1 4-5.2 6.4-9.2 5.3-4-1.1-6.4-5.2-5.3-9.2 1.1-3.9 5.2-6.3 9.2-5.3zm335.6 138c83.3 24.4 161.1 73 167.5 112.7 11.9 41.4-47.5 73.8-111.2 104.9-67.1 30.7-138.4 60.1-181.8 95.3-46.2 34.6-64.5 75.1-90 112.2-24.3 37.6-45.1 71-76.5 98.3-30.7 27.4-71.9 48.6-120.6 63.3-98.4 28.9-221.4 33.3-311.5 4.9-38.9-13.8-90.6-39.3-110.3-69.2-22.3-30.3-12.4-64.9 9.5-105.7 21.7-40.6 55.5-87.2 76.5-136.2 23.3-48.2 33.8-98.9 61.5-129.1 31.3-31.4 100.4-37.2 190.2-37.4 89.3.2 178.6-2.1 227.4-23.7 52-19.9 65.4-58.1 93.9-84.2 14.8-12.7 35-21.6 65.4-22.8 29.9-1.4 69.9 4.8 110 16.7zm-304.6 650.9c34.6 9.2 55.2 44.6 46 79.2-9.2 34.6-44.6 55.2-79.2 46-34.5-9.2-55.1-44.6-46-79.1 9.2-34.7 44.6-55.3 79.2-46.1zm-194.4 128c16.3 4.3 26 21 21.7 37.3-4.3 16.3-21 26-37.3 21.7-16.3-4.3-26-21-21.7-37.3 4.2-16.3 20.9-26.1 37.3-21.7z" clip-path="url(#SVGID_2_)" id="path28" transform="matrix(.29945 0 0 .52686 -422.891 6285.114)" fill="url(#SVGID_5_)"/><linearGradient id="SVGID_6_" gradientUnits="userSpaceOnUse" x1="2629.883" y1="-1207.376" x2="2629.883" y2="-135.388" gradientTransform="matrix(1 0 0 -1 -2571 478.248)"><stop offset="0" id="stop30" stop-color="#11998e"/><stop offset="1" id="stop32" stop-color="#38ef7d"/></linearGradient><linearGradient id="SVGID_7_" gradientUnits="userSpaceOnUse" x1="4716.009" y1="391.638" x2="4716.009" y2="996.546" gradientTransform="matrix(1 0 0 -1 -3255 1004.248)"><stop offset="0" id="stop37" stop-color="#11998e"/><stop offset="1" id="stop39" stop-color="#38ef7d"/></linearGradient></g></svg>