<?xml version="1.0" encoding="UTF-8" standalone="no"?>
<!-- Generator: Adobe Illustrator 22.0.1, SVG Export Plug-In . SVG Version: 6.00 Build 0)  -->

<svg
   xmlns:dc="http://purl.org/dc/elements/1.1/"
   xmlns:cc="http://creativecommons.org/ns#"
   xmlns:rdf="http://www.w3.org/1999/02/22-rdf-syntax-ns#"
   xmlns:svg="http://www.w3.org/2000/svg"
   xmlns="http://www.w3.org/2000/svg"
   xmlns:xlink="http://www.w3.org/1999/xlink"
   xmlns:sodipodi="http://sodipodi.sourceforge.net/DTD/sodipodi-0.dtd"
   xmlns:inkscape="http://www.inkscape.org/namespaces/inkscape"
   version="1.1"
   id="Layer_1"
   x="0px"
   y="0px"
   viewBox="0 0 670 520.00002"
   xml:space="preserve"
   sodipodi:docname="fifth-spot.svg"
   width="670"
   height="520"
   inkscape:version="0.92.3 (2405546, 2018-03-11)"><metadata
   id="metadata51"><rdf:RDF><cc:Work
       rdf:about=""><dc:format>image/svg+xml</dc:format><dc:type
         rdf:resource="http://purl.org/dc/dcmitype/StillImage" /><dc:title></dc:title></cc:Work></rdf:RDF></metadata><defs
   id="defs49"><linearGradient
     id="linearGradient3776"
     gradientUnits="userSpaceOnUse"
     x1="2629.8828"
     y1="-1207.376"
     x2="2629.8828"
     y2="-135.388"
     gradientTransform="matrix(1,0,0,-1,-2571,478.2481)"><stop
       offset="0"
       style="stop-color:#11998E"
       id="stop30-6" /><stop
       offset="1"
       style="stop-color:#38EF7D"
       id="stop32-7" /></linearGradient><clipPath
     id="SVGID_2_-7"><use
       xlink:href="#SVGID_1_"
       style="overflow:visible"
       id="use7-4"
       x="0"
       y="0"
       width="100%"
       height="100%" /></clipPath><linearGradient
     id="linearGradient3793"
     gradientUnits="userSpaceOnUse"
     x1="2666.0513"
     y1="-4570.3638"
     x2="2666.0513"
     y2="-3902.3818"
     gradientTransform="matrix(1,0,0,-1,-2571,-1128.7518)"><stop
       offset="0"
       style="stop-color:#11998E"
       id="stop16-3" /><stop
       offset="1"
       style="stop-color:#38EF7D"
       id="stop18-2" /></linearGradient><clipPath
     id="SVGID_2_-5"><use
       xlink:href="#SVGID_1_"
       style="overflow:visible"
       id="use7-3"
       x="0"
       y="0"
       width="100%"
       height="100%" /></clipPath><linearGradient
     id="linearGradient3810"
     gradientUnits="userSpaceOnUse"
     x1="5515.9971"
     y1="-5593.3379"
     x2="5515.9971"
     y2="-5072.3643"
     gradientTransform="matrix(1,0,0,-1,-3777,-1631.7218)"><stop
       offset="0"
       style="stop-color:#11998E"
       id="stop10-6" /><stop
       offset="1"
       style="stop-color:#38EF7D"
       id="stop12-1" /></linearGradient><clipPath
     id="SVGID_2_-9"><use
       xlink:href="#SVGID_1_"
       style="overflow:visible"
       id="use7-9"
       x="0"
       y="0"
       width="100%"
       height="100%" /></clipPath></defs><sodipodi:namedview
   pagecolor="#ffffff"
   bordercolor="#666666"
   borderopacity="1"
   objecttolerance="10"
   gridtolerance="10"
   guidetolerance="10"
   inkscape:pageopacity="0"
   inkscape:pageshadow="2"
   inkscape:window-width="1639"
   inkscape:window-height="795"
   id="namedview47"
   showgrid="false"
   units="px"
   width="300in"
   inkscape:zoom="0.47617848"
   inkscape:cx="-356.56441"
   inkscape:cy="147.9402"
   inkscape:window-x="2111"
   inkscape:window-y="42"
   inkscape:window-maximized="0"
   inkscape:current-layer="g44" />
<style
   type="text/css"
   id="style2">
	.st0{clip-path:url(#SVGID_2_);fill:url(#SVGID_3_);}
	.st1{clip-path:url(#SVGID_2_);fill:url(#SVGID_4_);}
	.st2{clip-path:url(#SVGID_2_);fill:url(#SVGID_5_);}
	.st3{clip-path:url(#SVGID_2_);fill:url(#SVGID_6_);}
	.st4{clip-path:url(#SVGID_2_);fill:url(#SVGID_7_);}
</style>
<g
   id="g44"
   transform="matrix(0.92999824,0,0,0.5113558,0,-3441.136)">
	<defs
   id="defs5">
		<rect
   id="SVGID_1_"
   y="-7.4000001"
   width="1920"
   height="4596"
   x="0" />
		<!--
		<view id="blob-1" viewBox="0 0 1920 614" />
		<view id="blob-2" viewBox="0 614 1920 1072" />
		-->
	</defs>
	<clipPath
   id="SVGID_2_">
		<use
   xlink:href="#SVGID_1_"
   style="overflow:visible"
   id="use7"
   x="0"
   y="0"
   width="100%"
   height="100%" />
	</clipPath>
	
		<linearGradient
   id="SVGID_3_"
   gradientUnits="userSpaceOnUse"
   x1="5515.9971"
   y1="-5593.3379"
   x2="5515.9971"
   y2="-5072.3643"
   gradientTransform="matrix(1,0,0,-1,-3777,-1631.7218)">
		<stop
   offset="0"
   style="stop-color:#11998E"
   id="stop10" />
		<stop
   offset="1"
   style="stop-color:#38EF7D"
   id="stop12" />
	</linearGradient>
	
	
		<linearGradient
   id="SVGID_4_"
   gradientUnits="userSpaceOnUse"
   x1="2666.0513"
   y1="-4570.3638"
   x2="2666.0513"
   y2="-3902.3818"
   gradientTransform="matrix(1,0,0,-1,-2571,-1128.7518)">
		<stop
   offset="0"
   style="stop-color:#11998E"
   id="stop16" />
		<stop
   offset="1"
   style="stop-color:#38EF7D"
   id="stop18" />
	</linearGradient>
	
	
		<linearGradient
   id="SVGID_5_"
   gradientUnits="userSpaceOnUse"
   x1="5738.9912"
   y1="-2988.3999"
   x2="5738.9912"
   y2="-1903.3824"
   gradientTransform="matrix(1,0,0,-1,-3904,-217.7518)">
		<stop
   offset="0"
   style="stop-color:#11998E"
   id="stop23" />
		<stop
   offset="1"
   style="stop-color:#38EF7D"
   id="stop25" />
	</linearGradient>
	
	
		<linearGradient
   id="SVGID_6_"
   gradientUnits="userSpaceOnUse"
   x1="2629.8828"
   y1="-1207.376"
   x2="2629.8828"
   y2="-135.388"
   gradientTransform="matrix(1,0,0,-1,-2571,478.2481)">
		<stop
   offset="0"
   style="stop-color:#11998E"
   id="stop30" />
		<stop
   offset="1"
   style="stop-color:#38EF7D"
   id="stop32" />
	</linearGradient>
	
	
		<linearGradient
   id="SVGID_7_"
   gradientUnits="userSpaceOnUse"
   x1="4716.0093"
   y1="391.63831"
   x2="4716.0093"
   y2="996.54639"
   gradientTransform="matrix(1,0,0,-1,-3255,1004.2482)">
		<stop
   offset="0"
   style="stop-color:#11998E"
   id="stop37" />
		<stop
   offset="1"
   style="stop-color:#38EF7D"
   id="stop39" />
	</linearGradient>
	
<path
   style="fill:url(#SVGID_3_)"
   id="blob-1"
   class="st0"
   d="m 1272.5,3487.4 c 10.8,0 19.5,9.2 19.5,20.5 0,11.3 -8.7,20.5 -19.5,20.5 -10.8,0 -19.5,-9.2 -19.5,-20.5 0,-11.3 8.7,-20.5 19.5,-20.5 z m 218.9,102.6 c 34.7,0 62.9,29.6 62.9,66.1 0,36.5 -28.1,66.1 -62.9,66.1 -34.8,0 -62.8,-29.6 -62.8,-66.1 0,-36.5 28.1,-66.1 62.8,-66.1 z M 1924,3441.2 c 66.5,-8.3 162.9,71.6 209.5,123.4 18.9,20 36.6,41.2 52.9,63.4 11.8,16.8 18.9,28.5 31.6,61.3 9.4,26.8 10.8,68.3 -4.6,104.6 -14.5,37.1 -45.7,69 -80.2,93.1 -34.5,24.4 -72.3,41 -101.9,53.3 -30.7,12 -53.2,19.6 -82.3,20.9 -50.3,5.7 -129.7,-50.8 -173.3,-96.3 -47.9,-50.4 -59.9,-89.8 -74.7,-162 -5.4,-34.9 -15.1,-75.5 -11.6,-107.4 2.6,-32.7 18.3,-56.6 43,-76 24.5,-19.4 57.9,-34.2 90.9,-48.9 33.4,-14 66.4,-28.1 100.7,-29.4 z"
   clip-path="url(#SVGID_2_)"
   inkscape:connector-curvature="0"
   transform="matrix(1.0718854,0,0,1.9477029,-1338.117,30.502683)" /></g>
</svg>