<?xml version="1.0" encoding="UTF-8" standalone="no"?>
<!-- Generator: Adobe Illustrator 22.0.1, SVG Export Plug-In . SVG Version: 6.00 Build 0)  -->

<svg
   xmlns:dc="http://purl.org/dc/elements/1.1/"
   xmlns:cc="http://creativecommons.org/ns#"
   xmlns:rdf="http://www.w3.org/1999/02/22-rdf-syntax-ns#"
   xmlns:svg="http://www.w3.org/2000/svg"
   xmlns="http://www.w3.org/2000/svg"
   xmlns:xlink="http://www.w3.org/1999/xlink"
   xmlns:sodipodi="http://sodipodi.sourceforge.net/DTD/sodipodi-0.dtd"
   xmlns:inkscape="http://www.inkscape.org/namespaces/inkscape"
   version="1.1"
   id="Layer_1"
   x="0px"
   y="0px"
   viewBox="0 0 1225 610.00002"
   xml:space="preserve"
   sodipodi:docname="first-spot.svg"
   width="1325"
   height="800"
   inkscape:version="0.92.3 (2405546, 2018-03-11)"><metadata
   id="metadata51"><rdf:RDF><cc:Work
       rdf:about=""><dc:format>image/svg+xml</dc:format><dc:type
         rdf:resource="http://purl.org/dc/dcmitype/StillImage" /><dc:title></dc:title></cc:Work></rdf:RDF></metadata><defs
   id="defs49"><linearGradient
     id="linearGradient3776"
     gradientUnits="userSpaceOnUse"
     x1="2629.8828"
     y1="-1207.376"
     x2="2629.8828"
     y2="-135.388"
     gradientTransform="matrix(1,0,0,-1,-2571,478.2481)"><stop
       offset="0"
       style="stop-color:#11998E"
       id="stop30-6" /><stop
       offset="1"
       style="stop-color:#38EF7D"
       id="stop32-7" /></linearGradient><clipPath
     id="SVGID_2_-7"><use
       xlink:href="#SVGID_1_"
       style="overflow:visible"
       id="use7-4"
       x="0"
       y="0"
       width="100%"
       height="100%" /></clipPath><linearGradient
     id="linearGradient3793"
     gradientUnits="userSpaceOnUse"
     x1="2666.0513"
     y1="-4570.3638"
     x2="2666.0513"
     y2="-3902.3818"
     gradientTransform="matrix(1,0,0,-1,-2571,-1128.7518)"><stop
       offset="0"
       style="stop-color:#11998E"
       id="stop16-3" /><stop
       offset="1"
       style="stop-color:#38EF7D"
       id="stop18-2" /></linearGradient><clipPath
     id="SVGID_2_-5"><use
       xlink:href="#SVGID_1_"
       style="overflow:visible"
       id="use7-3"
       x="0"
       y="0"
       width="100%"
       height="100%" /></clipPath><linearGradient
     id="linearGradient3810"
     gradientUnits="userSpaceOnUse"
     x1="5515.9971"
     y1="-5593.3379"
     x2="5515.9971"
     y2="-5072.3643"
     gradientTransform="matrix(1,0,0,-1,-3777,-1631.7218)"><stop
       offset="0"
       style="stop-color:#11998E"
       id="stop10-6" /><stop
       offset="1"
       style="stop-color:#38EF7D"
       id="stop12-1" /></linearGradient><clipPath
     id="SVGID_2_-9"><use
       xlink:href="#SVGID_1_"
       style="overflow:visible"
       id="use7-9"
       x="0"
       y="0"
       width="100%"
       height="100%" /></clipPath><linearGradient
     id="linearGradient3827"
     gradientUnits="userSpaceOnUse"
     x1="4716.0093"
     y1="391.63831"
     x2="4716.0093"
     y2="996.54639"
     gradientTransform="matrix(1,0,0,-1,-3255,1004.2482)"><stop
       offset="0"
       style="stop-color:#11998E"
       id="stop37-4" /><stop
       offset="1"
       style="stop-color:#38EF7D"
       id="stop39-6" /></linearGradient><clipPath
     id="SVGID_2_-3"><use
       xlink:href="#SVGID_1_"
       style="overflow:visible"
       id="use7-8"
       x="0"
       y="0"
       width="100%"
       height="100%" /></clipPath></defs><sodipodi:namedview
   pagecolor="#ffffff"
   bordercolor="#666666"
   borderopacity="1"
   objecttolerance="10"
   gridtolerance="10"
   guidetolerance="10"
   inkscape:pageopacity="0"
   inkscape:pageshadow="2"
   inkscape:window-width="1639"
   inkscape:window-height="795"
   id="namedview47"
   showgrid="false"
   units="px"
   width="300in"
   inkscape:zoom="0.47617848"
   inkscape:cx="418.49267"
   inkscape:cy="147.9402"
   inkscape:window-x="2111"
   inkscape:window-y="42"
   inkscape:window-maximized="0"
   inkscape:current-layer="g44" />
<style
   type="text/css"
   id="style2">
	.st0{clip-path:url(#SVGID_2_);fill:url(#SVGID_3_);}
	.st1{clip-path:url(#SVGID_2_);fill:url(#SVGID_4_);}
	.st2{clip-path:url(#SVGID_2_);fill:url(#SVGID_5_);}
	.st3{clip-path:url(#SVGID_2_);fill:url(#SVGID_6_);}
	.st4{clip-path:url(#SVGID_2_);fill:url(#SVGID_7_);}
</style>
<g
   id="g44"
   transform="matrix(0.92999824,0,0,0.5113558,0,-3351.136)">
	<defs
   id="defs5">
		<rect
   id="SVGID_1_"
   y="-7.4000001"
   width="1920"
   height="4596"
   x="0" />
		<!--
		<view id="blob-1" viewBox="0 0 1920 614" />
		<view id="blob-2" viewBox="0 614 1920 1072" />
		-->
	</defs>
	<clipPath
   id="SVGID_2_">
		<use
   xlink:href="#SVGID_1_"
   style="overflow:visible"
   id="use7"
   x="0"
   y="0"
   width="100%"
   height="100%" />
	</clipPath>
	
		<linearGradient
   id="SVGID_3_"
   gradientUnits="userSpaceOnUse"
   x1="5515.9971"
   y1="-5593.3379"
   x2="5515.9971"
   y2="-5072.3643"
   gradientTransform="matrix(1,0,0,-1,-3777,-1631.7218)">
		<stop
   offset="0"
   style="stop-color:#11998E"
   id="stop10" />
		<stop
   offset="1"
   style="stop-color:#38EF7D"
   id="stop12" />
	</linearGradient>
	
	
		<linearGradient
   id="SVGID_4_"
   gradientUnits="userSpaceOnUse"
   x1="2666.0513"
   y1="-4570.3638"
   x2="2666.0513"
   y2="-3902.3818"
   gradientTransform="matrix(1,0,0,-1,-2571,-1128.7518)">
		<stop
   offset="0"
   style="stop-color:#11998E"
   id="stop16" />
		<stop
   offset="1"
   style="stop-color:#38EF7D"
   id="stop18" />
	</linearGradient>
	
	
		<linearGradient
   id="SVGID_5_"
   gradientUnits="userSpaceOnUse"
   x1="5738.9912"
   y1="-2988.3999"
   x2="5738.9912"
   y2="-1903.3824"
   gradientTransform="matrix(1,0,0,-1,-3904,-217.7518)">
		<stop
   offset="0"
   style="stop-color:#11998E"
   id="stop23" />
		<stop
   offset="1"
   style="stop-color:#38EF7D"
   id="stop25" />
	</linearGradient>
	
	
		<linearGradient
   id="SVGID_6_"
   gradientUnits="userSpaceOnUse"
   x1="2629.8828"
   y1="-1207.376"
   x2="2629.8828"
   y2="-135.388"
   gradientTransform="matrix(1,0,0,-1,-2571,478.2481)">
		<stop
   offset="0"
   style="stop-color:#11998E"
   id="stop30" />
		<stop
   offset="1"
   style="stop-color:#38EF7D"
   id="stop32" />
	</linearGradient>
	
	
		<linearGradient
   id="SVGID_7_"
   gradientUnits="userSpaceOnUse"
   x1="4716.0093"
   y1="391.63831"
   x2="4716.0093"
   y2="996.54639"
   gradientTransform="matrix(1,0,0,-1,-3255,1004.2482)">
		<stop
   offset="0"
   style="stop-color:#11998E"
   id="stop37" />
		<stop
   offset="1"
   style="stop-color:#38EF7D"
   id="stop39" />
	</linearGradient>
	
<path
   style="fill:url(#SVGID_7_)"
   class="st4"
   d="m 739.9,82.4 c 28.4,-2.6 53.4,18.3 56,46.7 2.6,28.4 -18.3,53.4 -46.7,56 -28.3,2.6 -53.4,-18.3 -56,-46.6 C 690.6,110 711.5,85 739.9,82.4 Z m 8.8,200.4 c 13,-1.2 24.5,8.4 25.6,21.4 1.2,13 -8.4,24.5 -21.4,25.6 -13,1.2 -24.4,-8.4 -25.6,-21.3 -1.1,-13 8.5,-24.5 21.4,-25.7 z m 1160.2,-159 c 7.9,-0.7 15,5.1 15.7,13.1 0.7,7.9 -5.1,15 -13.1,15.7 -7.9,0.7 -15,-5.1 -15.7,-13.1 -0.7,-7.9 5.1,-15 13.1,-15.7 z M 1525.1,54.7 c 46.9,-3.1 84.2,-2.4 134.5,16.6 48.8,17.6 110.5,53.6 170.9,88.7 61.1,37.5 121,74.2 172,116.7 51.7,42.3 94.5,90.4 139.3,146.1 41,53.6 81.2,103 86.3,127.1 6.4,25.7 -22.5,26.2 -90.1,19.8 -65.1,-6.7 -162.6,-18.8 -244.8,-17.3 -41.1,0.5 -77.8,4.2 -107.2,10.6 -29.8,6.3 -52.2,15.3 -73.1,23.3 -40.3,16.8 -66.2,32.3 -130,23.9 -60.5,-7.1 -158.9,-38 -268.3,-82.6 C 1206,483.3 1086.3,425.3 1001,370 914,313.9 861.2,260.5 846.4,205.6 832.8,152.6 857.6,98.6 907.5,62 957.1,24.8 1031.9,5 1113.2,8 c 80.6,-0.2 167.9,22.4 238.6,34.2 71.9,13.4 127.4,16.1 173.3,12.5 z"
   clip-path="url(#SVGID_2_)"
   id="path42"
   inkscape:connector-curvature="0"
   transform="matrix(1.0642289,0,0,1.9420059,-726.51625,6548.5774)" /></g>
</svg>