<?xml version="1.0" encoding="UTF-8" standalone="no"?>
<!-- Generator: Adobe Illustrator 22.0.1, SVG Export Plug-In . SVG Version: 6.00 Build 0)  -->

<svg
   xmlns:dc="http://purl.org/dc/elements/1.1/"
   xmlns:cc="http://creativecommons.org/ns#"
   xmlns:rdf="http://www.w3.org/1999/02/22-rdf-syntax-ns#"
   xmlns:svg="http://www.w3.org/2000/svg"
   xmlns="http://www.w3.org/2000/svg"
   xmlns:xlink="http://www.w3.org/1999/xlink"
   xmlns:sodipodi="http://sodipodi.sourceforge.net/DTD/sodipodi-0.dtd"
   xmlns:inkscape="http://www.inkscape.org/namespaces/inkscape"
   version="1.1"
   id="Layer_1"
   x="0px"
   y="0px"
   viewBox="0 0 570 670.00003"
   xml:space="preserve"
   sodipodi:docname="fourth-spot.svg"
   width="570"
   height="670"
   inkscape:version="0.92.3 (2405546, 2018-03-11)"><metadata
   id="metadata51"><rdf:RDF><cc:Work
       rdf:about=""><dc:format>image/svg+xml</dc:format><dc:type
         rdf:resource="http://purl.org/dc/dcmitype/StillImage" /><dc:title></dc:title></cc:Work></rdf:RDF></metadata><defs
   id="defs49"><linearGradient
     id="linearGradient3776"
     gradientUnits="userSpaceOnUse"
     x1="2629.8828"
     y1="-1207.376"
     x2="2629.8828"
     y2="-135.388"
     gradientTransform="matrix(1,0,0,-1,-2571,478.2481)"><stop
       offset="0"
       style="stop-color:#11998E"
       id="stop30-6" /><stop
       offset="1"
       style="stop-color:#38EF7D"
       id="stop32-7" /></linearGradient><clipPath
     id="SVGID_2_-7"><use
       xlink:href="#SVGID_1_"
       style="overflow:visible"
       id="use7-4"
       x="0"
       y="0"
       width="100%"
       height="100%" /></clipPath><linearGradient
     id="linearGradient3793"
     gradientUnits="userSpaceOnUse"
     x1="2666.0513"
     y1="-4570.3638"
     x2="2666.0513"
     y2="-3902.3818"
     gradientTransform="matrix(1,0,0,-1,-2571,-1128.7518)"><stop
       offset="0"
       style="stop-color:#11998E"
       id="stop16-3" /><stop
       offset="1"
       style="stop-color:#38EF7D"
       id="stop18-2" /></linearGradient><clipPath
     id="SVGID_2_-5"><use
       xlink:href="#SVGID_1_"
       style="overflow:visible"
       id="use7-3"
       x="0"
       y="0"
       width="100%"
       height="100%" /></clipPath></defs><sodipodi:namedview
   pagecolor="#ffffff"
   bordercolor="#666666"
   borderopacity="1"
   objecttolerance="10"
   gridtolerance="10"
   guidetolerance="10"
   inkscape:pageopacity="0"
   inkscape:pageshadow="2"
   inkscape:window-width="1639"
   inkscape:window-height="795"
   id="namedview47"
   showgrid="false"
   units="px"
   width="300in"
   inkscape:zoom="0.47617848"
   inkscape:cx="-356.56441"
   inkscape:cy="147.9402"
   inkscape:window-x="2111"
   inkscape:window-y="42"
   inkscape:window-maximized="0"
   inkscape:current-layer="g44" />
<style
   type="text/css"
   id="style2">
	.st0{clip-path:url(#SVGID_2_);fill:url(#SVGID_3_);}
	.st1{clip-path:url(#SVGID_2_);fill:url(#SVGID_4_);}
	.st2{clip-path:url(#SVGID_2_);fill:url(#SVGID_5_);}
	.st3{clip-path:url(#SVGID_2_);fill:url(#SVGID_6_);}
	.st4{clip-path:url(#SVGID_2_);fill:url(#SVGID_7_);}
</style>
<g
   id="g44"
   transform="matrix(0.92999824,0,0,0.5113558,0,-3291.136)">
	<defs
   id="defs5">
		<rect
   id="SVGID_1_"
   y="-7.4000001"
   width="1920"
   height="4596"
   x="0" />
		<!--
		<view id="blob-1" viewBox="0 0 1920 614" />
		<view id="blob-2" viewBox="0 614 1920 1072" />
		-->
	</defs>
	<clipPath
   id="SVGID_2_">
		<use
   xlink:href="#SVGID_1_"
   style="overflow:visible"
   id="use7"
   x="0"
   y="0"
   width="100%"
   height="100%" />
	</clipPath>
	
		<linearGradient
   id="SVGID_3_"
   gradientUnits="userSpaceOnUse"
   x1="5515.9971"
   y1="-5593.3379"
   x2="5515.9971"
   y2="-5072.3643"
   gradientTransform="matrix(1,0,0,-1,-3777,-1631.7218)">
		<stop
   offset="0"
   style="stop-color:#11998E"
   id="stop10" />
		<stop
   offset="1"
   style="stop-color:#38EF7D"
   id="stop12" />
	</linearGradient>
	
	
		<linearGradient
   id="SVGID_4_"
   gradientUnits="userSpaceOnUse"
   x1="2666.0513"
   y1="-4570.3638"
   x2="2666.0513"
   y2="-3902.3818"
   gradientTransform="matrix(1,0,0,-1,-2571,-1128.7518)">
		<stop
   offset="0"
   style="stop-color:#11998E"
   id="stop16" />
		<stop
   offset="1"
   style="stop-color:#38EF7D"
   id="stop18" />
	</linearGradient>
	
	
		<linearGradient
   id="SVGID_5_"
   gradientUnits="userSpaceOnUse"
   x1="5738.9912"
   y1="-2988.3999"
   x2="5738.9912"
   y2="-1903.3824"
   gradientTransform="matrix(1,0,0,-1,-3904,-217.7518)">
		<stop
   offset="0"
   style="stop-color:#11998E"
   id="stop23" />
		<stop
   offset="1"
   style="stop-color:#38EF7D"
   id="stop25" />
	</linearGradient>
	
	
		<linearGradient
   id="SVGID_6_"
   gradientUnits="userSpaceOnUse"
   x1="2629.8828"
   y1="-1207.376"
   x2="2629.8828"
   y2="-135.388"
   gradientTransform="matrix(1,0,0,-1,-2571,478.2481)">
		<stop
   offset="0"
   style="stop-color:#11998E"
   id="stop30" />
		<stop
   offset="1"
   style="stop-color:#38EF7D"
   id="stop32" />
	</linearGradient>
	
	
		<linearGradient
   id="SVGID_7_"
   gradientUnits="userSpaceOnUse"
   x1="4716.0093"
   y1="391.63831"
   x2="4716.0093"
   y2="996.54639"
   gradientTransform="matrix(1,0,0,-1,-3255,1004.2482)">
		<stop
   offset="0"
   style="stop-color:#11998E"
   id="stop37" />
		<stop
   offset="1"
   style="stop-color:#38EF7D"
   id="stop39" />
	</linearGradient>
	
<path
   style="fill:url(#SVGID_4_)"
   class="st1"
   d="m 508.5,2845.1 c 15.1,-0.1 27.4,12.1 27.4,27.2 0.1,15.1 -12.1,27.4 -27.2,27.4 -15.1,0.1 -27.4,-12.1 -27.4,-27.2 0,0 0,-0.1 0,-0.1 -0.1,-15 12.1,-27.3 27.2,-27.3 0,0 0,0 0,0 z m 55.4,-6.1 c 5.6,0 10.2,4.5 10.2,10.1 0,5.6 -4.5,10.2 -10.1,10.2 -5.6,0 -10.2,-4.5 -10.2,-10.1 0,0 0,0 0,-0.1 0,-5.6 4.5,-10.1 10.1,-10.1 z m -543,-61.6 c 134.2,23.5 243.9,104.6 340.8,180.5 92.3,76.4 159.1,176.1 93.3,263 -56.9,88.3 -103.7,137.8 -213,176.3 -99.4,35.6 -261.3,60.2 -319.9,32.5 -28.7,-12 -99.1,-45 -160.6,-78.1 -62.5,-34.1 -115.9,-68.3 -135.3,-103.5 -21,-35.4 -7.9,-71.6 25.3,-113.9 31.1,-41.7 82.3,-89.5 88,-135.9 25.5,-100.6 90.5,-100.4 115.5,-141.3 35.7,-29.6 31.5,-100.4 165.9,-79.6 z"
   clip-path="url(#SVGID_2_)"
   id="path21"
   inkscape:connector-curvature="0"
   transform="matrix(1.0556042,0,0,1.9432894,2.9648312,1050.2239)" /></g>
</svg>