<?xml version="1.0" encoding="utf-8"?>
<!-- Generator: Adobe Illustrator 16.0.3, SVG Export Plug-In . SVG Version: 6.00 Build 0)  -->
<!DOCTYPE svg PUBLIC "-//W3C//DTD SVG 1.1//EN" "http://www.w3.org/Graphics/SVG/1.1/DTD/svg11.dtd">
<svg version="1.1" id="Layer_2" xmlns="http://www.w3.org/2000/svg" xmlns:xlink="http://www.w3.org/1999/xlink" x="0px" y="0px"
	 width="1500px" height="1500px" viewBox="0 0 1500 1500" enable-background="new 0 0 1500 1500" xml:space="preserve">
<g>
	<g>
		<g>
			<path fill-rule="evenodd" clip-rule="evenodd" fill="#E0F2F0" d="M953.675,935.448c0.012-0.598,0.033-1.195,0.037-1.793
				c-0.12-1.353-0.145-2.689-0.087-4.011c-0.206-0.879-0.415-1.761-0.565-2.65c-0.961-3.934-0.912-7.971-0.035-11.855
				c-0.684-2.879-0.994-5.813-0.924-8.704c-45.232-7.292-90.464-14.571-135.688-21.902c-8.008-1.297-15.977-2.817-23.964-4.233
				h-3.009c3.056,15.583,3.805,31.087-1.81,46.324c-3.536,9.587-9.709,16.942-18.621,22.052
				c-21.961,12.599-43.877,25.277-65.81,37.923v14.039c14.663,3.056,29.349,6.015,43.987,9.185
				c38.252,8.289,76.486,16.673,114.723,25.042c0.614,0.133,1.161,0.573,1.74,0.871h1.149c2.317-7.268,7.565-13.239,15.967-15.598
				c1-0.389,2.046-0.726,3.15-1c0.922-1.935,2.011-3.817,3.289-5.616c7.523-10.595,18.856-16.176,29.588-22.734
				c3.632-2.22,7.426-4.128,11.084-6.301c1.193-0.708,2.402-1.424,3.586-2.175c2.565-5.382,7.204-9.279,12.635-11.658
				c0.639-5.333,2.612-10.338,6.058-14.233c0.114-4.576,1.212-8.989,3.277-12.837C953.484,940.871,953.557,938.158,953.675,935.448z
				"/>
		</g>
		<g>
			<path fill-rule="evenodd" clip-rule="evenodd" fill="#C9C7C7" d="M953.675,935.448c0.012-0.598,0.033-1.195,0.037-1.793
				c-0.141-1.575-0.12-3.122-0.021-4.656c-1.532-4.55-1.693-9.3-0.669-13.849c-0.818-3.426-1.118-6.941-0.863-10.354
				c-6.985-1.107-13.974-2.216-20.963-3.321c-0.078,0.31-0.153,0.62-0.229,0.93c3.215,1.016,6.369,2.366,9.662,2.962
				c3.662,0.666,5.134,2.312,4.654,6.039c-0.294,2.269-0.056,4.604-0.056,7.221c-29.071-5.862-57.671-11.638-86.275-17.392
				c-20.806-4.184-41.619-8.336-62.423-12.528c-0.945-0.192-1.832-0.659-2.746-0.998h-2.006v9.399
				c51.52,10.713,102.427,21.3,153.381,31.897c0,7.843,0.424,15.21-0.1,22.508c-0.749,10.371-5.578,18.825-14.206,24.75
				c-20.768,14.255-41.595,28.427-62.536,42.425c-1.889,1.263-4.961,1.845-7.185,1.363c-41.819-9.034-83.585-18.307-125.376-27.451
				c-10.711-2.344-21.482-4.417-32.224-6.614v15.04c52.744,11.709,105.488,23.414,158.228,35.144
				c0.773,0.171,1.481,0.632,2.222,0.959h0.814c2.364-7.415,7.777-13.48,16.477-15.734c0.686-0.251,1.356-0.516,2.089-0.714
				c1.078-2.658,2.448-5.248,4.174-7.677c7.522-10.595,18.855-16.175,29.587-22.734c3.631-2.22,7.427-4.127,11.085-6.3
				c1.193-0.708,2.401-1.424,3.586-2.175c2.564-5.385,7.208-9.281,12.64-11.66c0.641-5.335,2.611-10.345,6.061-14.239
				c0.11-4.253,1.102-8.343,2.924-11.968C953.472,941.1,953.553,938.272,953.675,935.448z"/>
		</g>
		<g>
			<path fill-rule="evenodd" clip-rule="evenodd" fill="#5F6060" d="M957.172,956.903c-3.722,16.385-14.364,26.685-28.233,35.551
				c-21.31,13.627-41.568,28.898-62.258,43.492c-0.355,0.25-0.514,0.781-0.765,1.181c-0.669-0.5-1.904-0.985-1.918-1.506
				c-0.149-4.844-0.088-9.691-0.088-14.539c21.892-14.879,43.827-29.693,65.652-44.669c9.249-6.345,14.243-15.375,14.506-26.574
				c0.31-13.164-0.019-26.341,0.158-39.511c0.04-2.975-1.088-4.066-3.767-4.688c-3.521-0.82-6.945-2.049-10.23-4.109
				c8.981,1.408,17.96,2.82,26.941,4.227C957.172,922.808,957.172,939.855,957.172,956.903z"/>
		</g>
		<g>
			<path fill-rule="evenodd" clip-rule="evenodd" fill="#3B3B3B" d="M1219.747,972.862c-4.346,0-8.689,0-13.035,0
				c0-231.817-0.006-463.635,0.141-695.455c0-1.292-2.477-4.639,1.863-4.511c0.767,0.278,1.516,0.735,2.301,0.811
				c15.291,1.436,30.598,2.695,45.873,4.276c10.437,1.077,20.962,1.942,31.202,4.082c11.077,2.318,22.017,14.963,19.464,29.598
				c-3.031,17.369-3.816,35.127-5.612,52.714c-1.775,17.419-3.588,34.837-5.398,52.252c-1.864,17.914-3.758,35.822-5.607,53.738
				c-1.813,17.583-3.564,35.171-5.383,52.754c-1.854,17.911-3.785,35.816-5.637,53.728c-1.816,17.583-3.542,35.176-5.368,52.759
				c-2.188,21.061-4.476,42.114-6.652,63.18c-2.161,20.9-4.197,41.813-6.36,62.712c-2.183,21.063-4.497,42.113-6.674,63.178
				c-2.157,20.898-4.192,41.81-6.33,62.711c-2.224,21.729-4.431,43.457-6.826,65.165c-0.485,4.414-1.189,8.969-2.816,13.053
				C1235.53,968.045,1228.233,971.473,1219.747,972.862z"/>
		</g>
		<g>
			<path fill-rule="evenodd" clip-rule="evenodd" fill="#4D4C4D" d="M1234.1,905.245c-11.15-2.122-21.606-4.083-32.049-6.103
				c-52.686-10.191-105.369-20.411-158.056-30.592c-51.053-9.862-102.116-19.669-153.167-29.536
				c-49.251-9.52-98.489-19.107-147.742-28.621c-54.489-10.525-108.987-20.987-163.478-31.511
				c-35.508-6.855-70.992-13.833-106.525-20.57c-3.631-0.688-4.504-1.836-4.14-5.52c1.767-17.766,3.187-35.569,4.729-53.357
				c1.885-21.78,3.781-43.56,5.649-65.341c1.469-17.128,2.894-34.26,4.36-51.39c1.894-22.114,3.819-44.224,5.712-66.34
				c1.451-16.963,2.858-33.928,4.31-50.89c1.891-22.116,3.827-44.226,5.702-66.342c1.82-21.456,3.556-42.915,5.382-64.368
				c1.828-21.451,3.737-42.896,5.586-64.345c1.159-13.469,2.525-26.929,3.336-40.419c0.854-14.23,10.216-23.167,24.579-22.224
				c13.155,0.861,26.284,2.152,39.409,3.396c19.443,1.841,38.867,3.865,58.308,5.709c43.908,4.166,87.819,8.277,131.729,12.4
				c48.903,4.594,97.809,9.148,146.707,13.773c44.549,4.216,89.083,8.548,133.634,12.742c37.396,3.519,74.809,6.879,112.209,10.366
				c35.741,3.332,71.488,6.592,107.204,10.179c13.559,1.363,24.725,7.071,28.211,21.454c1.237,5.094,0.123,10.855-0.411,16.265
				c-2.098,21.249-4.395,42.479-6.619,63.716c-2.222,21.237-4.46,42.47-6.657,63.708c-2.147,20.741-4.236,41.49-6.377,62.231
				c-2.194,21.239-4.442,42.474-6.633,63.712c-2.159,20.91-4.26,41.825-6.423,62.733c-2.177,21.071-4.415,42.139-6.6,63.21
				c-1.825,17.59-3.597,35.185-5.419,52.773c-2.201,21.238-4.446,42.472-6.641,63.71c-1.819,17.589-3.588,35.184-5.398,52.774
				C1237.094,876.545,1235.638,890.454,1234.1,905.245z"/>
		</g>
		<g>
			<path fill-rule="evenodd" clip-rule="evenodd" fill="#E0F2F0" d="M472.379,757.634c12.69,2.616,25.354,5.366,38.076,7.824
				c67.344,13.013,134.704,25.938,202.054,38.922c66.593,12.837,133.181,25.703,199.77,38.568
				c82.201,15.881,164.397,31.771,246.597,47.666c24.559,4.75,49.111,9.534,73.671,14.278c0.968,0.185,1.982,0.108,2.977,0.155
				c0,1.004,0,2.006,0,3.009c-0.998,7.722-2.094,15.437-2.969,23.173c-0.844,7.457-1.305,14.957-2.218,22.403
				c-1.054,8.606-11.048,16.789-21.767,16.609c-8.082-0.136-16.216-1.693-24.188-3.309c-78.325-15.894-156.62-31.927-234.923-47.929
				c-88.917-18.172-177.833-36.349-266.746-54.535c-64.622-13.217-129.24-26.46-193.865-39.674
				c-11.577-2.367-19.852-8.416-22.863-20.339c-0.398-1.581-0.504-3.311-0.363-4.939c1.2-13.965,2.487-27.923,3.748-41.882
				C470.374,757.634,471.376,757.634,472.379,757.634z"/>
		</g>
		<g>
			<path fill-rule="evenodd" clip-rule="evenodd" fill="#FFFFFF" d="M1212.436,872.242c-1.001,0-2.003,0-3.007,0
				c-1.677-0.619-3.307-1.493-5.039-1.82c-56.845-10.756-113.694-21.479-170.552-32.164
				c-66.865-12.566-133.735-25.095-200.604-37.632c-67.263-12.613-134.529-25.197-201.788-37.831
				c-43.216-8.118-86.423-16.281-129.623-24.482c-7.075-1.344-6.837-1.465-6.131-8.689c1.396-14.278,2.539-28.58,3.772-42.872
				c1.463-16.955,2.901-33.909,4.368-50.863c1.871-21.606,3.783-43.208,5.637-64.814c1.467-17.119,2.85-34.247,4.315-51.367
				c1.89-22.105,3.826-44.206,5.733-66.31c1.461-16.952,2.896-33.909,4.366-50.863c1.871-21.606,3.767-43.209,5.647-64.816
				c1.549-17.78,3.143-35.559,4.627-53.348c1.193-14.294,2.259-28.6,3.381-42.9c2.34,0,4.678,0,7.02,0
				c14.582,1.62,29.153,3.354,43.749,4.837c28.407,2.887,56.831,5.604,85.244,8.442c25.405,2.536,50.802,5.182,76.21,7.704
				c25.243,2.505,50.5,4.866,75.74,7.379c28.565,2.842,57.117,5.831,85.684,8.667c32.06,3.181,64.135,6.219,96.195,9.401
				c35.567,3.53,71.121,7.175,106.686,10.728c48.045,4.797,96.096,9.548,144.143,14.334c3.746,0.374,7.482,0.854,11.56,1.324
				c-1.538,15.473-2.972,30.399-4.515,45.314c-2.181,21.069-4.489,42.125-6.648,63.196c-2.164,21.072-4.146,42.164-6.321,63.233
				c-2.842,27.539-5.855,55.059-8.688,82.599c-2.507,24.389-4.806,48.801-7.312,73.188c-2.507,24.389-5.221,48.755-7.729,73.143
				c-2.506,24.389-4.803,48.8-7.304,73.189C1218.38,816.187,1215.382,844.211,1212.436,872.242z"/>
		</g>
		<g>
			<path fill-rule="evenodd" clip-rule="evenodd" fill="#539798" d="M831.702,837.134c1.077,1.967,2.152,3.936,3.228,5.9
				c-5.995,4.188-5.995,4.188-10.412-1.998c2.063-1.303,4.122-2.604,6.18-3.902C831.033,837.134,831.367,837.134,831.702,837.134z"
				/>
			<path fill-rule="evenodd" clip-rule="evenodd" fill="#539798" d="M832.105,881.292c-1.995-3.441-3.715-6.418-6.071-10.488
				c6.614-0.905,12.635-1.732,19.66-2.693C843.447,876.123,838.562,879.203,832.105,881.292z"/>
			<path fill-rule="evenodd" clip-rule="evenodd" fill="#539798" d="M804.697,858.909c5.711,3.852,10.513,7.092,15.853,10.691
				c-2.389,1.563-3.901,2.501-5.362,3.517c-1.351,0.941-2.646,1.962-4.146,3.083C806.052,872.05,803.726,866.987,804.697,858.909z"
				/>
			<path fill-rule="evenodd" clip-rule="evenodd" fill="#539798" d="M831.745,860.668c4.488-1.22,8.489-2.308,12.492-3.395
				c0.532,0.459,1.067,0.917,1.6,1.375c-1.016,2.332-1.424,5.9-3.167,6.759C837.87,867.778,834.115,866.084,831.745,860.668z"/>
			<path fill-rule="evenodd" clip-rule="evenodd" fill="#539798" d="M809.625,849.279c3.972,3.397,6.99,5.976,9.979,8.534
				c-3.938,6.18-7.444,2.49-10.527,0.641C804.887,855.944,808.773,853.441,809.625,849.279z"/>
			<path fill-rule="evenodd" clip-rule="evenodd" fill="#539798" d="M813.442,879.118c7.916-8.23,10.868-7.563,15.016,3.271
				C823.264,881.256,818.881,880.301,813.442,879.118z"/>
			<path fill-rule="evenodd" clip-rule="evenodd" fill="#539798" d="M831.922,848.045c3.569,0.261,6.676-5.307,9.51,0.208
				c0.892,1.736,1.047,5.403-0.035,6.311C838.3,857.161,835.798,855.39,831.922,848.045z"/>
			<path fill-rule="evenodd" clip-rule="evenodd" fill="#539798" d="M812.892,847.572c1.297-1.469,2.356-2.75,3.505-3.944
				c0.677-0.7,1.497-1.261,2.648-2.209c1.987,1.797,3.887,3.519,5.811,5.261C818.302,852.868,818.077,852.886,812.892,847.572z"/>
			<path fill-rule="evenodd" clip-rule="evenodd" fill="#539798" d="M833.244,856.23c-1.037,0.949-1.806,2.17-2.362,2.081
				c-3.134-0.508-6.231-1.267-9.285-2.136c-0.345-0.099-0.679-1.949-0.439-2.108c2.273-1.507,4.793-4.036,6.998-3.817
				C829.959,850.428,831.433,853.95,833.244,856.23z"/>
			<path fill-rule="evenodd" clip-rule="evenodd" fill="#539798" d="M830.616,866.254c-7.049,3.674-7.292,3.622-11.925-2.446
				C825.018,858.385,826.506,858.652,830.616,866.254z"/>
		</g>
	</g>
	<g opacity="0.7">
		<g>
			<path fill-rule="evenodd" clip-rule="evenodd" fill="#E6E7E8" d="M1270.778,311.042c0,0.332,0,0.666,0,1
				c-0.263,0.595-0.702,1.172-0.766,1.786c-1.444,13.584-2.831,27.172-4.266,40.756c-0.889,8.405-1.838,16.806-2.808,25.668
				c-243.613-26.888-486.723-53.722-730.413-80.619c1.831-20.226,3.619-39.951,5.405-59.674c1.335,0,2.668,0,4.004,0
				c1.572,0.338,3.128,0.837,4.72,0.992c15.237,1.489,30.481,2.898,45.718,4.37c15.9,1.535,31.794,3.125,47.694,4.666
				c15.073,1.46,30.152,2.87,45.226,4.332c19.378,1.88,38.753,3.799,58.132,5.681c15.075,1.462,30.154,2.884,45.229,4.345
				c19.38,1.881,38.76,3.789,58.14,5.671c15.077,1.462,30.156,2.89,45.23,4.357c19.216,1.872,38.43,3.782,57.646,5.646
				c15.244,1.481,30.493,2.896,45.735,4.381c19.053,1.854,38.1,3.776,57.152,5.621c18.725,1.81,37.458,3.536,56.183,5.342
				c19.387,1.868,38.767,3.789,58.152,5.688c18.888,1.852,37.774,3.732,56.667,5.551
				C1239.293,308.117,1255.037,309.563,1270.778,311.042z"/>
		</g>
		<g>
			<path fill-rule="evenodd" clip-rule="evenodd" fill="#D1D3D4" d="M594.021,248.52c8.792,1.016,17.584,2.063,26.38,3.036
				c5.15,0.571,10.315,1.021,16.417,1.618c-2.546,25.093-5.062,49.879-7.653,75.439c-16.088-1.716-31.868-3.401-48.186-5.144
				c0.84-8.819,1.667-17.284,2.452-25.753c1.523-16.396,3.021-32.797,4.53-49.195C589.981,248.52,592.001,248.52,594.021,248.52z"/>
			<path fill-rule="evenodd" clip-rule="evenodd" fill="#D1D3D4" d="M540.484,735.416c1.013-8.627,2.053-17.251,3.031-25.88
				c0.508-4.474,0.908-8.96,1.424-14.113c17.79,3.089,35.209,6.11,52.984,9.197c-1.326,15.404-2.619,30.4-3.942,45.779
				c-18.09-3.358-35.795-6.645-53.498-9.933C540.484,738.783,540.484,737.1,540.484,735.416z"/>
			<path fill-rule="evenodd" clip-rule="evenodd" fill="#D1D3D4" d="M900.126,575.251c-12.154-1.716-23.599-3.313-35.039-4.953
				c-27.093-3.88-54.184-7.777-81.275-11.676c-27.091-3.898-54.179-7.822-81.27-11.708c-26.925-3.862-53.856-7.694-80.787-11.534
				c-19.117-2.725-38.245-5.376-57.329-8.317c-1.106-0.17-2.728-2.727-2.627-4.063c0.929-12.401,2.156-24.779,3.352-37.159
				c1.858-19.239,3.765-38.473,5.644-57.709c2.219-22.749,4.427-45.5,6.648-68.25c0.485-4.984,1.005-9.965,1.546-15.292
				c113.895,12.843,227.367,25.639,341.849,38.547C913.954,447,907.086,510.696,900.126,575.251z"/>
			<path fill-rule="evenodd" clip-rule="evenodd" fill="#D1D3D4" d="M1192.504,617.262
				c-88.077-12.639-175.765-25.223-263.847-37.864c6.504-64.462,12.959-128.448,19.491-193.174
				c88.794,10.009,177.199,19.974,266.202,30.006C1207.056,483.352,1199.804,550.085,1192.504,617.262z"/>
			<path fill-rule="evenodd" clip-rule="evenodd" fill="#D1D3D4" d="M1174.735,780.677c-68.855-11.443-137.193-22.8-205.867-34.212
				c4.194-31.857,8.328-63.248,12.567-95.466c67.989,10.399,135.606,20.741,203.984,31.197
				C1181.845,715.134,1178.305,747.782,1174.735,780.677z"/>
			<path fill-rule="evenodd" clip-rule="evenodd" fill="#D1D3D4" d="M954.675,646.89c-3.025,32.059-6.005,63.62-9.037,95.722
				c-64.674-10.746-128.79-21.398-193.458-32.143c2.915-31.243,5.779-61.979,8.695-93.234
				C825.481,627.121,889.756,636.955,954.675,646.89z"/>
			<path fill-rule="evenodd" clip-rule="evenodd" fill="#D1D3D4" d="M726.954,706.278c-60.381-10.033-120.088-19.954-180.227-29.946
				c2.931-30.215,5.827-60.072,8.782-90.521c59.836,9.153,119.167,18.233,179.351,27.44
				C732.233,644.154,729.622,674.873,726.954,706.278z"/>
			<path fill-rule="evenodd" clip-rule="evenodd" fill="#D1D3D4" d="M557.328,567.817c0.678-7.409,1.287-14.066,1.961-21.413
				c210.338,30.6,420.292,61.144,630.89,91.78c-0.824,7.594-1.609,14.845-2.431,22.402
				C977.557,629.655,767.771,598.787,557.328,567.817z"/>
			<path fill-rule="evenodd" clip-rule="evenodd" fill="#D1D3D4" d="M700.843,273.013c-1.369,13.33-2.682,26.129-4.066,39.636
				c-17.424-2.026-34.48-4.008-52.009-6.046c1.71-13.026,3.364-25.599,5.12-38.964C666.729,269.417,683.461,271.18,700.843,273.013z
				"/>
			<path fill-rule="evenodd" clip-rule="evenodd" fill="#D1D3D4" d="M1223.503,332.285c-0.838,7.46-1.586,14.102-2.445,21.727
				c-26.13-2.739-52.161-5.467-78.586-8.239c0.393-7.438,0.752-14.252,1.137-21.573
				C1170.324,326.904,1196.604,329.563,1223.503,332.285z"/>
			<path fill-rule="evenodd" clip-rule="evenodd" fill="#D1D3D4" d="M1057.82,336.841c0.567-7.214,1.079-13.704,1.66-21.092
				c25.307,2.54,50.249,5.045,75.686,7.6c-0.544,7.099-1.067,13.864-1.646,21.44C1108.225,342.133,1083.302,339.515,1057.82,336.841
				z"/>
			<path fill-rule="evenodd" clip-rule="evenodd" fill="#D1D3D4" d="M1050.136,314.771c-0.405,7.147-0.783,13.771-1.198,21.086
				c-25.299-2.66-49.947-5.249-74.968-7.88c0.483-7.033,0.937-13.667,1.422-20.749
				C1000.462,309.755,1025.114,312.245,1050.136,314.771z"/>
			<path fill-rule="evenodd" clip-rule="evenodd" fill="#D1D3D4" d="M895.359,299.126c24.28,2.46,47.938,4.854,72.189,7.311
				c-0.579,6.955-1.136,13.671-1.718,20.677c-24.407-2.582-48.188-5.097-72.418-7.658
				C894.077,312.52,894.691,306.093,895.359,299.126z"/>
			<path fill-rule="evenodd" clip-rule="evenodd" fill="#D1D3D4" d="M816.732,291.21c23.392,2.359,46.373,4.679,69.771,7.041
				c-0.376,6.811-0.732,13.252-1.124,20.346c-23.947-2.521-47.273-4.978-71.271-7.505
				C814.993,304.375,815.834,298.017,816.732,291.21z"/>
			<path fill-rule="evenodd" clip-rule="evenodd" fill="#D1D3D4" d="M806.867,310.325c-23.557-2.491-46.675-4.937-70.25-7.43
				c0.703-6.437,1.367-12.523,2.129-19.511c23.098,2.3,46.027,4.585,69.773,6.95C807.971,296.958,807.443,303.339,806.867,310.325z"
				/>
			<path fill-rule="evenodd" clip-rule="evenodd" fill="#D1D3D4" d="M699.815,722.448c-0.631,5.512-1.198,10.475-1.856,16.238
				c-27.584-4.897-54.856-9.739-82.589-14.664c0.6-5.344,1.167-10.41,1.798-16.034C644.981,712.854,672.294,717.633,699.815,722.448
				z"/>
			<path fill-rule="evenodd" clip-rule="evenodd" fill="#D1D3D4" d="M1138.882,836.216c0.621-6.741,1.2-13.046,1.862-20.231
				c9.662,1.578,19.115,3.119,29.422,4.801c-0.656,6.893-1.293,13.593-1.981,20.835
				C1158.112,839.764,1148.64,838.017,1138.882,836.216z"/>
			<path fill-rule="evenodd" clip-rule="evenodd" fill="#D1D3D4" d="M1101.829,829.476c0.896-6.696,1.714-12.796,2.633-19.642
				c9.923,1.638,19.58,3.23,29.759,4.912c-0.713,6.724-1.396,13.134-2.148,20.204
				C1121.878,833.104,1112.081,831.331,1101.829,829.476z"/>
			<path fill-rule="evenodd" clip-rule="evenodd" fill="#D1D3D4" d="M1094.447,828.082c-10.07-1.819-19.543-3.526-29.736-5.366
				c0.36-6.414,0.709-12.678,1.091-19.471c10.286,1.729,20.243,3.401,30.856,5.185
				C1095.929,814.917,1095.216,821.256,1094.447,828.082z"/>
			<path fill-rule="evenodd" clip-rule="evenodd" fill="#D1D3D4" d="M1059.113,802.121c-0.631,6.552-1.208,12.516-1.852,19.17
				c-9.564-1.743-18.833-3.432-28.501-5.195c0.83-6.314,1.605-12.208,2.456-18.677
				C1040.752,799.026,1049.743,800.541,1059.113,802.121z"/>
			<path fill-rule="evenodd" clip-rule="evenodd" fill="#D1D3D4" d="M658.93,751.278c0.465-3.847,0.878-7.259,1.371-11.334
				c13.777,2.232,27.091,4.388,40.754,6.599c-0.464,3.866-0.875,7.29-1.392,11.591C686.007,755.834,672.595,753.578,658.93,751.278z
				"/>
			<path fill-rule="evenodd" clip-rule="evenodd" fill="#D1D3D4" d="M655.311,739.093c-0.51,3.958-0.95,7.38-1.455,11.291
				c-13.774-2.347-27.069-4.612-40.647-6.928c0.464-3.82,0.863-7.108,1.334-11.005C628.133,734.667,641.567,736.855,655.311,739.093
				z"/>
			<path fill-rule="evenodd" clip-rule="evenodd" fill="#D1D3D4" d="M750.107,766.809c-13.953-2.384-27.416-4.686-41.286-7.057
				c0.255-3.474,0.481-6.575,0.785-10.736c14.236,2.587,28.034,5.097,41.985,7.63C751.065,760.236,750.638,763.176,750.107,766.809z
				"/>
		</g>
	</g>
	<g>
		<path fill-rule="evenodd" clip-rule="evenodd" fill="#4B5F71" d="M1057.786,1447.341c1.462-7.866,3.729-14.205,9.331-19.426
			c50.935-47.48,101.621-95.228,152.387-142.889c3.625-3.403,6.905-3.534,9.621-0.226c2.876,3.503,2.347,6.532-1.064,9.729
			c-51.713,48.484-103.267,97.138-155.148,145.442C1068.987,1443.628,1062.879,1444.94,1057.786,1447.341z"/>
	</g>
	<g>
		<g>
			<g>
				<path fill-rule="evenodd" clip-rule="evenodd" fill="#E0F2F0" d="M1008.014,360.764c1.024,0,2.049,0,3.073,0
					c0.142,2.035,0.19,4.082,0.434,6.107c2.562,21.129,5.175,42.251,7.731,63.38c2.554,21.131,5.045,42.271,7.594,63.401
					c2.585,21.469,5.149,42.939,7.834,64.396c1.22,9.75,2.71,19.465,4.079,29.196c0,2.049,0,4.099,0,6.148
					c-11.332,1.184-22.678,2.248-33.991,3.578c-24.021,2.827-48.024,5.8-72.034,8.705c-23.844,2.883-47.689,5.746-71.53,8.638
					c-24.011,2.913-48.014,5.864-72.024,8.767c-23.844,2.882-47.693,5.705-71.537,8.584c-27.225,3.288-54.45,6.557-81.663,9.938
					c-9.572,1.19-19.109,2.694-28.66,4.053c-1.024,0-2.05,0-3.074,0c-1.688-14.541-3.357-29.083-5.071-43.621
					c-3.15-26.723-6.298-53.446-9.503-80.162c-3.325-27.728-6.68-55.454-10.112-83.169c-0.809-6.531-1.981-13.021-2.983-19.527
					c0-2.049,0-4.099,0-6.148c13.867-1.524,27.746-2.958,41.603-4.595c24.012-2.838,48.008-5.809,72.014-8.711
					c23.837-2.882,47.677-5.736,71.514-8.622c24.173-2.923,48.341-5.879,72.514-8.807c23.835-2.887,47.676-5.744,71.511-8.636
					c24.004-2.911,48.008-5.806,72.004-8.792C987.842,363.608,997.923,362.136,1008.014,360.764z"/>
			</g>
			<g>
				<path fill-rule="evenodd" clip-rule="evenodd" fill="#F8AA7A" d="M875.113,606.364c3.377-2.638,7.24-1.975,11.046-1.585
					c5.152,0.526,10.293,1.15,15.449,1.626c1.267,0.116,2.84,0.419,3.617-1.025c0.81-1.506,0-2.837-0.766-4.194
					c-1.332-2.365-5.857-4.687-2.582-7.298c2.349-1.872,4.585,2.361,6.348,4.289c10.14,11.091,23.076,18.125,35.958,25.263
					c2.776,1.54,5.626,2.948,8.441,4.417c-3.364,4.915-8.065,8.845-10.578,14.385c-4.667-3.064-8.341-7.197-11.899-11.392
					c-5.371-6.334-12-9.27-20.324-8.613c-8.484,0.669-16.554-0.845-24.297-4.583c-4.174-2.015-7.716-4.54-10.414-8.271
					C875.113,608.377,875.113,607.371,875.113,606.364z"/>
				<path fill-rule="evenodd" clip-rule="evenodd" fill="#4B5F71" d="M1089.334,1009.456c5.405,2.313,7.507,7.466,5.727,15.146
					c-0.898,3.881-2.42,7.619-3.709,11.407c-0.481,1.41-0.923,3.087-3.001,2.563c-2.41-0.605-1.743-2.32-1.363-4
					c0.208-0.923,0.037-1.93,0.037-3.924c-4.166,3.881-8.149,6.743-12.253,9.456c-6.046,4.002-13.043,5.319-19.655,7.724
					c-5.364,0-10.727,0-16.089,0c-0.194-1.254-1.519-1.07-2.205-1.723c-2.704-2.562-2.348-4.988,1.315-5.678
					c14.15-2.664,23.743-11.209,31.063-23.035c1.353-2.185,2.971-4.484,5.933-4.94c-0.071,2.326-0.169,4.652-0.2,6.978
					c-0.012,1.015,0.088,1.882,1.543,2.005C1082.186,1021.916,1089.44,1015.217,1089.334,1009.456z"/>
				<path fill-rule="evenodd" clip-rule="evenodd" fill="#F8AA7A" d="M979.888,579.608c-5.78-18.36-9.55-37.154-12.237-56.191
					c-0.407-2.881,0.775-5.185,1.987-7.556c2.349,0,4.693,0,7.04,0c2.437,3.259,3.656,7.005,4.528,10.931
					c3.504,15.797,8.286,31.192,14.612,46.097C990.507,575.129,985.197,577.367,979.888,579.608z"/>
				<path fill-rule="evenodd" clip-rule="evenodd" fill="#549798" d="M979.888,579.608c5.309-2.241,10.619-4.479,15.93-6.719
					c3.985,0.889,4.345,4.689,6.035,7.451c13.797,22.562,31.548,40.584,57.169,49.485c1.246,0.434,2.603,0.55,3.908,0.814
					c1.694,6.886-0.457,12.45-5.825,16.905c-2.513,0.008-5.033,0.133-7.54-0.002c-3.5-0.186-3.967,1.678-3.234,4.446
					c1.937,7.306,9.431,13.973,16.925,14.636c12.208,1.083,23.274-1.612,32.229-10.589c1.17-1.175,2.236-2.564,4.163-2.492
					c6.75,5.278,11.029,12.604,15.036,19.813c13.395,24.084,24.238,49.237,28.605,76.715c3.511,22.104-1.818,42.813-10.172,63.067
					c-5.198,12.611-13.657,22.996-22.145,33.347c-7.005,8.543-14.383,16.784-21.715,25.049c-1.601,1.805-2.065,3.718-2.052,5.958
					c0.047,8.042,0.106,16.085,0.061,24.127c-0.01,1.577,0.739,3.378-0.842,4.703c-0.062-9.546-0.211-19.092-0.123-28.638
					c0.024-2.585-0.714-4.074-3.255-4.78c-10.414-2.901-19.7-8.37-29.16-13.321c-16.84-8.812-31.405-20.21-40.51-37.557
					c-1.243-2.371-1.712-6.085-5.558-6.504c16.891-17.314,35.942-33.002,46.632-55.289c6.858-14.297,9.433-29.989,7.725-45.959
					c-1.169-10.939-10.44-27.412-27.173-27.434c-21.359-0.029-40.52-7.748-58.663-18.303c-9.847-5.727-19.023-12.486-28.168-19.26
					c-2.521-1.866-5.249-3.69-6.125-7.044c2.512-5.534,7.213-9.464,10.578-14.378c3.441-1.51,5.782,0.878,8.15,2.533
					c13.642,9.537,28.706,15.521,45.031,18.54c3.642,0.673,7.273,0.886,10.95,0.837c0.237,0.11,0.475,0.221,0.712,0.332
					c-0.112-0.238-0.225-0.477-0.335-0.714c-10.103-10.987-17.759-23.678-25.282-36.448c-5.087-8.638-9.375-17.657-12.392-27.253
					C978.783,583.534,978.114,581.521,979.888,579.608z"/>
				<path fill-rule="evenodd" clip-rule="evenodd" fill="#F8AA7A" d="M1089.334,1009.456c0.106,5.761-7.148,12.46-12.858,11.979
					c-1.455-0.123-1.555-0.99-1.543-2.005c0.031-2.326,0.129-4.652,0.2-6.978c-0.579-9.75-4.502-18.526-8.623-27.06
					c-9.015-18.668-18.634-37.044-27.908-55.593c-3.96-7.924-7.668-15.977-11.502-23.968c-0.706-1.471-0.951-3.22-2.782-4.46
					c-4.121,9.789-6.739,19.933-9.843,29.895c-8.949,28.722-17.58,57.547-28.632,85.564c-0.303,0.77-0.385,1.626-0.567,2.445
					c-3.146,0.888-5.697,3.384-9.184,3.384c-3.085,0-6.958,1.407-8.938-1.086c-1.7-2.14,2.324-4.233,2.578-6.84
					c3.3-4.81,4.378-10.469,5.684-15.941c6.559-27.503,11.377-55.264,12.624-83.6c0.579-13.186,2.883-26.23,4.777-39.29
					c0.164-1.127,0.763-2.193,1.16-3.286c2.769,2.774,5.849,5.383,9.913,5.24c5.278-0.187,8.323,2.577,10.977,6.545
					c3.415,5.108,8.431,8.1,14.446,7.399c7.167-0.834,11.966,1.58,16.33,7.153c5.267,6.725,12.128,11.032,21.352,9.16
					c1.88,20.142,7.25,39.599,11.637,59.248C1081.783,981.496,1085.193,995.568,1089.334,1009.456z"/>
				<path fill-rule="evenodd" clip-rule="evenodd" fill="#2D7E7E" d="M1066.991,908.112c-9.223,1.872-16.085-2.435-21.352-9.16
					c-4.364-5.573-9.163-7.987-16.33-7.153c-6.015,0.701-11.031-2.291-14.446-7.399c-2.654-3.968-5.699-6.731-10.977-6.545
					c-4.063,0.143-7.144-2.465-9.913-5.24c-3.47-6.24-7.637-11.709-14.794-14.144c-1.373-0.466-2.621-1.473-3.758-2.43
					c-7.558-6.367-7.74-9.583-1.385-16.908c9.295-10.712,21.22-17.603,33.783-23.61c3.846,0.419,4.314,4.133,5.558,6.504
					c9.105,17.347,23.67,28.745,40.51,37.557c9.46,4.951,18.746,10.42,29.16,13.321c2.541,0.706,3.28,2.195,3.255,4.78
					c-0.088,9.546,0.061,19.092,0.123,28.638c-2.011,1.363-4.279,0.979-6.288,0.406
					C1075.502,905.409,1071.231,906.315,1066.991,908.112z"/>
				<path fill-rule="evenodd" clip-rule="evenodd" fill="#4B5F71" d="M969.73,1014.732c-0.253,2.607-4.278,4.7-2.578,6.84
					c1.98,2.494,5.853,1.086,8.938,1.086c3.487,0,6.038-2.496,9.184-3.384c2.498,3.611,1.144,7.169-0.591,10.401
					c-2.545,4.75-6.792,8.215-10.217,12.306c-0.87,1.038-2.12,1.211-3.154,0.452c-1.074-0.786-0.846-2.07-0.555-3.239
					c0.379-1.533,1.965-3.32,0.194-4.554c-1.645-1.147-3.56,0.059-5.133,0.943c-8.018,4.499-16.506,6.25-25.584,4.423
					c-7.202-1.449-12.216-5.946-15.809-12.087c-1.151-1.968-2.189-4.427,0.117-6.404c2.208-1.89,3.644,0.424,5.242,1.342
					c6.51,3.74,13.143,4.712,19.951,0.916c3.35-1.868,6.842-3.625,9.796-6.014C962.647,1015.242,965.91,1014.332,969.73,1014.732z"
					/>
				<path fill-rule="evenodd" clip-rule="evenodd" fill="#4B5F71" d="M1079.215,575.164c7.433-5.485,14.884-5.596,23.521-2.02
					c19.066,7.892,29.048,21.892,30.386,42.123c0.749,11.278-3.682,28.152-15.526,33.056c-5.602,2.318-11.394,2.247-17.249,1.946
					c-2.629-1.848-5.642-2.791-8.675-3.693c-12.638-9.004-17.574-25.891-11.471-39.232c3.486,0.021,6.649-0.853,8.836-3.75
					c1.477-1.954,2.267-4.104,0.389-6.367c-1.747-2.108-3.718-2.681-6.086-1.04c-1.377-3.036-2.656-6.123-4.16-9.096
					C1077.143,583.067,1076.86,579.134,1079.215,575.164z"/>
				<path fill-rule="evenodd" clip-rule="evenodd" fill="#F8AA7A" d="M1080.201,607.344c-6.103,13.341-1.167,30.228,11.471,39.232
					c-9.634,10.254-24.5,10.669-34.567,0.967c5.368-4.455,7.519-10.019,5.825-16.905c-0.215-8.484-3.452-15.829-8.149-22.763
					c-6.226-9.19-6.048-12.906,0.307-20.625c1.053,0.34,2.85,1.481,3.081,0.636c1.08-3.94,6.084-4.425,6.952-8.36
					c4.489-2.127,9.1-3.862,14.094-4.364c-2.355,3.97-2.072,7.903-0.035,11.928c1.504,2.973,2.783,6.06,4.16,9.096
					c-0.426,2.245,0.955,5.272-2.728,6.101c-1.457,0.328-3.815-0.9-4.104,1.569C1076.234,606.188,1078.755,606.38,1080.201,607.344z
					"/>
				<path fill-rule="evenodd" clip-rule="evenodd" fill="#2D7E7E" d="M1057.105,647.544c10.067,9.702,24.933,9.287,34.567-0.967
					c3.033,0.902,6.046,1.846,8.675,3.693c-0.186,1.101-1.248,2.017-0.698,3.275c-1.927-0.074-2.993,1.315-4.163,2.49
					c-8.956,8.977-20.021,11.672-32.229,10.589c-7.494-0.663-14.988-7.331-16.925-14.636c-0.733-2.768-0.266-4.632,3.234-4.446
					C1052.072,647.677,1054.592,647.552,1057.105,647.544z"/>
				<path fill-rule="evenodd" clip-rule="evenodd" fill="#EC8170" d="M1065.121,579.528c-0.868,3.935-5.872,4.419-6.952,8.36
					c-0.231,0.845-2.028-0.296-3.081-0.636c-0.745-0.884-1.502-1.759-2.23-2.657c-0.958-1.179-2.064-2.449-0.945-3.99
					c1.165-1.6,2.29-0.035,3.48,0.25C1058.768,581.656,1061.755,579.136,1065.121,579.528z"/>
				<path fill-rule="evenodd" clip-rule="evenodd" fill="#EC8170" d="M1080.201,607.344c-1.446-0.964-3.967-1.156-3.693-3.486
					c0.289-2.47,2.647-1.242,4.104-1.569c3.683-0.828,2.302-3.856,2.728-6.101c2.369-1.641,4.339-1.068,6.086,1.04
					c1.878,2.262,1.088,4.413-0.389,6.367C1086.851,606.491,1083.688,607.365,1080.201,607.344z"/>
			</g>
			<g>
				<path fill-rule="evenodd" clip-rule="evenodd" fill="#549798" d="M500.68,643.081c-0.718,5.693,1.453,10.959,2.462,16.387
					c5.752,30.952,20.289,57.95,37.944,83.484c2.145,3.103,3.458,5.722,0.824,8.998c-3.332-0.177-6.046,1.502-8.832,2.954
					c-16.484,8.586-33.567,15.601-51.725,19.816c-7.32,1.699-7.742,1.512-10.426-5.338c-0.239-0.615-0.343-1.283-0.591-1.894
					c-1.856-4.582-3.732-9.153-5.602-13.73c-1.399,11.875-0.14,23.308,2.296,34.594c1.881,8.714,2.063,8.489-7.044,9.866
					c-2.274,0.343-6.148-0.631-6.223,3.819c-1.687-2.843-4.158-1.201-6.233-0.91c-2.991,0.417-4.317-0.374-5.194-3.523
					c-8.261-29.676-11.5-59.781-10.01-90.616c1.101-22.747,2.524-45.396,6.433-67.842c2.441-14.024,8.192-26.901,13.971-39.759
					c-1.055,8.647,4.579,14.219,9.507,19.924C472.524,631.223,486.461,637.422,500.68,643.081z"/>
				<path fill-rule="evenodd" clip-rule="evenodd" fill="#2E7F7F" d="M453.764,802.037c0.075-4.451,3.949-3.476,6.223-3.819
					c9.107-1.377,8.925-1.151,7.044-9.866c-2.437-11.286-3.696-22.719-2.296-34.594c1.87,4.577,3.746,9.148,5.602,13.73
					c0.248,0.61,0.352,1.279,0.591,1.894c2.685,6.85,3.106,7.037,10.426,5.338c18.158-4.215,35.241-11.23,51.725-19.816
					c2.785-1.452,5.5-3.131,8.832-2.954c12.352,16.946,20.219,35.988,26.712,55.781c4.621,14.087,4.493,28.273,3.488,42.802
					c-1.882,27.213-7.943,53.797-11.309,80.774c-0.223,1.793-0.359,3.282-2.393,3.753c-4.44,1.181-8.628,0.033-12.791-1.377
					c-2.039-1.715-2.668-3.904-2.797-6.552c-1.041-21.735-2.068-43.472-3.376-65.192c-1.072-17.802-6.229-34.59-14.229-50.418
					c-4.003-7.923-10.379-14.18-17.004-20.042c-1.294-1.145-2.782-2.939-4.744-1.927c-1.772,0.913-1.779,3.045-1.866,4.885
					c-0.575,11.939-0.666,23.91-2.745,35.738c-0.667,3.793-1.536,7.566-3.182,10.967c-8.917,18.408-14.329,38.215-22.865,56.762
					c-3.672,7.986-7.518,15.891-11.144,23.896c-0.719,1.587-1.625,2.392-3.257,2.489c-5.147-0.19-9.631-2.01-13.359-5.623
					c-1.443-5.969,1.263-11.384,2.543-16.904c3.508-15.163,7.949-30.089,11.453-45.273
					C463.406,837.594,463.61,819.409,453.764,802.037z"/>
				<path fill-rule="evenodd" clip-rule="evenodd" fill="#2E7F7F" d="M500.68,643.081c-14.218-5.659-28.155-11.858-38.442-23.77
					c-4.928-5.705-10.562-11.277-9.507-19.924c1.054-4.727,3.416-8.684,7.025-11.902c5.19-0.38,10.018-2.734,15.616-1.229
					c7.365,1.979,13.888,5.269,20.158,9.395c1.153,0.761,3.731,3.301,3.87-0.163c0.195-4.881,2.434-9.328,2.223-14.183
					c0.729-1.979,1.458-3.958,2.187-5.938c0.488-0.094,1.035-0.122,0.912-0.862l-0.037,0.062
					c8.097-2.301,14.331-8.036,21.652-11.776c2.028-1.038,3.846-1.978,5.786-0.012c4.282,5.453,8.805,10.68,14.136,15.152
					c4.212,5.547,4.284,5.637-1.409,10.339c-8.69,7.179-17.33,14.434-27.265,20.625c5.393,2.896,10.399,5.472,15.957,6.604
					c2.888,0.589,3.883,1.913,2.902,4.686c-3.826,8.277-6.112,17.053-8.388,25.832c-0.901,3.734-2.818,4.845-6.792,3.726
					C514.307,647.783,507.438,645.619,500.68,643.081z"/>
				<path fill-rule="evenodd" clip-rule="evenodd" fill="#F9AA7B" d="M528.057,646.016c2.276-8.779,4.563-17.555,8.388-25.832
					c32.38,10.358,65.595,14.875,99.553,14.295c7.719-0.132,15.151-1.707,22.461-3.992c4.703-1.472,9.495-1.437,14.319-1.119
					c1.144,0.077,2.504,0.156,2.478,1.776c-0.028,1.539-1.38,1.646-2.499,1.899c-1.711,0.385-3.64-0.392-5.557,1.194
					c1.699,2.265,3.786,2.032,6.081,1.527c5.271-1.158,9.794-4.051,14.682-6.095c1.439-0.601,3.139-2.036,4.529-0.316
					c1.211,1.5-0.501,2.726-1.164,3.95c-3.323,6.162-8.627,10.901-15.458,9.915c-21.392-3.084-41.418,3.013-61.854,7.229
					c-16.704,3.446-33.758,2.179-50.673,1.432C551.38,651.353,539.688,648.751,528.057,646.016z"/>
				<path fill-rule="evenodd" clip-rule="evenodd" fill="#F9AA7B" d="M503.81,575.367c-0.729,1.979-1.458,3.958-2.187,5.938
					c-11.951,1.996-22.903-0.672-33.059-7.063c3.049-4.704,6.561-9.047,10.228-13.283c3.017-3.486,5.22-7.288,3.335-12.162
					c2.893-1.775,5.179-4.095,6.555-7.237c2.116-0.083,4.248-0.023,6.337-0.304c1.07-0.145,2.27-0.723,2.485-2.055
					c0.211-1.306-0.633-2.516-1.639-2.742c-4.668-1.042-4.227-4.666-4.366-8.048c1.668-5.214,4.366-9.772,8.316-13.619
					c2.228-2.168,3.961-4.752,5.304-7.579c2.719,1.566,4.815,3.787,6.655,6.283c-0.449,2.573,3.096,11.077,5.07,11.934
					c0.552,0.24,1.291,0.039,1.947,0.039c4.599,8.716,1.017,15.756-4.349,22.647c-6.022,7.734-9.241,16.625-9.756,26.45l0.037-0.062
					C504.419,574.792,504.114,575.081,503.81,575.367z"/>
				<path fill-rule="evenodd" clip-rule="evenodd" fill="#F9AA7B" d="M546.259,577.931c-5.331-4.473-9.854-9.699-14.136-15.152
					c18.613-16.155,33.389-35.54,46.876-55.973c5.123-7.76,9.815-15.807,14.771-23.679c1.051-1.675,2.257-3.306,3.646-4.703
					c1.346-1.354,2.885-3.236,5.108-1.953c2.196,1.269,3.185,3.6,2.567,6.01c-0.776,3.033-1.96,5.989-3.214,8.871
					c-12.516,28.742-31.372,53.501-49.54,78.688C550.397,572.731,548.29,575.304,546.259,577.931z"/>
				<path fill-rule="evenodd" clip-rule="evenodd" fill="#4C5F72" d="M505.118,507.214c-1.343,2.827-3.076,5.411-5.304,7.579
					c-3.95,3.847-6.647,8.404-8.316,13.617c-4.06-0.351-6.788,1.171-7.259,5.471c-0.393,3.57,1.725,5.831,4.442,7.679
					c-1.376,3.142-3.663,5.462-6.555,7.237c-13.73,3.918-21.901-9.905-22.259-20.751c-0.458-13.973,7.357-25.087,21.407-30.027
					c4.406-1.55,8.579-2.868,11.427-7.201c1.895-2.883,5.112-2.806,7.635,0.023C504.519,495.534,506.979,500.748,505.118,507.214z"
					/>
				<path fill-rule="evenodd" clip-rule="evenodd" fill="#549798" d="M453.452,933.453c1.644,0.796,2.58,2.057,2.521,3.935
					c-0.375,11.804,7.563,18.198,16.005,24.04c4.072,2.819,8.876,4.528,12.815,7.635c1.314,1.038,2.9,2.296,2.488,4.032
					c-0.474,1.984-2.505,2.372-4.394,2.613c-14.428,1.854-31.14-6.573-38.193-19.346c-0.964-1.745-1.269-3.208-3.666-0.913
					c-1.726,1.649-6.642-2.271-6.821-6.045c-0.339-7.238,0.861-14.198,6.634-19.472c0.394,4.699,4.045,6.143,7.67,7.355
					C451.766,938.372,451.949,934.937,453.452,933.453z"/>
				<path fill-rule="evenodd" clip-rule="evenodd" fill="#549798" d="M558.317,941.584c1.568,0.697,2.955,1.71,3.618,3.283
					c5.529,13.127,16.461,18.43,29.593,20.67c3.172,0.54,7.708,0.42,7.639,4.7c-0.076,4.639-4.766,5.091-8.33,5.347
					c-9.514,0.692-18.935,0.206-27.815-3.916c-2.583-1.199-4.952-2.656-7.133-4.499c-1.607-1.36-2.543-6.508-5.75-1.004
					c-0.952,1.635-7.933-1.454-8.103-3.979c-0.491-7.35-1.381-14.913,3.601-21.398c0.459,5.297,4.024,5.822,8.407,6.088
					C558.567,947.149,557.051,943.436,558.317,941.584z"/>
				<path fill-rule="evenodd" clip-rule="evenodd" fill="#549798" d="M468.563,574.242c10.156,6.392,21.108,9.06,33.059,7.063
					c0.211,4.854-2.028,9.302-2.223,14.183c-0.139,3.463-2.717,0.924-3.87,0.163c-6.27-4.126-12.793-7.416-20.158-9.395
					c-5.598-1.505-10.426,0.849-15.616,1.229C461.635,582.369,465.417,578.515,468.563,574.242z"/>
				<path fill-rule="evenodd" clip-rule="evenodd" fill="#F9AA7B" d="M453.452,933.453c-1.503,1.484-1.686,4.919-4.939,3.833
					c-3.625-1.212-7.276-2.656-7.67-7.355c1.403-3.755,2.805-7.512,4.208-11.268c3.728,3.613,8.211,5.433,13.359,5.624
					C455.437,926.638,454.72,930.194,453.452,933.453z"/>
				<path fill-rule="evenodd" clip-rule="evenodd" fill="#F9AA7B" d="M558.317,941.584c-1.267,1.852,0.25,5.565-4.273,5.292
					c-4.383-0.266-7.948-0.791-8.407-6.088c-0.006-2.369-0.014-4.739-0.02-7.106c4.162,1.41,8.351,2.559,12.791,1.377
					C558.379,937.233,558.349,939.41,558.317,941.584z"/>
				<path fill-rule="evenodd" clip-rule="evenodd" fill="#F08270" d="M518.79,525.469c-0.656,0-1.395,0.202-1.947-0.039
					c-1.974-0.857-5.52-9.361-5.07-11.934c4.355,0.711,7.035,5.238,12.018,4.974c1.628-0.088,0.898,2.018-0.17,2.961
					C522.045,522.818,519.681,523.26,518.79,525.469z"/>
				<path fill-rule="evenodd" clip-rule="evenodd" fill="#F08270" d="M488.681,541.56c-2.717-1.848-4.834-4.109-4.442-7.679
					c0.471-4.3,3.199-5.822,7.259-5.471c0.14,3.384-0.302,7.007,4.366,8.05c1.005,0.226,1.85,1.436,1.639,2.742
					c-0.215,1.332-1.415,1.911-2.485,2.055C492.929,541.537,490.797,541.477,488.681,541.56z"/>
			</g>
			<g>
				<path fill-rule="evenodd" clip-rule="evenodd" fill="#E0F2F0" d="M597.735,559.642c-1.398,0-2.793,0-4.19,0
					c-0.003-1.422,0.13-2.86-0.032-4.262c-2.438-20.948-4.821-41.905-7.409-62.833c-1.537-12.423-3.406-24.802-5.125-37.2
					c0-1.43,0-2.857,0-4.287c92.457-1.011,184.92-2,277.377-3.081c9.941-0.113,19.875-0.788,29.812-1.203
					c21.875,0,43.751,0,65.628,0c1.113,1.416,2.062,3.02,3.369,4.218c11.079,10.155,22.229,20.227,33.343,30.345
					c8.948,8.15,17.875,16.327,27.582,25.198c-4.693,0.674-8.122,1.224-11.565,1.651c-20.965,2.601-41.933,5.159-62.898,7.764
					c-32.709,4.061-65.416,8.173-98.127,12.216c-32.485,4.017-64.978,7.956-97.463,11.97c-37.09,4.581-74.182,9.139-111.257,13.853
					C623.737,555.648,610.749,557.744,597.735,559.642z"/>
			</g>
			<g>
				<path fill-rule="evenodd" clip-rule="evenodd" fill="#E0F2F0" d="M930.661,604.533c0.068,0.437,0.137,0.874,0.205,1.312
					c1.359-0.212,2.728-0.469,4.076-0.627c20.146-2.368,40.298-4.754,60.433-7.071c11.953-1.375,23.879-2.64,35.816-3.955
					c1.367-0.214,2.73-0.427,4.098-0.641c-3.558-29.095-7.137-58.189-10.627-87.293c-0.377-3.129-0.219-6.34-0.308-9.513
					c-1.07-6.848-2.141-13.696-3.211-20.545c-1.408-0.138-2.988-0.194-4.197-0.425c-10.251-1.95-20.426-3.936-30.643-5.903
					c-8.229-1.583-16.484-3.156-25.439-4.869c-0.415,1.57-0.772,2.725-1.013,3.867c-1.46,6.952-2.88,13.898-4.344,20.851
					c-2.282,10.847-4.613,21.7-6.877,32.545c-2.251,10.77-4.426,21.53-6.675,32.3c-2.564,12.295-5.106,24.587-7.799,36.899
					C933.207,595.795,931.839,600.175,930.661,604.533z"/>
			</g>
		</g>
		<g>
			<path fill-rule="evenodd" clip-rule="evenodd" fill="#549798" d="M979.918,572.491c-2.544,1.271-5.001,3.918-7.7,0.002
				c-0.399-0.577-2.277-0.292-3.44-0.158c-26.601,3.078-53.197,6.18-79.792,9.303c-15.5,1.82-30.993,3.688-46.491,5.532
				c-2.742,0.327-4.236-0.577-4.581-3.634c-1.603-14.248-3.4-28.475-5.099-42.71c-2.01-16.862-3.908-33.735-6.043-50.58
				c-0.508-3.996,0.655-8.596-3.804-11.661c-0.508-0.347,1.861-4.876,3.21-8.253c3.655,3.308,9.858,3.854,4.831,9.934
				c-0.531,0.645-0.275,2.069-0.154,3.104c2.154,18.501,4.337,37,6.542,55.495c0.102,0.857,0.43,1.686,0.967,3.73
				c3.117-7.097,5.796-13.199,8.815-20.074c3.184,2.625,5.831,4.802,9.214,7.591c3.364-13.118,6.624-25.824,9.884-38.53
				c0.529-0.28,1.061-0.562,1.592-0.841c6.542,9.923,13.084,19.846,19.945,30.251c2.459-4.047,5.069-7.613,6.893-11.541
				c2.134-4.601,4.884-5.432,9.103-2.959c1.009,0.593,2.293,0.718,3.898,1.189c2.689-7.598,5.301-14.973,8.275-23.378
				c5.286,5.538,9.852,10.32,14.613,15.307c2.114-5.475,4.119-10.667,6.151-15.927c4.829,1.002,6.46,8.405,12.283,4.828
				c3.794-2.329,7.546-4.722,11.318-7.086c0.471,0.698,0.941,1.395,1.413,2.093c-5.08,3.343-9.906,7.264-15.398,9.669
				c-1.607,0.705-5.101-2.896-7.732-4.524c-7.121,11.978-6.513,14.981,5.165,24.424c4.479-5.408,8.997-10.802,13.45-16.251
				c4.527-5.542,10.008-4.984,14.773,2.739c-2.511-0.355-4.303-0.199-5.667-0.889c-2.722-1.377-4.472-0.904-6.333,1.508
				c-4.325,5.614-9.041,10.93-13.311,16.582c-2.265,2.996-3.935,2.878-6.223,0.194c-2.844-3.343-5.899-6.503-9.475-10.407
				c-4,9.628-7.735,18.623-11.723,28.224c-4.083-2.306-7.726-4.037-10.989-6.314c-2.663-1.859-4.16-1.246-6.259,0.896
				c-7.099,7.24-7.191,7.151-13.474-1.547c-6.622,10.639-13.37,20.968-19.537,31.631c-2.683,4.637-5.023,6.505-10.266,3.551
				c-5.714-3.221-10.071,1.297-14.475,3.932c-3.906,2.338-3.362,6.204-2.407,9.991c0.386,1.521,0.531,3.102,0.878,5.234
				c7.776-0.854,15.462-1.655,23.137-2.553c23.057-2.705,46.109-5.429,69.16-8.182c11.264-1.344,22.532-2.646,33.756-4.269
				c1.919-0.277,3.625-2.061,6.273-3.659c1.05,0.796,2.943,2.23,4.836,3.664C979.918,568.939,979.918,570.715,979.918,572.491z
				 M840.717,564.277c1.481-1.047,2.446-1.737,3.417-2.418c5.123-3.59,10.126-7.375,16.771-2.803
				c0.657,0.456,3.488-0.975,4.288-2.201c5.704-8.732,10.683-17.979,16.838-26.367c3.725-5.076,3.525-8.64-0.08-13.368
				c-4.731-6.206-8.839-12.884-13.878-20.344c-1.698,6.416-2.681,11.626-4.474,16.539c-2.501,6.845-1.119,15.226-8.024,20.51
				c-2.303-2.043-4.628-4.105-7.01-6.218C839.175,543.913,838.093,548.84,840.717,564.277z M917.88,530.866
				c1.941-4.774,3.581-9.017,5.381-13.192c5.932-13.769,5.958-13.76-4.577-24.317c-0.221-0.224-0.618-0.269-1.349-0.568
				c-1.698,5.32-3.525,10.567-5.025,15.903c-1.033,3.672-2.585,5.023-6.405,3.143c-1.766-0.87-5.216-1.651-5.898-0.822
				c-3.312,4.019-6.561,8.346-8.511,13.107c-0.772,1.882,1.879,5.168,3.134,8.206c2.516-2.406,4.659-4.048,6.279-6.103
				c2.481-3.143,4.754-3.537,7.978-0.937C911.469,527.367,914.544,528.835,917.88,530.866z"/>
			<path fill-rule="evenodd" clip-rule="evenodd" fill="#D1D3D4" d="M921.281,391.252c0.375,2.963,0.751,5.926,1.224,9.669
				c-87.476,10.574-174.625,21.109-262.186,31.694c-0.521-2.939-1.004-5.679-1.651-9.32c8.869-1.113,17.378-2.201,25.894-3.243
				c22.162-2.705,44.322-5.394,66.486-8.08c21.812-2.642,43.628-5.269,65.439-7.904c22.338-2.701,44.678-5.412,67.019-8.104
				c10.203-1.23,20.411-2.405,30.612-3.666c1.345-0.167,2.644-0.69,3.967-1.047C919.149,391.252,920.214,391.252,921.281,391.252z"
				/>
			<path fill-rule="evenodd" clip-rule="evenodd" fill="#549798" d="M734.847,534.779c4.134,7.042,7.514,12.795,10.925,18.606
				c2.647-2.683,5.117-5.188,7.588-7.694c3.18-16.07,2.373-33.229,5.722-51.471c13.118,15.174,14.884,32.872,19.753,49.708
				c1.807-9.269,6.335-15.014,16.778-14.288c-1.093,1.011-2.022,2.405-3.311,2.968c-5.223,2.281-7.574,6.359-8.791,11.741
				c-0.972,4.301-2.874,8.392-5.304,12.482c-7.378-16.089-6.216-34.514-16.454-50.651c-1.289,16.335-2.477,31.404-3.708,47.055
				c-1.965-0.212-3.592-0.388-5.568-0.599c-1.707,2.59-3.595,5.455-6.314,9.581c-4.255-7.059-7.921-13.138-11.008-18.257
				c-4.613,3.151-8.99,6.438-13.66,9.236c-3.379,2.026-5.737,0.846-7.281-3.045c-1.81-4.558-4.321-8.833-7.853-13.251
				c-1.902,16.37-3.804,32.737-5.705,49.107c-0.878,0.119-1.754,0.238-2.633,0.359c-3.7-8.354-7.401-16.708-11.127-25.121
				c-0.516,0.284-0.916,0.362-1.008,0.575c-3.633,8.24-3.607,8.221-9.481,1.44c-2.529-2.92-5.18-5.735-7.707-8.525
				c-10.045,15.312-8.901,31.59-4.998,48.495c13.003-1.488,25.968-2.933,38.921-4.465c16.525-1.957,33.041-4.02,49.568-5.97
				c12.659-1.494,25.348-2.756,37.976-4.466c1.828-0.248,3.394-2.414,5.665-4.134c1.755,1.325,3.931,2.969,6.403,4.839
				c-2.063,2.575-3.787,4.727-5.512,6.88c-0.128-0.507-0.258-1.015-0.384-1.522c-3.138-0.319-6.34-1.208-9.405-0.868
				c-25.204,2.813-50.386,5.847-75.571,8.826c-13.914,1.646-27.822,3.353-41.742,4.947c-3.293,0.376-6.625,0.408-10.366,0.623
				c-1.9-16.029-3.752-31.459-5.555-46.897c-2.195-18.821-4.269-37.657-6.648-56.455c-0.221-1.749-2.256-3.267-4.214-5.935
				c1.324-1.605,2.843-4.138,5.054-5.695c0.623-0.438,3.349,1.884,4.937,3.16c0.588,0.471,1.171,2.037,0.911,2.314
				c-4.509,4.806-1.451,10.235-0.994,15.196c1.483,16.018,3.573,31.982,5.464,47.963c0.1,0.855,0.534,1.672,1.076,3.299
				c2.532-6.218,4.807-11.806,7.577-18.612c5.273,5.817,9.605,10.596,14.07,15.523c0.924-1.98,1.57-3.831,2.601-5.438
				c0.887-1.379,2.21-2.479,3.34-3.703c0.931,1.18,2.13,2.237,2.74,3.562c2.071,4.496,3.904,9.105,5.901,13.637
				c0.46,1.04,1.224,1.947,2.254,3.548c2.18-16.404,4.253-32.015,6.327-47.623c0.837-0.094,1.675-0.189,2.512-0.284
				c3.006,5.855,5.926,11.76,9.067,17.542c1.173,2.158,3.468,5.933,4.218,5.696c2.961-0.933,5.822-2.837,8.128-5.011
				C730.38,541.485,732.048,538.525,734.847,534.779z"/>
			<path fill-rule="evenodd" clip-rule="evenodd" fill="#D1D3D4" d="M663.516,453.937c-0.521-2.95-1.005-5.688-1.664-9.424
				c87.527-10.583,174.67-21.12,262.398-31.726c0.493,2.885,0.985,5.761,1.614,9.44
				C838.223,432.819,751.071,443.354,663.516,453.937z"/>
		</g>
	</g>
	<g>
		<path fill-rule="evenodd" clip-rule="evenodd" fill="#2E7F7F" d="M1229.916,212.736c-2.167,0.571-1.289,2.442-1.49,3.747
			c-2.088,13.585-5.526,26.797-10.131,39.76c-1.531,4.311-3.451,6.14-7.913,4.413c-1.267-0.492-2.61-0.547-3.931-0.092
			c-1.871-1.55-4.182-2.016-6.433-2.616c-26.336-7.021-48.861-20.915-69.245-38.582c-2.279-1.976-3.855-2.696-6.953-1.428
			c-11.17,4.58-22.808,7.041-35.009,6.904c-13.675-0.153-27.087-3.392-40.779-3.175c-0.701,0.01-1.414-0.735-2.12-1.129
			c-0.174-1.294-0.554-2.6-0.48-3.88c0.196-3.401-0.939-4.621-4.343-3.26c-4.699,1.88-9.707,3.04-13.878,6.112
			c-11.063,2.271-22.113,4.627-33.206,6.754c-3.011,0.58-6.232,1.529-9.148-0.596c-1.966-3.077-2.054-6.535-2.021-10.016
			c0.737-1.683,2.054-2.404,3.851-2.755c25.795-5.061,48.98-16.344,70.583-30.817c25.016-16.755,47.927-36.131,68.465-58.22
			c0.629,0.531,1.267,1.05,1.889,1.587c1.923,1.659,1.734,5.793,5.896,4.855c2.786-0.626,5.597-1.302,7.727-3.204
			c2.083-1.86,3.925-4.043,5.609-6.283c4.979-6.619,6.833-14.673,9.928-22.154c18.548,1.488,32.462,11.303,44.202,24.833
			c12.454,14.353,19.322,31.441,23.848,49.648c1.938,7.796,3.379,15.656,3.856,23.683c0.064,1.054-0.44,2.453,1.226,2.861
			C1229.916,204.036,1229.916,208.386,1229.916,212.736z M1061.034,208.096c10.151,0,20.304,0.207,30.448-0.047
			c17.758-0.443,30.108-10.449,40.587-23.565c0.868-1.086,1.434-2.274,1.438-3.659c0.018-7.6,0.008-15.203,0.008-22.806
			c-0.351-0.23-0.703-0.461-1.054-0.692C1113.14,180.739,1088.023,195.737,1061.034,208.096z"/>
		<path fill-rule="evenodd" clip-rule="evenodd" fill="#559899" d="M1045.913,220.538c0.706,0.394,1.419,1.139,2.12,1.129
			c13.691-0.217,27.104,3.022,40.779,3.175c12.201,0.137,23.839-2.324,35.009-6.904c3.098-1.268,4.674-0.548,6.953,1.428
			c20.384,17.667,42.909,31.561,69.245,38.582c2.25,0.6,4.562,1.065,6.433,2.616c-4.979,5.428-11.617,8.35-17.982,11.545
			c-31.448,15.785-55.332,39.8-75.119,68.365c-17.516,25.289-29.952,53.132-41.08,81.628c-2.793,7.151-5.399,14.374-8.039,21.584
			c-0.717,1.955-1.576,3.694-3.739,4.366c-3.531-0.613-6.827-1.834-9.853-3.764c-1.956-2.364-0.565-4.822-0.049-7.155
			c4.677-21.18,9.595-42.307,14.121-63.517c2.888-13.539,5.189-27.202,7.828-40.796c4.177-21.543,15.106-39.391,30.247-54.904
			c3.032-3.107,6.36-5.959,9.132-9.279c3.02-3.619,1.764-7.092-2.681-7.612c-14.813-1.736-29.565-2.816-44.051,2.55
			c-7.939,2.94-13.283,7.798-15.853,16.003c-3.625,11.572-3.694,23.367-2.787,35.225c1.491,19.471,3.865,38.848,6.647,58.175
			c0.365,2.541,0.843,5.048-2.112,6.474c-3.598,1.421-7.394,1.192-11.147,1.336c-1.583-0.65-2.165-2.08-2.522-3.539
			c-8.856-36.001-19.001-71.778-19.487-109.269c-0.102-7.868,0.008-15.72,2.752-23.252
			C1026.457,233.92,1035.06,226.056,1045.913,220.538z"/>
		<path fill-rule="evenodd" clip-rule="evenodd" fill="#4C5F71" d="M1082.575,89.74c-5.191-1.205-7.306-4.638-7.51-9.794
			c-0.364-9.191,0.621-17.778,8.954-23.632c1.776-1.248,1.609-2.347,0.292-4.081c-5.04-6.632-3.385-12.938,4.264-16.556
			c5.863-2.773,12.081-4.009,18.517-2.831c6.763,1.236,9.588,5.132,8.679,11.958c-0.412,3.108,1.544,3.186,3.51,3.633
			c7.194,1.638,13.956,4.205,20.561,7.653c13.169,6.874,24.525,26.824,15.303,42.015c-2.522,3.757-5.957,6.365-10.363,7.268
			c-9.937,2.034-19.181,0.594-27.166-6.167c1.34-9.363-1.821-12.883-9.128-10.162c-4.024-2.871-8.421-2.346-12.799-1.25
			C1091.373,88.876,1087.05,89.787,1082.575,89.74z"/>
		<path fill-rule="evenodd" clip-rule="evenodd" fill="#F5A97A" d="M1082.575,89.74c4.475,0.046,8.797-0.864,13.114-1.944
			c4.378-1.096,8.774-1.622,12.799,1.248c-0.175,2.018,0.086,3.831,1.471,5.527c0.994,1.217,1.989,2.725,1.029,4.517
			c-0.648,1.207-2.465,2.485-0.707,3.771c1.834,1.34,3.331-0.204,4.687-1.464c0.837-0.778,1.762-1.463,2.648-2.189
			c7.985,6.761,17.229,8.201,27.166,6.167c4.407-0.903,7.841-3.511,10.363-7.268c0.547,0.184,1.095,0.368,1.642,0.556
			c-3.098,7.481-4.952,15.536-9.93,22.154c-1.685,2.24-3.527,4.422-5.609,6.283c-2.13,1.902-4.941,2.577-7.727,3.204
			c-4.162,0.938-3.972-3.197-5.896-4.855c-0.623-0.537-1.26-1.056-1.889-1.587c-2.853-5.14-7.598-4.584-12.26-3.941
			c-4.995,0.69-9.973,1.084-14.701-1.019c-2.899-1.291-5.475-3.153-6.446-6.479c0.698-3.018-3.647-11.758-6.994-14.073
			C1083.354,95.819,1083.517,92.603,1082.575,89.74z"/>
		<path fill-rule="evenodd" clip-rule="evenodd" fill="#4C5F71" d="M1058.849,454.477c3.108,6.925-5.195,18.441-11.041,20.811
			c-1.589,0.644-2.874-0.437-3.96-1.505c-1.215-1.197-1.622-2.479-0.245-3.903c0.584-0.603,1.027-1.341,0.186-2.887
			c-8.001,3.195-16.067,0.979-24.019-1.369c-6.555-1.934-12.998-4.339-17.917-9.473c-1.389-1.45-3.147-3.083-2.095-5.185
			c1.354-2.705,3.565-0.653,5.264-0.191c13.637,3.709,27.189,5.233,40.616-0.862c0.539-0.245,1.291-0.019,1.942-0.012
			c-0.78,1.896-0.768,3.845,1.49,4.343C1052.261,454.949,1055.522,458.42,1058.849,454.477z"/>
		<path fill-rule="evenodd" clip-rule="evenodd" fill="#4C5F71" d="M1051.43,386.342c3.479,0.588,4.586,3.01,4.472,6.126
			c-0.178,4.732-1.299,9.247-3.831,13.307c-0.973,1.555-2.014,3.009-4.33,2.751c-2.905-0.324-1.344-2.904-2.203-4.15
			c-1.764-0.288-2.438,1.108-3.355,1.958c-9.863,9.139-21.665,11.204-34.485,9.456c-1.624-0.223-3.191-0.945-4.752-1.527
			c-1.503-0.56-2.759-1.604-2.63-3.282c0.12-1.566,1.692-1.891,2.981-2.269c13.555-3.958,26.738-8.579,36.097-20.091
			c0.161-0.198,0.623-0.156,0.943-0.225c0.277,2.395,1.767,3.079,3.9,2.613C1047.203,390.365,1050.918,390.796,1051.43,386.342z"/>
		<path fill-rule="evenodd" clip-rule="evenodd" fill="#F5A97A" d="M982.836,215.652c-0.032,3.481,0.055,6.939,2.021,10.016
			c-10.659,2.379-20.349,7.02-29.76,12.429c-3.318,1.907-7.964,3.721-10.529,0.359c-2.469-3.234-0.553-7.745,1.875-11.129
			c4.294-5.987,10.766-8.199,17.604-9.334C970.268,216.96,976.569,216.413,982.836,215.652z"/>
		<path fill-rule="evenodd" clip-rule="evenodd" fill="#F5A97A" d="M1045.913,220.538c-10.854,5.518-19.457,13.382-25.236,24.19
			c-3.82-2.102-3.826-5.359-2.903-9.043c1.588-6.321,6.268-10.8,9.438-16.175c4.171-3.074,9.179-4.233,13.878-6.113
			c3.403-1.36,4.539-0.141,4.343,3.26C1045.359,217.938,1045.739,219.244,1045.913,220.538z"/>
		<path fill-rule="evenodd" clip-rule="evenodd" fill="#F5A97A" d="M1051.43,386.342c-0.512,4.454-4.227,4.023-7.192,4.668
			c-2.134,0.466-3.623-0.218-3.9-2.613c-0.133-2.537-0.268-5.073-0.402-7.608c3.751-0.144,7.548,0.085,11.146-1.336
			C1051.197,381.75,1051.314,384.048,1051.43,386.342z"/>
		<path fill-rule="evenodd" clip-rule="evenodd" fill="#F5A97A" d="M1058.849,454.477c-3.327,3.943-6.588,0.472-9.777-0.233
			c-2.258-0.498-2.271-2.446-1.49-4.343c1.021-1.869,2.038-3.739,3.056-5.609c3.028,1.927,6.324,3.148,9.855,3.761
			C1059.945,450.195,1059.398,452.337,1058.849,454.477z"/>
		<path fill-rule="evenodd" clip-rule="evenodd" fill="#EE8270" d="M1085.334,98.348c3.347,2.314,7.692,11.055,6.994,14.073
			c-2.723-1.043-6.071,1.174-8.117-0.415c-2.779-2.156,2.256-4.011,1.346-6.859C1084.893,103.068,1085.367,100.626,1085.334,98.348z
			"/>
		<path fill-rule="evenodd" clip-rule="evenodd" fill="#EE8270" d="M1117.616,99.207c-0.886,0.726-1.811,1.411-2.648,2.189
			c-1.355,1.26-2.853,2.804-4.687,1.464c-1.758-1.287,0.059-2.565,0.707-3.771c0.959-1.792-0.035-3.3-1.029-4.517
			c-1.385-1.697-1.646-3.51-1.471-5.527C1115.795,86.324,1118.956,89.844,1117.616,99.207z"/>
	</g>
	<g>
		<g>
			<g>
				<g>
					<path fill-rule="evenodd" clip-rule="evenodd" fill="#4D4C4D" d="M43.892,1013.066c2.376-1.019,4.519-1.46,6.06-2.669
						c37.572-29.49,75.057-59.086,112.613-88.597c9.302-7.311,20.086-8.292,31.079-5.662c22.308,5.334,44.499,11.154,66.723,16.83
						c1.768,0.451,3.423,1.337,5.275,2.078c1.054-0.781,2.177-1.612,3.644-2.699c1.846,7.419,0.181,12.544-5.613,17.555
						c-36.029,31.148-71.579,62.855-107.606,94.008c-11.021,9.53-23.452,13.008-38.173,6.93
						c-21.36-8.818-43.217-16.431-64.869-24.545C43.473,1022.715,43.192,1022.299,43.892,1013.066z"/>
				</g>
				<g>
					<path fill-rule="evenodd" clip-rule="evenodd" fill="#E0F2F0" d="M131.707,1050.609c-5.232-1.559-10.564-2.844-15.676-4.721
						c-21.4-7.852-42.742-15.858-64.085-23.852c-9.951-3.727-10.929-9.667-2.486-16.355c37.573-29.772,75.184-59.498,112.871-89.125
						c8.879-6.98,19.248-8.687,30.026-6.074c22.452,5.442,44.807,11.279,67.185,17.012c1.917,0.492,3.907,1.151,5.542,2.222
						c6.325,4.146,6.353,8.611,0.597,13.646c-25.763,22.529-51.463,45.133-77.188,67.709
						c-11.855,10.406-23.676,20.852-35.584,31.196C147.361,1047.084,140.369,1049.42,131.707,1050.609z"/>
				</g>
			</g>
			<g>
				<path fill-rule="evenodd" clip-rule="evenodd" fill="#5F6060" d="M186.344,914.811c3.292,0.521,6.65,0.786,9.866,1.61
					c16.373,4.196,32.717,8.5,49.042,12.879c1.878,0.504,3.753,1.468,5.309,2.644c4.583,3.458,4.733,8.057,0.429,11.8
					c-30.87,26.83-61.584,53.842-92.773,80.297c-8.531,7.234-19.066,9.415-30.214,5.455c-17.32-6.15-34.662-12.235-52.015-18.287
					c-3.4-1.185-7.616-2.315-7.303-6.402c0.252-3.26,2.118-7.291,4.614-9.343c17.204-14.144,34.762-27.857,52.206-41.712
					c12.456-9.893,24.939-19.755,37.353-29.701C170.627,917.825,176.663,915.467,186.344,914.811z"/>
			</g>
		</g>
		<ellipse fill="#C9C7C7" cx="94.731" cy="1026.287" rx="7.7" ry="5.162"/>
	</g>
	<g>
		<path fill-rule="evenodd" clip-rule="evenodd" fill="#2E7F7E" d="M183.759,792.635c14.499,4.546,26.307,12.99,35.505,24.994
			c2.017,2.635,3.42,2.598,6.004,0.923c2.578-1.673,4.585-4.482,8.05-4.64c2.236,2.719,4.251,5.644,7.204,7.689
			c1.477,3.817-2.029,5.341-3.772,7.395c-2.324,2.74-2.025,4.116,0.839,6.142c13.776,9.741,18.66,9.029,28.07-4.886
			c2.9-4.29,5.277-8.931,7.935-13.384c0.895-1.5,1.325-3.652,3.869-3.156c2.806,1.335,5.617,2.668,8.429,4.001
			c-0.522,3.381,0.56,6.604,0.965,9.894c-5.89,9.501-11.374,19.258-17.958,28.614c6.49-2.609,12.953-4.895,19.835-5.892
			c12.345-1.794,25.627,7.218,28.539,19.233c3.121,12.886,0.124,25.301-2.538,37.701c-5.167,24.06-10.65,48.054-16.041,72.067
			c-0.253,1.125-0.873,2.167-1.321,3.246c-4.21,0.123-8.4,0.031-12.5-1.09c-1.502-1.675-2.098-3.491-1.979-5.869
			c1.082-21.92,3.445-43.734,5.382-65.583c0.278-3.137,0.596-6.242-2.279-8.179c-2.976-2.003-5.813-0.289-8.39,1.322
			c-7.008,4.376-12.699,10.373-19.031,15.579c-1.964,1.613-1.239,3.215-0.686,4.912c2.828,8.665,3.63,17.687,4.619,26.655
			c2.753,24.998,1.913,50.194,3.959,75.24c0.305,3.751,1.132,7.688-0.676,11.382c-4.5,3.377-9.461,3.537-14.651,2.101
			c-2.167-1.581-3.062-3.942-3.759-6.364c-2.318-8.027-4.87-16.002-6.791-24.125c-3.919-16.6-7.395-33.304-11.269-49.917
			c-0.846-3.623-1.449-8.234-6.021-9.021c-4.178-0.719-6.428,3.056-8.726,5.851c-4.907,5.967-9.783,11.993-16.076,16.539
			c-8.162,5.896-17.412,8.381-26.316,2.791c-15.548-9.764-27.902-22.45-31.621-41.466c6.735-1.291,12.449-4.868,18.007-8.535
			c16.33-10.78,32.212-22.297,51.718-27.087c2.593-0.636,4.896-2.924,5.177-6.199c2.081,1.209,3.029-0.694,4.245-1.632
			c4.778-3.677,9.528-7.387,14.218-11.175c3.052-2.464,6.746-4.167,9.172-7.231c-9.852-3.078-18.83-7.456-27.48-12.592
			c-1.188-0.705-2.621-2.697-3.893-1.389c-3.099,3.187-7.477,5.056-9.559,9.261c-1.223,0.497-2.577,0.796-3.648,1.517
			c-16.716,11.263-34.994,9.893-52.279,3.676c-14.549-5.23-28.948-12.234-39.943-24.087c-0.711-0.765-1.561-1.236-2.633-1.232
			c-0.206-0.178-0.274-0.399-0.203-0.662c0.258-0.94,0.101-1.749-0.743-2.339c-1.071-2.326-1.272-5.039-3.113-7.025
			c0-2.683,0-5.368,0-8.053c1.526-1.052,1.378-2.912,2.077-4.364c3.143-6.528,7.141-12.119,14.733-13.925
			c13.094,0.969,23.851,7.489,33.712,15.261c6.467,5.097,13.11,9.719,20.208,13.833c7.845,4.549,15.171,1.733,22.604-0.929
			c0.96-0.344,1.217-1.082,1.033-1.987c-1.702-8.327-1.633-16.864-3.199-25.241c-1.245-6.658-5.83-11.613-7.634-17.868
			C183.378,793.122,183.583,792.891,183.759,792.635z"/>
		<path fill-rule="evenodd" clip-rule="evenodd" fill="#4C6072" d="M126.771,750.256c-4.839-4.174-6.205-9.701-6.076-15.772
			c0.25-11.869,13.047-24.787,24.913-24.75c5.806,0.017,11.005-0.426,14.357-6.043c1.311-2.197,4.217-2.381,6.076-3.979
			c2.013,0,4.026,0,6.039,0c10.716,5.867,13.221,15.715,6.717,26.404c-2.469,2.318-5.119,4.305-8.636,4.722
			c-5.482,0.654-10.95,1.469-16.449,1.954c-7.806,0.69-9.95,2.311-11.59,9.825c-0.919,4.219-2.609,7.594-7.293,8.495
			C132.567,746.843,129.823,747.103,126.771,750.256z"/>
		<path fill-rule="evenodd" clip-rule="evenodd" fill="#4C6072" d="M265.796,1036.946c10.057,11.036,21.155,20.504,36.013,24.547
			c2.473,0.674,5.579,1.257,5.86,4.65c0.267,3.18-2.848,3.603-4.736,4.987c-5.37,0-10.737,0-16.106,0
			c-1.014-2.154-3.333-2.038-5.087-2.683c-6.049-2.226-11.581-5.117-15.834-10.128c-1.222-1.444-2.396-3.46-4.695-0.891
			c-1.186,1.327-2.472-0.236-3.463-0.942c-6.06-4.328-6.653-10.774-6.602-17.441
			C256.334,1040.483,261.296,1040.323,265.796,1036.946z"/>
		<path fill-rule="evenodd" clip-rule="evenodd" fill="#4C6072" d="M335.144,1014.764c-5.423,5.484-11.595,2.756-17.292,1.087
			c-8.048-2.359-15.336-6.446-21.824-11.888c-1.509-1.266-2.688-4.005-5.6-1.005c-1.494,1.534-7.528-3.637-8.284-7.093
			c-1.128-5.157,0.053-9.92,2.73-14.378c4.102,1.121,8.292,1.213,12.502,1.09c6.09,9.712,15.651,15.383,24.984,21.266
			c4.234,2.67,8.824,4.774,12.784,7.901C335.144,1012.749,335.144,1013.756,335.144,1014.764z"/>
		<path fill-rule="evenodd" clip-rule="evenodd" fill="#F7A97A" d="M134.83,751.112c4.684-0.901,6.374-4.275,7.293-8.495
			c1.64-7.515,3.784-9.135,11.59-9.825c5.499-0.485,10.967-1.3,16.449-1.954c3.517-0.417,6.167-2.404,8.636-4.722
			c6.219,13.688,5.531,27.232-1.069,40.54c-2.57,5.177-3.495,10.37-1.726,15.938c-10.557,3.821-21.38,4.518-32.409,2.728
			c-0.201-6.886-0.199-13.813-3.806-20.054c1.455-2.144,1.446-4.333-0.968-5.461C134.849,757.95,134.496,754.768,134.83,751.112z
			 M168.631,758.104c0.9-0.256,2.501,0.51,3.181-1.184c0.353-0.873-0.053-1.815-0.792-2.183c-3.355-1.675-3.739-4.743-4.317-7.962
			c-0.284-1.573-0.284-4.407-2.644-4.264c-2.928,0.176-1.79,3.01-2.05,4.831c-0.143,0.991-0.088,2.013-0.272,2.992
			C160.774,755.45,162.957,758.051,168.631,758.104z"/>
		<path fill-rule="evenodd" clip-rule="evenodd" fill="#4C6072" d="M286.857,827.606c-0.405-3.29-1.487-6.512-0.965-9.894
			c2.081-5.568,5.472-10.89,3.272-17.269c0.584-3.625,1.399-7.229,1.678-10.876c0.225-2.955,1.286-4.178,4.325-4.003
			c5.847,0.338,11.708,0.526,17.562,0.602c2.445,0.03,3.13,1.108,3.199,3.369c0.174,5.658-1.583,10.927-3.19,16.188
			c-2.309,7.546-2.617,14.824,1.743,21.748c1.747,2.773,1.036,4.082-2.105,4.739c-4.907,1.03-9.924,1.876-14.595,3.602
			c-5.459,2.019-7.696-0.827-9.584-4.968C287.712,829.78,287.302,828.685,286.857,827.606z"/>
		<path fill-rule="evenodd" clip-rule="evenodd" fill="#2E7F7E" d="M143.593,785.321c11.029,1.79,21.852,1.094,32.409-2.728
			c2.813-0.358,2.981,2.148,3.905,3.726c1.249,2.129,2.066,4.513,3.852,6.315c-0.176,0.256-0.381,0.487-0.616,0.694
			c-2.027-1.467-3.24-0.097-4.719,1.136c-3.923,3.276-8.547,4.864-13.552,6.011c-9.938,2.275-19.145-0.242-28.383-3.244
			c1.098-2.935,2.351-5.822,3.242-8.816C140.349,786.329,141.553,785.416,143.593,785.321z"/>
		<path fill-rule="evenodd" clip-rule="evenodd" fill="#F7A97A" d="M240.523,821.601c-2.953-2.045-4.968-4.97-7.204-7.689
			c1.574-2.521,3.301-4.962,4.693-7.579c2.881-5.417,6.953-9.203,13.144-10.359c1.2,0.009,2.399,0.015,3.6,0.021
			c4.618-0.19,7.481,2.223,9.369,6.201c1.354,2.857,0.565,5.159-1.606,7.19c-0.964,0.379-1.929,0.757-2.896,1.136
			c-5.685,0.751-10.427,3.215-14.324,7.485C243.978,819.453,242.131,820.416,240.523,821.601z"/>
		<path fill-rule="evenodd" clip-rule="evenodd" fill="#F7A97A" d="M289.165,800.443c2.199,6.379-1.191,11.701-3.272,17.269
			c-2.812-1.333-5.623-2.667-8.429-4.001C280.055,808.132,281.965,801.957,289.165,800.443z"/>
		<path fill-rule="evenodd" clip-rule="evenodd" fill="#4C6072" d="M254.755,795.995c-1.2-0.006-2.4-0.012-3.6-0.021
			c-1.786-3.173-3.592-6.333-5.347-9.524c-0.432-0.786-1.304-1.643-0.026-2.517c1.259-0.862,2.188-0.496,2.858,0.73
			C250.694,788.433,252.72,792.217,254.755,795.995z"/>
		<path fill-rule="evenodd" clip-rule="evenodd" fill="#4C6072" d="M259.623,810.522c0.967-0.379,1.931-0.757,2.896-1.136
			c1.736,3.503,4.544,6.536,4.999,10.866C263.102,818.192,261.65,814.129,259.623,810.522z"/>
		<path fill-rule="evenodd" clip-rule="evenodd" fill="#549798" d="M140.566,933.333c-3.303-1.143-4.532-4.255-6.132-6.842
			c-15.006-24.252-22.872-51.333-30.803-78.376c-0.133-0.453,0.018-0.989,0.037-1.487c1.073-0.004,1.922,0.467,2.633,1.232
			c10.995,11.853,25.394,18.857,39.943,24.087c17.286,6.217,35.563,7.587,52.279-3.676c1.071-0.721,2.425-1.02,3.648-1.517
			c4.679,8.122,7.773,17.091,13.296,24.758c-0.281,3.275-2.584,5.563-5.177,6.199c-19.506,4.79-35.388,16.307-51.718,27.087
			C153.015,928.466,147.301,932.043,140.566,933.333z"/>
		<path fill-rule="evenodd" clip-rule="evenodd" fill="#549798" d="M136.488,797.232c9.238,3.002,18.445,5.519,28.383,3.244
			c5.005-1.147,9.629-2.734,13.552-6.011c1.479-1.233,2.691-2.603,4.719-1.136c1.805,6.254,6.389,11.21,7.634,17.868
			c1.566,8.377,1.498,16.915,3.199,25.241c0.184,0.905-0.072,1.643-1.033,1.987c-7.433,2.662-14.759,5.478-22.604,0.929
			c-7.098-4.113-13.741-8.735-20.208-13.833c-9.861-7.771-20.618-14.292-33.712-15.261
			C123.626,806.715,129.532,801.164,136.488,797.232z"/>
		<path fill-rule="evenodd" clip-rule="evenodd" fill="#549798" d="M103.465,845.966c-0.813-0.6-0.889-1.434-0.743-2.336
			C103.565,844.217,103.723,845.026,103.465,845.966z"/>
		<path fill-rule="evenodd" clip-rule="evenodd" fill="#F38673" d="M134.83,751.112c-0.333,3.655,0.019,6.838,3.989,8.693
			c2.415,1.128,2.423,3.317,0.968,5.461c-9.841-1.523-14.627-7.042-13.016-15.011C129.823,747.103,132.567,746.843,134.83,751.112z"
			/>
		<path fill-rule="evenodd" clip-rule="evenodd" fill="#F38673" d="M168.631,758.104c-5.674-0.053-7.857-2.654-6.895-7.77
			c0.184-0.979,0.129-2.001,0.272-2.992c0.26-1.82-0.878-4.654,2.05-4.831c2.359-0.144,2.359,2.69,2.644,4.264
			c0.578,3.219,0.962,6.287,4.317,7.962c0.739,0.368,1.145,1.311,0.792,2.183C171.132,758.614,169.531,757.848,168.631,758.104z"/>
	</g>
	<g>
		<g>
			<g>
				<g>
					<path fill-rule="evenodd" clip-rule="evenodd" fill="#C9C7C7" d="M1217.911,1466.913c-1.333,0-2.665,0-3.997,0
						c-0.677-0.376-1.311-0.892-2.035-1.11c-32.837-9.88-65.683-19.733-98.868-29.692c0-5.356,0.167-10.998-0.067-16.625
						c-0.124-2.96,1.12-3.936,3.763-4.684c8.762-2.476,17.477-5.147,26.137-7.967c2.279-0.744,4.582-1.968,6.381-3.535
						c11.393-9.933,22.695-19.969,33.933-30.081c7.007-6.308,13.848-12.803,20.764-19.215c0.665,0,1.332,0,1.997,0
						c1.618,0.646,3.188,1.47,4.858,1.915c15.186,4.044,30.437,7.852,45.561,12.11c5.318,1.498,10.179,1.421,15.385-0.33
						c9.152-3.078,18.457-5.702,28.241-8.682c-0.37,5.547-1.043,10.354-0.903,15.133c0.126,4.334-1.395,7.383-4.344,10.469
						c-17.674,18.506-35.199,37.151-52.68,55.84C1233.884,1449.174,1225.947,1458.088,1217.911,1466.913z"/>
				</g>
				<g>
					<path fill-rule="evenodd" clip-rule="evenodd" fill="#E0F2F0" d="M1200.124,1333.188c1,0,1.999,0,2.999,0
						c0.376,0.293,0.709,0.748,1.132,0.86c21.918,5.743,43.852,11.429,65.764,17.19c9.689,2.547,19.337,5.243,29.605,8.036
						c-1.673,1.941-2.797,3.35-4.029,4.661c-17.204,18.294-34.467,36.531-51.617,54.876c-8.725,9.333-17.251,18.851-25.867,28.285
						c-1.333,0-2.665,0-3.997,0c-0.35-0.319-0.646-0.811-1.055-0.935c-15.633-4.708-31.271-9.394-46.917-14.058
						c-17.493-5.214-34.99-10.408-52.861-15.72c0.695-0.89,1.021-1.441,1.47-1.862c27.454-25.876,54.922-51.737,82.36-77.627
						C1198.259,1335.81,1199.125,1334.428,1200.124,1333.188z"/>
				</g>
			</g>
			<g>
				<path fill-rule="evenodd" clip-rule="evenodd" fill="#C9C7C7" d="M1120.437,1346.373c11.909,3.346,23.787,6.8,35.73,10.016
					c21.439,5.773,42.908,11.433,64.39,17.056c2.691,0.704,4.037,2.047,4.692,4.826c2.974,12.618,9.811,16.733,22.671,14.448
					c15.795-2.808,28.576-11.124,40.385-21.366c0,0.665,0,1.332,0,1.999c-0.675,0.421-1.45,0.74-2.015,1.277
					c-12.941,12.342-26.958,22.861-44.949,26.7c-1.663,0-3.33,0-4.995,0c-1.724-0.496-3.44-1.021-5.17-1.482
					c-31.985-8.557-63.993-17.021-95.919-25.789c-3.121-0.858-6.696-2.956-8.375-5.564c-3.423-5.315-5.696-11.374-8.44-17.125
					C1119.652,1349.92,1115.785,1346.442,1120.437,1346.373z"/>
			</g>
		</g>
		<g>
			<path fill-rule="evenodd" clip-rule="evenodd" fill="#828080" d="M1160.409,1384.142c14.385,4.521,28.767,9.044,43.4,13.645
				c-1.358,3.255-3.283,4.55-7.115,3.33c-13.745-4.371-27.574-8.473-41.727-12.787c0.931-1.594,1.687-2.891,2.443-4.188
				C1158.411,1384.142,1159.411,1384.142,1160.409,1384.142z"/>
			<path fill-rule="evenodd" clip-rule="evenodd" fill="#828080" d="M1131.53,1410.789c1.936-3.298,4.06-3.854,7.599-2.765
				c26.883,8.268,53.851,16.259,80.787,24.356c0.283,0.083,0.486,0.429,1.106,1.004c-1.661,2.004-2.348,4.275-6.342,3.042
				c-27.19-8.388-54.483-16.438-81.736-24.621C1132.5,1411.671,1132.146,1411.242,1131.53,1410.789z"/>
			<path fill-rule="evenodd" clip-rule="evenodd" fill="#828080" d="M1231.932,1421.524c-1.864,3.189-3.871,3.941-7.514,2.819
				c-27.017-8.326-54.129-16.342-81.393-24.508c1.582-3.2,3.558-4.651,7.14-3.563c26.592,8.086,53.215,16.082,79.821,24.13
				C1230.603,1420.589,1231.133,1421.055,1231.932,1421.524z"/>
		</g>
	</g>
	<g>
		<g>
			<g>
				<g>
					<path fill-rule="evenodd" clip-rule="evenodd" fill="#539798" d="M1442.007,1075.849c0,6.484,0,12.969,0,19.454
						c-0.303,0.913-0.727,1.803-0.887,2.739c-3.729,21.776-14.157,39.263-32.687,51.72c-1.267,0.851-2.299,3.014-2.329,4.584
						c-0.2,11.005-0.461,22.029-0.006,33.019c0.461,11.165-4.453,19.255-12.922,25.675c-8.244,6.247-17.598,10.232-27.601,12.593
						c-6.562,1.548-13.239,2.614-19.861,3.896c-7.458,0-14.915,0-22.372,0c-8.784-1.913-17.78-3.156-26.303-5.885
						c-14.924-4.783-28.256-12.038-34-28.16c0-47.334,0-94.671,0-142.007c1.217-0.057,2.436-0.117,4.437-0.212
						c-2.349-8.032,0.825-13.803,6.348-18.785c7.957-7.178,17.19-12.079,27.399-14.919c7.575-2.105,15.386-3.358,23.091-4.991
						c6.81,0,13.618,0,20.426,0c4.906,0.917,9.849,1.657,14.705,2.776c16.737,3.859,32.034,10.173,42.377,25.003
						c0.73,1.045,3.056,1.333,4.65,1.363c10.326,0.188,19.368,3.77,25.334,12.111
						C1436.115,1061.848,1438.668,1069.128,1442.007,1075.849z M1406.213,1128.914c8.84-9.4,14.656-19.217,17.476-30.753
						c1.99-8.149,2.812-16.328-0.301-24.372c-2.933-7.579-9.461-10.844-17.175-8.712
						C1406.213,1085.875,1406.213,1106.734,1406.213,1128.914z"/>
				</g>
				<g>
					<path fill-rule="evenodd" clip-rule="evenodd" fill="#2B7E7D" d="M1346.685,1020.041c6.881,1.617,13.714,3.484,20.651,4.795
						c11.113,2.1,20.068,7.672,27.853,15.68c1.261,1.298,1.839,5.793,5.626,2.848c0.028-0.022,1.066,1.067,1.464,1.735
						c2.941,4.938,4.134,9.915,1.71,15.623c-6.477,15.25-16.896,25.677-33.477,29.557c-22.492,5.263-45.136,7.09-67.864,2.558
						c-12.169-2.428-22.313-9.334-30.916-18.219c-1.825-1.884-2.846-4.605-4.017-7.044c-1.666-3.474-3.129-7.045-4.678-10.573
						c0-0.647,0-1.297,0-1.945c1.227-0.081,2.455-0.162,2.554-0.168c1.687-3.251,2.567-6.04,4.31-8.097
						c4.578-5.403,9.449-10.567,14.396-15.638c1.142-1.169,2.98-1.861,4.625-2.307c11.129-3.006,22.292-5.886,33.444-8.804
						C1330.474,1020.041,1338.579,1020.041,1346.685,1020.041z"/>
					<path fill-rule="evenodd" clip-rule="evenodd" fill="#2B7E7D" d="M1406.308,1139.196c-0.463-4.87-0.364-8.448,2.984-12.323
						c11.4-13.193,18.025-28.389,15.443-46.309c-1.492-10.366-6.229-14.214-16.905-14.855c-0.453-0.028-0.896-0.188-1.558-0.335
						c0-2.586,0-5.117,0-7.636c9.764-2.723,22.315,4.273,26.511,14.689c3.576,8.875,2.373,17.877,0.354,26.744
						c-3.495,15.351-11.659,27.926-23.795,37.929C1408.521,1137.777,1407.586,1138.319,1406.308,1139.196z"/>
				</g>
			</g>
			<g>
				<path fill-rule="evenodd" clip-rule="evenodd" fill="#4D4C4D" d="M1345.371,1091.446c-7.457,0-14.913,0-22.369,0
					c-5.015-0.981-10.065-1.801-15.03-2.978c-11.83-2.805-22.916-7.239-32.752-15.485c7.773-6.681,16.365-10.947,25.701-13.516
					c7.567-2.084,15.36-3.353,23.052-4.981c6.81,0,13.617,0,20.426,0c5.367,0.986,10.789,1.742,16.09,3.006
					c11.804,2.814,22.931,7.152,32.618,15.481c-8.708,7.441-18.497,11.741-28.975,14.507
					C1357.96,1089.111,1351.63,1090.144,1345.371,1091.446z"/>
			</g>
		</g>
		
			<ellipse fill-rule="evenodd" clip-rule="evenodd" fill="none" stroke="#D1D3D4" stroke-width="7" stroke-miterlimit="10" cx="1333.557" cy="1054.677" rx="67.545" ry="38.689"/>
	</g>
	<g>
		<defs>
			<path id="SVGID_1_" d="M1091.973,1168.605c7.142,0,14.284,0,21.423,0c2.126,0.339,4.24,0.872,6.378,0.988
				c15.557,0.84,29.638,4.648,38.916,18.625c2.478,3.734,5.164,7.331,7.757,10.99c0,1.7,0,3.402,0,5.102
				c-3.02,6.751-8.421,10.556-15.098,13.477c-41.732,18.241-83.417,36.593-124.958,55.263c-7.604,3.416-15.298,4.84-23.428,5.713
				c-9.396,1.007-15.543-3.335-20.458-10.475c-1.919-2.791-3.391-5.907-5.431-8.597c-6.98-9.209-6.918-18.823-1.544-28.526
				c2.354-4.25,5.104-8.503,8.509-11.919c22.216-22.272,48.301-38.083,79.059-45.473
				C1072.587,1171.493,1082.341,1170.297,1091.973,1168.605z"/>
		</defs>
		<clipPath id="SVGID_2_">
			<use xlink:href="#SVGID_1_"  overflow="visible"/>
		</clipPath>
		<g clip-path="url(#SVGID_2_)">
			<g>
				<path fill-rule="evenodd" clip-rule="evenodd" fill="#E0F2F0" d="M1091.973,1168.605c7.142,0,14.284,0,21.423,0
					c2.126,0.339,4.24,0.872,6.378,0.988c15.557,0.84,29.638,4.648,38.916,18.625c2.478,3.734,5.164,7.331,7.757,10.99
					c0,1.7,0,3.402,0,5.102c-3.02,6.751-8.421,10.556-15.098,13.477c-41.732,18.241-83.417,36.593-124.958,55.263
					c-7.604,3.416-15.298,4.84-23.428,5.713c-9.396,1.007-15.543-3.335-20.458-10.475c-1.919-2.791-3.391-5.907-5.431-8.597
					c-6.98-9.209-6.918-18.823-1.544-28.526c2.354-4.25,5.104-8.503,8.509-11.919c22.216-22.272,48.301-38.083,79.059-45.473
					C1072.587,1171.493,1082.341,1170.297,1091.973,1168.605z"/>
			</g>
			<g>
				<path fill-rule="evenodd" clip-rule="evenodd" fill="#C9C7C7" d="M1166.447,1208.327c-2.823,4.851-7.148,7.684-12.217,9.928
					c-45.068,19.963-90.076,40.059-135.101,60.112c-2.578,1.147-5.164,2.274-7.747,3.412c-3.401,0-6.801,0-10.2,0
					c-2.024-0.759-4.048-1.517-5.926-2.221c7.671-2.878,15.655-5.233,23.051-8.804c10.354-4.998,20.625-10.344,30.31-16.519
					c30.007-19.139,63.099-30.089,97.506-37.592c7.85-1.713,14.891-4.264,20.324-10.357
					C1166.447,1206.967,1166.447,1207.646,1166.447,1208.327z"/>
			</g>
		</g>
	</g>
	<g>
		<g>
			<g>
				<g>
					<path fill-rule="evenodd" clip-rule="evenodd" fill="#5F6060" d="M942.51,1133.195c0,2.715,0,5.428,0,8.143
						c-2.813,4.693-4.983,9.95-8.539,13.988c-33.358,37.898-66.914,75.62-100.5,113.313c-10.717,12.029-24.255,15.858-39.608,11.621
						c-87.42-24.135-174.779-48.502-262.176-72.723c-82.597-22.889-165.215-45.702-247.837-68.508
						c-5.06-1.396-9.471-3.37-11.155-8.889c0-2.036,0-4.072,0-6.108c1.1-0.938,2.613-2.902,3.239-2.651
						c4.556,1.825,7.361-0.806,10.327-3.4c2.804-2.454,5.67-4.84,8.545-7.213c34.998-28.899,69.993-57.803,105.014-86.673
						c10.409-8.582,22.036-12.138,35.439-8.459c5.033,1.381,10.171,2.381,15.266,3.537c69.69,15.798,139.381,31.592,209.071,47.39
						c84.556,19.167,169.129,38.267,253.646,57.608C923.17,1126.441,933.789,1126.862,942.51,1133.195z"/>
				</g>
				<g>
					<path fill-rule="evenodd" clip-rule="evenodd" fill="#E0F2F0" d="M798.542,1272.485c-6.752-1.748-15.915-3.972-24.994-6.488
						c-163.872-45.424-327.737-90.877-491.598-136.351c-3.746-1.04-8.692-2.094-8.533-6.584c0.129-3.547,2.375-7.965,5.12-10.32
						c17.869-15.343,36.119-30.246,54.271-45.259c21.545-17.819,43.076-35.657,64.697-53.38c9.672-7.931,20.661-11.298,33.141-8.46
						c73.99,16.829,147.972,33.695,221.965,50.495c72.414,16.438,144.842,32.813,217.264,49.21
						c19.76,4.474,39.528,8.918,59.288,13.393c1.317,0.299,2.636,0.659,3.895,1.14c9.558,3.641,11.472,10.975,4.73,18.644
						c-10.292,11.708-20.703,23.31-31.061,34.959c-25.225,28.373-50.549,56.657-75.616,85.171
						C823.029,1267.852,812.993,1271.878,798.542,1272.485z"/>
				</g>
			</g>
			<g>
				<path fill-rule="evenodd" clip-rule="evenodd" fill="#C9C7C7" d="M793.196,1248.374c-6.557-1.698-16.189-4.081-25.76-6.692
					c-128.947-35.183-257.887-70.388-386.824-105.608c-21.764-5.944-43.496-12.01-65.267-17.937
					c-3.988-1.085-8.259-1.818-9.263-6.632c-1-4.798,2.065-8.024,5.364-10.817c11.646-9.855,23.342-19.652,35.063-29.418
					c16.272-13.559,32.861-26.752,48.785-40.707c12.479-10.938,25.629-14.168,42.094-10.254
					c99.732,23.701,199.613,46.779,299.449,70.051c54.073,12.602,108.156,25.157,162.225,37.78
					c10.875,2.539,13.469,10.917,6.008,19.215c-26.286,29.243-52.656,58.412-78.871,87.717
					C818.198,1244.019,808.198,1247.926,793.196,1248.374z"/>
			</g>
		</g>
		<g>
			<path fill-rule="evenodd" clip-rule="evenodd" fill="#FFFFFF" d="M896.75,1141.289c-5.276,5.373-10.832,10.508-15.728,16.21
				c-2.75,3.202-5.214,3.75-9.108,2.671c-8.953-2.483-18.045-4.467-27.072-6.685c-1.406-0.346-2.772-0.854-4.644-1.438
				c6.093-6.58,11.725-12.869,17.654-18.861c0.99-1,3.405-1.278,4.948-0.934c11.347,2.538,22.64,5.316,33.95,8.017
				C896.75,1140.609,896.75,1140.949,896.75,1141.289z"/>
			<path fill-rule="evenodd" clip-rule="evenodd" fill="#FFFFFF" d="M420.345,1027.278c8.541,2.249,17.083,4.498,26.501,6.978
				c-6.675,5.732-12.972,11.219-19.393,16.552c-0.738,0.613-2.264,0.714-3.287,0.472c-8.311-1.953-16.587-4.045-25.743-6.308
				c7.361-6.232,14.133-11.962,20.905-17.693C419.668,1027.278,420.007,1027.278,420.345,1027.278z"/>
			<path fill-rule="evenodd" clip-rule="evenodd" fill="#FFFFFF" d="M500.993,1132.623c-6.971,6.313-13.876,12.715-21.015,18.847
				c-0.915,0.788-3.136,0.539-4.585,0.153c-29.734-7.887-59.443-15.864-90.065-24.065c7.684-6.658,14.887-12.973,22.216-19.136
				c0.7-0.588,2.272-0.547,3.304-0.279c29.731,7.737,59.447,15.536,89.158,23.353
				C500.26,1131.561,500.429,1131.961,500.993,1132.623z"/>
			<path fill-rule="evenodd" clip-rule="evenodd" fill="#FFFFFF" d="M767.311,1230.403c11.235-12.095,21.94-23.62,32.646-35.147
				c1.846-1.986,4.008-3.767,5.474-6.004c4.221-6.438,9.361-7.716,16.709-5.167c8.742,3.037,17.921,4.813,27.754,7.352
				c-6.855,7.597-13.248,14.712-19.677,21.798c-7.401,8.16-14.729,16.393-22.352,24.343c-1.342,1.399-4.212,2.57-5.96,2.143
				C790.602,1236.96,779.417,1233.725,767.311,1230.403z"/>
			<path fill-rule="evenodd" clip-rule="evenodd" fill="#FFFFFF" d="M656.974,1200.661c7.847-7.503,14.595-14.1,21.56-20.455
				c0.99-0.903,3.165-1.2,4.561-0.854c10.455,2.595,20.853,5.422,32.21,8.425c-1.854,2.077-3.291,3.792-4.836,5.404
				c-4.21,4.388-8.686,8.547-12.631,13.159c-2.852,3.337-5.555,4.302-9.912,2.929
				C678.318,1206.24,668.518,1203.825,656.974,1200.661z"/>
			<path fill-rule="evenodd" clip-rule="evenodd" fill="#FFFFFF" d="M727.014,1219.545c7.174-7.544,13.505-14.34,20.047-20.926
				c0.968-0.976,3.096-1.613,4.417-1.294c10.494,2.542,20.923,5.352,32.292,8.32c-7.299,7.815-14.121,15.16-21.023,22.431
				c-0.468,0.495-1.616,0.752-2.299,0.569C749.578,1225.744,738.731,1222.753,727.014,1219.545z"/>
			<path fill-rule="evenodd" clip-rule="evenodd" fill="#FFFFFF" d="M607.596,1159.621c-6.394,6.826-12.588,13.547-18.954,20.102
				c-0.874,0.896-2.758,1.599-3.911,1.315c-10.287-2.548-20.516-5.337-31.598-8.278c7.41-7.077,14.187-13.632,21.104-20.035
				c0.818-0.756,2.537-1.176,3.624-0.903C588.017,1154.374,598.125,1157.111,607.596,1159.621z"/>
			<path fill-rule="evenodd" clip-rule="evenodd" fill="#FFFFFF" d="M675.797,1177.458c-7.659,7.373-14.544,14.087-21.57,20.652
				c-0.81,0.758-2.526,1.197-3.6,0.919c-9.908-2.584-19.766-5.36-29.858-8.141c7.056-7.23,13.842-14.239,20.73-21.144
				c0.562-0.563,1.908-0.785,2.738-0.574C654.319,1171.748,664.372,1174.435,675.797,1177.458z"/>
			<path fill-rule="evenodd" clip-rule="evenodd" fill="#FFFFFF" d="M762.714,1141.156c-6.2,5.768-12.353,11.59-18.651,17.248
				c-0.945,0.849-2.711,1.557-3.854,1.291c-10.828-2.521-21.601-5.267-33.988-8.345c7.271-6.996,13.638-13.192,20.124-19.258
				c0.711-0.663,2.223-1.005,3.189-0.773c10.792,2.589,21.552,5.32,32.319,8.013C762.141,1139.94,762.427,1140.547,762.714,1141.156
				z"/>
			<path fill-rule="evenodd" clip-rule="evenodd" fill="#FFFFFF" d="M817.379,1176.631c5.886-6.356,11.174-12.219,16.689-17.863
				c0.824-0.845,2.826-1.164,4.082-0.868c11.245,2.661,22.445,5.513,34.529,8.529c-5.814,6.389-11.172,12.365-16.673,18.208
				c-0.638,0.68-2.168,1.063-3.104,0.835C841.302,1182.67,829.733,1179.731,817.379,1176.631z"/>
			<path fill-rule="evenodd" clip-rule="evenodd" fill="#FFFFFF" d="M800.323,1142.666c6.502-6.837,12.486-13.182,18.569-19.428
				c0.559-0.578,1.847-0.901,2.653-0.717c10.674,2.434,21.322,4.979,32.637,7.654c-6.267,6.75-12.037,13.1-18.014,19.244
				c-0.826,0.847-2.809,1.191-4.059,0.905C821.797,1147.964,811.529,1145.397,800.323,1142.666z"/>
			<path fill-rule="evenodd" clip-rule="evenodd" fill="#FFFFFF" d="M787.021,1114.328c-6.491,6.679-12.427,12.861-18.493,18.917
				c-0.684,0.679-2.202,1.067-3.16,0.846c-10.784-2.504-21.537-5.156-33.381-8.028c6.776-6.702,12.722-12.842,19.03-18.583
				c1.092-0.994,3.806-0.727,5.611-0.325C766.472,1109.347,776.263,1111.765,787.021,1114.328z"/>
			<path fill-rule="evenodd" clip-rule="evenodd" fill="#FFFFFF" d="M517.56,1163.076c7.34-6.893,14.048-13.306,20.932-19.527
				c0.93-0.841,2.871-1.255,4.115-0.947c9.141,2.264,18.225,4.761,28.392,7.468c-7.562,7.172-14.431,13.841-21.545,20.234
				c-0.917,0.825-3.22,0.598-4.711,0.21C535.938,1168.221,527.187,1165.735,517.56,1163.076z"/>
			<path fill-rule="evenodd" clip-rule="evenodd" fill="#FFFFFF" d="M753.979,1191.223c5.948-6.236,11.248-11.908,16.72-17.409
				c0.894-0.898,2.706-1.692,3.831-1.425c10.595,2.516,21.133,5.275,32.636,8.207c-6.195,6.625-11.771,12.65-17.455,18.573
				c-0.545,0.565-1.86,0.846-2.664,0.642C776.305,1197.091,765.591,1194.26,753.979,1191.223z"/>
			<path fill-rule="evenodd" clip-rule="evenodd" fill="#FFFFFF" d="M669.45,1142.02c6.691-6.646,12.723-12.793,18.988-18.688
				c0.966-0.91,3.135-1.202,4.539-0.879c9.519,2.179,18.98,4.603,29.409,7.181c-5.151,5.258-10.306,9.832-14.597,15.106
				c-3.877,4.765-7.861,5.515-13.497,3.732C686.428,1145.981,678.318,1144.279,669.45,1142.02z"/>
			<path fill-rule="evenodd" clip-rule="evenodd" fill="#FFFFFF" d="M830.135,1155.933c-5.813,6.298-10.89,11.929-16.161,17.374
				c-0.889,0.918-2.763,1.687-3.92,1.413c-10.668-2.514-21.28-5.275-32.574-8.133c5.932-6.217,11.352-12.004,16.938-17.625
				c0.708-0.714,2.388-0.989,3.453-0.743C808.36,1150.633,818.813,1153.201,830.135,1155.933z"/>
			<path fill-rule="evenodd" clip-rule="evenodd" fill="#FFFFFF" d="M695.107,1117.124c6.383-6.497,12.242-12.534,18.227-18.449
				c0.714-0.706,2.21-1.215,3.159-1c9.938,2.264,19.842,4.695,31.577,7.518c-7.112,6.698-13.185,12.503-19.391,18.161
				c-0.808,0.735-2.417,1.201-3.467,0.963C715.381,1122.078,705.593,1119.657,695.107,1117.124z"/>
			<path fill-rule="evenodd" clip-rule="evenodd" fill="#FFFFFF" d="M483.458,1153.889c7.551-6.898,14.383-13.196,21.313-19.387
				c0.752-0.673,2.188-1.212,3.097-0.984c8.947,2.248,17.848,4.668,27.688,7.288c-7.648,7.108-14.636,13.675-21.756,20.095
				c-0.679,0.613-2.274,0.646-3.291,0.376C501.76,1158.969,493.047,1156.53,483.458,1153.889z"/>
			<path fill-rule="evenodd" clip-rule="evenodd" fill="#FFFFFF" d="M630.574,1101.434c5.559-6.089,11.194-12.325,16.935-18.457
				c0.557-0.597,1.866-0.951,2.683-0.771c10.253,2.276,20.482,4.67,30.583,7.004c-6.039,6.338-11.615,12.408-17.501,18.162
				c-0.983,0.962-3.417,1.054-4.991,0.7C648.751,1105.932,639.277,1103.546,630.574,1101.434z"/>
			<path fill-rule="evenodd" clip-rule="evenodd" fill="#FFFFFF" d="M665.098,1168.087c6.675-6.341,12.378-11.811,18.169-17.185
				c0.646-0.601,1.893-1.108,2.68-0.916c10.256,2.494,20.479,5.124,30.709,7.719c0.37,0.592,0.74,1.185,1.111,1.779
				c-5.942,5.459-11.859,10.945-17.861,16.334c-0.624,0.557-1.868,0.919-2.655,0.718
				C687.058,1173.935,676.897,1171.211,665.098,1168.087z"/>
			<path fill-rule="evenodd" clip-rule="evenodd" fill="#FFFFFF" d="M631.721,1136.198c-5.354,5.787-10.667,11.625-16.126,17.324
				c-0.674,0.702-2.23,1.139-3.182,0.903c-10.256-2.547-20.474-5.255-31.51-8.129c6.25-5.963,11.902-11.429,17.672-16.764
				c0.714-0.661,2.183-1.064,3.119-0.836C611.953,1131.17,622.176,1133.792,631.721,1136.198z"/>
			<path fill-rule="evenodd" clip-rule="evenodd" fill="#FFFFFF" d="M655.644,1113.333c-5.298,5.689-10.244,11.234-15.512,16.459
				c-1.027,1.021-3.438,1.402-4.968,1.043c-9.682-2.255-19.296-4.8-30.12-7.553c6.486-6.11,12.377-11.709,18.362-17.206
				c0.472-0.433,1.653-0.353,2.421-0.164C635.898,1108.382,645.956,1110.913,655.644,1113.333z"/>
			<path fill-rule="evenodd" clip-rule="evenodd" fill="#FFFFFF" d="M644.351,1080.604c-6.815,6.429-13.022,12.339-19.326,18.14
				c-0.624,0.574-1.939,0.855-2.786,0.654c-9.341-2.207-18.652-4.54-28.854-7.056c6.828-6.379,13.028-12.252,19.37-17.97
				c0.654-0.591,2.218-0.517,3.258-0.284C625.173,1076.129,634.309,1078.277,644.351,1080.604z"/>
			<path fill-rule="evenodd" clip-rule="evenodd" fill="#FFFFFF" d="M372.069,1098.002c-7.737,6.617-14.62,12.585-21.639,18.388
				c-0.815,0.676-2.481,0.837-3.586,0.562c-8.403-2.095-16.764-4.359-26.09-6.822c7.839-6.629,14.947-12.739,22.216-18.647
				c0.775-0.63,2.56-0.36,3.765-0.058C354.878,1093.464,362.99,1095.626,372.069,1098.002z"/>
			<path fill-rule="evenodd" clip-rule="evenodd" fill="#FFFFFF" d="M353.227,1118.754c7.433-6.373,14.137-12.286,21.075-17.911
				c1.19-0.963,3.516-1.265,5.086-0.892c7.864,1.862,15.649,4.051,24.496,6.399c-3.632,3.295-7.155,5.824-9.839,9.048
				c-8.112,9.749-17.494,12.29-29.133,6.663C361.54,1120.431,357.614,1119.955,353.227,1118.754z"/>
			<path fill-rule="evenodd" clip-rule="evenodd" fill="#FFFFFF" d="M595.29,1126.953c-6.401,6.109-12.045,11.583-17.83,16.905
				c-0.684,0.63-2.214,0.813-3.195,0.572c-9.457-2.309-18.88-4.752-28.918-7.314c6.149-5.718,11.77-11.042,17.538-16.206
				c0.856-0.766,2.522-1.287,3.608-1.033C575.793,1122.038,585.047,1124.403,595.29,1126.953z"/>
			<path fill-rule="evenodd" clip-rule="evenodd" fill="#FFFFFF" d="M559.726,1084.178c6.607-6.06,12.373-11.521,18.378-16.703
				c1.185-1.023,3.443-1.619,4.967-1.292c8.395,1.797,16.715,3.941,26.02,6.2c-6.842,6.335-13.192,12.252-19.616,18.084
				c-0.493,0.449-1.587,0.571-2.295,0.401C578.328,1088.763,569.497,1086.574,559.726,1084.178z"/>
			<path fill-rule="evenodd" clip-rule="evenodd" fill="#FFFFFF" d="M619.152,1104.319c-6.124,5.85-11.521,11.107-17.065,16.202
				c-0.853,0.783-2.52,1.375-3.587,1.121c-9.299-2.216-18.544-4.646-28.773-7.257c6.29-5.847,11.89-11.14,17.628-16.278
				c0.705-0.632,2.227-0.808,3.229-0.578C599.846,1099.646,609.077,1101.902,619.152,1104.319z"/>
			<path fill-rule="evenodd" clip-rule="evenodd" fill="#FFFFFF" d="M511.409,1128.295c6.552-5.958,12.341-11.3,18.256-16.496
				c0.71-0.624,2.201-0.851,3.173-0.613c8.816,2.162,17.602,4.467,27.161,6.927c-6.26,5.779-12.012,11.161-17.885,16.407
				c-0.718,0.642-2.195,0.959-3.15,0.727C530.048,1133.092,521.172,1130.782,511.409,1128.295z"/>
			<path fill-rule="evenodd" clip-rule="evenodd" fill="#FFFFFF" d="M575.643,1064.418c-6.813,6.267-12.963,11.998-19.234,17.587
				c-0.686,0.609-2.166,0.765-3.142,0.541c-8.524-1.955-17.018-4.042-26.615-6.356c7.102-6.394,13.486-12.228,20.025-17.886
				c0.626-0.542,2.239-0.158,3.329,0.09C558.201,1060.275,566.384,1062.231,575.643,1064.418z"/>
			<path fill-rule="evenodd" clip-rule="evenodd" fill="#FFFFFF" d="M494.269,1068.28c6.789-6.01,12.692-11.318,18.716-16.477
				c0.887-0.76,2.481-1.348,3.561-1.121c8.514,1.796,16.982,3.809,26.284,5.942c-6.803,6.126-12.874,11.683-19.085,17.076
				c-0.836,0.725-2.489,1.083-3.587,0.832C511.827,1072.639,503.543,1070.547,494.269,1068.28z"/>
			<path fill-rule="evenodd" clip-rule="evenodd" fill="#FFFFFF" d="M583.972,1095.706c-6.25,5.856-11.604,10.974-17.111,15.923
				c-0.868,0.781-2.547,1.345-3.637,1.09c-8.81-2.061-17.568-4.339-27.347-6.806c6.419-5.842,12.065-11.061,17.846-16.131
				c0.689-0.604,2.185-0.714,3.176-0.489C565.579,1091.271,574.231,1093.377,583.972,1095.706z"/>
			<path fill-rule="evenodd" clip-rule="evenodd" fill="#FFFFFF" d="M526.206,1109.548c-6.393,5.865-11.936,11.045-17.618,16.067
				c-0.841,0.741-2.465,1.261-3.51,1.002c-8.635-2.133-17.217-4.478-26.752-7.004c6.449-5.814,12.344-11.19,18.345-16.443
				c0.617-0.54,1.964-0.646,2.842-0.428C508.122,1104.869,516.702,1107.108,526.206,1109.548z"/>
			<path fill-rule="evenodd" clip-rule="evenodd" fill="#FFFFFF" d="M430.519,1052.818c7.074-6.072,13.319-11.49,19.662-16.79
				c0.659-0.551,1.978-0.723,2.866-0.52c8.365,1.905,16.703,3.93,25.917,6.128c-6.857,5.927-13.068,11.341-19.36,16.663
				c-0.673,0.57-1.901,0.993-2.72,0.806C448.392,1057.165,439.929,1055.086,430.519,1052.818z"/>
			<path fill-rule="evenodd" clip-rule="evenodd" fill="#FFFFFF" d="M510.497,1049.109c-6.714,5.964-12.819,11.457-19.035,16.82
				c-0.772,0.667-2.234,1.119-3.197,0.895c-8.297-1.922-16.554-4.022-25.667-6.278c6.93-6.08,13.213-11.647,19.59-17.103
				c0.611-0.522,1.883-0.658,2.729-0.461C493.188,1044.896,501.431,1046.919,510.497,1049.109z"/>
			<path fill-rule="evenodd" clip-rule="evenodd" fill="#FFFFFF" d="M502.885,1097.594c6.364-5.78,11.962-10.896,17.62-15.943
				c0.547-0.487,1.556-0.9,2.21-0.748c8.928,2.075,17.829,4.258,27.555,6.611c-6.166,5.702-11.569,10.765-17.078,15.717
				c-0.791,0.71-2.208,1.415-3.115,1.199C521.268,1102.335,512.506,1100.044,502.885,1097.594z"/>
			<path fill-rule="evenodd" clip-rule="evenodd" fill="#FFFFFF" d="M445.676,1111.195c6.479-5.708,12.346-10.992,18.387-16.065
				c0.824-0.69,2.616-0.696,3.809-0.404c8.146,1.992,16.251,4.148,25.188,6.464c-6.304,5.73-12.065,11.084-18.007,16.23
				c-0.793,0.686-2.589,0.671-3.771,0.379C463.013,1115.761,454.785,1113.565,445.676,1111.195z"/>
			<path fill-rule="evenodd" clip-rule="evenodd" fill="#FFFFFF" d="M460.743,1092.993c-6.37,5.596-12.005,10.638-17.777,15.518
				c-0.901,0.762-2.568,1.311-3.656,1.042c-8.265-2.03-16.475-4.287-25.569-6.704c6.464-5.569,12.237-10.68,18.208-15.549
				c0.946-0.772,2.89-0.876,4.198-0.563C444.02,1088.612,451.841,1090.699,460.743,1092.993z"/>
			<path fill-rule="evenodd" clip-rule="evenodd" fill="#FFFFFF" d="M349.296,1086.133c6.206-5.199,11.567-9.852,17.138-14.241
				c1.285-1.01,3.452-1.843,4.931-1.509c8.177,1.849,16.266,4.086,25.505,6.479c-6.601,5.622-12.531,10.738-18.565,15.729
				c-0.623,0.518-1.924,0.613-2.782,0.396C367.051,1090.838,358.606,1088.583,349.296,1086.133z"/>
			<path fill-rule="evenodd" clip-rule="evenodd" fill="#FFFFFF" d="M428.928,1084.932c-6.479,5.633-12.164,10.649-17.956,15.535
				c-0.785,0.661-2.228,1.162-3.165,0.928c-8.418-2.109-16.796-4.395-26.161-6.891c6.509-5.546,12.275-10.6,18.242-15.402
				c0.94-0.756,2.885-0.774,4.204-0.46C412.065,1080.545,419.993,1082.643,428.928,1084.932z"/>
			<path fill-rule="evenodd" clip-rule="evenodd" fill="#FFFFFF" d="M470.294,1089.412c6.443-5.615,12.086-10.61,17.851-15.464
				c0.768-0.648,2.244-0.993,3.228-0.765c8.438,1.947,16.835,4.058,26.014,6.307c-6.226,5.571-11.834,10.66-17.55,15.624
				c-0.769,0.668-2.199,1.187-3.129,0.964C488.221,1094.044,479.78,1091.832,470.294,1089.412z"/>
			<path fill-rule="evenodd" clip-rule="evenodd" fill="#FFFFFF" d="M406.35,1073.363c6.511-5.53,12.13-10.345,17.821-15.073
				c0.679-0.563,1.855-1.073,2.634-0.893c8.61,1.996,17.188,4.131,26.533,6.416c-6.25,5.437-11.768,10.333-17.424,15.063
				c-0.901,0.752-2.543,1.286-3.632,1.029C423.967,1077.94,415.706,1075.757,406.35,1073.363z"/>
			<path fill-rule="evenodd" clip-rule="evenodd" fill="#FFFFFF" d="M421.402,1055.968c-6.27,5.397-11.575,10.117-17.086,14.586
				c-1.123,0.909-3.152,1.487-4.525,1.172c-8.204-1.878-16.336-4.063-25.494-6.401c6.374-5.474,12.157-10.504,18.051-15.398
				c0.611-0.505,1.951-0.45,2.856-0.238C403.69,1051.668,412.156,1053.737,421.402,1055.968z"/>
			<path fill-rule="evenodd" clip-rule="evenodd" fill="#FFFFFF" d="M438.467,1081.459c6.296-5.518,11.664-10.378,17.245-14.977
				c1.059-0.872,3.088-1.238,4.47-0.932c7.996,1.775,15.93,3.824,24.819,6.006c-6.267,5.539-11.993,10.675-17.846,15.664
				c-0.735,0.625-2.227,0.853-3.214,0.616C455.785,1085.889,447.667,1083.784,438.467,1081.459z"/>
		</g>
	</g>
</g>
</svg>
