<svg xmlns="http://www.w3.org/2000/svg" xmlns:xlink="http://www.w3.org/1999/xlink" width="11" height="9" viewBox="0 0 11 9">
  <defs>
    <style>
      .cls-1 {
        fill-rule: evenodd;
        fill: url(#linear-gradient);
      }
    </style>
    <linearGradient id="linear-gradient" x1="4672.5" y1="2579" x2="4672.5" y2="2570" gradientUnits="userSpaceOnUse">
      <stop offset="0" stop-color="#11998e"/>
      <stop offset="1" stop-color="#38ef7d"/>
    </linearGradient>
  </defs>
  <path class="cls-1" d="M4671.86,2570a7.694,7.694,0,0,1,4.04,1.27,4.547,4.547,0,0,1,1.23,1.59,7.917,7.917,0,0,1,.42.94c0.06,0.16.12,0.32,0.17,0.48,0.02,0.07.05,0.15,0.07,0.23l0.06,0.24a2.649,2.649,0,0,1-1.58,3.36c-1.41.7-2.67,0.63-4.57,0.86a4.1,4.1,0,0,1-3.5-1.26,3.479,3.479,0,0,1-1.2-2.94c-0.02-1.77.4-3.34,1.33-4.04,0.85-.73,2.32-0.66,3.53-0.73h0Z" transform="translate(-4667 -2570)"/>
</svg>
