<?xml version="1.0" encoding="utf-8"?>
<!-- Generator: Adobe Illustrator 21.1.0, SVG Export Plug-In . SVG Version: 6.00 Build 0)  -->
<svg version="1.1" id="Layer_1" xmlns="http://www.w3.org/2000/svg" xmlns:xlink="http://www.w3.org/1999/xlink" x="0px" y="0px"
	 viewBox="0 0 768 703.1" style="enable-background:new 0 0 768 703.1;" xml:space="preserve">
<style type="text/css">
	.st0{fill:#000000;}
</style>
<g>
	<g>
		<path class="st0" d="M234.5,643c-10.3,0-20.7,0-31,0c-0.9-0.1-1.7-0.4-2.6-0.4c-9.3-0.4-18.5-1.1-27.8-2.2
			c-6.8-0.8-13.5-1.8-20.2-3.1c-5.8-1.1-11.5-2.5-17.1-4.1c-8.5-2.4-16.9-5.3-24.9-9c-13.1-6-25-13.6-35.2-23.8
			c-11.6-11.6-19.5-25.3-23.7-41.1c-1.6-6.1-2.6-12.4-3.1-18.7c-0.8-9.8-0.5-19.6,1.3-29.2c1-5.1,2.3-10.1,4.1-15
			c4.6-12.4,11.9-23.1,21.4-32.2c9-8.7,19.3-15.4,30.6-20.7c9.6-4.5,19.5-7.8,29.8-10.2c0.4-0.1,0.9-0.1,1.2-0.6
			c-0.3-0.2-0.6-0.3-0.9-0.5c-5.5-2.5-10.5-5.7-15.1-9.7c-6.8-5.9-12.1-12.9-16.2-20.8c-4.2-8-6.5-16.5-6.6-25.6
			c0-2.9,0.2-5.7,0.4-8.6c0.3-4.6,1.3-9,2.8-13.4c2.5-7.6,6.6-14.3,11.9-20.3c5.7-6.4,12.2-12,19-17.2c4.9-3.7,10.1-7.1,15.3-10.4
			c0.3-0.2,0.6-0.4,1.1-0.8c-0.5-0.2-0.7-0.4-1-0.5c-8.7-3.9-16.9-8.8-24.3-14.8c-11.5-9.3-20.8-20.5-28.2-33.3
			c-5.5-9.5-9.6-19.7-12.3-30.3c-1.4-5.5-2.5-11.1-3.2-16.7c-0.5-4.5-0.8-9-1.1-13.6c-0.4-7.9-0.1-15.9,0.6-23.8
			c0.7-7.4,1.9-14.8,3.6-22.1c1.9-7.8,4.4-15.4,7.7-22.7c5.5-12.3,13-23.2,22.4-32.8c10.4-10.6,22.3-18.9,35.7-25.3
			c9.6-4.6,19.6-8.1,29.9-10.7c7.7-1.9,15.5-3.4,23.4-4.5c6.8-0.9,13.6-1.5,20.4-1.8c1.2-0.1,2.5-0.3,3.7-0.4c7.5,0,15,0,22.4,0
			c0.5,0.1,0.9,0.2,1.4,0.2c1.8,0.1,3.6,0.2,5.4,0.3c8,0.6,16.1,1.4,24,2.8c6,1,11.9,2.3,17.7,3.8c7.6,2,15,4.5,22.2,7.7
			c13.3,5.8,25.4,13.4,36.1,23.3c11,10.2,19.6,22.1,25.9,35.7c5.4,11.6,8.8,23.8,10.7,36.3c1,6.6,1.6,13.2,1.9,19.8
			c0.3,8,0.2,16-0.6,23.9c-0.7,6.9-1.8,13.8-3.6,20.6c-1.7,6.6-3.8,13-6.6,19.3c-4.7,10.8-11,20.7-18.6,29.7c-2.1,2.5-4.3,5-6.6,7.4
			c-1.9,1.9-4,3.6-6,5.3c-8.1,6.8-16.9,12.4-26.4,17.1c-7.3,3.6-14.9,6.6-22.6,9.1c-5.8,1.8-11.7,3.4-17.6,4.6
			c-4,0.8-8.1,1.6-12.1,2.2c-4.2,0.6-8.5,1.2-12.7,1.6c-5.1,0.5-10.1,0.8-15.2,1c-9.8,0.5-19.7,0.4-29.5-0.4
			c-5.6-0.4-11.2-1.1-16.7-2.2c-0.6-0.1-1,0.1-1.4,0.3c-1.2,0.8-2.5,1.6-3.7,2.4c-5.9,4.1-11.2,8.7-15.5,14.5
			c-5.6,7.5-8.4,15.9-7.7,25.3c0.1,1.8,0.5,3.6,1,5.3c1.6,5,4.8,8.7,9.1,11.6c4.3,2.9,9.1,4.4,14.1,5.6c6.7,1.5,13.5,2.3,20.3,2.6
			c6.3,0.3,12.6,0.4,18.9,0.4c22,0.1,44,0,66,0c10.5,0,21,0.4,31.4,1.6c6.5,0.7,13,1.8,19.4,3.1c6.5,1.4,12.9,3.2,19.1,5.4
			c10.6,3.8,20.6,8.8,29.6,15.6c8.8,6.6,16.2,14.4,22.1,23.6c5.1,8,8.8,16.6,11.4,25.7c1.7,6.1,2.9,12.3,3.6,18.6
			c0.6,5.2,0.8,10.5,0.9,15.7c0.1,10.9-0.8,21.6-3.2,32.3c-1.6,7-3.7,13.8-6.4,20.4c-6,14.1-14.5,26.5-25.4,37.2
			c-8.5,8.4-18.1,15.4-28.3,21.5c-9.7,5.7-19.8,10.4-30.4,14.3c-7.2,2.7-14.5,5-22,6.9c-4.1,1.1-8.2,2-12.4,3
			c-3.4,0.8-6.9,1.5-10.4,2.1c-3.6,0.7-7.2,1.3-10.8,1.8c-3.4,0.5-6.9,1-10.4,1.4c-4.7,0.6-9.4,1-14.2,1.5
			c-4.7,0.4-9.5,0.8-14.2,1.1c-4.5,0.3-9,0.4-13.5,0.6C235.9,642.6,235.2,642.9,234.5,643z M245.6,462.1
			C245.6,462.1,245.6,462.1,245.6,462.1c-13.4,0-26.9,0-40.3,0c-2,0-4,0-6,0.1c-9.4,0.4-18.6,1.7-27.7,4.4c-9.1,2.8-17.5,7-25,13
			c-6.6,5.3-12,11.7-15.7,19.5c-3,6.3-4.7,13-5.4,19.9c-0.6,6.3-0.5,12.5,0.9,18.7c1.6,7.2,4.8,13.7,9.6,19.3
			c4.5,5.2,9.9,9.3,15.9,12.7c7.8,4.4,16.1,7.3,24.7,9.4c5.1,1.2,10.2,2.2,15.3,2.8c5.5,0.7,10.9,1.2,16.4,1.4
			c11.6,0.6,23.3,0.3,34.9-0.3c7.3-0.4,14.7-0.9,22-1.9c5-0.7,10.1-1.4,15.1-2.3c5.9-1,11.7-2.4,17.4-4.1c6.4-1.8,12.7-4,18.8-6.9
			c9.6-4.5,18.4-10.1,25.9-17.6c8.8-8.8,14.5-19.2,16.2-31.7c1.1-8.4,0.7-16.8-1.8-24.9c-2-6.3-5.3-11.6-10.3-16
			c-4.7-4.2-10.1-6.9-16-8.8c-4.7-1.5-9.4-2.7-14.3-3.5c-4.9-0.7-9.7-1.5-14.6-2c-8-0.8-16-1.2-24-1.3
			C267,462,256.3,462.1,245.6,462.1z M312.4,188c-0.1-5.5-0.5-12.6-1.6-19.6c-1.1-6.7-2.7-13.3-5.1-19.7
			c-2.7-7.1-6.5-13.7-11.4-19.5c-8.3-9.7-18.9-15.8-31.2-19.1c-5.6-1.5-11.3-2.3-17-2.7c-8.3-0.6-16.5-0.3-24.8,0.9
			c-6.1,0.9-12.1,2.4-17.8,4.7c-11.6,4.6-20.8,12.1-27.8,22.5c-6.5,9.8-10,20.8-11.9,32.3c-0.8,4.6-1.2,9.2-1.4,13.9
			c-0.5,10.4-0.2,20.7,1.8,30.9c1.3,6.5,3.2,12.9,6,18.9c5.9,12.6,14.9,22.3,27.3,28.8c9.3,4.8,19.2,7.2,29.5,8.1
			c8.1,0.7,16.1,0.7,24.2-0.3c6.2-0.7,12.2-2.1,18.1-4.2c14.1-5.1,24.9-14.1,32.4-27.1c5.1-8.9,7.9-18.5,9.4-28.5
			C312,202.1,312.4,195.9,312.4,188z"/>
	</g>
	<g>
		<g>
			<path class="st0" d="M509.3,121.5l-1.8-6.4h-0.7c-1.5,2.3-3.5,4.1-6.2,5.4s-5.7,1.9-9.1,1.9c-5.8,0-10.2-1.6-13.2-4.7
				c-3-3.1-4.4-7.6-4.4-13.5V71.9h13.5v29c0,3.6,0.6,6.3,1.9,8.1c1.3,1.8,3.3,2.7,6.1,2.7c3.8,0,6.5-1.3,8.2-3.8
				c1.7-2.5,2.5-6.7,2.5-12.6V71.9h13.5v49.6H509.3z"/>
			<path class="st0" d="M579.7,121.5h-13.5v-29c0-3.6-0.6-6.3-1.9-8.1c-1.3-1.8-3.3-2.7-6.1-2.7c-3.8,0-6.5,1.3-8.2,3.8
				c-1.7,2.5-2.5,6.7-2.5,12.6v23.4h-13.5V71.9h10.3l1.8,6.4h0.8c1.5-2.4,3.6-4.2,6.2-5.4c2.6-1.2,5.7-1.8,9-1.8
				c5.8,0,10.2,1.6,13.1,4.7c3,3.1,4.5,7.6,4.5,13.5V121.5z"/>
			<path class="st0" d="M606.7,94.5l5.9-7.5l13.9-15.1h15.3L622,93.4l20.9,28.1h-15.6L613,101.4l-5.8,4.7v15.5h-13.5V52.4h13.5v30.8
				l-0.7,11.3H606.7z"/>
			<path class="st0" d="M671,111.6c2.4,0,5.2-0.5,8.5-1.6v10.1c-3.4,1.5-7.5,2.3-12.4,2.3c-5.4,0-9.4-1.4-11.8-4.1
				c-2.5-2.7-3.7-6.8-3.7-12.3V82H645v-5.7l7.5-4.5l3.9-10.5h8.7v10.6H679V82h-13.9V106c0,1.9,0.5,3.3,1.6,4.3
				C667.8,111.1,669.2,111.6,671,111.6z"/>
			<path class="st0" d="M724.2,106.8c0,5.1-1.8,9-5.3,11.6c-3.5,2.7-8.8,4-15.9,4c-3.6,0-6.7-0.2-9.2-0.7c-2.5-0.5-4.9-1.2-7.1-2.2
				v-11.2c2.5,1.2,5.4,2.2,8.5,3c3.2,0.8,5.9,1.2,8.3,1.2c4.9,0,7.4-1.4,7.4-4.3c0-1.1-0.3-1.9-1-2.6c-0.7-0.7-1.8-1.4-3.4-2.3
				c-1.6-0.8-3.7-1.8-6.4-3c-3.8-1.6-6.6-3.1-8.4-4.4c-1.8-1.4-3.1-2.9-3.9-4.7c-0.8-1.8-1.2-3.9-1.2-6.5c0-4.4,1.7-7.8,5.1-10.2
				c3.4-2.4,8.3-3.6,14.5-3.6c6,0,11.8,1.3,17.5,3.9l-4.1,9.8c-2.5-1.1-4.8-1.9-7-2.6c-2.2-0.7-4.4-1-6.6-1c-4,0-6,1.1-6,3.2
				c0,1.2,0.6,2.3,1.9,3.2c1.3,0.9,4.1,2.2,8.5,4c3.9,1.6,6.7,3,8.5,4.4c1.8,1.4,3.1,2.9,4,4.7C723.7,102.2,724.2,104.3,724.2,106.8
				z"/>
		</g>
		<g>
			<path class="st0" d="M407,141h-13.5V71.9H407V141z"/>
		</g>
		<circle class="st0" cx="436.3" cy="96.4" r="26.5"/>
	</g>
</g>
</svg>
