<?xml version="1.0" encoding="utf-8"?>
<!-- Generator: Adobe Illustrator 16.0.3, SVG Export Plug-In . SVG Version: 6.00 Build 0)  -->
<!DOCTYPE svg PUBLIC "-//W3C//DTD SVG 1.1//EN" "http://www.w3.org/Graphics/SVG/1.1/DTD/svg11.dtd">
<svg version="1.1" id="Layer_1" xmlns="http://www.w3.org/2000/svg" xmlns:xlink="http://www.w3.org/1999/xlink" x="0px" y="0px"
	 width="100px" height="100px" viewBox="0 0 100 100" enable-background="new 0 0 100 100" xml:space="preserve">
<g>
	<g>
		<path fill-rule="evenodd" clip-rule="evenodd" d="M49.05,52.5c-0.033,0-0.065,0-0.099,0c-0.067-0.037-0.133-0.081-0.204-0.11
			c-4.253-1.737-8.506-3.472-12.759-5.208c-2.261-0.924-4.521-1.85-6.781-2.775c0-8.386,0-16.771,0-25.157
			c0.03,0.01,0.062,0.018,0.091,0.031c6.494,2.695,12.987,5.393,19.483,8.083c0.201,0.083,0.274,0.175,0.273,0.402
			C49.048,36.01,49.05,44.254,49.05,52.5z"/>
		<path fill-rule="evenodd" clip-rule="evenodd" d="M70.793,19.25c0,2.389,0,4.778,0,7.167c-2.298,0.976-4.597,1.951-6.896,2.926
			c-2.022,0.858-4.045,1.716-6.066,2.576c-0.073,0.032-0.189,0.096-0.19,0.146c-0.014,0.571-0.009,1.143-0.009,1.737
			c0.102-0.038,0.17-0.061,0.235-0.089c4.226-1.791,8.449-3.581,12.675-5.371c0.079-0.034,0.167-0.049,0.251-0.073
			c0,2.405,0,4.81,0,7.215c-2.298,0.976-4.597,1.952-6.896,2.927c-2.022,0.858-4.045,1.715-6.066,2.576
			c-0.073,0.032-0.189,0.095-0.19,0.146c-0.014,0.522-0.009,1.045-0.009,1.591c0.102-0.039,0.17-0.062,0.235-0.089
			c4.226-1.791,8.449-3.582,12.675-5.372c0.079-0.033,0.167-0.049,0.251-0.073c0,2.405,0,4.81,0,7.215
			c-0.016,0.003-0.032,0.005-0.047,0.011c-5.828,2.38-11.655,4.759-17.483,7.14c-0.757,0.31-1.509,0.628-2.263,0.941
			c-0.017,0-0.033,0-0.049,0c0-8.247,0-16.495-0.005-24.741c0-0.195,0.048-0.295,0.241-0.374c2.209-0.898,4.415-1.799,6.615-2.715
			C62.135,22.869,66.464,21.058,70.793,19.25z"/>
		<path fill-rule="evenodd" clip-rule="evenodd" d="M50.024,12.425c0.255,0.095,0.507,0.199,0.765,0.284
			c5.646,1.857,11.294,3.711,16.94,5.566c0.073,0.025,0.146,0.055,0.271,0.103c-0.575,0.238-1.101,0.458-1.627,0.674
			c-5.395,2.218-10.791,4.436-16.186,6.657c-0.15,0.063-0.277,0.076-0.436,0.01c-5.822-2.412-11.645-4.818-17.468-7.226
			c-0.073-0.03-0.144-0.064-0.262-0.118c0.122-0.044,0.201-0.076,0.281-0.103c5.772-1.916,11.544-3.831,17.316-5.749
			c0.072-0.024,0.141-0.065,0.211-0.1C49.895,12.425,49.959,12.425,50.024,12.425z"/>
	</g>
	<g>
		<path stroke="#000000" stroke-width="0.5" stroke-miterlimit="10" d="M9.477,56.611h11.851v3.547h-8.007v3.253h7.564v3.549h-7.564
			v3.549h8.452v3.548H9.477V56.611z"/>
		<path stroke="#000000" stroke-width="0.5" stroke-miterlimit="10" d="M23.949,70.509l8.846-10.496H24.27v-3.401h13.183v3.401
			l-8.673,10.496h8.968v3.548H23.949V70.509z"/>
		<path stroke="#000000" stroke-width="0.5" stroke-miterlimit="10" d="M55.103,67.33c0,4.114-2.515,7.17-7.343,7.17
			c-4.856,0-7.367-3.056-7.367-7.17V56.611h3.843v10.571c0,2.143,1.479,3.77,3.524,3.77c2.02,0,3.498-1.627,3.498-3.77V56.611h3.845
			V67.33z"/>
		<path stroke="#000000" stroke-width="0.5" stroke-miterlimit="10" d="M58.659,56.611h6.751c3.573,0,6.579,1.231,6.579,5.297
			c0,2.44-1.304,4.338-3.77,4.78l4.436,7.368h-4.607l-3.646-6.974h-1.898v6.974h-3.845V56.611z M62.504,63.83h2.267
			c1.405,0,3.229-0.048,3.229-1.946c0-1.75-1.577-2.02-2.981-2.02h-2.514V63.83z"/>
		<path stroke="#000000" stroke-width="0.5" stroke-miterlimit="10" d="M83.112,56.168c5.446,0,9.412,3.573,9.412,9.165
			c0,5.594-3.966,9.167-9.412,9.167c-5.444,0-9.412-3.573-9.412-9.167C73.7,59.741,77.668,56.168,83.112,56.168z M83.112,70.952
			c3.277,0,5.422-2.365,5.422-5.619c0-3.253-2.145-5.618-5.422-5.618c-3.275,0-5.421,2.365-5.421,5.618
			C77.691,68.587,79.837,70.952,83.112,70.952z"/>
	</g>
</g>
</svg>
