<?xml version="1.0" encoding="utf-8"?>
<!-- Generator: Adobe Illustrator 15.0.0, SVG Export Plug-In . SVG Version: 6.00 Build 0)  -->
<!DOCTYPE svg PUBLIC "-//W3C//DTD SVG 1.1//EN" "http://www.w3.org/Graphics/SVG/1.1/DTD/svg11.dtd">
<svg version="1.1" id="Layer_1" xmlns="http://www.w3.org/2000/svg" xmlns:xlink="http://www.w3.org/1999/xlink" x="0px" y="0px"
	 width="500px" height="360px" viewBox="0 0 500 360" enable-background="new 0 0 500 360" xml:space="preserve">
<g>
	<g>
		<g>
			<path fill-rule="evenodd" clip-rule="evenodd" fill="#91E8E5" d="M232.534,103.566h186.057c0.015,1.504-0.038,3.014,0.058,4.512
				c0.377,5.806,0.799,11.609,1.212,17.412c0.388,5.444,0.76,10.891,1.176,16.333c1.255,16.395,2.529,32.787,3.791,49.18
				c0.783,10.153,1.534,20.31,2.342,30.462c0.755,9.476,1.594,18.946,2.339,28.423c0.819,10.459,1.546,20.919,2.364,31.377
				c0.796,10.213,1.665,20.418,2.475,30.629c0.222,2.819-1.643,4.058-4.214,2.896c-1.339-0.607-1.537-1.757-1.634-3.039
				c-0.696-9.049-1.418-18.096-2.138-27.145c-0.188-2.358-0.401-4.718-0.617-7.253c-6.881-0.32-13.586-0.634-20.343-0.949
				c-0.13,1.805-0.251,3.449-0.366,5.093c-0.563,8.075-1.121,16.152-1.693,24.227c-0.577,8.135-1.163,16.269-1.764,24.405
				c-0.289,3.908-0.526,7.825-0.952,11.721c-0.235,2.16-1.378,2.852-3.595,2.606c-1.904-0.209-2.739-1.176-2.723-3.2
				c0.01-0.796,0.068-1.593,0.125-2.388c0.339-4.896,0.657-9.794,1.032-14.687c0.42-5.498,0.915-10.988,1.332-16.483
				c0.252-3.274,0.416-6.559,0.628-9.995c-45.093-3.637-89.977-7.261-135.01-10.893c0.065,0.696,0.099,1.171,0.15,1.643
				c0.445,4.203,0.955,8.403,1.277,12.618c0.055,0.718-0.501,1.842-1.107,2.186c-2.027,1.141-4.676-0.338-4.936-2.644
				c-0.451-4.023-0.96-8.05-1.193-12.089c-0.105-1.808-0.715-2.372-2.468-2.495c-8.327-0.589-16.644-1.306-24.964-1.977
				c-2.659-0.214-5.319-0.425-8.095-0.645c-0.991,10.235-1.959,20.244-2.929,30.251c-0.534,5.498-1.046,10.996-1.622,16.49
				c-0.245,2.352-1.674,3.357-3.952,2.623c-0.943-0.304-1.684-1.24-2.517-1.886v-2.213c0.153-0.637,0.385-1.267,0.45-1.913
				c0.522-5.311,0.999-10.625,1.519-15.933c0.806-8.235,1.646-16.47,2.453-24.705c1.042-10.625,2.051-21.252,3.097-31.873
				c1.17-11.842,2.367-23.682,3.55-35.521c1.038-10.377,2.071-20.753,3.116-31.127c1.172-11.658,2.355-23.313,3.534-34.97
				c1.173-11.596,2.362-23.189,3.504-34.79C231.754,113.088,232.122,108.325,232.534,103.566"/>
			<path fill-rule="evenodd" clip-rule="evenodd" fill="#6CBABA" d="M418.576,104.505c0.1,2.973,0.101,5.953,0.315,8.916
				c1.019,13.991,2.097,27.978,3.147,41.966c1.101,14.616,2.167,29.234,3.295,43.848c0.743,9.595,1.597,19.185,2.348,28.781
				c0.819,10.512,1.543,21.03,2.371,31.543c0.999,12.653,2.075,25.302,3.1,37.955c0.421,5.19,0.827,10.385,1.188,15.578
				c0.148,2.107-0.405,2.781-2.123,2.909c-2.202,0.166-3.486-0.71-3.647-2.652c-0.631-7.636-1.212-15.276-1.821-22.913
				c-0.314-3.962-0.654-7.92-1.002-12.122c-6.995-0.343-13.896-0.679-20.801-1.019v-0.733c0.284-3.293,0.613-6.577,0.85-9.872
				c1.201-16.834,2.394-33.671,3.561-50.508c1.166-16.776,2.284-33.555,3.444-50.332c1.419-20.449,2.866-40.897,4.302-61.345
				H418.576z"/>
		</g>
		<g>
			<g>
				<path fill-rule="evenodd" clip-rule="evenodd" fill="#F3816F" d="M376.974,99.225c0-0.04,0-0.079,0-0.118
					c0.667,0,1.333,0,1.999,0c0,0.04,0,0.079,0,0.118C378.307,99.225,377.641,99.225,376.974,99.225z"/>
				<path fill-rule="evenodd" clip-rule="evenodd" fill="#F3816F" d="M339.222,137.213c0.039,0,0.078,0,0.117,0
					c0,0.393,0,0.785,0,1.176c-0.039,0-0.078,0-0.117,0C339.222,137.998,339.222,137.606,339.222,137.213z"/>
				<path fill-rule="evenodd" clip-rule="evenodd" fill="#F3816F" d="M350.159,110.987c0.382-0.481,0.813-0.912,1.293-1.294
					C351.07,110.173,350.64,110.604,350.159,110.987z"/>
				<path fill-rule="evenodd" clip-rule="evenodd" fill="#F3816F" d="M350.159,164.617c0.48,0.383,0.911,0.813,1.293,1.294
					C350.973,165.529,350.541,165.098,350.159,164.617z"/>
				<path fill-rule="evenodd" clip-rule="evenodd" fill="#F3816F" d="M378.973,99.225c10.791,0.304,20.169,5.114,25.994,10.938
					c6.182,6.182,10.673,14.376,11.525,25.168c0,1.647,0,3.293,0,4.939c-0.799,11.125-5.601,19.126-11.644,25.169
					c-6.028,6.03-14.492,10.421-25.876,10.937c-0.666,0-1.332,0-1.999,0c-11.506-0.49-19.205-4.785-25.521-10.467
					c-0.382-0.48-0.813-0.911-1.293-1.294c-5.584-5.982-9.745-13.385-10.704-23.993c-0.075-0.55,0.156-1.408-0.116-1.764
					c0-0.157,0-0.313,0-0.471c0-0.392,0-0.783,0-1.176c0-0.157,0-0.313,0-0.47c0.272-0.356,0.041-1.213,0.116-1.764
					c0.967-10.601,5.119-18.012,10.704-23.992c0.48-0.382,0.911-0.814,1.293-1.294c6.322-5.676,14.018-9.977,25.521-10.468
					C377.641,99.225,378.307,99.225,378.973,99.225z"/>
				<path fill-rule="evenodd" clip-rule="evenodd" fill="#F3816F" d="M339.455,134.979c-0.075,0.551,0.156,1.408-0.116,1.764
					C339.415,136.192,339.186,135.334,339.455,134.979z"/>
				<path fill-rule="evenodd" clip-rule="evenodd" fill="#F3816F" d="M416.609,135.332c0,1.647,0,3.293,0,4.939
					c-0.04,0-0.077,0-0.117,0c0-1.646,0-3.292,0-4.939C416.532,135.332,416.569,135.332,416.609,135.332z"/>
				<path fill-rule="evenodd" clip-rule="evenodd" fill="#F3816F" d="M339.339,138.86c0.272,0.356,0.041,1.213,0.116,1.764
					C339.186,140.269,339.415,139.412,339.339,138.86z"/>
				<path fill-rule="evenodd" clip-rule="evenodd" fill="#F3816F" d="M376.974,176.377c0.667,0,1.333,0,1.999,0
					c0,0.04,0,0.08,0,0.119c-0.666,0-1.332,0-1.999,0C376.974,176.457,376.974,176.417,376.974,176.377z"/>
			</g>
			<g>
				<path fill-rule="evenodd" clip-rule="evenodd" fill="#F8A879" d="M350.477,164.72c0.519,0.422,0.992,0.892,1.412,1.413
					C351.368,165.711,350.898,165.241,350.477,164.72z"/>
				<path fill-rule="evenodd" clip-rule="evenodd" fill="#F8A879" d="M350.477,164.72c-2.275-2.551-4.503-5.149-6.003-8.475
					c11.347-5.995,22.491-12.19,33.897-18.125c5.686-11.617,11.287-23.316,17.066-34.839c11.677,6.252,19.93,15.929,21.539,32.249
					c0,1.649,0,3.297,0,4.944c-0.881,10.94-5.428,19.081-11.417,25.07c-5.986,5.985-14.379,10.294-25.424,11.064
					c-1.137,0-2.275,0-3.413,0c-11.063-0.705-18.657-4.883-24.834-10.475C351.469,165.612,350.995,165.142,350.477,164.72z"/>
				<path fill-rule="evenodd" clip-rule="evenodd" fill="#F8A879" d="M417.094,135.53c0,1.649,0,3.297,0,4.944
					c-0.039,0-0.078,0-0.117,0c0-1.646,0-3.295,0-4.944C417.016,135.53,417.055,135.53,417.094,135.53z"/>
				<path fill-rule="evenodd" clip-rule="evenodd" fill="#F8A879" d="M376.723,176.608c1.138,0,2.276,0,3.413,0
					c0,0.038,0,0.077,0,0.117c-1.137,0-2.275,0-3.413,0C376.723,176.685,376.723,176.646,376.723,176.608z"/>
			</g>
			<g>
				<path fill-rule="evenodd" clip-rule="evenodd" fill="#B8DD63" d="M350.288,164.833c0.599,0.5,1.147,1.049,1.647,1.647
					C351.337,165.98,350.786,165.431,350.288,164.833z"/>
				<path fill-rule="evenodd" clip-rule="evenodd" fill="#B8DD63" d="M376.515,176.831c0.59,0,1.176,0,1.766,0
					c-0.356,0.271-1.213,0.042-1.766,0.117C376.515,176.91,376.515,176.87,376.515,176.831z"/>
				<path fill-rule="evenodd" clip-rule="evenodd" fill="#B8DD63" d="M350.288,164.833c-2.245-2.498-4.382-5.104-5.882-8.35
					c11.26-6.07,22.632-12.023,33.757-18.229c0.273,12.623,0.038,25.757,0.117,38.577c-0.59,0-1.176,0-1.766,0
					c-10.948-0.695-18.43-4.858-24.579-10.351C351.436,165.882,350.887,165.333,350.288,164.833z"/>
			</g>
		</g>
		<g>
			<g>
				
					<rect x="229.363" y="270.37" transform="matrix(0.9975 0.0701 -0.0701 0.9975 20.0401 -21.2222)" fill-rule="evenodd" clip-rule="evenodd" fill="#6CBABA" width="165.638" height="8.702"/>
				
					<rect x="230.432" y="255.179" transform="matrix(0.9975 0.0701 -0.0701 0.9975 18.9774 -21.3347)" fill-rule="evenodd" clip-rule="evenodd" fill="#6CBABA" width="165.636" height="8.703"/>
				
					<rect x="231.574" y="237.866" transform="matrix(0.9975 0.0702 -0.0702 0.9975 17.6922 -19.3349)" fill-rule="evenodd" clip-rule="evenodd" fill="#6CBABA" width="105.086" height="8.701"/>
			</g>
			
				<rect x="233.598" y="196.172" transform="matrix(0.9975 0.0701 -0.0701 0.9975 15.4908 -16.9786)" fill-rule="evenodd" clip-rule="evenodd" fill="#CCCCCC" width="31.962" height="31.962"/>
			
				<rect x="277.934" y="199.29" transform="matrix(0.9975 0.0701 -0.0701 0.9975 15.8188 -20.0801)" fill-rule="evenodd" clip-rule="evenodd" fill="#CCCCCC" width="31.961" height="31.962"/>
			
				<rect x="322.619" y="202.267" transform="matrix(0.9975 0.0702 -0.0702 0.9975 16.1528 -23.2265)" fill-rule="evenodd" clip-rule="evenodd" fill="#CCCCCC" width="31.961" height="31.963"/>
			
				<rect x="366.956" y="205.384" transform="matrix(0.9975 0.0702 -0.0702 0.9975 16.4733 -26.3194)" fill-rule="evenodd" clip-rule="evenodd" fill="#CCCCCC" width="31.961" height="31.962"/>
		</g>
		<g>
			<path fill-rule="evenodd" clip-rule="evenodd" fill="#FAA979" d="M322.104,100.947c-0.537-0.266-0.819-0.823-1.253-1.178
				c-0.859-0.694-1.869-1.312-2.829-1.963c-0.94-0.638-1.985-1.535-3.298-1.571c-0.42,1.229-0.623,2.674-1.178,3.77
				c-0.056,0.389,1.031,0.886,1.493,1.257c0.503,0.404,1.106,0.986,1.414,1.334c1.333,1.522,2.643,3.436,3.688,5.339
				c1.084,1.974,1.864,4.224,2.356,6.674c0.462,0.314,1.246-0.123,1.49-0.316c0.742-0.579,1.204-1.865,1.258-2.903
				C325.441,107.469,323.128,103.271,322.104,100.947z"/>
			<path fill-rule="evenodd" clip-rule="evenodd" fill="#FAA979" d="M344.562,105.421c-0.208,2.149-0.998,3.716-2.279,4.79
				c0.611,0.475,1.599,0.875,2.434,1.334c2.438,1.342,4.529,2.645,6.519,4.634c1.726,1.727,3.493,4.056,5.968,5.181
				c0.663,0.304,2.213,0.953,2.982,0.629c0.827-0.349,0.771-1.843,1.1-2.669c0-0.497,0-0.995,0-1.491
				C359.771,109.631,350.983,108.709,344.562,105.421z"/>
			<path fill-rule="evenodd" clip-rule="evenodd" fill="#B5CCCE" d="M304.204,127.721c0.049,0.264-0.103,0.73,0.078,0.863
				C304.233,128.319,304.383,127.856,304.204,127.721z"/>
			<path fill-rule="evenodd" clip-rule="evenodd" fill="#B5CCCE" d="M286.145,143.346c0.049,0.239-0.102,0.674,0.077,0.785
				C286.175,143.893,286.322,143.454,286.145,143.346z"/>
			<path fill-rule="evenodd" clip-rule="evenodd" fill="#B5CCCE" d="M286.222,145.387c0,0.916,0,1.832,0,2.747
				C286.354,147.401,286.354,146.12,286.222,145.387z"/>
			<path fill-rule="evenodd" clip-rule="evenodd" fill="#B5CCCE" d="M286.222,149.626c-0.179,0.161-0.026,0.651-0.077,0.941
				C286.323,150.408,286.173,149.916,286.222,149.626z"/>
			<path fill-rule="evenodd" clip-rule="evenodd" fill="#B5CCCE" d="M285.596,157.871c-0.179,0.108-0.029,0.546-0.081,0.785
				C285.694,158.548,285.547,158.11,285.596,157.871z"/>
			<path fill-rule="evenodd" clip-rule="evenodd" fill="#B5CCCE" d="M285.515,159.678c-0.181,0.73-0.025,1.804-0.076,2.668
				C285.621,161.613,285.464,160.54,285.515,159.678z"/>
			<path fill-rule="evenodd" clip-rule="evenodd" fill="#B5CCCE" d="M284.653,172.632c-0.18,0.109-0.03,0.545-0.081,0.786
				C284.753,173.309,284.604,172.869,284.653,172.632z"/>
			<path fill-rule="evenodd" clip-rule="evenodd" fill="#B5CCCE" d="M284.572,174.123c-0.178,0.135-0.026,0.6-0.076,0.865
				C284.675,174.852,284.524,174.387,284.572,174.123z"/>
			<path fill-rule="evenodd" clip-rule="evenodd" fill="#B5CCCE" d="M284.496,175.694c-0.179,0.134-0.027,0.598-0.081,0.862
				C284.596,176.423,284.445,175.958,284.496,175.694z"/>
			<path fill-rule="evenodd" clip-rule="evenodd" fill="#FAA979" d="M290.541,175.773c-0.482,1.007-0.754,2.229-1.101,3.377
				c0.551,0.352-0.031,0.821,0.079,1.333c0.113,0.53,1.177,1.13,1.809,1.413c0.898,0.405,2.357,1.037,2.667,0.55
				c0.745-1.454,1.298-3.097,1.964-4.631C293.509,177.777,291.941,176.86,290.541,175.773z"/>
			<path fill-rule="evenodd" clip-rule="evenodd" fill="#B5CCCE" d="M284.415,177.344c-0.177,0.135-0.026,0.599-0.075,0.861
				C284.519,178.072,284.365,177.606,284.415,177.344z"/>
			<path fill-rule="evenodd" clip-rule="evenodd" fill="#B5CCCE" d="M284.34,178.991c-0.181,0.185-0.028,0.707-0.079,1.02
				C284.439,179.828,284.287,179.308,284.34,178.991z"/>
			<path fill-rule="evenodd" clip-rule="evenodd" fill="#B5CCCE" d="M284.261,181.033c-0.183,0.211-0.028,0.758-0.079,1.098
				C284.363,181.92,284.21,181.376,284.261,181.033z"/>
			<path fill-rule="evenodd" clip-rule="evenodd" fill="#B5CCCE" d="M284.182,183.23c-0.183,0.473-0.026,1.283-0.079,1.886
				C284.285,184.645,284.131,183.833,284.182,183.23z"/>
			<path fill-rule="evenodd" clip-rule="evenodd" fill="#B5CCCE" d="M284.103,186.216c-0.182,0.261-0.028,0.86-0.079,1.255
				C284.206,187.207,284.053,186.608,284.103,186.216z"/>
			<path fill-rule="evenodd" clip-rule="evenodd" fill="#B5CCCE" d="M284.023,188.648c-0.181,0.344-0.025,1.021-0.078,1.493
				C284.127,189.8,283.973,189.123,284.023,188.648z"/>
			<path fill-rule="evenodd" clip-rule="evenodd" fill="#B5CCCE" d="M289.363,190.375c-0.288,0-0.577,0-0.863,0
				C288.61,190.507,289.253,190.507,289.363,190.375z"/>
			<path fill-rule="evenodd" clip-rule="evenodd" fill="#B5CCCE" d="M283.945,192.184c-0.181,0.548-0.025,1.437-0.078,2.119
				C284.051,193.75,283.895,192.862,283.945,192.184z"/>
			<path fill-rule="evenodd" clip-rule="evenodd" fill="#B5CCCE" d="M283.867,195.559c-0.181,0.212-0.026,0.757-0.079,1.099
				C283.971,196.445,283.817,195.9,283.867,195.559z"/>
			<path fill-rule="evenodd" clip-rule="evenodd" fill="#539798" d="M306.952,199.013c0.108,0.132,0.752,0.132,0.862,0
				C307.526,199.013,307.237,199.013,306.952,199.013z"/>
			<path fill-rule="evenodd" clip-rule="evenodd" fill="#B5CCCE" d="M283.476,202.392c-0.181,0.105-0.031,0.545-0.078,0.781
				C283.575,203.065,283.426,202.628,283.476,202.392z"/>
			<path fill-rule="evenodd" clip-rule="evenodd" fill="#B5CCCE" d="M283.397,203.96c-0.183,0.264-0.027,0.862-0.08,1.256
				C283.499,204.952,283.346,204.354,283.397,203.96z"/>
			<path fill-rule="evenodd" clip-rule="evenodd" fill="#FAA979" d="M282.455,207.021c-1.275,0.787-3.461,1.117-5.341,0.631
				c0,0.234,0,0.469,0,0.705c-0.051,0.995,0.075,1.812,0.079,2.75c0.564-0.312,0.138,0.857,0.471,1.018
				c1.415,0.413,4.069,0.331,5.262-0.233C282.958,210.076,282.697,208.56,282.455,207.021z"/>
			<path fill-rule="evenodd" clip-rule="evenodd" fill="#539798" d="M305.693,216.13c-0.082-0.13-0.699-0.13-0.783,0
				C305.173,216.13,305.434,216.13,305.693,216.13z"/>
			<path fill-rule="evenodd" clip-rule="evenodd" fill="#539798" d="M293.761,221.627c0.368-0.052,0.94,0.103,1.179-0.08
				c-0.396,0-0.787,0-1.179,0C293.761,221.571,293.761,221.601,293.761,221.627z"/>
			<path fill-rule="evenodd" clip-rule="evenodd" fill="#B5CCCE" d="M293.761,221.627c0-0.026,0-0.056,0-0.08
				c-0.395,0-0.785,0-1.179,0C292.819,221.729,293.393,221.575,293.761,221.627z"/>
			<path fill-rule="evenodd" clip-rule="evenodd" fill="#539798" d="M308.836,74.801c-0.361-0.426-0.75-0.818-1.18-1.178
				C308.018,74.048,308.409,74.442,308.836,74.801z"/>
			<path fill-rule="evenodd" clip-rule="evenodd" fill="#B5CCCE" d="M318.335,85.479c-1.066-1.132-2.165-2.231-3.296-3.297
				C316.104,83.313,317.203,84.414,318.335,85.479z"/>
			<path fill-rule="evenodd" clip-rule="evenodd" fill="#539798" d="M320.22,87.363c-0.595-0.661-1.222-1.289-1.885-1.884
				C318.933,86.141,319.559,86.769,320.22,87.363z"/>
			<path fill-rule="evenodd" clip-rule="evenodd" fill="#B5CCCE" d="M243.904,38.919c0.528-0.465,1.026-0.962,1.49-1.492
				C244.865,37.892,244.369,38.389,243.904,38.919z"/>
			<path fill-rule="evenodd" clip-rule="evenodd" fill="#9BC143" d="M276.564,35.386c0.755,3.985,2.173,7.278,4.947,9.03
				c0.483,0.305,2.066,1.204,2.67,1.098c0.493-0.086,0.815-1.042,1.178-1.414c0.591-0.606,1.266-0.921,1.963-1.255
				c5.886,11.152,12.944,21.131,20.334,30.778c0.361,0.425,0.753,0.819,1.18,1.178c2.149,2.376,3.969,5.085,6.203,7.38
				c1.064,1.131,2.164,2.232,3.296,3.297c0.598,0.662,1.224,1.29,1.885,1.884c5.218,4.878,10.903,9.335,17.273,13.427
				c1.44,0.924,3.124,1.99,4.947,2.748c1.128,0.469,2.225,0.315,2.121,1.884c-0.208,2.149-0.998,3.716-2.279,4.79
				c-1.026,0.62-2.346-0.07-3.61-0.551c-0.939-0.355-1.818-0.774-2.514-1.098c-4.974-2.314-10.003-4.826-14.055-7.616
				c-0.537-0.266-0.819-0.823-1.253-1.178c-0.859-0.694-1.869-1.312-2.829-1.963c-0.94-0.638-1.985-1.535-3.298-1.571
				c-0.42,1.229-0.623,2.674-1.178,3.77c-0.556,0.629-2.059-0.007-2.983-0.235c-2.793-0.689-5.15-1.083-8.164-1.492
				c-3.865-0.523-7.399-1.247-10.837-2.042c-3.272-0.756-6.256-2.304-9.106-3.768c-1.303-0.668-2.8-1.383-4.162-2.276
				c-0.784-0.516-2.951-2.687-3.848-2.67c-0.563,0.012-1.512,0.81-2.197,1.178c-2.305,1.232-5.111,2.075-7.381,2.984
				c-9.968,3.988-20.689,6.816-34.705,6.438c-1.393-0.075-2.9-0.03-4.083-0.314c-0.681-2.328-0.763-5.257-0.941-8.087
				c0-0.471,0-0.942,0-1.413c-0.051-0.839,0.104-1.885-0.079-2.592c0-0.785,0-1.571,0-2.355c0.18-0.16,0.028-0.653,0.079-0.943
				c0.025-4.757,0.788-9.523,1.882-13.741c2.174-8.362,5.877-14.787,9.974-21.121c2.047-3.167,4.471-5.86,6.91-8.636
				c0.528-0.465,1.026-0.962,1.49-1.492c7.283-6.068,16.057-12.499,30.148-10.835C275.987,29.383,276.02,32.498,276.564,35.386z
				 M294.152,79.198c-5.778-6.157-10.703-13.167-14.524-21.279c-0.897,1.836-1.263,3.945-1.964,6.124
				c-0.286,0.898-0.662,1.918-0.941,3.063c-0.253,1.048-0.689,2.437-0.549,3.455c0.131,0.967,1.104,2.343,1.569,3.22
				c1.123,2.111,2.141,4.09,3.534,6.046c0.648,0.913,1.336,1.977,2.04,2.669c0.66,0.646,1.698,1.209,2.59,1.805
				c2.588,1.727,5.669,3.227,8.952,4.161c4.575,1.305,9.41,2.655,13.819,3.69c-4.187-3.507-8.347-7.043-12.326-10.756
				C295.65,80.63,294.92,79.898,294.152,79.198z"/>
			<path fill-rule="evenodd" clip-rule="evenodd" fill="#2A7D7D" d="M313.546,100.004c-0.556,0.629-2.059-0.007-2.983-0.235
				c-2.793-0.689-5.15-1.083-8.164-1.492c-3.865-0.523-7.399-1.247-10.837-2.042c-3.272-0.756-6.256-2.304-9.106-3.768
				c-1.303-0.668-2.8-1.383-4.162-2.276c-0.784-0.516-2.951-2.687-3.848-2.67c-0.563,0.012-1.512,0.81-2.197,1.178
				c-2.305,1.232-5.111,2.075-7.381,2.984c-9.968,3.988-20.689,6.816-34.705,6.438c0.716,1.377,1.8,2.387,2.747,3.533
				c1.158,1.093,2.284,2.219,3.377,3.377c0.232,0.108,0.317,0.363,0.549,0.471c0.321,0.255,0.61,0.542,0.866,0.863
				c0.18,0.053,0.21,0.261,0.391,0.315c0.322,0.254,0.609,0.543,0.864,0.863c0.231,0.109,0.316,0.362,0.55,0.472
				c0.399,0.333,0.766,0.7,1.099,1.098c0.257,0.136,0.372,0.416,0.628,0.549c0.74,0.675,1.445,1.382,2.121,2.122
				c0.241,0.175,0.451,0.385,0.627,0.627c0.504,0.438,0.978,0.91,1.414,1.413c5.36,6.131,9.93,13.05,13.82,20.651
				c0.302,0.298,0.455,0.748,0.628,1.178c2.34,4.968,4.373,10.169,6.438,15.625c2.027,5.35,3.323,11.274,4.632,17.43
				c2.213,10.424,3.821,21.737,4.789,33.762c0.147,1.833,0.012,4.682,1.177,5.103c0.126-0.021,0.138,0.074,0.236,0.08
				c1.88,0.486,4.065,0.156,5.341-0.631c0.772-0.115,0.95-0.826,0.862-1.805c0.053-0.394-0.103-0.992,0.08-1.256
				c0-0.262,0-0.524,0-0.787c0.047-0.236-0.103-0.676,0.078-0.781c0.017-2,0.244-3.788,0.313-5.734
				c0.053-0.342-0.102-0.887,0.079-1.099c0-0.419,0-0.839,0-1.256c0.053-0.683-0.103-1.571,0.078-2.119c0-0.68,0-1.363,0-2.042
				c0.053-0.473-0.103-1.149,0.078-1.493c0-0.393,0-0.785,0-1.178c0.051-0.395-0.103-0.994,0.079-1.255c0-0.369,0-0.735,0-1.1
				c0.053-0.603-0.104-1.413,0.079-1.886c0-0.365,0-0.732,0-1.1c0.051-0.34-0.104-0.887,0.079-1.098c0-0.339,0-0.679,0-1.022
				c0.051-0.313-0.102-0.834,0.079-1.02c0-0.262,0-0.524,0-0.787c0.049-0.262-0.102-0.726,0.075-0.861c0-0.262,0-0.524,0-0.788
				c0.054-0.264-0.098-0.728,0.081-0.862c0-0.236,0-0.471,0-0.707c0.05-0.265-0.102-0.729,0.076-0.865c0-0.234,0-0.47,0-0.706
				c0.051-0.241-0.099-0.677,0.081-0.786c0.055-3.635,0.582-6.799,0.785-10.285c0.051-0.865-0.104-1.938,0.076-2.668
				c0-0.342,0-0.682,0-1.022c0.052-0.239-0.098-0.677,0.081-0.785c0.118-2.499,0.495-4.741,0.549-7.304
				c0.051-0.29-0.102-0.78,0.077-0.941c0-0.497,0-0.994,0-1.493c0-0.916,0-1.831,0-2.747c0-0.418,0-0.837,0-1.256
				c-0.179-0.111-0.028-0.546-0.077-0.785c-0.999-10.747-5.001-19.266-9.656-26.852c-0.598-0.972-1.647-2.37-1.493-3.69
				c0.253-2.183,2.672-1.59,4.865-1.257c8.582,1.304,15.786,3.63,20.888,8.244c0.348,0.282,0.661,0.596,0.942,0.942
				c1.476,1.691,2.45,3.883,2.514,6.988c0.179,0.135,0.029,0.599,0.078,0.863c0.137,4.875-0.831,9.165-2.042,13.113
				c-2.941,9.588-6.652,18.275-10.443,27.401c-0.34,0.821-0.648,1.664-1.098,2.672c-0.67,1.497-1.806,3.05-0.158,4.004
				c1.4,1.087,2.968,2.004,5.418,2.041c1.095,0.088,2.104-2.214,2.747-3.298c4.899-8.234,9.072-17.169,13.585-25.675
				c1.282-2.417,2.383-5.095,3.455-7.773c1.063-2.658,2.344-5.286,3.219-8.008c0.881-2.756,1.841-5.638,2.59-8.636
				c0.769-3.068,1.479-6.371,0.943-9.814c-0.492-2.45-1.272-4.7-2.356-6.674c-1.046-1.903-2.355-3.816-3.688-5.339
				c-0.308-0.348-0.911-0.93-1.414-1.334C314.577,100.891,313.49,100.393,313.546,100.004z"/>
			<path fill-rule="evenodd" clip-rule="evenodd" fill="#539798" d="M296.353,81.396c-0.702-0.765-1.433-1.497-2.2-2.197
				C294.854,79.962,295.586,80.696,296.353,81.396z"/>
			<path fill-rule="evenodd" clip-rule="evenodd" fill="#B5CCCE" d="M245.395,113.823c-0.437-0.503-0.91-0.974-1.414-1.413
				C244.42,112.914,244.89,113.384,245.395,113.823z"/>
			<path fill-rule="evenodd" clip-rule="evenodd" fill="#B5CCCE" d="M259.843,135.651c-0.173-0.43-0.326-0.88-0.628-1.178
				C259.433,134.856,259.579,135.312,259.843,135.651z"/>
			<path fill-rule="evenodd" clip-rule="evenodd" fill="#B5CCCE" d="M277.114,207.651c-0.099-0.006-0.11-0.102-0.236-0.08
				c0.305,0.037,0.027,0.652,0.236,0.785C277.114,208.12,277.114,207.886,277.114,207.651z"/>
			<path fill-rule="evenodd" clip-rule="evenodd" fill="#B5CCCE" d="M301.69,120.732c-0.281-0.347-0.595-0.661-0.942-0.942
				C301.029,120.138,301.344,120.45,301.69,120.732z"/>
			<path fill-rule="evenodd" clip-rule="evenodd" fill="#B5CCCE" d="M299.336,188.18c-0.31-0.377-0.65-0.716-1.021-1.022
				C298.621,187.53,298.963,187.871,299.336,188.18z"/>
			<path fill-rule="evenodd" clip-rule="evenodd" fill="#9BC143" d="M289.44,179.15c-2.844-0.309-2.864,2.21-3.296,4.318
				c0.129,0.365,0.129,1.279,0,1.648c-0.063,2.238,0.556,3.79,1.414,5.104c0.258,0.108,0.547,0.183,0.941,0.155
				c0.286,0,0.575,0,0.863,0c0.198-0.008,0.304-0.112,0.313-0.313c0.052-0.525-0.103-1.257,0.08-1.648
				c0.079-0.105,0.074-0.292,0.234-0.313c1.22,1.213,1.798,2.779,2.826,4.084c0.984,1.242,2.419,2.229,3.77,3.218
				c2.481,1.817,6.518,3.231,10.365,3.611c0.285,0,0.574,0,0.862,0c1.428,0.024,3.477-0.125,3.377-1.648
				c-0.062-0.919-2.184-1.779-2.983-2.275c-3.326-2.066-6.438-4.589-8.872-6.909c-0.373-0.309-0.715-0.649-1.021-1.022
				c-1.653-1.504-2.154-4.141-3.612-5.81c-0.201,0.4-0.358,0.847-0.707,1.098c-0.31,0.487-1.769-0.145-2.667-0.55
				c-0.632-0.283-1.695-0.883-1.809-1.413C289.409,179.971,289.991,179.502,289.44,179.15z"/>
			<path fill-rule="evenodd" clip-rule="evenodd" fill="#B5CCCE" d="M286.145,183.468c0,0.549,0,1.099,0,1.648
				C286.273,184.747,286.273,183.833,286.145,183.468z"/>
			<path fill-rule="evenodd" clip-rule="evenodd" fill="#B5CCCE" d="M289.757,188.413c-0.183,0.392-0.028,1.123-0.08,1.648
				C289.861,189.669,289.705,188.938,289.757,188.413z"/>
			<path fill-rule="evenodd" clip-rule="evenodd" fill="#B5CCCE" d="M304.125,216.13c-1.336,0-2.67,0-4.004,0
				C301.271,216.259,302.972,216.259,304.125,216.13z"/>
			<path fill-rule="evenodd" clip-rule="evenodd" fill="#9BC143" d="M300.121,216.13c-5.555-0.381-10.042-1.589-13.507-3.849
				c-1.183-0.77-2.25-1.734-3.61-2.196c-0.069,0.583,0.431,1.524-0.078,1.806c-1.192,0.564-3.847,0.646-5.262,0.233
				c-0.333-0.16,0.094-1.329-0.471-1.018c-0.991,0.24-1.162,2.746-1.1,3.845c0.125,2.141,1.467,5.236,2.671,6.596
				c0.485,0.547,1.007,1.272,1.334,1.334c0.287,0,0.577,0,0.863,0c0.799-0.409,1.805-0.791,1.884-1.49
				c0.082-0.734-0.777-1.136-0.628-2.278c0.875-0.192,1.511,0.476,2.197,0.865c2.153,1.215,4.796,1.535,8.167,1.569
				c0.394,0,0.784,0,1.179,0c0.392,0,0.783,0,1.179,0c3.492-0.146,7.497-0.913,9.971-2.512c0.701-0.451,2.275-2.254,0.783-2.905
				c-0.26,0-0.521,0-0.783,0c-0.262,0-0.523,0-0.785,0C302.972,216.259,301.271,216.259,300.121,216.13z"/>
			<g>
				<path fill-rule="evenodd" clip-rule="evenodd" fill="#FAA979" d="M276.564,26.671c-0.346-0.021-0.608-0.125-1.021-0.079
					c0.444,2.791,0.477,5.906,1.021,8.793c0.755,3.985,2.173,7.278,4.947,9.03c0.483,0.305,2.066,1.204,2.67,1.098
					c0.493-0.086,0.815-1.042,1.178-1.414c0.591-0.606,1.266-0.921,1.963-1.255c1.963-2.206,5.632-0.564,7.852,0.314
					c3.895,1.544,8.21,1.172,10.442-1.649c1.268,0.386,2.355,1.352,3.847,1.257c0.827-0.889-0.338-1.662-0.393-2.592
					c-0.078-1.368,1.094-2.449,1.099-3.926c0.96-1.267,1.715-2.736,2.437-4.24c-3.431-0.41-5.681-3.137-8.873-3.926
					c-0.336-0.082-0.729-0.147-1.099-0.157c-0.794-0.019-1.764,0.458-2.592,0.314c-0.53-0.092-0.802-0.712-1.336-0.943
					c-2.397-1.037-4.202,1.782-4.004,4.476C289.19,35.435,277.718,32.994,276.564,26.671z"/>
				<path fill-rule="evenodd" clip-rule="evenodd" fill="#FAA979" d="M277.299,20.64c-0.349-0.021-0.607-0.125-1.021-0.077
					c0.442,2.791,0.473,5.905,1.021,8.793c0.753,3.985,2.172,7.278,4.945,9.029c0.483,0.306,2.067,1.206,2.67,1.099
					c0.495-0.086,0.816-1.041,1.178-1.413c0.593-0.606,1.266-0.921,1.962-1.255c1.962-2.207,5.634-0.565,7.854,0.313
					c3.893,1.542,8.21,1.174,10.44-1.648c1.271,0.386,2.356,1.354,3.85,1.257c0.827-0.89-0.342-1.661-0.393-2.592
					c-0.081-1.368,1.093-2.448,1.097-3.925c0.96-1.267,1.716-2.737,2.435-4.241c-3.429-0.409-5.68-3.136-8.87-3.925
					c-0.335-0.083-0.728-0.148-1.102-0.157c-0.791-0.019-1.761,0.458-2.589,0.314c-0.532-0.092-0.804-0.712-1.336-0.942
					c-2.398-1.038-4.203,1.781-4.005,4.476C289.925,29.404,278.448,26.963,277.299,20.64z"/>
			</g>
			<path fill-rule="evenodd" clip-rule="evenodd" fill="#485D70" d="M318.714,22.817l-0.313-1.45
				c-0.245-0.404-0.485-0.81-0.744-1.204c-0.572-0.878-1.152-1.747-1.729-2.62c-0.501-0.756-0.561-1.562-0.27-2.407
				c0.145-0.425,0.398-0.855,0.402-1.283c0.008-0.825,0.074-1.673-0.303-2.472c-0.458-0.981-0.859-2.013-1.736-2.693
				c-0.904-0.706-1.827-1.446-2.858-1.914c-1.84-0.839-3.833-1.154-5.859-0.954c-0.837,0.081-1.712,0.196-2.471,0.526
				c-0.825,0.358-1.547,0.965-2.286,1.498c-0.299,0.213-0.567,0.483-0.791,0.773c-0.52,0.683-0.914,1.42-0.991,2.313
				c-0.065,0.739-0.329,0.941-1.076,1.029c-0.092,0.009-0.181,0.009-0.271,0.017c-0.634,0.042-1.274,0.031-1.895,0.142
				c-0.939,0.171-1.809,0.536-2.657,1.017c-0.988,0.563-1.879,1.215-2.621,2.079c-1.061,1.227-2.118,2.456-3.404,3.472
				c-0.974,0.771-2.032,1.304-3.235,1.568c-1.859,0.407-3.584-0.12-5.28-0.789c-0.707-0.278-1.382-0.648-2.084-0.94
				c-2.015-0.832-4.159-1.005-6.3-1.122c-0.978-0.052-1.964-0.016-2.938,0.047c-0.995,0.066-1.998,0.138-2.967,0.35
				c-0.929,0.204-1.825,0.571-2.724,0.902c-1.228,0.452-2.411,0.99-3.416,1.858c-1.063,0.916-2.241,1.651-3.644,1.87
				c-0.916,0.14-1.855,0.121-2.783,0.175c-0.694,0.041-1.397,0.021-2.082,0.144c-0.732,0.131-1.445,0.386-2.156,0.608
				c-0.852,0.27-1.672,0.61-2.377,1.177c-0.12,0.095-0.256,0.169-0.39,0.246c-0.585,0.345-1.204,0.646-1.758,1.042
				c-0.954,0.676-1.868,1.415-2.802,2.12c-0.297,0.224-0.455,0.467-0.323,0.853c0.081,0.235,0.378,0.402,0.608,0.354
				c0.611-0.123,1.225-0.269,1.842-0.302c0.587-0.031,1.182,0.114,1.772,0.101c1.857-0.039,3.662,0.276,5.401,0.87
				c2.474,0.842,4.655,2.27,6.817,3.695c1.128,0.745,2.16,1.639,3.213,2.499c0.631,0.514,1.229,1.071,1.81,1.642
				c0.59,0.58,1.105,1.237,1.721,1.789c1.007,0.898,2.053,1.746,3.102,2.596c0.551,0.448,1.1,0.918,1.717,1.256
				c0.87,0.479,1.783,0.893,2.711,1.245c1.095,0.414,2.205,0.833,3.346,1.067c1.527,0.314,3.09,0.475,4.641,0.664
				c1.102,0.136,2.212,0.241,3.307-0.093c0.193-0.057,0.42-0.004,0.633-0.004l0.761-0.165c0.566-0.232,1.127-0.49,1.705-0.699
				c1.507-0.548,2.867-1.335,4.002-2.474c0.544-0.547,1.082-1.119,1.519-1.75c0.494-0.71,0.883-1.49,1.298-2.25
				c0.749-1.379,1.255-2.858,1.694-4.362c0.164-0.555,0.296-1.12,0.463-1.674c0.159-0.536,0.324-1.068,0.521-1.591
				c0.151-0.409,0.326-0.813,0.533-1.196c0.387-0.71,0.93-1.328,1.084-2.168c0.071-0.372,0.303-0.729,0.509-1.065
				c0.282-0.451,0.775-0.622,1.245-0.778c0.293-0.096,0.621-0.118,0.93-0.106c0.876,0.029,1.592,0.651,2.496,0.666
				c0.453,0.011,0.894,0.281,1.349,0.404c1.185,0.319,2.255,0.868,3.261,1.546c1.113,0.746,2.192,1.547,3.323,2.259
				c1.188,0.741,2.4,1.45,3.775,1.8c0.979,0.25,1.96,0.405,2.879-0.194c0.31-0.202,0.591-0.454,0.865-0.703
				c0.266-0.243,0.563-0.477,0.752-0.774c0.78-1.225,1.396-2.513,1.533-3.995c0.114-1.26,0.359-2.513-0.031-3.767
				C318.657,23.042,318.703,22.923,318.714,22.817"/>
			<g>
				<path fill-rule="evenodd" clip-rule="evenodd" fill="#FB836F" d="M310.471,36.723c-0.656-1.428-1.792,1.041-2.199,1.57
					c-0.13,0.171-0.457,0.587-0.626,0.707c-0.728,0.507-2.959,0.876-2.279,2.434c0.493,1.122,2.693,1.034,3.77,1.885
					c0.106,0,0.21,0,0.315,0c1.245-0.26,0.043-1.608-0.08-2.434c-0.208-1.45,0.97-2.774,1.1-3.848
					C310.471,36.932,310.471,36.828,310.471,36.723z"/>
				<path fill-rule="evenodd" clip-rule="evenodd" fill="#FB836F" d="M298.222,24.592c-0.131,0-0.261,0-0.392,0
					c-1.772,0.478-2.51,1.992-2.904,3.847c0,0.236,0,0.472,0,0.706c0.259,1.315,1.469,3.386,2.59,3.377
					c1.781-0.017,0.267-1.815,0.393-2.749c0.17-1.235,2.559-1.808,2.591-3.063C300.53,25.5,299.156,24.887,298.222,24.592z"/>
			</g>
		</g>
	</g>
	<g>
		<g>
			<path fill-rule="evenodd" clip-rule="evenodd" fill="#9BC143" d="M132.349,185.313c1.725,0.16,3.448,0.37,5.176,0.477
				c16.684,1.037,33.37,2.054,50.054,3.079c2.667,0.164,5.332,0.339,8.167,0.518c0,2.161,0.046,4.272-0.044,6.373
				c-0.016,0.362-0.563,0.783-0.956,1.03c-3.915,2.46-7.833,4.914-11.79,7.304c-0.823,0.499-1.05,1.038-0.933,1.951
				c1.523,11.813,3.03,23.627,4.516,35.441c1.402,11.147,2.767,22.299,4.168,33.44c1.486,11.82,2.997,23.635,4.494,35.451
				c0.862,6.814,1.69,13.629,2.606,20.438c0.169,1.24-0.21,1.956-1.331,2.333c-0.638,0.214-1.291,0.439-1.954,0.522
				c-1.874,0.235-2.364-0.216-2.621-2.094c-1.475-10.833-2.968-21.667-4.456-32.499c-0.611-4.449-1.226-8.899-1.843-13.347
				c-0.063-0.452-0.146-0.896-0.247-1.499c-0.477,0.254-0.846,0.427-1.194,0.636c-3.651,2.156-7.287,4.337-10.958,6.458
				c-0.731,0.423-0.963,0.868-0.91,1.711c0.787,12.19,1.536,24.383,2.295,36.574c0.462,7.45,0.91,14.9,1.407,22.349
				c0.054,0.813-0.228,1.265-0.942,1.361c-1.118,0.15-2.269,0.32-3.38,0.211c-1.268-0.125-1.957-0.785-2.06-2.32
				c-0.836-12.44-1.781-24.876-2.71-37.312c-0.519-6.933-1.073-13.866-1.611-20.798c-0.019-0.249-0.058-0.495-0.07-0.604
				c-10.14-0.582-20.191-1.161-30.384-1.746c-0.057,0.667-0.132,1.28-0.157,1.897c-0.437,11.149-0.871,22.297-1.293,33.447
				c-0.07,1.805-0.226,2.051-2.019,2.453c-0.489,0.11-1.014,0.147-1.512,0.099c-1.79-0.185-2.16-0.6-2.119-2.379
				c0.273-11.45,0.535-22.902,0.867-34.354c0.038-1.29-0.3-1.649-1.579-1.698c-4.449-0.176-8.894-0.482-13.338-0.749
				c-0.414-0.024-0.824-0.125-1.372-0.215c-0.277,2.331-0.561,4.628-0.825,6.928c-0.922,8.087-1.84,16.172-2.753,24.259
				c-0.942,8.342-1.878,16.684-2.808,25.025c-0.206,1.844-0.576,2.232-2.436,2.272c-0.542,0.012-1.102-0.062-1.625-0.201
				c-1.18-0.311-1.81-0.9-1.655-2.341c0.73-6.874,1.349-13.758,2.004-20.64c0.553-5.825,1.092-11.651,1.649-17.479
				c0.816-8.524,1.644-17.048,2.458-25.575c0.706-7.387,1.402-14.775,2.103-22.16c0.726-7.64,1.453-15.281,2.18-22.921
				c0.895-9.455,1.789-18.913,2.683-28.369c0.054-0.58,0.123-1.16,0.198-1.874c-5.005-0.416-9.935-0.822-14.879-1.232
				c-0.138-0.927-0.262-1.75-0.384-2.571v-4.839c8.539-3.357,17.081-6.708,25.611-10.084c1.669-0.659,3.299-1.423,4.946-2.138
				H132.349z M135.516,271.281c9.431,0.555,18.756,1.104,28.249,1.663c-0.139-2.113-0.255-4.045-0.399-5.976
				c-0.73-9.638-1.47-19.272-2.197-28.909c-0.684-9.045-1.372-18.092-2.008-27.141c-0.067-0.936-0.373-1.197-1.266-1.262
				c-4.907-0.354-9.806-0.776-14.71-1.168c-1.679-0.135-3.362-0.233-5.192-0.356C137.166,229.221,136.343,250.172,135.516,271.281
				 M121.586,206.799c-2.686,23.803-5.356,47.485-8.04,71.267c0.245,0,0.338,0.025,0.412-0.002c4.826-1.844,9.657-3.674,14.461-5.57
				c0.318-0.127,0.615-0.748,0.628-1.147c0.2-6.442,0.345-12.885,0.514-19.327c0.206-7.885,0.43-15.769,0.631-23.65
				c0.171-6.611,0.332-13.225,0.446-19.84c0.004-0.347-0.424-0.984-0.702-1.015C127.207,207.223,124.465,207.031,121.586,206.799
				 M167.174,210.47c1.31,21.055,2.605,41.898,3.911,62.881c4.326,0.239,8.561,0.474,12.913,0.715
				c-2.988-21.772-5.948-43.313-8.892-64.746c-1.35,0.504-2.549,1.183-3.825,1.366C169.994,210.87,168.635,210.565,167.174,210.47
				 M164.739,285.306c-0.184-2.429-0.361-4.781-0.547-7.27c-9.634-0.52-19.181-1.032-28.921-1.556v7.276
				C145.015,284.27,154.809,284.784,164.739,285.306 M128.809,277.51c-4.076,1.705-7.977,3.338-11.879,4.971
				c0.018,0.09,0.035,0.182,0.052,0.271c3.916,0.206,7.833,0.413,11.828,0.623V277.51z M171.774,284.444
				c3.253-1.804,6.332-3.509,9.41-5.218c-0.024-0.096-0.049-0.192-0.074-0.29c-3.179-0.168-6.36-0.334-9.684-0.512
				C171.546,280.482,171.654,282.362,171.774,284.444"/>
			<path fill-rule="evenodd" clip-rule="evenodd" fill="#B8DD63" d="M128.189,185.313h3.565c2.656,0.204,5.309,0.438,7.966,0.604
				c15.946,1.004,31.896,1.988,47.841,2.982c2.257,0.14,4.518,0.293,7.133,0.466c-0.694,0.457-1.065,0.719-1.453,0.954
				c-7.112,4.278-14.229,8.555-21.34,12.839c-0.5,0.301-0.961,0.665-1.441,0.996h-2.038c-0.828-0.113-1.653-0.263-2.488-0.341
				c-10.799-0.994-21.601-1.987-32.401-2.961c-10.802-0.975-21.607-1.928-32.409-2.896c-0.968-0.087-1.932-0.221-2.896-0.332
				c0.262-0.358,0.521-0.494,0.79-0.6c7.679-3.034,15.365-6.055,23.039-9.107C124.119,187.098,126.146,186.185,128.189,185.313"/>
		</g>
		<g>
			<path fill-rule="evenodd" clip-rule="evenodd" fill="#597387" d="M104.531,192.127v4.395c0.063,0.158,0.155,0.31,0.184,0.472
				c0.4,2.234,1.504,4.104,3.004,5.755c1.022,1.126,2.264,1.804,3.853,1.702c0.754-0.05,1.513-0.021,2.269-0.021
				c20.179-0.002,40.358-0.002,60.538,0.002c0.494,0,0.91-0.025,1.3-0.459c4.073-4.541,8.17-9.057,12.268-13.569
				c0.734-0.811,1.509-1.585,2.267-2.376v-2.196c-1.313,0.023-2.625,0.028-3.937,0.081c-0.541,0.021-0.708-0.145-0.705-0.699
				c0.026-2.997-0.001-5.993,0.031-8.989c0.005-0.342,0.186-0.76,0.423-1.011c1.141-1.2,2.337-2.348,3.491-3.536
				c0.205-0.213,0.405-0.52,0.428-0.797c0.051-0.625-0.01-1.26-0.025-1.893h-54.192c-0.213,0.206-0.397,0.456-0.643,0.605
				c-5.535,3.346-11.075,6.684-16.617,10.019c-2.917,1.755-5.792,3.589-8.772,5.227c-2.028,1.114-3.44,2.668-4.307,4.757
				C105.049,190.415,104.815,191.283,104.531,192.127"/>
			<path fill-rule="evenodd" clip-rule="evenodd" fill="#CCCCCC" d="M111.167,201.313h62.248c2.466-2.928,4.925-5.859,7.398-8.778
				c1.673-1.977,3.368-3.935,5.053-5.899c0-3.537,0.001-7.076-0.007-10.614c0-0.192-0.091-0.385-0.141-0.575
				c-0.155,0.204-0.292,0.429-0.469,0.615c-3.717,3.845-7.444,7.68-11.146,11.54c-0.428,0.446-0.855,0.603-1.462,0.604
				c-20.015,0.047-40.03,0.112-60.043,0.145c-0.808,0.003-1.279,0.252-1.563,0.956c-0.054,0.135-0.143,0.254-0.192,0.391
				c-0.383,1.061-0.76,2.124-1.14,3.187v4.36L111.167,201.313z"/>
			<path fill-rule="evenodd" clip-rule="evenodd" fill="#B8DD63" d="M93.213,172.599v4.395c0.064,0.156,0.155,0.308,0.185,0.471
				c0.399,2.232,1.503,4.104,3.003,5.754c1.022,1.125,2.263,1.803,3.854,1.702c0.754-0.05,1.512-0.022,2.268-0.022
				c20.181,0,40.358,0,60.538,0.003c0.494,0,0.911-0.026,1.3-0.462c4.073-4.538,8.169-9.053,12.268-13.568
				c0.735-0.81,1.511-1.583,2.267-2.374v-2.197c-1.313,0.024-2.625,0.029-3.936,0.082c-0.54,0.022-0.709-0.144-0.704-0.698
				c0.025-2.998-0.002-5.995,0.03-8.991c0.003-0.343,0.185-0.76,0.423-1.011c1.14-1.2,2.337-2.347,3.491-3.536
				c0.205-0.211,0.405-0.519,0.427-0.796c0.052-0.627-0.011-1.262-0.026-1.893h-54.191c-0.213,0.203-0.396,0.455-0.642,0.604
				c-5.535,3.346-11.076,6.684-16.617,10.018c-2.917,1.755-5.792,3.59-8.772,5.228c-2.028,1.113-3.44,2.667-4.307,4.758
				C93.731,170.888,93.497,171.754,93.213,172.599"/>
			<path fill-rule="evenodd" clip-rule="evenodd" fill="#CCCCCC" d="M99.85,181.785h62.249c2.464-2.927,4.923-5.86,7.396-8.78
				c1.673-1.974,3.368-3.933,5.053-5.9c0-3.537,0.003-7.074-0.006-10.612c-0.001-0.192-0.092-0.385-0.141-0.577
				c-0.156,0.207-0.292,0.432-0.471,0.617c-3.716,3.846-7.444,7.678-11.145,11.539c-0.429,0.447-0.856,0.605-1.462,0.606
				c-20.016,0.045-40.029,0.112-60.043,0.145c-0.807,0.002-1.278,0.253-1.563,0.957c-0.054,0.133-0.143,0.254-0.192,0.389
				c-0.384,1.062-0.76,2.125-1.139,3.188v4.36L99.85,181.785z"/>
			<path fill-rule="evenodd" clip-rule="evenodd" fill="#E8E8E8" d="M174.542,156.774c-0.001-0.192-0.091-0.384-0.141-0.576
				c-0.156,0.207-0.292,0.431-0.471,0.617c-3.716,3.846-7.444,7.679-11.145,11.539c-0.145,0.151-0.293,0.259-0.444,0.349v13.073
				c2.383-2.83,4.761-5.665,7.153-8.489c1.673-1.975,3.368-3.933,5.053-5.899C174.548,163.848,174.551,160.312,174.542,156.774z"/>
			<path fill-rule="evenodd" clip-rule="evenodd" fill="#F8A879" d="M111.558,148.188v4.395c0.064,0.158,0.155,0.308,0.185,0.471
				c0.399,2.234,1.503,4.104,3.004,5.753c1.022,1.127,2.263,1.805,3.854,1.703c0.753-0.051,1.512-0.021,2.268-0.021
				c20.18-0.001,40.359-0.001,60.538,0.003c0.495,0,0.911-0.026,1.3-0.461c4.073-4.54,8.17-9.054,12.268-13.57
				c0.736-0.809,1.511-1.582,2.268-2.374v-2.198c-1.312,0.022-2.625,0.029-3.936,0.082c-0.54,0.021-0.71-0.144-0.705-0.699
				c0.027-2.997-0.001-5.994,0.031-8.99c0.005-0.342,0.186-0.759,0.422-1.01c1.141-1.201,2.338-2.348,3.492-3.536
				c0.206-0.212,0.405-0.519,0.428-0.797c0.051-0.625-0.01-1.261-0.024-1.893h-54.192c-0.214,0.204-0.397,0.455-0.643,0.604
				c-5.534,3.347-11.075,6.684-16.616,10.019c-2.917,1.756-5.792,3.589-8.773,5.228c-2.028,1.115-3.439,2.668-4.307,4.758
				C112.076,146.477,111.841,147.343,111.558,148.188"/>
			<path fill-rule="evenodd" clip-rule="evenodd" fill="#CCCCCC" d="M118.195,157.373h62.248c2.464-2.927,4.923-5.857,7.396-8.776
				c1.673-1.977,3.368-3.935,5.054-5.899c0-3.539,0.001-7.077-0.006-10.616c-0.001-0.191-0.092-0.384-0.142-0.576
				c-0.155,0.206-0.292,0.431-0.469,0.617c-3.716,3.845-7.444,7.679-11.145,11.538c-0.428,0.449-0.857,0.605-1.464,0.606
				c-20.013,0.045-40.028,0.112-60.043,0.146c-0.808,0.003-1.278,0.251-1.563,0.955c-0.054,0.134-0.142,0.254-0.191,0.389
				c-0.384,1.061-0.76,2.126-1.14,3.188v4.36L118.195,157.373z"/>
			<path fill-rule="evenodd" clip-rule="evenodd" fill="#E8E8E8" d="M192.887,132.227c-0.001-0.193-0.092-0.385-0.142-0.578
				c-0.155,0.208-0.292,0.432-0.469,0.618c-3.716,3.845-7.445,7.679-11.145,11.539c-0.146,0.152-0.293,0.259-0.444,0.349v13.073
				c2.383-2.829,4.761-5.664,7.152-8.489c1.673-1.976,3.368-3.933,5.054-5.899C192.893,139.301,192.895,135.764,192.887,132.227z"/>
			<path fill-rule="evenodd" clip-rule="evenodd" fill="#E8E8E8" d="M185.859,176.022c0-0.193-0.09-0.385-0.141-0.576
				c-0.155,0.206-0.292,0.431-0.469,0.615c-3.717,3.846-7.444,7.68-11.145,11.541c-0.146,0.149-0.293,0.258-0.445,0.349v13.073
				c2.383-2.83,4.762-5.666,7.153-8.489c1.673-1.976,3.368-3.934,5.053-5.899C185.866,183.099,185.868,179.56,185.859,176.022z"/>
		</g>
	</g>
	<path fill-rule="evenodd" clip-rule="evenodd" fill="#2A7D7D" d="M443.281,332.682c-0.103-0.401-0.204-0.804-0.307-1.204
		c-0.044-0.43-0.106-0.858-0.123-1.289c-0.052-1.326,0.161-2.595,0.847-3.753c1.088-1.844,3.056-2.357,4.91-1.291
		c0.628,0.361,1.15,0.838,1.609,1.394c0.064,0.076,0.108,0.131,0.229,0.081c0.806-0.321,1.612-0.637,2.42-0.955
		c1.458-0.573,2.917-1.146,4.373-1.728c0.108-0.042,0.219-0.125,0.291-0.219c0.674-0.913,1.339-1.832,2.005-2.75
		c1.105-1.525,2.205-3.056,3.308-4.582c0.14-0.037,0.281-0.072,0.423-0.107c0.472,0.05,0.83,0.3,1.156,0.619
		c0.507,0.497,0.902,1.084,1.258,1.697c0.982,1.692,1.666,3.513,2.245,5.377c0.089,0.289,0.176,0.582,0.266,0.884
		c0.1-0.024,0.178-0.044,0.254-0.063c2.961-0.76,5.924-1.503,8.881-2.285c0.631-0.168,1.227-0.229,1.854-0.024
		c0.224,0.073,0.459,0.104,0.727,0.161c-0.388,0.364-0.735,0.703-1.096,1.024c-0.114,0.101-0.262,0.188-0.408,0.224
		c-3.191,0.823-6.384,1.64-9.579,2.458c-0.075,0.02-0.148,0.036-0.231,0.057c0.021,0.091,0.033,0.155,0.046,0.22
		c0.415,1.887,0.729,3.786,0.771,5.721c0.021,0.923-0.009,1.841-0.245,2.738c-0.13,0.492-0.323,0.946-0.762,1.253
		c-0.14,0.037-0.279,0.071-0.425,0.107c-0.316-0.158-0.633-0.32-0.952-0.473c-0.667-0.321-1.338-0.631-2.006-0.949
		c-1.813-0.862-3.625-1.727-5.439-2.588c-0.029-0.014-0.074-0.016-0.109-0.011c-0.742,0.095-1.484,0.188-2.224,0.281
		c-1.681,0.213-3.36,0.432-5.041,0.638c-0.131,0.017-0.174,0.063-0.2,0.189c-0.143,0.775-0.408,1.505-0.847,2.165
		c-1.074,1.616-2.926,2.083-4.628,1.163c-1.257-0.68-2.109-1.737-2.736-2.991C443.601,333.483,443.45,333.076,443.281,332.682"/>
	<path fill-rule="evenodd" clip-rule="evenodd" fill="#F3816F" d="M373.928,310.496c0.091,0.403,0.181,0.809,0.272,1.211
		c0.031,0.432,0.082,0.861,0.087,1.293c0.016,1.327-0.233,2.589-0.951,3.728c-1.14,1.813-3.12,2.271-4.944,1.153
		c-0.618-0.379-1.127-0.87-1.57-1.438c-0.063-0.078-0.104-0.134-0.227-0.087c-0.814,0.298-1.629,0.591-2.446,0.887
		c-1.473,0.532-2.948,1.063-4.419,1.604c-0.109,0.039-0.222,0.119-0.297,0.21c-0.7,0.895-1.39,1.795-2.081,2.693
		c-1.147,1.493-2.29,2.993-3.435,4.487c-0.141,0.033-0.283,0.064-0.426,0.096c-0.471-0.063-0.821-0.322-1.139-0.651
		c-0.493-0.511-0.872-1.108-1.209-1.731c-0.936-1.719-1.567-3.559-2.095-5.438c-0.081-0.292-0.159-0.587-0.241-0.892
		c-0.1,0.022-0.179,0.04-0.255,0.057c-2.981,0.677-5.964,1.337-8.941,2.036c-0.635,0.15-1.232,0.194-1.854-0.028
		c-0.221-0.079-0.456-0.115-0.722-0.181c0.398-0.354,0.754-0.682,1.123-0.993c0.117-0.098,0.268-0.181,0.415-0.213
		c3.213-0.732,6.427-1.46,9.644-2.188c0.077-0.018,0.149-0.032,0.233-0.05c-0.018-0.092-0.028-0.156-0.04-0.221
		c-0.361-1.898-0.622-3.806-0.61-5.74c0.006-0.924,0.061-1.84,0.322-2.73c0.144-0.488,0.35-0.938,0.796-1.231
		c0.141-0.033,0.282-0.063,0.429-0.096c0.311,0.167,0.623,0.338,0.938,0.499c0.659,0.34,1.32,0.668,1.979,1.006
		c1.788,0.912,3.574,1.826,5.364,2.738c0.029,0.015,0.074,0.018,0.109,0.014c0.744-0.073,1.489-0.146,2.23-0.219
		c1.686-0.166,3.371-0.337,5.057-0.496c0.132-0.014,0.176-0.059,0.206-0.184c0.164-0.771,0.45-1.493,0.906-2.141
		c1.12-1.586,2.983-2,4.659-1.033c1.237,0.715,2.06,1.795,2.652,3.066C373.63,309.686,373.77,310.096,373.928,310.496"/>
	<path fill-rule="evenodd" clip-rule="evenodd" fill="#539798" d="M259.139,323.059c0.506,0.021,1.051-0.074,1.513,0.078
		c8.139,2.713,16.262,5.469,24.404,8.164c0.712,0.234,1.595,0.336,2.285,0.123c0.607-0.178,1.063-0.879,1.582-1.352
		c-0.484-0.486-0.888-1.207-1.473-1.43c-2.75-1.039-5.553-1.926-8.334-2.887c-7.009-2.424-14.016-4.857-21.021-7.283
		c-1.39-0.48-2.782-0.48-4.127,0.113c-1.728,0.77-2.298,2.525-1.107,3.975c0.725,0.877,1.788,1.668,2.857,2.035
		c6.774,2.328,13.591,4.527,20.395,6.771c4.563,1.504,9.127,3.006,13.689,4.504c2.513,0.822,4.975,0.803,7.304-0.59
		c1.045-0.623,1.867-1.477,1.715-2.801c-0.139-1.242-1.024-1.924-2.151-2.318c-7.031-2.473-14.063-4.949-21.094-7.414
		c-4.887-1.717-9.781-3.398-14.652-5.152c-0.461-0.168-0.784-0.73-1.174-1.109c0.522-0.055,1.11-0.303,1.56-0.143
		c12.124,4.232,24.237,8.498,36.342,12.793c1.449,0.516,2.727,1.404,2.893,3.102c0.16,1.691-0.894,2.807-2.231,3.604
		c-3.231,1.922-6.57,1.779-10.047,0.623c-10.849-3.604-21.73-7.092-32.575-10.711c-1.37-0.457-2.767-1.219-3.81-2.199
		c-2.342-2.199-1.52-5.332,1.499-6.381c1.766-0.609,3.525-0.508,5.25,0.09c9.975,3.469,19.939,6.961,29.906,10.443
		c1.07,0.373,2.082,0.883,2.081,2.16c0,1.299-0.973,2.098-2.086,2.326c-1.254,0.258-2.704,0.475-3.874,0.102
		c-8.211-2.619-16.372-5.393-24.543-8.133c-0.387-0.131-0.715-0.43-1.076-0.648C259.074,323.361,259.106,323.209,259.139,323.059"/>
	<g>
		<g>
			<path fill="#91E8E5" d="M88.613,232.019c-0.06-1.512-0.059-3.028-0.185-4.534c-0.17-2.05-1.367-3.436-3.104-4.409
				c-0.809-0.454-1.682-0.663-2.607-0.662c-0.953,0.001-1.905,0-2.918,0c0-0.226,0-0.396,0-0.566
				c-0.006-1.592,0.021-3.188-0.037-4.777c-0.022-0.604-0.153-1.242-0.396-1.794c-0.41-0.923-1.116-1.533-2.218-1.526
				c-0.461,0.004-0.923-0.037-1.383-0.071c-0.128-0.01-0.255-0.064-0.382-0.099h-43.94c-0.127,0.034-0.253,0.089-0.383,0.099
				c-0.476,0.032-0.956,0.037-1.432,0.077c-1.385,0.112-2.404,1.029-2.573,2.421c-0.109,0.898-0.103,1.812-0.117,2.72
				c-0.018,1.13-0.004,2.262-0.004,3.462c-0.235,0.012-0.45,0.024-0.665,0.035c-1.129,0.059-2.266,0.062-3.388,0.188
				c-2.163,0.242-4.349,2.447-4.542,4.62c-0.142,1.602-0.148,3.215-0.22,4.822c-0.015,0.331-0.051,0.661-0.078,0.99v0.958
				c1.371,0.04,2.742,0.087,4.114,0.112c0.332,0.006,0.461,0.093,0.499,0.453c0.354,3.408,0.735,6.814,1.104,10.221
				c0.367,3.393,0.726,6.785,1.094,10.175c0.397,3.662,0.804,7.321,1.203,10.981c0.367,3.375,0.726,6.752,1.093,10.128
				c0.366,3.375,0.741,6.748,1.111,10.124c0.364,3.327,0.712,6.658,1.094,9.983c0.26,2.263,0.446,4.545,0.887,6.773
				c0.09,0.459,0.237,0.879,0.423,1.27c7.93,0.12,15.828,0.726,23.742,1.228c6.96,0.442,13.725,0.276,20.642,0.126
				c0.924-0.98,1.431-2.206,1.592-3.678c0.624-5.686,1.33-11.362,1.973-17.046c0.577-5.1,1.11-10.203,1.667-15.306
				c0.56-5.133,1.128-10.265,1.687-15.397c0.526-4.832,1.042-9.666,1.565-14.498c0.185-1.712,0.383-3.421,0.554-5.133
				c0.031-0.314,0.155-0.397,0.447-0.403c1.388-0.029,2.775-0.073,4.162-0.113v-0.862C88.665,232.745,88.628,232.382,88.613,232.019
				z"/>
			<path fill="#F3816F" d="M78.734,283.75H27.996c-0.047-0.459-0.09-0.919-0.14-1.377c-0.331-3.042-0.665-6.084-0.995-9.127
				c-0.337-3.104-0.67-6.21-1.007-9.315c-0.334-3.09-0.67-6.179-1.006-9.268c-0.307-2.82-0.616-5.64-0.923-8.459
				c-0.122-1.123-0.238-2.245-0.361-3.399h59.594c-0.021,0.275-0.036,0.527-0.063,0.777c-0.273,2.503-0.551,5.007-0.823,7.51
				c-0.334,3.074-0.663,6.148-0.997,9.224c-0.337,3.105-0.678,6.211-1.018,9.316c-0.334,3.058-0.673,6.116-1.004,9.174
				C79.075,280.454,78.907,282.102,78.734,283.75"/>
			<path fill="#F3816F" d="M88.69,233.874H18.04v-0.67c0.025-0.235,0.061-0.47,0.071-0.706c0.077-1.797,0.09-3.602,0.237-5.393
				c0.177-2.165,2.381-4.379,4.542-4.612c1.154-0.124,2.32-0.131,3.482-0.191c0.183-0.011,0.365-0.026,0.564-0.041
				c0-0.985-0.013-1.911,0.004-2.835c0.021-1.113,0.011-2.232,0.122-3.339c0.125-1.229,1.166-2.311,2.188-2.394
				c0.651-0.053,1.305-0.066,1.957-0.106c0.144-0.01,0.285-0.068,0.427-0.104h43.749c0.127,0.034,0.253,0.09,0.382,0.1
				c0.46,0.033,0.922,0.073,1.383,0.069c1.102-0.007,1.808,0.604,2.218,1.528c0.244,0.55,0.375,1.188,0.396,1.792
				c0.059,1.592,0.03,3.186,0.037,4.779c0,0.17,0,0.34,0,0.564c1.013,0,1.965,0.001,2.918,0c0.925-0.001,1.798,0.208,2.607,0.662
				c1.737,0.974,2.934,2.359,3.104,4.411c0.125,1.505,0.125,3.021,0.185,4.532c0.015,0.364,0.051,0.727,0.077,1.091V233.874z"/>
		</g>
		<ellipse fill="#91E8E5" cx="53.361" cy="303.326" rx="22.941" ry="5.674"/>
	</g>
</g>
</svg>
