<?xml version="1.0" encoding="utf-8"?>
<!-- Generator: Adobe Illustrator 16.0.3, SVG Export Plug-In . SVG Version: 6.00 Build 0)  -->
<!DOCTYPE svg PUBLIC "-//W3C//DTD SVG 1.1//EN" "http://www.w3.org/Graphics/SVG/1.1/DTD/svg11.dtd">
<svg version="1.1" id="Layer_1" xmlns="http://www.w3.org/2000/svg" xmlns:xlink="http://www.w3.org/1999/xlink" x="0px" y="0px"
	 width="500px" height="360px" viewBox="0 0 500 360" enable-background="new 0 0 500 360" xml:space="preserve">
<g>
	<path fill-rule="evenodd" clip-rule="evenodd" fill="#2A7D7D" d="M127.526,273.139h-18.351c-0.367-0.062-0.732-0.153-1.102-0.176
		c-4.064-0.259-8.134-0.437-12.193-0.762c-13.712-1.103-27.234-3.307-40.451-7.198c-8.085-2.379-15.928-5.359-23.186-9.721
		c-4.199-2.522-8.032-5.474-11.083-9.365c-1.849-2.357-2.925-5.06-3.74-7.894v-14.275c1.132,0,2.269-0.069,3.394,0.021
		c1.291,0.101,2.296-0.203,3.158-1.256c0.686-0.836,1.575-1.517,2.424-2.202c6.244-5.039,13.409-8.37,20.872-11.108
		c9.44-3.462,19.176-5.794,29.088-7.455c8.787-1.472,17.622-2.48,26.519-2.942c2.104-0.111,4.202-0.287,6.302-0.431h18.351
		c0.48,0.065,0.958,0.165,1.441,0.193c3.576,0.209,7.172,0.247,10.729,0.637c6.97,0.759,13.942,1.552,20.868,2.622
		c10.83,1.672,21.407,4.392,31.616,8.428c6.656,2.628,13.01,5.817,18.573,10.404c1.231,1.018,2.295,2.469,3.705,2.974
		c1.437,0.515,3.203,0.115,4.826,0.115v14.048c-0.203,0.721-0.391,1.444-0.616,2.159c-1.457,4.697-4.591,8.173-8.296,11.191
		c-6.217,5.068-13.391,8.387-20.847,11.134c-9.72,3.58-19.757,5.952-29.965,7.631c-8.563,1.409-17.176,2.362-25.846,2.804
		C131.65,272.823,129.589,272.997,127.526,273.139"/>
	<path fill-rule="evenodd" clip-rule="evenodd" fill="#539798" d="M210.89,209.646c-2.037-1.663-4.207-3.196-6.451-4.569
		c-7.259-4.43-15.159-7.379-23.281-9.771c-4.372-1.286-8.782-2.367-13.221-3.302c-0.639,0.073-1.326,0.055-2.063-0.082
		c-1.911-0.355-3.837-0.881-5.775-1.306c-1.879-0.122-3.726-0.382-5.555-0.685c-0.687,0.009-1.375,0.057-2.063,0.165
		c-1.278,0.204-2.523-0.073-3.611-0.665c-2.788-0.345-5.58-0.596-8.373-0.776c-0.46,0.047-0.923,0.105-1.389,0.182
		c-1.443,0.237-2.668,0.039-3.675-0.446c-8.042-0.315-16.104-0.192-24.173-0.183c-0.79,0.002-1.519-0.111-2.182-0.321
		c-4.424,0.323-8.839,0.766-13.235,1.35c-5.417,0.722-10.936,1.074-16.305,2.093c-4.638,0.883-9.563,0.935-13.985,2.644
		c-1.166,0.451-2.253,0.561-3.243,0.426c-3.889,1.236-7.753,2.576-11.685,3.719c-8.268,2.399-16.98,6.494-23.849,11.758
		c-0.217,0.167-0.437,0.316-0.656,0.451c-0.223,0.235-0.447,0.47-0.688,0.689c-0.708,1.075-1.798,1.898-3.313,2.218
		c-1.787,2.071-3.233,4.401-4.091,7.16c-0.222,0.713-0.407,1.435-0.609,2.152v4.079c1.135,5.43,4.239,9.643,8.491,12.957
		c2.958,2.309,6.127,4.41,9.41,6.229c8.028,4.445,16.708,7.262,25.562,9.533c11.529,2.956,23.252,4.775,35.112,5.695
		c3.909,0.301,7.828,0.487,11.74,0.735c0.484,0.032,0.961,0.128,1.442,0.193h18.351c2.138-0.147,4.274-0.322,6.413-0.438
		c8.856-0.477,17.652-1.469,26.402-2.934c9.907-1.665,19.64-3.994,29.079-7.451c7.499-2.746,14.709-6.083,20.958-11.174
		c3.704-3.02,6.836-6.496,8.294-11.191c0.221-0.716,0.408-1.438,0.61-2.156v-4.079C218.157,217.16,215.041,213.036,210.89,209.646"
		/>
	<path fill-rule="evenodd" clip-rule="evenodd" fill="#B8DD63" d="M109.257,187.203h18.351c0.443,0.064,0.883,0.174,1.329,0.188
		c11.667,0.388,23.238,1.661,34.726,3.728c1.776,0.32,3.543,0.713,5.629,1.136c-0.652,0.416-0.995,0.639-1.341,0.855
		c-16.174,10.116-32.349,20.234-48.522,30.354c-0.311,0.196-0.587,0.443-0.882,0.668h-1.585c-1.337-0.177-2.671-0.382-4.009-0.525
		c-8.964-0.966-17.93-1.925-26.897-2.872c-9.641-1.016-19.286-2.012-28.929-3.023c-9.905-1.04-19.809-2.089-29.714-3.139
		c-1.854-0.196-3.706-0.413-5.56-0.622c-0.052-0.109-0.104-0.215-0.156-0.321c1.55-1.465,3.018-3.031,4.664-4.381
		c6.24-5.112,13.454-8.451,20.958-11.206c9.445-3.464,19.185-5.799,29.1-7.462c8.793-1.474,17.631-2.483,26.535-2.947
		C105.056,187.524,107.156,187.35,109.257,187.203"/>
	<path fill-rule="evenodd" clip-rule="evenodd" fill="#F3816F" d="M109.315,187.203h18.351c0.442,0.064,0.883,0.174,1.327,0.188
		c11.667,0.386,23.24,1.661,34.725,3.728c1.779,0.32,3.545,0.714,5.575,1.125c-0.542,0.372-0.811,0.568-1.092,0.744
		c-15.087,9.439-30.178,18.874-45.262,28.315c-1.462,0.917-2.891,1.885-4.334,2.829h-0.453
		c-6.569-12.028-13.138-24.057-19.775-36.207c1.396-0.093,2.562-0.172,3.729-0.247C104.508,187.521,106.911,187.361,109.315,187.203
		"/>
</g>
<g>
	<path fill-rule="evenodd" clip-rule="evenodd" fill="#9BC143" d="M302.143,331.713h16.48c0.331-0.055,0.658-0.139,0.991-0.16
		c3.649-0.228,7.303-0.391,10.949-0.684c12.314-0.989,24.457-2.968,36.325-6.463c7.261-2.137,14.303-4.812,20.822-8.729
		c3.769-2.265,7.214-4.914,9.952-8.409c1.663-2.118,2.627-4.544,3.361-7.092v-12.817c-1.018,0-2.039-0.063-3.051,0.019
		c-1.158,0.091-2.061-0.182-2.835-1.128c-0.615-0.749-1.412-1.36-2.177-1.977c-5.607-4.525-12.041-7.518-18.743-9.976
		c-8.479-3.11-17.222-5.203-26.121-6.696c-7.892-1.32-15.825-2.229-23.815-2.643c-1.889-0.099-3.771-0.256-5.659-0.386h-16.48
		c-0.431,0.059-0.861,0.148-1.293,0.174c-3.213,0.188-6.441,0.222-9.635,0.57c-6.258,0.684-12.521,1.395-18.739,2.354
		c-9.726,1.503-19.226,3.945-28.394,7.569c-5.977,2.361-11.683,5.227-16.678,9.345c-1.107,0.913-2.062,2.216-3.327,2.67
		c-1.291,0.463-2.876,0.104-4.333,0.104v12.614c0.181,0.647,0.35,1.3,0.55,1.941c1.31,4.218,4.125,7.339,7.451,10.05
		c5.584,4.55,12.025,7.531,18.723,9.998c8.729,3.216,17.741,5.345,26.908,6.854c7.69,1.267,15.426,2.12,23.211,2.518
		C298.44,331.429,300.29,331.584,302.143,331.713"/>
	<path fill-rule="evenodd" clip-rule="evenodd" fill="#B8DD63" d="M227.28,274.694c1.829-1.494,3.778-2.871,5.792-4.103
		c6.519-3.98,13.613-6.626,20.908-8.775c3.926-1.156,7.888-2.126,11.873-2.967c0.574,0.066,1.19,0.05,1.854-0.073
		c1.715-0.317,3.444-0.79,5.186-1.17c1.688-0.111,3.347-0.345,4.988-0.615c0.618,0.007,1.233,0.048,1.853,0.147
		c1.148,0.182,2.267-0.068,3.243-0.599c2.504-0.308,5.011-0.533,7.519-0.697c0.415,0.045,0.828,0.096,1.248,0.164
		c1.295,0.213,2.396,0.035,3.3-0.4c7.223-0.283,14.463-0.173,21.706-0.164c0.712,0,1.366-0.102,1.961-0.287
		c3.974,0.287,7.938,0.685,11.888,1.21c4.863,0.648,9.819,0.965,14.643,1.881c4.165,0.79,8.586,0.839,12.559,2.373
		c1.046,0.404,2.022,0.505,2.91,0.382c3.494,1.11,6.962,2.313,10.495,3.339c7.424,2.156,15.25,5.833,21.415,10.561
		c0.198,0.149,0.395,0.283,0.59,0.404c0.201,0.212,0.403,0.424,0.619,0.619c0.636,0.966,1.612,1.705,2.974,1.993
		c1.606,1.859,2.903,3.953,3.672,6.429c0.2,0.64,0.367,1.288,0.55,1.935v3.662c-1.021,4.875-3.807,8.657-7.627,11.636
		c-2.656,2.072-5.499,3.96-8.45,5.593c-7.209,3.992-15.003,6.522-22.955,8.562c-10.354,2.655-20.881,4.289-31.531,5.115
		c-3.513,0.272-7.03,0.436-10.545,0.66c-0.433,0.028-0.862,0.114-1.293,0.174h-16.48c-1.92-0.133-3.839-0.29-5.759-0.392
		c-7.953-0.428-15.851-1.319-23.708-2.638c-8.898-1.491-17.639-3.585-26.116-6.69c-6.734-2.466-13.208-5.461-18.819-10.033
		c-3.327-2.711-6.14-5.834-7.45-10.052c-0.2-0.64-0.368-1.29-0.548-1.935v-3.662C220.755,281.442,223.553,277.738,227.28,274.694"/>
	<path fill-rule="evenodd" clip-rule="evenodd" fill="#F3816F" d="M318.549,254.54H302.07c-0.398,0.058-0.793,0.156-1.191,0.169
		c-10.479,0.347-20.87,1.491-31.185,3.349c-1.597,0.288-3.182,0.64-5.056,1.018c0.584,0.376,0.894,0.574,1.204,0.767
		c14.524,9.087,29.051,18.172,43.574,27.262c0.278,0.177,0.527,0.398,0.79,0.601h1.423c1.201-0.158,2.4-0.344,3.602-0.474
		c8.052-0.865,16.104-1.728,24.154-2.577c8.659-0.913,17.321-1.807,25.98-2.716c8.896-0.934,17.79-1.876,26.684-2.817
		c1.665-0.177,3.33-0.373,4.995-0.56c0.044-0.096,0.091-0.193,0.137-0.289c-1.39-1.315-2.708-2.722-4.186-3.935
		c-5.605-4.589-12.083-7.589-18.821-10.062c-8.484-3.112-17.23-5.208-26.137-6.702c-7.896-1.324-15.831-2.229-23.826-2.646
		C322.321,254.829,320.437,254.672,318.549,254.54"/>
	<path fill-rule="evenodd" clip-rule="evenodd" fill="#539798" d="M301.839,254.54c-2.091,0.141-4.178,0.307-6.268,0.418
		c-7.687,0.416-15.32,1.271-22.904,2.563c-2.664,0.454-5.318,0.963-8.287,1.504c0.584,0.388,0.902,0.611,1.23,0.816
		c14.525,9.087,29.051,18.172,43.574,27.263c0.279,0.176,0.529,0.397,0.79,0.6c0.138-0.067,0.272-0.137,0.408-0.203
		c-0.077-0.178-0.183-0.35-0.225-0.537c-1.905-8.577-3.792-17.157-5.702-25.732c-0.5-2.239-1.065-4.461-1.599-6.691H301.839z"/>
</g>
<g>
	<path fill-rule="evenodd" clip-rule="evenodd" fill="#597387" d="M221.875,42.518v119.814c0.356,0.267,0.751,0.499,1.067,0.809
		c17.855,17.578,35.701,35.162,53.545,52.75c0.315,0.314,0.557,0.703,0.836,1.056h0.556c1.072-0.541,2.109-1.163,3.222-1.599
		c0.968-0.377,1.266-0.922,1.263-1.965c-0.036-16.706-0.027-33.415-0.027-50.121v-1.768h1.767c16.754,0,33.507-0.009,50.26,0.021
		c1.089,0.001,1.938-0.282,2.794-0.931c1.273-0.97,2.646-1.814,3.976-2.711V39.452c-0.456-0.084-0.905-0.196-1.366-0.251
		c-7.904-0.96-15.811-1.907-23.716-2.873c-7.301-0.89-14.597-1.823-21.899-2.696c-8.235-0.984-16.477-1.917-24.712-2.885
		c-9.897-1.163-19.791-2.383-29.699-3.459c-1.413-0.153-2.994,0.117-4.326,0.633c-1.792,0.695-3.519,1.678-5.098,2.788
		C226.147,33.644,223.211,37.524,221.875,42.518"/>
	<path fill-rule="evenodd" clip-rule="evenodd" fill="#E6E6E6" d="M233.549,31.445c0.767-0.659,1.64-1.196,2.465-1.789h0.277
		c3.064,0.469,6.122,0.971,9.193,1.398c11.251,1.564,22.504,3.106,33.756,4.653c11.806,1.62,23.612,3.227,35.415,4.854
		c5.832,0.805,11.66,1.646,17.488,2.47v119.813c-1.986,1.746-3.951,3.521-5.982,5.215c-0.394,0.33-1.088,0.557-1.58,0.47
		c-4.066-0.7-8.116-1.487-12.175-2.24c-5.334-0.993-10.681-1.979-16.099-2.98c-0.802-0.382-1.702-0.642-2.712-0.736
		c-4.026-0.379-8.945,2.911-8.846,7.341c0.158,7.125,2.336,13.158,4.81,19.5c-0.033,5.546-0.041,11.082,0.24,16.626
		c-0.334,0.188-0.665,0.372-1.001,0.55c-2.029,1.086-4.061,2.171-6.102,3.263c-0.242-0.383-0.396-0.625-0.736-1.16v4.293
		c-0.084,0-0.166,0-0.25,0v-1.639c0-40.299-0.003-80.597,0.022-120.894c0-1.017-0.295-1.702-1.032-2.402
		c-17.466-16.596-34.909-33.219-52.363-49.833c-0.294-0.281-0.641-0.507-0.962-0.761v-0.557
		C229.432,35.079,231.466,33.235,233.549,31.445"/>
	<path fill-rule="evenodd" clip-rule="evenodd" fill="#CCCCCC" d="M227.377,37.494c0.323,0.252,0.669,0.479,0.962,0.761
		c17.458,16.616,34.905,33.243,52.377,49.841c0.743,0.706,1.018,1.401,1.016,2.409c-0.022,40.308-0.021,80.615-0.02,120.922v1.516
		c0.066,0.003,0.135,0.007,0.202,0.011v-4.204c0.389,0.536,0.563,0.783,0.81,1.125c3.524-1.884,7.037-3.754,10.528-5.653
		c0.222-0.119,0.355-0.495,0.42-0.776c0.073-0.308,0.019-0.644,0.019-0.97c0-38.451-0.002-76.9,0.017-115.351
		c0.001-0.936-0.16-1.611-0.972-2.248c-20.838-16.463-41.649-32.956-62.467-49.444c-0.253-0.201-0.513-0.395-0.802-0.618
		c-0.703,0.714-1.396,1.418-2.09,2.121V37.494z"/>
	<path fill-rule="evenodd" clip-rule="evenodd" fill="#CCCCCC" d="M236.015,29.692c-1.446,1.065-2.893,2.13-4.571,3.365
		c1.875,0.377,3.553,0.726,5.236,1.05c20.972,4.045,41.946,8.085,62.918,12.13c8.689,1.678,17.377,3.373,26.074,5.003
		c0.443,0.084,1.16-0.223,1.457-0.588c1.72-2.117,3.353-4.306,5.015-6.472v-1.113c-5.828-0.825-11.655-1.667-17.488-2.47
		c-11.803-1.628-23.609-3.235-35.415-4.856c-11.251-1.544-22.505-3.088-33.755-4.652c-3.069-0.428-6.13-0.93-9.193-1.397H236.015z"
		/>
	<path fill-rule="evenodd" clip-rule="evenodd" fill="#485D70" d="M340.795,39.365c-1.097,0.914-2.208,1.811-3.273,2.756
		c-0.205,0.184-0.28,0.555-0.333,0.854c-0.061,0.315-0.016,0.648-0.016,0.973v114.216v1.613c1.325-0.829,2.474-1.55,3.622-2.269
		V39.365z"/>
	<path fill-rule="evenodd" clip-rule="evenodd" fill="#485D70" d="M282.001,89.703c-1.669,0.856-3.104,1.59-4.502,2.305v124.466
		c1.507-0.701,2.805-1.278,4.068-1.922c0.221-0.11,0.352-0.495,0.415-0.775c0.07-0.311,0.019-0.646,0.019-0.97V91.472V89.703z"/>
	<path fill-rule="evenodd" clip-rule="evenodd" fill="#485D70" d="M225.091,43.604c0.626-4.352,3.101-7.305,6.274-9.584
		c2.992-2.15,6.281-3.887,9.449-5.794c0.465-0.281,0.979-0.483,1.766-0.866c-2.694-0.497-5.062-0.929-7.432,0.085
		c-5.613,2.397-9.947,6.144-12.599,11.742c-0.531,1.115-0.488,1.852,0.523,2.585C223.738,42.254,224.301,42.877,225.091,43.604"/>
	<path fill-rule="evenodd" clip-rule="evenodd" fill="#B3B3B3" d="M326.503,51.916c0.06,0.056,0.115,0.115,0.175,0.171
		c0.258-0.587,0.417-1.248,0.793-1.749c1.522-2.034,3.111-4.017,4.674-6.02v118.421c-1.967,1.726-3.934,3.446-6.077,5.325V52.613
		C326.213,52.382,326.364,52.152,326.503,51.916"/>
	<path fill-rule="evenodd" clip-rule="evenodd" fill="#B3B3B3" d="M282.019,208.983c-0.082-0.349-0.188-0.69-0.315-1.021
		c-0.002-39.035,0.002-78.068-0.027-117.101c0-1.017,0.334-1.432,1.257-1.753c2.931-1.021,5.832-2.129,8.74-3.224
		c0.409-0.153,0.783-0.404,1.176-0.611c1.117-0.26,0.831,0.551,0.831,1.114c0.002,39.195,0.002,78.39,0.002,117.584
		c-3.624,1.885-7.251,3.771-10.938,5.688c-0.065-0.055-0.133-0.106-0.203-0.161c-0.144-0.227-0.293-0.462-0.522-0.825V208.983z"/>
</g>
<g>
	<path fill-rule="evenodd" clip-rule="evenodd" fill="#6CBABA" d="M452.877,239.381c-2.432-0.448-5.195-0.955-7.958-1.471
		c-4.337-0.809-8.674-1.623-13.01-2.437c-4.335-0.813-8.671-1.629-13.009-2.439c-4.254-0.796-8.509-1.585-12.763-2.38
		c-4.337-0.81-8.673-1.624-13.009-2.436c-3.702-0.69-7.404-1.377-11.104-2.068c-4.335-0.812-8.671-1.63-13.008-2.438
		c-3.7-0.69-7.403-1.375-11.104-2.068c-4.336-0.811-8.67-1.629-13.006-2.44c-3.673-0.688-7.346-1.365-11.019-2.051
		c-3.784-0.708-7.566-1.421-11.349-2.132c-2.458-0.459-4.926-0.87-7.366-1.408c-0.938-0.207-1.886-0.59-2.702-1.098
		c-2.047-1.276-2.207-3.296-0.468-5.02c1.2-1.184,2.467-2.301,3.653-3.496c4.197-4.232,9.357-4.985,14.937-4.111
		c4.386,0.686,8.757,1.47,13.134,2.219c4.431,0.759,8.86,1.532,13.293,2.295c3.654,0.629,7.313,1.249,10.968,1.877
		c4.516,0.774,9.029,1.556,13.545,2.329c4.349,0.745,8.699,1.484,13.048,2.229c4.488,0.77,8.974,1.547,13.462,2.317
		c4.32,0.742,8.644,1.479,12.966,2.221c5.207,0.894,10.416,1.791,15.623,2.684c4.378,0.749,8.761,1.472,13.135,2.247
		c4.064,0.72,8.142,1.405,12.175,2.279c2.077,0.451,3.937,1.505,5.28,3.254c0.936,1.22,1.113,2.533,0.443,3.957
		c-0.705,1.497-1.436,2.991-2.034,4.531c-0.749,1.927-2.169,3.097-3.992,3.876C458.941,239.356,456.109,239.59,452.877,239.381"/>
	<path fill-rule="evenodd" clip-rule="evenodd" fill="#91E8E5" d="M453.001,237.98c-2.431-0.449-5.195-0.956-7.958-1.471
		c-4.336-0.809-8.674-1.625-13.009-2.438c-4.337-0.812-8.672-1.629-13.01-2.438c-4.256-0.796-8.508-1.585-12.764-2.38
		c-4.337-0.81-8.671-1.624-13.008-2.435c-3.701-0.691-7.403-1.377-11.104-2.07c-4.336-0.81-8.672-1.626-13.008-2.438
		c-3.7-0.691-7.404-1.374-11.103-2.067c-4.336-0.813-8.672-1.631-13.006-2.439c-3.673-0.689-7.348-1.367-11.021-2.055
		c-3.784-0.706-7.566-1.419-11.349-2.129c-2.458-0.461-4.925-0.871-7.365-1.408c-0.938-0.208-1.886-0.591-2.703-1.099
		c-2.047-1.275-2.207-3.297-0.467-5.018c1.199-1.187,2.467-2.302,3.652-3.498c4.197-4.233,9.356-4.986,14.937-4.112
		c4.388,0.688,8.758,1.471,13.135,2.221c4.431,0.759,8.861,1.531,13.292,2.293c3.656,0.631,7.313,1.25,10.969,1.878
		c4.516,0.775,9.03,1.556,13.544,2.329c4.349,0.745,8.7,1.483,13.049,2.229c4.487,0.771,8.975,1.547,13.463,2.317
		c4.32,0.742,8.643,1.479,12.965,2.222c5.207,0.893,10.415,1.791,15.623,2.683c4.378,0.749,8.761,1.472,13.134,2.247
		c4.064,0.72,8.141,1.406,12.176,2.28c2.077,0.45,3.937,1.505,5.279,3.253c0.937,1.22,1.115,2.534,0.444,3.956
		c-0.706,1.5-1.435,2.991-2.034,4.533c-0.75,1.927-2.168,3.096-3.991,3.876C459.065,237.957,456.233,238.188,453.001,237.98"/>
	<g>
		<path fill-rule="evenodd" clip-rule="evenodd" fill="#485D70" d="M461.184,227.927c-0.017-0.224-0.122-0.484-0.041-0.665
			c0.515-1.15,1.081-2.28,1.604-3.427c0.259-0.564,0.613-0.672,1.229-0.29c-0.707,1.482-1.415,2.962-2.119,4.441
			C461.632,227.965,461.408,227.946,461.184,227.927"/>
		<path fill-rule="evenodd" clip-rule="evenodd" fill="#485D70" d="M325.604,199.328c-0.021,0.199,0.037,0.475-0.073,0.584
			c-0.981,0.998-1.979,1.979-3.007,2.931c-0.202,0.189-0.543,0.229-0.821,0.337c-0.057-0.089-0.113-0.177-0.17-0.264
			c1.245-1.206,2.491-2.412,3.735-3.617C325.38,199.309,325.491,199.317,325.604,199.328"/>
		<path fill-rule="evenodd" clip-rule="evenodd" fill="#485D70" d="M455.804,222.157c-0.66,1.316-1.292,2.649-2.006,3.936
			c-0.126,0.228-0.585,0.269-0.891,0.397c-0.07-0.086-0.139-0.173-0.211-0.261c0.702-1.374,1.383-2.763,2.13-4.11
			c0.1-0.178,0.55-0.16,0.837-0.235C455.71,221.977,455.757,222.067,455.804,222.157"/>
		<path fill-rule="evenodd" clip-rule="evenodd" fill="#485D70" d="M444.61,224.743c0.697-1.307,1.372-2.63,2.118-3.909
			c0.128-0.215,0.577-0.237,0.878-0.35c0.063,0.093,0.124,0.185,0.186,0.276c-0.707,1.328-1.386,2.672-2.144,3.97
			c-0.116,0.199-0.591,0.191-0.899,0.28C444.703,224.922,444.656,224.831,444.61,224.743"/>
		<path fill-rule="evenodd" clip-rule="evenodd" fill="#485D70" d="M436.563,223.339c0.744-1.31,1.464-2.633,2.255-3.914
			c0.126-0.203,0.573-0.21,0.872-0.308c0.053,0.078,0.105,0.156,0.16,0.235c-0.748,1.334-1.471,2.684-2.267,3.988
			c-0.113,0.187-0.581,0.16-0.884,0.232C436.655,223.496,436.609,223.417,436.563,223.339"/>
		<path fill-rule="evenodd" clip-rule="evenodd" fill="#485D70" d="M420.845,220.574c0.802-1.28,1.551-2.531,2.367-3.738
			c0.16-0.236,0.577-0.301,0.878-0.443c0.074,0.089,0.149,0.178,0.226,0.27c-0.387,0.63-0.77,1.264-1.158,1.893
			c-0.37,0.599-0.765,1.18-1.108,1.79C421.767,220.852,421.421,220.925,420.845,220.574"/>
		<path fill-rule="evenodd" clip-rule="evenodd" fill="#485D70" d="M431.987,218.078c-0.738,1.25-1.463,2.508-2.221,3.747
			c-0.287,0.472-0.346,0.456-1.087,0.109c0.767-1.297,1.509-2.604,2.319-3.868c0.126-0.196,0.564-0.195,0.858-0.287
			C431.899,217.88,431.944,217.979,431.987,218.078"/>
		<path fill-rule="evenodd" clip-rule="evenodd" fill="#485D70" d="M398.047,216.514c0.875-1.229,1.699-2.438,2.587-3.599
			c0.18-0.235,0.589-0.295,0.893-0.436c0.069,0.092,0.14,0.183,0.21,0.273c-0.558,0.788-1.115,1.577-1.672,2.365
			c-0.292,0.414-0.6,0.817-0.876,1.241C398.901,216.8,398.563,216.882,398.047,216.514"/>
		<path fill-rule="evenodd" clip-rule="evenodd" fill="#485D70" d="M416.67,215.325c-0.846,1.304-1.674,2.621-2.558,3.896
			c-0.117,0.17-0.541,0.132-0.821,0.187c-0.041-0.078-0.081-0.153-0.126-0.232c0.838-1.271,1.654-2.558,2.531-3.803
			c0.135-0.19,0.551-0.179,0.836-0.262C416.578,215.182,416.623,215.253,416.67,215.325"/>
		<path fill-rule="evenodd" clip-rule="evenodd" fill="#485D70" d="M405.608,217.803c0.805-1.181,1.621-2.354,2.417-3.539
			c0.271-0.403,0.56-0.62,1.143-0.221c-0.886,1.289-1.746,2.582-2.667,3.833c-0.129,0.172-0.553,0.127-0.841,0.182
			C405.644,217.972,405.625,217.888,405.608,217.803"/>
		<path fill-rule="evenodd" clip-rule="evenodd" fill="#485D70" d="M394.354,211.525c-0.893,1.216-1.767,2.448-2.701,3.631
			c-0.155,0.197-0.566,0.191-0.858,0.281c-0.044-0.084-0.089-0.167-0.133-0.252c0.912-1.226,1.808-2.468,2.757-3.666
			c0.152-0.19,0.551-0.186,0.835-0.271C394.286,211.342,394.32,211.436,394.354,211.525"/>
		<path fill-rule="evenodd" clip-rule="evenodd" fill="#485D70" d="M376.131,212.604c0.961-1.199,1.903-2.412,2.897-3.582
			c0.16-0.188,0.547-0.185,0.829-0.268c0.045,0.08,0.089,0.16,0.133,0.24c-0.969,1.215-1.92,2.446-2.928,3.631
			c-0.147,0.176-0.552,0.137-0.836,0.196C376.194,212.749,376.163,212.677,376.131,212.604"/>
		<path fill-rule="evenodd" clip-rule="evenodd" fill="#485D70" d="M383.383,213.867c0.919-1.195,1.819-2.402,2.774-3.566
			c0.162-0.196,0.556-0.208,0.843-0.303c0.047,0.087,0.095,0.175,0.14,0.261c-0.949,1.232-1.884,2.477-2.869,3.68
			c-0.136,0.167-0.519,0.129-0.79,0.185C383.448,214.037,383.414,213.951,383.383,213.867"/>
		<path fill-rule="evenodd" clip-rule="evenodd" fill="#485D70" d="M361.996,210.063c0.967-1.125,1.916-2.266,2.914-3.361
			c0.198-0.217,0.589-0.262,0.892-0.386c0.051,0.09,0.103,0.181,0.154,0.27c-1.013,1.181-2.009,2.375-3.055,3.526
			c-0.16,0.178-0.544,0.155-0.822,0.224C362.051,210.245,362.022,210.154,361.996,210.063"/>
		<path fill-rule="evenodd" clip-rule="evenodd" fill="#485D70" d="M369.036,211.316c0.962-1.158,1.907-2.328,2.896-3.461
			c0.175-0.199,0.532-0.242,0.804-0.356c0.06,0.08,0.12,0.16,0.181,0.24c-0.245,0.312-0.482,0.632-0.734,0.937
			c-0.692,0.843-1.368,1.699-2.102,2.505c-0.209,0.229-0.592,0.301-0.894,0.443C369.137,211.521,369.086,211.418,369.036,211.316"/>
		<path fill-rule="evenodd" clip-rule="evenodd" fill="#485D70" d="M355.044,209.047c0.963-1.753,3.216-3.902,4.079-3.753
			c-1.149,1.283-2.231,2.513-3.348,3.708C355.662,209.119,355.334,209.035,355.044,209.047"/>
		<path fill-rule="evenodd" clip-rule="evenodd" fill="#485D70" d="M345.615,202.954c-1.164,1.237-2.222,2.388-3.318,3.5
			c-0.171,0.173-0.519,0.172-0.901,0.285C342.016,205.338,344.778,202.79,345.615,202.954"/>
		<path fill-rule="evenodd" clip-rule="evenodd" fill="#485D70" d="M352.248,204.012c-1.145,1.893-3.323,3.881-4.145,3.686
			c1.137-1.231,2.217-2.427,3.336-3.583C351.572,203.979,351.916,204.047,352.248,204.012"/>
		<path fill-rule="evenodd" clip-rule="evenodd" fill="#485D70" d="M328.211,204.268c1.556-2.213,3.352-3.739,4.226-3.583
			C330.924,201.908,329.98,203.576,328.211,204.268"/>
		<path fill-rule="evenodd" clip-rule="evenodd" fill="#485D70" d="M334.596,205.495c1.731-2.317,3.51-3.848,4.344-3.701
			c-1.164,1.205-2.27,2.372-3.412,3.501C335.378,205.443,335.044,205.405,334.596,205.495"/>
		<path fill-rule="evenodd" clip-rule="evenodd" fill="#485D70" d="M457.371,222.361c-0.645,2.018-0.931,2.331-1.829,2.045
			C455.895,222.728,456.485,222.04,457.371,222.361"/>
		<path fill-rule="evenodd" clip-rule="evenodd" fill="#485D70" d="M450.929,221.245c-1.02,2.396-1.146,2.493-1.887,2.023
			C449.438,221.6,450.022,220.947,450.929,221.245"/>
		<path fill-rule="evenodd" clip-rule="evenodd" fill="#485D70" d="M449.329,220.965c-0.712,2.015-0.999,2.319-1.88,2.026
			C447.771,221.426,448.454,220.658,449.329,220.965"/>
		<path fill-rule="evenodd" clip-rule="evenodd" fill="#485D70" d="M458.728,224.859c0.256-0.528,0.536-1.047,0.76-1.587
			c0.246-0.592,0.606-0.658,1.227-0.281c-0.324,0.652-0.593,1.325-0.986,1.917c-0.124,0.188-0.581,0.154-0.885,0.221
			C458.804,225.04,458.766,224.948,458.728,224.859"/>
		<path fill-rule="evenodd" clip-rule="evenodd" fill="#485D70" d="M459.079,222.691c-0.323,0.658-0.565,1.294-0.938,1.841
			c-0.148,0.221-0.581,0.249-1.021,0.417C457.573,222.964,458.129,222.327,459.079,222.691"/>
		<path fill-rule="evenodd" clip-rule="evenodd" fill="#485D70" d="M441.376,219.604c-0.798,1.995-1.124,2.314-1.92,1.924
			C440.015,219.803,440.521,219.275,441.376,219.604"/>
		<path fill-rule="evenodd" clip-rule="evenodd" fill="#485D70" d="M450.608,223.538c0.736-2.047,0.972-2.298,1.874-2.039
			C452.097,223.148,451.52,223.8,450.608,223.538"/>
		<path fill-rule="evenodd" clip-rule="evenodd" fill="#485D70" d="M462.353,223.238c-0.316,0.666-0.551,1.304-0.919,1.852
			c-0.152,0.227-0.593,0.258-1.013,0.422C460.696,223.714,461.358,222.93,462.353,223.238"/>
		<path fill-rule="evenodd" clip-rule="evenodd" fill="#485D70" d="M434.68,220.755c0.667-1.828,1.07-2.247,1.92-2.015
			C436.316,220.143,435.549,220.975,434.68,220.755"/>
		<path fill-rule="evenodd" clip-rule="evenodd" fill="#485D70" d="M454.13,221.82c-0.668,1.971-0.928,2.255-1.803,2.021
			C452.497,222.424,453.283,221.517,454.13,221.82"/>
		<path fill-rule="evenodd" clip-rule="evenodd" fill="#485D70" d="M442.59,222.134c0.779-2.046,1.038-2.311,1.907-1.99
			C444.04,221.788,443.5,222.371,442.59,222.134"/>
		<path fill-rule="evenodd" clip-rule="evenodd" fill="#485D70" d="M425.802,216.916c-1.052,2.118-1.178,2.232-2.022,1.89
			C424.399,217.107,424.952,216.571,425.802,216.916"/>
		<path fill-rule="evenodd" clip-rule="evenodd" fill="#485D70" d="M442.957,219.875c-0.808,2.009-1.018,2.229-1.87,2
			C441.319,220.458,442.115,219.576,442.957,219.875"/>
		<path fill-rule="evenodd" clip-rule="evenodd" fill="#485D70" d="M436.239,221.035c0.682-1.84,1.082-2.254,1.924-2.02
			C437.847,220.478,437.131,221.258,436.239,221.035"/>
		<path fill-rule="evenodd" clip-rule="evenodd" fill="#485D70" d="M433.124,220.443c0.687-1.836,1.082-2.242,1.905-1.958
			C434.722,219.944,433.946,220.739,433.124,220.443"/>
		<path fill-rule="evenodd" clip-rule="evenodd" fill="#485D70" d="M428.253,219.576c0.81-0.66,0.673-2.078,2.123-2.025
			C430.005,219.112,429.253,219.902,428.253,219.576"/>
		<path fill-rule="evenodd" clip-rule="evenodd" fill="#485D70" d="M422.717,216.354c-0.816,1.891-1.172,2.221-2.001,1.914
			C421.304,216.665,421.877,216.1,422.717,216.354"/>
		<path fill-rule="evenodd" clip-rule="evenodd" fill="#485D70" d="M444.25,222.392c0.484-1.675,1.014-2.255,1.816-1.986
			C445.762,221.935,445.063,222.699,444.25,222.392"/>
		<path fill-rule="evenodd" clip-rule="evenodd" fill="#485D70" d="M421.315,216.189c-0.805,0.61-0.696,2.015-2.102,1.949
			C419.559,216.668,420.422,215.786,421.315,216.189"/>
		<path fill-rule="evenodd" clip-rule="evenodd" fill="#485D70" d="M431.52,220.198c1.037-2.19,1.157-2.309,1.956-1.959
			C433.041,219.765,432.394,220.442,431.52,220.198"/>
		<path fill-rule="evenodd" clip-rule="evenodd" fill="#485D70" d="M415.958,217.383c0.821-0.606,0.726-2.055,2.184-1.939
			C417.582,217.093,416.871,217.776,415.958,217.383"/>
		<path fill-rule="evenodd" clip-rule="evenodd" fill="#485D70" d="M411.512,216.688c0.854-1.844,1.268-2.219,2.057-1.915
			C413.001,216.28,412.365,216.894,411.512,216.688"/>
		<path fill-rule="evenodd" clip-rule="evenodd" fill="#485D70" d="M413.058,216.955c0.537-1.497,1.2-2.156,1.987-1.964
			C414.695,216.343,413.85,217.177,413.058,216.955"/>
		<path fill-rule="evenodd" clip-rule="evenodd" fill="#485D70" d="M408.496,216.146c0.978-1.885,1.224-2.116,2.021-1.933
			C410.241,215.481,409.312,216.409,408.496,216.146"/>
		<path fill-rule="evenodd" clip-rule="evenodd" fill="#485D70" d="M425.287,219.104c0.871-1.984,1.179-2.276,2.002-1.949
			C426.656,218.855,426.186,219.331,425.287,219.104"/>
		<path fill-rule="evenodd" clip-rule="evenodd" fill="#485D70" d="M426.903,219.356c0.455-1.498,1.106-2.173,1.903-1.974
			C428.386,218.906,427.691,219.628,426.903,219.356"/>
		<path fill-rule="evenodd" clip-rule="evenodd" fill="#485D70" d="M407.741,213.802c-0.843,0.608-0.784,2.046-2.242,1.919
			C406.15,214.075,406.814,213.453,407.741,213.802"/>
		<path fill-rule="evenodd" clip-rule="evenodd" fill="#485D70" d="M400.951,214.695c0.771-0.554,0.776-1.946,2.193-1.882
			C402.536,214.491,401.733,215.191,400.951,214.695"/>
		<path fill-rule="evenodd" clip-rule="evenodd" fill="#485D70" d="M412.112,214.523c-1.312,2.271-1.427,2.354-2.084,1.851
			C410.843,214.615,411.253,214.241,412.112,214.523"/>
		<path fill-rule="evenodd" clip-rule="evenodd" fill="#485D70" d="M402.421,215.253c1.026-1.979,1.371-2.285,2.288-2.004
			C403.949,213.895,403.925,215.227,402.421,215.253"/>
		<path fill-rule="evenodd" clip-rule="evenodd" fill="#485D70" d="M389.272,212.749c0.768-1.562,1.357-2.078,2.11-1.843
			C390.775,212.38,390.013,213.046,389.272,212.749"/>
		<path fill-rule="evenodd" clip-rule="evenodd" fill="#485D70" d="M397.413,211.972c-0.844,0.652-0.877,1.988-2.272,1.972
			C395.674,212.49,396.496,211.708,397.413,211.972"/>
		<path fill-rule="evenodd" clip-rule="evenodd" fill="#485D70" d="M419.636,215.862c-0.772,1.771-1.172,2.145-1.997,1.875
			C418.295,216.04,418.88,215.49,419.636,215.862"/>
		<path fill-rule="evenodd" clip-rule="evenodd" fill="#485D70" d="M404.049,215.319c0.771-1.688,1.265-2.127,2.044-1.819
			C405.264,215.234,404.814,215.636,404.049,215.319"/>
		<path fill-rule="evenodd" clip-rule="evenodd" fill="#485D70" d="M389.942,210.675c-0.657,1.469-1.34,2.065-2.108,1.849
			C388.469,211.068,389.193,210.433,389.942,210.675"/>
		<path fill-rule="evenodd" clip-rule="evenodd" fill="#485D70" d="M396.454,213.974c0.853-0.576,0.866-1.961,2.259-1.903
			C398.16,213.62,397.351,214.348,396.454,213.974"/>
		<path fill-rule="evenodd" clip-rule="evenodd" fill="#485D70" d="M398.04,214.314c1.077-1.917,1.304-2.115,2.113-1.877
			C399.63,213.856,398.891,214.536,398.04,214.314"/>
		<path fill-rule="evenodd" clip-rule="evenodd" fill="#485D70" d="M379.114,210.967c1.44-2.049,1.447-2.052,2.195-1.773
			C380.503,210.743,379.895,211.255,379.114,210.967"/>
		<path fill-rule="evenodd" clip-rule="evenodd" fill="#485D70" d="M386.378,212.265c0.724-1.509,1.372-2.073,2.107-1.837
			C387.883,211.846,387.153,212.48,386.378,212.265"/>
		<path fill-rule="evenodd" clip-rule="evenodd" fill="#485D70" d="M383.292,211.764c0.866-0.688,0.98-1.949,2.317-2.019
			C385.268,211.007,384.279,211.942,383.292,211.764"/>
		<path fill-rule="evenodd" clip-rule="evenodd" fill="#485D70" d="M395.807,211.684c-1.022,1.817-1.316,2.074-2.121,1.883
			C394.245,212.167,395.021,211.448,395.807,211.684"/>
		<path fill-rule="evenodd" clip-rule="evenodd" fill="#485D70" d="M382.987,209.431c-0.909,0.646-0.987,1.975-2.354,1.944
			C381.063,210.101,382.002,209.24,382.987,209.431"/>
		<path fill-rule="evenodd" clip-rule="evenodd" fill="#485D70" d="M377.079,208.457c-0.789,1.511-1.421,2.028-2.165,1.774
			C375.765,208.673,376.357,208.187,377.079,208.457"/>
		<path fill-rule="evenodd" clip-rule="evenodd" fill="#485D70" d="M390.577,212.952c0.826-0.619,0.906-1.918,2.23-1.932
			C392.453,212.361,391.459,213.282,390.577,212.952"/>
		<path fill-rule="evenodd" clip-rule="evenodd" fill="#485D70" d="M378.482,208.67c-0.592,1.331-1.396,2.024-2.146,1.854
			C376.93,209.197,377.748,208.49,378.482,208.67"/>
		<path fill-rule="evenodd" clip-rule="evenodd" fill="#485D70" d="M371.443,207.482c-0.854,1.516-1.482,2.024-2.17,1.754
			C370.066,207.768,370.755,207.214,371.443,207.482"/>
		<path fill-rule="evenodd" clip-rule="evenodd" fill="#485D70" d="M373.448,209.995c1.219-1.84,1.47-2.044,2.184-1.801
			C375.08,209.497,374.222,210.235,373.448,209.995"/>
		<path fill-rule="evenodd" clip-rule="evenodd" fill="#485D70" d="M367.261,206.758c-0.834,1.48-1.475,1.986-2.207,1.74
			C365.983,206.938,366.558,206.484,367.261,206.758"/>
		<path fill-rule="evenodd" clip-rule="evenodd" fill="#485D70" d="M374.375,208.003c-0.798,0.622-0.96,1.867-2.281,1.902
			C372.48,208.654,373.534,207.732,374.375,208.003"/>
		<path fill-rule="evenodd" clip-rule="evenodd" fill="#485D70" d="M382.054,211.518c0.71-1.47,1.39-2.061,2.132-1.848
			C383.538,211.083,382.813,211.711,382.054,211.518"/>
		<path fill-rule="evenodd" clip-rule="evenodd" fill="#485D70" d="M353.943,206.577c1.324-1.781,1.55-1.95,2.3-1.754
			C355.546,206.133,354.703,206.806,353.943,206.577"/>
		<path fill-rule="evenodd" clip-rule="evenodd" fill="#485D70" d="M357.92,207.282c0.941-0.625,1.135-1.884,2.469-1.871
			C359.785,206.724,358.858,207.502,357.92,207.282"/>
		<path fill-rule="evenodd" clip-rule="evenodd" fill="#485D70" d="M366.272,208.782c0.82-0.738,1.117-1.843,2.395-2.011
			C368.222,208.033,367.214,208.926,366.272,208.782"/>
		<path fill-rule="evenodd" clip-rule="evenodd" fill="#485D70" d="M346.766,203.15c-0.694,0.678-0.958,1.909-2.252,1.802
			C345.174,204.231,345.57,203.188,346.766,203.15"/>
		<path fill-rule="evenodd" clip-rule="evenodd" fill="#485D70" d="M370.17,207.248c-0.799,0.642-1.023,1.849-2.394,1.952
			C368.486,207.714,369.311,207.03,370.17,207.248"/>
		<path fill-rule="evenodd" clip-rule="evenodd" fill="#485D70" d="M360.678,207.776c0.915-0.645,1.142-1.859,2.451-1.925
			C362.599,207.145,361.635,207.957,360.678,207.776"/>
		<path fill-rule="evenodd" clip-rule="evenodd" fill="#485D70" d="M359.544,207.523c0.709-0.619,0.9-1.906,2.175-1.746
			C361.033,206.421,360.816,207.667,359.544,207.523"/>
		<path fill-rule="evenodd" clip-rule="evenodd" fill="#485D70" d="M348.624,205.648c0.69-0.671,0.936-1.897,2.21-1.788
			C350.169,204.56,349.807,205.628,348.624,205.648"/>
		<path fill-rule="evenodd" clip-rule="evenodd" fill="#485D70" d="M357.713,205.185c-0.835,0.512-1.019,1.829-2.388,1.743
			C356.184,205.37,356.988,204.769,357.713,205.185"/>
		<path fill-rule="evenodd" clip-rule="evenodd" fill="#485D70" d="M347.111,205.562c1.005-1.588,1.663-2.1,2.472-1.879
			C348.815,204.355,348.478,205.425,347.111,205.562"/>
		<path fill-rule="evenodd" clip-rule="evenodd" fill="#485D70" d="M362.103,208.018c0.873-0.668,1.13-1.812,2.379-1.926
			C364.066,207.312,363.017,208.222,362.103,208.018"/>
		<path fill-rule="evenodd" clip-rule="evenodd" fill="#485D70" d="M337.631,201.625c-0.884,0.569-1.163,1.807-2.501,1.786
			C335.881,202.088,336.838,201.37,337.631,201.625"/>
		<path fill-rule="evenodd" clip-rule="evenodd" fill="#485D70" d="M334.868,201.106c-0.714,0.646-1.039,1.819-2.297,1.731
			C333.285,202.19,333.616,201.028,334.868,201.106"/>
		<path fill-rule="evenodd" clip-rule="evenodd" fill="#485D70" d="M354.974,204.726c-0.821,0.512-1.033,1.798-2.39,1.732
			C353.563,204.821,354.271,204.3,354.974,204.726"/>
		<path fill-rule="evenodd" clip-rule="evenodd" fill="#485D70" d="M341.419,202.273c-0.732,0.61-0.969,1.896-2.258,1.714
			C339.879,203.357,340.209,202.22,341.419,202.273"/>
		<path fill-rule="evenodd" clip-rule="evenodd" fill="#485D70" d="M333.616,200.932c-1.484,1.76-1.631,1.859-2.353,1.657
			C332.163,201.217,332.9,200.676,333.616,200.932"/>
		<path fill-rule="evenodd" clip-rule="evenodd" fill="#485D70" d="M351.108,206.086c0.897-0.652,1.192-1.785,2.481-1.92
			C352.956,205.502,352.013,206.272,351.108,206.086"/>
		<path fill-rule="evenodd" clip-rule="evenodd" fill="#485D70" d="M324.766,201.479c1.49-1.837,1.579-1.896,2.434-1.679
			C326.323,200.386,325.968,201.532,324.766,201.479"/>
		<path fill-rule="evenodd" clip-rule="evenodd" fill="#485D70" d="M340.453,204.198c1.535-1.836,1.62-1.897,2.317-1.697
			C342.029,203.78,341.185,204.428,340.453,204.198"/>
		<path fill-rule="evenodd" clip-rule="evenodd" fill="#485D70" d="M345.751,205.088c0.807-0.597,1.13-1.729,2.402-1.824
			C347.554,204.586,346.523,205.383,345.751,205.088"/>
		<path fill-rule="evenodd" clip-rule="evenodd" fill="#485D70" d="M333.887,203.034c0.744-0.623,1.047-1.83,2.302-1.69
			C335.448,201.961,335.161,203.187,333.887,203.034"/>
		<path fill-rule="evenodd" clip-rule="evenodd" fill="#485D70" d="M328.696,202.184c1.334-1.786,1.528-1.922,2.363-1.713
			C330.26,201.131,329.827,202.139,328.696,202.184"/>
		<path fill-rule="evenodd" clip-rule="evenodd" fill="#485D70" d="M344.234,202.788c-0.822,0.604-1.11,1.766-2.418,1.798
			C342.464,203.306,343.446,202.541,344.234,202.788"/>
		<path fill-rule="evenodd" clip-rule="evenodd" fill="#485D70" d="M329.635,200.194c-0.731,0.638-1.07,1.812-2.307,1.742
			C328.032,201.264,328.429,200.188,329.635,200.194"/>
		<path fill-rule="evenodd" clip-rule="evenodd" fill="#485D70" d="M337.723,203.885c1.205-1.658,1.746-2.044,2.546-1.788
			C339.415,202.668,339.113,203.834,337.723,203.885"/>
		<path fill-rule="evenodd" clip-rule="evenodd" fill="#485D70" d="M328.478,200.039c-0.875,0.555-1.202,1.702-2.481,1.774
			C326.69,200.556,327.676,199.824,328.478,200.039"/>
	</g>
</g>
<path fill-rule="evenodd" clip-rule="evenodd" fill="#F3816F" d="M190.033,305.546c0.116,0.513,0.229,1.025,0.346,1.535
	c0.04,0.547,0.104,1.091,0.109,1.637c0.021,1.683-0.295,3.282-1.204,4.724c-1.444,2.297-3.954,2.877-6.265,1.462
	c-0.784-0.48-1.428-1.103-1.99-1.823c-0.079-0.099-0.132-0.169-0.287-0.11c-1.032,0.378-2.064,0.749-3.1,1.124
	c-1.866,0.675-3.735,1.348-5.599,2.033c-0.139,0.049-0.281,0.15-0.376,0.267c-0.888,1.132-1.76,2.273-2.637,3.411
	c-1.454,1.892-2.901,3.792-4.352,5.685c-0.178,0.043-0.359,0.082-0.539,0.122c-0.597-0.08-1.041-0.408-1.443-0.825
	c-0.624-0.647-1.104-1.404-1.531-2.194c-1.186-2.178-1.986-4.508-2.654-6.889c-0.103-0.37-0.202-0.744-0.306-1.13
	c-0.126,0.028-0.227,0.052-0.323,0.072c-3.777,0.856-7.556,1.693-11.329,2.579c-0.804,0.19-1.561,0.246-2.348-0.034
	c-0.279-0.102-0.578-0.146-0.915-0.23c0.505-0.447,0.956-0.863,1.423-1.258c0.148-0.123,0.339-0.229,0.526-0.27
	c4.07-0.929,8.143-1.85,12.218-2.772c0.097-0.023,0.188-0.042,0.295-0.063c-0.022-0.116-0.036-0.198-0.051-0.279
	c-0.458-2.406-0.789-4.821-0.773-7.273c0.007-1.17,0.076-2.331,0.408-3.46c0.182-0.618,0.443-1.188,1.009-1.559
	c0.178-0.043,0.357-0.082,0.543-0.122c0.394,0.212,0.79,0.429,1.188,0.633c0.835,0.43,1.673,0.846,2.508,1.273
	c2.265,1.156,4.528,2.313,6.796,3.471c0.037,0.018,0.094,0.021,0.138,0.016c0.943-0.092,1.887-0.185,2.827-0.276
	c2.135-0.21,4.271-0.426,6.406-0.628c0.167-0.018,0.223-0.075,0.261-0.232c0.208-0.979,0.571-1.893,1.149-2.713
	c1.419-2.01,3.779-2.534,5.903-1.31c1.568,0.906,2.609,2.274,3.36,3.886C189.656,304.52,189.833,305.04,190.033,305.546"/>
<path fill-rule="evenodd" clip-rule="evenodd" fill="#597387" d="M66.485,298.769c0.579,0.024,1.203-0.085,1.731,0.089
	c9.317,3.105,18.617,6.261,27.938,9.347c0.815,0.268,1.826,0.384,2.616,0.141c0.695-0.203,1.216-1.006,1.811-1.547
	c-0.554-0.558-1.016-1.382-1.686-1.637c-3.148-1.19-6.356-2.205-9.541-3.306c-8.023-2.774-16.045-5.561-24.065-8.337
	c-1.591-0.551-3.185-0.551-4.725,0.129c-1.978,0.881-2.63,2.892-1.268,4.551c0.83,1.004,2.047,1.909,3.271,2.329
	c7.755,2.666,15.559,5.184,23.348,7.753c5.223,1.722,10.449,3.44,15.672,5.155c2.876,0.941,5.695,0.919,8.361-0.675
	c1.196-0.713,2.138-1.69,1.963-3.206c-0.159-1.423-1.172-2.203-2.463-2.654c-8.049-2.831-16.1-5.666-24.148-8.488
	c-5.594-1.965-11.198-3.89-16.774-5.897c-0.528-0.192-0.898-0.837-1.344-1.271c0.598-0.063,1.271-0.347,1.785-0.163
	c13.88,4.845,27.747,9.729,41.604,14.646c1.659,0.59,3.122,1.607,3.312,3.551c0.184,1.936-1.023,3.213-2.555,4.125
	c-3.699,2.2-7.521,2.037-11.501,0.713c-12.419-4.125-24.877-8.118-37.292-12.262c-1.569-0.523-3.167-1.396-4.361-2.518
	c-2.681-2.518-1.74-6.104,1.716-7.305c2.021-0.697,4.036-0.581,6.01,0.103c11.419,3.972,22.827,7.969,34.237,11.956
	c1.226,0.427,2.384,1.011,2.382,2.473c0,1.487-1.113,2.401-2.388,2.663c-1.436,0.295-3.096,0.543-4.435,0.116
	c-9.4-2.998-18.743-6.174-28.097-9.311c-0.443-0.149-0.818-0.492-1.232-0.742C66.411,299.114,66.448,298.94,66.485,298.769"/>
<g>
	<path fill-rule="evenodd" clip-rule="evenodd" fill="#9BC143" d="M404.656,199.065h1.75c0.297-0.165,0.575-0.391,0.892-0.486
		c14.388-4.329,28.778-8.646,43.317-13.01c0-2.347-0.073-4.819,0.029-7.284c0.055-1.297-0.49-1.724-1.648-2.052
		c-3.839-1.085-7.657-2.256-11.451-3.49c-0.999-0.326-2.008-0.862-2.797-1.55c-4.991-4.351-9.942-8.749-14.866-13.179
		c-3.07-2.764-6.067-5.609-9.097-8.419h-0.875c-0.71,0.283-1.397,0.644-2.129,0.839c-6.653,1.772-13.335,3.44-19.962,5.306
		c-2.331,0.656-4.46,0.623-6.741-0.145c-4.01-1.348-8.086-2.498-12.373-3.804c0.162,2.43,0.457,4.536,0.396,6.63
		c-0.055,1.899,0.611,3.235,1.903,4.587c7.744,8.108,15.422,16.277,23.082,24.464C397.657,191.293,401.135,195.198,404.656,199.065"
		/>
	<path fill-rule="evenodd" clip-rule="evenodd" fill="#B8DD63" d="M412.449,140.476h-1.314c-0.164,0.128-0.311,0.328-0.496,0.377
		c-9.604,2.516-19.212,5.007-28.813,7.531c-4.244,1.116-8.472,2.297-12.971,3.521c0.733,0.851,1.227,1.468,1.766,2.042
		c7.537,8.015,15.102,16.005,22.615,24.043c3.823,4.089,7.558,8.259,11.333,12.392h1.752c0.152-0.139,0.282-0.354,0.461-0.409
		c6.85-2.063,13.701-4.116,20.557-6.159c7.664-2.284,15.33-4.56,23.159-6.887c-0.305-0.391-0.447-0.632-0.644-0.817
		c-12.028-11.336-24.063-22.667-36.084-34.01C413.266,141.624,412.887,141.019,412.449,140.476"/>
	<path fill-rule="evenodd" clip-rule="evenodd" fill="#9BC143" d="M447.362,146.252c-5.218,1.466-10.422,2.979-15.654,4.388
		c-9.394,2.529-18.8,5.009-28.212,7.473c-1.179,0.309-1.769,0.897-2.056,2.114c-1.303,5.529-4.298,7.332-9.933,6.331
		c-6.92-1.23-12.52-4.874-17.694-9.362v0.876c0.297,0.185,0.636,0.324,0.883,0.56c5.67,5.407,11.813,10.016,19.694,11.698h2.188
		c0.755-0.217,1.507-0.448,2.265-0.649c14.014-3.749,28.038-7.458,42.025-11.299c1.367-0.376,2.935-1.295,3.67-2.438
		c1.5-2.329,2.496-4.983,3.698-7.503C447.707,147.807,449.4,146.283,447.362,146.252"/>
	<path fill-rule="evenodd" clip-rule="evenodd" fill="#539798" d="M429.849,162.8c-6.302,1.981-12.603,3.963-19.015,5.979
		c0.595,1.426,1.438,1.993,3.117,1.459c6.021-1.915,12.081-3.712,18.282-5.603c-0.408-0.698-0.739-1.266-1.07-1.834H429.849z"/>
	<path fill-rule="evenodd" clip-rule="evenodd" fill="#539798" d="M442.502,174.476c-0.848-1.445-1.778-1.688-3.329-1.212
		c-11.778,3.623-23.594,7.124-35.396,10.671c-0.123,0.037-0.213,0.188-0.484,0.44c0.728,0.878,1.028,1.873,2.778,1.332
		c11.914-3.675,23.871-7.202,35.813-10.786C442.077,174.861,442.232,174.674,442.502,174.476"/>
	<path fill-rule="evenodd" clip-rule="evenodd" fill="#539798" d="M398.513,179.179c0.816,1.397,1.696,1.728,3.292,1.235
		c11.837-3.648,23.716-7.16,35.661-10.738c-0.693-1.402-1.559-2.038-3.129-1.561c-11.65,3.543-23.314,7.046-34.973,10.572
		C399.095,178.77,398.862,178.974,398.513,179.179"/>
</g>
<g>
	<path fill-rule="evenodd" clip-rule="evenodd" fill="#539798" d="M163.98,66.564c0.571,0.516,1.153,1.022,1.71,1.553
		c0.242,0.231,0.442,0.507,0.648,0.774c0.486,0.632,0.939,1.294,1.456,1.903c0.463,0.547,0.997,1.035,1.491,1.558
		c0.496,0.526,0.956,1.087,1.476,1.59c0.605,0.587,1.233,1.156,1.896,1.678c0.757,0.596,1.553,1.147,2.353,1.688
		c0.726,0.491,1.453,0.988,2.223,1.401c1.339,0.718,2.661,1.487,4.186,1.782c1.254,0.242,2.492,0.603,3.756,0.755
		c1.399,0.169,2.817,0.195,4.229,0.227c1.579,0.034,3.14-0.188,4.652-0.613c1.769-0.495,3.527-1.04,5.25-1.669
		c1.249-0.456,2.453-1.044,3.641-1.649c1.416-0.719,2.806-1.492,4.179-2.291c1.072-0.624,2.109-1.311,3.15-1.991
		c1.027-0.669,2.066-1.324,3.037-2.067c0.413-0.314,0.648-0.176,1.005,0c1.155,0.568,1.87,1.533,2.456,2.62
		c0.054,0.102,0.043,0.294-0.02,0.392c-0.423,0.657-0.849,1.314-1.313,1.942c-0.397,0.538-0.815,1.073-1.285,1.548
		c-1.391,1.404-2.788,2.801-4.225,4.153c-1.054,0.992-2.147,1.953-3.281,2.853c-0.813,0.646-1.722,1.167-2.588,1.746
		c-0.817,0.547-1.623,1.109-2.451,1.641c-0.637,0.408-1.296,0.783-1.951,1.164c-0.778,0.451-1.542,0.934-2.349,1.331
		c-1.929,0.951-3.944,1.665-6.069,2.046c-0.798,0.143-1.575,0.42-2.375,0.521c-1.364,0.171-2.738,0.255-4.109,0.367
		c-1.395,0.113-2.776-0.007-4.147-0.269c-0.785-0.149-1.569-0.287-2.342-0.482c-0.567-0.144-1.101-0.418-1.67-0.557
		c-1.953-0.477-3.775-1.292-5.584-2.14c-0.392-0.184-0.792-0.37-1.209-0.466c-0.385-0.09-0.458-0.268-0.438-0.626
		c0.064-1.115,0.171-2.236,0.12-3.348c-0.071-1.531-0.254-3.057-0.42-4.584c-0.169-1.56-0.716-3.027-1.189-4.51
		c-0.503-1.57-0.928-3.17-1.536-4.698c-0.524-1.321-1.256-2.559-1.897-3.833c-0.181-0.363-0.371-0.721-0.549-1.084
		c-0.035-0.073-0.04-0.163-0.058-0.244C163.886,66.638,163.933,66.602,163.98,66.564z"/>
	<g>
		<path fill-rule="evenodd" clip-rule="evenodd" fill="#FAA979" d="M227.319,60.373c-0.058,0.354-0.075,0.721-0.184,1.057
			c-0.379,1.169-0.747,2.345-1.2,3.484c-0.625,1.563-1.794,2.744-2.945,3.925c-0.592,0.607-1.155,1.252-1.807,1.79
			c-0.832,0.688-1.722,1.314-2.623,1.91c-0.62,0.41-1.305,0.722-1.977,1.088c-0.318-0.375-0.637-0.785-0.994-1.161
			c-0.376-0.397-0.795-0.752-1.185-1.139c-0.083-0.085-0.179-0.242-0.156-0.339c0.387-1.623,0.929-3.192,1.611-4.717
			c0.259-0.582,0.394-1.223,0.674-1.794c0.443-0.898,0.958-1.76,1.443-2.637c0.507-0.921,1.217-1.657,2.064-2.269
			c0.363-0.262,0.898-0.165,1.035,0.259c0.104,0.324,0.118,0.725,0.034,1.057c-0.276,1.085-1.112,1.835-1.733,2.714
			c-0.256,0.363-0.53,0.715-0.759,1.094c-0.091,0.152-0.081,0.366-0.117,0.551c0.038,0.033,0.077,0.066,0.115,0.099
			c0.302-0.204,0.678-0.349,0.888-0.624c0.655-0.861,1.305-1.737,1.848-2.671c0.811-1.399,1.524-2.857,2.295-4.283
			c0.147-0.271,0.37-0.503,0.559-0.752c0.603-0.799,1.155-0.568,1.734-0.015c0.688,0.655,1.117,1.469,1.287,2.413
			c0.018,0.085,0.06,0.167,0.092,0.25C227.319,59.899,227.319,60.137,227.319,60.373z"/>
		<path fill-rule="evenodd" clip-rule="evenodd" fill="#FAA979" d="M107.131,135.283c-0.584-0.21-1.2-0.358-1.745-0.642
			c-1.966-1.031-3.704-2.333-4.813-4.327c-0.494-0.891-1.06-1.749-1.479-2.673c-0.405-0.892-0.724-1.825-0.893-2.809
			c-0.122-0.706-0.398-1.384-0.594-2.077c-0.092-0.326-0.19-0.657-0.229-0.992c-0.092-0.774-0.131-1.555-0.226-2.329
			c-0.061-0.5-0.201-0.991-0.265-1.492c-0.041-0.317-0.007-0.645-0.007-1.025c0.226,0.098,0.375,0.167,0.527,0.229
			c1.32,0.521,2.666,0.691,4.058,0.314c0.084-0.022,0.226-0.01,0.276,0.044c0.605,0.668,1.279,1.294,1.776,2.037
			c0.605,0.904,1.011,1.94,1.592,2.864c0.614,0.976,0.926,2.031,1.005,3.149c0.045,0.631-0.06,1.28-0.158,1.911
			c-0.064,0.418-0.476,0.688-0.882,0.707c-0.449,0.021-0.562-0.313-0.693-0.63c-0.291-0.701-0.576-1.403-0.871-2.103
			c-0.031-0.075-0.105-0.132-0.158-0.198c-0.045,0.01-0.089,0.02-0.133,0.029c0.059,0.528,0.054,1.074,0.195,1.579
			c0.17,0.6,0.384,1.223,0.73,1.731c0.48,0.71,1.088,1.337,1.667,1.977c0.729,0.804,1.515,1.558,2.217,2.384
			c0.275,0.323,0.435,0.769,0.563,1.187c0.093,0.303-0.011,0.625-0.31,0.832c-0.15,0.104-0.294,0.216-0.441,0.324
			C107.604,135.283,107.368,135.283,107.131,135.283z"/>
		<path fill-rule="evenodd" clip-rule="evenodd" fill="#FAA979" d="M156.745,25.277c0.373,0.531,0.707,0.963,0.994,1.427
			c0.394,0.636,0.754,1.294,1.124,1.944c0.502,0.882,1.066,1.737,1.486,2.656c0.585,1.281,1.072,2.607,1.582,3.923
			c0.263,0.679,0.504,1.37,0.717,2.067c0.402,1.33,0.607,2.693,0.418,4.075c-0.15,1.095-0.313,2.207-0.655,3.251
			c-0.376,1.153-0.783,2.337-1.611,3.271c-0.356,0.402-0.814,0.746-1.286,1.01c-0.847,0.469-1.752,0.829-2.605,1.29
			c-0.695,0.374-1.477,0.705-1.788,1.512c-0.151,0.391-0.163,0.841-0.192,1.268c-0.016,0.225-0.02,0.349-0.277,0.466
			c-1.168,0.541-2.375,0.983-3.646,1.127c-1.155,0.132-2.329,0.301-3.495-0.019c-0.274-0.075-0.583-0.016-0.857-0.088
			c-1.033-0.271-2.062-0.558-3.083-0.868c-0.497-0.15-0.516-0.231-0.376-0.703c0.34-1.144,0.149-2.24-0.357-3.281
			c-0.447-0.917-0.932-1.82-1.702-2.531c-0.097-0.09-0.133-0.32-0.1-0.462c0.174-0.722,0.01-1.431-0.042-2.144
			c-0.011-0.156,0.008-0.313-0.001-0.469c-0.018-0.354,0.026-0.729-0.082-1.053c-0.296-0.884-0.223-1.731,0.146-2.56
			c0.103-0.232,0.318-0.412,0.454-0.632c0.501-0.818,0.701-1.742,0.908-2.664c0.278-1.246,0.585-2.507,1.41-3.506
			c0.514-0.623,1.193-1.128,1.857-1.604c0.953-0.684,2.1-0.95,3.203-1.279c0.957-0.287,1.953-0.446,2.904-0.746
			c0.928-0.292,1.763-0.795,2.525-1.408c0.327-0.263,0.713-0.484,0.961-0.809c0.439-0.574,0.798-1.21,1.18-1.827
			C156.553,25.757,156.61,25.58,156.745,25.277z"/>
	</g>
	<g>
		<path fill-rule="evenodd" clip-rule="evenodd" fill="#485D70" d="M139.854,48.079c-0.48-0.214-0.974-0.402-1.438-0.646
			c-0.877-0.459-1.607-1.103-2.224-1.881c-0.185-0.234-0.454-0.405-0.624-0.647c-0.368-0.521-0.695-1.07-1.039-1.608
			c-0.729-1.14-1.304-2.361-1.667-3.659c-0.266-0.948-0.459-1.917-0.279-2.938c0.122-0.694,0.035-1.423,0.082-2.136
			c0.046-0.728,0.112-1.457,0.222-2.178c0.068-0.447,0.238-0.878,0.355-1.318c0.259-0.978,0.722-1.843,1.402-2.59
			c0.568-0.624,1.095-1.292,1.72-1.852c0.901-0.811,1.86-1.563,2.822-2.303c1.307-1.006,2.769-1.758,4.255-2.45
			c0.837-0.39,1.728-0.66,2.589-0.998c0.412-0.162,0.813-0.349,1.213-0.538c0.446-0.212,0.62-0.645,0.849-1.046
			c0.331-0.583,0.621-1.23,1.088-1.688c0.579-0.568,1.427-0.71,2.198-0.521c0.827,0.204,1.632,0.552,2.396,0.938
			c0.321,0.162,0.508,0.585,0.764,0.882c0.52,0.605,1.122,1.156,1.551,1.82c0.627,0.975,1.058,2.073,1.173,3.229
			c0.061,0.619-0.082,1.286-0.262,1.892c-0.188,0.633-0.468,1.262-0.829,1.815c-0.297,0.457-0.739,0.837-1.173,1.181
			c-0.541,0.428-1.11,0.841-1.719,1.16c-0.736,0.384-1.507,0.725-2.298,0.97c-0.999,0.309-2.046,0.463-3.049,0.761
			c-0.544,0.161-1.023,0.53-1.564,0.713c-0.913,0.312-1.57,0.943-2.191,1.625c-0.598,0.658-0.854,1.497-1.103,2.324
			c-0.255,0.851-0.414,1.736-0.72,2.565c-0.231,0.63-0.584,1.229-0.962,1.788c-0.568,0.84-0.501,1.752-0.4,2.667
			c0.075,0.662,0.165,1.336,0.614,1.89c0.052,0.063,0.023,0.198,0.017,0.298c-0.012,0.196-0.064,0.395-0.046,0.588
			c0.056,0.585-0.185,1.064-0.574,1.448c-0.186,0.184-0.5,0.237-0.756,0.349c-0.077,0.033-0.155,0.062-0.233,0.094
			C139.959,48.079,139.906,48.079,139.854,48.079z"/>
	</g>
	<g>
		<path fill-rule="evenodd" clip-rule="evenodd" fill="#F3816F" d="M137.364,42.692c0.024-0.127,0.061-0.253,0.068-0.381
			c0.079-1.282,1.208-2.355,2.254-2.567c0.685-0.138,0.861,0.117,1.374,0.739c0.335,0.408,0.375,0.876,0.267,1.438
			c-0.219,1.161,0.655,2.524,2.095,2.005c0.527-0.189,1.447,0.538,1.314,1.071c-0.07,0.282-0.375,0.577-0.649,0.724
			c-0.944,0.507-1.962,0.575-3.004,0.359c-0.371-0.077-0.738-0.175-1.111-0.231c-1.419-0.209-2.434-1.193-2.524-2.581
			c-0.009-0.141-0.056-0.28-0.085-0.419C137.364,42.797,137.364,42.745,137.364,42.692z"/>
		<path fill-rule="evenodd" clip-rule="evenodd" fill="#F3816F" d="M156.25,34.395c0.748,0.565,1.092,1.378,1.463,2.206
			c0.344,0.768,0.647,1.614,1.509,2.025c0.599,0.285,1.208,0.47,1.883,0.463c0.252-0.002,0.561,0.086,0.747,0.245
			c0.445,0.383,0.351,1.074-0.207,1.382c-0.845,0.467-1.772,0.547-2.708,0.358c-0.468-0.094-0.858-0.083-1.21,0.3
			c-0.292,0.315-0.676,0.421-1.112,0.281c-0.473-0.152-0.678-0.544-0.779-0.959c-0.073-0.299,0.043-0.64,0.02-0.958
			c-0.039-0.539-0.055-1.093-0.199-1.608c-0.2-0.711-0.561-1.38-0.761-2.092c-0.174-0.621,0.057-1.331,0.791-1.544
			c0.036-0.011,0.061-0.064,0.09-0.099C155.935,34.395,156.092,34.395,156.25,34.395z"/>
	</g>
	<g>
		<g>
			<path fill-rule="evenodd" clip-rule="evenodd" fill="#485D70" d="M202.384,234.459c-0.216,1.059-1.088,1.418-1.929,1.8
				c-1.299,0.593-2.678,0.844-4.09,0.765c-0.964-0.055-1.918-0.259-2.876-0.404c-2.235-0.341-4.312-1.184-6.356-2.095
				c-0.829-0.37-1.599-0.896-2.347-1.42c-0.804-0.56-1.578-1.169-2.322-1.812c-1.117-0.965-2.237-1.934-2.976-3.251
				c-0.083-0.148-0.265-0.237-0.404-0.354c-0.907,0.267-1.148,1.003-1.341,1.774c-0.115,0.464-0.276,0.586-0.725,0.426
				c-0.988-0.349-1.985-0.682-2.866-1.277c-0.297-0.203-0.434-0.382-0.343-0.784c0.186-0.813,0.206-1.67,0.439-2.466
				c0.459-1.564,0.772-3.196,1.737-4.567c0.32-0.457,0.712-0.864,1.069-1.296c0.282-0.343,0.558-0.687,0.838-1.031
				c0.133-0.164,0.27-0.151,0.479-0.108c1.482,0.308,2.92,0.857,4.453,0.897c0.888,0.024,1.775-0.022,2.665-0.036
				c0.075-0.002,0.152-0.002,0.178-0.002c0.167,0.748,0.299,1.475,0.496,2.183c0.162,0.585,0.402,1.151,0.607,1.729
				c0.096,0.27,0.22,0.535,0.28,0.813c0.194,0.881,0.706,1.588,1.213,2.296c0.25,0.35,0.564,0.652,0.86,0.967
				c0.38,0.402,0.738,0.839,1.167,1.18c0.909,0.718,1.844,1.406,2.8,2.062c1.373,0.938,2.928,1.448,4.535,1.813
				c1.056,0.242,2.125,0.432,3.18,0.683c0.693,0.164,1.239,0.543,1.467,1.271c0.013,0.036,0.075,0.06,0.111,0.088
				C202.384,234.354,202.384,234.407,202.384,234.459z"/>
			<path fill-rule="evenodd" clip-rule="evenodd" fill="#485D70" d="M59.265,186.732c-0.382,0.221-0.802,0.419-1.172,0.686
				c-0.33,0.24-0.511,0.221-0.756-0.108c-0.757-1.018-0.882-2.218-1.025-3.418c-0.058-0.478-0.136-0.956-0.175-1.437
				c-0.013-0.158,0.011-0.369,0.105-0.48c1.28-1.519,2.717-2.86,4.471-3.831c0.892-0.494,1.77-1.011,2.676-1.476
				c0.315-0.16,0.698-0.192,1.118-0.301c0.136,0.678,0.262,1.303,0.386,1.929c0.347,1.743,1.206,3.177,2.583,4.3
				c0.2,0.162,0.383,0.346,0.596,0.542c-1.027,0.894-1.184,2.128-1.446,3.288c-0.221,0.978-0.302,1.987-0.44,2.982
				c-0.111,0.805-0.251,1.605-0.309,2.414c-0.113,1.564,0.017,3.098,0.505,4.611c0.53,1.646,1.461,3.031,2.613,4.274
				c0.617,0.662,1.36,1.206,2.037,1.815c0.455,0.413,0.937,0.809,1.324,1.279c0.526,0.644,0.521,1.528-0.3,2.029
				c-1.243,0.757-2.57,0.728-3.889,0.242c-1.234-0.453-2.186-1.341-3.172-2.178c-1.619-1.371-2.525-3.219-3.457-5.052
				c-0.521-1.024-1.057-2.052-1.475-3.121c-0.685-1.752-1.136-3.569-1.043-5.475C59.076,189.102,59.178,187.958,59.265,186.732z"/>
		</g>
		<g>
			<path fill-rule="evenodd" clip-rule="evenodd" fill="#9BC143" d="M134.305,126.183c0.371,1.114,0.621,2.144,1.055,3.089
				c0.482,1.051,0.866,2.164,1.608,3.089c0.447,0.558,0.8,1.195,1.27,1.731c0.609,0.695,1.236,1.397,1.956,1.968
				c1.084,0.86,2.222,1.662,3.398,2.391c1.053,0.653,2.189,1.175,3.289,1.754c1.165,0.611,2.331,1.223,3.489,1.829
				c-0.388,1.078-1.151,1.938-1.902,2.785c-1.445,1.628-2.919,3.229-4.431,4.797c-0.951,0.984-1.984,1.892-2.993,2.821
				c-0.73,0.672-1.451,1.36-2.226,1.98c-1.308,1.046-2.658,2.043-3.985,3.067c-1.816,1.401-3.822,2.492-5.835,3.565
				c-1.993,1.063-3.971,2.167-6.03,3.089c-2.219,0.994-4.527,1.792-6.791,2.686c-2.249,0.89-4.48,1.82-6.742,2.678
				c-1.514,0.575-3.068,1.043-4.599,1.574c-1.467,0.509-2.922,1.057-4.394,1.551c-1.558,0.522-3.134,0.993-4.696,1.505
				c-2.122,0.696-4.234,1.419-6.354,2.118c-1.179,0.389-2.371,0.74-3.549,1.131c-1.786,0.595-3.56,1.231-5.352,1.81
				c-1.069,0.344-2.168,0.594-3.242,0.923c-1.108,0.339-2.211,0.695-3.298,1.096c-1.298,0.475-2.575,1.015-3.868,1.503
				c-0.566,0.215-1.151,0.38-1.733,0.549c-0.09,0.025-0.228-0.029-0.315-0.088c-1.283-0.871-2.246-2.039-2.765-3.48
				c-0.359-1.001-0.473-2.089-0.702-3.138c-0.078-0.357-0.031-0.628,0.31-0.868c0.693-0.492,1.336-1.053,2.022-1.556
				c1.1-0.804,2.196-1.618,3.334-2.365c1.005-0.659,2.069-1.229,3.104-1.844c0.461-0.271,0.907-0.571,1.376-0.828
				c0.79-0.427,1.585-0.847,2.392-1.24c0.973-0.477,1.956-0.933,2.943-1.379c1.991-0.898,3.962-1.844,5.985-2.663
				c2.622-1.063,5.289-2.015,7.933-3.029c1.662-0.638,3.315-1.294,4.971-1.949c1.371-0.543,2.771-1.027,4.098-1.662
				c1.348-0.642,2.625-1.431,3.925-2.168c1.704-0.969,3.233-2.184,4.728-3.438c1.334-1.117,2.63-2.282,3.919-3.45
				c1.095-0.992,2.174-2.004,3.229-3.039c0.71-0.697,1.378-1.442,2.042-2.186c1.276-1.435,2.546-2.877,3.795-4.335
				c0.5-0.586,0.921-1.239,1.407-1.837c0.601-0.739,1.233-1.451,1.85-2.179c0.83-0.978,1.673-1.945,2.479-2.944
				c0.878-1.088,1.731-2.195,2.567-3.318c0.254-0.34,0.387-0.767,0.613-1.131C133.784,126.834,134.031,126.548,134.305,126.183z"/>
		</g>
		<g>
			<path fill-rule="evenodd" clip-rule="evenodd" fill="#B8DD63" d="M184.075,220.182c-0.397-0.039-0.795-0.121-1.189-0.104
				c-0.937,0.043-1.801-0.251-2.673-0.518c-0.621-0.19-1.243-0.381-1.848-0.609c-0.149-0.058-0.323-0.25-0.349-0.405
				c-0.171-0.994-0.327-1.991-0.445-2.994c-0.208-1.758-0.438-3.518-0.559-5.285c-0.104-1.519-0.077-3.046-0.09-4.565
				c-0.012-1.438-0.012-2.876,0.007-4.313c0.006-0.573,0.13-1.146,0.115-1.718c-0.036-1.476-0.132-2.949-0.188-4.425
				c-0.082-2.171-0.139-4.344-0.229-6.518c-0.062-1.504-0.184-3.005-0.239-4.511c-0.041-1.096-0.015-2.194-0.026-3.291
				c-0.011-1.287-0.039-2.569-0.041-3.854c0-1.051,0.03-2.099,0.039-3.146c0.006-0.903,0.002-1.805,0.006-2.706
				c0.006-1.26,0.082-2.522,0.006-3.777c-0.09-1.472-0.464-2.875-1.183-4.207c-0.958-1.784-2.192-3.352-3.51-4.862
				c-1.118-1.283-2.243-2.577-3.487-3.734c-1.728-1.606-3.549-3.116-5.603-4.318c-1.119-0.657-2.183-1.405-3.297-2.07
				c-0.887-0.529-1.821-0.974-2.72-1.485c-1.297-0.738-2.564-1.533-3.875-2.246c-1.297-0.708-2.636-1.338-3.952-2.013
				c-0.956-0.488-1.907-0.986-2.856-1.488c-1.076-0.571-2.167-1.114-3.216-1.732c-1.458-0.857-2.827-1.857-4.084-2.988
				c-0.928-0.833-1.673-1.838-2.382-2.866c-0.477-0.692-0.924-1.385-1.228-2.183c-0.284-0.74-0.776-1.41-0.999-2.162
				c-0.288-0.972-0.477-1.989-0.321-3.027c0.171-1.136,0.282-2.286,0.518-3.41c0.216-1.031,0.548-2.038,0.856-3.047
				c0.29-0.944,0.595-1.885,0.935-2.813c0.317-0.87,0.694-1.718,1.035-2.578c0.293-0.738,0.564-1.483,0.862-2.219
				c0.189-0.47,0.409-0.927,0.633-1.429c0.333,0.197,0.586,0.386,0.871,0.504c1.164,0.492,2.325,0.997,3.511,1.43
				c1.089,0.399,2.2,0.748,3.319,1.053c1.31,0.355,2.63,0.688,3.963,0.936c0.977,0.181,1.982,0.207,2.975,0.309
				c0.83,0.084,1.657,0.202,2.487,0.26c0.559,0.04,1.122-0.007,1.684-0.001c0.402,0.004,0.805,0.05,1.207,0.044
				c1.42-0.018,2.841-0.043,4.261-0.083c0.335-0.011,0.668-0.094,1.037-0.15c0.171,0.805,0.314,1.588,0.506,2.359
				c0.302,1.222,0.554,2.467,0.982,3.647c0.528,1.454,1.202,2.857,1.839,4.271c0.504,1.115,1.003,2.236,1.588,3.309
				c0.409,0.753,0.943,1.441,1.451,2.136c0.439,0.601,0.881,1.206,1.391,1.744c0.704,0.74,1.489,1.403,2.208,2.128
				c0.625,0.629,1.193,1.313,1.812,1.947c0.854,0.877,1.735,1.729,2.599,2.596c0.828,0.83,1.555,1.743,2.237,2.697
				c0.569,0.795,1.224,1.532,1.803,2.323c0.404,0.554,0.738,1.157,1.113,1.733c0.368,0.568,0.78,1.11,1.11,1.698
				c0.526,0.946,1.011,1.913,1.495,2.883c0.278,0.56,0.548,1.129,0.762,1.717c0.152,0.426,0.182,0.893,0.311,1.327
				c0.19,0.632,0.449,1.247,0.626,1.884c0.267,0.958,0.545,1.92,0.721,2.898c0.302,1.683,0.549,3.377,0.778,5.073
				c0.237,1.773,0.437,3.555,0.633,5.334c0.087,0.776,0.156,1.557,0.186,2.34c0.035,0.834,0.008,1.67,0.019,2.507
				c0.011,0.811,0.067,1.621,0.043,2.43c-0.058,1.91-0.152,3.822-0.233,5.731c-0.069,1.554-0.126,3.108-0.214,4.663
				c-0.101,1.767-0.233,3.531-0.339,5.3c-0.139,2.291-0.238,4.586-0.404,6.877c-0.154,2.155-0.355,4.31-0.573,6.459
				c-0.105,1.04-0.317,2.065-0.439,3.102c-0.111,0.938-0.147,1.884-0.25,2.821c-0.12,1.067-0.263,2.133-0.423,3.195
				c-0.144,0.958-0.285,1.919-0.503,2.862c-0.225,0.977-0.533,1.938-0.828,2.897c-0.027,0.092-0.203,0.171-0.325,0.199
				c-0.391,0.09-0.79,0.151-1.185,0.227C184.233,220.182,184.154,220.182,184.075,220.182z"/>
		</g>
	</g>
	<g>
		<path fill-rule="evenodd" clip-rule="evenodd" fill="#2A7D7D" d="M137.484,100.519c0-0.053,0-0.106,0-0.158
			c0.04-0.493,0.092-0.984,0.114-1.477c0.031-0.709-0.003-1.423,0.069-2.128c0.09-0.896,0.286-1.783,0.388-2.68
			c0.156-1.369,0.275-2.743,0.4-4.116c0.089-0.988,0.229-1.979,0.23-2.967c0.001-1.522-0.054-3.047-0.17-4.565
			c-0.075-0.976-0.288-1.943-0.462-2.91c-0.116-0.644-0.272-1.28-0.411-1.921c-0.049-0.229,0.024-0.341,0.271-0.414
			c2.271-0.674,4.411-1.667,6.508-2.75c0.698-0.361,1.313-0.881,1.962-1.333c1.239-0.861,2.14-2.027,2.859-3.325
			c0.378-0.681,0.708-1.419,0.887-2.173c0.384-1.611,0.423-3.271,0.358-4.919c-0.024-0.587-0.203-1.179-0.386-1.744
			c-0.173-0.531-0.448-1.03-0.65-1.481c0.845-0.254,1.713-0.495,2.566-0.781c0.604-0.202,1.2-0.439,1.777-0.708
			c1.102-0.511,2.187-1.058,3.28-1.583c0.083-0.041,0.218-0.085,0.277-0.046c0.338,0.22,0.697,0.428,0.979,0.709
			c0.354,0.354,0.628,0.786,0.958,1.166c0.479,0.551,0.999,1.065,1.458,1.631c0.549,0.677,1.185,1.328,1.544,2.102
			c0.761,1.638,1.688,3.175,2.566,4.745c0.794,1.419,1.56,2.868,2.177,4.37c0.641,1.561,1.12,3.193,1.61,4.811
			c0.445,1.471,0.918,2.946,1.182,4.455c0.288,1.654,0.43,3.348,0.485,5.028c0.054,1.604-0.031,3.217-0.153,4.819
			c-0.112,1.461-0.32,2.916-0.552,4.364c-0.219,1.375-0.523,2.736-0.792,4.103c-0.146,0.743-0.228,1.508-0.458,2.225
			c-0.465,1.44-0.988,2.864-1.537,4.275c-0.333,0.859-0.82,1.661-1.125,2.528c-0.283,0.804-0.623,1.57-1.076,2.285
			c-0.079,0.123-0.243,0.249-0.383,0.269c-0.634,0.09-1.274,0.19-1.912,0.197c-1.39,0.014-2.781-0.023-4.172-0.046
			c-1.233-0.021-2.468-0.028-3.699-0.082c-0.824-0.036-1.652-0.104-2.466-0.229c-0.988-0.152-1.962-0.396-2.947-0.572
			c-0.526-0.093-1.067-0.1-1.593-0.188c-0.526-0.089-1.04-0.264-1.567-0.341c-1.825-0.268-3.679-0.417-5.304-1.425
			c-0.518-0.323-1.095-0.594-1.52-1.017c-0.333-0.334-0.509-0.848-0.685-1.309c-0.4-1.047-0.612-2.141-0.716-3.257
			C137.611,101.475,137.543,100.998,137.484,100.519z"/>
	</g>
	<path fill-rule="evenodd" clip-rule="evenodd" fill="#539798" d="M95.769,113.81c0.071-0.474,0.162-0.945,0.208-1.42
		c0.08-0.833,0.133-1.667,0.193-2.502c0.018-0.262,0.001-0.528,0.036-0.787c0.133-0.992,0.283-1.982,0.422-2.975
		c0.067-0.478,0.097-0.963,0.19-1.435c0.164-0.837,0.371-1.667,0.549-2.501c0.158-0.737,0.301-1.476,0.45-2.214
		c0.007-0.038,0.015-0.076,0.026-0.113c0.278-0.904,0.529-1.82,0.842-2.714c0.436-1.243,0.892-2.482,1.394-3.7
		c0.291-0.711,0.695-1.375,1.032-2.068c0.227-0.466,0.406-0.957,0.641-1.419c0.2-0.394,0.45-0.762,0.677-1.143
		c0.556-0.932,1.084-1.883,1.674-2.794c0.673-1.043,1.375-2.07,2.112-3.068c0.705-0.954,1.434-1.896,2.219-2.784
		c1.34-1.52,2.698-3.026,4.113-4.476c0.857-0.878,1.81-1.669,2.766-2.443c1.123-0.907,2.293-1.756,3.449-2.622
		c1.581-1.185,3.146-2.392,4.758-3.534c1.182-0.837,2.439-1.566,3.643-2.373c1.572-1.055,3.109-2.162,4.691-3.198
		c0.851-0.557,1.762-1.021,2.656-1.511c0.747-0.411,1.501-0.81,2.262-1.192c1.084-0.542,2.181-1.062,3.27-1.594
		c0.221-0.108,0.439-0.226,0.65-0.352c0.059-0.036,0.101-0.117,0.127-0.185c0.413-1.052,0.816-2.108,1.237-3.157
		c0.115-0.287,0.278-0.554,0.435-0.86c0.305,0.164,0.569,0.304,0.831,0.446c0.046,0.025,0.086,0.065,0.135,0.083
		c1.004,0.354,1.985,0.79,3.065,0.884c0.65,0.057,1.297,0.16,1.947,0.194c0.519,0.025,1.05,0.03,1.56-0.053
		c1.149-0.187,2.313-0.331,3.382-0.846c0.542-0.261,1.086-0.521,1.625-0.792c0.389-0.196,0.701-0.034,0.86,0.362
		c0.252,0.626,0.564,1.226,0.851,1.837c0.265,0.563,0.539,1.124,0.784,1.696c0.034,0.08-0.044,0.243-0.116,0.33
		c-0.587,0.704-1.268,1.246-2.191,1.497c-0.652,0.177-1.246,0.556-1.885,0.793c-0.936,0.348-1.883,0.666-2.836,0.964
		c-0.328,0.104-0.261,0.282-0.168,0.478c0.462,0.979,0.639,2.012,0.628,3.087c-0.016,1.6-0.046,3.208-0.434,4.762
		c-0.294,1.181-0.871,2.259-1.603,3.253c-0.687,0.934-1.478,1.743-2.434,2.396c-1.399,0.956-2.85,1.822-4.407,2.498
		c-1.001,0.434-2.003,0.875-3.03,1.244c-1.523,0.549-3.081,1.006-4.604,1.558c-1.654,0.601-3.312,1.208-4.923,1.916
		c-1.433,0.63-2.802,1.405-4.203,2.109c-0.442,0.224-0.89,0.433-1.345,0.63c-1.417,0.617-2.79,1.312-4.05,2.218
		c-0.828,0.594-1.708,1.118-2.538,1.711c-0.445,0.316-0.857,0.689-1.243,1.078c-0.92,0.924-1.871,1.827-2.708,2.823
		c-0.945,1.126-1.82,2.317-2.647,3.533c-0.697,1.024-1.313,2.108-1.907,3.197c-0.592,1.089-1.121,2.214-1.66,3.331
		c-0.148,0.304-0.229,0.639-0.35,0.956c-0.513,1.356-1.031,2.711-1.545,4.065c-0.428,1.124-0.907,2.23-1.264,3.375
		c-0.459,1.473-0.84,2.97-1.212,4.467c-0.216,0.873-0.356,1.767-0.511,2.653c-0.095,0.548-0.518,0.942-1.048,1.094
		c-1.211,0.347-2.402,0.11-3.594-0.066c-0.254-0.038-0.49-0.219-0.727-0.35c-0.184-0.101-0.347-0.238-0.532-0.334
		c-0.402-0.208-0.58-0.609-0.568-1.062c0.013-0.459-0.064-0.921-0.103-1.384C95.769,114.811,95.769,114.31,95.769,113.81z"/>
	<path fill-rule="evenodd" clip-rule="evenodd" fill="#539798" d="M138.951,106.442c0.945,0.492,1.81,1.064,2.756,1.4
		c0.988,0.349,2.056,0.474,3.09,0.691c0.688,0.143,1.378,0.283,2.069,0.413c0.437,0.081,0.879,0.133,1.316,0.207
		c0.785,0.131,1.566,0.293,2.354,0.397c1.191,0.157,2.386,0.33,3.584,0.398c1.874,0.108,3.752,0.176,5.628,0.18
		c1.264,0.001,2.527-0.143,3.79-0.218c0.353-0.021,0.705-0.035,1.157-0.057c0.031,0.419,0.108,0.816,0.078,1.202
		c-0.061,0.782-0.183,1.557-0.276,2.335c-0.047,0.39-0.09,0.78-0.13,1.17c-0.042,0.426-0.323,0.799-0.742,0.849
		c-0.844,0.101-1.692,0.17-2.541,0.223c-0.62,0.04-1.243,0.047-1.864,0.041c-0.953-0.011-1.909-0.008-2.857-0.078
		c-1.827-0.135-3.651-0.301-5.473-0.485c-1.417-0.144-2.811-0.411-4.168-0.871c-0.881-0.299-1.805-0.473-2.687-0.772
		c-1.21-0.411-2.415-0.847-3.59-1.35c-0.934-0.398-1.819-0.908-2.719-1.381c-0.076-0.04-0.161-0.197-0.138-0.27
		c0.381-1.274,0.632-2.592,1.223-3.799C138.856,106.576,138.918,106.493,138.951,106.442z"/>
</g>
</svg>
