<?xml version="1.0" encoding="utf-8"?>
<!-- Generator: Adobe Illustrator 16.0.3, SVG Export Plug-In . SVG Version: 6.00 Build 0)  -->
<!DOCTYPE svg PUBLIC "-//W3C//DTD SVG 1.1//EN" "http://www.w3.org/Graphics/SVG/1.1/DTD/svg11.dtd">
<svg version="1.1" id="Layer_1" xmlns="http://www.w3.org/2000/svg" xmlns:xlink="http://www.w3.org/1999/xlink" x="0px" y="0px"
	 width="500px" height="360px" viewBox="0 0 500 360" enable-background="new 0 0 500 360" xml:space="preserve">
<path fill-rule="evenodd" clip-rule="evenodd" fill="#F8A879" d="M329.206,291.279c0.01-0.023,0.019-0.046,0.029-0.064
	c0.086-0.061,0.173-0.113,0.25-0.18c4.038-3.445,8.076-6.895,12.112-10.343c0.515-0.438,1.029-0.878,1.55-1.322
	c0.097,0.1,0.168,0.161,0.222,0.234c1.084,1.487,2.182,2.978,3.244,4.482c0.177,0.248,0.3,0.237,0.529,0.106
	c1.844-1.044,3.697-2.073,5.537-3.124c0.388-0.221,0.861-0.389,0.975-0.916c0.107-0.514,0.214-1.033,0.306-1.547
	c0.04-0.223,0.1-0.455,0.065-0.673c-0.071-0.502,0.161-0.903,0.469-1.208c0.425-0.431,0.908-0.835,1.437-1.135
	c0.927-0.534,1.944-0.646,2.979-0.302c0.711,0.238,1.405,0.513,1.969,1.04c0.323,0.298,0.703,0.547,0.984,0.879
	c0.578,0.682,1.147,1.379,1.644,2.124c0.342,0.511,0.617,1.083,0.811,1.668c0.209,0.635,0.396,1.298,0.209,1.987
	c-0.129,0.473-0.194,0.972-0.397,1.409c-0.235,0.493-0.55,0.974-1.022,1.281c-0.617,0.404-1.1,1.046-2.025,0.848
	c-0.699-0.151-1.443-0.101-2.168-0.089c-0.328,0.005-0.703,0.032-0.948,0.319c-0.197,0.227-0.356,0.475-0.534,0.713
	c-0.324,0.438-0.641,0.884-0.976,1.314c-0.352,0.444-0.719,0.88-1.075,1.321c-0.145,0.176-0.293,0.35-0.422,0.532
	c-0.203,0.275-0.385,0.568-0.589,0.84c-0.358,0.469-0.735,0.928-1.094,1.397c-0.04,0.057-0.045,0.188-0.005,0.245
	c0.165,0.271,0.355,0.53,0.552,0.817c1.38-0.512,2.743-1.024,4.108-1.525c0.964-0.357,1.937-0.698,2.9-1.059
	c0.277-0.104,0.66-0.175,0.785-0.38c0.318-0.563,0.539-1.189,0.767-1.799c0.097-0.256,0.097-0.54,0.168-0.804
	c0.074-0.305,0.116-0.66,0.303-0.894c0.428-0.538,0.994-0.944,1.613-1.244c0.671-0.323,1.385-0.417,2.145-0.347
	c0.829,0.071,1.559,0.419,2.192,0.873c0.654,0.467,1.236,1.055,1.733,1.73c0.728,0.986,1.379,2.004,1.78,3.166
	c0.339,0.966,0.548,1.956,0.162,2.975c-0.041,0.1-0.014,0.224-0.015,0.341c-0.066,0.146-0.129,0.295-0.194,0.443
	c-0.093,0.104-0.209,0.195-0.271,0.313c-0.379,0.711-1.014,1.144-1.695,1.501c-0.353,0.188-0.757,0.396-1.128,0.382
	c-0.688-0.026-1.366-0.255-2.055-0.318c-0.594-0.057-1.212-0.248-1.698,0.424c-0.389,0.517-0.962,0.896-1.446,1.34
	c-0.581,0.525-1.161,1.051-1.74,1.579c-0.426,0.392-0.856,0.786-1.279,1.183c-0.683,0.637-1.358,1.284-2.047,1.918
	c-0.193,0.178-0.311,0.37-0.265,0.635c0.112,0.627,0.233,1.257,0.355,1.886c0.218,1.121,0.446,2.242,0.649,3.362
	c0.019,0.09-0.099,0.263-0.184,0.29c-0.294,0.09-0.601,0.139-0.91,0.186c-1.557,0.243-3.119,0.48-4.679,0.717
	c-1.174,0.182-2.352,0.359-3.528,0.54c-1.125,0.177-2.251,0.355-3.379,0.529c-1.167,0.176-2.335,0.354-3.505,0.521
	c-0.281,0.041-0.564,0.06-0.85,0.09c-0.041-0.021-0.082-0.037-0.125-0.059c-0.105-0.173-0.197-0.356-0.309-0.525
	c-0.527-0.798-1.066-1.589-1.583-2.393c-0.202-0.311-0.329-0.664-0.524-0.972c-0.23-0.364-0.522-0.686-0.755-1.05
	c-0.745-1.156-1.473-2.321-2.209-3.489c-0.612-0.972-1.219-1.943-1.836-2.915c-0.493-0.784-0.995-1.563-1.487-2.35
	c-0.518-0.824-1.022-1.657-1.542-2.481c-0.267-0.425-0.549-0.842-0.815-1.272c-0.275-0.448-0.534-0.902-0.808-1.354
	C330.152,292.845,329.68,292.063,329.206,291.279 M354.618,295.051c0.063,0.075,0.104,0.13,0.149,0.184
	c0.943,1.275,1.893,2.55,2.84,3.826c0.034,0.044,0.058,0.104,0.068,0.156c0.184,1.026,0.357,2.051,0.553,3.073
	c0.004,0.046,0.195,0.116,0.219,0.09c0.637-0.579,1.262-1.171,1.884-1.764c0.642-0.598,1.279-1.199,1.922-1.795
	c0.793-0.731,1.604-1.442,2.375-2.199c0.56-0.552,1.224-0.753,1.972-0.701c0.622,0.044,1.237,0.151,1.856,0.227
	c0.302,0.034,0.643,0.146,0.902,0.051c0.676-0.252,1.287-0.648,1.651-1.315c0.449-0.816,0.44-1.687,0.149-2.528
	c-0.637-1.847-1.659-3.415-3.272-4.587c-0.945-0.68-1.897-0.761-2.896-0.313c-0.526,0.231-1.071,0.555-1.188,1.23
	c-0.029,0.172-0.007,0.354-0.062,0.514c-0.251,0.741-0.501,1.482-0.781,2.214c-0.161,0.41-0.477,0.696-0.896,0.852
	C359.611,293.184,357.155,294.099,354.618,295.051 M347.688,285.536c1.561,2.13,3.081,4.21,4.641,6.335
	c0.343-0.449,0.651-0.865,0.973-1.27c0.351-0.438,0.726-0.853,1.07-1.295c0.354-0.458,0.671-0.948,1.023-1.409
	c0.481-0.617,1.037-1.187,1.463-1.839c0.435-0.669,1.056-0.88,1.757-0.914c0.733-0.042,1.473,0.025,2.212,0.047
	c0.211,0.003,0.456,0.078,0.632-0.001c0.653-0.309,1.206-0.759,1.532-1.422c0.557-1.132,0.184-2.199-0.289-3.243
	c-0.146-0.317-0.338-0.629-0.556-0.905c-0.44-0.562-0.881-1.126-1.38-1.636c-0.371-0.377-0.849-0.648-1.25-0.997
	c-0.455-0.398-1.005-0.518-1.564-0.553c-0.977-0.058-1.747,0.387-2.367,1.113c-0.088,0.1-0.224,0.193-0.247,0.305
	c-0.067,0.354-0.117,0.715-0.131,1.076c-0.038,0.831-0.298,1.599-0.681,2.324c-0.073,0.137-0.18,0.274-0.308,0.356
	c-0.792,0.507-1.589,1.012-2.401,1.493c-0.721,0.429-1.466,0.817-2.192,1.243C348.987,284.719,348.367,285.122,347.688,285.536"/>
<path fill-rule="evenodd" clip-rule="evenodd" fill="#F3816F" d="M342.65,312.438c4.965-4.372,9.93-8.745,14.951-13.166
	c0.681,3.554,1.354,7.051,2.038,10.594c-5.68,0.888-11.323,1.769-16.968,2.651C342.668,312.489,342.659,312.462,342.65,312.438"/>
<path fill-rule="evenodd" clip-rule="evenodd" fill="#9BC143" d="M396.219,319.083c0.402-0.193,0.785-0.48,1.203-0.57
	c8.815-1.759,17.633-3.513,26.454-5.229c1.611-0.314,3.063,0.192,4.185,1.383c1.449,1.54,0.804,3.354-1.38,3.889
	c-2.86,0.695-5.734,1.326-8.599,1.984c-7.593,1.74-15.187,3.475-22.774,5.236c-2.275,0.528-4.507,0.681-6.664-0.43
	c-2.57-1.319-3.171-3.972-1.398-6.243c1.379-1.767,3.291-2.596,5.431-2.988c12.082-2.227,24.162-4.478,36.257-6.642
	c2.887-0.517,5.51,0.319,7.671,2.354c1.121,1.05,1.792,2.354,1.368,3.908c-0.425,1.557-1.681,2.277-3.177,2.636
	c-11.798,2.813-23.592,5.63-35.389,8.443c-0.808,0.192-1.605,0.475-2.421,0.534c-0.468,0.032-0.962-0.297-1.443-0.462
	c0.366-0.339,0.681-0.87,1.104-0.981c2.563-0.658,5.152-1.219,7.73-1.813c9.791-2.257,19.582-4.51,29.37-6.772
	c1.256-0.287,2.446-0.753,2.775-2.158c0.347-1.483-0.462-2.544-1.569-3.401c-2.121-1.646-4.494-1.589-6.982-1.114
	c-11.733,2.25-23.48,4.427-35.197,6.75c-1.295,0.257-2.636,1.063-3.604,1.984c-1.627,1.537-1.167,3.845,0.931,4.633
	c1.284,0.48,2.882,0.692,4.208,0.411c10.411-2.205,20.79-4.561,31.182-6.867c0.833-0.187,1.753-0.402,1.729-1.448
	c-0.028-1.061-0.879-1.571-1.835-1.723c-0.596-0.099-1.24-0.044-1.842,0.076c-8.527,1.724-17.051,3.48-25.582,5.196
	c-0.524,0.104-1.101-0.035-1.654-0.061C396.276,319.428,396.251,319.257,396.219,319.083"/>
<path fill-rule="evenodd" clip-rule="evenodd" fill="#539798" d="M419.307,291.347c0.506,0.021,1.051-0.074,1.513,0.079
	c8.139,2.712,16.262,5.468,24.404,8.164c0.712,0.234,1.595,0.335,2.285,0.123c0.607-0.179,1.063-0.88,1.582-1.352
	c-0.484-0.487-0.888-1.208-1.473-1.43c-2.75-1.039-5.553-1.927-8.334-2.887c-7.009-2.424-14.016-4.857-21.021-7.284
	c-1.39-0.48-2.782-0.48-4.127,0.114c-1.728,0.769-2.298,2.524-1.107,3.975c0.725,0.876,1.788,1.667,2.857,2.034
	c6.774,2.329,13.591,4.528,20.395,6.772c4.563,1.504,9.127,3.006,13.689,4.503c2.513,0.822,4.975,0.804,7.304-0.589
	c1.045-0.623,1.867-1.478,1.715-2.801c-0.139-1.243-1.024-1.924-2.151-2.318c-7.031-2.473-14.063-4.949-21.094-7.415
	c-4.887-1.716-9.781-3.398-14.652-5.151c-0.461-0.169-0.784-0.731-1.174-1.11c0.522-0.055,1.11-0.302,1.56-0.143
	c12.124,4.233,24.237,8.499,36.342,12.793c1.449,0.516,2.727,1.405,2.893,3.102c0.16,1.692-0.894,2.807-2.231,3.604
	c-3.231,1.921-6.57,1.779-10.047,0.623c-10.849-3.604-21.73-7.092-32.575-10.711c-1.37-0.457-2.767-1.219-3.81-2.2
	c-2.342-2.199-1.52-5.332,1.499-6.38c1.766-0.609,3.525-0.509,5.25,0.09c9.975,3.468,19.939,6.961,29.906,10.442
	c1.07,0.374,2.082,0.883,2.081,2.161c0,1.298-0.973,2.098-2.086,2.326c-1.254,0.257-2.704,0.475-3.874,0.101
	c-8.211-2.619-16.372-5.392-24.543-8.132c-0.387-0.131-0.715-0.431-1.076-0.649C419.242,291.65,419.274,291.498,419.307,291.347"/>
<path fill-rule="evenodd" clip-rule="evenodd" fill="#F3816F" d="M187.639,341.154c2.455,1.534,4.912,3.071,7.855,4.91
	c-4.968,0.523-9.312,1.765-14,0.808c-17.427-3.551-34.895-6.894-52.346-10.329c-15.81-3.111-31.617-6.233-47.428-9.349
	c-6.774-1.337-13.544-2.696-20.327-3.998c-2.804-0.537-4.114-1.877-3.735-4.015c0.411-2.309,2.147-3.256,5.025-2.696
	c7.489,1.464,14.975,2.952,22.463,4.422c26.105,5.131,52.212,10.255,78.318,15.382c7.007,1.374,14.017,2.74,21.029,4.094
	c0.382,0.073,0.795-0.004,1.192-0.014C186.337,340.63,186.987,340.893,187.639,341.154"/>
<g>
	<path fill-rule="evenodd" clip-rule="evenodd" fill="#F8A879" d="M131.996,196.763v4.753c-0.039,0.215-0.076,0.431-0.115,0.646
		c-0.279,1.555-0.413,3.15-0.861,4.651c-1.665,5.585-5.083,9.934-9.744,13.348c-4.485,3.285-9.532,5.438-14.748,7.233
		c-0.153,0.053-0.323,0.076-0.485,0.082c-2.206,0.082-4.414,0.149-6.62,0.24c-1.339,0.055-2.677,0.144-4.014,0.217h-2.985
		c-0.181-0.028-0.362-0.072-0.542-0.079c-3.311-0.126-6.621-0.242-9.93-0.376c-0.36-0.017-0.739-0.064-1.072-0.193
		c-2.259-0.881-4.541-1.717-6.754-2.702c-3.937-1.753-7.602-3.962-10.725-6.974c-3.782-3.648-6.33-7.991-7.279-13.203
		c-0.175-0.956-0.266-1.927-0.396-2.89v-4.753c0.048-0.49,0.078-0.982,0.147-1.47c0.774-5.534,1.482-11.081,2.359-16.598
		c0.805-5.064,1.792-10.099,2.706-15.146c0.317-1.753,0.651-3.503,0.977-5.254h63.891c0.028,0.086,0.071,0.17,0.086,0.258
		c1.393,7.818,2.828,15.63,4.154,23.458c0.648,3.823,1.1,7.681,1.621,11.525C131.812,194.607,131.888,195.687,131.996,196.763"/>
	<path fill-rule="evenodd" clip-rule="evenodd" fill="#F3816F" d="M125.917,158.746c0,3.65-14.346,6.61-32.042,6.61
		c-17.697,0-32.043-2.96-32.043-6.61c0-3.652,14.347-6.612,32.043-6.612C111.571,152.134,125.917,155.094,125.917,158.746"/>
	<g>
		<defs>
			<path id="SVGID_1_" d="M61.832,158.746c0,3.652,14.346,6.61,32.044,6.61c17.696,0,32.042-2.958,32.042-6.61
				s-14.346-6.612-32.042-6.612C76.178,152.134,61.832,155.094,61.832,158.746"/>
		</defs>
		<clipPath id="SVGID_2_">
			<use xlink:href="#SVGID_1_"  overflow="visible"/>
		</clipPath>
		<path clip-path="url(#SVGID_2_)" fill-rule="evenodd" clip-rule="evenodd" fill="#2A7D7D" d="M132.398,107.746
			c-1.457-0.507-2.896-1.087-4.375-1.503c-1.582-0.442-2.96,0.047-3.61,1.582c-0.659,1.561-1.655,1.658-3.049,1.239
			c-0.956-0.286-1.96-0.399-3.012-0.605c-2.403,9.949-4.799,19.763-7.102,29.604c-0.137,0.581,0.432,1.327,0.672,1.995
			c0.525-0.517,1.373-0.955,1.529-1.572c2.214-8.791,4.333-17.607,6.478-26.418c0.067-0.265,0.168-0.525,0.285-0.892
			c1.551,0.108,2.222,0.167,1.614,2.298c-2.628,9.229-4.907,18.554-7.334,27.932c2.208,0.611,4.167,1.177,6.14,1.693
			c1.181,0.308,2.393,0.51,3.571,0.821c1.227,0.327,2.013,0.253,2.369-1.291c1.665-7.194,3.551-14.345,5.131-21.563
			c0.691-3.145,0.885-6.414,1.185-9.636c0.102-1.089-0.17-2.215-0.273-3.327C132.542,107.985,132.472,107.867,132.398,107.746"/>
		<path clip-path="url(#SVGID_2_)" fill-rule="evenodd" clip-rule="evenodd" fill="#539798" d="M117.911,170.861
			c0.815-2.586,1.62-5.175,2.397-7.772c1.916-6.406,3.29-12.981,4.923-19.54c-3.265-0.692-6.246-1.322-9.389-1.985
			c-2.469,9.619-4.862,19.371-6.766,29.297H117.911z"/>
		<path clip-path="url(#SVGID_2_)" fill-rule="evenodd" clip-rule="evenodd" fill="#9BC143" d="M72.017,170.861
			c-0.513-1.68-1.023-3.359-1.535-5.038c-3.456-11.334-6.974-22.651-10.354-34.008c-0.91-3.056-3.001-5.219-4.868-7.976
			c-0.159,2.308-0.292,4.232-0.422,6.159c0.05,0.464,0.101,0.93,0.153,1.395c0.128,0.23,0.303,0.448,0.38,0.696
			c1.407,4.546,2.804,9.095,4.193,13.646c2.559,8.376,5.117,16.752,7.676,25.127H72.017z"/>
		<path clip-path="url(#SVGID_2_)" fill-rule="evenodd" clip-rule="evenodd" fill="#597387" d="M73.949,125.188
			c2.765,2.315,4.077,5.449,5.015,8.754c2.565,9.037,5.177,18.065,7.471,27.171c0.799,3.172,1.102,6.471,1.47,9.749h9.191
			c0.115-7.748,1.613-15.276,3.098-22.826c1.078-5.473,2.165-10.943,3.253-16.414c0.608-3.053,1.99-5.617,4.326-7.774
			c4.76-4.395,7.691-9.696,7.098-16.411c-0.396-4.482-2.337-7.953-6.771-9.75c-0.808-0.327-1.766-1.362-1.861-2.166
			c-0.274-2.292-0.14-4.635-0.169-7.307c-0.83,0.06-2,0.145-2.837,0.206c0.168,2.6,0.425,4.916,0.41,7.229
			c-0.004,0.708-0.572,1.763-1.178,2.066c-6.705,3.352-8.888,9.023-8.143,16.032c0.265,2.485,1.019,5.01,2.033,7.301
			c1.277,2.888,1.886,5.797,1.318,8.835c-1.721,9.227-3.576,18.426-5.387,27.635c-0.021,0.108-0.143,0.197-0.425,0.569
			c-0.587-2.098-1.131-3.998-1.652-5.905c-2.041-7.47-4.12-14.932-6.089-22.42c-0.701-2.662-0.429-5.316,0.605-7.912
			c2.789-6.993,2.375-13.711-2.438-19.676c-2.244-2.778-5.496-4.136-9.174-3.485c-3.537,0.627-5.843,2.96-7.065,6.217
			c-2.216,5.904-0.294,11.129,3.208,15.865C70.51,122.473,72.301,123.807,73.949,125.188 M100.441,102.755
			c2.34-2.646,6.271-3.12,8.895-0.987c0.518,0.821,1.159,1.589,1.534,2.472c2.042,4.799,0.67,9.187-2.058,13.179
			c-1.13,1.653-2.808,3.071-4.52,4.146c-1.651,1.035-3.341,0.379-4.443-1.257C96.917,115.955,96.208,107.537,100.441,102.755
			 M72.944,101.82c2.475-0.747,5.71,0.469,7.301,2.737c2.869,4.096,3.354,8.593,2.197,13.343c-1.281,5.246-4.717,6.933-8.965,2.534
			c-3.4-3.162-5.107-7.114-5.06-11.708C68.451,105.515,70.361,102.6,72.944,101.82"/>
	</g>
	<path fill-rule="evenodd" clip-rule="evenodd" fill="#2A7D7D" d="M132.398,107.746c-1.457-0.507-2.896-1.087-4.375-1.503
		c-1.582-0.442-2.96,0.047-3.61,1.582c-0.659,1.561-1.655,1.658-3.049,1.239c-0.956-0.286-1.96-0.399-3.012-0.605
		c-2.403,9.949-4.799,19.763-7.102,29.604c-0.137,0.581,0.432,1.327,0.672,1.995c0.525-0.518,1.373-0.955,1.529-1.571
		c2.214-8.792,4.333-17.608,6.478-26.419c0.067-0.265,0.168-0.525,0.285-0.892c1.551,0.108,2.222,0.167,1.614,2.298
		c-2.628,9.229-4.907,18.554-7.334,27.932c2.208,0.61,4.167,1.177,6.14,1.693c1.181,0.308,2.393,0.51,3.571,0.821
		c1.227,0.326,2.013,0.253,2.369-1.291c1.665-7.194,3.551-14.345,5.131-21.563c0.691-3.145,0.885-6.414,1.185-9.636
		c0.102-1.089-0.17-2.215-0.273-3.327C132.542,107.985,132.472,107.867,132.398,107.746"/>
	<path fill-rule="evenodd" clip-rule="evenodd" fill="#539798" d="M121.597,158.427c1.292-4.917,2.395-9.899,3.634-14.877
		c-3.265-0.692-6.245-1.322-9.388-1.986c-1.431,5.573-2.83,11.193-4.128,16.863H121.597z"/>
	<path fill-rule="evenodd" clip-rule="evenodd" fill="#9BC143" d="M55.371,132.088c1.406,4.545,2.803,9.095,4.193,13.645
		c1.292,4.232,2.585,8.463,3.877,12.694h4.775c-2.717-8.864-5.443-17.726-8.089-26.611c-0.91-3.056-3.002-5.22-4.869-7.976
		c-0.157,2.308-0.291,4.232-0.421,6.158c0.051,0.464,0.1,0.93,0.152,1.395C55.119,131.623,55.293,131.84,55.371,132.088"/>
	<path fill-rule="evenodd" clip-rule="evenodd" fill="#597387" d="M73.949,125.188c2.765,2.315,4.077,5.449,5.015,8.753
		c2.313,8.147,4.651,16.29,6.772,24.486h12.558c0.549-3.474,1.219-6.932,1.899-10.392c1.078-5.473,2.165-10.943,3.253-16.414
		c0.608-3.053,1.99-5.617,4.326-7.774c4.76-4.395,7.691-9.696,7.098-16.411c-0.396-4.482-2.337-7.953-6.771-9.75
		c-0.808-0.327-1.766-1.362-1.861-2.166c-0.274-2.292-0.14-4.635-0.169-7.307c-0.83,0.06-2,0.145-2.837,0.206
		c0.168,2.6,0.425,4.916,0.41,7.229c-0.004,0.708-0.572,1.763-1.178,2.066c-6.705,3.352-8.888,9.023-8.143,16.032
		c0.265,2.485,1.019,5.01,2.033,7.301c1.277,2.888,1.886,5.797,1.318,8.835c-1.721,9.227-3.576,18.427-5.387,27.635
		c-0.021,0.108-0.143,0.197-0.425,0.569c-0.587-2.098-1.131-3.998-1.652-5.905c-2.041-7.469-4.12-14.931-6.089-22.42
		c-0.701-2.662-0.429-5.316,0.605-7.912c2.789-6.993,2.375-13.711-2.438-19.676c-2.244-2.778-5.496-4.136-9.174-3.485
		c-3.537,0.627-5.843,2.96-7.065,6.217c-2.216,5.904-0.294,11.129,3.208,15.865C70.51,122.473,72.301,123.807,73.949,125.188
		 M100.441,102.755c2.34-2.646,6.271-3.12,8.895-0.987c0.518,0.821,1.159,1.589,1.534,2.472c2.042,4.799,0.67,9.187-2.058,13.179
		c-1.13,1.653-2.808,3.071-4.52,4.146c-1.651,1.035-3.341,0.379-4.443-1.257C96.917,115.955,96.208,107.537,100.441,102.755
		 M72.944,101.82c2.475-0.747,5.71,0.469,7.301,2.737c2.869,4.096,3.354,8.593,2.197,13.343c-1.281,5.246-4.717,6.933-8.965,2.534
		c-3.4-3.162-5.107-7.114-5.06-11.708C68.451,105.515,70.361,102.6,72.944,101.82"/>
</g>
<path fill-rule="evenodd" clip-rule="evenodd" fill="#9BC143" d="M317.412,315.432c0.131,0.277,0.26,0.555,0.389,0.832
	c0.09,0.307,0.193,0.61,0.266,0.921c0.219,0.955,0.238,1.907-0.101,2.843c-0.538,1.488-1.898,2.132-3.393,1.611
	c-0.505-0.176-0.952-0.452-1.361-0.792c-0.056-0.047-0.097-0.08-0.177-0.029c-0.541,0.346-1.085,0.685-1.627,1.026
	c-0.982,0.617-1.964,1.233-2.941,1.855c-0.074,0.045-0.144,0.121-0.182,0.199c-0.364,0.756-0.724,1.513-1.081,2.273
	c-0.593,1.26-1.183,2.521-1.774,3.781c-0.098,0.047-0.196,0.093-0.295,0.139c-0.348,0.026-0.645-0.106-0.924-0.293
	c-0.438-0.293-0.805-0.664-1.146-1.061c-0.945-1.097-1.693-2.325-2.368-3.601c-0.105-0.198-0.208-0.398-0.314-0.606
	c-0.069,0.032-0.122,0.057-0.175,0.082c-2.049,0.956-4.101,1.903-6.141,2.877c-0.437,0.208-0.862,0.335-1.344,0.272
	c-0.172-0.023-0.349-0.013-0.551-0.019c0.23-0.317,0.437-0.611,0.656-0.895c0.068-0.089,0.164-0.171,0.266-0.218
	c2.207-1.036,4.416-2.066,6.625-3.099c0.052-0.024,0.104-0.048,0.16-0.074c-0.026-0.063-0.045-0.108-0.063-0.153
	c-0.562-1.313-1.05-2.65-1.345-4.052c-0.141-0.667-0.244-1.338-0.195-2.023c0.025-0.374,0.104-0.731,0.379-1.014
	c0.098-0.046,0.195-0.092,0.295-0.139c0.252,0.073,0.503,0.148,0.757,0.216c0.529,0.141,1.06,0.274,1.59,0.414
	c1.435,0.378,2.87,0.758,4.304,1.136c0.026,0.006,0.059,0,0.084-0.008c0.525-0.17,1.052-0.341,1.576-0.509
	c1.192-0.386,2.384-0.773,3.576-1.155c0.093-0.029,0.119-0.069,0.119-0.165c-0.001-0.582,0.092-1.148,0.32-1.688
	c0.559-1.321,1.838-1.915,3.203-1.479c1.008,0.321,1.771,0.974,2.398,1.799C317.069,314.892,317.234,315.167,317.412,315.432"/>
<path fill-rule="evenodd" clip-rule="evenodd" fill="#F8A879" d="M316.203,245.911c-0.015-0.241-0.029-0.482-0.044-0.723
	c0.021-0.251,0.033-0.503,0.07-0.751c0.115-0.765,0.376-1.468,0.895-2.056c0.824-0.937,2.007-1.016,2.951-0.203
	c0.32,0.275,0.567,0.605,0.77,0.974c0.028,0.051,0.048,0.087,0.122,0.071c0.496-0.096,0.992-0.188,1.489-0.282
	c0.897-0.169,1.795-0.337,2.691-0.511c0.067-0.013,0.14-0.048,0.19-0.094c0.485-0.449,0.967-0.902,1.448-1.355
	c0.799-0.752,1.596-1.508,2.394-2.261c0.084-0.006,0.169-0.011,0.254-0.016c0.265,0.08,0.442,0.263,0.594,0.48
	c0.236,0.341,0.398,0.72,0.535,1.109c0.377,1.076,0.569,2.192,0.697,3.322c0.02,0.176,0.037,0.353,0.056,0.535
	c0.06-0.003,0.106-0.006,0.152-0.009c1.777-0.111,3.555-0.213,5.332-0.338c0.38-0.027,0.728,0.003,1.063,0.188
	c0.12,0.066,0.252,0.109,0.398,0.172c-0.262,0.166-0.497,0.322-0.738,0.467c-0.077,0.045-0.171,0.078-0.259,0.083
	c-1.916,0.123-3.833,0.241-5.751,0.36c-0.045,0.003-0.089,0.005-0.139,0.008c0.002,0.054,0.002,0.092,0.002,0.131
	c0.032,1.125,0.005,2.246-0.184,3.358c-0.089,0.53-0.206,1.052-0.439,1.54c-0.128,0.268-0.288,0.507-0.572,0.634
	c-0.084,0.006-0.168,0.011-0.255,0.016c-0.164-0.125-0.327-0.253-0.493-0.375c-0.347-0.257-0.697-0.507-1.045-0.763
	c-0.943-0.691-1.886-1.384-2.83-2.074c-0.016-0.012-0.041-0.018-0.062-0.019c-0.436-0.027-0.87-0.055-1.304-0.082
	c-0.985-0.062-1.971-0.12-2.955-0.186c-0.076-0.005-0.106,0.018-0.135,0.087c-0.167,0.428-0.398,0.816-0.722,1.146
	c-0.791,0.808-1.901,0.873-2.775,0.16c-0.646-0.526-1.018-1.225-1.239-2.011C316.299,246.405,316.257,246.155,316.203,245.911"/>
<g>
	<g>
		<path fill-rule="evenodd" clip-rule="evenodd" fill="#2A7D7D" d="M311.488,143.986c0.059-0.452,0.083-0.91,0.182-1.352
			c0.161-0.72,0.31-1.452,0.573-2.137c0.329-0.856,0.738-1.687,1.17-2.498c0.446-0.841,0.934-1.663,1.452-2.46
			c0.474-0.729,0.91-1.526,1.547-2.087c0.813-0.718,1.351-1.642,2.105-2.392c0.517-0.513,0.914-1.143,1.4-1.689
			c0.328-0.369,0.713-0.692,1.08-1.026c0.592-0.539,1.174-1.089,1.788-1.601c1.195-0.992,2.4-1.974,3.619-2.937
			c1.14-0.901,2.347-1.707,3.394-2.733c1.117-1.095,2.325-2.099,3.526-3.103c1.461-1.22,2.94-2.417,4.44-3.59
			c1.404-1.101,2.734-2.282,4.028-3.512c0.913-0.868,1.906-1.652,2.822-2.519c0.448-0.425,0.8-0.952,1.196-1.433
			c0.063-0.078,0.126-0.156,0.189-0.234c0.038,0.008,0.076,0.015,0.114,0.023c0.033,0.28,0.111,0.565,0.087,0.841
			c-0.051,0.591-0.137,1.179-0.244,1.762c-0.104,0.554-0.213,1.113-0.392,1.646c-0.285,0.845-0.634,1.668-0.949,2.503
			c-0.239,0.631-0.447,1.275-0.709,1.896c-0.48,1.141-1.007,2.264-1.485,3.406c-0.446,1.066-0.837,2.156-1.29,3.219
			c-0.66,1.553-1.376,3.081-2.027,4.638c-0.567,1.357-1.083,2.737-1.609,4.112c-0.451,1.18-0.877,2.369-1.329,3.547
			c-0.534,1.392-1.133,2.76-1.605,4.172c-0.228,0.676-0.536,1.134-1.206,1.418c-0.364,0.155-0.648,0.512-0.953,0.795
			c-0.618,0.573-1.244,1.14-1.832,1.743c-0.755,0.776-1.312,1.679-1.593,2.738c-0.319,1.208-0.604,2.417-0.629,3.678
			c-0.029,1.388,0.201,2.742,0.488,4.084c0.141,0.658,0.419,1.286,0.626,1.931c0.042,0.128,0.078,0.27,0.067,0.402
			c-0.113,1.467-0.267,2.931-0.342,4.398c-0.033,0.645,0.091,1.298,0.139,1.946c0.11,1.508,0.19,3.018,0.334,4.523
			c0.1,1.031,0.262,2.059,0.438,3.082c0.19,1.101,0.443,2.192,0.646,3.292c0.236,1.28,0.446,2.566,0.67,3.848
			c0.103,0.587,0.215,1.174,0.314,1.762c0.012,0.071-0.013,0.205-0.048,0.214c-0.074,0.021-0.195,0.01-0.246-0.041
			c-0.355-0.347-0.734-0.679-1.037-1.07c-1.13-1.457-2.217-2.947-3.351-4.399c-1.195-1.529-2.447-3.013-3.631-4.55
			c-0.803-1.042-1.525-2.146-2.297-3.213c-0.308-0.427-0.664-0.82-0.973-1.248c-0.683-0.941-1.344-1.899-2.021-2.844
			c-0.507-0.706-1.072-1.374-1.529-2.11c-0.679-1.09-1.298-2.22-1.916-3.347c-0.51-0.929-0.995-1.872-1.461-2.824
			c-0.254-0.52-0.493-1.056-0.652-1.611c-0.286-0.994-0.564-1.997-0.737-3.015c-0.163-0.955-0.185-1.935-0.272-2.902
			c-0.012-0.131-0.048-0.259-0.072-0.389C311.488,144.488,311.488,144.236,311.488,143.986z"/>
	</g>
	<g>
		<path fill-rule="evenodd" clip-rule="evenodd" fill="#597387" d="M214.717,227.782c2.256-1.542,2.772-3.616,1.969-5.907
			c-0.637-1.821-2.702-2.559-5.673-2.292c-0.371-1.364-0.814-2.752-1.089-4.169c-0.081-0.417,0.208-1.227,0.521-1.345
			c2.197-0.838,3.402-2.341,3.053-4.687c-0.335-2.274-1.873-3.514-4.136-3.84c-0.055-0.01-0.102-0.051-0.188-0.092
			c0.1-1.815,0.202-3.641,0.306-5.524c2.499,0.101,4.386-0.742,5.156-2.999c0.874-2.554-0.482-4.346-2.714-5.729
			c0.83-1.641,1.609-3.187,2.461-4.873c2.411,1.25,4.467,0.744,5.825-1.259c1.375-2.027,1.18-4.198-0.764-6.061
			c0.668-0.665,1.222-1.218,1.78-1.771c1.191-1.185,2.145-2.506,4.146-0.826c1.412,1.185,3.19,0.393,4.52-0.725
			c1.206-1.016,1.732-2.378,1.247-3.965c-0.362-1.185,0.006-1.959,1.146-2.411c0.896-0.357,1.75-0.857,2.673-1.076
			c0.425-0.1,1.26,0.194,1.414,0.534c0.845,1.848,3.426,2.436,5.525,1.788c1.732-0.535,2.746-2.404,2.594-4.482
			c-0.005-0.102,0.046-0.206,0.12-0.519c1.762-0.163,3.59-0.329,5.372-0.49c0.879,3.771,2.75,5.246,5.504,4.652
			c1.489-0.32,2.394-1.232,2.896-2.588c0.336-0.909,0.817-1.248,1.798-0.897c1.324,0.476,2.686,0.845,4.008,1.252
			c-0.646,4.383,1.704,6.837,5.488,5.853c0.578-0.149,1.275-0.422,1.597-0.868c0.863-1.202,1.667-0.842,2.558-0.146
			c0.931,0.725,1.866,1.442,2.888,2.233c-1.298,1.768-1.457,3.602-0.372,5.433c1.114,1.883,3.381,2.523,5.506,1.466
			c0.99-0.494,1.537-0.366,2.078,0.553c0.681,1.169,1.442,2.291,2.208,3.492c-1.611,1.408-2.858,2.876-2.099,5.18
			c0.695,2.108,2.265,3.372,4.449,3.092c1.29-0.167,1.746,0.307,1.946,1.431c0.219,1.218,0.499,2.426,0.771,3.722
			c-0.512,0.233-1.035,0.426-1.515,0.693c-1.497,0.829-2.431,2.065-2.355,3.828c0.081,1.894,1.341,3.613,3.115,3.992
			c1.536,0.326,1.725,1.027,1.349,2.38c-0.318,1.126-0.362,2.326-0.537,3.571c-2.479,0.022-4.513,0.836-5.067,3.396
			c-0.521,2.398,0.629,4.171,2.972,5.338c-0.821,1.655-1.61,3.249-2.382,4.81c-3.344-0.826-4.973-0.395-6.259,1.572
			c-1.098,1.68-0.843,3.537,0.88,5.88c-1.076,1.044-2.125,2.153-3.29,3.127c-0.283,0.237-1.054,0.196-1.422-0.02
			c-2.218-1.305-3.665-1.378-5.503-0.004c-1.691,1.263-1.927,2.948-1.271,4.869c0.104,0.306,0.03,0.944-0.153,1.036
			c-1.367,0.672-2.775,1.271-4.199,1.821c-0.204,0.082-0.703-0.134-0.816-0.342c-1.285-2.413-3.465-2.807-5.696-2.08
			c-2.033,0.663-2.829,2.499-2.521,4.979c-1.966,0.134-3.82,0.261-5.655,0.387c-0.361-2.673-1.693-4.239-3.694-4.607
			c-2.174-0.404-3.558,0.569-5.151,3.745c-1.693-0.433-3.425-0.875-5.225-1.337c0.08-0.617,0.199-1.056,0.181-1.491
			c-0.064-1.782-0.524-3.385-2.304-4.231c-1.776-0.848-3.825-0.598-5.176,0.768c-0.76,0.763-1.364,0.837-2.181,0.168
			c-0.964-0.787-1.984-1.508-2.779-2.107c0.207-1.507,0.734-2.913,0.51-4.186c-0.531-2.984-3.188-4.31-5.909-3.029
			c-1.203,0.567-1.694,0.241-2.254-0.76C216.288,230.009,215.539,229.016,214.717,227.782 M251.089,195.988
			c-5.944-0.288-11.239,4.135-11.355,9.817c-0.129,6.501,3.692,10.876,9.673,11.487c6.224,0.638,11.575-4.046,11.843-9.85
			C261.523,201.412,256.971,196.278,251.089,195.988"/>
		<path fill-rule="evenodd" clip-rule="evenodd" fill="#2A7D7D" d="M189.912,143.831c0.413,2.666,1.762,4.176,4.09,4.502
			c2.592,0.363,3.833-1.409,4.786-3.654c1.999,0.689,3.948,1.364,6.082,2.102c-0.983,2.43-1.162,4.511,1.178,6.037
			c2.114,1.378,3.964,0.846,5.866-0.872c1.409,1.69,2.724,3.268,4.018,4.821c-2.265,2.321-2.705,4.097-1.7,6.264
			c0.711,1.54,2.603,2.271,5.439,1.963c0.317,1.948,0.64,3.911,0.896,5.467c-1.422,1.069-2.805,1.723-3.625,2.803
			c-1.735,2.279-1.047,4.824,1.551,6.053c1.115,0.53,1.245,1.13,0.881,2.109c-0.255,0.692-0.54,1.374-0.754,2.076
			c-0.422,1.381-0.765,2.45-2.768,1.806c-1.562-0.5-3.132,0.326-4.164,1.716c-1.001,1.356-1.02,2.835-0.325,4.342
			c0.259,0.559,0.541,1.104,0.779,1.593c-1.418,1.501-2.802,2.968-4.306,4.561c-1.675-2.445-3.615-3.395-5.776-2.491
			c-2.201,0.919-2.864,3.066-2.72,5.738c-1.967,0.359-3.919,0.721-5.965,1.1c-0.471-2.527-1.492-4.285-4.08-4.561
			c-2.641-0.283-3.882,1.366-4.874,3.716c-1.975-0.784-3.893-1.542-5.979-2.366c1.375-2.402,0.89-4.378-1.074-5.855
			c-2.062-1.551-4.048-0.971-5.941,0.887c-1.406-1.699-2.719-3.282-4.097-4.949c2.097-1.6,2.92-3.536,1.864-5.891
			c-1.028-2.299-3.052-2.658-5.564-2.263c-0.334-2.028-0.657-4.001-1.017-6.189c2.8-0.014,4.355-1.63,4.633-4.104
			c0.268-2.39-1.447-3.777-3.706-4.817c0.667-1.891,1.333-3.778,2.042-5.783c2.431,1.007,4.583,0.824,6.159-1.274
			c1.25-1.662,0.94-3.55-0.377-5.333c1.333-1.591,2.63-3.143,3.983-4.756c2.021,2.139,4.041,3.262,6.383,2.001
			c1.972-1.06,2.504-3.083,2.231-5.588C185.931,144.441,187.853,144.147,189.912,143.831 M190.938,180.501
			c4.095,0.362,8.295-3.148,8.541-7.139c0.243-3.935-3.152-7.876-7.096-8.235c-4.18-0.38-8.121,3.025-8.471,7.315
			C183.605,176.203,187.058,180.162,190.938,180.501"/>
		<path fill-rule="evenodd" clip-rule="evenodd" fill="#539798" d="M246.229,150c-1.012,1.912-1.98,3.741-2.737,5.169
			c-1.796-0.247-3.3-0.801-4.671-0.569c-2.576,0.438-3.824,2.823-2.98,5.307c0.402,1.183,0.094,1.668-1.039,1.949
			c-1.531,0.378-3.041,0.85-4.67,1.312c-0.8-2.332-1.693-4.55-4.613-4.448c-2.182,0.075-3.469,1.444-4.436,3.65
			c-1.891-1.003-3.731-1.979-5.584-2.96c1.581-2.682,1.552-4.448,0.052-6.145c-1.555-1.76-2.967-2.013-5.852-0.82
			c-0.632-2.026-1.254-4.016-1.914-6.128c2.887-0.664,4.314-2.309,4.492-4.915c0.11-1.568-1.052-2.893-3.57-4.121
			c0.91-1.827,1.822-3.653,2.757-5.53c-1.528-0.107-2.467,0.822-3.181,2.021c-0.925,1.557-0.665,2.934,0.941,5.297
			c-1.729,1.621-3.909,2.349-6.13,2.946c-0.233,0.063-0.813-0.411-0.917-0.736c-0.644-2.027-2.027-3.234-4.086-3.284
			c-1.974-0.046-3.375,1.123-4.222,2.913c-0.046,0.097-0.146,0.166-0.52,0.572c-1.933-1.365-3.878-2.741-5.972-4.22
			c2.014-1.866,3.013-3.675,1.621-6.057c-1.038-1.776-2.417-2.459-5.063-2.215c0.136-2.458,0.27-4.879,0.418-7.564
			c2.725,1.099,4.775,0.527,6.063-1.639c1.06-1.787,0.864-3.686-0.884-5.583c2.391-1.103,4.589-2.116,6.936-3.2
			c0.672,2.515,1.635,4.302,4.058,4.508c2.406,0.205,3.939-1.116,5.048-3.611c2.059,1.519,3.966,2.927,6.063,4.475
			c-2.297,1.776-2.788,3.858-1.749,5.978c0.933,1.902,2.863,2.431,4.98,2.169c1,2.562-0.138,4.844-0.527,7.309
			c-0.64-0.036-1.154-0.064-1.85-0.102c1.626,1.232,3.436,1.38,4.678,0.46c1.457-1.078,2.781-3.333,1.557-6.373
			c1.966-0.633,3.908-1.257,6.002-1.932c0.576,2.608,1.808,4.219,4.292,4.452c2.411,0.226,3.774-1.167,4.698-3.444
			c1.265,0.578,2.448,1.075,3.589,1.655c1.313,0.669,2.1,1.218,1.274,3.172c-1.414,3.329,1.508,6.313,5.051,5.541
			c0.438-0.096,0.869-0.218,1.515-0.383c0.551,1.631,1.123,3.207,1.617,4.807c0.235,0.764,0.166,1.477-0.852,1.681
			c-1.982,0.396-3.03,1.695-3.264,3.629c-0.235,1.97,0.719,3.514,2.652,4.539C245.541,149.656,245.78,149.774,246.229,150
			 M234.667,144.015c0.19-3.905-2.925-7.619-6.586-7.719c-5.003-0.137-7.744,2.948-7.941,7.439
			c-0.153,3.487,2.425,6.752,7.056,7.056C231.107,151.046,234.479,147.954,234.667,144.015 M199.749,122.377
			c-2.476-0.167-4.655,1.793-4.763,4.288c-0.093,2.146,2.006,4.332,4.289,4.464c2.198,0.127,4.43-1.777,4.594-3.925
			C204.068,124.624,202.295,122.548,199.749,122.377"/>
		<path fill-rule="evenodd" clip-rule="evenodd" fill="#9BC143" d="M195.308,202.295c-0.387,3.285,1.018,5.079,3.419,6.255
			c1.442,0.703,3.208,0.033,5.755-2.282c1.364,1.453,2.771,2.883,4.081,4.396c0.203,0.233,0.137,1.024-0.097,1.255
			c-1.541,1.517-2.396,3.198-1.437,5.327c1.033,2.292,2.863,3.396,5.807,3.216c0.005,2.255,0.012,4.454,0.016,6.795
			c-2.896-0.287-4.969,0.441-6.021,2.938c-1.023,2.438-0.214,4.413,2.131,6.144c-1.771,1.693-3.371,3.229-4.955,4.741
			c-1.932-1.738-3.716-3.079-6.139-2.261c-2.057,0.692-2.859,2.242-3.319,5.929c-1.772,0.029-3.568,0.094-5.364,0.066
			c-0.843-0.015-1.451-0.293-1.445-1.422c0.017-2.569-0.923-4.066-2.83-4.679c-2.186-0.707-4.139-0.373-5.653,1.515
			c-0.106,0.132-0.219,0.255-0.515,0.603c-1.648-1.654-3.217-3.23-4.947-4.967c2.162-1.499,3.157-3.307,2.525-5.768
			c-0.527-2.063-2.175-3.484-4.304-3.352c-1.475,0.087-1.938-0.4-1.791-1.837c0.142-1.403,0.038-2.828,0.165-4.231
			c0.034-0.354,0.56-0.952,0.832-0.937c2.523,0.14,4.517-0.612,5.317-3.185c0.724-2.327-0.247-4.196-2.282-5.904
			c1.674-1.622,3.259-3.158,4.859-4.709c2.441,2.895,5.662,3.644,8.39,0.568c0.617-0.7,0.848-1.919,0.873-2.908
			c0.023-0.889,0.238-1.325,1.063-1.333C191.333,202.239,193.225,202.279,195.308,202.295 M191.133,231.417
			c4.753,0.162,8.125-3.091,8.452-7.845c0.286-4.125-4.284-7.933-6.731-8.092c-5.542-0.357-9.149,3.641-9.161,8.063
			C183.682,227.857,186.771,231.263,191.133,231.417"/>
		<path fill-rule="evenodd" clip-rule="evenodd" fill="#9BC143" d="M190.167,93.584c-2.033,2.012-2.398,4.06-1.12,6.122
			c1.148,1.853,3.079,2.138,5.184,1.744c1.236,2.44,0.338,4.802,0.176,7.267c-2.391-0.271-4.483-0.052-5.675,2.217
			c-1.142,2.173-0.206,3.913,1.627,5.766c-2.05,1.117-3.895,2.168-5.796,3.108c-0.26,0.127-0.97-0.196-1.185-0.507
			c-2.831-4.137-5.932-3.98-8.44,0.463c-0.05,0.088-0.172,0.139-0.624,0.482c-1.862-1.072-3.878-2.232-6.059-3.485
			c1.713-1.817,2.47-3.547,1.366-5.614c-1.187-2.222-3.111-2.793-5.83-2.253c-0.061-2.505-0.121-4.888-0.187-7.502
			c2.791,0.773,4.732,0.081,5.835-2.11c0.976-1.94,0.594-3.828-1.259-5.614c2.124-1.303,4.115-2.522,6.319-3.874
			c0.932,2.298,2.101,4.134,4.511,4.114c2.316-0.018,3.965-1.251,4.72-4.095C185.931,91.103,187.956,92.29,190.167,93.584
			 M179.009,109.547c2.189,0.189,4.458-1.792,4.635-4.045c0.186-2.347-1.634-4.576-3.864-4.735
			c-2.875-0.203-4.905,1.479-5.111,4.238C174.499,107.268,176.47,109.33,179.009,109.547"/>
		<path fill-rule="evenodd" clip-rule="evenodd" fill="#597387" d="M265.375,167.608c2.084-4.524,4.188-9.042,6.247-13.58
			c3.464-7.642,6.899-15.298,10.444-23.173c1.829,0.75,3.577,1.467,5.405,2.217c-1.166,2.637-2.258,5.113-3.425,7.75
			c20.678,8.019,41.222,15.987,61.947,24.023c0.294-0.646,0.582-1.232,0.83-1.835c2.263-5.452,4.554-10.891,6.739-16.373
			c0.465-1.163,1.064-1.512,2.252-1.361c1.399,0.178,2.822,0.179,4.515,0.273c-0.307,0.809-0.544,1.47-0.81,2.115
			c-2.703,6.556-5.394,13.119-8.136,19.658c-0.418,0.993-0.427,1.696,0.306,2.601c7.6,9.408,15.134,18.87,22.714,28.295
			c2.983,3.715,5.837,7.567,9.129,10.994c2.602,2.705,2.481,5.584,1.835,8.999c-0.591-0.032-1.191-0.063-1.793-0.101
			c-14.854-0.945-29.707-1.887-44.564-2.838c-2.768-0.178-5.547-0.295-8.302-0.626c-0.905-0.111-1.97-0.598-2.572-1.264
			c-16.578-18.293-33.11-36.631-49.635-54.973c-0.452-0.502-0.758-1.136-1.132-1.709c-0.19,0.055-0.382,0.111-0.575,0.166
			c-2.022,4.453-4.044,8.907-6.111,13.457c-1.814-0.691-3.584-1.363-5.347-2.036C265.35,168.063,265.361,167.835,265.375,167.608
			 M328.99,206.169c5.096-12.331,9.946-24.073,14.832-35.898c-20.897-8.103-41.523-16.099-62.207-24.118
			c-0.505,1.109-0.817,2.039-1.32,2.847c-0.791,1.259-0.547,2.123,0.457,3.229c12.767,14.069,25.495,28.178,38.192,42.316
			C322.269,198.243,325.457,202.069,328.99,206.169 M377.772,211.55c-9.873-12.235-19.6-24.29-29.523-36.591
			c-4.748,11.497-9.364,22.673-14.112,34.177C348.769,209.945,363.088,210.736,377.772,211.55"/>
		<path fill-rule="evenodd" clip-rule="evenodd" fill="#485D70" d="M376.414,254.404c-2.058-0.593-4.137-1.113-6.164-1.79
			c-17.048-5.711-29.254-23.001-27.14-43.001c1.868-17.678,16.393-32.703,34.569-35.287c23.139-3.287,44.407,13.993,45.937,37.301
			c0.023,0.381,0.173,0.751,0.264,1.124c-0.186,2.835-0.369,5.668-0.554,8.506c-0.14,0.359-0.336,0.703-0.409,1.079
			c-3.145,15.847-15.588,28.366-31.492,31.619c-2.146,0.439-4.337,0.676-6.511,1.006C382.08,254.772,379.244,254.59,376.414,254.404
			 M349.081,212.095c-1.246,18.852,13.073,35.231,31.89,36.482c18.87,1.255,35.252-13.021,36.527-31.839
			c1.286-18.928-13.06-35.338-31.969-36.574C366.686,178.934,350.319,193.27,349.081,212.095"/>
		<path fill-rule="evenodd" clip-rule="evenodd" fill="#485D70" d="M380.368,133.726c-0.128-1.34-1.045-1.884-2.37-1.926
			c-6.235-0.209-12.472-0.52-18.71-0.658c-3.96-0.085-7.93,0.018-11.891,0.157c-0.338,0.011-0.671,0.19-1,0.407
			c-0.13,0.268-0.272,0.528-0.426,0.78c-0.008,0.16-0.01,0.324-0.023,0.484c0.319,0.444,0.643,0.883,1.031,1.261
			c0.294,0.285,0.831,0.325,1.265,0.462c4.603,1.412,9.214,2.803,13.803,4.269c0.472,0.151,0.803,0.75,1.2,1.141l-0.488,0.654
			c-1.918-0.125-3.835-0.281-5.758-0.362c-1.238-0.054-2.103,0.515-2.25,1.818c-0.134,1.223-0.169,2.456-0.263,3.855
			c3.522,0.23,6.787,0.453,10.054,0.653c2.453,0.148,3.161-0.469,3.355-2.929c0.137-1.749,0.232-3.499,0.353-5.318
			c3.411-0.805,6.708-1.617,10.021-2.346C379.622,135.83,380.503,135.161,380.368,133.726"/>
		<path fill-rule="evenodd" clip-rule="evenodd" fill="#485D70" d="M329.79,223.349c-6.717-0.428-11.751-6.05-11.332-12.656
			c0.422-6.622,6.121-11.575,12.82-11.152c6.712,0.424,11.751,6.06,11.331,12.661C342.188,218.822,336.494,223.774,329.79,223.349
			 M329.803,220.609c5.037,0.418,9.597-3.362,10.057-8.337c0.459-5.011-3.454-9.571-8.594-9.996
			c-5.08-0.425-9.716,3.487-10.079,8.511C320.83,215.74,324.734,220.189,329.803,220.609"/>
		<path fill-rule="evenodd" clip-rule="evenodd" fill="#485D70" d="M283.404,129.788c1.819,0.773,3.146,1.335,4.671,1.983
			c-0.685,1.797-1.339,3.513-2.075,5.456c-3.849-1.563-7.558-3.053-11.246-4.598c-0.37-0.152-0.747-0.571-0.882-0.951
			c-0.359-1,1.503-5.054,2.493-5.446c3.686-1.463,7.368-2.932,11.095-4.279c0.825-0.298,2.296-0.501,2.65-0.071
			c0.866,1.042,1.39,2.451,1.735,3.79c0.083,0.329-0.976,1.143-1.641,1.434C288.142,128.011,286.014,128.775,283.404,129.788"/>
		<path fill-rule="evenodd" clip-rule="evenodd" fill="#485D70" d="M383.068,223.741c-5.242-0.327-9.115-4.614-8.795-9.744
			c0.324-5.144,4.681-8.935,9.907-8.608c5.239,0.325,9.107,4.622,8.79,9.748C392.646,220.282,388.291,224.066,383.068,223.741
			 M384.045,207.481c-3.91-0.228-7.445,2.839-7.665,6.646c-0.222,3.831,2.914,7.288,6.814,7.517c3.924,0.23,7.438-2.815,7.659-6.642
			C391.076,211.167,387.947,207.708,384.045,207.481"/>
		<path fill-rule="evenodd" clip-rule="evenodd" fill="#485D70" d="M330.248,216.207c-2.785-0.176-4.819-2.488-4.629-5.271
			c0.188-2.773,2.524-4.792,5.31-4.584c2.694,0.199,4.696,2.478,4.548,5.18C335.322,214.323,333.028,216.377,330.248,216.207"/>
		<path fill-rule="evenodd" clip-rule="evenodd" fill="#485D70" d="M383.246,219.662c-2.775-0.204-4.776-2.548-4.559-5.336
			c0.222-2.766,2.581-4.746,5.375-4.507c2.687,0.229,4.657,2.534,4.477,5.241C388.354,217.84,386.024,219.863,383.246,219.662"/>
	</g>
	<g>
		<g>
			<path fill-rule="evenodd" clip-rule="evenodd" fill="#F8A879" d="M269.792,129.378c0.088-0.476,0.204-0.948,0.259-1.427
				c0.109-0.965,0.662-1.72,1.156-2.498c0.685-1.076,1.628-1.877,2.727-2.516c0.787-0.456,1.538-0.97,2.311-1.449
				c0.174-0.108,0.37-0.184,0.563-0.256c0.87-0.327,1.733-0.684,2.62-0.958c0.694-0.215,1.421-0.324,2.132-0.487
				c0.619-0.142,1.235-0.295,1.897-0.456c0.87,1.463,1.974,2.816,3.444,3.861c-0.096,0.8-0.665,1.305-1.2,1.813
				c-0.644,0.612-1.496,0.813-2.331,0.833c-0.935,0.022-1.875-0.146-2.813-0.237c-1.409-0.139-2.798-0.133-3.904,0.924
				c-0.595,0.568-1.152,1.191-1.637,1.854c-0.572,0.783-1.05,1.633-1.567,2.455c-0.219,0.349-0.419,0.71-0.655,1.046
				c-0.4,0.57-0.972,0.794-1.642,0.646c-0.663-0.146-0.989-0.666-1.194-1.268c-0.069-0.203-0.11-0.416-0.165-0.625
				C269.792,130.215,269.792,129.796,269.792,129.378z"/>
			<path fill-rule="evenodd" clip-rule="evenodd" fill="#F8A879" d="M312.6,64.914c-0.589-0.626-1.148-1.25-1.526-2.042
				c-0.332-0.695-0.743-1.356-1.164-2.005c-0.428-0.658-1.149-0.938-1.819-1.264c-1.197-0.583-2.478-0.466-3.754-0.433
				c-1.151,0.029-2.351,0.238-3.412-0.386c-0.865-0.508-1.589-1.204-2.052-2.117c-0.533-1.049-1.136-2.077-1.537-3.177
				c-0.521-1.43-0.701-2.94-0.582-4.474c0.045-0.575,0.066-1.151,0.098-1.734c0.241-0.033,0.45-0.039,0.646-0.091
				c0.531-0.141,0.604-0.37,0.321-0.841c-0.461-0.771-0.533-1.576-0.194-2.421c0.235-0.587,0.478-1.179,0.637-1.789
				c0.129-0.488,0.12-1.009,0.206-1.511c0.048-0.282,0.131-0.566,0.253-0.825c0.44-0.932,0.913-1.848,1.353-2.779
				c0.175-0.369,0.365-0.464,0.816-0.436c0.9,0.056,1.817-0.014,2.717-0.126c0.793-0.099,1.577-0.296,2.354-0.5
				c1.093-0.286,2.164-0.651,3.259-0.924c1.646-0.409,3.12-0.083,4.387,1.103c0.675,0.63,1.002,1.373,1.103,2.289
				c0.157,1.417,0.421,2.802,1.081,4.115c0.39,0.777,0.526,1.701,0.664,2.577c0.23,1.47,0.99,2.453,2.397,2.928
				c0.309,0.104,0.626,0.183,1.002,0.291c-0.026,0.211-0.038,0.485-0.096,0.75c-0.251,1.15-0.249,2.317-0.191,3.479
				c0.064,1.272,0.564,2.387,1.484,3.399C318.165,58.862,315.853,62.273,312.6,64.914z"/>
		</g>
		<g>
			<path fill-rule="evenodd" clip-rule="evenodd" fill="#485D70" d="M295.913,32.358c0-0.224,0-0.447,0-0.67
				c0.018-0.022,0.048-0.043,0.049-0.065c0.037-1.316,0.442-2.55,0.835-3.788c0.275-0.864,0.528-1.739,1.427-2.194
				c0.318-0.162,0.637-0.322,0.954-0.482c0.084,0,0.168,0,0.252,0c0.869,0.25,1.481,0.839,2.082,1.486
				c0.828,0.896,1.722,1.194,3.012,0.721c1.077-0.396,2.134-0.847,3.212-1.234c1.077-0.387,2.191-0.591,3.344-0.514
				c0.631,0.042,1.264,0.074,1.893,0.148c0.919,0.107,1.866,0.142,2.745,0.402c1.041,0.309,2.013,0.847,3.031,1.244
				c0.841,0.327,1.614,0.764,2.244,1.4c0.563,0.565,1.045,1.21,1.576,1.807c0.743,0.838,1.498,1.667,2.252,2.497
				c0.774,0.852,1.38,1.84,1.676,2.922c0.445,1.633,0.751,3.303,0.381,5.035c-0.307,1.429-0.752,2.783-1.594,3.981
				c-0.387,0.55-0.819,1.072-1.266,1.576c-0.3,0.339-0.637,0.658-0.998,0.931c-0.81,0.612-1.765,0.921-2.733,1.148
				c-0.739,0.174-1.496,0.178-2.15-0.427c0.276-0.342,0.557-0.665,0.812-1.008c1.114-1.494,0.663-3.419-0.807-4.463
				c-0.096-0.068-0.242-0.118-0.354-0.1c-0.365,0.06-0.746,0.106-1.083,0.248c-0.317,0.134-0.589,0.38-0.956,0.628
				c-0.311-0.542-0.712-1.068-0.932-1.661c-0.295-0.799-0.535-1.639-0.637-2.48c-0.084-0.704-0.181-1.367-0.45-2.037
				c-0.414-1.029-2.191-2.07-3.282-1.89c-1.415,0.233-2.797,0.664-4.198,0.985c-0.97,0.223-1.943,0.439-2.925,0.598
				c-1.159,0.187-2.321,0.074-3.486-0.039c-1.583-0.152-2.678-0.953-3.26-2.403C296.282,33.924,296.131,33.127,295.913,32.358z"/>
		</g>
		<g>
			<path fill-rule="evenodd" clip-rule="evenodd" fill="#F3816F" d="M320.206,45.901c-0.035,0.041-0.09,0.075-0.103,0.122
				c-0.458,1.707-1.668,2.825-3.001,3.851c-0.624,0.481-1.303,0.851-2.082,0.992c-0.921,0.168-1.433-0.056-1.967-0.805
				c-0.367-0.517-0.041-1.186,0.63-1.377c0.29-0.083,0.574-0.196,0.87-0.249c0.813-0.146,0.988-0.752,1.081-1.431
				c0.079-0.572-0.196-1.044-0.404-1.545c-0.25-0.603-0.532-1.218-0.197-1.895c0.488-0.986,1.285-1.36,2.408-1.364
				c0.619-0.003,1.087,0.136,1.524,0.534c0.433,0.395,0.752,0.846,0.884,1.425c0.108,0.472,0.237,0.938,0.356,1.408
				C320.206,45.678,320.206,45.79,320.206,45.901z"/>
			<path fill-rule="evenodd" clip-rule="evenodd" fill="#F3816F" d="M291.996,44.98c0.224-0.668,0.576-0.879,1.278-0.761
				c0.486,0.082,0.921-0.017,1.354-0.267c0.873-0.507,1.511-1.255,2.167-1.991c0.248-0.278,0.479-0.573,0.75-0.828
				c0.353-0.336,0.904-0.399,1.229-0.181c0.286,0.193,0.354,0.644,0.174,1.143c-0.289,0.806-0.575,1.612-0.866,2.418
				c-0.185,0.512-0.03,0.982,0.179,1.444c0.046,0.102,0.095,0.204,0.158,0.294c0.555,0.776-0.04,1.398-0.695,1.633
				c-0.862,0.311-1.677,0.015-2.375-0.425c-0.787-0.497-1.526-1.053-2.441-1.302c-0.442-0.12-0.689-0.472-0.91-0.842
				C291.996,45.205,291.996,45.093,291.996,44.98z"/>
		</g>
		<g>
			<g>
				<path fill-rule="evenodd" clip-rule="evenodd" fill="#2A7D7D" d="M328.764,215.254c-0.239-0.052-0.476-0.128-0.717-0.149
					c-0.705-0.06-1.413-0.076-2.115-0.151c-0.419-0.046-0.832-0.164-1.245-0.26c-0.778-0.178-1.561-0.347-2.332-0.553
					c-0.33-0.091-0.65-0.237-0.95-0.404c-0.824-0.453-1.651-0.907-2.447-1.406c-0.928-0.584-1.568-1.378-1.562-2.543
					c0.006-0.867,0.465-1.229,1.296-1.001c0.542,0.147,1.069,0.359,1.601,0.551c1.548,0.557,3.158,0.771,4.79,0.869
					c0.921,0.056,1.815-0.069,2.705-0.322c0.822-0.231,1.665-0.394,2.498-0.591c1.253-0.297,2.379-0.896,3.518-1.47
					c0.862-0.437,1.583-1.013,2.12-1.827c0.442-0.672,0.975-1.29,1.381-1.982c0.251-0.431,0.342-0.957,0.51-1.455
					c0.819,0.136,1.668,0.241,2.497,0.425c0.922,0.207,1.766-0.07,2.608-0.331c0.571-0.176,0.81-0.151,1.135,0.371
					c0.868,1.392,1.354,2.894,1.165,4.549c-0.127,1.114-0.283,2.229-0.515,3.324c-0.118,0.557-0.418,1.081-0.67,1.604
					c-0.061,0.128-0.251,0.261-0.394,0.271c-0.925,0.085-1.854,0.185-2.757-0.152c-0.34-0.127-0.464-0.379-0.402-0.728
					c0.083-0.455-0.096-0.836-0.354-1.303c-0.266,0.27-0.546,0.467-0.707,0.734c-0.459,0.766-1.15,1.257-1.857,1.755
					c-1.119,0.788-2.396,1.175-3.677,1.577c-1.453,0.455-2.948,0.471-4.441,0.539c-0.089,0.006-0.176,0.04-0.263,0.06
					C329.042,215.254,328.902,215.254,328.764,215.254z"/>
			</g>
			<g>
				<path fill-rule="evenodd" clip-rule="evenodd" fill="#539798" d="M345.91,104.961c0.658,0.096,1.269,0.188,1.879,0.271
					c0.769,0.105,1.535,0.231,2.306,0.299c1.188,0.105,2.38,0.175,3.571,0.245c0.204,0.012,0.412-0.05,0.619-0.073
					c1.554-0.168,3.063-0.565,4.594-0.859c1.43-0.275,2.769-0.775,4.098-1.319c1.296-0.529,2.568-1.118,3.835-1.715
					c1.036-0.488,2.059-1.009,3.071-1.546c1.085-0.574,2.198-1.114,3.213-1.796c1.077-0.723,2.082-1.561,3.057-2.419
					c0.504-0.444,0.864-1.047,1.304-1.568c0.251-0.296,0.519-0.58,0.801-0.846c0.082-0.076,0.259-0.121,0.359-0.086
					c0.096,0.034,0.211,0.189,0.212,0.293c0.01,0.967,0.021,1.937-0.019,2.902c-0.028,0.651-0.106,1.303-0.221,1.944
					c-0.131,0.733-0.292,1.464-0.499,2.179c-0.367,1.263-0.751,2.522-1.181,3.764c-0.401,1.158-0.843,2.302-1.317,3.432
					c-0.731,1.738-1.483,3.469-2.269,5.185c-0.406,0.886-0.888,1.739-1.363,2.593c-0.793,1.425-1.601,2.841-2.418,4.252
					c-0.505,0.874-1.051,1.724-1.557,2.597c-0.323,0.562-0.581,1.162-0.911,1.718c-0.578,0.974-1.194,1.926-1.784,2.894
					c-0.323,0.529-0.606,1.083-0.942,1.604c-0.377,0.584-0.8,1.14-1.19,1.715c-0.419,0.618-0.838,1.236-1.231,1.87
					c-0.771,1.246-1.507,2.515-2.293,3.751c-0.84,1.319-1.705,2.625-2.59,3.915c-0.87,1.267-1.799,2.492-2.664,3.763
					c-0.847,1.245-1.663,2.51-2.461,3.788c-0.723,1.156-1.425,2.328-2.093,3.517c-0.369,0.658-0.663,1.359-0.97,2.05
					c-0.269,0.604-0.532,1.211-0.755,1.833c-0.427,1.198-0.835,2.401-1.229,3.611c-0.363,1.122-0.727,2.246-1.037,3.382
					c-0.202,0.748-0.342,1.515-0.453,2.281c-0.255,1.753-0.489,3.509-0.701,5.267c-0.115,0.95-0.186,1.906-0.244,2.862
					c-0.05,0.83-0.033,1.664-0.081,2.494c-0.139,2.394-0.319,4.786-0.433,7.181c-0.05,1.049,0.033,2.103,0.039,3.155
					c0.01,1.399,0.002,2.796,0.003,4.194c0.001,0.901-0.002,1.801,0.007,2.702c0.014,1.432,0.014,2.865,0.065,4.297
					c0.031,0.844,0.166,1.684,0.226,2.529c0.058,0.831,0.088,1.663,0.116,2.495c0.013,0.36-0.545,0.949-1.029,1.104
					c-1.267,0.411-2.551,0.486-3.852,0.172c-0.566-0.136-1.14-0.25-1.692-0.425c-0.148-0.048-0.305-0.264-0.342-0.43
					c-0.178-0.781-0.313-1.573-0.47-2.358c-0.179-0.897-0.361-1.793-0.547-2.688c-0.161-0.771-0.319-1.546-0.495-2.315
					c-0.248-1.081-0.498-2.162-0.771-3.236c-0.386-1.521-0.805-3.034-1.189-4.556c-0.526-2.074-1.045-4.151-1.549-6.229
					c-0.405-1.675-0.812-3.349-1.166-5.036c-0.452-2.149-0.892-4.302-1.264-6.466c-0.377-2.193-0.764-4.392-0.967-6.604
					c-0.26-2.829-0.32-5.671,0.177-8.494c0.467-2.654,1.062-5.274,1.929-7.83c0.575-1.697,1.128-3.4,1.672-5.107
					c0.38-1.19,0.701-2.4,1.1-3.585c0.313-0.931,0.708-1.834,1.056-2.755c0.724-1.919,1.424-3.848,2.168-5.759
					c0.693-1.782,1.417-3.552,2.154-5.314c0.627-1.496,1.305-2.97,1.936-4.463c0.437-1.033,0.824-2.086,1.253-3.122
					c0.237-0.575,0.535-1.125,0.77-1.699c0.392-0.96,0.783-1.921,1.123-2.9c0.467-1.349,0.926-2.703,1.304-4.079
					c0.178-0.644,0.157-1.342,0.223-2.017C345.919,105.257,345.91,105.149,345.91,104.961z"/>
			</g>
		</g>
		<g>
			<path fill-rule="evenodd" clip-rule="evenodd" fill="#9BC143" d="M286.742,123.658c-1.18-0.522-2.031-1.438-2.81-2.419
				c-0.429-0.542-0.775-1.149-1.149-1.733c-0.208-0.323-0.177-0.621,0.028-0.968c0.478-0.808,1.147-1.413,1.851-2.01
				c0.873-0.743,1.686-1.556,2.549-2.312c1.228-1.076,2.472-2.134,3.719-3.188c1.602-1.352,3.235-2.667,4.813-4.045
				c0.886-0.776,1.636-1.708,2.534-2.467c1.687-1.424,3.1-3.106,4.528-4.76c2.244-2.597,4.396-5.293,5.821-8.448
				c0.666-1.471,1.143-3.038,1.577-4.598c0.42-1.506,0.689-3.056,0.997-4.592c0.289-1.442,0.564-2.888,0.801-4.338
				c0.109-0.667,0.07-1.358,0.175-2.026c0.13-0.833,0.306-1.663,0.52-2.48c0.375-1.446,0.75-2.896,1.214-4.314
				c0.206-0.63,0.586-1.22,0.966-1.774c0.595-0.866,1.16-1.789,1.916-2.498c0.9-0.844,1.969-1.519,3.004-2.208
				c0.591-0.393,1.262-0.663,1.893-0.996c0.081-0.042,0.17-0.115,0.201-0.194c0.279-0.709,0.535-1.427,0.821-2.133
				c0.305-0.754,0.636-1.498,0.958-2.25c0.792,0.279,1.531,0.541,2.271,0.801c1.824,0.643,3.549,1.501,5.263,2.39
				c1.725,0.893,3.471,1.745,5.204,2.622c2.25,1.138,4.495,2.288,6.748,3.42c1.102,0.554,2.219,1.077,3.323,1.625
				c0.475,0.235,0.934,0.502,1.401,0.752c0.782,0.415,1.558,0.84,2.348,1.239c2.774,1.402,5.438,2.983,7.964,4.799
				c1.14,0.818,2.313,1.588,3.444,2.417c1.71,1.255,3.398,2.542,5.093,3.82c2.114,1.594,4.043,3.398,5.919,5.263
				c0.582,0.577,1.236,1.094,1.741,1.731c0.883,1.113,1.939,2.089,2.616,3.371c0.379,0.718,0.857,1.384,1.297,2.068
				c0.039,0.059,0.125,0.088,0.188,0.13c0,0.028,0,0.056,0,0.084c-0.044,0.111-0.076,0.229-0.134,0.333
				c-0.747,1.351-1.566,2.642-2.84,3.574c-0.534,0.391-1.032,0.839-1.594,1.185c-1.51,0.928-3.007,1.889-4.579,2.699
				c-1.967,1.013-3.99,1.916-6.014,2.811c-1.423,0.629-2.862,1.23-4.404,1.538c-1.368,0.273-2.725,0.606-4.093,0.876
				c-0.553,0.109-1.124,0.151-1.688,0.166c-0.638,0.015-1.276-0.018-1.913-0.06c-0.746-0.05-1.495-0.096-2.233-0.208
				c-1.234-0.191-2.464-0.421-3.691-0.66c-0.654-0.128-1.215-0.257-1.457-1.116c-0.55-1.952-1.707-3.609-2.992-5.152
				c-1.309-1.568-2.876-2.876-4.545-4.032c-2.055-1.424-4.193-2.725-6.278-4.104c-0.786-0.521-1.581-1.051-2.271-1.686
				c-0.83-0.766-1.553-1.648-2.338-2.498c-0.415,0.815-0.838,1.649-1.261,2.482c-0.217,0.427-0.426,0.86-0.652,1.282
				c-0.359,0.67-0.707,1.348-1.106,1.994c-0.456,0.738-1.013,1.416-1.441,2.169c-0.726,1.273-1.501,2.514-2.479,3.6
				c-1.601,1.779-3.241,3.523-4.908,5.241c-1.3,1.34-2.635,2.65-4.008,3.915c-0.948,0.874-1.965,1.68-2.996,2.456
				c-1.275,0.959-2.606,1.844-3.898,2.782c-0.881,0.64-1.71,1.354-2.604,1.972c-1.833,1.265-3.69,2.494-5.546,3.726
				c-0.924,0.614-1.864,1.202-2.797,1.803c-0.723,0.466-1.447,0.929-2.168,1.398c-0.884,0.576-1.765,1.157-2.648,1.736
				C286.854,123.658,286.798,123.658,286.742,123.658z"/>
		</g>
		<g>
			<path fill-rule="evenodd" clip-rule="evenodd" fill="#B8DD63" d="M320.484,54.698c1.028,0.563,2.055,1.131,3.087,1.688
				c0.299,0.162,0.397,0.418,0.236,0.77c-0.253,0.553-0.537,1.093-0.772,1.653c-0.437,1.039-0.848,2.09-1.298,3.205
				c-1.597,0.166-2.841,1.283-4.17,2.23c-1.206,0.86-2.008,2.057-2.79,3.293c-0.78,1.234-1.164,2.589-1.474,3.981
				c-0.068,0.303-0.179,0.46-0.488,0.517c-0.241,0.045-0.469,0.159-0.702,0.243c-0.168,0-0.334,0-0.503,0
				c-0.892-0.31-1.116-0.977-1.048-1.852c0.06-0.782,0.058-1.57,0.062-2.356c0.004-0.969-0.011-1.94-0.031-2.91
				c-0.002-0.112-0.101-0.222-0.153-0.333c0-0.028,0-0.056,0-0.083c0.131-0.116,0.254-0.243,0.395-0.344
				c0.821-0.589,1.721-1.085,2.283-1.98c0.137-0.218,0.361-0.381,0.545-0.571c0.751-0.773,1.6-1.475,2.229-2.337
				c0.856-1.172,1.845-2.209,2.829-3.26c0.481-0.513,0.954-1.035,1.43-1.554C320.262,54.698,320.372,54.698,320.484,54.698z"/>
		</g>
	</g>
</g>
<g>
	<g>
		<g>
			<path fill-rule="evenodd" clip-rule="evenodd" fill="#539798" d="M290.395,273.787c-0.049,2.013-0.098,4.026-0.147,6.041
				c-0.781,0.626-1.599,1.215-2.341,1.889c-15.483,14.073-30.973,28.139-46.425,42.246c-5.523,5.042-10.949,10.19-16.418,15.286
				c-0.367-0.009-0.73-0.018-1.098-0.025c-0.409-0.179-0.803-0.427-1.232-0.53c-8.956-2.232-17.916-4.436-26.869-6.663
				c-42.915-10.678-85.823-21.367-128.738-32.036c-13.523-3.362-27.059-6.671-40.762-10.044c0.042-1.748,0.091-3.792,0.143-5.911
				c2.429,0.06,4.909-0.446,6.901,0.317c2.405,0.917,4.113,0.059,6.014-0.784c25.397-11.248,50.78-22.531,76.203-33.719
				c1.477-0.652,3.355-1.007,4.921-0.74c15.499,2.611,30.975,5.365,46.453,8.11c18.26,3.239,36.515,6.521,54.775,9.766
				c18.365,3.263,36.733,6.522,55.114,9.702c0.794,0.136,2.264-0.308,2.509-0.879c1.176-2.696,3.364-2.24,5.509-2.161
				C286.732,273.717,288.564,273.742,290.395,273.787"/>
			<path fill-rule="evenodd" clip-rule="evenodd" fill="#DFF1EF" d="M290.552,272.803c-0.009,0.368-0.019,0.733-0.025,1.1
				c-0.785,0.627-1.6,1.213-2.341,1.889c-15.418,14.011-30.837,28.016-46.227,42.063c-5.588,5.103-11.08,10.309-16.621,15.47
				c-0.368-0.009-0.729-0.018-1.095-0.027c-5.12-1.336-10.221-2.728-15.355-4.002c-55.156-13.723-110.321-27.421-165.481-41.136
				c-5.56-1.384-11.103-2.83-17.027-4.34c0.67-0.445,0.876-0.625,1.114-0.732c29.91-13.271,59.819-26.54,89.745-39.771
				c0.785-0.348,1.779-0.522,2.617-0.396c3.612,0.554,7.202,1.251,10.8,1.89c27.27,4.854,54.537,9.72,81.807,14.564
				c20.257,3.596,40.518,7.186,60.784,10.722C278.997,271.101,284.781,271.908,290.552,272.803"/>
		</g>
		<g>
			<path fill-rule="evenodd" clip-rule="evenodd" fill="#539798" d="M252.365,276.041c-0.419,0.293-0.87,0.551-1.251,0.889
				c-2.391,2.116-4.75,4.271-7.167,6.357c-0.366,0.315-1.023,0.559-1.472,0.469c-10.205-2.04-20.4-4.13-30.597-6.213
				c-0.143-0.029-0.279-0.097-0.56-0.195c0.317-0.261,0.546-0.472,0.796-0.655c2.858-2.077,5.729-4.136,8.571-6.235
				c0.621-0.458,1.172-0.58,1.959-0.428c9.615,1.88,19.24,3.708,28.861,5.553c0.294,0.057,0.578,0.154,0.866,0.233
				C252.37,275.891,252.368,275.966,252.365,276.041 M248.679,275.951c-8.464-1.628-16.612-3.204-24.769-4.741
				c-0.373-0.068-0.88,0.112-1.208,0.345c-1.899,1.35-3.766,2.75-5.64,4.135c-0.645,0.476-1.286,0.957-2.086,1.553
				c8.641,1.758,17.026,3.47,25.417,5.156c0.331,0.066,0.816,0.041,1.047-0.156C243.806,280.229,246.136,278.172,248.679,275.951"/>
			<path fill-rule="evenodd" clip-rule="evenodd" fill="#539798" d="M219.327,305.289c-3.614,3.229-7.263,6.206-10.555,9.535
				c-1.991,2.013-3.784,2.196-6.403,1.485c-10.561-2.87-21.191-5.479-31.797-8.184c-0.362-0.093-0.722-0.192-1.302-0.346
				c0.462-0.361,0.786-0.632,1.129-0.879c4.349-3.155,8.689-6.321,13.069-9.433c0.417-0.298,1.13-0.439,1.628-0.324
				c11.224,2.607,22.437,5.263,33.651,7.91C218.889,305.089,219.022,305.164,219.327,305.289 M174.017,307.448
				c0.393,0.135,0.59,0.219,0.795,0.271c9.463,2.394,18.924,4.796,28.398,7.144c0.435,0.108,1.105-0.114,1.462-0.419
				c3-2.561,5.953-5.176,8.921-7.771c0.407-0.355,0.828-0.698,1.306-1.098c-0.281-0.167-0.368-0.248-0.465-0.271
				c-9.209-2.192-18.415-4.392-27.634-6.539c-0.456-0.105-1.11,0.114-1.514,0.403c-2.809,2.012-5.578,4.081-8.358,6.133
				C176.003,305.982,175.077,306.666,174.017,307.448"/>
			<path fill-rule="evenodd" clip-rule="evenodd" fill="#539798" d="M187.957,294.165c3.913-2.839,7.711-5.595,11.512-8.35
				c2.587-1.875,5.162-3.766,7.782-5.592c0.405-0.283,1.063-0.443,1.538-0.345c10.369,2.115,20.726,4.278,31.085,6.436
				c0.104,0.021,0.195,0.098,0.421,0.216c-0.603,0.561-1.154,1.09-1.725,1.599c-5.072,4.532-10.14,9.069-15.238,13.573
				c-0.333,0.293-0.951,0.531-1.356,0.439c-11.208-2.55-22.404-5.144-33.602-7.735C188.273,294.381,188.185,294.299,187.957,294.165
				 M236.487,286.643c-0.415-0.136-0.621-0.225-0.837-0.268c-8.311-1.733-16.62-3.472-24.938-5.158
				c-0.499-0.101-1.192,0.063-1.611,0.363c-3.18,2.275-6.315,4.611-9.462,6.933c-2.471,1.823-4.939,3.649-7.5,5.542
				c0.346,0.126,0.544,0.224,0.752,0.271c8.921,2.055,17.84,4.116,26.771,6.127c0.445,0.1,1.112-0.113,1.476-0.419
				c2.189-1.835,4.32-3.737,6.471-5.618C230.518,291.869,233.426,289.321,236.487,286.643"/>
			<path fill-rule="evenodd" clip-rule="evenodd" fill="#539798" d="M140.125,265.686c-3.586,1.792-6.961,3.482-10.631,5.318
				c2.495,0.549,4.663,1.025,6.829,1.502c0.023-0.053,0.047-0.104,0.071-0.155c-0.443-0.259-0.886-0.52-1.485-0.87
				c1.086-0.336,1.939-0.498,2.899-0.002c2.181,1.123,4.41,2.154,6.567,3.48c-4.431-0.285-8.861-0.57-13.568-0.873
				c0.991-1.528,2.354-0.217,3.394-0.918c-2.031-0.44-3.943-0.881-5.871-1.247c-0.357-0.066-0.805,0.104-1.157,0.276
				c-3.437,1.693-6.855,3.425-10.3,5.104c-0.434,0.211-1.024,0.33-1.482,0.226c-8.283-1.884-16.557-3.808-24.832-5.726
				c-0.214-0.05-0.418-0.137-0.852-0.283c2.303-1.023,4.417-1.97,6.537-2.904c5.768-2.543,11.563-5.027,17.289-7.666
				c1.283-0.591,2.395-0.377,3.594-0.129c7.343,1.516,14.685,3.043,22.026,4.571C139.41,265.442,139.657,265.54,140.125,265.686
				 M93.414,271.412c7.117,1.65,13.932,3.243,20.756,4.79c0.497,0.11,1.134,0.012,1.598-0.211c4.495-2.173,8.966-4.396,13.443-6.603
				c2.382-1.175,4.765-2.351,7.289-3.598c-0.414-0.146-0.648-0.262-0.895-0.314c-6.017-1.261-12.039-2.492-18.044-3.792
				c-1.165-0.251-2.155-0.117-3.231,0.38c-3.92,1.809-7.878,3.53-11.822,5.285C99.567,268.661,96.63,269.977,93.414,271.412"/>
			<path fill-rule="evenodd" clip-rule="evenodd" fill="#539798" d="M133.735,281.703c2.888-1.575,5.517-3.011,8.146-4.444
				c4.685-2.549,9.36-5.116,14.072-7.616c0.559-0.298,1.357-0.415,1.979-0.291c8.819,1.776,17.628,3.607,26.438,5.429
				c0.218,0.046,0.427,0.138,0.77,0.25c-0.288,0.228-0.49,0.418-0.719,0.563c-6.594,4.19-13.184,8.391-19.803,12.542
				c-0.471,0.296-1.206,0.441-1.742,0.321c-9.479-2.153-18.948-4.357-28.417-6.552C134.317,281.872,134.181,281.828,133.735,281.703
				 M137.943,281.441c0.107,0.196,0.118,0.252,0.141,0.255c7.781,1.796,15.561,3.601,23.352,5.354c0.47,0.106,1.11-0.06,1.533-0.319
				c5.183-3.196,10.34-6.433,15.503-9.661c0.971-0.608,1.939-1.223,3.045-1.923c-0.483-0.14-0.766-0.241-1.057-0.302
				c-7.018-1.46-14.04-2.896-21.05-4.394c-0.804-0.172-1.427-0.068-2.115,0.315c-4.035,2.251-8.086,4.471-12.131,6.7
				C142.767,278.787,140.37,280.106,137.943,281.441"/>
			<path fill-rule="evenodd" clip-rule="evenodd" fill="#539798" d="M175.591,301.89c-5.077-0.364-10.154-0.739-15.234-1.078
				c-0.771-0.051-1.13-0.289-0.879-1.162c1.391,0.046,2.805,0.091,4.216,0.138c0.014-0.067,0.028-0.136,0.041-0.202
				c-9.686-2.386-19.372-4.771-29.206-7.191c0.249-0.219,0.399-0.402,0.59-0.514c3.145-1.843,6.253-3.753,9.47-5.455
				c0.791-0.416,1.946-0.143,2.933-0.187c0.028,0.149,0.056,0.3,0.083,0.449c-2.939,1.74-5.878,3.482-9.069,5.374
				c9.302,2.271,18.321,4.474,27.341,6.675c0.022-0.058,0.043-0.117,0.065-0.177c-0.809-0.446-1.621-0.893-2.431-1.341
				c-0.001-0.106-0.004-0.214-0.006-0.322c0.835-0.053,1.818-0.42,2.481-0.107c3.282,1.544,6.479,3.268,9.707,4.929
				C175.659,301.774,175.624,301.831,175.591,301.89"/>
			<path fill-rule="evenodd" clip-rule="evenodd" fill="#539798" d="M206.328,270.915c-0.667-0.287-1.333-0.573-2-0.859
				c0.001-0.09,0.002-0.178,0.002-0.267c0.624-0.04,1.32-0.289,1.855-0.092c3.048,1.113,6.057,2.332,9.043,3.67
				c-3.272-0.208-6.545-0.419-9.819-0.622c-1.009-0.062-2.024-0.068-3.027-0.183c-0.386-0.044-0.746-0.317-1.118-0.486
				c0.04-0.109,0.08-0.22,0.12-0.328c1.051,0.033,2.102,0.069,3.151,0.103c0.009-0.054,0.017-0.105,0.026-0.159
				c-2.126-0.425-4.252-0.854-6.379-1.276c-5.304-1.054-10.611-2.098-15.913-3.171c-0.813-0.164-1.501-0.129-2.238,0.346
				c-1.546,0.996-3.218,1.804-4.726,2.852c-1.168,0.812-2.257,0.772-3.588,0.226c0.286-0.205,0.49-0.378,0.719-0.512
				c2.073-1.218,4.168-2.397,6.218-3.654c0.8-0.49,1.552-0.55,2.454-0.369c8.14,1.634,16.288,3.229,24.433,4.833
				c0.243,0.048,0.492,0.067,0.737,0.102C206.295,271.016,206.311,270.967,206.328,270.915"/>
			<path fill-rule="evenodd" clip-rule="evenodd" fill="#539798" d="M182.137,284.562c1.26,0.041,2.518,0.082,3.775,0.124
				c0.009-0.054,0.018-0.107,0.027-0.161c-2.654-0.589-5.307-1.178-8.045-1.785c0.451-0.831,1.093-0.838,1.823-0.676
				c2.67,0.596,5.342,1.176,8.09,1.576c-0.769-0.368-1.537-0.736-2.306-1.105c-0.004-0.104-0.009-0.207-0.013-0.31
				c0.797-0.004,1.689-0.244,2.373,0.033c3.008,1.215,5.957,2.579,8.898,4.103c-1.076-0.034-2.156-0.043-3.231-0.11
				c-3.506-0.228-7.01-0.481-10.517-0.712C182.424,285.499,181.953,285.402,182.137,284.562"/>
		</g>
	</g>
	<g>
		<path fill-rule="evenodd" clip-rule="evenodd" fill="#297D7D" d="M109.296,243.579c-0.539,1.324-0.08,2.479,0.58,3.646
			c0.33-0.256,0.618-0.483,0.93-0.725c-0.287-0.7-0.696-1.378-0.473-2.281c0.333,0.105,0.655,0.156,0.922,0.306
			c1.396,0.789,2.317,1.969,2.747,3.514c0.045,0.162,0.014,0.412-0.086,0.542c-0.697,0.909-0.791,1.872-0.23,2.696
			c0.572,0.835,1.489,1.108,2.589,0.775c0.04-0.012,0.088-0.006,0.133-0.007c0.243-0.189,0.486-0.381,0.731-0.572
			c0.032-0.068,0.052-0.139,0.091-0.204c0.91-1.527-0.002-3.225-1.787-3.326c-0.059-0.002-0.12-0.009-0.21-0.018
			c-0.263-1.098-0.766-2.084-1.527-2.91c-0.468-0.504-0.999-0.959-1.559-1.365c-0.664-0.48-1.436-0.672-2.267-0.53
			C109.687,243.272,109.492,243.426,109.296,243.579"/>
		<path fill-rule="evenodd" clip-rule="evenodd" fill="#297D7D" d="M100.767,247.357c-0.54,1.325-0.079,2.479,0.58,3.647
			c0.331-0.259,0.618-0.485,0.93-0.727c-0.287-0.7-0.695-1.378-0.473-2.28c0.333,0.105,0.657,0.154,0.923,0.304
			c1.396,0.791,2.317,1.971,2.748,3.516c0.044,0.162,0.013,0.411-0.088,0.542c-0.696,0.908-0.792,1.871-0.229,2.695
			c0.572,0.837,1.489,1.11,2.591,0.775c0.039-0.012,0.086-0.005,0.131-0.006c0.243-0.19,0.486-0.382,0.731-0.572
			c0.031-0.067,0.052-0.14,0.091-0.205c0.909-1.526-0.002-3.226-1.785-3.325c-0.063-0.003-0.122-0.009-0.211-0.018
			c-0.263-1.098-0.766-2.085-1.527-2.911c-0.467-0.504-1-0.959-1.559-1.363c-0.664-0.482-1.436-0.673-2.266-0.531
			C101.158,247.052,100.964,247.204,100.767,247.357"/>
		<path fill-rule="evenodd" clip-rule="evenodd" fill="#297D7D" d="M92.239,251.005c-0.54,1.325-0.079,2.48,0.579,3.646
			c0.33-0.257,0.618-0.483,0.93-0.725c-0.287-0.7-0.696-1.378-0.473-2.281c0.333,0.106,0.656,0.155,0.923,0.306
			c1.395,0.79,2.317,1.97,2.748,3.514c0.043,0.162,0.012,0.412-0.088,0.542c-0.697,0.909-0.792,1.871-0.229,2.695
			c0.572,0.836,1.489,1.11,2.589,0.776c0.039-0.012,0.088-0.006,0.132-0.007c0.244-0.188,0.487-0.382,0.731-0.572
			c0.031-0.067,0.052-0.139,0.091-0.203c0.91-1.527-0.002-3.227-1.786-3.327c-0.06-0.002-0.122-0.009-0.21-0.017
			c-0.262-1.099-0.767-2.085-1.527-2.911c-0.468-0.505-1-0.959-1.56-1.365c-0.664-0.48-1.436-0.672-2.266-0.529
			C92.629,250.699,92.436,250.853,92.239,251.005"/>
		<path fill-rule="evenodd" clip-rule="evenodd" fill="#297D7D" d="M83.709,254.718c-0.54,1.324-0.079,2.479,0.58,3.646
			c0.33-0.258,0.617-0.483,0.929-0.726c-0.286-0.698-0.695-1.378-0.472-2.28c0.333,0.106,0.655,0.154,0.922,0.305
			c1.396,0.79,2.317,1.969,2.748,3.515c0.044,0.161,0.013,0.411-0.088,0.542c-0.696,0.908-0.792,1.871-0.229,2.695
			c0.572,0.836,1.489,1.109,2.59,0.776c0.04-0.013,0.087-0.007,0.132-0.007c0.243-0.188,0.487-0.382,0.731-0.572
			c0.032-0.067,0.051-0.141,0.091-0.205c0.909-1.526-0.003-3.225-1.786-3.325c-0.062-0.002-0.121-0.01-0.211-0.018
			c-0.262-1.098-0.766-2.084-1.526-2.91c-0.469-0.505-1-0.959-1.56-1.365c-0.664-0.48-1.436-0.672-2.267-0.529
			C84.101,254.412,83.906,254.563,83.709,254.718"/>
		<path fill-rule="evenodd" clip-rule="evenodd" fill="#297D7D" d="M75.181,258.496c-0.54,1.325-0.079,2.479,0.58,3.646
			c0.329-0.258,0.618-0.484,0.93-0.726c-0.288-0.699-0.695-1.377-0.473-2.28c0.333,0.105,0.656,0.153,0.923,0.305
			c1.395,0.791,2.316,1.968,2.748,3.515c0.043,0.161,0.012,0.411-0.088,0.542c-0.696,0.907-0.792,1.871-0.229,2.694
			c0.572,0.838,1.489,1.11,2.59,0.776c0.04-0.013,0.086-0.004,0.132-0.006c0.243-0.189,0.487-0.382,0.731-0.572
			c0.031-0.068,0.052-0.141,0.091-0.204c0.909-1.527-0.002-3.228-1.787-3.327c-0.061-0.001-0.121-0.008-0.21-0.017
			c-0.262-1.098-0.767-2.085-1.527-2.911c-0.468-0.505-1-0.958-1.56-1.364c-0.664-0.481-1.436-0.671-2.267-0.53
			C75.571,258.19,75.378,258.342,75.181,258.496"/>
		<path fill-rule="evenodd" clip-rule="evenodd" fill="#297D7D" d="M66.652,262.145c-0.54,1.324-0.08,2.479,0.58,3.646
			c0.33-0.259,0.618-0.484,0.93-0.726c-0.287-0.699-0.696-1.38-0.473-2.28c0.333,0.105,0.656,0.153,0.923,0.304
			c1.396,0.79,2.317,1.969,2.747,3.516c0.045,0.161,0.013,0.411-0.087,0.541c-0.697,0.908-0.792,1.871-0.23,2.695
			c0.572,0.837,1.489,1.11,2.59,0.775c0.039-0.012,0.087-0.005,0.132-0.006c0.243-0.188,0.486-0.382,0.73-0.571
			c0.032-0.068,0.052-0.141,0.092-0.205c0.91-1.526-0.002-3.227-1.787-3.326c-0.06-0.002-0.121-0.009-0.21-0.018
			c-0.263-1.098-0.766-2.085-1.527-2.91c-0.468-0.505-1-0.96-1.56-1.364c-0.664-0.481-1.436-0.673-2.267-0.531
			C67.043,261.838,66.849,261.989,66.652,262.145"/>
		<path fill-rule="evenodd" clip-rule="evenodd" fill="#297D7D" d="M58.123,265.854c-0.539,1.326-0.079,2.48,0.58,3.646
			c0.33-0.257,0.617-0.483,0.931-0.724c-0.288-0.701-0.697-1.38-0.474-2.281c0.334,0.106,0.657,0.153,0.924,0.303
			c1.395,0.792,2.316,1.97,2.747,3.517c0.044,0.161,0.013,0.41-0.087,0.54c-0.697,0.909-0.792,1.872-0.229,2.695
			c0.571,0.838,1.488,1.112,2.589,0.776c0.04-0.012,0.087-0.004,0.132-0.005c0.244-0.19,0.486-0.384,0.731-0.573
			c0.032-0.068,0.052-0.139,0.092-0.203c0.909-1.528-0.003-3.227-1.786-3.326c-0.061-0.003-0.12-0.01-0.211-0.018
			c-0.262-1.098-0.765-2.085-1.526-2.911c-0.469-0.506-1-0.96-1.56-1.363c-0.663-0.482-1.436-0.672-2.266-0.532
			C58.515,265.549,58.32,265.7,58.123,265.854"/>
		<path fill-rule="evenodd" clip-rule="evenodd" fill="#297D7D" d="M49.594,269.632c-0.539,1.325-0.079,2.48,0.58,3.646
			c0.33-0.256,0.618-0.481,0.929-0.722c-0.286-0.702-0.695-1.38-0.472-2.282c0.333,0.106,0.655,0.153,0.923,0.303
			c1.395,0.791,2.317,1.97,2.746,3.518c0.045,0.16,0.014,0.409-0.086,0.539c-0.697,0.909-0.792,1.872-0.229,2.696
			c0.571,0.836,1.488,1.109,2.588,0.776c0.04-0.012,0.087-0.006,0.132-0.007c0.243-0.189,0.487-0.382,0.731-0.572
			c0.032-0.069,0.051-0.139,0.091-0.204c0.91-1.528-0.002-3.226-1.787-3.326c-0.06-0.002-0.121-0.01-0.21-0.017
			c-0.264-1.098-0.766-2.085-1.528-2.912c-0.467-0.504-0.999-0.959-1.559-1.363c-0.664-0.481-1.436-0.672-2.266-0.53
			C49.986,269.326,49.792,269.479,49.594,269.632"/>
		<path fill-rule="evenodd" clip-rule="evenodd" fill="#297D7D" d="M41.066,273.28c-0.539,1.325-0.08,2.479,0.58,3.646
			c0.33-0.256,0.618-0.483,0.93-0.723c-0.287-0.701-0.696-1.38-0.474-2.281c0.335,0.105,0.657,0.153,0.924,0.303
			c1.396,0.791,2.317,1.969,2.748,3.517c0.045,0.16,0.012,0.409-0.087,0.54c-0.697,0.908-0.791,1.872-0.229,2.695
			c0.572,0.837,1.489,1.111,2.59,0.776c0.039-0.012,0.087-0.004,0.131-0.006c0.244-0.19,0.486-0.383,0.732-0.572
			c0.031-0.069,0.051-0.14,0.091-0.203c0.909-1.529-0.002-3.228-1.786-3.327c-0.06-0.002-0.121-0.009-0.21-0.018
			c-0.263-1.098-0.767-2.085-1.527-2.911c-0.468-0.505-1-0.959-1.561-1.363c-0.663-0.481-1.436-0.672-2.267-0.532
			C41.457,272.975,41.262,273.126,41.066,273.28"/>
	</g>
</g>
</svg>
