<?xml version="1.0" encoding="utf-8"?>
<!-- Generator: Adobe Illustrator 16.0.3, SVG Export Plug-In . SVG Version: 6.00 Build 0)  -->
<!DOCTYPE svg PUBLIC "-//W3C//DTD SVG 1.1//EN" "http://www.w3.org/Graphics/SVG/1.1/DTD/svg11.dtd">
<svg version="1.1" id="Layer_1" xmlns="http://www.w3.org/2000/svg" xmlns:xlink="http://www.w3.org/1999/xlink" x="0px" y="0px"
	 width="500px" height="360px" viewBox="0 0 500 360" enable-background="new 0 0 500 360" xml:space="preserve">
<path fill="#539798" d="M98.648,276.56c0,3.887-12.615,7.038-28.176,7.038c-15.561,0-28.175-3.151-28.175-7.038
	c0-3.886,12.614-7.037,28.175-7.037C86.033,269.522,98.648,272.674,98.648,276.56"/>
<rect x="42" y="234" fill="#539798" width="57" height="43"/>
<path fill="#297D7D" d="M98.648,233.918c0,3.886-12.615,7.038-28.176,7.038c-15.561,0-28.175-3.152-28.175-7.038
	s12.614-7.038,28.175-7.038C86.033,226.88,98.648,230.032,98.648,233.918"/>
<path fill-rule="evenodd" clip-rule="evenodd" fill="#B8DD63" d="M68.86,240.646c0.568-14.192,1.137-28.384,1.725-43.072
	c-1.385,1.683-2.386,3.107-3.595,4.328c-5.859,5.903-12.666,10.037-21.137,10.836c-3.743,0.356-7.511,0.459-11.251,0.848
	c-1.284,0.134-2.549,0.705-3.757,1.226c-0.887,0.382-1.666,1.011-2.498,1.534c-0.089-1.717-0.29-3.211-0.199-4.685
	c0.059-0.965,0.397-1.979,0.859-2.835c1.672-3.094,3.907-5.743,6.743-7.843c2.37-1.754,4.59-3.904,7.236-5.051
	c4.674-2.023,9.555-3.664,14.48-4.98c2.898-0.779,6.046-0.616,9.078-0.904c0.523-0.049,1.033-0.227,1.914-0.43
	c-2.226-1.426-4.158-2.811-6.239-3.912c-0.65-0.344-1.719,0.214-2.572,0.127c-4.246-0.432-8.549-0.635-12.709-1.5
	c-6.119-1.268-12.138-3.027-18.198-4.583c-0.4-0.1-0.79-0.242-1.185-0.365c-1.246-0.394-1.918-1.284-1.751-2.544
	c0.173-1.303,1.152-1.923,2.421-1.886c3.079,0.084,6.166,0.11,9.228,0.396c3.415,0.319,6.818,0.822,10.204,1.382
	c5.802,0.957,11.167,3.14,16.116,6.277c1.896,1.201,3.566,2.759,5.341,4.153c0.305,0.239,0.619,0.469,1.153,0.871
	c0-1.673,0.005-3.067-0.001-4.46c-0.012-2.748-0.228-5.513,0.003-8.241c0.302-3.545-1.657-5.684-4.45-6.759
	c-2.59-0.997-4.237-2.822-5.838-4.742c-2.008-2.405-3.757-5.033-5.533-7.621c-1.176-1.713-0.718-2.441,1.32-2.793
	c5.685-0.982,9.272,2.006,12.031,6.382c1.151,1.825,1.909,3.901,2.845,5.863c0.083-0.063,0.239-0.123,0.243-0.188
	c0.262-5.949,0.54-11.896,0.754-17.847c0.081-2.231,0.014-4.468,0.014-7.032c-1.146,0.235-2.149,0.4-3.13,0.652
	c-0.97,0.25-1.968,0.479-2.86,0.911c-1.377,0.666-2.674,1.497-3.977,2.241c0.833-2.308-1.458-2.767-2.942-3.891
	c-1.508-1.141-2.959-2.378-4.309-3.704c-1.258-1.235-1.011-2.229,0.579-3.037c0.579-0.295,1.173-0.565,1.777-0.8
	c0.593-0.229,1.207-0.401,2.182-0.719c-2.486-0.957-4.715-1.643-6.793-2.644c-7.979-3.85-13.964-9.736-17.738-17.798
	c-0.15-0.321-0.218-0.681-0.357-1.008c-0.417-0.978-0.85-1.949-1.445-3.305c1.235-0.258,2.791-0.756,4.375-0.879
	c4.556-0.356,8.963,0.752,12.97,2.642c5.174,2.44,10.157,5.36,14.966,8.469c2.174,1.405,3.89,3.641,5.519,5.73
	c1.573,2.018,1.855,4.419,0.889,6.911c-0.155,0.399,0.18,0.989,0.691,1.473c0.077-0.236,0.211-0.469,0.224-0.71
	c0.16-3.508,0.296-7.018,0.458-10.527c0.074-1.598,0.042-3.223,0.334-4.785c0.31-1.647-0.58-2.519-1.595-3.479
	c-1.504-1.426-2.903-2.967-4.431-4.365c-0.95-0.871-1.947-1.879-3.113-2.292c-4.705-1.665-8.787-4.32-12.61-7.438
	c-7.111-5.798-12.531-12.919-16.663-21.088c-0.352-0.694-1.598-0.942-2.439-1.375c-0.284-0.145-0.602-0.223-0.78-0.286
	c1.307-0.812,2.548-1.667,3.863-2.38c1.622-0.879,3.146-0.029,4.612,0.54c4.309,1.671,7.914,4.502,11.307,7.509
	c3.497,3.101,6.851,6.412,9.922,9.932c2.78,3.186,5.654,6.45,6.458,10.871c0.042,0.233,0.254,0.473,0.211,0.673
	c-0.756,3.571,2.568,4.501,4.335,7.048c0.477-3.518,0.889-6.544,1.297-9.57c0.039-0.295,0-0.613,0.096-0.885
	c0.956-2.702,0.265-4.789-2.001-6.612c-4.948-3.98-5.49-9.498-5.087-15.325c0.359-5.207,1.923-10.081,3.836-14.879
	c0.138-0.345,0.033-0.903-0.162-1.246c-2.737-4.809-4.6-9.909-5.702-15.349c-1.301-6.429-2.819-12.817-4.371-19.19
	c-1.033-4.237-2.283-8.421-3.455-12.623c-0.194-0.697-0.485-1.366-0.782-2.186c0.452,0.056,0.69,0.012,0.783,0.108
	c2.946,3.02,6.439,5.693,8.661,9.177c2.534,3.974,4.354,8.545,5.722,13.085c1.985,6.582,3.287,13.371,4.883,20.086
	c1.893-1.994,3.765-3.872,4.175-7.285c1.014-8.437,2.249-16.906,5.287-24.924c0.931-2.457,2.479-4.684,3.798-6.987
	c0.242-0.423,0.735-0.702,1.223-0.97c-4.255,8.42-5.644,17.541-7.201,26.771c2.724-2.424,5.094-4.951,7.87-6.901
	c3.861-2.713,7.866-5.331,12.111-7.356c3.575-1.704,7.546-1.258,11.275,0.244c3.383,1.36,4.449,4.194,4.732,7.512
	c0.021,0.238-0.031,0.485,0.011,0.717c1.022,5.699-2.079,9.765-5.497,13.646c-5.259,5.969-11.943,9.014-19.877,9.289
	c-1.415,0.048-2.841-0.138-4.297-0.218c0.718,2.791,1.401,5.44,2.152,8.362c2.154-1.179,4.205-2.306,6.262-3.427
	c4.407-2.406,8.822-4.801,13.227-7.215c3.63-1.99,7.189-4.124,10.892-5.966c3.808-1.893,7.687-1.896,11.355,0.527
	c0.604,0.399,1.083,0.986,1.703,1.564c-5.466,1.559-7.627,6.034-10.18,10.127c-0.558,0.893-1.042,1.892-1.794,2.592
	c-3.566,3.319-6.972,6.882-10.89,9.737c-5.845,4.261-12.386,6.918-19.914,6.054c-0.439-0.05-1.318,0.599-1.4,1.035
	c-1.309,6.937-5.58,11.146-12.035,13.49c-0.54,0.196-1.15,1.034-1.199,1.619c-0.461,5.505-0.797,11.018-1.194,16.529
	c-0.105,1.471-0.29,2.937-0.489,4.902c2.117-1.763,3.885-3.209,5.612-4.705c0.215-0.184,0.328-0.642,0.284-0.943
	c-0.571-3.794,1.186-6.607,3.988-8.759c4.964-3.812,10.679-6.022,16.78-7.285c3.758-0.778,7.482-1.834,11.276-2.294
	c6.765-0.819,13.532-0.907,19.822,2.408c0.766,0.404,1.384,1.095,1.989,1.873c-1.723,0.078-2.396,0.941-2.923,2.323
	c-0.429,1.122-1.262,2.152-2.105,3.042c-5.927,6.251-13.106,10.568-21.32,12.982c-5.733,1.684-11.681,2.106-17.653,1.424
	c-2.638-0.301-5.253-0.812-7.892-1.079c-0.803-0.082-1.723,0.187-2.469,0.548c-1.325,0.642-2.505,1.59-3.842,2.201
	c-1.659,0.76-2.318,1.868-2.241,3.712c0.13,3.082,0.035,6.174,0.035,8.695c3.595,1.201,6.767,2.225,9.907,3.344
	c0.554,0.197,1.392,0.843,1.349,1.189c-0.071,0.57-0.66,1.2-1.194,1.566c-2.359,1.62-5.129,1.736-7.852,1.955
	c-0.877,0.072-1.765,0.011-2.922,0.011v9.279c2.054-1.375,4.132-2.753,6.188-4.166c0.144-0.097,0.148-0.426,0.182-0.654
	c0.543-3.381,2.762-5.586,6.31-6.397c4.489-1.027,8.595,0.104,12.46,2.263c2.837,1.583,5.626,3.284,8.264,5.17
	c1.57,1.123,3.136,0.711,4.751,0.753c0.599,0.016,1.196,0.2,1.795,0.308c-0.269,0.677-0.421,1.442-0.841,2.006
	c-0.403,0.542-1.086,0.876-1.679,1.328c1.155,1.785,2.243,3.467,3.332,5.148c-0.125,0.099-0.252,0.199-0.378,0.299
	c-1.592-1.176-3.223-2.304-4.757-3.55c-0.821-0.667-1.543-0.728-2.42-0.228c-4.913,2.8-10.194,4.653-15.664,5.991
	c-3.325,0.814-6.718,1.37-10.003,2.313c-1.434,0.411-2.68,1.491-3.998,2.291c-0.352,0.214-0.616,0.631-0.987,0.752
	c-3.105,1.019-3.065,3.464-2.972,6.087c0.121,3.382,0.029,6.772,0.029,10.402c0.39-0.163,0.846-0.301,1.248-0.531
	c2.909-1.682,5.519-4.085,9.049-4.349c3.395-0.254,6.812-0.29,10.219-0.274c2.612,0.013,5.246,0.087,7.83,0.437
	c3.422,0.464,7.009,0.385,10.137,2.117c1.37,0.757,2.555,1.884,3.729,2.95c0.355,0.319,0.393,0.987,0.575,1.496
	c-0.146,0.142-0.292,0.284-0.438,0.427c-1.284-0.729-2.631-1.368-3.838-2.207c-2.29-1.59-4.812-2.136-7.548-2.169
	c-6.438-0.077-12.913,0.147-19.302-0.48c-4.849-0.477-7.971,2.389-11.644,4.355c-0.236,0.128-0.44,0.564-0.437,0.855
	c0.035,5.906,0.103,11.814,0.167,17.723c0.004,0.231,0.043,0.464,0.043,0.472c3.217,0.692,6.372,1.151,9.386,2.074
	c5.141,1.566,9.894,4.08,13.895,7.651c3,2.676,5.515,5.925,7.006,9.74c0.429,1.1,0.166,2.487,0.136,3.741
	c-0.02,0.857-0.189,1.71-0.289,2.549c-0.119,0.013-0.212,0.048-0.232,0.022c-2.785-3.445-7.012-3.232-10.755-4.271
	c-4.624-1.28-8.843-3.272-12.312-6.741c-2.72-2.723-4.99-5.696-6.371-9.311c-0.076-0.198-0.275-0.353-0.596-0.748
	c-1.48,12.066-0.991,23.924-1.064,35.765H68.86z M99.7,148.31c-0.619-0.461-1.309-1.169-2.148-1.559
	c-1.522-0.707-3.1-1.587-4.714-1.734c-2.217-0.203-4.501,0.105-6.731,0.398c-1.441,0.191-2.957,0.519-4.221,1.196
	c-1.757,0.942-3.212,2.452-4.973,3.383c-2.533,1.337-3.494,3.169-3.111,6.019c0.269,1.998,0.052,4.061,0.052,6.096
	c0.169,0.055,0.338,0.11,0.506,0.167c1.98-1.748,3.888-3.585,5.961-5.215c1.847-1.45,3.726-3.032,5.857-3.918
	C90.604,151.304,95.207,149.887,99.7,148.31"/>
<path fill="#B3B3B3" d="M212.16,318.564c0,3.046-9.886,5.516-22.08,5.516c-12.194,0-22.08-2.47-22.08-5.516
	c0-3.045,9.886-5.515,22.08-5.515C202.274,313.05,212.16,315.52,212.16,318.564"/>
<rect x="168" y="314" fill="#B3B3B3" width="44" height="5"/>
<path fill="#CCCCCC" d="M212.16,313.564c0,3.046-9.886,5.516-22.08,5.516c-12.194,0-22.08-2.47-22.08-5.516
	c0-3.045,9.886-5.515,22.08-5.515C202.274,308.05,212.16,310.52,212.16,313.564"/>
<path fill="#B3B3B3" d="M224.16,310.564c0,3.046-9.886,5.516-22.08,5.516c-12.194,0-22.08-2.47-22.08-5.516
	c0-3.045,9.886-5.515,22.08-5.515C214.274,305.05,224.16,307.52,224.16,310.564"/>
<rect x="180" y="306" fill="#B3B3B3" width="44" height="5"/>
<path fill="#CCCCCC" d="M224.16,305.564c0,3.046-9.886,5.516-22.08,5.516c-12.194,0-22.08-2.47-22.08-5.516
	c0-3.045,9.886-5.515,22.08-5.515C214.274,300.05,224.16,302.52,224.16,305.564"/>
<path fill="#B3B3B3" d="M214.16,300.564c0,3.046-9.886,5.516-22.08,5.516c-12.194,0-22.08-2.47-22.08-5.516
	c0-3.045,9.886-5.515,22.08-5.515C204.274,295.05,214.16,297.52,214.16,300.564"/>
<rect x="170" y="296" fill="#B3B3B3" width="44" height="5"/>
<path fill="#CCCCCC" d="M214.16,295.564c0,3.046-9.886,5.516-22.08,5.516c-12.194,0-22.08-2.47-22.08-5.516
	c0-3.045,9.886-5.515,22.08-5.515C204.274,290.05,214.16,292.52,214.16,295.564"/>
<path fill="#B3B3B3" d="M373.16,340.564c0,3.046-9.886,5.516-22.08,5.516S329,343.61,329,340.564c0-3.045,9.886-5.515,22.08-5.515
	S373.16,337.52,373.16,340.564"/>
<rect x="329" y="336" fill="#B3B3B3" width="44" height="5"/>
<path fill="#CCCCCC" d="M373.16,335.564c0,3.046-9.886,5.516-22.08,5.516S329,338.61,329,335.564c0-3.045,9.886-5.515,22.08-5.515
	S373.16,332.52,373.16,335.564"/>
<path fill="#B3B3B3" d="M79.16,341.564c0,3.046-9.886,5.516-22.08,5.516c-12.194,0-22.08-2.47-22.08-5.516
	c0-3.045,9.886-5.515,22.08-5.515C69.274,336.05,79.16,338.52,79.16,341.564"/>
<rect x="35" y="337" fill="#B3B3B3" width="44" height="5"/>
<path fill="#CCCCCC" d="M79.16,336.564c0,3.046-9.886,5.516-22.08,5.516c-12.194,0-22.08-2.47-22.08-5.516
	c0-3.045,9.886-5.515,22.08-5.515C69.274,331.05,79.16,333.52,79.16,336.564"/>
<path fill="#B3B3B3" d="M335.16,308.564c0,3.046-9.886,5.516-22.08,5.516S291,311.61,291,308.564c0-3.045,9.886-5.515,22.08-5.515
	S335.16,305.52,335.16,308.564"/>
<rect x="291" y="304" fill="#B3B3B3" width="44" height="5"/>
<path fill="#CCCCCC" d="M335.16,303.564c0,3.046-9.886,5.516-22.08,5.516S291,306.61,291,303.564c0-3.045,9.886-5.515,22.08-5.515
	S335.16,300.52,335.16,303.564"/>
<path fill-rule="evenodd" clip-rule="evenodd" fill="#485D70" d="M209.848,108.02c2.026,0.879,4.031,1.818,6.083,2.629
	c10.493,4.153,20.999,8.273,31.5,12.404v5.95c-0.15,1.012-0.302,2.023-0.472,3.164c-6.083,0.503-12.145,1.004-18.301,1.513
	c0.093,0.88,0.177,1.593,0.244,2.307c1.101,11.631,2.199,23.263,3.3,34.892c0.893,9.397,1.788,18.794,2.681,28.192
	c0.861,9.084,1.717,18.171,2.586,27.256c1.002,10.487,2.02,20.972,3.023,31.457c0.685,7.167,1.35,14.334,2.03,21.5
	c0.805,8.464,1.565,16.93,2.464,25.384c0.19,1.772-0.585,2.498-2.036,2.88c-0.644,0.171-1.332,0.261-1.998,0.248
	c-2.288-0.05-2.744-0.528-2.996-2.797c-1.143-10.26-2.295-20.519-3.454-30.779c-1.122-9.947-2.251-19.892-3.386-29.839
	c-0.323-2.826-0.673-5.65-1.014-8.518c-0.674,0.107-1.178,0.233-1.687,0.265c-5.467,0.327-10.933,0.705-16.406,0.918
	c-1.572,0.063-1.988,0.504-1.941,2.092c0.409,14.083,0.731,28.168,1.066,42.254c0.052,2.186-0.403,2.697-2.606,2.924
	c-0.611,0.062-1.258,0.015-1.858-0.122c-2.206-0.495-2.397-0.797-2.482-3.016c-0.521-13.715-1.055-27.426-1.592-41.139
	c-0.031-0.759-0.124-1.514-0.194-2.335c-12.536,0.721-24.898,1.432-37.371,2.149c-0.015,0.134-0.062,0.437-0.086,0.742
	c-0.662,8.525-1.343,17.053-1.981,25.581c-1.144,15.295-2.305,30.589-3.333,45.892c-0.127,1.887-0.975,2.7-2.534,2.854
	c-1.367,0.134-2.782-0.076-4.158-0.261c-0.879-0.118-1.224-0.674-1.158-1.674c0.611-9.16,1.162-18.323,1.731-27.486
	c0.932-14.995,1.854-29.991,2.822-44.984c0.067-1.038-0.22-1.586-1.119-2.105c-4.515-2.609-8.987-5.293-13.478-7.943
	c-0.429-0.256-0.882-0.469-1.47-0.781c-0.122,0.74-0.224,1.288-0.302,1.845c-0.759,5.469-1.516,10.942-2.267,16.416
	c-1.831,13.321-3.666,26.646-5.481,39.971c-0.315,2.31-0.917,2.864-3.222,2.575c-0.816-0.104-1.619-0.379-2.404-0.644
	c-1.379-0.463-1.845-1.342-1.637-2.87c1.126-8.372,2.144-16.754,3.205-25.135c1.842-14.534,3.7-29.066,5.528-43.603
	c1.723-13.707,3.401-27.422,5.126-41.13c1.828-14.535,3.681-29.065,5.553-43.593c0.145-1.123-0.136-1.787-1.147-2.399
	c-4.867-2.941-9.687-5.959-14.501-8.984c-0.483-0.304-1.155-0.822-1.175-1.266c-0.111-2.586-0.055-5.18-0.055-7.838
	c3.488-0.221,6.766-0.438,10.045-0.638c20.522-1.262,41.043-2.513,61.565-3.788c2.125-0.132,4.243-0.388,6.365-0.586H209.848z
	 M201.568,213.756c-1.018-25.963-2.029-51.732-3.045-77.67c-2.252,0.153-4.321,0.275-6.387,0.438
	c-6.031,0.48-12.057,1.002-18.092,1.438c-1.1,0.079-1.475,0.4-1.557,1.553c-0.782,11.128-1.629,22.255-2.469,33.38
	c-0.895,11.852-1.806,23.705-2.703,35.557c-0.179,2.373-0.32,4.75-0.491,7.351C178.499,215.113,189.968,214.438,201.568,213.756
	 M218.701,134.445c-3.542,0.285-6.913,0.522-10.271,0.88c-0.342,0.037-0.87,0.82-0.863,1.248c0.141,8.134,0.339,16.269,0.548,24.401
	c0.248,9.696,0.524,19.391,0.777,29.089c0.208,7.923,0.386,15.848,0.632,23.771c0.015,0.491,0.381,1.255,0.773,1.411
	c5.909,2.332,11.851,4.584,17.787,6.851c0.09,0.035,0.204,0.004,0.505,0.004C225.289,192.851,222.004,163.723,218.701,134.445
	 M162.631,138.96c-1.797,0.12-3.469,0.492-5.054,0.264c-1.567-0.225-3.043-1.058-4.704-1.678
	c-3.62,26.362-7.26,52.856-10.936,79.631c5.353-0.294,10.562-0.583,15.883-0.877C159.426,190.494,161.02,164.857,162.631,138.96
	 M165.625,231.007c12.214-0.644,24.26-1.276,36.245-1.907v-8.951c-11.979,0.645-23.721,1.278-35.571,1.916
	C166.069,225.123,165.851,228.017,165.625,231.007 M209.818,228.629c4.915-0.258,9.731-0.511,14.547-0.765
	c0.021-0.111,0.042-0.223,0.065-0.336c-4.801-2.007-9.599-4.014-14.612-6.112V228.629z M156.973,229.946
	c0.147-2.563,0.279-4.874,0.426-7.404c-4.089,0.218-8,0.422-11.911,0.628c-0.03,0.121-0.06,0.24-0.09,0.358
	C149.184,225.63,152.971,227.728,156.973,229.946"/>
<path fill-rule="evenodd" clip-rule="evenodd" fill="#597387" d="M210.58,108.02h-4.384c-3.268,0.249-6.53,0.539-9.798,0.744
	c-19.613,1.232-39.229,2.444-58.843,3.666c-2.777,0.173-5.556,0.363-8.773,0.575c0.854,0.562,1.31,0.885,1.787,1.173
	c8.748,5.264,17.501,10.522,26.247,15.792c0.615,0.37,1.183,0.816,1.773,1.225h2.506c1.019-0.14,2.035-0.324,3.059-0.419
	c13.283-1.223,26.568-2.444,39.852-3.643c13.287-1.199,26.577-2.37,39.863-3.561c1.19-0.107,2.376-0.27,3.562-0.407
	c-0.323-0.443-0.642-0.608-0.972-0.738c-9.444-3.733-18.898-7.448-28.335-11.202C215.585,110.214,213.093,109.091,210.58,108.02"/>
<path fill-rule="evenodd" clip-rule="evenodd" fill="#F8A879" d="M320.574,158.638h15.915c2.081,0.202,4.16,0.421,6.245,0.604
	c10.552,0.923,20.856,2.976,30.868,6.505c8.969,3.161,17.111,7.953,25.309,12.635c7.03,4.011,14.167,7.841,20.412,13.111
	c8.77,7.397,17.268,15.053,24.64,23.883c1.921,2.297,3.775,4.674,5.889,6.783c2.82,2.814,6.198,3.896,10.156,2.456
	c3.363-1.225,6.313-0.456,9.071,1.812c1.802,1.481,3.778,2.814,5.848,3.888c3.221,1.667,6.595,2.969,10.345,1.653
	c0.315-0.109,0.695-0.073,1.044-0.061c1.303,0.039,1.896,0.885,1.185,1.974c-1.664,2.546-3.308,5.136-5.26,7.455
	c-2.876,3.418-6.742,5.625-10.627,7.703c-1.155,0.616-2.519,0.888-3.816,1.191c-1.938,0.453-3.947,0.647-5.841,1.229
	c-1.477,0.456-2.047,1.809-1.504,3.271c0.424,1.148,1.067,2.261,1.813,3.238c1.186,1.561,1.908,3.246,2.16,5.184
	c0.597,4.584,2.198,8.834,4.7,12.689c2.07,3.193,3.962,6.759,8.775,6.322c1.099-0.1,1.652,0.838,1.399,1.996
	c-0.295,1.364-0.584,2.733-0.953,4.08c-0.456,1.667-1.482,2.932-2.979,3.8c-3.716,2.152-7.742,3.533-11.962,4.108
	c-4.828,0.658-9.518-0.612-14.231-1.521c-7.592-1.461-14.36-4.451-19.987-9.879c-1.249-1.203-2.738-2.185-4.21-3.127
	c-4.124-2.646-8.589-4.231-13.568-4.079c-2.75,0.084-4.439,1.715-4.351,4.451c0.051,1.433,0.186,2.95,0.703,4.265
	c1.444,3.661,3.013,7.28,4.705,10.834c4.298,9.018,10.045,17.032,17.132,24.072c1.878,1.868,3.916,3.581,5.735,5.505
	c0.611,0.648,0.769,1.727,1.136,2.607c-0.819,0.27-1.626,0.709-2.459,0.772c-2.089,0.161-4.212,0-6.287,0.249
	c-3.11,0.373-5.406-0.402-6.944-3.375c-1.377-2.665-3.578-4.288-6.847-3.754c-1.806,0.296-3.125-0.566-4.084-1.967
	c-1.327-1.936-2.697-3.866-3.801-5.93c-3.275-6.123-7.669-11.34-12.731-16.02c-4.299-3.974-8.641-7.9-13.037-11.765
	c-1.068-0.94-2.358-1.698-3.653-2.301c-4.033-1.871-5.997-0.894-6.818,3.467c-1.213,6.427,0.313,12.484,2.738,18.392
	c0.891,2.161,1.88,4.297,2.552,6.527c0.472,1.566-0.514,2.677-2.164,2.645c-2.395-0.045-4.79-0.256-7.186-0.394
	c-1.435-0.083-2.255-0.812-2.601-2.228c-0.407-1.647-0.903-3.276-1.431-4.891c-0.909-2.78-1.707-3.268-4.605-2.94
	c-1.891,0.214-2.79-0.426-3.213-2.292c-0.11-0.486-0.234-0.974-0.29-1.467c-0.704-6.261-1.374-12.523-2.1-18.781
	c-0.267-2.291,0.278-4.365,1.39-6.328c0.486-0.857,1.031-1.683,1.598-2.604c-26.831,10.253-54.336,12.408-82.563,7.962
	c-0.014,0.254-0.092,0.6-0.04,0.927c0.679,4.136,1.304,8.28,2.084,12.398c1.346,7.113,3.358,13.91,9.217,18.858
	c1.277,1.079,1.002,1.998-0.625,2.439c-2.867,0.777-5.744,0.34-8.609-0.178c-2.479-0.449-4.339-1.785-5.537-3.958
	c-2.429-4.402-5.258-8.644-5.858-13.831c-0.063-0.534-0.203-1.146-0.529-1.543c-0.449-0.546-1.084-1.257-1.678-1.295
	c-1.041-0.065-1.353,0.877-1.283,1.811c0.171,2.291,0.227,4.604,0.612,6.86c1.002,5.895,3.464,11.236,6.516,16.332
	c1.385,2.313,2.777,4.626,4.072,6.988c0.275,0.501,0.146,1.22,0.203,1.839c-0.576,0.048-1.172,0.207-1.728,0.12
	c-1.677-0.266-3.343-0.605-5.004-0.954c-4.999-1.044-5.041-1.04-6.182-6.036c-0.438-1.918-1.202-3.492-2.771-4.79
	c-1.606-1.331-3.445-2.408-4.155-4.726c-1.182-3.862-2.697-7.626-4.144-11.406c-2.079-5.431-3.788-10.912-4.05-16.813
	c-0.241-5.418-2.018-10.402-5.553-14.603c-2.928-3.481-5.778-7.071-9.038-10.225c-15.992-15.456-17.513-40.337-4.688-57.999
	c1.068-1.469,2.165-2.916,3.311-4.458c-2.769-0.417-5.362-1.113-7.187-3.065c-1.735-1.854-3.813-2.585-6.15-2.994
	c-0.541-0.094-1.127-0.142-1.596-0.392c-0.774-0.416-1.638-0.854-2.139-1.526c-0.352-0.471-0.41-1.478-0.133-1.996
	c0.195-0.365,1.175-0.433,1.801-0.418c1.197,0.024,2.393,0.204,3.639,0.323c-0.486-8.753,3.662-14.611,10.934-15.685
	c3.174-0.468,6.179,0.166,8.884,1.958c3.689,2.445,5.571,5.97,5.964,10.432c2.003-1.343,3.833-2.644,5.734-3.829
	c20.723-12.917,43.549-19.258,67.659-21.56C316.115,159.052,318.347,158.845,320.574,158.638 M233.537,185.073
	c0.007-3.327-2.631-6.014-5.943-6.051c-3.397-0.038-6.122,2.636-6.132,6.015c-0.011,3.339,2.658,6.051,5.938,6.04
	C230.877,191.066,233.531,188.468,233.537,185.073"/>
<path fill-rule="evenodd" clip-rule="evenodd" fill="#DFF1EF" d="M314.553,111.346h4.201c0.221,0.041,0.44,0.092,0.662,0.123
	c1.402,0.198,2.822,0.321,4.21,0.6c14.209,2.838,25.356,14.631,27.358,28.903c0.133,0.953,0.256,1.909,0.383,2.864v4.448
	c-0.041,0.2-0.107,0.396-0.123,0.599c-0.31,3.954-1.221,7.77-2.917,11.352c-5.213,11.014-13.81,17.713-25.792,20.025
	c-1.247,0.238-2.521,0.345-3.781,0.517h-4.201c-0.2-0.041-0.396-0.102-0.6-0.117c-6.297-0.5-12.066-2.516-17.203-6.185
	c-8.072-5.765-12.888-13.577-14.431-23.388c-0.149-0.97-0.256-1.95-0.381-2.925v-4.202c0.04-0.197,0.104-0.396,0.118-0.597
	c0.229-3.159,0.837-6.248,1.999-9.192c4.838-12.252,13.725-19.708,26.656-22.296C311.979,111.623,313.271,111.519,314.553,111.346"
	/>
<path fill-rule="evenodd" clip-rule="evenodd" fill="#2A7D7D" d="M355.384,143.652v4.818c-0.038,0.179-0.095,0.357-0.109,0.538
	c-0.426,5.817-2.041,11.294-5.014,16.306c-6.257,10.536-15.434,16.913-27.54,18.998c-1.211,0.212-2.439,0.321-3.658,0.479h-4.818
	c-0.178-0.037-0.354-0.093-0.535-0.106c-4.053-0.294-7.992-1.136-11.714-2.766c-13.116-5.754-21.026-15.671-23.595-29.79
	c-0.219-1.208-0.32-2.439-0.478-3.658v-4.818c0.037-0.199,0.095-0.398,0.112-0.597c0.307-4.114,1.18-8.109,2.858-11.879
	c5.784-12.995,15.674-20.819,29.692-23.366c1.208-0.219,2.438-0.323,3.658-0.48h4.818c0.157,0.036,0.314,0.084,0.474,0.105
	c1.527,0.206,3.067,0.341,4.58,0.621c15.703,2.9,28.423,16.079,30.783,31.874C355.087,141.168,355.224,142.412,355.384,143.652
	 M282.385,146.045c-0.02,18.872,15.279,34.244,34.112,34.281c19.041,0.033,34.394-15.227,34.42-34.218
	c0.027-18.906-15.273-34.284-34.141-34.312C297.743,111.769,282.403,127.044,282.385,146.045"/>
<path fill-rule="evenodd" clip-rule="evenodd" fill="#9BC143" d="M316.277,148.436c-0.899,0.016-1.794-0.644-2.178-1.546
	c-0.1-0.239-0.278-0.505-0.497-0.632c-8.148-4.716-16.306-9.418-24.462-14.121c-0.782-0.452-1.092-1.097-0.885-1.842
	c0.172-0.626,0.838-1.136,1.485-1.063c0.313,0.035,0.633,0.171,0.909,0.332c8.022,4.622,16.04,9.252,24.058,13.882
	c0.405,0.235,0.819,0.303,1.3,0.358c1.756,0.201,2.894-0.989,4.202-1.725c4.956-2.793,9.863-5.672,14.796-8.508
	c0.854-0.49,1.644-0.265,2.118,0.546c0.421,0.718,0.169,1.558-0.657,2.036c-4.674,2.713-9.354,5.413-14.031,8.118
	c-1.104,0.637-2.219,1.257-3.305,1.921c-0.254,0.155-0.491,0.427-0.611,0.702C318.098,147.864,317.337,148.417,316.277,148.436"/>
<path fill-rule="evenodd" clip-rule="evenodd" fill="#9BC143" d="M284.736,147.583v-3.02c0.937,0,1.825,0.005,2.714-0.004
	c0.361-0.002,0.51,0.144,0.498,0.514c-0.022,0.695,0.009,1.391-0.029,2.084c-0.011,0.148-0.226,0.402-0.353,0.407
	C286.632,147.601,285.697,147.583,284.736,147.583"/>
<path fill-rule="evenodd" clip-rule="evenodd" fill="#9BC143" d="M299.217,172.709c0.556-0.957,1.087-1.873,1.638-2.821
	c0.882,0.509,1.712,0.988,2.57,1.484c-0.556,0.961-1.085,1.879-1.635,2.826C300.908,173.687,300.079,173.208,299.217,172.709"/>
<path fill-rule="evenodd" clip-rule="evenodd" fill="#9BC143" d="M299.2,119.462c0.878-0.507,1.708-0.986,2.597-1.499
	c0.54,0.938,1.06,1.835,1.605,2.786c-0.86,0.5-1.671,0.973-2.569,1.496C300.296,121.329,299.771,120.436,299.2,119.462"/>
<path fill-rule="evenodd" clip-rule="evenodd" fill="#9BC143" d="M329.22,171.41c0.87-0.505,1.681-0.976,2.578-1.496
	c0.537,0.922,1.058,1.811,1.624,2.781c-0.882,0.508-1.72,0.994-2.595,1.498C330.279,173.244,329.762,172.347,329.22,171.41"/>
<rect x="314.556" y="174.465" fill-rule="evenodd" clip-rule="evenodd" fill="#9BC143" width="2.907" height="3.185"/>
<rect x="344.712" y="144.617" fill-rule="evenodd" clip-rule="evenodd" fill="#9BC143" width="3.159" height="2.936"/>
<path fill-rule="evenodd" clip-rule="evenodd" fill="#9BC143" d="M292.424,161.457c-0.968,0.556-1.85,1.064-2.789,1.607
	c-0.495-0.864-0.975-1.704-1.485-2.596c0.939-0.535,1.822-1.04,2.784-1.59C291.426,159.727,291.898,160.545,292.424,161.457"/>
<path fill-rule="evenodd" clip-rule="evenodd" fill="#9BC143" d="M331.782,122.26c-0.873-0.504-1.688-0.974-2.576-1.486
	c0.527-0.913,1.043-1.809,1.602-2.78c0.854,0.489,1.681,0.96,2.578,1.475C332.851,120.4,332.337,121.296,331.782,122.26"/>
<path fill-rule="evenodd" clip-rule="evenodd" fill="#9BC143" d="M341.624,133.188c-0.505-0.881-0.972-1.695-1.478-2.578
	c0.933-0.54,1.828-1.06,2.782-1.613c0.504,0.868,0.981,1.692,1.496,2.585C343.479,132.125,342.58,132.641,341.624,133.188"/>
<path fill-rule="evenodd" clip-rule="evenodd" fill="#9BC143" d="M343.76,160.211c-0.51,0.892-0.984,1.723-1.479,2.593
	c-0.944-0.545-1.843-1.064-2.779-1.602c0.505-0.884,0.977-1.71,1.477-2.586C341.909,159.151,342.792,159.658,343.76,160.211"/>
<path fill-rule="evenodd" clip-rule="evenodd" fill="#9BC143" d="M317.761,114.474v3.201h-2.951c0-0.982-0.009-1.941,0.013-2.899
	c0.002-0.103,0.188-0.285,0.289-0.288C315.986,114.463,316.859,114.474,317.761,114.474"/>
<path fill-rule="evenodd" clip-rule="evenodd" fill="#F8A879" d="M356.635,196.483c0-15.373-15.454-27.836-34.521-27.836
	c-19.064,0-34.52,12.463-34.52,27.836c0,15.372,15.455,27.835,34.52,27.835C341.181,224.318,356.635,211.855,356.635,196.483"/>
<path fill-rule="evenodd" clip-rule="evenodd" fill="#F3816F" d="M331.489,164.682c3.455,0.508,6.937,0.879,10.359,1.55
	c7.129,1.396,13.851,3.875,19.903,7.997c2.283,1.556,2.997,3.645,1.809,5.572c-1.222,1.987-3.633,2.47-5.908,1.094
	c-16.687-10.094-34.369-10.428-52.502-5.105c-3.538,1.038-6.755,3.169-10.114,4.806c-0.404,0.195-0.766,0.473-1.169,0.669
	c-1.964,0.965-4.288,0.264-5.331-1.595c-0.992-1.77-0.425-3.848,1.384-5.108c6.609-4.605,14.015-7.214,21.871-8.625
	c2.943-0.53,5.925-0.843,8.89-1.256H331.489z"/>
<path fill-rule="evenodd" clip-rule="evenodd" fill="#F3816F" d="M454.894,264.665c-0.688,1.834-1.6,3.417-3.74,3.895
	c-1.837,0.411-3.376-0.034-4.612-1.419c-1.299-1.45-2.594-2.909-3.781-4.448c-0.443-0.571-0.577-1.381-0.978-2.396
	c1.625,0.26,2.831,0.528,4.051,0.632c1.792,0.15,3.594,0.257,5.392,0.246c3.14-0.019,2.48-0.507,3.669,2.291V264.665z"/>
<path fill-rule="evenodd" clip-rule="evenodd" fill="#F3816F" d="M360.669,305.835c3.316-1.141,6.837-2.351,10.403-3.577
	c1.396,3.461,3.024,7.132,4.331,10.915c0.712,2.056-0.322,3.171-2.499,3.091c-2.389-0.088-4.772-0.335-7.159-0.487
	c-1.181-0.076-1.78-0.771-2.086-1.818c-0.43-1.484-0.771-3.001-1.303-4.447C361.873,308.189,361.186,306.94,360.669,305.835"/>
<path fill-rule="evenodd" clip-rule="evenodd" fill="#F3816F" d="M417.54,323.402c3.087-1.401,6.271-2.868,9.487-4.271
	c0.287-0.125,0.866,0.036,1.116,0.271c2.487,2.312,4.935,4.666,7.389,7.013c0.216,0.206,0.479,0.409,0.589,0.671
	c0.296,0.709,0.882,1.593,0.667,2.131c-0.195,0.487-1.287,0.811-2.006,0.855c-2.888,0.178-5.784,0.223-8.679,0.311
	c-1.8,0.056-3.184-0.646-4.115-2.224C420.794,326.132,419.521,324.17,417.54,323.402"/>
<path fill-rule="evenodd" clip-rule="evenodd" fill="#F3816F" d="M266.224,307.382c3.856,1.75,7.742,1.879,11.782,0.19
	c0.4,0.642,0.715,1.319,1.182,1.869c1.421,1.668,2.89,3.298,4.36,4.925c1.202,1.328,1.095,2.191-0.607,2.548
	c-4.013,0.839-7.968,0.508-11.653-1.396c-0.792-0.41-1.443-1.254-1.943-2.035c-1.205-1.883-2.284-3.847-3.413-5.776
	C266.027,307.599,266.125,307.49,266.224,307.382"/>
<path fill-rule="evenodd" clip-rule="evenodd" fill="#F3816F" d="M256.929,319.47c2.931,1.09,5.539,0.809,7.911-1.412
	c2.036,3.49,4.073,6.799,5.912,10.213c0.831,1.544,0.265,2.147-1.479,1.821c-2.652-0.497-5.286-1.079-7.934-1.602
	c-1.37-0.271-2.206-1.061-2.57-2.403C258.195,323.971,257.595,321.863,256.929,319.47"/>
<g>
	<path fill-rule="evenodd" clip-rule="evenodd" fill="#9BC143" d="M122.342,128.833c-0.011-0.28-0.021-0.558-0.031-0.837
		c0.024-0.137,0.058-0.271,0.07-0.408c0.083-1.034,0.122-2.072,0.254-3.1c0.106-0.834,0.208-1.701,0.517-2.471
		c0.627-1.566,1.809-2.776,2.906-4.024c0.325-0.372,0.746-0.655,1.112-0.992c0.068-0.062,0.083-0.185,0.122-0.279
		c-0.087-0.033-0.172-0.09-0.262-0.095c-0.316-0.022-0.635-0.035-0.953-0.035c-0.277-0.001-0.455-0.11-0.495-0.395
		c-0.11-0.755-0.156-1.527-0.342-2.262c-0.218-0.857,0.071-1.384,0.74-1.918c0.965-0.771,1.951-1.479,3.165-1.742
		c0.767-0.167,1.567-0.179,2.352-0.271c0.158-0.018,0.31-0.083,0.465-0.126c0.054-0.002,0.111-0.004,0.167-0.006
		c0.595,0.21,1.19,0.421,1.82,0.644c-1.05,2.42-0.833,4.62,0.925,6.583c-0.248,0.646-0.706,1.117-1.176,1.6
		c-0.888,0.909-1.798,1.817-2.557,2.831c-0.711,0.95-1.33,1.996-1.826,3.074c-0.553,1.203-0.954,2.479-1.357,3.744
		c-0.188,0.589-0.223,1.228-0.333,1.843c-0.164,0.935,0.096,1.816,0.55,2.582c0.547,0.923,1.27,1.74,1.903,2.614
		c0.453,0.624,0.177,1.309-0.584,1.357c-0.546,0.034-1.128,0.017-1.648-0.137c-1.098-0.327-2.114-0.781-3.009-1.585
		c-1.323-1.188-1.982-2.642-2.24-4.339C122.502,130.067,122.426,129.449,122.342,128.833z"/>
	<g>
		<path fill-rule="evenodd" clip-rule="evenodd" fill="#297D7D" d="M222.832,93.582c-0.024,0.247-0.083,0.495-0.066,0.738
			c0.158,2.226-0.159,4.414-0.613,6.578c-0.263,1.256-0.574,2.516-1.208,3.659c-0.578,1.041-1.229,2.045-2.25,2.688
			c-0.655,0.415-1.425,0.652-2.143,0.968c-0.16,0.07-0.313,0.169-0.48,0.211c-0.361,0.09-0.736,0.127-1.092,0.229
			c-0.382,0.11-0.739,0.306-1.123,0.402c-0.687,0.171-1.388,0.279-2.078,0.44c-0.673,0.158-1.335,0.363-2.007,0.525
			c-0.674,0.165-1.353,0.301-2.16,0.479c0.116-0.214,0.155-0.412,0.271-0.482c0.834-0.498,1.472-1.194,2.076-1.938
			c1.081-1.33,1.912-2.816,2.761-4.295c0.732-1.274,1.31-2.617,1.575-4.058c0.232-1.266,0.372-2.549,0.221-3.852
			c-0.223-1.902-0.342-3.818-0.613-5.711c-0.149-1.034-0.497-2.042-0.799-3.048c-0.324-1.069-0.731-2.114-1.05-3.186
			c-0.247-0.832-0.425-1.686-0.616-2.535c-0.167-0.742-0.334-1.484-0.451-2.233c-0.167-1.07-0.288-2.146-0.427-3.219
			c-0.014-0.109-0.013-0.224-0.011-0.335c0.016-0.952,0.146-1.075,1.066-1.236c1.286-0.226,2.565-0.503,3.851-0.73
			c0.575-0.101,1.163-0.129,1.743-0.199c0.241-0.03,0.382,0.035,0.472,0.283c0.849,2.331,1.765,4.638,2.545,6.99
			c0.679,2.047,1.263,4.13,1.783,6.225c0.288,1.154,0.359,2.361,0.523,3.545c0.095,0.696,0.175,1.397,0.264,2.094
			C222.808,92.913,222.82,93.248,222.832,93.582z"/>
		<path fill-rule="evenodd" clip-rule="evenodd" fill="#297D7D" d="M137.79,109.549c0.176-0.156,0.28-0.238,0.372-0.333
			c1.312-1.334,3.035-2.035,4.583-3.005c1.957-1.226,4.089-2.065,6.181-2.998c1.243-0.555,2.465-1.166,3.733-1.66
			c1.651-0.642,3.334-1.205,5.011-1.78c1.571-0.54,3.149-1.067,4.734-1.57c1.042-0.332,2.096-0.633,3.154-0.91
			c1.557-0.41,3.122-0.784,4.682-1.176c0.564-0.142,1.125-0.302,1.69-0.437c0.133-0.031,0.289,0.032,0.425,0.007
			c0.138-0.025,0.26-0.125,0.396-0.161c1.035-0.265,2.064-0.564,3.11-0.77c0.711-0.139,1.455-0.109,2.174-0.215
			c0.929-0.135,1.845-0.355,2.774-0.496c1.725-0.262,3.453-0.515,5.185-0.733c1.507-0.188,3.022-0.321,4.511-0.476
			c0.285,0.559,0.581,1.067,0.81,1.606c0.276,0.646,0.173,1.308-0.103,1.931c-0.207,0.467-0.436,0.934-0.722,1.355
			c-0.63,0.921-1.61,1.34-2.63,1.626c-0.982,0.277-1.986,0.491-2.992,0.666c-0.759,0.133-1.54,0.152-2.309,0.242
			c-1.287,0.147-2.571,0.298-3.854,0.471c-0.943,0.127-1.88,0.299-2.823,0.435c-0.779,0.111-1.563,0.191-2.344,0.293
			c-1.704,0.223-3.412,0.419-5.108,0.691c-0.955,0.153-1.887,0.443-2.832,0.658c-0.96,0.216-1.928,0.406-2.887,0.629
			c-0.742,0.172-1.472,0.394-2.214,0.562c-1.097,0.249-2.205,0.45-3.299,0.707c-1.229,0.288-2.447,0.625-3.672,0.926
			c-1.107,0.272-2.224,0.509-3.328,0.794c-0.77,0.2-1.522,0.462-2.287,0.683c-0.411,0.12-0.829,0.208-1.243,0.32
			c-0.787,0.212-1.566,0.463-2.361,0.64c-1.45,0.324-2.914,0.586-4.365,0.914c-0.625,0.141-1.304,0.121-1.859,0.526
			C138.042,109.545,137.961,109.53,137.79,109.549z"/>
	</g>
	<g>
		<path fill-rule="evenodd" clip-rule="evenodd" fill="#539798" d="M133.251,112.9c0.029-0.133,0.055-0.267,0.089-0.4
			c0.159-0.613,0.288-1.236,0.495-1.833c0.103-0.299,0.372-0.478,0.728-0.551c0.537-0.11,1.053-0.317,1.585-0.457
			c1.178-0.307,2.354-0.616,3.54-0.886c0.649-0.148,1.325-0.184,1.975-0.332c1.409-0.322,2.811-0.67,4.21-1.03
			c1.777-0.458,3.542-0.966,5.323-1.405c2.398-0.592,4.809-1.133,7.212-1.706c1.701-0.407,3.397-0.837,5.1-1.236
			c1.122-0.264,2.246-0.515,3.376-0.731c1.638-0.312,3.279-0.605,4.927-0.872c0.833-0.134,1.679-0.182,2.518-0.287
			c1.352-0.172,2.699-0.376,4.051-0.541c1.752-0.216,3.518-0.355,5.261-0.627c1.595-0.25,3.225-0.381,4.716-1.129
			c1.084-0.544,1.593-1.473,1.933-2.558c0.163-0.516,0.047-1.013-0.183-1.45c-0.809-1.532-1.625-3.062-2.506-4.552
			c-0.514-0.868-1.146-1.667-1.747-2.481c-0.725-0.981-1.477-1.941-2.208-2.917c-0.999-1.331-2.041-2.633-2.965-4.016
			c-0.97-1.449-1.859-2.956-2.723-4.475c-1.212-2.132-2.376-4.299-3.167-6.631c-0.329-0.973-0.535-1.991-0.745-3.001
			c-0.397-1.899-0.612-3.824-0.576-5.762c0.019-1.078,0.156-2.159,0.311-3.227c0.172-1.197,0.49-2.363,0.988-3.472
			c0.672-1.496,1.42-2.954,2.417-4.264c0.976-1.281,1.946-2.57,2.997-3.79c1.011-1.172,2.174-2.198,3.513-3.001
			c0.948-0.568,1.865-1.201,2.853-1.689c1.279-0.631,2.615-1.148,3.927-1.709c0.101-0.043,0.213-0.056,0.374-0.098
			c0.026,0.702,0.016,1.379,0.083,2.049c0.107,1.074,0.246,2.146,0.409,3.214c0.163,1.049,0.373,2.089,0.564,3.134
			c0.134,0.721,0.241,1.448,0.419,2.157c0.131,0.519,0.346,1.019,0.544,1.519c0.729,1.849,1.444,3.705,2.215,5.537
			c0.314,0.748,0.757,1.442,1.147,2.158c1.276,2.339,2.668,4.602,4.281,6.729c1.05,1.386,2.164,2.712,3.42,3.91
			c0.467,0.447,1.014,0.819,1.559,1.17c1.09,0.704,2.198,1.379,3.309,2.049c0.587,0.354,1.194,0.67,1.716,0.962
			c0.195,1.461,0.347,2.909,0.586,4.342c0.401,2.4,0.884,4.776,1.683,7.092c0.59,1.709,1.033,3.48,1.417,5.25
			c0.25,1.149,0.235,2.353,0.415,3.521c0.262,1.72,0.192,3.443,0.087,5.16c-0.071,1.171-0.498,2.279-1.012,3.322
			c-0.593,1.204-1.306,2.353-1.938,3.539c-0.567,1.064-1.335,1.977-2.136,2.854c-0.577,0.633-1.245,1.192-1.913,1.731
			c-1.385,1.116-2.953,1.958-4.614,2.538c-1.688,0.589-3.453,0.965-5.193,1.393c-1.2,0.295-2.409,0.569-3.628,0.766
			c-1.618,0.26-3.247,0.472-4.877,0.639c-2.225,0.228-4.455,0.406-6.685,0.583c-1.542,0.122-3.085,0.252-4.63,0.289
			c-1.763,0.04-3.529-0.002-5.294-0.039c-1.721-0.035-3.442-0.124-5.163-0.165c-3.577-0.086-7.155-0.156-10.731-0.231
			c-2.28-0.048-4.562-0.078-6.841-0.148c-1.246-0.037-2.487-0.192-3.731-0.203c-1.513-0.014-3.028,0.033-4.539,0.121
			c-1.649,0.096-3.298,0.246-4.942,0.418c-0.49,0.052-0.961,0.271-1.449,0.383c-0.124,0.029-0.331-0.01-0.407-0.099
			c-0.825-0.948-1.433-2.006-1.585-3.282c-0.008-0.058-0.068-0.108-0.104-0.161C133.278,113.625,133.265,113.263,133.251,112.9z"/>
	</g>
	<path fill-rule="evenodd" clip-rule="evenodd" fill="#9BC143" d="M348.036,127.669c-0.359-0.041-0.811-0.102-1.258-0.141
		c-0.373-0.032-0.536-0.279-0.708-0.569c-1.112-1.887-2.197-3.792-3.376-5.639c-0.865-1.354-1.826-2.65-2.8-3.932
		c-0.608-0.805-1.323-1.528-1.978-2.3c-0.59-0.7-1.145-1.428-1.743-2.121c-1.084-1.26-2.188-2.505-3.285-3.754
		c-0.706-0.804-1.396-1.621-2.128-2.399c-0.984-1.049-2.005-2.067-3.005-3.102c-0.804-0.833-1.585-1.69-2.412-2.498
		c-0.593-0.578-1.251-1.089-1.872-1.639c-0.644-0.569-1.264-1.162-1.911-1.724c-0.604-0.524-1.2-1.069-1.856-1.52
		c-1.562-1.068-3.157-2.085-4.738-3.122c-1.233-0.805-2.47-1.601-3.693-2.418c-0.45-0.299-0.848-0.674-1.295-0.972
		c-0.93-0.619-1.879-1.208-2.815-1.813c-0.171-0.111-0.318-0.257-0.489-0.368c-0.981-0.637-1.97-1.262-2.951-1.898
		c-0.197-0.128-0.376-0.291-0.578-0.406c-1.205-0.676-2.418-1.334-3.616-2.021c-0.181-0.106-0.337-0.312-0.43-0.508
		c-0.365-0.781-0.702-1.577-1.05-2.366c-0.101-0.23-0.235-0.45-0.301-0.689c-0.449-1.661-1.319-3.131-2.097-4.641
		c-0.676-1.308-1.623-2.398-2.898-3.181c-0.188-0.114-0.34-0.288-0.491-0.449c-1.583-1.688-3.531-2.539-5.838-2.411
		c-1.613,0.09-3.225,0.276-4.823,0.512c-1.161,0.17-2.175,0.75-3.105,1.477c-0.612,0.481-1.288,0.881-1.9,1.364
		c-1.033,0.814-1.68,1.901-2.238,3.084c-0.497,1.062-1.158,2.052-1.79,3.047c-0.455,0.715-0.956,1.406-1.481,2.074
		c-0.777,0.99-1.661,1.901-2.374,2.934c-0.816,1.18-1.515,2.445-2.226,3.692c-0.37,0.647-0.714,1.319-0.988,2.01
		c-0.649,1.632-1.264,3.277-1.864,4.928c-0.384,1.054-0.773,2.111-1.055,3.194c-0.51,1.955-1.029,3.916-1.05,5.957
		c-0.017,1.75,0.008,3.5,0.021,5.25c0,0.565-0.055,1.141,0.039,1.693c0.217,1.292,0.419,2.597,0.786,3.85
		c0.633,2.161,1.348,4.299,2.105,6.419c0.505,1.42,1.128,2.8,1.728,4.185c0.462,1.064,0.955,2.113,1.46,3.159
		c0.538,1.11,1.082,2.222,1.659,3.312c0.683,1.28,1.412,2.538,2.107,3.81c0.538,0.976,1.033,1.975,1.601,2.932
		c0.552,0.927,1.178,1.81,1.765,2.717c0.724,1.125,1.425,2.268,2.162,3.386c0.625,0.943,1.307,1.849,1.922,2.799
		c0.499,0.764,0.94,1.565,1.409,2.348c0.327,0.546,0.637,1.101,0.99,1.627c0.426,0.634,0.426,1.099-0.024,1.719
		c-0.703,0.965-1.529,1.791-2.556,2.412c-0.591,0.359-0.72,0.352-1.476-0.159c-1.279-0.865-2.499-1.804-3.57-2.91
		c-1.158-1.193-2.285-2.419-3.367-3.679c-1.744-2.032-3.433-4.112-5.165-6.151c-0.466-0.549-1.037-1.007-1.509-1.55
		c-0.719-0.823-1.39-1.691-2.092-2.531c-0.465-0.553-0.964-1.073-1.416-1.636c-0.644-0.801-1.255-1.628-1.884-2.439
		c-0.705-0.909-1.436-1.797-2.115-2.723c-0.654-0.893-1.264-1.817-1.882-2.734c-1.183-1.758-2.377-3.506-3.528-5.282
		c-0.64-0.984-1.261-1.99-1.786-3.039c-0.604-1.21-1.09-2.479-1.641-3.716c-0.153-0.338-0.35-0.658-0.547-0.976
		c-0.582-0.947-0.962-1.987-1.418-2.996c-0.836-1.858-1.305-3.817-1.782-5.777c-0.124-0.505-0.091-1.046-0.146-1.569
		c-0.093-0.854-0.196-1.706-0.301-2.558c-0.11-0.895-0.29-1.787-0.323-2.685c-0.053-1.445-0.006-2.893-0.012-4.341
		c-0.004-0.734-0.055-1.468-0.037-2.2c0.018-0.681,0.109-1.36,0.151-2.042c0.041-0.667,0.06-1.333,0.091-2
		c0.014-0.278,0.013-0.557,0.051-0.832c0.171-1.241,0-2.452-0.276-3.66c-0.138-0.606-0.191-1.233-0.358-1.829
		c-0.143-0.5-0.374-0.981-0.607-1.449c-0.496-1.002-1.125-1.918-2.01-2.615c-1.089-0.857-2.224-1.646-3.568-2.081
		c-1.374-0.444-2.719-0.978-4.106-1.367c-1.548-0.432-3.112-0.863-4.699-1.085c-1.881-0.266-3.791-0.352-5.692-0.427
		c-0.805-0.031-1.619,0.173-2.43,0.254c-1.3,0.128-2.606,0.209-3.9,0.376c-1.043,0.134-2.075,0.357-3.109,0.558
		c-0.476,0.091-0.94,0.273-1.418,0.317c-0.273,0.024-0.607-0.083-0.838-0.242c-0.886-0.607-1.748-1.252-2.606-1.898
		c-0.705-0.531-1.393-1.086-2.092-1.625c-0.404-0.311-0.85-0.575-1.222-0.92c-1.976-1.836-3.645-3.934-5.138-6.17
		c-0.808-1.21-1.549-2.467-2.307-3.71c-1.292-2.119-2.43-4.313-3.255-6.662c-0.407-1.158-0.899-2.289-1.298-3.451
		c-0.174-0.506-0.2-1.063-0.312-1.595c-0.143-0.679-0.329-1.349-0.451-2.032c-0.2-1.104-0.392-2.211-0.535-3.323
		c-0.157-1.207-0.224-2.426-0.391-3.63c-0.07-0.507,0.147-0.763,0.514-1.003c1.485-0.967,3.041-1.793,4.75-2.28
		c1.39-0.396,2.79-0.757,4.194-1.091c1.582-0.377,3.171-0.717,4.762-1.056c2.631-0.561,5.318-0.659,7.982-0.939
		c1.036-0.11,2.071-0.242,3.108-0.322c0.804-0.063,1.613-0.056,2.418-0.093c0.985-0.044,1.97-0.125,2.955-0.15
		c1.377-0.033,2.756-0.042,4.135-0.039c2.029,0.006,4.06-0.017,6.084,0.066c2.362,0.096,4.728,0.21,7.075,0.471
		c1.758,0.197,3.498,0.608,5.234,0.979c1.394,0.298,2.769,0.685,4.157,1.016c0.805,0.191,1.621,0.326,2.418,0.532
		c1.144,0.296,2.27,0.65,3.411,0.949c1.481,0.39,2.972,0.747,4.458,1.123c1.52,0.388,3.047,0.762,4.561,1.182
		c1.55,0.43,3.095,0.874,4.619,1.379c0.898,0.299,1.75,0.742,2.628,1.102c0.763,0.313,1.544,0.586,2.301,0.907
		c1.069,0.454,2.138,0.909,3.181,1.416c0.768,0.373,1.487,0.839,2.237,1.246c0.91,0.491,1.829,0.965,2.748,1.443
		c0.653,0.338,1.313,0.657,1.962,1.005c0.567,0.306,1.125,0.635,1.684,0.961c1.113,0.65,2.224,1.306,3.333,1.959
		c1.588,0.935,3.253,1.76,4.745,2.829c2.097,1.501,4.074,3.167,6.081,4.788c2.086,1.684,4.164,3.375,6.207,5.11
		c0.66,0.56,1.199,1.263,1.79,1.904c0.738,0.801,1.476,1.602,2.204,2.411c0.854,0.944,1.687,1.904,2.542,2.846
		c1.135,1.246,2.288,2.479,3.424,3.725c0.925,1.015,1.825,2.053,2.762,3.057c0.678,0.726,1.403,1.406,2.094,2.12
		c0.924,0.952,1.838,1.914,2.75,2.875c0.639,0.672,1.273,1.35,1.905,2.03c0.726,0.782,1.463,1.556,2.166,2.356
		c0.924,1.049,1.819,2.127,2.738,3.18c0.856,0.98,1.753,1.925,2.59,2.921c1.173,1.401,2.292,2.849,3.46,4.256
		c0.779,0.936,1.626,1.818,2.404,2.757c0.635,0.767,1.213,1.579,1.816,2.37c0.485,0.639,0.995,1.26,1.449,1.918
		c0.595,0.854,1.143,1.737,1.714,2.606c0.41,0.624,0.836,1.239,1.229,1.872c0.558,0.894,1.063,1.82,1.639,2.701
		c1.343,2.055,2.425,4.252,3.573,6.413c0.73,1.372,1.502,2.72,2.187,4.112c0.592,1.201,1.095,2.443,1.611,3.678
		c0.037,0.085-0.098,0.317-0.209,0.378c-0.512,0.279-1.045,0.526-1.571,0.777c-0.298,0.142-0.592,0.309-0.905,0.395
		C349.181,127.463,348.66,127.544,348.036,127.669z"/>
	<path fill-rule="evenodd" clip-rule="evenodd" fill="#F8A879" d="M284.46,69.417c0.218,0.03,0.446,0.03,0.65,0.097
		c1.01,0.329,2.053,0.589,3.007,1.038c0.802,0.379,1.321,1.157,1.881,1.847c0.955,1.174,1.521,2.563,2.232,3.874
		c0.396,0.729,0.816,1.446,1.205,2.179c0.17,0.327,0.26,0.697,0.436,1.023c0.338,0.63,0.664,1.276,1.081,1.853
		c0.468,0.643,1.019,1.229,1.56,1.813c0.24,0.258,0.245,0.414,0.012,0.697c-0.736,0.894-1.688,1.462-2.727,1.926
		c-2.377,1.062-4.75,2.131-7.125,3.205c-0.936,0.424-1.899,0.663-2.939,0.577c-1.398-0.113-2.797-0.184-4.195-0.304
		c-1.134-0.097-2.187-0.423-3.126-1.121c-0.946-0.702-1.454-1.62-1.571-2.764c-0.075-0.732-0.055-1.473-0.14-2.202
		c-0.164-1.405-0.468-2.751-1.85-3.526c-0.07-0.04-0.142-0.088-0.198-0.146c-0.06-0.056-0.105-0.13-0.231-0.289
		c0.446-0.216,0.849-0.448,1.276-0.609c1.555-0.583,3.036-1.307,4.343-2.333c0.871-0.683,1.554-1.502,1.743-2.685
		c0.124-0.775,0.477-1.511,0.708-2.269c0.31-1.011,1.05-1.5,2.024-1.718c0.121-0.027,0.236-0.07,0.351-0.104
		C283.398,69.455,283.929,69.436,284.46,69.417z"/>
	<path fill-rule="evenodd" clip-rule="evenodd" fill="#F8A879" d="M293.763,168.56c-0.782-0.167-1.586-0.266-2.341-0.516
		c-1.52-0.504-2.959-1.21-4.279-2.116c-1.077-0.736-2.126-1.524-3.129-2.359c-1.272-1.062-2.355-2.297-3.124-3.79
		c-0.228-0.439-0.533-0.852-0.858-1.228c-0.793-0.907-1.343-1.936-1.66-3.092c-0.073-0.266-0.303-0.566-0.229-0.769
		c0.072-0.208,0.437-0.301,0.658-0.462c0.756-0.55,1.422-1.187,1.929-1.979c0.044-0.067,0.104-0.124,0.153-0.179
		c0.991,0.419,1.848,1.006,2.627,1.726c0.943,0.877,1.946,1.688,2.868,2.584c0.733,0.711,1.413,1.483,2.057,2.276
		c0.429,0.53,0.75,1.143,1.123,1.715c0.206,0.31,0.194,0.669-0.033,0.884c-0.173,0.163-0.534,0.214-0.794,0.175
		c-0.865-0.127-1.466-0.746-2.11-1.267c-0.13-0.103-0.257-0.201-0.386-0.302c-0.029,0.021-0.06,0.042-0.088,0.063
		c0.072,0.146,0.118,0.315,0.222,0.437c1.146,1.328,2.362,2.591,3.962,3.366c1.306,0.633,2.665,1.15,3.985,1.756
		c0.744,0.339,1.375,0.807,1.395,1.75c0.012,0.645-0.168,0.903-0.809,1.11c-0.16,0.05-0.315,0.128-0.472,0.193
		C294.207,168.544,293.984,168.552,293.763,168.56z"/>
	<path fill-rule="evenodd" clip-rule="evenodd" fill="#F8A879" d="M351.332,125.816c0.93,0.716,1.258,1.744,1.669,2.701
		c0.235,0.552,0.362,1.157,0.307,1.796c-0.032,0.382,0.157,0.779,0.194,1.173c0.058,0.622,0.113,1.247,0.092,1.868
		c-0.032,0.907-0.095,1.815-0.215,2.715c-0.11,0.821-0.279,1.637-0.48,2.442c-0.336,1.333-0.679,2.684-1.378,3.877
		c-0.712,1.22-1.493,2.417-2.688,3.244c-0.303,0.208-0.656,0.355-1.007,0.482c-1.254,0.452-2.052-0.733-1.907-1.621
		c0.118-0.719,0.363-1.422,0.61-2.113c0.367-1.045,0.845-2.058,1.161-3.117c0.328-1.098,0.56-2.23,0.768-3.359
		c0.096-0.528,0.035-1.085-0.053-1.643c-0.052,0.259-0.091,0.523-0.162,0.777c-0.358,1.292-0.801,2.551-1.774,3.52
		c-0.234,0.235-0.606,0.408-0.935,0.454c-0.443,0.062-0.644-0.172-0.637-0.619c0.007-0.345,0.041-0.699,0.13-1.032
		c0.34-1.284,0.753-2.552,1.049-3.845c0.226-0.982,0.324-1.996,0.459-2.998c0.108-0.812,0.195-1.626,0.278-2.441
		c0.035-0.331,0.041-0.665,0.063-1.058C348.592,127.375,349.99,126.636,351.332,125.816z"/>
	<path fill-rule="evenodd" clip-rule="evenodd" fill="#485D70" d="M304.228,61.169c0.006,0.167,0.012,0.335,0.018,0.501
		c-0.032,0.269-0.064,0.537-0.095,0.806c-0.055,0.449-0.089,0.903-0.17,1.351c-0.189,1.046-0.886,1.832-1.412,2.71
		c-0.402,0.67-0.581,1.391-0.087,2.144c0.338,0.519,0.645,1.067,0.895,1.635c0.511,1.165,0.699,2.404,0.613,3.667
		c-0.058,0.828-0.187,1.658-0.363,2.469c-0.152,0.685-0.398,1.352-0.646,2.012c-0.3,0.801-0.594,1.611-0.984,2.367
		c-0.375,0.719-0.891,1.36-1.314,2.055c-0.894,1.471-3.197,1.885-4.569,0.574c-0.975-0.931-1.781-2.016-2.387-3.235
		c-0.699-1.411-1.384-2.831-2.111-4.227c-0.512-0.979-1.073-1.932-1.634-2.882c-0.154-0.26-0.399-0.464-0.574-0.712
		c-0.573-0.815-1.198-1.559-2.188-1.889c-0.329-0.109-0.651-0.252-0.963-0.399c-1.185-0.555-2.333-0.501-3.427,0.211
		c-1.389,0.904-2.28,2.15-2.526,3.817c-0.019,0.122-0.048,0.267-0.122,0.352c-0.67,0.737-1.286,1.544-2.044,2.172
		c-0.971,0.8-2.07,1.44-3.254,1.895c-0.79,0.304-1.575,0.741-2.392,0.819c-1.488,0.144-3.001,0.117-4.431-0.492
		c-0.979-0.417-1.886-0.934-2.67-1.658c-0.938-0.86-1.866-1.73-2.838-2.551c-0.545-0.461-1.136-0.89-1.763-1.224
		c-0.753-0.401-1.54-0.848-2.359-0.984c-1.486-0.247-3.005-0.313-4.513-0.393c-1.911-0.102-3.824-0.158-5.736-0.202
		c-1.079-0.025-2.165,0.036-3.247,0.016c-0.7-0.014-1.404-0.059-2.094-0.176c-1.099-0.189-2.104-0.626-3.079-1.186
		c-2.131-1.223-4.043-2.682-5.667-4.545c-0.774-0.886-1.576-1.739-2.218-2.729c-0.476-0.733-1.031-1.421-1.275-2.28
		c-0.125-0.442-0.185-0.903-0.318-1.342c-0.286-0.938-0.665-1.855-0.885-2.807c-0.171-0.739-0.207-1.518-0.213-2.281
		c-0.008-0.872,0.132-1.745,0.121-2.618c-0.018-1.527-0.129-3.053-0.15-4.581c-0.023-1.563,0.418-3.038,1.025-4.462
		c0.426-1.002,1.163-1.787,1.857-2.597c0.556-0.65,1.258-0.895,2-0.466c0.457,0.264,0.902,0.7,1.136,1.166
		c1.029,2.043,2.625,3.458,4.673,4.374c1.956,0.875,3.996,1.481,6.115,1.858c1.393,0.248,2.75,0.252,4.122-0.08
		c1.181-0.285,2.374-0.527,3.562-0.793c1.188-0.267,2.385-0.501,3.556-0.822c1.094-0.3,2.206-0.383,3.32-0.379
		c1.345,0.005,2.665,0.167,3.987,0.521c2.158,0.576,4.103,1.556,5.976,2.713c0.836,0.518,1.598,1.158,2.421,1.7
		c1.242,0.82,2.385,1.774,3.203,3.001c1.254,1.88,2.387,3.845,3.542,5.79c0.363,0.61,0.819,1.114,1.379,1.532
		c0.589,0.441,1.041-0.001,1.441-0.315c1.133-0.885,2.399-1.162,3.797-1.013c1.541,0.164,1.996-0.105,2.334-1.535
		c0.349-1.482,1.276-2.46,2.638-3.036c0.948-0.401,1.982-0.477,2.985-0.378c1.008,0.102,2.019,0.316,2.99,0.616
		c1.644,0.508,3.209,1.219,4.543,2.335c0.749,0.627,1.466,1.311,1.815,2.268C303.795,59.955,304.01,60.563,304.228,61.169z"/>
	<path fill-rule="evenodd" clip-rule="evenodd" fill="#F3816F" d="M278.733,72.908c0.061-0.263,0.117-0.525,0.181-0.788
		c0.235-1.02,0.596-1.992,1.235-2.829c1.116-1.458,3.127-1.921,4.697-0.854c0.301,0.206,0.6,0.435,0.847,0.701
		c0.709,0.758,0.65,1.837-0.124,2.521c-0.681,0.6-1.472,0.866-2.383,0.739c-1.089-0.15-1.777,0.555-1.686,1.673
		c0.039,0.468,0.015,0.946-0.021,1.417c-0.034,0.461-0.761,0.811-1.218,0.586c-0.56-0.273-1.036-0.632-1.173-1.306
		c-0.089-0.429-0.223-0.851-0.335-1.276C278.746,73.298,278.74,73.103,278.733,72.908z"/>
	<path fill-rule="evenodd" clip-rule="evenodd" fill="#F3816F" d="M288.007,92.852c-0.699-0.449-1.086-1.106-1.205-1.911
		c-0.114-0.767-0.296-1.494-0.761-2.135c-0.325-0.447-0.234-0.92-0.018-1.38c0.118-0.245,0.759-0.449,1.05-0.268
		c0.853,0.53,1.568,0.053,2.186-0.375c0.821-0.569,1.676-0.689,2.603-0.566c0.107,0.015,0.255,0.223,0.266,0.349
		c0.046,0.658-0.306,1.125-0.815,1.486c-0.63,0.448-1.276,0.872-1.899,1.326c-0.377,0.274-0.392,0.713-0.428,1.127
		c-0.028,0.332-0.041,0.667-0.047,1c-0.007,0.56-0.309,0.967-0.678,1.339C288.174,92.846,288.091,92.849,288.007,92.852z"/>
</g>
</svg>
