<?xml version="1.0" encoding="UTF-8" standalone="no"?>
<!-- Generator: Adobe Illustrator 22.0.1, SVG Export Plug-In . SVG Version: 6.00 Build 0)  -->

<svg
   xmlns:dc="http://purl.org/dc/elements/1.1/"
   xmlns:cc="http://creativecommons.org/ns#"
   xmlns:rdf="http://www.w3.org/1999/02/22-rdf-syntax-ns#"
   xmlns:svg="http://www.w3.org/2000/svg"
   xmlns="http://www.w3.org/2000/svg"
   xmlns:xlink="http://www.w3.org/1999/xlink"
   xmlns:sodipodi="http://sodipodi.sourceforge.net/DTD/sodipodi-0.dtd"
   xmlns:inkscape="http://www.inkscape.org/namespaces/inkscape"
   version="1.1"
   id="Layer_1"
   x="0px"
   y="0px"
   viewBox="0 0 304 460.00002"
   xml:space="preserve"
   sodipodi:docname="2nd-spot.svg"
   width="304"
   height="460"
   inkscape:version="0.92.3 (2405546, 2018-03-11)"><metadata
   id="metadata51"><rdf:RDF><cc:Work
       rdf:about=""><dc:format>image/svg+xml</dc:format><dc:type
         rdf:resource="http://purl.org/dc/dcmitype/StillImage" /><dc:title></dc:title></cc:Work></rdf:RDF></metadata><defs
   id="defs49"><linearGradient
     id="linearGradient3776"
     gradientUnits="userSpaceOnUse"
     x1="2629.8828"
     y1="-1207.376"
     x2="2629.8828"
     y2="-135.388"
     gradientTransform="matrix(1,0,0,-1,-2571,478.2481)"><stop
       offset="0"
       style="stop-color:#11998E"
       id="stop30-6" /><stop
       offset="1"
       style="stop-color:#38EF7D"
       id="stop32-7" /></linearGradient><clipPath
     id="SVGID_2_-7"><use
       xlink:href="#SVGID_1_"
       style="overflow:visible"
       id="use7-4"
       x="0"
       y="0"
       width="100%"
       height="100%" /></clipPath></defs><sodipodi:namedview
   pagecolor="#ffffff"
   bordercolor="#666666"
   borderopacity="1"
   objecttolerance="10"
   gridtolerance="10"
   guidetolerance="10"
   inkscape:pageopacity="0"
   inkscape:pageshadow="2"
   inkscape:window-width="1639"
   inkscape:window-height="795"
   id="namedview47"
   showgrid="false"
   units="px"
   width="300in"
   inkscape:zoom="0.47617848"
   inkscape:cx="-356.56441"
   inkscape:cy="-104.06615"
   inkscape:window-x="2111"
   inkscape:window-y="42"
   inkscape:window-maximized="0"
   inkscape:current-layer="g44" />
<style
   type="text/css"
   id="style2">
	.st0{clip-path:url(#SVGID_2_);fill:url(#SVGID_3_);}
	.st1{clip-path:url(#SVGID_2_);fill:url(#SVGID_4_);}
	.st2{clip-path:url(#SVGID_2_);fill:url(#SVGID_5_);}
	.st3{clip-path:url(#SVGID_2_);fill:url(#SVGID_6_);}
	.st4{clip-path:url(#SVGID_2_);fill:url(#SVGID_7_);}
</style>
<g
   id="g44"
   transform="matrix(0.92999824,0,0,0.5113558,0,-3501.136)">
	<defs
   id="defs5">
		<rect
   id="SVGID_1_"
   y="-7.4000001"
   width="1920"
   height="4596"
   x="0" />
		<!--
		<view id="blob-1" viewBox="0 0 1920 614" />
		<view id="blob-2" viewBox="0 614 1920 1072" />
		-->
	</defs>
	<clipPath
   id="SVGID_2_">
		<use
   xlink:href="#SVGID_1_"
   style="overflow:visible"
   id="use7"
   x="0"
   y="0"
   width="100%"
   height="100%" />
	</clipPath>
	
		<linearGradient
   id="SVGID_3_"
   gradientUnits="userSpaceOnUse"
   x1="5515.9971"
   y1="-5593.3379"
   x2="5515.9971"
   y2="-5072.3643"
   gradientTransform="matrix(1,0,0,-1,-3777,-1631.7218)">
		<stop
   offset="0"
   style="stop-color:#11998E"
   id="stop10" />
		<stop
   offset="1"
   style="stop-color:#38EF7D"
   id="stop12" />
	</linearGradient>
	
	
		<linearGradient
   id="SVGID_4_"
   gradientUnits="userSpaceOnUse"
   x1="2666.0513"
   y1="-4570.3638"
   x2="2666.0513"
   y2="-3902.3818"
   gradientTransform="matrix(1,0,0,-1,-2571,-1128.7518)">
		<stop
   offset="0"
   style="stop-color:#11998E"
   id="stop16" />
		<stop
   offset="1"
   style="stop-color:#38EF7D"
   id="stop18" />
	</linearGradient>
	
	
		<linearGradient
   id="SVGID_5_"
   gradientUnits="userSpaceOnUse"
   x1="5738.9912"
   y1="-2988.3999"
   x2="5738.9912"
   y2="-1903.3824"
   gradientTransform="matrix(1,0,0,-1,-3904,-217.7518)">
		<stop
   offset="0"
   style="stop-color:#11998E"
   id="stop23" />
		<stop
   offset="1"
   style="stop-color:#38EF7D"
   id="stop25" />
	</linearGradient>
	
	
		<linearGradient
   id="SVGID_6_"
   gradientUnits="userSpaceOnUse"
   x1="2629.8828"
   y1="-1207.376"
   x2="2629.8828"
   y2="-135.388"
   gradientTransform="matrix(1,0,0,-1,-2571,478.2481)">
		<stop
   offset="0"
   style="stop-color:#11998E"
   id="stop30" />
		<stop
   offset="1"
   style="stop-color:#38EF7D"
   id="stop32" />
	</linearGradient>
	
	
		<linearGradient
   id="SVGID_7_"
   gradientUnits="userSpaceOnUse"
   x1="4716.0093"
   y1="391.63831"
   x2="4716.0093"
   y2="996.54639"
   gradientTransform="matrix(1,0,0,-1,-3255,1004.2482)">
		<stop
   offset="0"
   style="stop-color:#11998E"
   id="stop37" />
		<stop
   offset="1"
   style="stop-color:#38EF7D"
   id="stop39" />
	</linearGradient>
	
<path
   style="fill:url(#SVGID_6_)"
   class="st3"
   d="M -360,613.6 C -92,658 105.5,738 226.8,821.3 c 122.7,84.1 169.4,171.4 167.9,248.3 -1.1,155.1 -195.9,266.5 -219.7,310.1 -28.3,40.9 -21.3,108.9 -43.8,166.7 -19.6,58.6 -68.7,107.2 -144.6,127 -74.3,21.1 -175.4,13.4 -261.6,-11.8 -85.7,-23.5 -156.4,-64.5 -158.4,-70.8 -144.7,-63.4 49.8,-153.2 150.4,-306.1 50.7,-77.2 75.4,-172.7 53.7,-288 C -247.5,882.3 -312.2,747.9 -360,613.6 Z m 916.4,390.6 c 39.9,18.3 57.4,65.4 39.2,105.3 -18.3,39.9 -65.4,57.4 -105.3,39.2 -39.8,-18.2 -57.4,-65.3 -39.2,-105.2 18.1,-39.9 65.2,-57.6 105.1,-39.4 0,0 0.1,0.1 0.2,0.1 z"
   clip-path="url(#SVGID_2_)"
   id="path35"
   inkscape:connector-curvature="0"
   transform="matrix(0.53514125,0,0,0.91210332,3.0111106,6208.9259)" /></g>
</svg>