<?xml version="1.0" encoding="UTF-8" standalone="no"?>
<!-- Generator: Adobe Illustrator 22.0.1, SVG Export Plug-In . SVG Version: 6.00 Build 0)  -->

<svg
   xmlns:dc="http://purl.org/dc/elements/1.1/"
   xmlns:cc="http://creativecommons.org/ns#"
   xmlns:rdf="http://www.w3.org/1999/02/22-rdf-syntax-ns#"
   xmlns:svg="http://www.w3.org/2000/svg"
   xmlns="http://www.w3.org/2000/svg"
   xmlns:xlink="http://www.w3.org/1999/xlink"
   xmlns:sodipodi="http://sodipodi.sourceforge.net/DTD/sodipodi-0.dtd"
   xmlns:inkscape="http://www.inkscape.org/namespaces/inkscape"
   version="1.1"
   id="Layer_1"
   x="0px"
   y="0px"
   viewBox="0 0 117.2375 293.00001"
   xml:space="preserve"
   sodipodi:docname="third-spot.svg"
   width="565"
   height="1000"
   inkscape:version="0.92.3 (2405546, 2018-03-11)"><metadata
   id="metadata51"><rdf:RDF><cc:Work
       rdf:about=""><dc:format>image/svg+xml</dc:format><dc:type
         rdf:resource="http://purl.org/dc/dcmitype/StillImage" /><dc:title></dc:title></cc:Work></rdf:RDF></metadata><defs
   id="defs49" /><sodipodi:namedview
   pagecolor="#ffffff"
   bordercolor="#666666"
   borderopacity="1"
   objecttolerance="10"
   gridtolerance="10"
   guidetolerance="10"
   inkscape:pageopacity="0"
   inkscape:pageshadow="2"
   inkscape:window-width="1920"
   inkscape:window-height="1058"
   id="namedview47"
   showgrid="false"
   units="px"
   width="300in"
   inkscape:zoom="0.47617848"
   inkscape:cx="-135.08022"
   inkscape:cy="125.43628"
   inkscape:window-x="1912"
   inkscape:window-y="-8"
   inkscape:window-maximized="1"
   inkscape:current-layer="g44"
   inkscape:showpageshadow="false" />
<style
   type="text/css"
   id="style2">
	.st0{clip-path:url(#SVGID_2_);fill:url(#SVGID_3_);}
	.st1{clip-path:url(#SVGID_2_);fill:url(#SVGID_4_);}
	.st2{clip-path:url(#SVGID_2_);fill:url(#SVGID_5_);}
	.st3{clip-path:url(#SVGID_2_);fill:url(#SVGID_6_);}
	.st4{clip-path:url(#SVGID_2_);fill:url(#SVGID_7_);}
</style>
<g
   id="g44"
   transform="matrix(0.92999824,0,0,0.5113558,0,-3668.136)">
	<defs
   id="defs5">
		<rect
   id="SVGID_1_"
   y="-7.4000001"
   width="1920"
   height="4596"
   x="0" />
		<!--
		<view id="blob-1" viewBox="0 0 1920 614" />
		<view id="blob-2" viewBox="0 614 1920 1072" />
		-->
	</defs>
	<clipPath
   id="SVGID_2_">
		<use
   xlink:href="#SVGID_1_"
   style="overflow:visible"
   id="use7"
   x="0"
   y="0"
   width="100%"
   height="100%" />
	</clipPath>
	
		<linearGradient
   id="SVGID_3_"
   gradientUnits="userSpaceOnUse"
   x1="5515.9971"
   y1="-5593.3379"
   x2="5515.9971"
   y2="-5072.3643"
   gradientTransform="matrix(1,0,0,-1,-3777,-1631.7218)">
		<stop
   offset="0"
   style="stop-color:#11998E"
   id="stop10" />
		<stop
   offset="1"
   style="stop-color:#38EF7D"
   id="stop12" />
	</linearGradient>
	
	
		<linearGradient
   id="SVGID_4_"
   gradientUnits="userSpaceOnUse"
   x1="2666.0513"
   y1="-4570.3638"
   x2="2666.0513"
   y2="-3902.3818"
   gradientTransform="matrix(1,0,0,-1,-2571,-1128.7518)">
		<stop
   offset="0"
   style="stop-color:#11998E"
   id="stop16" />
		<stop
   offset="1"
   style="stop-color:#38EF7D"
   id="stop18" />
	</linearGradient>
	
	
		<linearGradient
   id="SVGID_5_"
   gradientUnits="userSpaceOnUse"
   x1="5738.9912"
   y1="-2988.3999"
   x2="5738.9912"
   y2="-1903.3824"
   gradientTransform="matrix(1,0,0,-1,-3817.83,-215.46789)">
		<stop
   offset="0"
   style="stop-color:#11998E"
   id="stop23" />
		<stop
   offset="1"
   style="stop-color:#38EF7D"
   id="stop25" />
	</linearGradient>
	<path
   class="st2"
   d="m 1872,1686.8 c 19.1,5.1 30.5,24.7 25.4,43.8 -5.1,19.1 -24.7,30.5 -43.8,25.4 -19.1,-5.1 -30.5,-24.6 -25.4,-43.7 5.1,-19.1 24.7,-30.5 43.8,-25.5 0,0 0,0 0,0 z m 23.8,58.9 c 9.9,2.6 15.7,12.7 13.1,22.6 -2.6,9.9 -12.7,15.7 -22.6,13.1 -9.9,-2.6 -15.7,-12.7 -13.1,-22.6 2.6,-9.9 12.8,-15.7 22.6,-13.1 0,0 0,0 0,0 z m -57.5,48 c 4,1.1 6.4,5.2 5.3,9.2 -1.1,4 -5.2,6.4 -9.2,5.3 -4,-1.1 -6.4,-5.2 -5.3,-9.2 1.1,-3.9 5.2,-6.3 9.2,-5.3 0,0 0,0 0,0 z m 335.6,138 c 83.3,24.4 161.1,73 167.5,112.7 11.9,41.4 -47.5,73.8 -111.2,104.9 -67.1,30.7 -138.4,60.1 -181.8,95.3 -46.2,34.6 -64.5,75.1 -90,112.2 -24.3,37.6 -45.1,71 -76.5,98.3 -30.7,27.4 -71.9,48.6 -120.6,63.3 -98.4,28.9 -221.4,33.3 -311.5,4.9 -38.9,-13.8 -90.6,-39.3 -110.3,-69.2 -22.3,-30.3 -12.4,-64.9 9.5,-105.7 21.7,-40.6 55.5,-87.2 76.5,-136.2 23.3,-48.2 33.8,-98.9 61.5,-129.1 31.3,-31.4 100.4,-37.2 190.2,-37.4 89.3,0.2 178.6,-2.1 227.4,-23.7 52,-19.9 65.4,-58.1 93.9,-84.2 14.8,-12.7 35,-21.6 65.4,-22.8 29.9,-1.4 69.9,4.8 110,16.7 z m -304.6,650.9 c 34.6,9.2 55.2,44.6 46,79.2 -9.2,34.6 -44.6,55.2 -79.2,46 -34.5,-9.2 -55.1,-44.6 -46,-79.1 9.2,-34.7 44.6,-55.3 79.2,-46.1 0,0 0,0 0,0 z m -194.4,128 c 16.3,4.3 26,21 21.7,37.3 -4.3,16.3 -21,26 -37.3,21.7 -16.3,-4.3 -26,-21 -21.7,-37.3 4.2,-16.3 20.9,-26.1 37.3,-21.7 0,0 0,0 0,0 z"
   clip-path="url(#SVGID_2_)"
   id="path28"
   style="fill:url(#SVGID_5_)"
   inkscape:connector-curvature="0"
   transform="matrix(0.29944995,0,0,0.52686049,-422.89143,6285.1144)" />
	
		<linearGradient
   id="SVGID_6_"
   gradientUnits="userSpaceOnUse"
   x1="2629.8828"
   y1="-1207.376"
   x2="2629.8828"
   y2="-135.388"
   gradientTransform="matrix(1,0,0,-1,-2571,478.2481)">
		<stop
   offset="0"
   style="stop-color:#11998E"
   id="stop30" />
		<stop
   offset="1"
   style="stop-color:#38EF7D"
   id="stop32" />
	</linearGradient>
	
	
		<linearGradient
   id="SVGID_7_"
   gradientUnits="userSpaceOnUse"
   x1="4716.0093"
   y1="391.63831"
   x2="4716.0093"
   y2="996.54639"
   gradientTransform="matrix(1,0,0,-1,-3255,1004.2482)">
		<stop
   offset="0"
   style="stop-color:#11998E"
   id="stop37" />
		<stop
   offset="1"
   style="stop-color:#38EF7D"
   id="stop39" />
	</linearGradient>
	
</g>
</svg>